<svg class="main-svg" xmlns="http://www.w3.org/2000/svg" xmlns:xlink="http://www.w3.org/1999/xlink" width="700" height="500" style="" viewBox="0 0 700 500"><rect x="0" y="0" width="700" height="500" style="fill: rgb(255, 255, 255); fill-opacity: 1;"/><defs id="defs-d1dd00"><g class="clips"/><g class="gradients"/></defs><g class="bglayer"/><g class="layer-below"><g class="imagelayer"/><g class="shapelayer"/></g><g class="cartesianlayer"/><g class="polarlayer"/><g class="ternarylayer"/><g class="geolayer"/><g class="funnelarealayer"/><g class="pielayer"/><g class="treemaplayer"/><g class="sunburstlayer"/><g class="glimages"/><g class="sankey" transform="translate(80,100)matrix(1 0 0 1 0 0)" style="box-sizing: content-box; position: absolute; left: 0px; shape-rendering: geometricprecision; pointer-events: auto;"><g class="sankey-links" style="fill: none;"><path class="sankey-link" d="M20,40.00000000000003C47.142857142857146,40.00000000000003 47.142857142857146,20.000000000000313 74.28571428571429,20.000000000000313L74.28571428571429,124.00000000000031C47.142857142857146,124.00000000000031 47.142857142857146,144.00000000000003 20,144.00000000000003Z" style="stroke: rgb(68, 68, 68); stroke-opacity: 1; fill: rgb(0, 0, 0); fill-opacity: 0.2; stroke-width: 0; opacity: 1;"/><path class="sankey-link" d="M20,144.00000000000003C47.142857142857146,144.00000000000003 47.142857142857146,157.00000000000026 74.28571428571429,157.00000000000026L74.28571428571429,183.00000000000026C47.142857142857146,183.00000000000026 47.142857142857146,170.00000000000003 20,170.00000000000003Z" style="stroke: rgb(68, 68, 68); stroke-opacity: 1; fill: rgb(0, 0, 0); fill-opacity: 0.2; stroke-width: 0; opacity: 1;"/><path class="sankey-link" d="M20,189.99999999999997C47.142857142857146,189.99999999999997 47.142857142857146,124.00000000000031 74.28571428571429,124.00000000000031L74.28571428571429,137.0000000000003C47.142857142857146,137.0000000000003 47.142857142857146,202.99999999999997 20,202.99999999999997Z" style="stroke: rgb(68, 68, 68); stroke-opacity: 1; fill: rgb(0, 0, 0); fill-opacity: 0.2; stroke-width: 0; opacity: 1;"/><path class="sankey-link" d="M20,202.99999999999997C47.142857142857146,202.99999999999997 47.142857142857146,183.00000000000026 74.28571428571429,183.00000000000026L74.28571428571429,274.0000000000002C47.142857142857146,274.0000000000002 47.142857142857146,294 20,294Z" style="stroke: rgb(68, 68, 68); stroke-opacity: 1; fill: rgb(0, 0, 0); fill-opacity: 0.2; stroke-width: 0; opacity: 1;"/><path class="sankey-link" d="M20,294C47.142857142857146,294 47.142857142857146,294.0000000000001 74.28571428571429,294.0000000000001L74.28571428571429,320.0000000000001C47.142857142857146,320.0000000000001 47.142857142857146,320 20,320Z" style="stroke: rgb(68, 68, 68); stroke-opacity: 1; fill: rgb(0, 0, 0); fill-opacity: 0.2; stroke-width: 0; opacity: 1;"/><path class="sankey-link" d="M94.28571428571429,20.000000000000313C121.42857142857144,20.000000000000313 121.42857142857144,20.00000000000034 148.57142857142858,20.00000000000034L148.57142857142858,137.00000000000034C121.42857142857144,137.00000000000034 121.42857142857144,137.0000000000003 94.28571428571429,137.0000000000003Z" style="stroke: rgb(68, 68, 68); stroke-opacity: 1; fill: rgb(0, 0, 0); fill-opacity: 0.2; stroke-width: 0; opacity: 1;"/><path class="sankey-link" d="M94.28571428571429,157.00000000000026C121.42857142857144,157.00000000000026 121.42857142857144,137.00000000000034 148.57142857142858,137.00000000000034L148.57142857142858,189.00000000000034C121.42857142857144,189.00000000000034 121.42857142857144,209.00000000000026 94.28571428571429,209.00000000000026Z" style="stroke: rgb(68, 68, 68); stroke-opacity: 1; fill: rgb(0, 0, 0); fill-opacity: 0.2; stroke-width: 0; opacity: 1;"/><path class="sankey-link" d="M94.28571428571429,261.0000000000002C121.42857142857144,261.0000000000002 121.42857142857144,293.9999999999999 148.57142857142858,293.9999999999999L148.57142857142858,306.9999999999999C121.42857142857144,306.9999999999999 121.42857142857144,274.0000000000002 94.28571428571429,274.0000000000002Z" style="stroke: rgb(68, 68, 68); stroke-opacity: 1; fill: rgb(0, 0, 0); fill-opacity: 0.2; stroke-width: 0; opacity: 1;"/><path class="sankey-link" d="M94.28571428571429,209.00000000000026C121.42857142857144,209.00000000000026 121.42857142857144,209.00000000000026 148.57142857142858,209.00000000000026L148.57142857142858,261.0000000000002C121.42857142857144,261.0000000000002 121.42857142857144,261.0000000000002 94.28571428571429,261.0000000000002Z" style="stroke: rgb(68, 68, 68); stroke-opacity: 1; fill: rgb(0, 0, 0); fill-opacity: 0.2; stroke-width: 0; opacity: 1;"/><path class="sankey-link" d="M94.28571428571429,307.0000000000001C121.42857142857144,307.0000000000001 121.42857142857144,306.9999999999999 148.57142857142858,306.9999999999999L148.57142857142858,319.9999999999999C121.42857142857144,319.9999999999999 121.42857142857144,320.0000000000001 94.28571428571429,320.0000000000001Z" style="stroke: rgb(68, 68, 68); stroke-opacity: 1; fill: rgb(0, 0, 0); fill-opacity: 0.2; stroke-width: 0; opacity: 1;"/><path class="sankey-link" d="M94.28571428571429,294.0000000000001C121.42857142857144,294.0000000000001 121.42857142857144,261.0000000000002 148.57142857142858,261.0000000000002L148.57142857142858,274.0000000000002C121.42857142857144,274.0000000000002 121.42857142857144,307.0000000000001 94.28571428571429,307.0000000000001Z" style="stroke: rgb(68, 68, 68); stroke-opacity: 1; fill: rgb(0, 0, 0); fill-opacity: 0.2; stroke-width: 0; opacity: 1;"/><path class="sankey-link" d="M168.57142857142858,20.00000000000034C195.71428571428572,20.00000000000034 195.71428571428572,19.999999999999957 222.8571428571429,19.999999999999957L222.8571428571429,188.99999999999994C195.71428571428572,188.99999999999994 195.71428571428572,189.00000000000034 168.57142857142858,189.00000000000034Z" style="stroke: rgb(68, 68, 68); stroke-opacity: 1; fill: rgb(0, 0, 0); fill-opacity: 0.2; stroke-width: 0; opacity: 1;"/><path class="sankey-link" d="M168.57142857142858,293.9999999999999C195.71428571428572,293.9999999999999 195.71428571428572,214.99999999999997 222.8571428571429,214.99999999999997L222.8571428571429,240.99999999999997C195.71428571428572,240.99999999999997 195.71428571428572,319.9999999999999 168.57142857142858,319.9999999999999Z" style="stroke: rgb(68, 68, 68); stroke-opacity: 1; fill: rgb(0, 0, 0); fill-opacity: 0.2; stroke-width: 0; opacity: 1;"/><path class="sankey-link" d="M168.57142857142858,209.00000000000026C195.71428571428572,209.00000000000026 195.71428571428572,188.99999999999997 222.8571428571429,188.99999999999997L222.8571428571429,214.99999999999997C195.71428571428572,214.99999999999997 195.71428571428572,235.00000000000026 168.57142857142858,235.00000000000026Z" style="stroke: rgb(68, 68, 68); stroke-opacity: 1; fill: rgb(0, 0, 0); fill-opacity: 0.2; stroke-width: 0; opacity: 1;"/><path class="sankey-link" d="M168.57142857142858,235.00000000000026C195.71428571428572,235.00000000000026 195.71428571428572,260.9999999999999 222.8571428571429,260.9999999999999L222.8571428571429,286.9999999999999C195.71428571428572,286.9999999999999 195.71428571428572,261.0000000000002 168.57142857142858,261.0000000000002Z" style="stroke: rgb(68, 68, 68); stroke-opacity: 1; fill: rgb(0, 0, 0); fill-opacity: 0.2; stroke-width: 0; opacity: 1;"/><path class="sankey-link" d="M168.57142857142858,261.0000000000002C195.71428571428572,261.0000000000002 195.71428571428572,306.9999999999999 222.8571428571429,306.9999999999999L222.8571428571429,319.9999999999999C195.71428571428572,319.9999999999999 195.71428571428572,274.0000000000002 168.57142857142858,274.0000000000002Z" style="stroke: rgb(68, 68, 68); stroke-opacity: 1; fill: rgb(0, 0, 0); fill-opacity: 0.2; stroke-width: 0; opacity: 1;"/><path class="sankey-link" d="M242.8571428571429,19.999999999999957C270,19.999999999999957 270,19.99999999999983 297.14285714285717,19.99999999999983L297.14285714285717,123.99999999999983C270,123.99999999999983 270,123.99999999999996 242.8571428571429,123.99999999999996Z" style="stroke: rgb(68, 68, 68); stroke-opacity: 1; fill: rgb(0, 0, 0); fill-opacity: 0.2; stroke-width: 0; opacity: 1;"/><path class="sankey-link" d="M242.8571428571429,188.99999999999994C270,188.99999999999994 270,268 297.14285714285717,268L297.14285714285717,320C270,320 270,240.99999999999994 242.8571428571429,240.99999999999994Z" style="stroke: rgb(68, 68, 68); stroke-opacity: 1; fill: rgb(0, 0, 0); fill-opacity: 0.2; stroke-width: 0; opacity: 1;"/><path class="sankey-link" d="M242.8571428571429,123.99999999999994C270,123.99999999999994 270,156.99999999999974 297.14285714285717,156.99999999999974L297.14285714285717,221.99999999999974C270,221.99999999999974 270,188.99999999999994 242.8571428571429,188.99999999999994Z" style="stroke: rgb(68, 68, 68); stroke-opacity: 1; fill: rgb(0, 0, 0); fill-opacity: 0.2; stroke-width: 0; opacity: 1;"/><path class="sankey-link" d="M242.8571428571429,260.9999999999999C270,260.9999999999999 270,123.99999999999983 297.14285714285717,123.99999999999983L297.14285714285717,136.99999999999983C270,136.99999999999983 270,273.9999999999999 242.8571428571429,273.9999999999999Z" style="stroke: rgb(68, 68, 68); stroke-opacity: 1; fill: rgb(0, 0, 0); fill-opacity: 0.2; stroke-width: 0; opacity: 1;"/><path class="sankey-link" d="M242.8571428571429,273.9999999999999C270,273.9999999999999 270,221.99999999999974 297.14285714285717,221.99999999999974L297.14285714285717,234.99999999999974C270,234.99999999999974 270,286.9999999999999 242.8571428571429,286.9999999999999Z" style="stroke: rgb(68, 68, 68); stroke-opacity: 1; fill: rgb(0, 0, 0); fill-opacity: 0.2; stroke-width: 0; opacity: 1;"/><path class="sankey-link" d="M242.8571428571429,306.9999999999999C270,306.9999999999999 270,234.99999999999974 297.14285714285717,234.99999999999974L297.14285714285717,247.99999999999974C270,247.99999999999974 270,319.9999999999999 242.8571428571429,319.9999999999999Z" style="stroke: rgb(68, 68, 68); stroke-opacity: 1; fill: rgb(0, 0, 0); fill-opacity: 0.2; stroke-width: 0; opacity: 1;"/><path class="sankey-link" d="M317.14285714285717,110.99999999999983C344.28571428571433,110.99999999999983 344.28571428571433,268 371.42857142857144,268L371.42857142857144,294C344.28571428571433,294 344.28571428571433,136.99999999999983 317.14285714285717,136.99999999999983Z" style="stroke: rgb(68, 68, 68); stroke-opacity: 1; fill: rgb(0, 0, 0); fill-opacity: 0.2; stroke-width: 0; opacity: 1;"/><path class="sankey-link" d="M317.14285714285717,71.99999999999983C344.28571428571433,71.99999999999983 344.28571428571433,195.99999999999997 371.42857142857144,195.99999999999997L371.42857142857144,234.99999999999997C344.28571428571433,234.99999999999997 344.28571428571433,110.99999999999983 317.14285714285717,110.99999999999983Z" style="stroke: rgb(68, 68, 68); stroke-opacity: 1; fill: rgb(0, 0, 0); fill-opacity: 0.2; stroke-width: 0; opacity: 1;"/><path class="sankey-link" d="M317.14285714285717,19.99999999999983C344.28571428571433,19.99999999999983 344.28571428571433,19.999999999999993 371.42857142857144,19.999999999999993L371.42857142857144,72C344.28571428571433,72 344.28571428571433,71.99999999999983 317.14285714285717,71.99999999999983Z" style="stroke: rgb(68, 68, 68); stroke-opacity: 1; fill: rgb(0, 0, 0); fill-opacity: 0.2; stroke-width: 0; opacity: 1;"/><path class="sankey-link" d="M317.14285714285717,268C344.28571428571433,268 344.28571428571433,124 371.42857142857144,124L371.42857142857144,176C344.28571428571433,176 344.28571428571433,320 317.14285714285717,320Z" style="stroke: rgb(68, 68, 68); stroke-opacity: 1; fill: rgb(0, 0, 0); fill-opacity: 0.2; stroke-width: 0; opacity: 1;"/><path class="sankey-link" d="M317.14285714285717,221.99999999999974C344.28571428571433,221.99999999999974 344.28571428571433,294 371.42857142857144,294L371.42857142857144,320C344.28571428571433,320 344.28571428571433,247.99999999999974 317.14285714285717,247.99999999999974Z" style="stroke: rgb(68, 68, 68); stroke-opacity: 1; fill: rgb(0, 0, 0); fill-opacity: 0.2; stroke-width: 0; opacity: 1;"/><path class="sankey-link" d="M317.14285714285717,208.99999999999974C344.28571428571433,208.99999999999974 344.28571428571433,234.99999999999997 371.42857142857144,234.99999999999997L371.42857142857144,247.99999999999997C344.28571428571433,247.99999999999997 344.28571428571433,221.99999999999974 317.14285714285717,221.99999999999974Z" style="stroke: rgb(68, 68, 68); stroke-opacity: 1; fill: rgb(0, 0, 0); fill-opacity: 0.2; stroke-width: 0; opacity: 1;"/><path class="sankey-link" d="M317.14285714285717,156.99999999999974C344.28571428571433,156.99999999999974 344.28571428571433,72 371.42857142857144,72L371.42857142857144,124C344.28571428571433,124 344.28571428571433,208.99999999999974 317.14285714285717,208.99999999999974Z" style="stroke: rgb(68, 68, 68); stroke-opacity: 1; fill: rgb(0, 0, 0); fill-opacity: 0.2; stroke-width: 0; opacity: 1;"/><path class="sankey-link" d="M391.42857142857144,307C418.5714285714286,307 418.5714285714286,306.99999999999994 445.7142857142858,306.99999999999994L445.7142857142858,319.99999999999994C418.5714285714286,319.99999999999994 418.5714285714286,320 391.42857142857144,320Z" style="stroke: rgb(68, 68, 68); stroke-opacity: 1; fill: rgb(0, 0, 0); fill-opacity: 0.2; stroke-width: 0; opacity: 1;"/><path class="sankey-link" d="M391.42857142857144,268C418.5714285714286,268 418.5714285714286,214.99999999999994 445.7142857142858,214.99999999999994L445.7142857142858,253.99999999999994C418.5714285714286,253.99999999999994 418.5714285714286,307 391.42857142857144,307Z" style="stroke: rgb(68, 68, 68); stroke-opacity: 1; fill: rgb(0, 0, 0); fill-opacity: 0.2; stroke-width: 0; opacity: 1;"/><path class="sankey-link" d="M391.42857142857144,195.99999999999997C418.5714285714286,195.99999999999997 418.5714285714286,104.00000000000009 445.7142857142858,104.00000000000009L445.7142857142858,156.00000000000009C418.5714285714286,156.00000000000009 418.5714285714286,247.99999999999997 391.42857142857144,247.99999999999997Z" style="stroke: rgb(68, 68, 68); stroke-opacity: 1; fill: rgb(0, 0, 0); fill-opacity: 0.2; stroke-width: 0; opacity: 1;"/><path class="sankey-link" d="M391.42857142857144,163C418.5714285714286,163 418.5714285714286,273.99999999999994 445.7142857142858,273.99999999999994L445.7142857142858,286.99999999999994C418.5714285714286,286.99999999999994 418.5714285714286,176 391.42857142857144,176Z" style="stroke: rgb(68, 68, 68); stroke-opacity: 1; fill: rgb(0, 0, 0); fill-opacity: 0.2; stroke-width: 0; opacity: 1;"/><path class="sankey-link" d="M391.42857142857144,124C418.5714285714286,124 418.5714285714286,175.99999999999994 445.7142857142858,175.99999999999994L445.7142857142858,214.99999999999994C418.5714285714286,214.99999999999994 418.5714285714286,163 391.42857142857144,163Z" style="stroke: rgb(68, 68, 68); stroke-opacity: 1; fill: rgb(0, 0, 0); fill-opacity: 0.2; stroke-width: 0; opacity: 1;"/><path class="sankey-link" d="M391.42857142857144,20C418.5714285714286,20 418.5714285714286,8.526512829121202e-14 445.7142857142858,8.526512829121202e-14L445.7142857142858,104.00000000000009C418.5714285714286,104.00000000000009 418.5714285714286,124 391.42857142857144,124Z" style="stroke: rgb(68, 68, 68); stroke-opacity: 1; fill: rgb(0, 0, 0); fill-opacity: 0.2; stroke-width: 0; opacity: 1;"/><path class="sankey-link" d="M465.7142857142858,273.99999999999994C492.8571428571429,273.99999999999994 492.8571428571429,253.76165818325535 520,253.76165818325535L520,266.76165818325535C492.8571428571429,266.76165818325535 492.8571428571429,286.99999999999994 465.7142857142858,286.99999999999994Z" style="stroke: rgb(68, 68, 68); stroke-opacity: 1; fill: rgb(0, 0, 0); fill-opacity: 0.2; stroke-width: 0; opacity: 1;"/><path class="sankey-link" d="M465.7142857142858,306.99999999999994C492.8571428571429,306.99999999999994 492.8571428571429,299.7616581832557 520,299.7616581832557L520,312.7616581832557C492.8571428571429,312.7616581832557 492.8571428571429,319.99999999999994 465.7142857142858,319.99999999999994Z" style="stroke: rgb(68, 68, 68); stroke-opacity: 1; fill: rgb(0, 0, 0); fill-opacity: 0.2; stroke-width: 0; opacity: 1;"/><path class="sankey-link" d="M465.7142857142858,175.99999999999994C492.8571428571429,175.99999999999994 492.8571428571429,175.76165818325532 520,175.76165818325532L520,253.76165818325532C492.8571428571429,253.76165818325532 492.8571428571429,253.99999999999994 465.7142857142858,253.99999999999994Z" style="stroke: rgb(68, 68, 68); stroke-opacity: 1; fill: rgb(0, 0, 0); fill-opacity: 0.2; stroke-width: 0; opacity: 1;"/><path class="sankey-link" d="M465.7142857142858,143.00000000000009C492.8571428571429,143.00000000000009 492.8571428571429,286.7616581832557 520,286.7616581832557L520,299.7616581832557C492.8571428571429,299.7616581832557 492.8571428571429,156.00000000000009 465.7142857142858,156.00000000000009Z" style="stroke: rgb(68, 68, 68); stroke-opacity: 1; fill: rgb(0, 0, 0); fill-opacity: 0.2; stroke-width: 0; opacity: 1;"/><path class="sankey-link" d="M465.7142857142858,8.526512829121202e-14C492.8571428571429,8.526512829121202e-14 492.8571428571429,32.76165818325532 520,32.76165818325532L520,175.76165818325532C492.8571428571429,175.76165818325532 492.8571428571429,143.00000000000009 465.7142857142858,143.00000000000009Z" style="stroke: rgb(68, 68, 68); stroke-opacity: 1; fill: rgb(0, 0, 0); fill-opacity: 0.2; stroke-width: 0; opacity: 1;"/></g><g class="sankey-node-set" style="cursor: move;"><g class="sankey-node" transform="translate(0.000,40.000)" style="opacity: 1;"><rect class="node-rect" width="20" height="129.99999999999994" style="stroke-width: 0; stroke: rgb(128, 0, 128); stroke-opacity: 1; fill: rgb(99, 110, 250); fill-opacity: 0.8;"/><rect class="node-capture" x="-10" y="-10" width="40" height="149.99999999999994" style="fill-opacity: 0;"/><g class="node-entered" transform="translate(0,65.99999999999997)"><path class="node-label-guide" id="c8e364_0_node_0" d="M24,0L540,0" transform="matrix(1 0 0 1 0 0)"/><text class="node-label" transform="scale(1 1)" style="cursor: default; fill: rgb(42, 63, 95); text-shadow: rgb(255, 255, 255) -1px 1px 1px, rgb(255, 255, 255) 1px 1px 1px, rgb(255, 255, 255) 1px -1px 1px, rgb(255, 255, 255) -1px -1px 1px; font-family: 'Open Sans', verdana, arial, sans-serif; font-size: 10px; fill-opacity: 1;"><textPath class="node-label-text-path" alignment-baseline="middle" xlink:href="#c8e364_0_node_0" startOffset="0%" text-anchor="start" style="fill: rgb(0, 0, 0);">A1</textPath></text></g></g><g class="sankey-node" transform="translate(0.000,190.000)" style="opacity: 1;"><rect class="node-rect" width="20" height="130.00000000000003" style="stroke-width: 0; stroke: rgb(128, 0, 128); stroke-opacity: 1; fill: rgb(239, 85, 59); fill-opacity: 0.8;"/><rect class="node-capture" x="-10" y="-10" width="40" height="150.00000000000003" style="fill-opacity: 0;"/><g class="node-entered" transform="translate(0,66.00000000000001)"><path class="node-label-guide" id="c8e364_0_node_1" d="M24,0L540,0" transform="matrix(1 0 0 1 0 0)"/><text class="node-label" transform="scale(1 1)" style="cursor: default; fill: rgb(42, 63, 95); text-shadow: rgb(255, 255, 255) -1px 1px 1px, rgb(255, 255, 255) 1px 1px 1px, rgb(255, 255, 255) 1px -1px 1px, rgb(255, 255, 255) -1px -1px 1px; font-family: 'Open Sans', verdana, arial, sans-serif; font-size: 10px; fill-opacity: 1;"><textPath class="node-label-text-path" alignment-baseline="middle" xlink:href="#c8e364_0_node_1" startOffset="0%" text-anchor="start" style="fill: rgb(0, 0, 0);">A2</textPath></text></g></g><g class="sankey-node" transform="translate(74.286,20.000)" style="opacity: 1;"><rect class="node-rect" width="20" height="116.99999999999994" style="stroke-width: 0; stroke: rgb(128, 0, 128); stroke-opacity: 1; fill: rgb(0, 204, 150); fill-opacity: 0.8;"/><rect class="node-capture" x="-10" y="-10" width="40" height="136.99999999999994" style="fill-opacity: 0;"/><g class="node-entered" transform="translate(0,59.49999999999997)"><path class="node-label-guide" id="c8e364_0_node_2" d="M24,0L540,0" transform="matrix(1 0 0 1 0 0)"/><text class="node-label" transform="scale(1 1)" style="cursor: default; fill: rgb(42, 63, 95); text-shadow: rgb(255, 255, 255) -1px 1px 1px, rgb(255, 255, 255) 1px 1px 1px, rgb(255, 255, 255) 1px -1px 1px, rgb(255, 255, 255) -1px -1px 1px; font-family: 'Open Sans', verdana, arial, sans-serif; font-size: 10px; fill-opacity: 1;"><textPath class="node-label-text-path" alignment-baseline="middle" xlink:href="#c8e364_0_node_2" startOffset="0%" text-anchor="start" style="fill: rgb(0, 0, 0);">B1</textPath></text></g></g><g class="sankey-node" transform="translate(74.286,157.000)" style="opacity: 1;"><rect class="node-rect" width="20" height="116.99999999999986" style="stroke-width: 0; stroke: rgb(128, 0, 128); stroke-opacity: 1; fill: rgb(171, 99, 250); fill-opacity: 0.8;"/><rect class="node-capture" x="-10" y="-10" width="40" height="136.99999999999986" style="fill-opacity: 0;"/><g class="node-entered" transform="translate(0,59.49999999999993)"><path class="node-label-guide" id="c8e364_0_node_3" d="M24,0L540,0" transform="matrix(1 0 0 1 0 0)"/><text class="node-label" transform="scale(1 1)" style="cursor: default; fill: rgb(42, 63, 95); text-shadow: rgb(255, 255, 255) -1px 1px 1px, rgb(255, 255, 255) 1px 1px 1px, rgb(255, 255, 255) 1px -1px 1px, rgb(255, 255, 255) -1px -1px 1px; font-family: 'Open Sans', verdana, arial, sans-serif; font-size: 10px; fill-opacity: 1;"><textPath class="node-label-text-path" alignment-baseline="middle" xlink:href="#c8e364_0_node_3" startOffset="0%" text-anchor="start" style="fill: rgb(0, 0, 0);">B2</textPath></text></g></g><g class="sankey-node" transform="translate(74.286,294.000)" style="opacity: 1;"><rect class="node-rect" width="20" height="25.999999999999886" style="stroke-width: 0; stroke: rgb(128, 0, 128); stroke-opacity: 1; fill: rgb(255, 161, 90); fill-opacity: 0.8;"/><rect class="node-capture" x="-10" y="-10" width="40" height="45.999999999999886" style="fill-opacity: 0;"/><g class="node-entered" transform="translate(0,13.999999999999943)"><path class="node-label-guide" id="c8e364_0_node_4" d="M24,0L540,0" transform="matrix(1 0 0 1 0 0)"/><text class="node-label" transform="scale(1 1)" style="cursor: default; fill: rgb(42, 63, 95); text-shadow: rgb(255, 255, 255) -1px 1px 1px, rgb(255, 255, 255) 1px 1px 1px, rgb(255, 255, 255) 1px -1px 1px, rgb(255, 255, 255) -1px -1px 1px; font-family: 'Open Sans', verdana, arial, sans-serif; font-size: 10px; fill-opacity: 1;"><textPath class="node-label-text-path" alignment-baseline="middle" xlink:href="#c8e364_0_node_4" startOffset="0%" text-anchor="start" style="fill: rgb(0, 0, 0);">B3</textPath></text></g></g><g class="sankey-node" transform="translate(148.571,20.000)" style="opacity: 1;"><rect class="node-rect" width="20" height="168.99999999999991" style="stroke-width: 0; stroke: rgb(128, 0, 128); stroke-opacity: 1; fill: rgb(255, 102, 146); fill-opacity: 0.8;"/><rect class="node-capture" x="-10" y="-10" width="40" height="188.99999999999991" style="fill-opacity: 0;"/><g class="node-entered" transform="translate(0,85.49999999999996)"><path class="node-label-guide" id="c8e364_0_node_6" d="M24,0L540,0" transform="matrix(1 0 0 1 0 0)"/><text class="node-label" transform="scale(1 1)" style="cursor: default; fill: rgb(42, 63, 95); text-shadow: rgb(255, 255, 255) -1px 1px 1px, rgb(255, 255, 255) 1px 1px 1px, rgb(255, 255, 255) 1px -1px 1px, rgb(255, 255, 255) -1px -1px 1px; font-family: 'Open Sans', verdana, arial, sans-serif; font-size: 10px; fill-opacity: 1;"><textPath class="node-label-text-path" alignment-baseline="middle" xlink:href="#c8e364_0_node_6" startOffset="0%" text-anchor="start" style="fill: rgb(0, 0, 0);">C2</textPath></text></g></g><g class="sankey-node" transform="translate(148.571,294.000)" style="opacity: 1;"><rect class="node-rect" width="20" height="26.000000000000114" style="stroke-width: 0; stroke: rgb(128, 0, 128); stroke-opacity: 1; fill: rgb(182, 232, 128); fill-opacity: 0.8;"/><rect class="node-capture" x="-10" y="-10" width="40" height="46.000000000000114" style="fill-opacity: 0;"/><g class="node-entered" transform="translate(0,14.000000000000057)"><path class="node-label-guide" id="c8e364_0_node_7" d="M24,0L540,0" transform="matrix(1 0 0 1 0 0)"/><text class="node-label" transform="scale(1 1)" style="cursor: default; fill: rgb(42, 63, 95); text-shadow: rgb(255, 255, 255) -1px 1px 1px, rgb(255, 255, 255) 1px 1px 1px, rgb(255, 255, 255) 1px -1px 1px, rgb(255, 255, 255) -1px -1px 1px; font-family: 'Open Sans', verdana, arial, sans-serif; font-size: 10px; fill-opacity: 1;"><textPath class="node-label-text-path" alignment-baseline="middle" xlink:href="#c8e364_0_node_7" startOffset="0%" text-anchor="start" style="fill: rgb(0, 0, 0);">C3</textPath></text></g></g><g class="sankey-node" transform="translate(148.571,209.000)" style="opacity: 1;"><rect class="node-rect" width="20" height="64.99999999999963" style="stroke-width: 0; stroke: rgb(128, 0, 128); stroke-opacity: 1; fill: rgb(255, 151, 255); fill-opacity: 0.8;"/><rect class="node-capture" x="-10" y="-10" width="40" height="84.99999999999963" style="fill-opacity: 0;"/><g class="node-entered" transform="translate(0,33.499999999999815)"><path class="node-label-guide" id="c8e364_0_node_8" d="M24,0L540,0" transform="matrix(1 0 0 1 0 0)"/><text class="node-label" transform="scale(1 1)" style="cursor: default; fill: rgb(42, 63, 95); text-shadow: rgb(255, 255, 255) -1px 1px 1px, rgb(255, 255, 255) 1px 1px 1px, rgb(255, 255, 255) 1px -1px 1px, rgb(255, 255, 255) -1px -1px 1px; font-family: 'Open Sans', verdana, arial, sans-serif; font-size: 10px; fill-opacity: 1;"><textPath class="node-label-text-path" alignment-baseline="middle" xlink:href="#c8e364_0_node_8" startOffset="0%" text-anchor="start" style="fill: rgb(0, 0, 0);">C4</textPath></text></g></g><g class="sankey-node" transform="translate(222.857,20.000)" style="opacity: 1;"><rect class="node-rect" width="20" height="220.9999999999999" style="stroke-width: 0; stroke: rgb(128, 0, 128); stroke-opacity: 1; fill: rgb(254, 203, 82); fill-opacity: 0.8;"/><rect class="node-capture" x="-10" y="-10" width="40" height="240.9999999999999" style="fill-opacity: 0;"/><g class="node-entered" transform="translate(0,111.49999999999994)"><path class="node-label-guide" id="c8e364_0_node_9" d="M24,0L540,0" transform="matrix(1 0 0 1 0 0)"/><text class="node-label" transform="scale(1 1)" style="cursor: default; fill: rgb(42, 63, 95); text-shadow: rgb(255, 255, 255) -1px 1px 1px, rgb(255, 255, 255) 1px 1px 1px, rgb(255, 255, 255) 1px -1px 1px, rgb(255, 255, 255) -1px -1px 1px; font-family: 'Open Sans', verdana, arial, sans-serif; font-size: 10px; fill-opacity: 1;"><textPath class="node-label-text-path" alignment-baseline="middle" xlink:href="#c8e364_0_node_9" startOffset="0%" text-anchor="start" style="fill: rgb(0, 0, 0);">D1</textPath></text></g></g><g class="sankey-node" transform="translate(222.857,261.000)" style="opacity: 1;"><rect class="node-rect" width="20" height="26" style="stroke-width: 0; stroke: rgb(128, 0, 128); stroke-opacity: 1; fill: rgb(99, 110, 250); fill-opacity: 0.8;"/><rect class="node-capture" x="-10" y="-10" width="40" height="46" style="fill-opacity: 0;"/><g class="node-entered" transform="translate(0,14)"><path class="node-label-guide" id="c8e364_0_node_10" d="M24,0L540,0" transform="matrix(1 0 0 1 0 0)"/><text class="node-label" transform="scale(1 1)" style="cursor: default; fill: rgb(42, 63, 95); text-shadow: rgb(255, 255, 255) -1px 1px 1px, rgb(255, 255, 255) 1px 1px 1px, rgb(255, 255, 255) 1px -1px 1px, rgb(255, 255, 255) -1px -1px 1px; font-family: 'Open Sans', verdana, arial, sans-serif; font-size: 10px; fill-opacity: 1;"><textPath class="node-label-text-path" alignment-baseline="middle" xlink:href="#c8e364_0_node_10" startOffset="0%" text-anchor="start" style="fill: rgb(0, 0, 0);">D2</textPath></text></g></g><g class="sankey-node" transform="translate(222.857,307.000)" style="opacity: 1;"><rect class="node-rect" width="20" height="13.000000000000114" style="stroke-width: 0; stroke: rgb(128, 0, 128); stroke-opacity: 1; fill: rgb(239, 85, 59); fill-opacity: 0.8;"/><rect class="node-capture" x="-10" y="-10" width="40" height="33.000000000000114" style="fill-opacity: 0;"/><g class="node-entered" transform="translate(0,7.500000000000057)"><path class="node-label-guide" id="c8e364_0_node_11" d="M24,0L540,0" transform="matrix(1 0 0 1 0 0)"/><text class="node-label" transform="scale(1 1)" style="cursor: default; fill: rgb(42, 63, 95); text-shadow: rgb(255, 255, 255) -1px 1px 1px, rgb(255, 255, 255) 1px 1px 1px, rgb(255, 255, 255) 1px -1px 1px, rgb(255, 255, 255) -1px -1px 1px; font-family: 'Open Sans', verdana, arial, sans-serif; font-size: 10px; fill-opacity: 1;"><textPath class="node-label-text-path" alignment-baseline="middle" xlink:href="#c8e364_0_node_11" startOffset="0%" text-anchor="start" style="fill: rgb(0, 0, 0);">D3</textPath></text></g></g><g class="sankey-node" transform="translate(297.143,20.000)" style="opacity: 1;"><rect class="node-rect" width="20" height="116.99999999999991" style="stroke-width: 0; stroke: rgb(128, 0, 128); stroke-opacity: 1; fill: rgb(0, 204, 150); fill-opacity: 0.8;"/><rect class="node-capture" x="-10" y="-10" width="40" height="136.99999999999991" style="fill-opacity: 0;"/><g class="node-entered" transform="translate(0,59.49999999999996)"><path class="node-label-guide" id="c8e364_0_node_12" d="M24,0L540,0" transform="matrix(1 0 0 1 0 0)"/><text class="node-label" transform="scale(1 1)" style="cursor: default; fill: rgb(42, 63, 95); text-shadow: rgb(255, 255, 255) -1px 1px 1px, rgb(255, 255, 255) 1px 1px 1px, rgb(255, 255, 255) 1px -1px 1px, rgb(255, 255, 255) -1px -1px 1px; font-family: 'Open Sans', verdana, arial, sans-serif; font-size: 10px; fill-opacity: 1;"><textPath class="node-label-text-path" alignment-baseline="middle" xlink:href="#c8e364_0_node_12" startOffset="0%" text-anchor="start" style="fill: rgb(0, 0, 0);">E1</textPath></text></g></g><g class="sankey-node" transform="translate(297.143,268.000)" style="opacity: 1;"><rect class="node-rect" width="20" height="52" style="stroke-width: 0; stroke: rgb(128, 0, 128); stroke-opacity: 1; fill: rgb(171, 99, 250); fill-opacity: 0.8;"/><rect class="node-capture" x="-10" y="-10" width="40" height="72" style="fill-opacity: 0;"/><g class="node-entered" transform="translate(0,27)"><path class="node-label-guide" id="c8e364_0_node_13" d="M24,0L540,0" transform="matrix(1 0 0 1 0 0)"/><text class="node-label" transform="scale(1 1)" style="cursor: default; fill: rgb(42, 63, 95); text-shadow: rgb(255, 255, 255) -1px 1px 1px, rgb(255, 255, 255) 1px 1px 1px, rgb(255, 255, 255) 1px -1px 1px, rgb(255, 255, 255) -1px -1px 1px; font-family: 'Open Sans', verdana, arial, sans-serif; font-size: 10px; fill-opacity: 1;"><textPath class="node-label-text-path" alignment-baseline="middle" xlink:href="#c8e364_0_node_13" startOffset="0%" text-anchor="start" style="fill: rgb(0, 0, 0);">E2</textPath></text></g></g><g class="sankey-node" transform="translate(297.143,157.000)" style="opacity: 1;"><rect class="node-rect" width="20" height="91.00000000000026" style="stroke-width: 0; stroke: rgb(128, 0, 128); stroke-opacity: 1; fill: rgb(255, 161, 90); fill-opacity: 0.8;"/><rect class="node-capture" x="-10" y="-10" width="40" height="111.00000000000026" style="fill-opacity: 0;"/><g class="node-entered" transform="translate(0,46.50000000000013)"><path class="node-label-guide" id="c8e364_0_node_14" d="M24,0L540,0" transform="matrix(1 0 0 1 0 0)"/><text class="node-label" transform="scale(1 1)" style="cursor: default; fill: rgb(42, 63, 95); text-shadow: rgb(255, 255, 255) -1px 1px 1px, rgb(255, 255, 255) 1px 1px 1px, rgb(255, 255, 255) 1px -1px 1px, rgb(255, 255, 255) -1px -1px 1px; font-family: 'Open Sans', verdana, arial, sans-serif; font-size: 10px; fill-opacity: 1;"><textPath class="node-label-text-path" alignment-baseline="middle" xlink:href="#c8e364_0_node_14" startOffset="0%" text-anchor="start" style="fill: rgb(0, 0, 0);">E3</textPath></text></g></g><g class="sankey-node" transform="translate(371.429,268.000)" style="opacity: 1;"><rect class="node-rect" width="20" height="52" style="stroke-width: 0; stroke: rgb(128, 0, 128); stroke-opacity: 1; fill: rgb(25, 211, 243); fill-opacity: 0.8;"/><rect class="node-capture" x="-10" y="-10" width="40" height="72" style="fill-opacity: 0;"/><g class="node-entered" transform="translate(0,27)"><path class="node-label-guide" id="c8e364_0_node_15" d="M24,0L540,0" transform="matrix(1 0 0 1 0 0)"/><text class="node-label" transform="scale(1 1)" style="cursor: default; fill: rgb(42, 63, 95); text-shadow: rgb(255, 255, 255) -1px 1px 1px, rgb(255, 255, 255) 1px 1px 1px, rgb(255, 255, 255) 1px -1px 1px, rgb(255, 255, 255) -1px -1px 1px; font-family: 'Open Sans', verdana, arial, sans-serif; font-size: 10px; fill-opacity: 1;"><textPath class="node-label-text-path" alignment-baseline="middle" xlink:href="#c8e364_0_node_15" startOffset="0%" text-anchor="start" style="fill: rgb(0, 0, 0);">F1</textPath></text></g></g><g class="sankey-node" transform="translate(371.429,196.000)" style="opacity: 1;"><rect class="node-rect" width="20" height="52.00000000000003" style="stroke-width: 0; stroke: rgb(128, 0, 128); stroke-opacity: 1; fill: rgb(255, 102, 146); fill-opacity: 0.8;"/><rect class="node-capture" x="-10" y="-10" width="40" height="72.00000000000003" style="fill-opacity: 0;"/><g class="node-entered" transform="translate(0,27.000000000000014)"><path class="node-label-guide" id="c8e364_0_node_16" d="M24,0L540,0" transform="matrix(1 0 0 1 0 0)"/><text class="node-label" transform="scale(1 1)" style="cursor: default; fill: rgb(42, 63, 95); text-shadow: rgb(255, 255, 255) -1px 1px 1px, rgb(255, 255, 255) 1px 1px 1px, rgb(255, 255, 255) 1px -1px 1px, rgb(255, 255, 255) -1px -1px 1px; font-family: 'Open Sans', verdana, arial, sans-serif; font-size: 10px; fill-opacity: 1;"><textPath class="node-label-text-path" alignment-baseline="middle" xlink:href="#c8e364_0_node_16" startOffset="0%" text-anchor="start" style="fill: rgb(0, 0, 0);">F2</textPath></text></g></g><g class="sankey-node" transform="translate(371.429,20.000)" style="opacity: 1;"><rect class="node-rect" width="20" height="155.99999999999997" style="stroke-width: 0; stroke: rgb(128, 0, 128); stroke-opacity: 1; fill: rgb(182, 232, 128); fill-opacity: 0.8;"/><rect class="node-capture" x="-10" y="-10" width="40" height="175.99999999999997" style="fill-opacity: 0;"/><g class="node-entered" transform="translate(0,78.99999999999999)"><path class="node-label-guide" id="c8e364_0_node_17" d="M24,0L540,0" transform="matrix(1 0 0 1 0 0)"/><text class="node-label" transform="scale(1 1)" style="cursor: default; fill: rgb(42, 63, 95); text-shadow: rgb(255, 255, 255) -1px 1px 1px, rgb(255, 255, 255) 1px 1px 1px, rgb(255, 255, 255) 1px -1px 1px, rgb(255, 255, 255) -1px -1px 1px; font-family: 'Open Sans', verdana, arial, sans-serif; font-size: 10px; fill-opacity: 1;"><textPath class="node-label-text-path" alignment-baseline="middle" xlink:href="#c8e364_0_node_17" startOffset="0%" text-anchor="start" style="fill: rgb(0, 0, 0);">F3</textPath></text></g></g><g class="sankey-node" transform="translate(445.714,274.000)" style="opacity: 1;"><rect class="node-rect" width="20" height="13" style="stroke-width: 0; stroke: rgb(128, 0, 128); stroke-opacity: 1; fill: rgb(255, 151, 255); fill-opacity: 0.8;"/><rect class="node-capture" x="-10" y="-10" width="40" height="33" style="fill-opacity: 0;"/><g class="node-entered" transform="translate(0,7.5)"><path class="node-label-guide" id="c8e364_0_node_18" d="M24,0L540,0" transform="matrix(1 0 0 1 0 0)"/><text class="node-label" transform="scale(1 1)" style="cursor: default; fill: rgb(42, 63, 95); text-shadow: rgb(255, 255, 255) -1px 1px 1px, rgb(255, 255, 255) 1px 1px 1px, rgb(255, 255, 255) 1px -1px 1px, rgb(255, 255, 255) -1px -1px 1px; font-family: 'Open Sans', verdana, arial, sans-serif; font-size: 10px; fill-opacity: 1;"><textPath class="node-label-text-path" alignment-baseline="middle" xlink:href="#c8e364_0_node_18" startOffset="0%" text-anchor="start" style="fill: rgb(0, 0, 0);">G1</textPath></text></g></g><g class="sankey-node" transform="translate(445.714,307.000)" style="opacity: 1;"><rect class="node-rect" width="20" height="13.000000000000057" style="stroke-width: 0; stroke: rgb(128, 0, 128); stroke-opacity: 1; fill: rgb(254, 203, 82); fill-opacity: 0.8;"/><rect class="node-capture" x="-10" y="-10" width="40" height="33.00000000000006" style="fill-opacity: 0;"/><g class="node-entered" transform="translate(0,7.500000000000028)"><path class="node-label-guide" id="c8e364_0_node_19" d="M24,0L540,0" transform="matrix(1 0 0 1 0 0)"/><text class="node-label" transform="scale(1 1)" style="cursor: default; fill: rgb(42, 63, 95); text-shadow: rgb(255, 255, 255) -1px 1px 1px, rgb(255, 255, 255) 1px 1px 1px, rgb(255, 255, 255) 1px -1px 1px, rgb(255, 255, 255) -1px -1px 1px; font-family: 'Open Sans', verdana, arial, sans-serif; font-size: 10px; fill-opacity: 1;"><textPath class="node-label-text-path" alignment-baseline="middle" xlink:href="#c8e364_0_node_19" startOffset="0%" text-anchor="start" style="fill: rgb(0, 0, 0);">G2</textPath></text></g></g><g class="sankey-node" transform="translate(445.714,176.000)" style="opacity: 1;"><rect class="node-rect" width="20" height="78" style="stroke-width: 0; stroke: rgb(128, 0, 128); stroke-opacity: 1; fill: rgb(99, 110, 250); fill-opacity: 0.8;"/><rect class="node-capture" x="-10" y="-10" width="40" height="98" style="fill-opacity: 0;"/><g class="node-entered" transform="translate(0,40)"><path class="node-label-guide" id="c8e364_0_node_20" d="M24,0L540,0" transform="matrix(1 0 0 1 0 0)"/><text class="node-label" transform="scale(1 1)" style="cursor: default; fill: rgb(42, 63, 95); text-shadow: rgb(255, 255, 255) -1px 1px 1px, rgb(255, 255, 255) 1px 1px 1px, rgb(255, 255, 255) 1px -1px 1px, rgb(255, 255, 255) -1px -1px 1px; font-family: 'Open Sans', verdana, arial, sans-serif; font-size: 10px; fill-opacity: 1;"><textPath class="node-label-text-path" alignment-baseline="middle" xlink:href="#c8e364_0_node_20" startOffset="0%" text-anchor="start" style="fill: rgb(0, 0, 0);">G3</textPath></text></g></g><g class="sankey-node" transform="translate(445.714,0.000)" style="opacity: 1;"><rect class="node-rect" width="20" height="155.99999999999986" style="stroke-width: 0; stroke: rgb(128, 0, 128); stroke-opacity: 1; fill: rgb(239, 85, 59); fill-opacity: 0.8;"/><rect class="node-capture" x="-10" y="-10" width="40" height="175.99999999999986" style="fill-opacity: 0;"/><g class="node-entered" transform="translate(0,78.99999999999993)"><path class="node-label-guide" id="c8e364_0_node_21" d="M24,0L540,0" transform="matrix(1 0 0 1 0 0)"/><text class="node-label" transform="scale(1 1)" style="cursor: default; fill: rgb(42, 63, 95); text-shadow: rgb(255, 255, 255) -1px 1px 1px, rgb(255, 255, 255) 1px 1px 1px, rgb(255, 255, 255) 1px -1px 1px, rgb(255, 255, 255) -1px -1px 1px; font-family: 'Open Sans', verdana, arial, sans-serif; font-size: 10px; fill-opacity: 1;"><textPath class="node-label-text-path" alignment-baseline="middle" xlink:href="#c8e364_0_node_21" startOffset="0%" text-anchor="start" style="fill: rgb(0, 0, 0);">G4</textPath></text></g></g><g class="sankey-node" transform="translate(520.000,286.762)" style="opacity: 1;"><rect class="node-rect" width="20" height="26" style="stroke-width: 0; stroke: rgb(128, 0, 128); stroke-opacity: 1; fill: rgb(0, 204, 150); fill-opacity: 0.8;"/><rect class="node-capture" x="-10" y="-10" width="40" height="46" style="fill-opacity: 0;"/><g class="node-entered" transform="translate(0,14)"><path class="node-label-guide" id="c8e364_0_node_22" d="M-540,0L-4,0" transform="matrix(1 0 0 1 0 0)"/><text class="node-label" transform="scale(1 1)" style="cursor: default; fill: rgb(42, 63, 95); text-shadow: rgb(255, 255, 255) -1px 1px 1px, rgb(255, 255, 255) 1px 1px 1px, rgb(255, 255, 255) 1px -1px 1px, rgb(255, 255, 255) -1px -1px 1px; font-family: 'Open Sans', verdana, arial, sans-serif; font-size: 10px; fill-opacity: 1;"><textPath class="node-label-text-path" alignment-baseline="middle" xlink:href="#c8e364_0_node_22" startOffset="100%" text-anchor="end" style="fill: rgb(0, 0, 0);">H1</textPath></text></g></g><g class="sankey-node" transform="translate(520.000,32.762)" style="opacity: 1;"><rect class="node-rect" width="20" height="234.00000000000037" style="stroke-width: 0; stroke: rgb(128, 0, 128); stroke-opacity: 1; fill: rgb(171, 99, 250); fill-opacity: 0.8;"/><rect class="node-capture" x="-10" y="-10" width="40" height="254.00000000000037" style="fill-opacity: 0;"/><g class="node-entered" transform="translate(0,118.00000000000018)"><path class="node-label-guide" id="c8e364_0_node_23" d="M-540,0L-4,0" transform="matrix(1 0 0 1 0 0)"/><text class="node-label" transform="scale(1 1)" style="cursor: default; fill: rgb(42, 63, 95); text-shadow: rgb(255, 255, 255) -1px 1px 1px, rgb(255, 255, 255) 1px 1px 1px, rgb(255, 255, 255) 1px -1px 1px, rgb(255, 255, 255) -1px -1px 1px; font-family: 'Open Sans', verdana, arial, sans-serif; font-size: 10px; fill-opacity: 1;"><textPath class="node-label-text-path" alignment-baseline="middle" xlink:href="#c8e364_0_node_23" startOffset="100%" text-anchor="end" style="fill: rgb(0, 0, 0);">H2</textPath></text></g></g></g></g><defs id="topdefs-d1dd00"><g class="clips"/></defs><g class="layer-above"><g class="imagelayer"/><g class="shapelayer"/></g><g class="infolayer"><g class="g-gtitle"><text class="gtitle" x="35" y="50" text-anchor="start" dy="0em" style="font-family: 'Open Sans', verdana, arial, sans-serif; font-size: 14px; fill: rgb(42, 63, 95); opacity: 1; font-weight: normal; white-space: pre;">Sankey Diagram 10</text></g><g class="first-render"/></g></svg>