<svg class="main-svg" xmlns="http://www.w3.org/2000/svg" xmlns:xlink="http://www.w3.org/1999/xlink" width="700" height="500" style="" viewBox="0 0 700 500"><rect x="0" y="0" width="700" height="500" style="fill: rgb(255, 255, 255); fill-opacity: 1;"/><defs id="defs-1752af"><g class="clips"/><g class="gradients"/></defs><g class="bglayer"/><g class="layer-below"><g class="imagelayer"/><g class="shapelayer"/></g><g class="cartesianlayer"/><g class="polarlayer"/><g class="ternarylayer"/><g class="geolayer"/><g class="funnelarealayer"/><g class="pielayer"/><g class="treemaplayer"/><g class="sunburstlayer"/><g class="glimages"/><g class="sankey" transform="translate(80,100)matrix(1 0 0 1 0 0)" style="box-sizing: content-box; position: absolute; left: 0px; shape-rendering: geometricprecision; pointer-events: auto;"><g class="sankey-links" style="fill: none;"><path class="sankey-link" d="M20,38.39999999999994C75,38.39999999999994 75,243.19999999999982 130,243.19999999999982L130,252.79999999999984C75,252.79999999999984 75,47.999999999999936 20,47.999999999999936Z" style="stroke: rgb(68, 68, 68); stroke-opacity: 1; fill: rgb(0, 0, 0); fill-opacity: 0.2; stroke-width: 0; opacity: 1;"/><path class="sankey-link" d="M20,28.799999999999937C75,28.799999999999937 75,194.3999999999998 130,194.3999999999998L130,203.99999999999983C75,203.99999999999983 75,38.399999999999935 20,38.399999999999935Z" style="stroke: rgb(68, 68, 68); stroke-opacity: 1; fill: rgb(0, 0, 0); fill-opacity: 0.2; stroke-width: 0; opacity: 1;"/><path class="sankey-link" d="M20,-5.684341886080802e-14C75,-5.684341886080802e-14 75,39.999999999999716 130,39.999999999999716L130,68.79999999999971C75,68.79999999999971 75,28.79999999999994 20,28.79999999999994Z" style="stroke: rgb(68, 68, 68); stroke-opacity: 1; fill: rgb(0, 0, 0); fill-opacity: 0.2; stroke-width: 0; opacity: 1;"/><path class="sankey-link" d="M20,106.40000000000002C75,106.40000000000002 75,252.79999999999978 130,252.79999999999978L130,262.3999999999998C75,262.3999999999998 75,116.00000000000001 20,116.00000000000001Z" style="stroke: rgb(68, 68, 68); stroke-opacity: 1; fill: rgb(0, 0, 0); fill-opacity: 0.2; stroke-width: 0; opacity: 1;"/><path class="sankey-link" d="M20,101.60000000000002C75,101.60000000000002 75,203.9999999999998 130,203.9999999999998L130,208.7999999999998C75,208.7999999999998 75,106.40000000000003 20,106.40000000000003Z" style="stroke: rgb(68, 68, 68); stroke-opacity: 1; fill: rgb(0, 0, 0); fill-opacity: 0.2; stroke-width: 0; opacity: 1;"/><path class="sankey-link" d="M20,68.00000000000003C75,68.00000000000003 75,68.79999999999971 130,68.79999999999971L130,102.39999999999971C75,102.39999999999971 75,101.60000000000002 20,101.60000000000002Z" style="stroke: rgb(68, 68, 68); stroke-opacity: 1; fill: rgb(0, 0, 0); fill-opacity: 0.2; stroke-width: 0; opacity: 1;"/><path class="sankey-link" d="M20,242.4C75,242.4 75,267.1999999999998 130,267.1999999999998L130,276.79999999999984C75,276.79999999999984 75,252.00000000000003 20,252.00000000000003Z" style="stroke: rgb(68, 68, 68); stroke-opacity: 1; fill: rgb(0, 0, 0); fill-opacity: 0.2; stroke-width: 0; opacity: 1;"/><path class="sankey-link" d="M20,237.6C75,237.6 75,213.59999999999982 130,213.59999999999982L130,218.39999999999984C75,218.39999999999984 75,242.4 20,242.4Z" style="stroke: rgb(68, 68, 68); stroke-opacity: 1; fill: rgb(0, 0, 0); fill-opacity: 0.2; stroke-width: 0; opacity: 1;"/><path class="sankey-link" d="M20,204C75,204 75,140.79999999999973 130,140.79999999999973L130,174.39999999999975C75,174.39999999999975 75,237.60000000000002 20,237.60000000000002Z" style="stroke: rgb(68, 68, 68); stroke-opacity: 1; fill: rgb(0, 0, 0); fill-opacity: 0.2; stroke-width: 0; opacity: 1;"/><path class="sankey-link" d="M20,276.8C75,276.8 75,276.79999999999984 130,276.79999999999984L130,319.9999999999999C75,319.9999999999999 75,320.00000000000006 20,320.00000000000006Z" style="stroke: rgb(68, 68, 68); stroke-opacity: 1; fill: rgb(0, 0, 0); fill-opacity: 0.2; stroke-width: 0; opacity: 1;"/><path class="sankey-link" d="M20,272C75,272 75,218.39999999999984 130,218.39999999999984L130,223.19999999999985C75,223.19999999999985 75,276.79999999999995 20,276.79999999999995Z" style="stroke: rgb(68, 68, 68); stroke-opacity: 1; fill: rgb(0, 0, 0); fill-opacity: 0.2; stroke-width: 0; opacity: 1;"/><path class="sankey-link" d="M20,179.2C75,179.2 75,262.3999999999998 130,262.3999999999998L130,267.19999999999976C75,267.19999999999976 75,184 20,184Z" style="stroke: rgb(68, 68, 68); stroke-opacity: 1; fill: rgb(0, 0, 0); fill-opacity: 0.2; stroke-width: 0; opacity: 1;"/><path class="sankey-link" d="M20,174.39999999999998C75,174.39999999999998 75,208.7999999999998 130,208.7999999999998L130,213.59999999999982C75,213.59999999999982 75,179.2 20,179.2Z" style="stroke: rgb(68, 68, 68); stroke-opacity: 1; fill: rgb(0, 0, 0); fill-opacity: 0.2; stroke-width: 0; opacity: 1;"/><path class="sankey-link" d="M20,135.99999999999997C75,135.99999999999997 75,102.39999999999972 130,102.39999999999972L130,140.79999999999973C75,140.79999999999973 75,174.39999999999995 20,174.39999999999995Z" style="stroke: rgb(68, 68, 68); stroke-opacity: 1; fill: rgb(0, 0, 0); fill-opacity: 0.2; stroke-width: 0; opacity: 1;"/><path class="sankey-link" d="M150,243.19999999999982C205,243.19999999999982 205,179.19999999999976 260,179.19999999999976L260,188.79999999999978C205,188.79999999999978 205,252.79999999999984 150,252.79999999999984Z" style="stroke: rgb(68, 68, 68); stroke-opacity: 1; fill: rgb(0, 0, 0); fill-opacity: 0.2; stroke-width: 0; opacity: 1;"/><path class="sankey-link" d="M150,252.7999999999998C205,252.7999999999998 205,252.7999999999998 260,252.7999999999998L260,319.99999999999983C205,319.99999999999983 205,319.99999999999983 150,319.99999999999983Z" style="stroke: rgb(68, 68, 68); stroke-opacity: 1; fill: rgb(0, 0, 0); fill-opacity: 0.2; stroke-width: 0; opacity: 1;"/><path class="sankey-link" d="M150,194.3999999999998C205,194.3999999999998 205,155.19999999999976 260,155.19999999999976L260,179.19999999999976C205,179.19999999999976 205,218.3999999999998 150,218.3999999999998Z" style="stroke: rgb(68, 68, 68); stroke-opacity: 1; fill: rgb(0, 0, 0); fill-opacity: 0.2; stroke-width: 0; opacity: 1;"/><path class="sankey-link" d="M150,218.3999999999998C205,218.3999999999998 205,247.9999999999998 260,247.9999999999998L260,252.7999999999998C205,252.7999999999998 205,223.19999999999982 150,223.19999999999982Z" style="stroke: rgb(68, 68, 68); stroke-opacity: 1; fill: rgb(0, 0, 0); fill-opacity: 0.2; stroke-width: 0; opacity: 1;"/><path class="sankey-link" d="M150,39.999999999999716C205,39.999999999999716 205,39.99999999999977 260,39.99999999999977L260,155.19999999999976C205,155.19999999999976 205,155.1999999999997 150,155.1999999999997Z" style="stroke: rgb(68, 68, 68); stroke-opacity: 1; fill: rgb(0, 0, 0); fill-opacity: 0.2; stroke-width: 0; opacity: 1;"/><path class="sankey-link" d="M150,155.1999999999997C205,155.1999999999997 205,208.79999999999978 260,208.79999999999978L260,218.3999999999998C205,218.3999999999998 205,164.79999999999973 150,164.79999999999973Z" style="stroke: rgb(68, 68, 68); stroke-opacity: 1; fill: rgb(0, 0, 0); fill-opacity: 0.2; stroke-width: 0; opacity: 1;"/><path class="sankey-link" d="M150,164.7999999999997C205,164.7999999999997 205,238.3999999999998 260,238.3999999999998L260,247.99999999999983C205,247.99999999999983 205,174.39999999999972 150,174.39999999999972Z" style="stroke: rgb(68, 68, 68); stroke-opacity: 1; fill: rgb(0, 0, 0); fill-opacity: 0.2; stroke-width: 0; opacity: 1;"/><path class="sankey-link" d="M280,39.99999999999978C335,39.99999999999978 335,-2.842170943040401e-14 390,-2.842170943040401e-14L390,91.19999999999997C335,91.19999999999997 335,131.1999999999998 280,131.1999999999998Z" style="stroke: rgb(68, 68, 68); stroke-opacity: 1; fill: rgb(0, 0, 0); fill-opacity: 0.2; stroke-width: 0; opacity: 1;"/><path class="sankey-link" d="M280,169.5999999999998C335,169.5999999999998 335,227.19999999999993 390,227.19999999999993L390,231.99999999999994C335,231.99999999999994 335,174.3999999999998 280,174.3999999999998Z" style="stroke: rgb(68, 68, 68); stroke-opacity: 1; fill: rgb(0, 0, 0); fill-opacity: 0.2; stroke-width: 0; opacity: 1;"/><path class="sankey-link" d="M280,131.1999999999998C335,131.1999999999998 335,159.19999999999996 390,159.19999999999996L390,197.59999999999994C335,197.59999999999994 335,169.59999999999977 280,169.59999999999977Z" style="stroke: rgb(68, 68, 68); stroke-opacity: 1; fill: rgb(0, 0, 0); fill-opacity: 0.2; stroke-width: 0; opacity: 1;"/><path class="sankey-link" d="M280,174.3999999999998C335,174.3999999999998 335,252 390,252L390,261.6C335,261.6 335,183.99999999999983 280,183.99999999999983Z" style="stroke: rgb(68, 68, 68); stroke-opacity: 1; fill: rgb(0, 0, 0); fill-opacity: 0.2; stroke-width: 0; opacity: 1;"/><path class="sankey-link" d="M280,183.9999999999998C335,183.9999999999998 335,286.4 390,286.4L390,291.19999999999993C335,291.19999999999993 335,188.7999999999998 280,188.7999999999998Z" style="stroke: rgb(68, 68, 68); stroke-opacity: 1; fill: rgb(0, 0, 0); fill-opacity: 0.2; stroke-width: 0; opacity: 1;"/><path class="sankey-link" d="M280,208.79999999999978C335,208.79999999999978 335,197.59999999999997 390,197.59999999999997L390,207.2C335,207.2 335,218.3999999999998 280,218.3999999999998Z" style="stroke: rgb(68, 68, 68); stroke-opacity: 1; fill: rgb(0, 0, 0); fill-opacity: 0.2; stroke-width: 0; opacity: 1;"/><path class="sankey-link" d="M280,238.3999999999998C335,238.3999999999998 335,91.19999999999997 390,91.19999999999997L390,139.2C335,139.2 335,286.3999999999998 280,286.3999999999998Z" style="stroke: rgb(68, 68, 68); stroke-opacity: 1; fill: rgb(0, 0, 0); fill-opacity: 0.2; stroke-width: 0; opacity: 1;"/><path class="sankey-link" d="M280,286.3999999999998C335,286.3999999999998 335,261.6 390,261.6L390,266.4C335,266.4 335,291.19999999999976 280,291.19999999999976Z" style="stroke: rgb(68, 68, 68); stroke-opacity: 1; fill: rgb(0, 0, 0); fill-opacity: 0.2; stroke-width: 0; opacity: 1;"/><path class="sankey-link" d="M280,291.1999999999998C335,291.1999999999998 335,291.2 390,291.2L390,319.99999999999994C335,319.99999999999994 335,319.9999999999998 280,319.9999999999998Z" style="stroke: rgb(68, 68, 68); stroke-opacity: 1; fill: rgb(0, 0, 0); fill-opacity: 0.2; stroke-width: 0; opacity: 1;"/><path class="sankey-link" d="M410,129.59999999999997C465,129.59999999999997 465,203.19999999999982 520,203.19999999999982L520,212.79999999999984C465,212.79999999999984 465,139.2 410,139.2Z" style="stroke: rgb(68, 68, 68); stroke-opacity: 1; fill: rgb(0, 0, 0); fill-opacity: 0.2; stroke-width: 0; opacity: 1;"/><path class="sankey-link" d="M410,-2.842170943040401e-14C465,-2.842170943040401e-14 465,19.99999999999997 520,19.99999999999997L520,149.59999999999997C465,149.59999999999997 465,129.59999999999997 410,129.59999999999997Z" style="stroke: rgb(68, 68, 68); stroke-opacity: 1; fill: rgb(0, 0, 0); fill-opacity: 0.2; stroke-width: 0; opacity: 1;"/><path class="sankey-link" d="M410,227.19999999999993C465,227.19999999999993 465,217.59999999999982 520,217.59999999999982L520,222.39999999999984C465,222.39999999999984 465,231.99999999999994 410,231.99999999999994Z" style="stroke: rgb(68, 68, 68); stroke-opacity: 1; fill: rgb(0, 0, 0); fill-opacity: 0.2; stroke-width: 0; opacity: 1;"/><path class="sankey-link" d="M410,183.19999999999996C465,183.19999999999996 465,212.7999999999998 520,212.7999999999998L520,217.59999999999982C465,217.59999999999982 465,187.99999999999997 410,187.99999999999997Z" style="stroke: rgb(68, 68, 68); stroke-opacity: 1; fill: rgb(0, 0, 0); fill-opacity: 0.2; stroke-width: 0; opacity: 1;"/><path class="sankey-link" d="M410,187.99999999999997C465,187.99999999999997 465,242.39999999999986 520,242.39999999999986L520,261.59999999999985C465,261.59999999999985 465,207.19999999999996 410,207.19999999999996Z" style="stroke: rgb(68, 68, 68); stroke-opacity: 1; fill: rgb(0, 0, 0); fill-opacity: 0.2; stroke-width: 0; opacity: 1;"/><path class="sankey-link" d="M410,159.19999999999996C465,159.19999999999996 465,149.59999999999997 520,149.59999999999997L520,173.59999999999997C465,173.59999999999997 465,183.19999999999996 410,183.19999999999996Z" style="stroke: rgb(68, 68, 68); stroke-opacity: 1; fill: rgb(0, 0, 0); fill-opacity: 0.2; stroke-width: 0; opacity: 1;"/><path class="sankey-link" d="M410,261.6C465,261.6 465,310.3999999999999 520,310.3999999999999L520,315.1999999999999C465,315.1999999999999 465,266.4 410,266.4Z" style="stroke: rgb(68, 68, 68); stroke-opacity: 1; fill: rgb(0, 0, 0); fill-opacity: 0.2; stroke-width: 0; opacity: 1;"/><path class="sankey-link" d="M410,252C465,252 465,173.59999999999997 520,173.59999999999997L520,183.2C465,183.2 465,261.6 410,261.6Z" style="stroke: rgb(68, 68, 68); stroke-opacity: 1; fill: rgb(0, 0, 0); fill-opacity: 0.2; stroke-width: 0; opacity: 1;"/><path class="sankey-link" d="M410,315.2C465,315.2 465,315.19999999999993 520,315.19999999999993L520,319.9999999999999C465,319.9999999999999 465,319.99999999999994 410,319.99999999999994Z" style="stroke: rgb(68, 68, 68); stroke-opacity: 1; fill: rgb(0, 0, 0); fill-opacity: 0.2; stroke-width: 0; opacity: 1;"/><path class="sankey-link" d="M410,286.4C465,286.4 465,261.59999999999985 520,261.59999999999985L520,290.3999999999998C465,290.3999999999998 465,315.19999999999993 410,315.19999999999993Z" style="stroke: rgb(68, 68, 68); stroke-opacity: 1; fill: rgb(0, 0, 0); fill-opacity: 0.2; stroke-width: 0; opacity: 1;"/></g><g class="sankey-node-set" style="cursor: move;"><g class="sankey-node" transform="translate(0.000,-0.000)" style="opacity: 1;"><rect class="node-rect" width="20" height="48.000000000000085" style="stroke-width: 0; stroke: rgb(128, 0, 128); stroke-opacity: 1; fill: rgb(99, 110, 250); fill-opacity: 0.8;"/><rect class="node-capture" x="-10" y="-10" width="40" height="68.00000000000009" style="fill-opacity: 0;"/><g class="node-entered" transform="translate(0,25.000000000000043)"><path class="node-label-guide" id="fbc72d_0_node_0" d="M24,0L540,0" transform="matrix(1 0 0 1 0 0)"/><text class="node-label" transform="scale(1 1)" style="cursor: default; fill: rgb(42, 63, 95); text-shadow: rgb(255, 255, 255) -1px 1px 1px, rgb(255, 255, 255) 1px 1px 1px, rgb(255, 255, 255) 1px -1px 1px, rgb(255, 255, 255) -1px -1px 1px; font-family: 'Open Sans', verdana, arial, sans-serif; font-size: 10px; fill-opacity: 1;"><textPath class="node-label-text-path" alignment-baseline="middle" xlink:href="#fbc72d_0_node_0" startOffset="0%" text-anchor="start" style="fill: rgb(0, 0, 0);">A1</textPath></text></g></g><g class="sankey-node" transform="translate(0.000,68.000)" style="opacity: 1;"><rect class="node-rect" width="20" height="47.99999999999994" style="stroke-width: 0; stroke: rgb(128, 0, 128); stroke-opacity: 1; fill: rgb(239, 85, 59); fill-opacity: 0.8;"/><rect class="node-capture" x="-10" y="-10" width="40" height="67.99999999999994" style="fill-opacity: 0;"/><g class="node-entered" transform="translate(0,24.99999999999997)"><path class="node-label-guide" id="fbc72d_0_node_1" d="M24,0L540,0" transform="matrix(1 0 0 1 0 0)"/><text class="node-label" transform="scale(1 1)" style="cursor: default; fill: rgb(42, 63, 95); text-shadow: rgb(255, 255, 255) -1px 1px 1px, rgb(255, 255, 255) 1px 1px 1px, rgb(255, 255, 255) 1px -1px 1px, rgb(255, 255, 255) -1px -1px 1px; font-family: 'Open Sans', verdana, arial, sans-serif; font-size: 10px; fill-opacity: 1;"><textPath class="node-label-text-path" alignment-baseline="middle" xlink:href="#fbc72d_0_node_1" startOffset="0%" text-anchor="start" style="fill: rgb(0, 0, 0);">A2</textPath></text></g></g><g class="sankey-node" transform="translate(0.000,204.000)" style="opacity: 1;"><rect class="node-rect" width="20" height="48" style="stroke-width: 0; stroke: rgb(128, 0, 128); stroke-opacity: 1; fill: rgb(0, 204, 150); fill-opacity: 0.8;"/><rect class="node-capture" x="-10" y="-10" width="40" height="68" style="fill-opacity: 0;"/><g class="node-entered" transform="translate(0,25)"><path class="node-label-guide" id="fbc72d_0_node_2" d="M24,0L540,0" transform="matrix(1 0 0 1 0 0)"/><text class="node-label" transform="scale(1 1)" style="cursor: default; fill: rgb(42, 63, 95); text-shadow: rgb(255, 255, 255) -1px 1px 1px, rgb(255, 255, 255) 1px 1px 1px, rgb(255, 255, 255) 1px -1px 1px, rgb(255, 255, 255) -1px -1px 1px; font-family: 'Open Sans', verdana, arial, sans-serif; font-size: 10px; fill-opacity: 1;"><textPath class="node-label-text-path" alignment-baseline="middle" xlink:href="#fbc72d_0_node_2" startOffset="0%" text-anchor="start" style="fill: rgb(0, 0, 0);">A3</textPath></text></g></g><g class="sankey-node" transform="translate(0.000,272.000)" style="opacity: 1;"><rect class="node-rect" width="20" height="48" style="stroke-width: 0; stroke: rgb(128, 0, 128); stroke-opacity: 1; fill: rgb(171, 99, 250); fill-opacity: 0.8;"/><rect class="node-capture" x="-10" y="-10" width="40" height="68" style="fill-opacity: 0;"/><g class="node-entered" transform="translate(0,25)"><path class="node-label-guide" id="fbc72d_0_node_3" d="M24,0L540,0" transform="matrix(1 0 0 1 0 0)"/><text class="node-label" transform="scale(1 1)" style="cursor: default; fill: rgb(42, 63, 95); text-shadow: rgb(255, 255, 255) -1px 1px 1px, rgb(255, 255, 255) 1px 1px 1px, rgb(255, 255, 255) 1px -1px 1px, rgb(255, 255, 255) -1px -1px 1px; font-family: 'Open Sans', verdana, arial, sans-serif; font-size: 10px; fill-opacity: 1;"><textPath class="node-label-text-path" alignment-baseline="middle" xlink:href="#fbc72d_0_node_3" startOffset="0%" text-anchor="start" style="fill: rgb(0, 0, 0);">A4</textPath></text></g></g><g class="sankey-node" transform="translate(0.000,136.000)" style="opacity: 1;"><rect class="node-rect" width="20" height="48.00000000000003" style="stroke-width: 0; stroke: rgb(128, 0, 128); stroke-opacity: 1; fill: rgb(255, 161, 90); fill-opacity: 0.8;"/><rect class="node-capture" x="-10" y="-10" width="40" height="68.00000000000003" style="fill-opacity: 0;"/><g class="node-entered" transform="translate(0,25.000000000000014)"><path class="node-label-guide" id="fbc72d_0_node_4" d="M24,0L540,0" transform="matrix(1 0 0 1 0 0)"/><text class="node-label" transform="scale(1 1)" style="cursor: default; fill: rgb(42, 63, 95); text-shadow: rgb(255, 255, 255) -1px 1px 1px, rgb(255, 255, 255) 1px 1px 1px, rgb(255, 255, 255) 1px -1px 1px, rgb(255, 255, 255) -1px -1px 1px; font-family: 'Open Sans', verdana, arial, sans-serif; font-size: 10px; fill-opacity: 1;"><textPath class="node-label-text-path" alignment-baseline="middle" xlink:href="#fbc72d_0_node_4" startOffset="0%" text-anchor="start" style="fill: rgb(0, 0, 0);">A5</textPath></text></g></g><g class="sankey-node" transform="translate(130.000,243.200)" style="opacity: 1;"><rect class="node-rect" width="20" height="76.80000000000018" style="stroke-width: 0; stroke: rgb(128, 0, 128); stroke-opacity: 1; fill: rgb(25, 211, 243); fill-opacity: 0.8;"/><rect class="node-capture" x="-10" y="-10" width="40" height="96.80000000000018" style="fill-opacity: 0;"/><g class="node-entered" transform="translate(0,39.40000000000009)"><path class="node-label-guide" id="fbc72d_0_node_5" d="M24,0L540,0" transform="matrix(1 0 0 1 0 0)"/><text class="node-label" transform="scale(1 1)" style="cursor: default; fill: rgb(42, 63, 95); text-shadow: rgb(255, 255, 255) -1px 1px 1px, rgb(255, 255, 255) 1px 1px 1px, rgb(255, 255, 255) 1px -1px 1px, rgb(255, 255, 255) -1px -1px 1px; font-family: 'Open Sans', verdana, arial, sans-serif; font-size: 10px; fill-opacity: 1;"><textPath class="node-label-text-path" alignment-baseline="middle" xlink:href="#fbc72d_0_node_5" startOffset="0%" text-anchor="start" style="fill: rgb(0, 0, 0);">B1</textPath></text></g></g><g class="sankey-node" transform="translate(130.000,194.400)" style="opacity: 1;"><rect class="node-rect" width="20" height="28.80000000000001" style="stroke-width: 0; stroke: rgb(128, 0, 128); stroke-opacity: 1; fill: rgb(255, 102, 146); fill-opacity: 0.8;"/><rect class="node-capture" x="-10" y="-10" width="40" height="48.80000000000001" style="fill-opacity: 0;"/><g class="node-entered" transform="translate(0,15.400000000000006)"><path class="node-label-guide" id="fbc72d_0_node_6" d="M24,0L540,0" transform="matrix(1 0 0 1 0 0)"/><text class="node-label" transform="scale(1 1)" style="cursor: default; fill: rgb(42, 63, 95); text-shadow: rgb(255, 255, 255) -1px 1px 1px, rgb(255, 255, 255) 1px 1px 1px, rgb(255, 255, 255) 1px -1px 1px, rgb(255, 255, 255) -1px -1px 1px; font-family: 'Open Sans', verdana, arial, sans-serif; font-size: 10px; fill-opacity: 1;"><textPath class="node-label-text-path" alignment-baseline="middle" xlink:href="#fbc72d_0_node_6" startOffset="0%" text-anchor="start" style="fill: rgb(0, 0, 0);">B2</textPath></text></g></g><g class="sankey-node" transform="translate(130.000,40.000)" style="opacity: 1;"><rect class="node-rect" width="20" height="134.4000000000001" style="stroke-width: 0; stroke: rgb(128, 0, 128); stroke-opacity: 1; fill: rgb(182, 232, 128); fill-opacity: 0.8;"/><rect class="node-capture" x="-10" y="-10" width="40" height="154.4000000000001" style="fill-opacity: 0;"/><g class="node-entered" transform="translate(0,68.20000000000005)"><path class="node-label-guide" id="fbc72d_0_node_7" d="M24,0L540,0" transform="matrix(1 0 0 1 0 0)"/><text class="node-label" transform="scale(1 1)" style="cursor: default; fill: rgb(42, 63, 95); text-shadow: rgb(255, 255, 255) -1px 1px 1px, rgb(255, 255, 255) 1px 1px 1px, rgb(255, 255, 255) 1px -1px 1px, rgb(255, 255, 255) -1px -1px 1px; font-family: 'Open Sans', verdana, arial, sans-serif; font-size: 10px; fill-opacity: 1;"><textPath class="node-label-text-path" alignment-baseline="middle" xlink:href="#fbc72d_0_node_7" startOffset="0%" text-anchor="start" style="fill: rgb(0, 0, 0);">B3</textPath></text></g></g><g class="sankey-node" transform="translate(260.000,40.000)" style="opacity: 1;"><rect class="node-rect" width="20" height="148.8" style="stroke-width: 0; stroke: rgb(128, 0, 128); stroke-opacity: 1; fill: rgb(255, 151, 255); fill-opacity: 0.8;"/><rect class="node-capture" x="-10" y="-10" width="40" height="168.8" style="fill-opacity: 0;"/><g class="node-entered" transform="translate(0,75.4)"><path class="node-label-guide" id="fbc72d_0_node_8" d="M24,0L540,0" transform="matrix(1 0 0 1 0 0)"/><text class="node-label" transform="scale(1 1)" style="cursor: default; fill: rgb(42, 63, 95); text-shadow: rgb(255, 255, 255) -1px 1px 1px, rgb(255, 255, 255) 1px 1px 1px, rgb(255, 255, 255) 1px -1px 1px, rgb(255, 255, 255) -1px -1px 1px; font-family: 'Open Sans', verdana, arial, sans-serif; font-size: 10px; fill-opacity: 1;"><textPath class="node-label-text-path" alignment-baseline="middle" xlink:href="#fbc72d_0_node_8" startOffset="0%" text-anchor="start" style="fill: rgb(0, 0, 0);">C1</textPath></text></g></g><g class="sankey-node" transform="translate(260.000,208.800)" style="opacity: 1;"><rect class="node-rect" width="20" height="9.600000000000023" style="stroke-width: 0; stroke: rgb(128, 0, 128); stroke-opacity: 1; fill: rgb(254, 203, 82); fill-opacity: 0.8;"/><rect class="node-capture" x="-10" y="-10" width="40" height="29.600000000000023" style="fill-opacity: 0;"/><g class="node-entered" transform="translate(0,5.800000000000011)"><path class="node-label-guide" id="fbc72d_0_node_9" d="M24,0L540,0" transform="matrix(1 0 0 1 0 0)"/><text class="node-label" transform="scale(1 1)" style="cursor: default; fill: rgb(42, 63, 95); text-shadow: rgb(255, 255, 255) -1px 1px 1px, rgb(255, 255, 255) 1px 1px 1px, rgb(255, 255, 255) 1px -1px 1px, rgb(255, 255, 255) -1px -1px 1px; font-family: 'Open Sans', verdana, arial, sans-serif; font-size: 10px; fill-opacity: 1;"><textPath class="node-label-text-path" alignment-baseline="middle" xlink:href="#fbc72d_0_node_9" startOffset="0%" text-anchor="start" style="fill: rgb(0, 0, 0);">C2</textPath></text></g></g><g class="sankey-node" transform="translate(260.000,238.400)" style="opacity: 1;"><rect class="node-rect" width="20" height="81.6000000000002" style="stroke-width: 0; stroke: rgb(128, 0, 128); stroke-opacity: 1; fill: rgb(99, 110, 250); fill-opacity: 0.8;"/><rect class="node-capture" x="-10" y="-10" width="40" height="101.6000000000002" style="fill-opacity: 0;"/><g class="node-entered" transform="translate(0,41.8000000000001)"><path class="node-label-guide" id="fbc72d_0_node_10" d="M24,0L540,0" transform="matrix(1 0 0 1 0 0)"/><text class="node-label" transform="scale(1 1)" style="cursor: default; fill: rgb(42, 63, 95); text-shadow: rgb(255, 255, 255) -1px 1px 1px, rgb(255, 255, 255) 1px 1px 1px, rgb(255, 255, 255) 1px -1px 1px, rgb(255, 255, 255) -1px -1px 1px; font-family: 'Open Sans', verdana, arial, sans-serif; font-size: 10px; fill-opacity: 1;"><textPath class="node-label-text-path" alignment-baseline="middle" xlink:href="#fbc72d_0_node_10" startOffset="0%" text-anchor="start" style="fill: rgb(0, 0, 0);">C3</textPath></text></g></g><g class="sankey-node" transform="translate(390.000,-0.000)" style="opacity: 1;"><rect class="node-rect" width="20" height="139.2" style="stroke-width: 0; stroke: rgb(128, 0, 128); stroke-opacity: 1; fill: rgb(239, 85, 59); fill-opacity: 0.8;"/><rect class="node-capture" x="-10" y="-10" width="40" height="159.2" style="fill-opacity: 0;"/><g class="node-entered" transform="translate(0,70.6)"><path class="node-label-guide" id="fbc72d_0_node_11" d="M24,0L540,0" transform="matrix(1 0 0 1 0 0)"/><text class="node-label" transform="scale(1 1)" style="cursor: default; fill: rgb(42, 63, 95); text-shadow: rgb(255, 255, 255) -1px 1px 1px, rgb(255, 255, 255) 1px 1px 1px, rgb(255, 255, 255) 1px -1px 1px, rgb(255, 255, 255) -1px -1px 1px; font-family: 'Open Sans', verdana, arial, sans-serif; font-size: 10px; fill-opacity: 1;"><textPath class="node-label-text-path" alignment-baseline="middle" xlink:href="#fbc72d_0_node_11" startOffset="0%" text-anchor="start" style="fill: rgb(0, 0, 0);">D1</textPath></text></g></g><g class="sankey-node" transform="translate(390.000,227.200)" style="opacity: 1;"><rect class="node-rect" width="20" height="4.800000000000068" style="stroke-width: 0; stroke: rgb(128, 0, 128); stroke-opacity: 1; fill: rgb(0, 204, 150); fill-opacity: 0.8;"/><rect class="node-capture" x="-10" y="-10" width="40" height="24.800000000000068" style="fill-opacity: 0;"/><g class="node-entered" transform="translate(0,3.400000000000034)"><path class="node-label-guide" id="fbc72d_0_node_12" d="M24,0L540,0" transform="matrix(1 0 0 1 0 0)"/><text class="node-label" transform="scale(1 1)" style="cursor: default; fill: rgb(42, 63, 95); text-shadow: rgb(255, 255, 255) -1px 1px 1px, rgb(255, 255, 255) 1px 1px 1px, rgb(255, 255, 255) 1px -1px 1px, rgb(255, 255, 255) -1px -1px 1px; font-family: 'Open Sans', verdana, arial, sans-serif; font-size: 10px; fill-opacity: 1;"><textPath class="node-label-text-path" alignment-baseline="middle" xlink:href="#fbc72d_0_node_12" startOffset="0%" text-anchor="start" style="fill: rgb(0, 0, 0);">D2</textPath></text></g></g><g class="sankey-node" transform="translate(390.000,159.200)" style="opacity: 1;"><rect class="node-rect" width="20" height="47.99999999999997" style="stroke-width: 0; stroke: rgb(128, 0, 128); stroke-opacity: 1; fill: rgb(171, 99, 250); fill-opacity: 0.8;"/><rect class="node-capture" x="-10" y="-10" width="40" height="67.99999999999997" style="fill-opacity: 0;"/><g class="node-entered" transform="translate(0,24.999999999999986)"><path class="node-label-guide" id="fbc72d_0_node_13" d="M24,0L540,0" transform="matrix(1 0 0 1 0 0)"/><text class="node-label" transform="scale(1 1)" style="cursor: default; fill: rgb(42, 63, 95); text-shadow: rgb(255, 255, 255) -1px 1px 1px, rgb(255, 255, 255) 1px 1px 1px, rgb(255, 255, 255) 1px -1px 1px, rgb(255, 255, 255) -1px -1px 1px; font-family: 'Open Sans', verdana, arial, sans-serif; font-size: 10px; fill-opacity: 1;"><textPath class="node-label-text-path" alignment-baseline="middle" xlink:href="#fbc72d_0_node_13" startOffset="0%" text-anchor="start" style="fill: rgb(0, 0, 0);">D3</textPath></text></g></g><g class="sankey-node" transform="translate(390.000,252.000)" style="opacity: 1;"><rect class="node-rect" width="20" height="14.399999999999977" style="stroke-width: 0; stroke: rgb(128, 0, 128); stroke-opacity: 1; fill: rgb(255, 161, 90); fill-opacity: 0.8;"/><rect class="node-capture" x="-10" y="-10" width="40" height="34.39999999999998" style="fill-opacity: 0;"/><g class="node-entered" transform="translate(0,8.199999999999989)"><path class="node-label-guide" id="fbc72d_0_node_14" d="M24,0L540,0" transform="matrix(1 0 0 1 0 0)"/><text class="node-label" transform="scale(1 1)" style="cursor: default; fill: rgb(42, 63, 95); text-shadow: rgb(255, 255, 255) -1px 1px 1px, rgb(255, 255, 255) 1px 1px 1px, rgb(255, 255, 255) 1px -1px 1px, rgb(255, 255, 255) -1px -1px 1px; font-family: 'Open Sans', verdana, arial, sans-serif; font-size: 10px; fill-opacity: 1;"><textPath class="node-label-text-path" alignment-baseline="middle" xlink:href="#fbc72d_0_node_14" startOffset="0%" text-anchor="start" style="fill: rgb(0, 0, 0);">D4</textPath></text></g></g><g class="sankey-node" transform="translate(390.000,286.400)" style="opacity: 1;"><rect class="node-rect" width="20" height="33.60000000000002" style="stroke-width: 0; stroke: rgb(128, 0, 128); stroke-opacity: 1; fill: rgb(25, 211, 243); fill-opacity: 0.8;"/><rect class="node-capture" x="-10" y="-10" width="40" height="53.60000000000002" style="fill-opacity: 0;"/><g class="node-entered" transform="translate(0,17.80000000000001)"><path class="node-label-guide" id="fbc72d_0_node_15" d="M24,0L540,0" transform="matrix(1 0 0 1 0 0)"/><text class="node-label" transform="scale(1 1)" style="cursor: default; fill: rgb(42, 63, 95); text-shadow: rgb(255, 255, 255) -1px 1px 1px, rgb(255, 255, 255) 1px 1px 1px, rgb(255, 255, 255) 1px -1px 1px, rgb(255, 255, 255) -1px -1px 1px; font-family: 'Open Sans', verdana, arial, sans-serif; font-size: 10px; fill-opacity: 1;"><textPath class="node-label-text-path" alignment-baseline="middle" xlink:href="#fbc72d_0_node_15" startOffset="0%" text-anchor="start" style="fill: rgb(0, 0, 0);">D5</textPath></text></g></g><g class="sankey-node" transform="translate(520.000,203.200)" style="opacity: 1;"><rect class="node-rect" width="20" height="19.200000000000045" style="stroke-width: 0; stroke: rgb(128, 0, 128); stroke-opacity: 1; fill: rgb(182, 232, 128); fill-opacity: 0.8;"/><rect class="node-capture" x="-10" y="-10" width="40" height="39.200000000000045" style="fill-opacity: 0;"/><g class="node-entered" transform="translate(0,10.600000000000023)"><path class="node-label-guide" id="fbc72d_0_node_17" d="M-540,0L-4,0" transform="matrix(1 0 0 1 0 0)"/><text class="node-label" transform="scale(1 1)" style="cursor: default; fill: rgb(42, 63, 95); text-shadow: rgb(255, 255, 255) -1px 1px 1px, rgb(255, 255, 255) 1px 1px 1px, rgb(255, 255, 255) 1px -1px 1px, rgb(255, 255, 255) -1px -1px 1px; font-family: 'Open Sans', verdana, arial, sans-serif; font-size: 10px; fill-opacity: 1;"><textPath class="node-label-text-path" alignment-baseline="middle" xlink:href="#fbc72d_0_node_17" startOffset="100%" text-anchor="end" style="fill: rgb(0, 0, 0);">E2</textPath></text></g></g><g class="sankey-node" transform="translate(520.000,310.400)" style="opacity: 1;"><rect class="node-rect" width="20" height="9.60000000000008" style="stroke-width: 0; stroke: rgb(128, 0, 128); stroke-opacity: 1; fill: rgb(255, 151, 255); fill-opacity: 0.8;"/><rect class="node-capture" x="-10" y="-10" width="40" height="29.60000000000008" style="fill-opacity: 0;"/><g class="node-entered" transform="translate(0,5.80000000000004)"><path class="node-label-guide" id="fbc72d_0_node_18" d="M-540,0L-4,0" transform="matrix(1 0 0 1 0 0)"/><text class="node-label" transform="scale(1 1)" style="cursor: default; fill: rgb(42, 63, 95); text-shadow: rgb(255, 255, 255) -1px 1px 1px, rgb(255, 255, 255) 1px 1px 1px, rgb(255, 255, 255) 1px -1px 1px, rgb(255, 255, 255) -1px -1px 1px; font-family: 'Open Sans', verdana, arial, sans-serif; font-size: 10px; fill-opacity: 1;"><textPath class="node-label-text-path" alignment-baseline="middle" xlink:href="#fbc72d_0_node_18" startOffset="100%" text-anchor="end" style="fill: rgb(0, 0, 0);">E3</textPath></text></g></g><g class="sankey-node" transform="translate(520.000,242.400)" style="opacity: 1;"><rect class="node-rect" width="20" height="48.00000000000006" style="stroke-width: 0; stroke: rgb(128, 0, 128); stroke-opacity: 1; fill: rgb(254, 203, 82); fill-opacity: 0.8;"/><rect class="node-capture" x="-10" y="-10" width="40" height="68.00000000000006" style="fill-opacity: 0;"/><g class="node-entered" transform="translate(0,25.00000000000003)"><path class="node-label-guide" id="fbc72d_0_node_19" d="M-540,0L-4,0" transform="matrix(1 0 0 1 0 0)"/><text class="node-label" transform="scale(1 1)" style="cursor: default; fill: rgb(42, 63, 95); text-shadow: rgb(255, 255, 255) -1px 1px 1px, rgb(255, 255, 255) 1px 1px 1px, rgb(255, 255, 255) 1px -1px 1px, rgb(255, 255, 255) -1px -1px 1px; font-family: 'Open Sans', verdana, arial, sans-serif; font-size: 10px; fill-opacity: 1;"><textPath class="node-label-text-path" alignment-baseline="middle" xlink:href="#fbc72d_0_node_19" startOffset="100%" text-anchor="end" style="fill: rgb(0, 0, 0);">E4</textPath></text></g></g><g class="sankey-node" transform="translate(520.000,20.000)" style="opacity: 1;"><rect class="node-rect" width="20" height="163.19999999999985" style="stroke-width: 0; stroke: rgb(128, 0, 128); stroke-opacity: 1; fill: rgb(99, 110, 250); fill-opacity: 0.8;"/><rect class="node-capture" x="-10" y="-10" width="40" height="183.19999999999985" style="fill-opacity: 0;"/><g class="node-entered" transform="translate(0,82.59999999999992)"><path class="node-label-guide" id="fbc72d_0_node_20" d="M-540,0L-4,0" transform="matrix(1 0 0 1 0 0)"/><text class="node-label" transform="scale(1 1)" style="cursor: default; fill: rgb(42, 63, 95); text-shadow: rgb(255, 255, 255) -1px 1px 1px, rgb(255, 255, 255) 1px 1px 1px, rgb(255, 255, 255) 1px -1px 1px, rgb(255, 255, 255) -1px -1px 1px; font-family: 'Open Sans', verdana, arial, sans-serif; font-size: 10px; fill-opacity: 1;"><textPath class="node-label-text-path" alignment-baseline="middle" xlink:href="#fbc72d_0_node_20" startOffset="100%" text-anchor="end" style="fill: rgb(0, 0, 0);">E5</textPath></text></g></g></g></g><defs id="topdefs-1752af"><g class="clips"/></defs><g class="layer-above"><g class="imagelayer"/><g class="shapelayer"/></g><g class="infolayer"><g class="g-gtitle"><text class="gtitle" x="35" y="50" text-anchor="start" dy="0em" style="font-family: 'Open Sans', verdana, arial, sans-serif; font-size: 14px; fill: rgb(42, 63, 95); opacity: 1; font-weight: normal; white-space: pre;">Sankey Diagram 23</text></g><g class="first-render"/></g></svg>