<svg class="main-svg" xmlns="http://www.w3.org/2000/svg" xmlns:xlink="http://www.w3.org/1999/xlink" width="700" height="500" style="" viewBox="0 0 700 500"><rect x="0" y="0" width="700" height="500" style="fill: rgb(255, 255, 255); fill-opacity: 1;"/><defs id="defs-b54d51"><g class="clips"/><g class="gradients"/></defs><g class="bglayer"/><g class="layer-below"><g class="imagelayer"/><g class="shapelayer"/></g><g class="cartesianlayer"/><g class="polarlayer"/><g class="ternarylayer"/><g class="geolayer"/><g class="funnelarealayer"/><g class="pielayer"/><g class="treemaplayer"/><g class="sunburstlayer"/><g class="glimages"/><g class="sankey" transform="translate(80,100)matrix(1 0 0 1 0 0)" style="box-sizing: content-box; position: absolute; left: 0px; shape-rendering: geometricprecision; pointer-events: auto;"><g class="sankey-links" style="fill: none;"><path class="sankey-link" d="M20,276.6666666666668C140,276.6666666666668 140,276.6666666666664 260,276.6666666666664L260,319.9999999999998C140,319.9999999999998 140,320.00000000000017 20,320.00000000000017Z" style="stroke: rgb(68, 68, 68); stroke-opacity: 1; fill: rgb(0, 0, 0); fill-opacity: 0.2; stroke-width: 0; opacity: 1;"/><path class="sankey-link" d="M20,233.33333333333348C140,233.33333333333348 140,178.6666666666665 260,178.6666666666665L260,221.9999999999998C140,221.9999999999998 140,276.6666666666668 20,276.6666666666668Z" style="stroke: rgb(68, 68, 68); stroke-opacity: 1; fill: rgb(0, 0, 0); fill-opacity: 0.2; stroke-width: 0; opacity: 1;"/><path class="sankey-link" d="M20,97.99999999999997C140,97.99999999999997 140,241.99999999999977 260,241.99999999999977L260,250.66666666666646C140,250.66666666666646 140,106.66666666666663 20,106.66666666666663Z" style="stroke: rgb(68, 68, 68); stroke-opacity: 1; fill: rgb(0, 0, 0); fill-opacity: 0.2; stroke-width: 0; opacity: 1;"/><path class="sankey-link" d="M20,19.99999999999997C140,19.99999999999997 140,39.99999999999983 260,39.99999999999983L260,117.99999999999983C140,117.99999999999983 140,97.99999999999997 20,97.99999999999997Z" style="stroke: rgb(68, 68, 68); stroke-opacity: 1; fill: rgb(0, 0, 0); fill-opacity: 0.2; stroke-width: 0; opacity: 1;"/><path class="sankey-link" d="M20,187.3333333333333C140,187.3333333333333 140,250.6666666666664 260,250.6666666666664L260,276.6666666666664C140,276.6666666666664 140,213.3333333333333 20,213.3333333333333Z" style="stroke: rgb(68, 68, 68); stroke-opacity: 1; fill: rgb(0, 0, 0); fill-opacity: 0.2; stroke-width: 0; opacity: 1;"/><path class="sankey-link" d="M20,126.66666666666664C140,126.66666666666664 140,117.99999999999984 260,117.99999999999984L260,178.66666666666652C140,178.66666666666652 140,187.33333333333331 20,187.33333333333331Z" style="stroke: rgb(68, 68, 68); stroke-opacity: 1; fill: rgb(0, 0, 0); fill-opacity: 0.2; stroke-width: 0; opacity: 1;"/><path class="sankey-link" d="M280,259.3333333333331C400,259.3333333333331 400,219.3333333333333 520,219.3333333333333L520,262.66666666666663C400,262.66666666666663 400,302.66666666666646 280,302.66666666666646Z" style="stroke: rgb(68, 68, 68); stroke-opacity: 1; fill: rgb(0, 0, 0); fill-opacity: 0.2; stroke-width: 0; opacity: 1;"/><path class="sankey-link" d="M280,302.6666666666664C400,302.6666666666664 400,282.66666666666674 520,282.66666666666674L520,291.33333333333337C400,291.33333333333337 400,311.33333333333303 280,311.33333333333303Z" style="stroke: rgb(68, 68, 68); stroke-opacity: 1; fill: rgb(0, 0, 0); fill-opacity: 0.2; stroke-width: 0; opacity: 1;"/><path class="sankey-link" d="M280,311.3333333333331C400,311.3333333333331 400,311.33333333333337 520,311.33333333333337L520,320C400,320 400,319.9999999999997 280,319.9999999999997Z" style="stroke: rgb(68, 68, 68); stroke-opacity: 1; fill: rgb(0, 0, 0); fill-opacity: 0.2; stroke-width: 0; opacity: 1;"/><path class="sankey-link" d="M280,241.99999999999977C400,241.99999999999977 400,173.3333333333333 520,173.3333333333333L520,190.6666666666666C400,190.6666666666666 400,259.3333333333331 280,259.3333333333331Z" style="stroke: rgb(68, 68, 68); stroke-opacity: 1; fill: rgb(0, 0, 0); fill-opacity: 0.2; stroke-width: 0; opacity: 1;"/><path class="sankey-link" d="M280,213.33333333333314C400,213.33333333333314 400,210.66666666666663 520,210.66666666666663L520,219.33333333333331C400,219.33333333333331 400,221.99999999999983 280,221.99999999999983Z" style="stroke: rgb(68, 68, 68); stroke-opacity: 1; fill: rgb(0, 0, 0); fill-opacity: 0.2; stroke-width: 0; opacity: 1;"/><path class="sankey-link" d="M280,39.99999999999983C400,39.99999999999983 400,-2.842170943040401e-14 520,-2.842170943040401e-14L520,173.3333333333333C400,173.3333333333333 400,213.33333333333314 280,213.33333333333314Z" style="stroke: rgb(68, 68, 68); stroke-opacity: 1; fill: rgb(0, 0, 0); fill-opacity: 0.2; stroke-width: 0; opacity: 1;"/></g><g class="sankey-node-set" style="cursor: move;"><g class="sankey-node" transform="translate(0.000,233.333)" style="opacity: 1;"><rect class="node-rect" width="20" height="86.66666666666652" style="stroke-width: 0; stroke: rgb(128, 0, 128); stroke-opacity: 1; fill: rgb(99, 110, 250); fill-opacity: 0.8;"/><rect class="node-capture" x="-10" y="-10" width="40" height="106.66666666666652" style="fill-opacity: 0;"/><g class="node-entered" transform="translate(0,44.33333333333326)"><path class="node-label-guide" id="d288f3_0_node_0" d="M24,0L540,0" transform="matrix(1 0 0 1 0 0)"/><text class="node-label" transform="scale(1 1)" style="cursor: default; fill: rgb(42, 63, 95); text-shadow: rgb(255, 255, 255) -1px 1px 1px, rgb(255, 255, 255) 1px 1px 1px, rgb(255, 255, 255) 1px -1px 1px, rgb(255, 255, 255) -1px -1px 1px; font-family: 'Open Sans', verdana, arial, sans-serif; font-size: 10px; fill-opacity: 1;"><textPath class="node-label-text-path" alignment-baseline="middle" xlink:href="#d288f3_0_node_0" startOffset="0%" text-anchor="start" style="fill: rgb(0, 0, 0);">A1</textPath></text></g></g><g class="sankey-node" transform="translate(0.000,20.000)" style="opacity: 1;"><rect class="node-rect" width="20" height="86.66666666666666" style="stroke-width: 0; stroke: rgb(128, 0, 128); stroke-opacity: 1; fill: rgb(239, 85, 59); fill-opacity: 0.8;"/><rect class="node-capture" x="-10" y="-10" width="40" height="106.66666666666666" style="fill-opacity: 0;"/><g class="node-entered" transform="translate(0,44.33333333333333)"><path class="node-label-guide" id="d288f3_0_node_1" d="M24,0L540,0" transform="matrix(1 0 0 1 0 0)"/><text class="node-label" transform="scale(1 1)" style="cursor: default; fill: rgb(42, 63, 95); text-shadow: rgb(255, 255, 255) -1px 1px 1px, rgb(255, 255, 255) 1px 1px 1px, rgb(255, 255, 255) 1px -1px 1px, rgb(255, 255, 255) -1px -1px 1px; font-family: 'Open Sans', verdana, arial, sans-serif; font-size: 10px; fill-opacity: 1;"><textPath class="node-label-text-path" alignment-baseline="middle" xlink:href="#d288f3_0_node_1" startOffset="0%" text-anchor="start" style="fill: rgb(0, 0, 0);">A2</textPath></text></g></g><g class="sankey-node" transform="translate(0.000,126.667)" style="opacity: 1;"><rect class="node-rect" width="20" height="86.66666666666686" style="stroke-width: 0; stroke: rgb(128, 0, 128); stroke-opacity: 1; fill: rgb(0, 204, 150); fill-opacity: 0.8;"/><rect class="node-capture" x="-10" y="-10" width="40" height="106.66666666666686" style="fill-opacity: 0;"/><g class="node-entered" transform="translate(0,44.33333333333343)"><path class="node-label-guide" id="d288f3_0_node_2" d="M24,0L540,0" transform="matrix(1 0 0 1 0 0)"/><text class="node-label" transform="scale(1 1)" style="cursor: default; fill: rgb(42, 63, 95); text-shadow: rgb(255, 255, 255) -1px 1px 1px, rgb(255, 255, 255) 1px 1px 1px, rgb(255, 255, 255) 1px -1px 1px, rgb(255, 255, 255) -1px -1px 1px; font-family: 'Open Sans', verdana, arial, sans-serif; font-size: 10px; fill-opacity: 1;"><textPath class="node-label-text-path" alignment-baseline="middle" xlink:href="#d288f3_0_node_2" startOffset="0%" text-anchor="start" style="fill: rgb(0, 0, 0);">A3</textPath></text></g></g><g class="sankey-node" transform="translate(260.000,242.000)" style="opacity: 1;"><rect class="node-rect" width="20" height="78.00000000000023" style="stroke-width: 0; stroke: rgb(128, 0, 128); stroke-opacity: 1; fill: rgb(171, 99, 250); fill-opacity: 0.8;"/><rect class="node-capture" x="-10" y="-10" width="40" height="98.00000000000023" style="fill-opacity: 0;"/><g class="node-entered" transform="translate(0,40.000000000000114)"><path class="node-label-guide" id="d288f3_0_node_3" d="M24,0L540,0" transform="matrix(1 0 0 1 0 0)"/><text class="node-label" transform="scale(1 1)" style="cursor: default; fill: rgb(42, 63, 95); text-shadow: rgb(255, 255, 255) -1px 1px 1px, rgb(255, 255, 255) 1px 1px 1px, rgb(255, 255, 255) 1px -1px 1px, rgb(255, 255, 255) -1px -1px 1px; font-family: 'Open Sans', verdana, arial, sans-serif; font-size: 10px; fill-opacity: 1;"><textPath class="node-label-text-path" alignment-baseline="middle" xlink:href="#d288f3_0_node_3" startOffset="0%" text-anchor="start" style="fill: rgb(0, 0, 0);">B1</textPath></text></g></g><g class="sankey-node" transform="translate(260.000,40.000)" style="opacity: 1;"><rect class="node-rect" width="20" height="181.99999999999994" style="stroke-width: 0; stroke: rgb(128, 0, 128); stroke-opacity: 1; fill: rgb(255, 161, 90); fill-opacity: 0.8;"/><rect class="node-capture" x="-10" y="-10" width="40" height="201.99999999999994" style="fill-opacity: 0;"/><g class="node-entered" transform="translate(0,91.99999999999997)"><path class="node-label-guide" id="d288f3_0_node_4" d="M24,0L540,0" transform="matrix(1 0 0 1 0 0)"/><text class="node-label" transform="scale(1 1)" style="cursor: default; fill: rgb(42, 63, 95); text-shadow: rgb(255, 255, 255) -1px 1px 1px, rgb(255, 255, 255) 1px 1px 1px, rgb(255, 255, 255) 1px -1px 1px, rgb(255, 255, 255) -1px -1px 1px; font-family: 'Open Sans', verdana, arial, sans-serif; font-size: 10px; fill-opacity: 1;"><textPath class="node-label-text-path" alignment-baseline="middle" xlink:href="#d288f3_0_node_4" startOffset="0%" text-anchor="start" style="fill: rgb(0, 0, 0);">B2</textPath></text></g></g><g class="sankey-node" transform="translate(520.000,210.667)" style="opacity: 1;"><rect class="node-rect" width="20" height="52.000000000000114" style="stroke-width: 0; stroke: rgb(128, 0, 128); stroke-opacity: 1; fill: rgb(25, 211, 243); fill-opacity: 0.8;"/><rect class="node-capture" x="-10" y="-10" width="40" height="72.00000000000011" style="fill-opacity: 0;"/><g class="node-entered" transform="translate(0,27.000000000000057)"><path class="node-label-guide" id="d288f3_0_node_5" d="M-540,0L-4,0" transform="matrix(1 0 0 1 0 0)"/><text class="node-label" transform="scale(1 1)" style="cursor: default; fill: rgb(42, 63, 95); text-shadow: rgb(255, 255, 255) -1px 1px 1px, rgb(255, 255, 255) 1px 1px 1px, rgb(255, 255, 255) 1px -1px 1px, rgb(255, 255, 255) -1px -1px 1px; font-family: 'Open Sans', verdana, arial, sans-serif; font-size: 10px; fill-opacity: 1;"><textPath class="node-label-text-path" alignment-baseline="middle" xlink:href="#d288f3_0_node_5" startOffset="100%" text-anchor="end" style="fill: rgb(0, 0, 0);">C1</textPath></text></g></g><g class="sankey-node" transform="translate(520.000,282.667)" style="opacity: 1;"><rect class="node-rect" width="20" height="8.666666666666629" style="stroke-width: 0; stroke: rgb(128, 0, 128); stroke-opacity: 1; fill: rgb(255, 102, 146); fill-opacity: 0.8;"/><rect class="node-capture" x="-10" y="-10" width="40" height="28.66666666666663" style="fill-opacity: 0;"/><g class="node-entered" transform="translate(0,5.333333333333314)"><path class="node-label-guide" id="d288f3_0_node_6" d="M-540,0L-4,0" transform="matrix(1 0 0 1 0 0)"/><text class="node-label" transform="scale(1 1)" style="cursor: default; fill: rgb(42, 63, 95); text-shadow: rgb(255, 255, 255) -1px 1px 1px, rgb(255, 255, 255) 1px 1px 1px, rgb(255, 255, 255) 1px -1px 1px, rgb(255, 255, 255) -1px -1px 1px; font-family: 'Open Sans', verdana, arial, sans-serif; font-size: 10px; fill-opacity: 1;"><textPath class="node-label-text-path" alignment-baseline="middle" xlink:href="#d288f3_0_node_6" startOffset="100%" text-anchor="end" style="fill: rgb(0, 0, 0);">C2</textPath></text></g></g><g class="sankey-node" transform="translate(520.000,311.333)" style="opacity: 1;"><rect class="node-rect" width="20" height="8.666666666666629" style="stroke-width: 0; stroke: rgb(128, 0, 128); stroke-opacity: 1; fill: rgb(182, 232, 128); fill-opacity: 0.8;"/><rect class="node-capture" x="-10" y="-10" width="40" height="28.66666666666663" style="fill-opacity: 0;"/><g class="node-entered" transform="translate(0,5.333333333333314)"><path class="node-label-guide" id="d288f3_0_node_7" d="M-540,0L-4,0" transform="matrix(1 0 0 1 0 0)"/><text class="node-label" transform="scale(1 1)" style="cursor: default; fill: rgb(42, 63, 95); text-shadow: rgb(255, 255, 255) -1px 1px 1px, rgb(255, 255, 255) 1px 1px 1px, rgb(255, 255, 255) 1px -1px 1px, rgb(255, 255, 255) -1px -1px 1px; font-family: 'Open Sans', verdana, arial, sans-serif; font-size: 10px; fill-opacity: 1;"><textPath class="node-label-text-path" alignment-baseline="middle" xlink:href="#d288f3_0_node_7" startOffset="100%" text-anchor="end" style="fill: rgb(0, 0, 0);">C3</textPath></text></g></g><g class="sankey-node" transform="translate(520.000,-0.000)" style="opacity: 1;"><rect class="node-rect" width="20" height="190.66666666666666" style="stroke-width: 0; stroke: rgb(128, 0, 128); stroke-opacity: 1; fill: rgb(255, 151, 255); fill-opacity: 0.8;"/><rect class="node-capture" x="-10" y="-10" width="40" height="210.66666666666666" style="fill-opacity: 0;"/><g class="node-entered" transform="translate(0,96.33333333333333)"><path class="node-label-guide" id="d288f3_0_node_8" d="M-540,0L-4,0" transform="matrix(1 0 0 1 0 0)"/><text class="node-label" transform="scale(1 1)" style="cursor: default; fill: rgb(42, 63, 95); text-shadow: rgb(255, 255, 255) -1px 1px 1px, rgb(255, 255, 255) 1px 1px 1px, rgb(255, 255, 255) 1px -1px 1px, rgb(255, 255, 255) -1px -1px 1px; font-family: 'Open Sans', verdana, arial, sans-serif; font-size: 10px; fill-opacity: 1;"><textPath class="node-label-text-path" alignment-baseline="middle" xlink:href="#d288f3_0_node_8" startOffset="100%" text-anchor="end" style="fill: rgb(0, 0, 0);">C4</textPath></text></g></g></g></g><defs id="topdefs-b54d51"><g class="clips"/></defs><g class="layer-above"><g class="imagelayer"/><g class="shapelayer"/></g><g class="infolayer"><g class="g-gtitle"><text class="gtitle" x="35" y="50" text-anchor="start" dy="0em" style="font-family: 'Open Sans', verdana, arial, sans-serif; font-size: 14px; fill: rgb(42, 63, 95); opacity: 1; font-weight: normal; white-space: pre;">Sankey Diagram 40</text></g><g class="first-render"/></g></svg>