<svg class="main-svg" xmlns="http://www.w3.org/2000/svg" xmlns:xlink="http://www.w3.org/1999/xlink" width="700" height="500" viewBox="0 0 700 500" style=""><rect x="0" y="0" width="700" height="500" style="fill: rgb(255, 255, 255); fill-opacity: 1;"/><defs id="defs-a2024b"><g class="clips"/><g class="gradients"/></defs><g class="bglayer"/><g class="layer-below"><g class="imagelayer"/><g class="shapelayer"/></g><g class="cartesianlayer"/><g class="polarlayer"/><g class="ternarylayer"/><g class="geolayer"/><g class="funnelarealayer"/><g class="pielayer"/><g class="treemaplayer"/><g class="sunburstlayer"/><g class="glimages"/><g class="sankey" transform="translate(80,100)matrix(1 0 0 1 0 0)" style="box-sizing: content-box; position: absolute; left: 0px; shape-rendering: geometricprecision; pointer-events: auto;"><g class="sankey-links" style="fill: none;"><path class="sankey-link" d="M20,84.9999999999998C270,84.9999999999998 270,45.500000000000206 520,45.500000000000206L520,65.0000000000002C270,65.0000000000002 270,104.4999999999998 20,104.4999999999998Z" style="stroke: rgb(68, 68, 68); stroke-opacity: 1; fill: rgb(0, 0, 0); fill-opacity: 0.2; stroke-width: 0; opacity: 1;"/><path class="sankey-link" d="M20,104.4999999999998C270,104.4999999999998 270,91.5000000000002 520,91.5000000000002L520,137.0000000000002C270,137.0000000000002 270,149.9999999999998 20,149.9999999999998Z" style="stroke: rgb(68, 68, 68); stroke-opacity: 1; fill: rgb(0, 0, 0); fill-opacity: 0.2; stroke-width: 0; opacity: 1;"/><path class="sankey-link" d="M20,169.99999999999983C270,169.99999999999983 270,65.0000000000002 520,65.0000000000002L520,71.5000000000002C270,71.5000000000002 270,176.49999999999983 20,176.49999999999983Z" style="stroke: rgb(68, 68, 68); stroke-opacity: 1; fill: rgb(0, 0, 0); fill-opacity: 0.2; stroke-width: 0; opacity: 1;"/><path class="sankey-link" d="M20,176.49999999999983C270,176.49999999999983 270,170.00000000000017 520,170.00000000000017L520,196.00000000000017C270,196.00000000000017 270,202.49999999999983 20,202.49999999999983Z" style="stroke: rgb(68, 68, 68); stroke-opacity: 1; fill: rgb(0, 0, 0); fill-opacity: 0.2; stroke-width: 0; opacity: 1;"/><path class="sankey-link" d="M20,202.49999999999983C270,202.49999999999983 270,255.00000000000028 520,255.00000000000028L520,287.5000000000003C270,287.5000000000003 270,234.99999999999983 20,234.99999999999983Z" style="stroke: rgb(68, 68, 68); stroke-opacity: 1; fill: rgb(0, 0, 0); fill-opacity: 0.2; stroke-width: 0; opacity: 1;"/><path class="sankey-link" d="M20,-2.2737367544323206e-13C270,-2.2737367544323206e-13 270,2.0605739337042905e-13 520,2.0605739337042905e-13L520,45.500000000000206C270,45.500000000000206 270,45.49999999999977 20,45.49999999999977Z" style="stroke: rgb(68, 68, 68); stroke-opacity: 1; fill: rgb(0, 0, 0); fill-opacity: 0.2; stroke-width: 0; opacity: 1;"/><path class="sankey-link" d="M20,45.49999999999977C270,45.49999999999977 270,157.00000000000017 520,157.00000000000017L520,170.00000000000017C270,170.00000000000017 270,58.49999999999977 20,58.49999999999977Z" style="stroke: rgb(68, 68, 68); stroke-opacity: 1; fill: rgb(0, 0, 0); fill-opacity: 0.2; stroke-width: 0; opacity: 1;"/><path class="sankey-link" d="M20,58.49999999999977C270,58.49999999999977 270,248.50000000000028 520,248.50000000000028L520,255.00000000000028C270,255.00000000000028 270,64.99999999999977 20,64.99999999999977Z" style="stroke: rgb(68, 68, 68); stroke-opacity: 1; fill: rgb(0, 0, 0); fill-opacity: 0.2; stroke-width: 0; opacity: 1;"/><path class="sankey-link" d="M20,254.99999999999994C270,254.99999999999994 270,196.00000000000017 520,196.00000000000017L520,228.50000000000017C270,228.50000000000017 270,287.49999999999994 20,287.49999999999994Z" style="stroke: rgb(68, 68, 68); stroke-opacity: 1; fill: rgb(0, 0, 0); fill-opacity: 0.2; stroke-width: 0; opacity: 1;"/><path class="sankey-link" d="M20,287.49999999999994C270,287.49999999999994 270,287.5000000000003 520,287.5000000000003L520,320.0000000000003C270,320.0000000000003 270,319.99999999999994 20,319.99999999999994Z" style="stroke: rgb(68, 68, 68); stroke-opacity: 1; fill: rgb(0, 0, 0); fill-opacity: 0.2; stroke-width: 0; opacity: 1;"/></g><g class="sankey-node-set" style="cursor: move;"><g class="sankey-node" transform="translate(0.000,85.000)" style="opacity: 1;"><rect class="node-rect" width="20" height="65.00000000000003" style="stroke-width: 0; stroke: rgb(128, 0, 128); stroke-opacity: 1; fill: rgb(99, 110, 250); fill-opacity: 0.8;"/><rect class="node-capture" x="-10" y="-10" width="40" height="85.00000000000003" style="fill-opacity: 0;"/><g class="node-entered" transform="translate(0,33.500000000000014)"><path class="node-label-guide" id="1e32b3_0_node_0" d="M24,0L540,0" transform="matrix(1 0 0 1 0 0)"/><text class="node-label" transform="scale(1 1)" style="cursor: default; fill: rgb(42, 63, 95); text-shadow: rgb(255, 255, 255) -1px 1px 1px, rgb(255, 255, 255) 1px 1px 1px, rgb(255, 255, 255) 1px -1px 1px, rgb(255, 255, 255) -1px -1px 1px; font-family: 'Open Sans', verdana, arial, sans-serif; font-size: 10px; fill-opacity: 1;"><textPath class="node-label-text-path" alignment-baseline="middle" xlink:href="#1e32b3_0_node_0" startOffset="0%" text-anchor="start" style="fill: rgb(0, 0, 0);">A1</textPath></text></g></g><g class="sankey-node" transform="translate(0.000,170.000)" style="opacity: 1;"><rect class="node-rect" width="20" height="65.00000000000011" style="stroke-width: 0; stroke: rgb(128, 0, 128); stroke-opacity: 1; fill: rgb(239, 85, 59); fill-opacity: 0.8;"/><rect class="node-capture" x="-10" y="-10" width="40" height="85.00000000000011" style="fill-opacity: 0;"/><g class="node-entered" transform="translate(0,33.50000000000006)"><path class="node-label-guide" id="1e32b3_0_node_1" d="M24,0L540,0" transform="matrix(1 0 0 1 0 0)"/><text class="node-label" transform="scale(1 1)" style="cursor: default; fill: rgb(42, 63, 95); text-shadow: rgb(255, 255, 255) -1px 1px 1px, rgb(255, 255, 255) 1px 1px 1px, rgb(255, 255, 255) 1px -1px 1px, rgb(255, 255, 255) -1px -1px 1px; font-family: 'Open Sans', verdana, arial, sans-serif; font-size: 10px; fill-opacity: 1;"><textPath class="node-label-text-path" alignment-baseline="middle" xlink:href="#1e32b3_0_node_1" startOffset="0%" text-anchor="start" style="fill: rgb(0, 0, 0);">A2</textPath></text></g></g><g class="sankey-node" transform="translate(0.000,-0.000)" style="opacity: 1;"><rect class="node-rect" width="20" height="65.00000000000003" style="stroke-width: 0; stroke: rgb(128, 0, 128); stroke-opacity: 1; fill: rgb(0, 204, 150); fill-opacity: 0.8;"/><rect class="node-capture" x="-10" y="-10" width="40" height="85.00000000000003" style="fill-opacity: 0;"/><g class="node-entered" transform="translate(0,33.500000000000014)"><path class="node-label-guide" id="1e32b3_0_node_2" d="M24,0L540,0" transform="matrix(1 0 0 1 0 0)"/><text class="node-label" transform="scale(1 1)" style="cursor: default; fill: rgb(42, 63, 95); text-shadow: rgb(255, 255, 255) -1px 1px 1px, rgb(255, 255, 255) 1px 1px 1px, rgb(255, 255, 255) 1px -1px 1px, rgb(255, 255, 255) -1px -1px 1px; font-family: 'Open Sans', verdana, arial, sans-serif; font-size: 10px; fill-opacity: 1;"><textPath class="node-label-text-path" alignment-baseline="middle" xlink:href="#1e32b3_0_node_2" startOffset="0%" text-anchor="start" style="fill: rgb(0, 0, 0);">A3</textPath></text></g></g><g class="sankey-node" transform="translate(0.000,255.000)" style="opacity: 1;"><rect class="node-rect" width="20" height="65.00000000000006" style="stroke-width: 0; stroke: rgb(128, 0, 128); stroke-opacity: 1; fill: rgb(171, 99, 250); fill-opacity: 0.8;"/><rect class="node-capture" x="-10" y="-10" width="40" height="85.00000000000006" style="fill-opacity: 0;"/><g class="node-entered" transform="translate(0,33.50000000000003)"><path class="node-label-guide" id="1e32b3_0_node_3" d="M24,0L540,0" transform="matrix(1 0 0 1 0 0)"/><text class="node-label" transform="scale(1 1)" style="cursor: default; fill: rgb(42, 63, 95); text-shadow: rgb(255, 255, 255) -1px 1px 1px, rgb(255, 255, 255) 1px 1px 1px, rgb(255, 255, 255) 1px -1px 1px, rgb(255, 255, 255) -1px -1px 1px; font-family: 'Open Sans', verdana, arial, sans-serif; font-size: 10px; fill-opacity: 1;"><textPath class="node-label-text-path" alignment-baseline="middle" xlink:href="#1e32b3_0_node_3" startOffset="0%" text-anchor="start" style="fill: rgb(0, 0, 0);">A4</textPath></text></g></g><g class="sankey-node" transform="translate(520.000,0.000)" style="opacity: 1;"><rect class="node-rect" width="20" height="71.5" style="stroke-width: 0; stroke: rgb(128, 0, 128); stroke-opacity: 1; fill: rgb(255, 161, 90); fill-opacity: 0.8;"/><rect class="node-capture" x="-10" y="-10" width="40" height="91.5" style="fill-opacity: 0;"/><g class="node-entered" transform="translate(0,36.75)"><path class="node-label-guide" id="1e32b3_0_node_4" d="M-540,0L-4,0" transform="matrix(1 0 0 1 0 0)"/><text class="node-label" transform="scale(1 1)" style="cursor: default; fill: rgb(42, 63, 95); text-shadow: rgb(255, 255, 255) -1px 1px 1px, rgb(255, 255, 255) 1px 1px 1px, rgb(255, 255, 255) 1px -1px 1px, rgb(255, 255, 255) -1px -1px 1px; font-family: 'Open Sans', verdana, arial, sans-serif; font-size: 10px; fill-opacity: 1;"><textPath class="node-label-text-path" alignment-baseline="middle" xlink:href="#1e32b3_0_node_4" startOffset="100%" text-anchor="end" style="fill: rgb(0, 0, 0);">B1</textPath></text></g></g><g class="sankey-node" transform="translate(520.000,157.000)" style="opacity: 1;"><rect class="node-rect" width="20" height="71.50000000000011" style="stroke-width: 0; stroke: rgb(128, 0, 128); stroke-opacity: 1; fill: rgb(25, 211, 243); fill-opacity: 0.8;"/><rect class="node-capture" x="-10" y="-10" width="40" height="91.50000000000011" style="fill-opacity: 0;"/><g class="node-entered" transform="translate(0,36.75000000000006)"><path class="node-label-guide" id="1e32b3_0_node_5" d="M-540,0L-4,0" transform="matrix(1 0 0 1 0 0)"/><text class="node-label" transform="scale(1 1)" style="cursor: default; fill: rgb(42, 63, 95); text-shadow: rgb(255, 255, 255) -1px 1px 1px, rgb(255, 255, 255) 1px 1px 1px, rgb(255, 255, 255) 1px -1px 1px, rgb(255, 255, 255) -1px -1px 1px; font-family: 'Open Sans', verdana, arial, sans-serif; font-size: 10px; fill-opacity: 1;"><textPath class="node-label-text-path" alignment-baseline="middle" xlink:href="#1e32b3_0_node_5" startOffset="100%" text-anchor="end" style="fill: rgb(0, 0, 0);">B2</textPath></text></g></g><g class="sankey-node" transform="translate(520.000,91.500)" style="opacity: 1;"><rect class="node-rect" width="20" height="45.49999999999997" style="stroke-width: 0; stroke: rgb(128, 0, 128); stroke-opacity: 1; fill: rgb(255, 102, 146); fill-opacity: 0.8;"/><rect class="node-capture" x="-10" y="-10" width="40" height="65.49999999999997" style="fill-opacity: 0;"/><g class="node-entered" transform="translate(0,23.749999999999986)"><path class="node-label-guide" id="1e32b3_0_node_6" d="M-540,0L-4,0" transform="matrix(1 0 0 1 0 0)"/><text class="node-label" transform="scale(1 1)" style="cursor: default; fill: rgb(42, 63, 95); text-shadow: rgb(255, 255, 255) -1px 1px 1px, rgb(255, 255, 255) 1px 1px 1px, rgb(255, 255, 255) 1px -1px 1px, rgb(255, 255, 255) -1px -1px 1px; font-family: 'Open Sans', verdana, arial, sans-serif; font-size: 10px; fill-opacity: 1;"><textPath class="node-label-text-path" alignment-baseline="middle" xlink:href="#1e32b3_0_node_6" startOffset="100%" text-anchor="end" style="fill: rgb(0, 0, 0);">B3</textPath></text></g></g><g class="sankey-node" transform="translate(520.000,248.500)" style="opacity: 1;"><rect class="node-rect" width="20" height="71.49999999999972" style="stroke-width: 0; stroke: rgb(128, 0, 128); stroke-opacity: 1; fill: rgb(182, 232, 128); fill-opacity: 0.8;"/><rect class="node-capture" x="-10" y="-10" width="40" height="91.49999999999972" style="fill-opacity: 0;"/><g class="node-entered" transform="translate(0,36.74999999999986)"><path class="node-label-guide" id="1e32b3_0_node_7" d="M-540,0L-4,0" transform="matrix(1 0 0 1 0 0)"/><text class="node-label" transform="scale(1 1)" style="cursor: default; fill: rgb(42, 63, 95); text-shadow: rgb(255, 255, 255) -1px 1px 1px, rgb(255, 255, 255) 1px 1px 1px, rgb(255, 255, 255) 1px -1px 1px, rgb(255, 255, 255) -1px -1px 1px; font-family: 'Open Sans', verdana, arial, sans-serif; font-size: 10px; fill-opacity: 1;"><textPath class="node-label-text-path" alignment-baseline="middle" xlink:href="#1e32b3_0_node_7" startOffset="100%" text-anchor="end" style="fill: rgb(0, 0, 0);">B4</textPath></text></g></g></g></g><defs id="topdefs-a2024b"><g class="clips"/></defs><g class="layer-above"><g class="imagelayer"/><g class="shapelayer"/></g><g class="infolayer"><g class="g-gtitle"><text class="gtitle" x="35" y="50" text-anchor="start" dy="0em" style="font-family: 'Open Sans', verdana, arial, sans-serif; font-size: 14px; fill: rgb(42, 63, 95); opacity: 1; font-weight: normal; white-space: pre;">Sankey Diagram 22</text></g><g class="first-render"/></g></svg>