<svg class="main-svg" xmlns="http://www.w3.org/2000/svg" xmlns:xlink="http://www.w3.org/1999/xlink" width="700" height="500" style="" viewBox="0 0 700 500"><rect x="0" y="0" width="700" height="500" style="fill: rgb(255, 255, 255); fill-opacity: 1;"/><defs id="defs-241f2d"><g class="clips"/><g class="gradients"/></defs><g class="bglayer"/><g class="layer-below"><g class="imagelayer"/><g class="shapelayer"/></g><g class="cartesianlayer"/><g class="polarlayer"/><g class="ternarylayer"/><g class="geolayer"/><g class="funnelarealayer"/><g class="pielayer"/><g class="treemaplayer"/><g class="sunburstlayer"/><g class="glimages"/><g class="sankey" transform="translate(80,100)matrix(1 0 0 1 0 0)" style="box-sizing: content-box; position: absolute; left: 0px; shape-rendering: geometricprecision; pointer-events: auto;"><g class="sankey-links" style="fill: none;"><path class="sankey-link" d="M20,3.268496584496461e-13C96.66666666666667,3.268496584496461e-13 96.66666666666667,-1.6342482922482304e-13 173.33333333333334,-1.6342482922482304e-13L173.33333333333334,93.33333333333317C96.66666666666667,93.33333333333317 96.66666666666667,93.33333333333367 20,93.33333333333367Z" style="stroke: rgb(68, 68, 68); stroke-opacity: 1; fill: rgb(0, 0, 0); fill-opacity: 0.2; stroke-width: 0; opacity: 1;"/><path class="sankey-link" d="M20,141.33333333333366C96.66666666666667,141.33333333333366 96.66666666666667,150.6666666666664 173.33333333333334,150.6666666666664L173.33333333333334,197.3333333333331C96.66666666666667,197.3333333333331 96.66666666666667,188.00000000000034 20,188.00000000000034Z" style="stroke: rgb(68, 68, 68); stroke-opacity: 1; fill: rgb(0, 0, 0); fill-opacity: 0.2; stroke-width: 0; opacity: 1;"/><path class="sankey-link" d="M20,113.33333333333366C96.66666666666667,113.33333333333366 96.66666666666667,93.33333333333317 173.33333333333334,93.33333333333317L173.33333333333334,121.33333333333317C96.66666666666667,121.33333333333317 96.66666666666667,141.33333333333366 20,141.33333333333366Z" style="stroke: rgb(68, 68, 68); stroke-opacity: 1; fill: rgb(0, 0, 0); fill-opacity: 0.2; stroke-width: 0; opacity: 1;"/><path class="sankey-link" d="M20,188.00000000000034C96.66666666666667,188.00000000000034 96.66666666666667,282.6666666666666 173.33333333333334,282.6666666666666L173.33333333333334,301.3333333333332C96.66666666666667,301.3333333333332 96.66666666666667,206.66666666666703 20,206.66666666666703Z" style="stroke: rgb(68, 68, 68); stroke-opacity: 1; fill: rgb(0, 0, 0); fill-opacity: 0.2; stroke-width: 0; opacity: 1;"/><path class="sankey-link" d="M20,236.00000000000023C96.66666666666667,236.00000000000023 96.66666666666667,197.3333333333331 173.33333333333334,197.3333333333331L173.33333333333334,262.66666666666646C96.66666666666667,262.66666666666646 96.66666666666667,301.3333333333336 20,301.3333333333336Z" style="stroke: rgb(68, 68, 68); stroke-opacity: 1; fill: rgb(0, 0, 0); fill-opacity: 0.2; stroke-width: 0; opacity: 1;"/><path class="sankey-link" d="M20,226.6666666666669C96.66666666666667,226.6666666666669 96.66666666666667,121.33333333333317 173.33333333333334,121.33333333333317L173.33333333333334,130.66666666666652C96.66666666666667,130.66666666666652 96.66666666666667,236.00000000000023 20,236.00000000000023Z" style="stroke: rgb(68, 68, 68); stroke-opacity: 1; fill: rgb(0, 0, 0); fill-opacity: 0.2; stroke-width: 0; opacity: 1;"/><path class="sankey-link" d="M20,301.3333333333336C96.66666666666667,301.3333333333336 96.66666666666667,301.33333333333326 173.33333333333334,301.33333333333326L173.33333333333334,319.9999999999999C96.66666666666667,319.9999999999999 96.66666666666667,320.0000000000002 20,320.0000000000002Z" style="stroke: rgb(68, 68, 68); stroke-opacity: 1; fill: rgb(0, 0, 0); fill-opacity: 0.2; stroke-width: 0; opacity: 1;"/><path class="sankey-link" d="M193.33333333333334,253.33333333333312C270,253.33333333333312 270,292.0000000000001 346.6666666666667,292.0000000000001L346.6666666666667,301.3333333333335C270,301.3333333333335 270,262.66666666666646 193.33333333333334,262.66666666666646Z" style="stroke: rgb(68, 68, 68); stroke-opacity: 1; fill: rgb(0, 0, 0); fill-opacity: 0.2; stroke-width: 0; opacity: 1;"/><path class="sankey-link" d="M193.33333333333334,197.3333333333331C270,197.3333333333331 270,197.33333333333314 346.6666666666667,197.33333333333314L346.6666666666667,253.33333333333314C270,253.33333333333314 270,253.3333333333331 193.33333333333334,253.3333333333331Z" style="stroke: rgb(68, 68, 68); stroke-opacity: 1; fill: rgb(0, 0, 0); fill-opacity: 0.2; stroke-width: 0; opacity: 1;"/><path class="sankey-link" d="M193.33333333333334,150.6666666666664C270,150.6666666666664 270,130.66666666666646 346.6666666666667,130.66666666666646L346.6666666666667,177.33333333333314C270,177.33333333333314 270,197.3333333333331 193.33333333333334,197.3333333333331Z" style="stroke: rgb(68, 68, 68); stroke-opacity: 1; fill: rgb(0, 0, 0); fill-opacity: 0.2; stroke-width: 0; opacity: 1;"/><path class="sankey-link" d="M193.33333333333334,-1.7053025658242404e-13C270,-1.7053025658242404e-13 270,-2.2737367544323206e-13 346.6666666666667,-2.2737367544323206e-13L346.6666666666667,130.66666666666646C270,130.66666666666646 270,130.66666666666652 193.33333333333334,130.66666666666652Z" style="stroke: rgb(68, 68, 68); stroke-opacity: 1; fill: rgb(0, 0, 0); fill-opacity: 0.2; stroke-width: 0; opacity: 1;"/><path class="sankey-link" d="M193.33333333333334,301.33333333333326C270,301.33333333333326 270,301.3333333333334 346.6666666666667,301.3333333333334L346.6666666666667,320.00000000000006C270,320.00000000000006 270,319.9999999999999 193.33333333333334,319.9999999999999Z" style="stroke: rgb(68, 68, 68); stroke-opacity: 1; fill: rgb(0, 0, 0); fill-opacity: 0.2; stroke-width: 0; opacity: 1;"/><path class="sankey-link" d="M193.33333333333334,282.6666666666666C270,282.6666666666666 270,253.33333333333312 346.6666666666667,253.33333333333312L346.6666666666667,271.9999999999998C270,271.9999999999998 270,301.3333333333332 193.33333333333334,301.3333333333332Z" style="stroke: rgb(68, 68, 68); stroke-opacity: 1; fill: rgb(0, 0, 0); fill-opacity: 0.2; stroke-width: 0; opacity: 1;"/><path class="sankey-link" d="M366.6666666666667,292.0000000000001C443.33333333333337,292.0000000000001 443.33333333333337,196.00000000000006 520,196.00000000000006L520,205.33333333333337C443.33333333333337,205.33333333333337 443.33333333333337,301.3333333333335 366.6666666666667,301.3333333333335Z" style="stroke: rgb(68, 68, 68); stroke-opacity: 1; fill: rgb(0, 0, 0); fill-opacity: 0.2; stroke-width: 0; opacity: 1;"/><path class="sankey-link" d="M366.6666666666667,301.3333333333334C443.33333333333337,301.3333333333334 443.33333333333337,244 520,244L520,262.6666666666667C443.33333333333337,262.6666666666667 443.33333333333337,320.00000000000006 366.6666666666667,320.00000000000006Z" style="stroke: rgb(68, 68, 68); stroke-opacity: 1; fill: rgb(0, 0, 0); fill-opacity: 0.2; stroke-width: 0; opacity: 1;"/><path class="sankey-link" d="M366.6666666666667,197.33333333333314C443.33333333333337,197.33333333333314 443.33333333333337,177.3333333333334 520,177.3333333333334L520,196.00000000000009C443.33333333333337,196.00000000000009 443.33333333333337,215.99999999999983 366.6666666666667,215.99999999999983Z" style="stroke: rgb(68, 68, 68); stroke-opacity: 1; fill: rgb(0, 0, 0); fill-opacity: 0.2; stroke-width: 0; opacity: 1;"/><path class="sankey-link" d="M366.6666666666667,215.9999999999998C443.33333333333337,215.9999999999998 443.33333333333337,225.33333333333334 520,225.33333333333334L520,244.00000000000003C443.33333333333337,244.00000000000003 443.33333333333337,234.6666666666665 366.6666666666667,234.6666666666665Z" style="stroke: rgb(68, 68, 68); stroke-opacity: 1; fill: rgb(0, 0, 0); fill-opacity: 0.2; stroke-width: 0; opacity: 1;"/><path class="sankey-link" d="M366.6666666666667,234.66666666666646C443.33333333333337,234.66666666666646 443.33333333333337,282.6666666666665 520,282.6666666666665L520,319.9999999999999C443.33333333333337,319.9999999999999 443.33333333333337,271.9999999999998 366.6666666666667,271.9999999999998Z" style="stroke: rgb(68, 68, 68); stroke-opacity: 1; fill: rgb(0, 0, 0); fill-opacity: 0.2; stroke-width: 0; opacity: 1;"/><path class="sankey-link" d="M366.6666666666667,-2.1316282072803006e-13C443.33333333333337,-2.1316282072803006e-13 443.33333333333337,7.105427357601002e-14 520,7.105427357601002e-14L520,177.33333333333343C443.33333333333337,177.33333333333343 443.33333333333337,177.33333333333314 366.6666666666667,177.33333333333314Z" style="stroke: rgb(68, 68, 68); stroke-opacity: 1; fill: rgb(0, 0, 0); fill-opacity: 0.2; stroke-width: 0; opacity: 1;"/></g><g class="sankey-node-set" style="cursor: move;"><g class="sankey-node" transform="translate(0.000,0.000)" style="opacity: 1;"><rect class="node-rect" width="20" height="93.33333333333331" style="stroke-width: 0; stroke: rgb(128, 0, 128); stroke-opacity: 1; fill: rgb(99, 110, 250); fill-opacity: 0.8;"/><rect class="node-capture" x="-10" y="-10" width="40" height="113.33333333333331" style="fill-opacity: 0;"/><g class="node-entered" transform="translate(0,47.66666666666666)"><path class="node-label-guide" id="1ac0af_0_node_0" d="M24,0L540,0" transform="matrix(1 0 0 1 0 0)"/><text class="node-label" transform="scale(1 1)" style="cursor: default; fill: rgb(42, 63, 95); text-shadow: rgb(255, 255, 255) -1px 1px 1px, rgb(255, 255, 255) 1px 1px 1px, rgb(255, 255, 255) 1px -1px 1px, rgb(255, 255, 255) -1px -1px 1px; font-family: 'Open Sans', verdana, arial, sans-serif; font-size: 10px; fill-opacity: 1;"><textPath class="node-label-text-path" alignment-baseline="middle" xlink:href="#1ac0af_0_node_0" startOffset="0%" text-anchor="start" style="fill: rgb(0, 0, 0);">A1</textPath></text></g></g><g class="sankey-node" transform="translate(0.000,113.333)" style="opacity: 1;"><rect class="node-rect" width="20" height="93.33333333333326" style="stroke-width: 0; stroke: rgb(128, 0, 128); stroke-opacity: 1; fill: rgb(239, 85, 59); fill-opacity: 0.8;"/><rect class="node-capture" x="-10" y="-10" width="40" height="113.33333333333326" style="fill-opacity: 0;"/><g class="node-entered" transform="translate(0,47.66666666666663)"><path class="node-label-guide" id="1ac0af_0_node_1" d="M24,0L540,0" transform="matrix(1 0 0 1 0 0)"/><text class="node-label" transform="scale(1 1)" style="cursor: default; fill: rgb(42, 63, 95); text-shadow: rgb(255, 255, 255) -1px 1px 1px, rgb(255, 255, 255) 1px 1px 1px, rgb(255, 255, 255) 1px -1px 1px, rgb(255, 255, 255) -1px -1px 1px; font-family: 'Open Sans', verdana, arial, sans-serif; font-size: 10px; fill-opacity: 1;"><textPath class="node-label-text-path" alignment-baseline="middle" xlink:href="#1ac0af_0_node_1" startOffset="0%" text-anchor="start" style="fill: rgb(0, 0, 0);">A2</textPath></text></g></g><g class="sankey-node" transform="translate(0.000,226.667)" style="opacity: 1;"><rect class="node-rect" width="20" height="93.33333333333309" style="stroke-width: 0; stroke: rgb(128, 0, 128); stroke-opacity: 1; fill: rgb(0, 204, 150); fill-opacity: 0.8;"/><rect class="node-capture" x="-10" y="-10" width="40" height="113.33333333333309" style="fill-opacity: 0;"/><g class="node-entered" transform="translate(0,47.66666666666654)"><path class="node-label-guide" id="1ac0af_0_node_2" d="M24,0L540,0" transform="matrix(1 0 0 1 0 0)"/><text class="node-label" transform="scale(1 1)" style="cursor: default; fill: rgb(42, 63, 95); text-shadow: rgb(255, 255, 255) -1px 1px 1px, rgb(255, 255, 255) 1px 1px 1px, rgb(255, 255, 255) 1px -1px 1px, rgb(255, 255, 255) -1px -1px 1px; font-family: 'Open Sans', verdana, arial, sans-serif; font-size: 10px; fill-opacity: 1;"><textPath class="node-label-text-path" alignment-baseline="middle" xlink:href="#1ac0af_0_node_2" startOffset="0%" text-anchor="start" style="fill: rgb(0, 0, 0);">A3</textPath></text></g></g><g class="sankey-node" transform="translate(173.333,150.667)" style="opacity: 1;"><rect class="node-rect" width="20" height="112.00000000000017" style="stroke-width: 0; stroke: rgb(128, 0, 128); stroke-opacity: 1; fill: rgb(171, 99, 250); fill-opacity: 0.8;"/><rect class="node-capture" x="-10" y="-10" width="40" height="132.00000000000017" style="fill-opacity: 0;"/><g class="node-entered" transform="translate(0,57.000000000000085)"><path class="node-label-guide" id="1ac0af_0_node_3" d="M24,0L540,0" transform="matrix(1 0 0 1 0 0)"/><text class="node-label" transform="scale(1 1)" style="cursor: default; fill: rgb(42, 63, 95); text-shadow: rgb(255, 255, 255) -1px 1px 1px, rgb(255, 255, 255) 1px 1px 1px, rgb(255, 255, 255) 1px -1px 1px, rgb(255, 255, 255) -1px -1px 1px; font-family: 'Open Sans', verdana, arial, sans-serif; font-size: 10px; fill-opacity: 1;"><textPath class="node-label-text-path" alignment-baseline="middle" xlink:href="#1ac0af_0_node_3" startOffset="0%" text-anchor="start" style="fill: rgb(0, 0, 0);">B1</textPath></text></g></g><g class="sankey-node" transform="translate(173.333,-0.000)" style="opacity: 1;"><rect class="node-rect" width="20" height="130.66666666666657" style="stroke-width: 0; stroke: rgb(128, 0, 128); stroke-opacity: 1; fill: rgb(255, 161, 90); fill-opacity: 0.8;"/><rect class="node-capture" x="-10" y="-10" width="40" height="150.66666666666657" style="fill-opacity: 0;"/><g class="node-entered" transform="translate(0,66.33333333333329)"><path class="node-label-guide" id="1ac0af_0_node_4" d="M24,0L540,0" transform="matrix(1 0 0 1 0 0)"/><text class="node-label" transform="scale(1 1)" style="cursor: default; fill: rgb(42, 63, 95); text-shadow: rgb(255, 255, 255) -1px 1px 1px, rgb(255, 255, 255) 1px 1px 1px, rgb(255, 255, 255) 1px -1px 1px, rgb(255, 255, 255) -1px -1px 1px; font-family: 'Open Sans', verdana, arial, sans-serif; font-size: 10px; fill-opacity: 1;"><textPath class="node-label-text-path" alignment-baseline="middle" xlink:href="#1ac0af_0_node_4" startOffset="0%" text-anchor="start" style="fill: rgb(0, 0, 0);">B2</textPath></text></g></g><g class="sankey-node" transform="translate(173.333,282.667)" style="opacity: 1;"><rect class="node-rect" width="20" height="37.33333333333343" style="stroke-width: 0; stroke: rgb(128, 0, 128); stroke-opacity: 1; fill: rgb(25, 211, 243); fill-opacity: 0.8;"/><rect class="node-capture" x="-10" y="-10" width="40" height="57.33333333333343" style="fill-opacity: 0;"/><g class="node-entered" transform="translate(0,19.666666666666714)"><path class="node-label-guide" id="1ac0af_0_node_5" d="M24,0L540,0" transform="matrix(1 0 0 1 0 0)"/><text class="node-label" transform="scale(1 1)" style="cursor: default; fill: rgb(42, 63, 95); text-shadow: rgb(255, 255, 255) -1px 1px 1px, rgb(255, 255, 255) 1px 1px 1px, rgb(255, 255, 255) 1px -1px 1px, rgb(255, 255, 255) -1px -1px 1px; font-family: 'Open Sans', verdana, arial, sans-serif; font-size: 10px; fill-opacity: 1;"><textPath class="node-label-text-path" alignment-baseline="middle" xlink:href="#1ac0af_0_node_5" startOffset="0%" text-anchor="start" style="fill: rgb(0, 0, 0);">B3</textPath></text></g></g><g class="sankey-node" transform="translate(346.667,292.000)" style="opacity: 1;"><rect class="node-rect" width="20" height="27.999999999999886" style="stroke-width: 0; stroke: rgb(128, 0, 128); stroke-opacity: 1; fill: rgb(255, 102, 146); fill-opacity: 0.8;"/><rect class="node-capture" x="-10" y="-10" width="40" height="47.999999999999886" style="fill-opacity: 0;"/><g class="node-entered" transform="translate(0,14.999999999999943)"><path class="node-label-guide" id="1ac0af_0_node_6" d="M24,0L540,0" transform="matrix(1 0 0 1 0 0)"/><text class="node-label" transform="scale(1 1)" style="cursor: default; fill: rgb(42, 63, 95); text-shadow: rgb(255, 255, 255) -1px 1px 1px, rgb(255, 255, 255) 1px 1px 1px, rgb(255, 255, 255) 1px -1px 1px, rgb(255, 255, 255) -1px -1px 1px; font-family: 'Open Sans', verdana, arial, sans-serif; font-size: 10px; fill-opacity: 1;"><textPath class="node-label-text-path" alignment-baseline="middle" xlink:href="#1ac0af_0_node_6" startOffset="0%" text-anchor="start" style="fill: rgb(0, 0, 0);">C1</textPath></text></g></g><g class="sankey-node" transform="translate(346.667,197.333)" style="opacity: 1;"><rect class="node-rect" width="20" height="74.66666666666697" style="stroke-width: 0; stroke: rgb(128, 0, 128); stroke-opacity: 1; fill: rgb(182, 232, 128); fill-opacity: 0.8;"/><rect class="node-capture" x="-10" y="-10" width="40" height="94.66666666666697" style="fill-opacity: 0;"/><g class="node-entered" transform="translate(0,38.333333333333485)"><path class="node-label-guide" id="1ac0af_0_node_7" d="M24,0L540,0" transform="matrix(1 0 0 1 0 0)"/><text class="node-label" transform="scale(1 1)" style="cursor: default; fill: rgb(42, 63, 95); text-shadow: rgb(255, 255, 255) -1px 1px 1px, rgb(255, 255, 255) 1px 1px 1px, rgb(255, 255, 255) 1px -1px 1px, rgb(255, 255, 255) -1px -1px 1px; font-family: 'Open Sans', verdana, arial, sans-serif; font-size: 10px; fill-opacity: 1;"><textPath class="node-label-text-path" alignment-baseline="middle" xlink:href="#1ac0af_0_node_7" startOffset="0%" text-anchor="start" style="fill: rgb(0, 0, 0);">C2</textPath></text></g></g><g class="sankey-node" transform="translate(346.667,-0.000)" style="opacity: 1;"><rect class="node-rect" width="20" height="177.33333333333337" style="stroke-width: 0; stroke: rgb(128, 0, 128); stroke-opacity: 1; fill: rgb(255, 151, 255); fill-opacity: 0.8;"/><rect class="node-capture" x="-10" y="-10" width="40" height="197.33333333333337" style="fill-opacity: 0;"/><g class="node-entered" transform="translate(0,89.66666666666669)"><path class="node-label-guide" id="1ac0af_0_node_8" d="M24,0L540,0" transform="matrix(1 0 0 1 0 0)"/><text class="node-label" transform="scale(1 1)" style="cursor: default; fill: rgb(42, 63, 95); text-shadow: rgb(255, 255, 255) -1px 1px 1px, rgb(255, 255, 255) 1px 1px 1px, rgb(255, 255, 255) 1px -1px 1px, rgb(255, 255, 255) -1px -1px 1px; font-family: 'Open Sans', verdana, arial, sans-serif; font-size: 10px; fill-opacity: 1;"><textPath class="node-label-text-path" alignment-baseline="middle" xlink:href="#1ac0af_0_node_8" startOffset="0%" text-anchor="start" style="fill: rgb(0, 0, 0);">C3</textPath></text></g></g><g class="sankey-node" transform="translate(520.000,0.000)" style="opacity: 1;"><rect class="node-rect" width="20" height="205.3333333333333" style="stroke-width: 0; stroke: rgb(128, 0, 128); stroke-opacity: 1; fill: rgb(254, 203, 82); fill-opacity: 0.8;"/><rect class="node-capture" x="-10" y="-10" width="40" height="225.3333333333333" style="fill-opacity: 0;"/><g class="node-entered" transform="translate(0,103.66666666666664)"><path class="node-label-guide" id="1ac0af_0_node_9" d="M-540,0L-4,0" transform="matrix(1 0 0 1 0 0)"/><text class="node-label" transform="scale(1 1)" style="cursor: default; fill: rgb(42, 63, 95); text-shadow: rgb(255, 255, 255) -1px 1px 1px, rgb(255, 255, 255) 1px 1px 1px, rgb(255, 255, 255) 1px -1px 1px, rgb(255, 255, 255) -1px -1px 1px; font-family: 'Open Sans', verdana, arial, sans-serif; font-size: 10px; fill-opacity: 1;"><textPath class="node-label-text-path" alignment-baseline="middle" xlink:href="#1ac0af_0_node_9" startOffset="100%" text-anchor="end" style="fill: rgb(0, 0, 0);">D1</textPath></text></g></g><g class="sankey-node" transform="translate(520.000,225.333)" style="opacity: 1;"><rect class="node-rect" width="20" height="37.33333333333317" style="stroke-width: 0; stroke: rgb(128, 0, 128); stroke-opacity: 1; fill: rgb(99, 110, 250); fill-opacity: 0.8;"/><rect class="node-capture" x="-10" y="-10" width="40" height="57.33333333333317" style="fill-opacity: 0;"/><g class="node-entered" transform="translate(0,19.666666666666586)"><path class="node-label-guide" id="1ac0af_0_node_10" d="M-540,0L-4,0" transform="matrix(1 0 0 1 0 0)"/><text class="node-label" transform="scale(1 1)" style="cursor: default; fill: rgb(42, 63, 95); text-shadow: rgb(255, 255, 255) -1px 1px 1px, rgb(255, 255, 255) 1px 1px 1px, rgb(255, 255, 255) 1px -1px 1px, rgb(255, 255, 255) -1px -1px 1px; font-family: 'Open Sans', verdana, arial, sans-serif; font-size: 10px; fill-opacity: 1;"><textPath class="node-label-text-path" alignment-baseline="middle" xlink:href="#1ac0af_0_node_10" startOffset="100%" text-anchor="end" style="fill: rgb(0, 0, 0);">D2</textPath></text></g></g><g class="sankey-node" transform="translate(520.000,282.667)" style="opacity: 1;"><rect class="node-rect" width="20" height="37.333333333333485" style="stroke-width: 0; stroke: rgb(128, 0, 128); stroke-opacity: 1; fill: rgb(239, 85, 59); fill-opacity: 0.8;"/><rect class="node-capture" x="-10" y="-10" width="40" height="57.333333333333485" style="fill-opacity: 0;"/><g class="node-entered" transform="translate(0,19.666666666666742)"><path class="node-label-guide" id="1ac0af_0_node_11" d="M-540,0L-4,0" transform="matrix(1 0 0 1 0 0)"/><text class="node-label" transform="scale(1 1)" style="cursor: default; fill: rgb(42, 63, 95); text-shadow: rgb(255, 255, 255) -1px 1px 1px, rgb(255, 255, 255) 1px 1px 1px, rgb(255, 255, 255) 1px -1px 1px, rgb(255, 255, 255) -1px -1px 1px; font-family: 'Open Sans', verdana, arial, sans-serif; font-size: 10px; fill-opacity: 1;"><textPath class="node-label-text-path" alignment-baseline="middle" xlink:href="#1ac0af_0_node_11" startOffset="100%" text-anchor="end" style="fill: rgb(0, 0, 0);">D3</textPath></text></g></g></g></g><defs id="topdefs-241f2d"><g class="clips"/></defs><g class="layer-above"><g class="imagelayer"/><g class="shapelayer"/></g><g class="infolayer"><g class="g-gtitle"><text class="gtitle" x="35" y="50" text-anchor="start" dy="0em" style="font-family: 'Open Sans', verdana, arial, sans-serif; font-size: 14px; fill: rgb(42, 63, 95); opacity: 1; font-weight: normal; white-space: pre;">Sankey Diagram 98</text></g><g class="first-render"/></g></svg>