<svg class="main-svg" xmlns="http://www.w3.org/2000/svg" xmlns:xlink="http://www.w3.org/1999/xlink" width="700" height="500" style="" viewBox="0 0 700 500"><rect x="0" y="0" width="700" height="500" style="fill: rgb(255, 255, 255); fill-opacity: 1;"/><defs id="defs-019e6c"><g class="clips"/><g class="gradients"/></defs><g class="bglayer"/><g class="layer-below"><g class="imagelayer"/><g class="shapelayer"/></g><g class="cartesianlayer"/><g class="polarlayer"/><g class="ternarylayer"/><g class="geolayer"/><g class="funnelarealayer"/><g class="pielayer"/><g class="treemaplayer"/><g class="sunburstlayer"/><g class="glimages"/><g class="sankey" transform="translate(80,100)matrix(1 0 0 1 0 0)" style="box-sizing: content-box; position: absolute; left: 0px; shape-rendering: geometricprecision; pointer-events: auto;"><g class="sankey-links" style="fill: none;"><path class="sankey-link" d="M20,301.7599999999999C75,301.7599999999999 75,301.76000000000005 130,301.76000000000005L130,320.00000000000006C75,320.00000000000006 75,319.9999999999999 20,319.9999999999999Z" style="stroke: rgb(68, 68, 68); stroke-opacity: 1; fill: rgb(0, 0, 0); fill-opacity: 0.2; stroke-width: 0; opacity: 1;"/><path class="sankey-link" d="M20,285.9199999999999C75,285.9199999999999 75,248.16000000000005 130,248.16000000000005L130,264.00000000000006C75,264.00000000000006 75,301.75999999999993 20,301.75999999999993Z" style="stroke: rgb(68, 68, 68); stroke-opacity: 1; fill: rgb(0, 0, 0); fill-opacity: 0.2; stroke-width: 0; opacity: 1;"/><path class="sankey-link" d="M20,271.9999999999999C75,271.9999999999999 75,136.15999999999974 130,136.15999999999974L130,141.91999999999973C75,141.91999999999973 75,277.7599999999999 20,277.7599999999999Z" style="stroke: rgb(68, 68, 68); stroke-opacity: 1; fill: rgb(0, 0, 0); fill-opacity: 0.2; stroke-width: 0; opacity: 1;"/><path class="sankey-link" d="M20,277.7599999999999C75,277.7599999999999 75,204.16 130,204.16L130,212.32000000000002C75,212.32000000000002 75,285.91999999999985 20,285.91999999999985Z" style="stroke: rgb(68, 68, 68); stroke-opacity: 1; fill: rgb(0, 0, 0); fill-opacity: 0.2; stroke-width: 0; opacity: 1;"/><path class="sankey-link" d="M20,67.99999999999989C75,67.99999999999989 75,25.91999999999976 130,25.91999999999976L130,39.83999999999976C75,39.83999999999976 75,81.91999999999987 20,81.91999999999987Z" style="stroke: rgb(68, 68, 68); stroke-opacity: 1; fill: rgb(0, 0, 0); fill-opacity: 0.2; stroke-width: 0; opacity: 1;"/><path class="sankey-link" d="M20,81.91999999999989C75,81.91999999999989 75,87.19999999999973 130,87.19999999999973L130,113.59999999999974C75,113.59999999999974 75,108.3199999999999 20,108.3199999999999Z" style="stroke: rgb(68, 68, 68); stroke-opacity: 1; fill: rgb(0, 0, 0); fill-opacity: 0.2; stroke-width: 0; opacity: 1;"/><path class="sankey-link" d="M20,108.31999999999988C75,108.31999999999988 75,289.28000000000003 130,289.28000000000003L130,296.96C75,296.96 75,115.99999999999989 20,115.99999999999989Z" style="stroke: rgb(68, 68, 68); stroke-opacity: 1; fill: rgb(0, 0, 0); fill-opacity: 0.2; stroke-width: 0; opacity: 1;"/><path class="sankey-link" d="M20,135.9999999999998C75,135.9999999999998 75,39.83999999999976 130,39.83999999999976L130,54.71999999999976C75,54.71999999999976 75,150.8799999999998 20,150.8799999999998Z" style="stroke: rgb(68, 68, 68); stroke-opacity: 1; fill: rgb(0, 0, 0); fill-opacity: 0.2; stroke-width: 0; opacity: 1;"/><path class="sankey-link" d="M20,163.3599999999998C75,163.3599999999998 75,167.68 130,167.68L130,188.32C75,188.32 75,183.99999999999977 20,183.99999999999977Z" style="stroke: rgb(68, 68, 68); stroke-opacity: 1; fill: rgb(0, 0, 0); fill-opacity: 0.2; stroke-width: 0; opacity: 1;"/><path class="sankey-link" d="M20,150.8799999999998C75,150.8799999999998 75,113.59999999999974 130,113.59999999999974L130,126.07999999999973C75,126.07999999999973 75,163.35999999999981 20,163.35999999999981Z" style="stroke: rgb(68, 68, 68); stroke-opacity: 1; fill: rgb(0, 0, 0); fill-opacity: 0.2; stroke-width: 0; opacity: 1;"/><path class="sankey-link" d="M20,-5.684341886080802e-14C75,-5.684341886080802e-14 75,-2.3447910280083306e-13 130,-2.3447910280083306e-13L130,25.919999999999764C75,25.919999999999764 75,25.91999999999994 20,25.91999999999994Z" style="stroke: rgb(68, 68, 68); stroke-opacity: 1; fill: rgb(0, 0, 0); fill-opacity: 0.2; stroke-width: 0; opacity: 1;"/><path class="sankey-link" d="M20,31.199999999999942C75,31.199999999999942 75,161.92000000000002 130,161.92000000000002L130,167.68C75,167.68 75,36.959999999999944 20,36.959999999999944Z" style="stroke: rgb(68, 68, 68); stroke-opacity: 1; fill: rgb(0, 0, 0); fill-opacity: 0.2; stroke-width: 0; opacity: 1;"/><path class="sankey-link" d="M20,36.95999999999994C75,36.95999999999994 75,232.32000000000005 130,232.32000000000005L130,238.08000000000004C75,238.08000000000004 75,42.71999999999994 20,42.71999999999994Z" style="stroke: rgb(68, 68, 68); stroke-opacity: 1; fill: rgb(0, 0, 0); fill-opacity: 0.2; stroke-width: 0; opacity: 1;"/><path class="sankey-link" d="M20,25.91999999999994C75,25.91999999999994 75,81.91999999999973 130,81.91999999999973L130,87.19999999999973C75,87.19999999999973 75,31.199999999999942 20,31.199999999999942Z" style="stroke: rgb(68, 68, 68); stroke-opacity: 1; fill: rgb(0, 0, 0); fill-opacity: 0.2; stroke-width: 0; opacity: 1;"/><path class="sankey-link" d="M20,42.719999999999935C75,42.719999999999935 75,284.00000000000006 130,284.00000000000006L130,289.28000000000003C75,289.28000000000003 75,47.999999999999936 20,47.999999999999936Z" style="stroke: rgb(68, 68, 68); stroke-opacity: 1; fill: rgb(0, 0, 0); fill-opacity: 0.2; stroke-width: 0; opacity: 1;"/><path class="sankey-link" d="M20,221.2799999999999C75,221.2799999999999 75,188.32 130,188.32L130,204.15999999999997C75,204.15999999999997 75,237.11999999999986 20,237.11999999999986Z" style="stroke: rgb(68, 68, 68); stroke-opacity: 1; fill: rgb(0, 0, 0); fill-opacity: 0.2; stroke-width: 0; opacity: 1;"/><path class="sankey-link" d="M20,211.19999999999987C75,211.19999999999987 75,126.07999999999974 130,126.07999999999974L130,136.15999999999974C75,136.15999999999974 75,221.27999999999986 20,221.27999999999986Z" style="stroke: rgb(68, 68, 68); stroke-opacity: 1; fill: rgb(0, 0, 0); fill-opacity: 0.2; stroke-width: 0; opacity: 1;"/><path class="sankey-link" d="M20,237.1199999999999C75,237.1199999999999 75,238.08000000000004 130,238.08000000000004L130,248.16000000000003C75,248.16000000000003 75,247.19999999999987 20,247.19999999999987Z" style="stroke: rgb(68, 68, 68); stroke-opacity: 1; fill: rgb(0, 0, 0); fill-opacity: 0.2; stroke-width: 0; opacity: 1;"/><path class="sankey-link" d="M20,203.9999999999999C75,203.9999999999999 75,54.71999999999976 130,54.71999999999976L130,61.91999999999976C75,61.91999999999976 75,211.19999999999987 20,211.19999999999987Z" style="stroke: rgb(68, 68, 68); stroke-opacity: 1; fill: rgb(0, 0, 0); fill-opacity: 0.2; stroke-width: 0; opacity: 1;"/><path class="sankey-link" d="M20,247.1999999999999C75,247.1999999999999 75,296.96000000000004 130,296.96000000000004L130,301.76C75,301.76 75,251.99999999999991 20,251.99999999999991Z" style="stroke: rgb(68, 68, 68); stroke-opacity: 1; fill: rgb(0, 0, 0); fill-opacity: 0.2; stroke-width: 0; opacity: 1;"/><path class="sankey-link" d="M150,81.91999999999973C205,81.91999999999973 205,133.60000000000014 260,133.60000000000014L260,193.60000000000014C205,193.60000000000014 205,141.91999999999973 150,141.91999999999973Z" style="stroke: rgb(68, 68, 68); stroke-opacity: 1; fill: rgb(0, 0, 0); fill-opacity: 0.2; stroke-width: 0; opacity: 1;"/><path class="sankey-link" d="M150,284.00000000000006C205,284.00000000000006 205,284.00000000000017 260,284.00000000000017L260,320.00000000000017C205,320.00000000000017 205,320.00000000000006 150,320.00000000000006Z" style="stroke: rgb(68, 68, 68); stroke-opacity: 1; fill: rgb(0, 0, 0); fill-opacity: 0.2; stroke-width: 0; opacity: 1;"/><path class="sankey-link" d="M150,161.92000000000002C205,161.92000000000002 205,213.60000000000002 260,213.60000000000002L260,264C205,264 205,212.32 150,212.32Z" style="stroke: rgb(68, 68, 68); stroke-opacity: 1; fill: rgb(0, 0, 0); fill-opacity: 0.2; stroke-width: 0; opacity: 1;"/><path class="sankey-link" d="M150,-2.3447910280083306e-13C205,-2.3447910280083306e-13 205,19.999999999999826 260,19.999999999999826L260,81.91999999999982C205,81.91999999999982 205,61.91999999999976 150,61.91999999999976Z" style="stroke: rgb(68, 68, 68); stroke-opacity: 1; fill: rgb(0, 0, 0); fill-opacity: 0.2; stroke-width: 0; opacity: 1;"/><path class="sankey-link" d="M150,232.32000000000005C205,232.32000000000005 205,81.91999999999982 260,81.91999999999982L260,113.59999999999982C205,113.59999999999982 205,264.00000000000006 150,264.00000000000006Z" style="stroke: rgb(68, 68, 68); stroke-opacity: 1; fill: rgb(0, 0, 0); fill-opacity: 0.2; stroke-width: 0; opacity: 1;"/><path class="sankey-link" d="M280,167.68000000000012C335,167.68000000000012 335,212.32000000000005 390,212.32000000000005L390,238.24000000000007C335,238.24000000000007 335,193.60000000000014 280,193.60000000000014Z" style="stroke: rgb(68, 68, 68); stroke-opacity: 1; fill: rgb(0, 0, 0); fill-opacity: 0.2; stroke-width: 0; opacity: 1;"/><path class="sankey-link" d="M280,133.60000000000014C335,133.60000000000014 335,63.84000000000004 390,63.84000000000004L390,97.92000000000004C335,97.92000000000004 335,167.68000000000012 280,167.68000000000012Z" style="stroke: rgb(68, 68, 68); stroke-opacity: 1; fill: rgb(0, 0, 0); fill-opacity: 0.2; stroke-width: 0; opacity: 1;"/><path class="sankey-link" d="M280,307.04000000000013C335,307.04000000000013 335,307.0400000000001 390,307.0400000000001L390,320.0000000000001C335,320.0000000000001 335,320.00000000000017 280,320.00000000000017Z" style="stroke: rgb(68, 68, 68); stroke-opacity: 1; fill: rgb(0, 0, 0); fill-opacity: 0.2; stroke-width: 0; opacity: 1;"/><path class="sankey-link" d="M280,284.00000000000017C335,284.00000000000017 335,177.92000000000013 390,177.92000000000013L390,192.3200000000001C335,192.3200000000001 335,298.40000000000015 280,298.40000000000015Z" style="stroke: rgb(68, 68, 68); stroke-opacity: 1; fill: rgb(0, 0, 0); fill-opacity: 0.2; stroke-width: 0; opacity: 1;"/><path class="sankey-link" d="M280,298.40000000000015C335,298.40000000000015 335,265.44000000000005 390,265.44000000000005L390,274.08000000000004C335,274.08000000000004 335,307.04000000000013 280,307.04000000000013Z" style="stroke: rgb(68, 68, 68); stroke-opacity: 1; fill: rgb(0, 0, 0); fill-opacity: 0.2; stroke-width: 0; opacity: 1;"/><path class="sankey-link" d="M280,227.04000000000002C335,227.04000000000002 335,161.12000000000012 390,161.12000000000012L390,177.92000000000013C335,177.92000000000013 335,243.84000000000003 280,243.84000000000003Z" style="stroke: rgb(68, 68, 68); stroke-opacity: 1; fill: rgb(0, 0, 0); fill-opacity: 0.2; stroke-width: 0; opacity: 1;"/><path class="sankey-link" d="M280,213.60000000000002C335,213.60000000000002 335,97.92000000000004 390,97.92000000000004L390,111.36000000000004C335,111.36000000000004 335,227.04000000000002 280,227.04000000000002Z" style="stroke: rgb(68, 68, 68); stroke-opacity: 1; fill: rgb(0, 0, 0); fill-opacity: 0.2; stroke-width: 0; opacity: 1;"/><path class="sankey-link" d="M280,243.84000000000003C335,243.84000000000003 335,258.24000000000007 390,258.24000000000007L390,265.4400000000001C335,265.4400000000001 335,251.04000000000002 280,251.04000000000002Z" style="stroke: rgb(68, 68, 68); stroke-opacity: 1; fill: rgb(0, 0, 0); fill-opacity: 0.2; stroke-width: 0; opacity: 1;"/><path class="sankey-link" d="M280,251.04000000000005C335,251.04000000000005 335,294.0800000000001 390,294.0800000000001L390,307.04000000000013C335,307.04000000000013 335,264.00000000000006 280,264.00000000000006Z" style="stroke: rgb(68, 68, 68); stroke-opacity: 1; fill: rgb(0, 0, 0); fill-opacity: 0.2; stroke-width: 0; opacity: 1;"/><path class="sankey-link" d="M280,19.999999999999833C335,19.999999999999833 335,4.263256414560601e-14 390,4.263256414560601e-14L390,63.84000000000004C335,63.84000000000004 335,83.83999999999983 280,83.83999999999983Z" style="stroke: rgb(68, 68, 68); stroke-opacity: 1; fill: rgb(0, 0, 0); fill-opacity: 0.2; stroke-width: 0; opacity: 1;"/><path class="sankey-link" d="M280,83.83999999999983C335,83.83999999999983 335,131.36000000000013 390,131.36000000000013L390,161.12000000000012C335,161.12000000000012 335,113.59999999999982 280,113.59999999999982Z" style="stroke: rgb(68, 68, 68); stroke-opacity: 1; fill: rgb(0, 0, 0); fill-opacity: 0.2; stroke-width: 0; opacity: 1;"/><path class="sankey-link" d="M410,258.24000000000007C465,258.24000000000007 465,164.95999999999998 520,164.95999999999998L520,172.15999999999997C465,172.15999999999997 465,265.4400000000001 410,265.4400000000001Z" style="stroke: rgb(68, 68, 68); stroke-opacity: 1; fill: rgb(0, 0, 0); fill-opacity: 0.2; stroke-width: 0; opacity: 1;"/><path class="sankey-link" d="M410,267.84000000000003C465,267.84000000000003 465,305.6000000000001 520,305.6000000000001L520,311.8400000000001C465,311.8400000000001 465,274.08000000000004 410,274.08000000000004Z" style="stroke: rgb(68, 68, 68); stroke-opacity: 1; fill: rgb(0, 0, 0); fill-opacity: 0.2; stroke-width: 0; opacity: 1;"/><path class="sankey-link" d="M410,265.44000000000005C465,265.44000000000005 465,263.04 520,263.04L520,265.44C465,265.44 465,267.84000000000003 410,267.84000000000003Z" style="stroke: rgb(68, 68, 68); stroke-opacity: 1; fill: rgb(0, 0, 0); fill-opacity: 0.2; stroke-width: 0; opacity: 1;"/><path class="sankey-link" d="M410,131.36000000000013C465,131.36000000000013 465,56.63999999999988 520,56.63999999999988L520,81.11999999999988C465,81.11999999999988 465,155.84000000000015 410,155.84000000000015Z" style="stroke: rgb(68, 68, 68); stroke-opacity: 1; fill: rgb(0, 0, 0); fill-opacity: 0.2; stroke-width: 0; opacity: 1;"/><path class="sankey-link" d="M410,155.84000000000012C465,155.84000000000012 465,192.16000000000003 520,192.16000000000003L520,228.64000000000004C465,228.64000000000004 465,192.32000000000014 410,192.32000000000014Z" style="stroke: rgb(68, 68, 68); stroke-opacity: 1; fill: rgb(0, 0, 0); fill-opacity: 0.2; stroke-width: 0; opacity: 1;"/><path class="sankey-link" d="M410,224.32000000000005C465,224.32000000000005 465,251.52000000000004 520,251.52000000000004L520,263.04C465,263.04 465,235.84000000000003 410,235.84000000000003Z" style="stroke: rgb(68, 68, 68); stroke-opacity: 1; fill: rgb(0, 0, 0); fill-opacity: 0.2; stroke-width: 0; opacity: 1;"/><path class="sankey-link" d="M410,212.32000000000005C465,212.32000000000005 465,81.11999999999989 520,81.11999999999989L520,87.83999999999989C465,87.83999999999989 465,219.04000000000008 410,219.04000000000008Z" style="stroke: rgb(68, 68, 68); stroke-opacity: 1; fill: rgb(0, 0, 0); fill-opacity: 0.2; stroke-width: 0; opacity: 1;"/><path class="sankey-link" d="M410,219.04000000000005C465,219.04000000000005 465,162.55999999999997 520,162.55999999999997L520,164.95999999999995C465,164.95999999999995 465,221.44000000000003 410,221.44000000000003Z" style="stroke: rgb(68, 68, 68); stroke-opacity: 1; fill: rgb(0, 0, 0); fill-opacity: 0.2; stroke-width: 0; opacity: 1;"/><path class="sankey-link" d="M410,221.44000000000005C465,221.44000000000005 465,228.64000000000001 520,228.64000000000001L520,231.52C465,231.52 465,224.32000000000005 410,224.32000000000005Z" style="stroke: rgb(68, 68, 68); stroke-opacity: 1; fill: rgb(0, 0, 0); fill-opacity: 0.2; stroke-width: 0; opacity: 1;"/><path class="sankey-link" d="M410,235.84000000000006C465,235.84000000000006 465,303.2000000000001 520,303.2000000000001L520,305.6000000000001C465,305.6000000000001 465,238.24000000000004 410,238.24000000000004Z" style="stroke: rgb(68, 68, 68); stroke-opacity: 1; fill: rgb(0, 0, 0); fill-opacity: 0.2; stroke-width: 0; opacity: 1;"/><path class="sankey-link" d="M410,4.263256414560601e-14C465,4.263256414560601e-14 465,-1.1368683772161603e-13 520,-1.1368683772161603e-13L520,56.63999999999989C465,56.63999999999989 465,56.64000000000004 410,56.64000000000004Z" style="stroke: rgb(68, 68, 68); stroke-opacity: 1; fill: rgb(0, 0, 0); fill-opacity: 0.2; stroke-width: 0; opacity: 1;"/><path class="sankey-link" d="M410,56.64000000000004C465,56.64000000000004 465,107.83999999999999 520,107.83999999999999L520,162.56C465,162.56 465,111.36000000000004 410,111.36000000000004Z" style="stroke: rgb(68, 68, 68); stroke-opacity: 1; fill: rgb(0, 0, 0); fill-opacity: 0.2; stroke-width: 0; opacity: 1;"/><path class="sankey-link" d="M410,294.0800000000001C465,294.0800000000001 465,265.44 520,265.44L520,283.2C465,283.2 465,311.8400000000001 410,311.8400000000001Z" style="stroke: rgb(68, 68, 68); stroke-opacity: 1; fill: rgb(0, 0, 0); fill-opacity: 0.2; stroke-width: 0; opacity: 1;"/><path class="sankey-link" d="M410,311.8400000000001C465,311.8400000000001 465,311.8400000000001 520,311.8400000000001L520,320.00000000000006C465,320.00000000000006 465,320.00000000000006 410,320.00000000000006Z" style="stroke: rgb(68, 68, 68); stroke-opacity: 1; fill: rgb(0, 0, 0); fill-opacity: 0.2; stroke-width: 0; opacity: 1;"/></g><g class="sankey-node-set" style="cursor: move;"><g class="sankey-node" transform="translate(0.000,272.000)" style="opacity: 1;"><rect class="node-rect" width="20" height="48.000000000000114" style="stroke-width: 0; stroke: rgb(128, 0, 128); stroke-opacity: 1; fill: rgb(87, 74, 226); fill-opacity: 1;"/><rect class="node-capture" x="-10" y="-10" width="40" height="68.00000000000011" style="fill-opacity: 0;"/><g class="node-entered" transform="translate(0,25.000000000000057)"><path class="node-label-guide" id="3e0d88_0_node_0" d="M24,0L540,0" transform="matrix(1 0 0 1 0 0)"/><text class="node-label" transform="scale(1 1)" style="cursor: default; fill: rgb(42, 63, 95); text-shadow: rgb(255, 255, 255) -1px 1px 1px, rgb(255, 255, 255) 1px 1px 1px, rgb(255, 255, 255) 1px -1px 1px, rgb(255, 255, 255) -1px -1px 1px; font-family: 'Open Sans', verdana, arial, sans-serif; font-size: 10px; fill-opacity: 1;"><textPath class="node-label-text-path" alignment-baseline="middle" xlink:href="#3e0d88_0_node_0" startOffset="0%" text-anchor="start" style="fill: rgb(0, 0, 0);">A1</textPath></text></g></g><g class="sankey-node" transform="translate(0.000,68.000)" style="opacity: 1;"><rect class="node-rect" width="20" height="47.999999999999915" style="stroke-width: 0; stroke: rgb(128, 0, 128); stroke-opacity: 1; fill: rgb(87, 74, 226); fill-opacity: 1;"/><rect class="node-capture" x="-10" y="-10" width="40" height="67.99999999999991" style="fill-opacity: 0;"/><g class="node-entered" transform="translate(0,24.999999999999957)"><path class="node-label-guide" id="3e0d88_0_node_1" d="M24,0L540,0" transform="matrix(1 0 0 1 0 0)"/><text class="node-label" transform="scale(1 1)" style="cursor: default; fill: rgb(42, 63, 95); text-shadow: rgb(255, 255, 255) -1px 1px 1px, rgb(255, 255, 255) 1px 1px 1px, rgb(255, 255, 255) 1px -1px 1px, rgb(255, 255, 255) -1px -1px 1px; font-family: 'Open Sans', verdana, arial, sans-serif; font-size: 10px; fill-opacity: 1;"><textPath class="node-label-text-path" alignment-baseline="middle" xlink:href="#3e0d88_0_node_1" startOffset="0%" text-anchor="start" style="fill: rgb(0, 0, 0);">A2</textPath></text></g></g><g class="sankey-node" transform="translate(0.000,136.000)" style="opacity: 1;"><rect class="node-rect" width="20" height="48.000000000000085" style="stroke-width: 0; stroke: rgb(128, 0, 128); stroke-opacity: 1; fill: rgb(87, 74, 226); fill-opacity: 1;"/><rect class="node-capture" x="-10" y="-10" width="40" height="68.00000000000009" style="fill-opacity: 0;"/><g class="node-entered" transform="translate(0,25.000000000000043)"><path class="node-label-guide" id="3e0d88_0_node_2" d="M24,0L540,0" transform="matrix(1 0 0 1 0 0)"/><text class="node-label" transform="scale(1 1)" style="cursor: default; fill: rgb(42, 63, 95); text-shadow: rgb(255, 255, 255) -1px 1px 1px, rgb(255, 255, 255) 1px 1px 1px, rgb(255, 255, 255) 1px -1px 1px, rgb(255, 255, 255) -1px -1px 1px; font-family: 'Open Sans', verdana, arial, sans-serif; font-size: 10px; fill-opacity: 1;"><textPath class="node-label-text-path" alignment-baseline="middle" xlink:href="#3e0d88_0_node_2" startOffset="0%" text-anchor="start" style="fill: rgb(0, 0, 0);">A3</textPath></text></g></g><g class="sankey-node" transform="translate(0.000,-0.000)" style="opacity: 1;"><rect class="node-rect" width="20" height="47.999999999999936" style="stroke-width: 0; stroke: rgb(128, 0, 128); stroke-opacity: 1; fill: rgb(87, 74, 226); fill-opacity: 1;"/><rect class="node-capture" x="-10" y="-10" width="40" height="67.99999999999994" style="fill-opacity: 0;"/><g class="node-entered" transform="translate(0,24.999999999999968)"><path class="node-label-guide" id="3e0d88_0_node_3" d="M24,0L540,0" transform="matrix(1 0 0 1 0 0)"/><text class="node-label" transform="scale(1 1)" style="cursor: default; fill: rgb(42, 63, 95); text-shadow: rgb(255, 255, 255) -1px 1px 1px, rgb(255, 255, 255) 1px 1px 1px, rgb(255, 255, 255) 1px -1px 1px, rgb(255, 255, 255) -1px -1px 1px; font-family: 'Open Sans', verdana, arial, sans-serif; font-size: 10px; fill-opacity: 1;"><textPath class="node-label-text-path" alignment-baseline="middle" xlink:href="#3e0d88_0_node_3" startOffset="0%" text-anchor="start" style="fill: rgb(0, 0, 0);">A4</textPath></text></g></g><g class="sankey-node" transform="translate(0.000,204.000)" style="opacity: 1;"><rect class="node-rect" width="20" height="48" style="stroke-width: 0; stroke: rgb(128, 0, 128); stroke-opacity: 1; fill: rgb(87, 74, 226); fill-opacity: 1;"/><rect class="node-capture" x="-10" y="-10" width="40" height="68" style="fill-opacity: 0;"/><g class="node-entered" transform="translate(0,25)"><path class="node-label-guide" id="3e0d88_0_node_4" d="M24,0L540,0" transform="matrix(1 0 0 1 0 0)"/><text class="node-label" transform="scale(1 1)" style="cursor: default; fill: rgb(42, 63, 95); text-shadow: rgb(255, 255, 255) -1px 1px 1px, rgb(255, 255, 255) 1px 1px 1px, rgb(255, 255, 255) 1px -1px 1px, rgb(255, 255, 255) -1px -1px 1px; font-family: 'Open Sans', verdana, arial, sans-serif; font-size: 10px; fill-opacity: 1;"><textPath class="node-label-text-path" alignment-baseline="middle" xlink:href="#3e0d88_0_node_4" startOffset="0%" text-anchor="start" style="fill: rgb(0, 0, 0);">A5</textPath></text></g></g><g class="sankey-node" transform="translate(130.000,81.920)" style="opacity: 1;"><rect class="node-rect" width="20" height="60.000000000000284" style="stroke-width: 0; stroke: rgb(128, 0, 128); stroke-opacity: 1; fill: rgb(87, 74, 226); fill-opacity: 1;"/><rect class="node-capture" x="-10" y="-10" width="40" height="80.00000000000028" style="fill-opacity: 0;"/><g class="node-entered" transform="translate(0,31.000000000000142)"><path class="node-label-guide" id="3e0d88_0_node_5" d="M24,0L540,0" transform="matrix(1 0 0 1 0 0)"/><text class="node-label" transform="scale(1 1)" style="cursor: default; fill: rgb(42, 63, 95); text-shadow: rgb(255, 255, 255) -1px 1px 1px, rgb(255, 255, 255) 1px 1px 1px, rgb(255, 255, 255) 1px -1px 1px, rgb(255, 255, 255) -1px -1px 1px; font-family: 'Open Sans', verdana, arial, sans-serif; font-size: 10px; fill-opacity: 1;"><textPath class="node-label-text-path" alignment-baseline="middle" xlink:href="#3e0d88_0_node_5" startOffset="0%" text-anchor="start" style="fill: rgb(0, 0, 0);">B1</textPath></text></g></g><g class="sankey-node" transform="translate(130.000,284.000)" style="opacity: 1;"><rect class="node-rect" width="20" height="35.99999999999994" style="stroke-width: 0; stroke: rgb(128, 0, 128); stroke-opacity: 1; fill: rgb(87, 74, 226); fill-opacity: 1;"/><rect class="node-capture" x="-10" y="-10" width="40" height="55.99999999999994" style="fill-opacity: 0;"/><g class="node-entered" transform="translate(0,18.99999999999997)"><path class="node-label-guide" id="3e0d88_0_node_6" d="M24,0L540,0" transform="matrix(1 0 0 1 0 0)"/><text class="node-label" transform="scale(1 1)" style="cursor: default; fill: rgb(42, 63, 95); text-shadow: rgb(255, 255, 255) -1px 1px 1px, rgb(255, 255, 255) 1px 1px 1px, rgb(255, 255, 255) 1px -1px 1px, rgb(255, 255, 255) -1px -1px 1px; font-family: 'Open Sans', verdana, arial, sans-serif; font-size: 10px; fill-opacity: 1;"><textPath class="node-label-text-path" alignment-baseline="middle" xlink:href="#3e0d88_0_node_6" startOffset="0%" text-anchor="start" style="fill: rgb(0, 0, 0);">B2</textPath></text></g></g><g class="sankey-node" transform="translate(130.000,161.920)" style="opacity: 1;"><rect class="node-rect" width="20" height="50.400000000000034" style="stroke-width: 0; stroke: rgb(128, 0, 128); stroke-opacity: 1; fill: rgb(87, 74, 226); fill-opacity: 1;"/><rect class="node-capture" x="-10" y="-10" width="40" height="70.40000000000003" style="fill-opacity: 0;"/><g class="node-entered" transform="translate(0,26.200000000000017)"><path class="node-label-guide" id="3e0d88_0_node_7" d="M24,0L540,0" transform="matrix(1 0 0 1 0 0)"/><text class="node-label" transform="scale(1 1)" style="cursor: default; fill: rgb(42, 63, 95); text-shadow: rgb(255, 255, 255) -1px 1px 1px, rgb(255, 255, 255) 1px 1px 1px, rgb(255, 255, 255) 1px -1px 1px, rgb(255, 255, 255) -1px -1px 1px; font-family: 'Open Sans', verdana, arial, sans-serif; font-size: 10px; fill-opacity: 1;"><textPath class="node-label-text-path" alignment-baseline="middle" xlink:href="#3e0d88_0_node_7" startOffset="0%" text-anchor="start" style="fill: rgb(0, 0, 0);">B3</textPath></text></g></g><g class="sankey-node" transform="translate(130.000,-0.000)" style="opacity: 1;"><rect class="node-rect" width="20" height="61.919999999999966" style="stroke-width: 0; stroke: rgb(128, 0, 128); stroke-opacity: 1; fill: rgb(87, 74, 226); fill-opacity: 1;"/><rect class="node-capture" x="-10" y="-10" width="40" height="81.91999999999996" style="fill-opacity: 0;"/><g class="node-entered" transform="translate(0,31.959999999999983)"><path class="node-label-guide" id="3e0d88_0_node_8" d="M24,0L540,0" transform="matrix(1 0 0 1 0 0)"/><text class="node-label" transform="scale(1 1)" style="cursor: default; fill: rgb(42, 63, 95); text-shadow: rgb(255, 255, 255) -1px 1px 1px, rgb(255, 255, 255) 1px 1px 1px, rgb(255, 255, 255) 1px -1px 1px, rgb(255, 255, 255) -1px -1px 1px; font-family: 'Open Sans', verdana, arial, sans-serif; font-size: 10px; fill-opacity: 1;"><textPath class="node-label-text-path" alignment-baseline="middle" xlink:href="#3e0d88_0_node_8" startOffset="0%" text-anchor="start" style="fill: rgb(0, 0, 0);">B4</textPath></text></g></g><g class="sankey-node" transform="translate(130.000,232.320)" style="opacity: 1;"><rect class="node-rect" width="20" height="31.680000000000007" style="stroke-width: 0; stroke: rgb(128, 0, 128); stroke-opacity: 1; fill: rgb(87, 74, 226); fill-opacity: 1;"/><rect class="node-capture" x="-10" y="-10" width="40" height="51.68000000000001" style="fill-opacity: 0;"/><g class="node-entered" transform="translate(0,16.840000000000003)"><path class="node-label-guide" id="3e0d88_0_node_9" d="M24,0L540,0" transform="matrix(1 0 0 1 0 0)"/><text class="node-label" transform="scale(1 1)" style="cursor: default; fill: rgb(42, 63, 95); text-shadow: rgb(255, 255, 255) -1px 1px 1px, rgb(255, 255, 255) 1px 1px 1px, rgb(255, 255, 255) 1px -1px 1px, rgb(255, 255, 255) -1px -1px 1px; font-family: 'Open Sans', verdana, arial, sans-serif; font-size: 10px; fill-opacity: 1;"><textPath class="node-label-text-path" alignment-baseline="middle" xlink:href="#3e0d88_0_node_9" startOffset="0%" text-anchor="start" style="fill: rgb(0, 0, 0);">B5</textPath></text></g></g><g class="sankey-node" transform="translate(260.000,133.600)" style="opacity: 1;"><rect class="node-rect" width="20" height="59.999999999999886" style="stroke-width: 0; stroke: rgb(128, 0, 128); stroke-opacity: 1; fill: rgb(87, 74, 226); fill-opacity: 1;"/><rect class="node-capture" x="-10" y="-10" width="40" height="79.99999999999989" style="fill-opacity: 0;"/><g class="node-entered" transform="translate(0,30.999999999999943)"><path class="node-label-guide" id="3e0d88_0_node_10" d="M24,0L540,0" transform="matrix(1 0 0 1 0 0)"/><text class="node-label" transform="scale(1 1)" style="cursor: default; fill: rgb(42, 63, 95); text-shadow: rgb(255, 255, 255) -1px 1px 1px, rgb(255, 255, 255) 1px 1px 1px, rgb(255, 255, 255) 1px -1px 1px, rgb(255, 255, 255) -1px -1px 1px; font-family: 'Open Sans', verdana, arial, sans-serif; font-size: 10px; fill-opacity: 1;"><textPath class="node-label-text-path" alignment-baseline="middle" xlink:href="#3e0d88_0_node_10" startOffset="0%" text-anchor="start" style="fill: rgb(0, 0, 0);">C1</textPath></text></g></g><g class="sankey-node" transform="translate(260.000,284.000)" style="opacity: 1;"><rect class="node-rect" width="20" height="35.99999999999983" style="stroke-width: 0; stroke: rgb(128, 0, 128); stroke-opacity: 1; fill: rgb(87, 74, 226); fill-opacity: 1;"/><rect class="node-capture" x="-10" y="-10" width="40" height="55.99999999999983" style="fill-opacity: 0;"/><g class="node-entered" transform="translate(0,18.999999999999915)"><path class="node-label-guide" id="3e0d88_0_node_11" d="M24,0L540,0" transform="matrix(1 0 0 1 0 0)"/><text class="node-label" transform="scale(1 1)" style="cursor: default; fill: rgb(42, 63, 95); text-shadow: rgb(255, 255, 255) -1px 1px 1px, rgb(255, 255, 255) 1px 1px 1px, rgb(255, 255, 255) 1px -1px 1px, rgb(255, 255, 255) -1px -1px 1px; font-family: 'Open Sans', verdana, arial, sans-serif; font-size: 10px; fill-opacity: 1;"><textPath class="node-label-text-path" alignment-baseline="middle" xlink:href="#3e0d88_0_node_11" startOffset="0%" text-anchor="start" style="fill: rgb(0, 0, 0);">C2</textPath></text></g></g><g class="sankey-node" transform="translate(260.000,213.600)" style="opacity: 1;"><rect class="node-rect" width="20" height="50.40000000000015" style="stroke-width: 0; stroke: rgb(128, 0, 128); stroke-opacity: 1; fill: rgb(87, 74, 226); fill-opacity: 1;"/><rect class="node-capture" x="-10" y="-10" width="40" height="70.40000000000015" style="fill-opacity: 0;"/><g class="node-entered" transform="translate(0,26.200000000000074)"><path class="node-label-guide" id="3e0d88_0_node_12" d="M24,0L540,0" transform="matrix(1 0 0 1 0 0)"/><text class="node-label" transform="scale(1 1)" style="cursor: default; fill: rgb(42, 63, 95); text-shadow: rgb(255, 255, 255) -1px 1px 1px, rgb(255, 255, 255) 1px 1px 1px, rgb(255, 255, 255) 1px -1px 1px, rgb(255, 255, 255) -1px -1px 1px; font-family: 'Open Sans', verdana, arial, sans-serif; font-size: 10px; fill-opacity: 1;"><textPath class="node-label-text-path" alignment-baseline="middle" xlink:href="#3e0d88_0_node_12" startOffset="0%" text-anchor="start" style="fill: rgb(0, 0, 0);">C3</textPath></text></g></g><g class="sankey-node" transform="translate(260.000,20.000)" style="opacity: 1;"><rect class="node-rect" width="20" height="93.6000000000003" style="stroke-width: 0; stroke: rgb(128, 0, 128); stroke-opacity: 1; fill: rgb(87, 74, 226); fill-opacity: 1;"/><rect class="node-capture" x="-10" y="-10" width="40" height="113.6000000000003" style="fill-opacity: 0;"/><g class="node-entered" transform="translate(0,47.80000000000015)"><path class="node-label-guide" id="3e0d88_0_node_13" d="M24,0L540,0" transform="matrix(1 0 0 1 0 0)"/><text class="node-label" transform="scale(1 1)" style="cursor: default; fill: rgb(42, 63, 95); text-shadow: rgb(255, 255, 255) -1px 1px 1px, rgb(255, 255, 255) 1px 1px 1px, rgb(255, 255, 255) 1px -1px 1px, rgb(255, 255, 255) -1px -1px 1px; font-family: 'Open Sans', verdana, arial, sans-serif; font-size: 10px; fill-opacity: 1;"><textPath class="node-label-text-path" alignment-baseline="middle" xlink:href="#3e0d88_0_node_13" startOffset="0%" text-anchor="start" style="fill: rgb(0, 0, 0);">C4</textPath></text></g></g><g class="sankey-node" transform="translate(390.000,258.240)" style="opacity: 1;"><rect class="node-rect" width="20" height="15.840000000000032" style="stroke-width: 0; stroke: rgb(128, 0, 128); stroke-opacity: 1; fill: rgb(87, 74, 226); fill-opacity: 1;"/><rect class="node-capture" x="-10" y="-10" width="40" height="35.84000000000003" style="fill-opacity: 0;"/><g class="node-entered" transform="translate(0,8.920000000000016)"><path class="node-label-guide" id="3e0d88_0_node_14" d="M24,0L540,0" transform="matrix(1 0 0 1 0 0)"/><text class="node-label" transform="scale(1 1)" style="cursor: default; fill: rgb(42, 63, 95); text-shadow: rgb(255, 255, 255) -1px 1px 1px, rgb(255, 255, 255) 1px 1px 1px, rgb(255, 255, 255) 1px -1px 1px, rgb(255, 255, 255) -1px -1px 1px; font-family: 'Open Sans', verdana, arial, sans-serif; font-size: 10px; fill-opacity: 1;"><textPath class="node-label-text-path" alignment-baseline="middle" xlink:href="#3e0d88_0_node_14" startOffset="0%" text-anchor="start" style="fill: rgb(0, 0, 0);">D1</textPath></text></g></g><g class="sankey-node" transform="translate(390.000,131.360)" style="opacity: 1;"><rect class="node-rect" width="20" height="60.95999999999992" style="stroke-width: 0; stroke: rgb(128, 0, 128); stroke-opacity: 1; fill: rgb(87, 74, 226); fill-opacity: 1;"/><rect class="node-capture" x="-10" y="-10" width="40" height="80.95999999999992" style="fill-opacity: 0;"/><g class="node-entered" transform="translate(0,31.47999999999996)"><path class="node-label-guide" id="3e0d88_0_node_15" d="M24,0L540,0" transform="matrix(1 0 0 1 0 0)"/><text class="node-label" transform="scale(1 1)" style="cursor: default; fill: rgb(42, 63, 95); text-shadow: rgb(255, 255, 255) -1px 1px 1px, rgb(255, 255, 255) 1px 1px 1px, rgb(255, 255, 255) 1px -1px 1px, rgb(255, 255, 255) -1px -1px 1px; font-family: 'Open Sans', verdana, arial, sans-serif; font-size: 10px; fill-opacity: 1;"><textPath class="node-label-text-path" alignment-baseline="middle" xlink:href="#3e0d88_0_node_15" startOffset="0%" text-anchor="start" style="fill: rgb(0, 0, 0);">D2</textPath></text></g></g><g class="sankey-node" transform="translate(390.000,212.320)" style="opacity: 1;"><rect class="node-rect" width="20" height="25.920000000000016" style="stroke-width: 0; stroke: rgb(128, 0, 128); stroke-opacity: 1; fill: rgb(87, 74, 226); fill-opacity: 1;"/><rect class="node-capture" x="-10" y="-10" width="40" height="45.920000000000016" style="fill-opacity: 0;"/><g class="node-entered" transform="translate(0,13.960000000000008)"><path class="node-label-guide" id="3e0d88_0_node_16" d="M24,0L540,0" transform="matrix(1 0 0 1 0 0)"/><text class="node-label" transform="scale(1 1)" style="cursor: default; fill: rgb(42, 63, 95); text-shadow: rgb(255, 255, 255) -1px 1px 1px, rgb(255, 255, 255) 1px 1px 1px, rgb(255, 255, 255) 1px -1px 1px, rgb(255, 255, 255) -1px -1px 1px; font-family: 'Open Sans', verdana, arial, sans-serif; font-size: 10px; fill-opacity: 1;"><textPath class="node-label-text-path" alignment-baseline="middle" xlink:href="#3e0d88_0_node_16" startOffset="0%" text-anchor="start" style="fill: rgb(0, 0, 0);">D3</textPath></text></g></g><g class="sankey-node" transform="translate(390.000,0.000)" style="opacity: 1;"><rect class="node-rect" width="20" height="111.36000000000008" style="stroke-width: 0; stroke: rgb(128, 0, 128); stroke-opacity: 1; fill: rgb(87, 74, 226); fill-opacity: 1;"/><rect class="node-capture" x="-10" y="-10" width="40" height="131.36000000000007" style="fill-opacity: 0;"/><g class="node-entered" transform="translate(0,56.68000000000004)"><path class="node-label-guide" id="3e0d88_0_node_17" d="M24,0L540,0" transform="matrix(1 0 0 1 0 0)"/><text class="node-label" transform="scale(1 1)" style="cursor: default; fill: rgb(42, 63, 95); text-shadow: rgb(255, 255, 255) -1px 1px 1px, rgb(255, 255, 255) 1px 1px 1px, rgb(255, 255, 255) 1px -1px 1px, rgb(255, 255, 255) -1px -1px 1px; font-family: 'Open Sans', verdana, arial, sans-serif; font-size: 10px; fill-opacity: 1;"><textPath class="node-label-text-path" alignment-baseline="middle" xlink:href="#3e0d88_0_node_17" startOffset="0%" text-anchor="start" style="fill: rgb(0, 0, 0);">D4</textPath></text></g></g><g class="sankey-node" transform="translate(390.000,294.080)" style="opacity: 1;"><rect class="node-rect" width="20" height="25.919999999999902" style="stroke-width: 0; stroke: rgb(128, 0, 128); stroke-opacity: 1; fill: rgb(87, 74, 226); fill-opacity: 1;"/><rect class="node-capture" x="-10" y="-10" width="40" height="45.9199999999999" style="fill-opacity: 0;"/><g class="node-entered" transform="translate(0,13.959999999999951)"><path class="node-label-guide" id="3e0d88_0_node_18" d="M24,0L540,0" transform="matrix(1 0 0 1 0 0)"/><text class="node-label" transform="scale(1 1)" style="cursor: default; fill: rgb(42, 63, 95); text-shadow: rgb(255, 255, 255) -1px 1px 1px, rgb(255, 255, 255) 1px 1px 1px, rgb(255, 255, 255) 1px -1px 1px, rgb(255, 255, 255) -1px -1px 1px; font-family: 'Open Sans', verdana, arial, sans-serif; font-size: 10px; fill-opacity: 1;"><textPath class="node-label-text-path" alignment-baseline="middle" xlink:href="#3e0d88_0_node_18" startOffset="0%" text-anchor="start" style="fill: rgb(0, 0, 0);">D5</textPath></text></g></g><g class="sankey-node" transform="translate(520.000,251.520)" style="opacity: 1;"><rect class="node-rect" width="20" height="31.680000000000064" style="stroke-width: 0; stroke: rgb(128, 0, 128); stroke-opacity: 1; fill: rgb(87, 74, 226); fill-opacity: 1;"/><rect class="node-capture" x="-10" y="-10" width="40" height="51.680000000000064" style="fill-opacity: 0;"/><g class="node-entered" transform="translate(0,16.840000000000032)"><path class="node-label-guide" id="3e0d88_0_node_19" d="M-540,0L-4,0" transform="matrix(1 0 0 1 0 0)"/><text class="node-label" transform="scale(1 1)" style="cursor: default; fill: rgb(42, 63, 95); text-shadow: rgb(255, 255, 255) -1px 1px 1px, rgb(255, 255, 255) 1px 1px 1px, rgb(255, 255, 255) 1px -1px 1px, rgb(255, 255, 255) -1px -1px 1px; font-family: 'Open Sans', verdana, arial, sans-serif; font-size: 10px; fill-opacity: 1;"><textPath class="node-label-text-path" alignment-baseline="middle" xlink:href="#3e0d88_0_node_19" startOffset="100%" text-anchor="end" style="fill: rgb(0, 0, 0);">E1</textPath></text></g></g><g class="sankey-node" transform="translate(520.000,192.160)" style="opacity: 1;"><rect class="node-rect" width="20" height="39.360000000000014" style="stroke-width: 0; stroke: rgb(128, 0, 128); stroke-opacity: 1; fill: rgb(87, 74, 226); fill-opacity: 1;"/><rect class="node-capture" x="-10" y="-10" width="40" height="59.360000000000014" style="fill-opacity: 0;"/><g class="node-entered" transform="translate(0,20.680000000000007)"><path class="node-label-guide" id="3e0d88_0_node_20" d="M-540,0L-4,0" transform="matrix(1 0 0 1 0 0)"/><text class="node-label" transform="scale(1 1)" style="cursor: default; fill: rgb(42, 63, 95); text-shadow: rgb(255, 255, 255) -1px 1px 1px, rgb(255, 255, 255) 1px 1px 1px, rgb(255, 255, 255) 1px -1px 1px, rgb(255, 255, 255) -1px -1px 1px; font-family: 'Open Sans', verdana, arial, sans-serif; font-size: 10px; fill-opacity: 1;"><textPath class="node-label-text-path" alignment-baseline="middle" xlink:href="#3e0d88_0_node_20" startOffset="100%" text-anchor="end" style="fill: rgb(0, 0, 0);">E2</textPath></text></g></g><g class="sankey-node" transform="translate(520.000,-0.000)" style="opacity: 1;"><rect class="node-rect" width="20" height="87.84000000000009" style="stroke-width: 0; stroke: rgb(128, 0, 128); stroke-opacity: 1; fill: rgb(87, 74, 226); fill-opacity: 1;"/><rect class="node-capture" x="-10" y="-10" width="40" height="107.84000000000009" style="fill-opacity: 0;"/><g class="node-entered" transform="translate(0,44.920000000000044)"><path class="node-label-guide" id="3e0d88_0_node_21" d="M-540,0L-4,0" transform="matrix(1 0 0 1 0 0)"/><text class="node-label" transform="scale(1 1)" style="cursor: default; fill: rgb(42, 63, 95); text-shadow: rgb(255, 255, 255) -1px 1px 1px, rgb(255, 255, 255) 1px 1px 1px, rgb(255, 255, 255) 1px -1px 1px, rgb(255, 255, 255) -1px -1px 1px; font-family: 'Open Sans', verdana, arial, sans-serif; font-size: 10px; fill-opacity: 1;"><textPath class="node-label-text-path" alignment-baseline="middle" xlink:href="#3e0d88_0_node_21" startOffset="100%" text-anchor="end" style="fill: rgb(0, 0, 0);">E3</textPath></text></g></g><g class="sankey-node" transform="translate(520.000,303.200)" style="opacity: 1;"><rect class="node-rect" width="20" height="16.799999999999898" style="stroke-width: 0; stroke: rgb(128, 0, 128); stroke-opacity: 1; fill: rgb(87, 74, 226); fill-opacity: 1;"/><rect class="node-capture" x="-10" y="-10" width="40" height="36.7999999999999" style="fill-opacity: 0;"/><g class="node-entered" transform="translate(0,9.399999999999949)"><path class="node-label-guide" id="3e0d88_0_node_22" d="M-540,0L-4,0" transform="matrix(1 0 0 1 0 0)"/><text class="node-label" transform="scale(1 1)" style="cursor: default; fill: rgb(42, 63, 95); text-shadow: rgb(255, 255, 255) -1px 1px 1px, rgb(255, 255, 255) 1px 1px 1px, rgb(255, 255, 255) 1px -1px 1px, rgb(255, 255, 255) -1px -1px 1px; font-family: 'Open Sans', verdana, arial, sans-serif; font-size: 10px; fill-opacity: 1;"><textPath class="node-label-text-path" alignment-baseline="middle" xlink:href="#3e0d88_0_node_22" startOffset="100%" text-anchor="end" style="fill: rgb(0, 0, 0);">E4</textPath></text></g></g><g class="sankey-node" transform="translate(520.000,107.840)" style="opacity: 1;"><rect class="node-rect" width="20" height="64.32000000000005" style="stroke-width: 0; stroke: rgb(128, 0, 128); stroke-opacity: 1; fill: rgb(87, 74, 226); fill-opacity: 1;"/><rect class="node-capture" x="-10" y="-10" width="40" height="84.32000000000005" style="fill-opacity: 0;"/><g class="node-entered" transform="translate(0,33.160000000000025)"><path class="node-label-guide" id="3e0d88_0_node_23" d="M-540,0L-4,0" transform="matrix(1 0 0 1 0 0)"/><text class="node-label" transform="scale(1 1)" style="cursor: default; fill: rgb(42, 63, 95); text-shadow: rgb(255, 255, 255) -1px 1px 1px, rgb(255, 255, 255) 1px 1px 1px, rgb(255, 255, 255) 1px -1px 1px, rgb(255, 255, 255) -1px -1px 1px; font-family: 'Open Sans', verdana, arial, sans-serif; font-size: 10px; fill-opacity: 1;"><textPath class="node-label-text-path" alignment-baseline="middle" xlink:href="#3e0d88_0_node_23" startOffset="100%" text-anchor="end" style="fill: rgb(0, 0, 0);">E5</textPath></text></g></g></g></g><defs id="topdefs-019e6c"><g class="clips"/></defs><g class="layer-above"><g class="imagelayer"/><g class="shapelayer"/></g><g class="infolayer"><g class="g-gtitle"><text class="gtitle" x="35" y="50" text-anchor="start" dy="0em" style="font-family: 'Open Sans', verdana, arial, sans-serif; font-size: 14px; fill: rgb(42, 63, 95); opacity: 1; font-weight: normal; white-space: pre;">Sankey Diagram 47</text></g><g class="first-render"/></g></svg>