<svg class="main-svg" xmlns="http://www.w3.org/2000/svg" xmlns:xlink="http://www.w3.org/1999/xlink" width="700" height="500" style="" viewBox="0 0 700 500"><rect x="0" y="0" width="700" height="500" style="fill: rgb(255, 255, 255); fill-opacity: 1;"/><defs id="defs-7b2e8a"><g class="clips"/><g class="gradients"/></defs><g class="bglayer"/><g class="layer-below"><g class="imagelayer"/><g class="shapelayer"/></g><g class="cartesianlayer"/><g class="polarlayer"/><g class="ternarylayer"/><g class="geolayer"/><g class="funnelarealayer"/><g class="pielayer"/><g class="treemaplayer"/><g class="sunburstlayer"/><g class="glimages"/><g class="sankey" transform="translate(80,100)matrix(1 0 0 1 0 0)" style="box-sizing: content-box; position: absolute; left: 0px; shape-rendering: geometricprecision; pointer-events: auto;"><g class="sankey-links" style="fill: none;"><path class="sankey-link" d="M20,240.00000000000023C96.66666666666667,240.00000000000023 96.66666666666667,240.0000000000001 173.33333333333334,240.0000000000001L173.33333333333334,320.0000000000001C96.66666666666667,320.0000000000001 96.66666666666667,320.0000000000002 20,320.0000000000002Z" style="stroke: rgb(68, 68, 68); stroke-opacity: 1; fill: rgb(0, 0, 0); fill-opacity: 0.2; stroke-width: 0; opacity: 1;"/><path class="sankey-link" d="M20,40.000000000000306C96.66666666666667,40.000000000000306 96.66666666666667,40.000000000000135 173.33333333333334,40.000000000000135L173.33333333333334,103.20000000000013C96.66666666666667,103.20000000000013 96.66666666666667,103.2000000000003 20,103.2000000000003Z" style="stroke: rgb(68, 68, 68); stroke-opacity: 1; fill: rgb(0, 0, 0); fill-opacity: 0.2; stroke-width: 0; opacity: 1;"/><path class="sankey-link" d="M20,103.2000000000003C96.66666666666667,103.2000000000003 96.66666666666667,123.19999999999999 173.33333333333334,123.19999999999999L173.33333333333334,131.2C96.66666666666667,131.2 96.66666666666667,111.2000000000003 20,111.2000000000003Z" style="stroke: rgb(68, 68, 68); stroke-opacity: 1; fill: rgb(0, 0, 0); fill-opacity: 0.2; stroke-width: 0; opacity: 1;"/><path class="sankey-link" d="M20,111.2000000000003C96.66666666666667,111.2000000000003 96.66666666666667,231.2000000000001 173.33333333333334,231.2000000000001L173.33333333333334,240.0000000000001C96.66666666666667,240.0000000000001 96.66666666666667,120.00000000000031 20,120.00000000000031Z" style="stroke: rgb(68, 68, 68); stroke-opacity: 1; fill: rgb(0, 0, 0); fill-opacity: 0.2; stroke-width: 0; opacity: 1;"/><path class="sankey-link" d="M20,140.00000000000034C96.66666666666667,140.00000000000034 96.66666666666667,131.2 173.33333333333334,131.2L173.33333333333334,211.2C96.66666666666667,211.2 96.66666666666667,220.00000000000034 20,220.00000000000034Z" style="stroke: rgb(68, 68, 68); stroke-opacity: 1; fill: rgb(0, 0, 0); fill-opacity: 0.2; stroke-width: 0; opacity: 1;"/><path class="sankey-link" d="M193.33333333333334,56.80000000000014C270,56.80000000000014 270,189.60000000000014 346.6666666666667,189.60000000000014L346.6666666666667,221.60000000000014C270,221.60000000000014 270,88.80000000000014 193.33333333333334,88.80000000000014Z" style="stroke: rgb(68, 68, 68); stroke-opacity: 1; fill: rgb(0, 0, 0); fill-opacity: 0.2; stroke-width: 0; opacity: 1;"/><path class="sankey-link" d="M193.33333333333334,40.00000000000014C270,40.00000000000014 270,5.684341886080802e-14 346.6666666666667,5.684341886080802e-14L346.6666666666667,16.800000000000058C270,16.800000000000058 270,56.80000000000014 193.33333333333334,56.80000000000014Z" style="stroke: rgb(68, 68, 68); stroke-opacity: 1; fill: rgb(0, 0, 0); fill-opacity: 0.2; stroke-width: 0; opacity: 1;"/><path class="sankey-link" d="M193.33333333333334,88.80000000000014C270,88.80000000000014 270,250.4000000000001 346.6666666666667,250.4000000000001L346.6666666666667,264.80000000000007C270,264.80000000000007 270,103.20000000000014 193.33333333333334,103.20000000000014Z" style="stroke: rgb(68, 68, 68); stroke-opacity: 1; fill: rgb(0, 0, 0); fill-opacity: 0.2; stroke-width: 0; opacity: 1;"/><path class="sankey-link" d="M193.33333333333334,231.2000000000001C270,231.2000000000001 270,100.00000000000006 346.6666666666667,100.00000000000006L346.6666666666667,169.60000000000008C270,169.60000000000008 270,300.8000000000001 193.33333333333334,300.8000000000001Z" style="stroke: rgb(68, 68, 68); stroke-opacity: 1; fill: rgb(0, 0, 0); fill-opacity: 0.2; stroke-width: 0; opacity: 1;"/><path class="sankey-link" d="M193.33333333333334,309.60000000000014C270,309.60000000000014 270,309.6000000000001 346.6666666666667,309.6000000000001L346.6666666666667,320.00000000000006C270,320.00000000000006 270,320.0000000000001 193.33333333333334,320.0000000000001Z" style="stroke: rgb(68, 68, 68); stroke-opacity: 1; fill: rgb(0, 0, 0); fill-opacity: 0.2; stroke-width: 0; opacity: 1;"/><path class="sankey-link" d="M193.33333333333334,300.8000000000001C270,300.8000000000001 270,264.80000000000007 346.6666666666667,264.80000000000007L346.6666666666667,273.6C270,273.6 270,309.6000000000001 193.33333333333334,309.6000000000001Z" style="stroke: rgb(68, 68, 68); stroke-opacity: 1; fill: rgb(0, 0, 0); fill-opacity: 0.2; stroke-width: 0; opacity: 1;"/><path class="sankey-link" d="M193.33333333333334,132.79999999999998C270,132.79999999999998 270,46.40000000000005 346.6666666666667,46.40000000000005L346.6666666666667,100.00000000000004C270,100.00000000000004 270,186.4 193.33333333333334,186.4Z" style="stroke: rgb(68, 68, 68); stroke-opacity: 1; fill: rgb(0, 0, 0); fill-opacity: 0.2; stroke-width: 0; opacity: 1;"/><path class="sankey-link" d="M193.33333333333334,195.2C270,195.2 270,293.6000000000001 346.6666666666667,293.6000000000001L346.6666666666667,309.6000000000001C270,309.6000000000001 270,211.2 193.33333333333334,211.2Z" style="stroke: rgb(68, 68, 68); stroke-opacity: 1; fill: rgb(0, 0, 0); fill-opacity: 0.2; stroke-width: 0; opacity: 1;"/><path class="sankey-link" d="M193.33333333333334,123.19999999999999C270,123.19999999999999 270,16.800000000000058 346.6666666666667,16.800000000000058L346.6666666666667,26.40000000000006C270,26.40000000000006 270,132.79999999999998 193.33333333333334,132.79999999999998Z" style="stroke: rgb(68, 68, 68); stroke-opacity: 1; fill: rgb(0, 0, 0); fill-opacity: 0.2; stroke-width: 0; opacity: 1;"/><path class="sankey-link" d="M193.33333333333334,186.39999999999998C270,186.39999999999998 270,221.60000000000014 346.6666666666667,221.60000000000014L346.6666666666667,230.40000000000015C270,230.40000000000015 270,195.2 193.33333333333334,195.2Z" style="stroke: rgb(68, 68, 68); stroke-opacity: 1; fill: rgb(0, 0, 0); fill-opacity: 0.2; stroke-width: 0; opacity: 1;"/><path class="sankey-link" d="M366.6666666666667,198.40000000000015C443.33333333333337,198.40000000000015 443.33333333333337,154.39999999999998 520,154.39999999999998L520,173.59999999999997C443.33333333333337,173.59999999999997 443.33333333333337,217.60000000000014 366.6666666666667,217.60000000000014Z" style="stroke: rgb(68, 68, 68); stroke-opacity: 1; fill: rgb(0, 0, 0); fill-opacity: 0.2; stroke-width: 0; opacity: 1;"/><path class="sankey-link" d="M366.6666666666667,189.60000000000014C443.33333333333337,189.60000000000014 443.33333333333337,37.60000000000003 520,37.60000000000003L520,46.40000000000003C443.33333333333337,46.40000000000003 443.33333333333337,198.40000000000015 366.6666666666667,198.40000000000015Z" style="stroke: rgb(68, 68, 68); stroke-opacity: 1; fill: rgb(0, 0, 0); fill-opacity: 0.2; stroke-width: 0; opacity: 1;"/><path class="sankey-link" d="M366.6666666666667,225.60000000000014C443.33333333333337,225.60000000000014 443.33333333333337,299.2 520,299.2L520,303.99999999999994C443.33333333333337,303.99999999999994 443.33333333333337,230.40000000000015 366.6666666666667,230.40000000000015Z" style="stroke: rgb(68, 68, 68); stroke-opacity: 1; fill: rgb(0, 0, 0); fill-opacity: 0.2; stroke-width: 0; opacity: 1;"/><path class="sankey-link" d="M366.6666666666667,217.60000000000014C443.33333333333337,217.60000000000014 443.33333333333337,206.4 520,206.4L520,210.4C443.33333333333337,210.4 443.33333333333337,221.60000000000014 366.6666666666667,221.60000000000014Z" style="stroke: rgb(68, 68, 68); stroke-opacity: 1; fill: rgb(0, 0, 0); fill-opacity: 0.2; stroke-width: 0; opacity: 1;"/><path class="sankey-link" d="M366.6666666666667,221.60000000000014C443.33333333333337,221.60000000000014 443.33333333333337,267.2 520,267.2L520,271.2C443.33333333333337,271.2 443.33333333333337,225.60000000000014 366.6666666666667,225.60000000000014Z" style="stroke: rgb(68, 68, 68); stroke-opacity: 1; fill: rgb(0, 0, 0); fill-opacity: 0.2; stroke-width: 0; opacity: 1;"/><path class="sankey-link" d="M366.6666666666667,67.20000000000005C443.33333333333337,67.20000000000005 443.33333333333337,79.19999999999999 520,79.19999999999999L520,154.39999999999998C443.33333333333337,154.39999999999998 443.33333333333337,142.40000000000003 366.6666666666667,142.40000000000003Z" style="stroke: rgb(68, 68, 68); stroke-opacity: 1; fill: rgb(0, 0, 0); fill-opacity: 0.2; stroke-width: 0; opacity: 1;"/><path class="sankey-link" d="M366.6666666666667,142.40000000000003C443.33333333333337,142.40000000000003 443.33333333333337,240 520,240L520,267.2C443.33333333333337,267.2 443.33333333333337,169.60000000000002 366.6666666666667,169.60000000000002Z" style="stroke: rgb(68, 68, 68); stroke-opacity: 1; fill: rgb(0, 0, 0); fill-opacity: 0.2; stroke-width: 0; opacity: 1;"/><path class="sankey-link" d="M366.6666666666667,46.40000000000005C443.33333333333337,46.40000000000005 443.33333333333337,16.800000000000033 520,16.800000000000033L520,37.60000000000003C443.33333333333337,37.60000000000003 443.33333333333337,67.20000000000005 366.6666666666667,67.20000000000005Z" style="stroke: rgb(68, 68, 68); stroke-opacity: 1; fill: rgb(0, 0, 0); fill-opacity: 0.2; stroke-width: 0; opacity: 1;"/><path class="sankey-link" d="M366.6666666666667,293.6000000000001C443.33333333333337,293.6000000000001 443.33333333333337,49.60000000000004 520,49.60000000000004L520,55.20000000000003C443.33333333333337,55.20000000000003 443.33333333333337,299.2000000000001 366.6666666666667,299.2000000000001Z" style="stroke: rgb(68, 68, 68); stroke-opacity: 1; fill: rgb(0, 0, 0); fill-opacity: 0.2; stroke-width: 0; opacity: 1;"/><path class="sankey-link" d="M366.6666666666667,310.40000000000003C443.33333333333337,310.40000000000003 443.33333333333337,310.4 520,310.4L520,320C443.33333333333337,320 443.33333333333337,320.00000000000006 366.6666666666667,320.00000000000006Z" style="stroke: rgb(68, 68, 68); stroke-opacity: 1; fill: rgb(0, 0, 0); fill-opacity: 0.2; stroke-width: 0; opacity: 1;"/><path class="sankey-link" d="M366.6666666666667,299.2000000000001C443.33333333333337,299.2000000000001 443.33333333333337,177.59999999999997 520,177.59999999999997L520,183.99999999999994C443.33333333333337,183.99999999999994 443.33333333333337,305.6000000000001 366.6666666666667,305.6000000000001Z" style="stroke: rgb(68, 68, 68); stroke-opacity: 1; fill: rgb(0, 0, 0); fill-opacity: 0.2; stroke-width: 0; opacity: 1;"/><path class="sankey-link" d="M366.6666666666667,305.6000000000001C443.33333333333337,305.6000000000001 443.33333333333337,214.4 520,214.4L520,216.79999999999998C443.33333333333337,216.79999999999998 443.33333333333337,308.00000000000006 366.6666666666667,308.00000000000006Z" style="stroke: rgb(68, 68, 68); stroke-opacity: 1; fill: rgb(0, 0, 0); fill-opacity: 0.2; stroke-width: 0; opacity: 1;"/><path class="sankey-link" d="M366.6666666666667,308.00000000000006C443.33333333333337,308.00000000000006 443.33333333333337,276.8 520,276.8L520,279.2C443.33333333333337,279.2 443.33333333333337,310.40000000000003 366.6666666666667,310.40000000000003Z" style="stroke: rgb(68, 68, 68); stroke-opacity: 1; fill: rgb(0, 0, 0); fill-opacity: 0.2; stroke-width: 0; opacity: 1;"/><path class="sankey-link" d="M366.6666666666667,5.684341886080802e-14C443.33333333333337,5.684341886080802e-14 443.33333333333337,2.842170943040401e-14 520,2.842170943040401e-14L520,16.80000000000003C443.33333333333337,16.80000000000003 443.33333333333337,16.800000000000058 366.6666666666667,16.800000000000058Z" style="stroke: rgb(68, 68, 68); stroke-opacity: 1; fill: rgb(0, 0, 0); fill-opacity: 0.2; stroke-width: 0; opacity: 1;"/><path class="sankey-link" d="M366.6666666666667,23.20000000000006C443.33333333333337,23.20000000000006 443.33333333333337,236.8 520,236.8L520,240C443.33333333333337,240 443.33333333333337,26.400000000000063 366.6666666666667,26.400000000000063Z" style="stroke: rgb(68, 68, 68); stroke-opacity: 1; fill: rgb(0, 0, 0); fill-opacity: 0.2; stroke-width: 0; opacity: 1;"/><path class="sankey-link" d="M366.6666666666667,20.800000000000058C443.33333333333337,20.800000000000058 443.33333333333337,204 520,204L520,206.39999999999998C443.33333333333337,206.39999999999998 443.33333333333337,23.200000000000056 366.6666666666667,23.200000000000056Z" style="stroke: rgb(68, 68, 68); stroke-opacity: 1; fill: rgb(0, 0, 0); fill-opacity: 0.2; stroke-width: 0; opacity: 1;"/><path class="sankey-link" d="M366.6666666666667,16.800000000000058C443.33333333333337,16.800000000000058 443.33333333333337,75.19999999999999 520,75.19999999999999L520,79.19999999999999C443.33333333333337,79.19999999999999 443.33333333333337,20.800000000000058 366.6666666666667,20.800000000000058Z" style="stroke: rgb(68, 68, 68); stroke-opacity: 1; fill: rgb(0, 0, 0); fill-opacity: 0.2; stroke-width: 0; opacity: 1;"/><path class="sankey-link" d="M366.6666666666667,267.2000000000001C443.33333333333337,267.2000000000001 443.33333333333337,304 520,304L520,310.4C443.33333333333337,310.4 443.33333333333337,273.6000000000001 366.6666666666667,273.6000000000001Z" style="stroke: rgb(68, 68, 68); stroke-opacity: 1; fill: rgb(0, 0, 0); fill-opacity: 0.2; stroke-width: 0; opacity: 1;"/><path class="sankey-link" d="M366.6666666666667,261.6000000000001C443.33333333333337,261.6000000000001 443.33333333333337,271.2 520,271.2L520,276.8C443.33333333333337,276.8 443.33333333333337,267.2000000000001 366.6666666666667,267.2000000000001Z" style="stroke: rgb(68, 68, 68); stroke-opacity: 1; fill: rgb(0, 0, 0); fill-opacity: 0.2; stroke-width: 0; opacity: 1;"/><path class="sankey-link" d="M366.6666666666667,257.6000000000001C443.33333333333337,257.6000000000001 443.33333333333337,210.4 520,210.4L520,214.4C443.33333333333337,214.4 443.33333333333337,261.6000000000001 366.6666666666667,261.6000000000001Z" style="stroke: rgb(68, 68, 68); stroke-opacity: 1; fill: rgb(0, 0, 0); fill-opacity: 0.2; stroke-width: 0; opacity: 1;"/><path class="sankey-link" d="M366.6666666666667,250.4000000000001C443.33333333333337,250.4000000000001 443.33333333333337,46.400000000000034 520,46.400000000000034L520,49.60000000000004C443.33333333333337,49.60000000000004 443.33333333333337,253.60000000000008 366.6666666666667,253.60000000000008Z" style="stroke: rgb(68, 68, 68); stroke-opacity: 1; fill: rgb(0, 0, 0); fill-opacity: 0.2; stroke-width: 0; opacity: 1;"/><path class="sankey-link" d="M366.6666666666667,253.60000000000008C443.33333333333337,253.60000000000008 443.33333333333337,173.59999999999997 520,173.59999999999997L520,177.59999999999997C443.33333333333337,177.59999999999997 443.33333333333337,257.6000000000001 366.6666666666667,257.6000000000001Z" style="stroke: rgb(68, 68, 68); stroke-opacity: 1; fill: rgb(0, 0, 0); fill-opacity: 0.2; stroke-width: 0; opacity: 1;"/></g><g class="sankey-node-set" style="cursor: move;"><g class="sankey-node" transform="translate(0.000,240.000)" style="opacity: 1;"><rect class="node-rect" width="20" height="79.99999999999977" style="stroke-width: 0; stroke: rgb(128, 0, 128); stroke-opacity: 1; fill: rgb(87, 74, 226); fill-opacity: 1;"/><rect class="node-capture" x="-10" y="-10" width="40" height="99.99999999999977" style="fill-opacity: 0;"/><g class="node-entered" transform="translate(0,40.999999999999886)"><path class="node-label-guide" id="c7c20d_0_node_0" d="M24,0L540,0" transform="matrix(1 0 0 1 0 0)"/><text class="node-label" transform="scale(1 1)" style="cursor: default; fill: rgb(42, 63, 95); text-shadow: rgb(255, 255, 255) -1px 1px 1px, rgb(255, 255, 255) 1px 1px 1px, rgb(255, 255, 255) 1px -1px 1px, rgb(255, 255, 255) -1px -1px 1px; font-family: 'Open Sans', verdana, arial, sans-serif; font-size: 10px; fill-opacity: 1;"><textPath class="node-label-text-path" alignment-baseline="middle" xlink:href="#c7c20d_0_node_0" startOffset="0%" text-anchor="start" style="fill: rgb(0, 0, 0);">A1</textPath></text></g></g><g class="sankey-node" transform="translate(0.000,40.000)" style="opacity: 1;"><rect class="node-rect" width="20" height="80.00000000000004" style="stroke-width: 0; stroke: rgb(128, 0, 128); stroke-opacity: 1; fill: rgb(87, 74, 226); fill-opacity: 1;"/><rect class="node-capture" x="-10" y="-10" width="40" height="100.00000000000004" style="fill-opacity: 0;"/><g class="node-entered" transform="translate(0,41.00000000000002)"><path class="node-label-guide" id="c7c20d_0_node_1" d="M24,0L540,0" transform="matrix(1 0 0 1 0 0)"/><text class="node-label" transform="scale(1 1)" style="cursor: default; fill: rgb(42, 63, 95); text-shadow: rgb(255, 255, 255) -1px 1px 1px, rgb(255, 255, 255) 1px 1px 1px, rgb(255, 255, 255) 1px -1px 1px, rgb(255, 255, 255) -1px -1px 1px; font-family: 'Open Sans', verdana, arial, sans-serif; font-size: 10px; fill-opacity: 1;"><textPath class="node-label-text-path" alignment-baseline="middle" xlink:href="#c7c20d_0_node_1" startOffset="0%" text-anchor="start" style="fill: rgb(0, 0, 0);">A2</textPath></text></g></g><g class="sankey-node" transform="translate(0.000,140.000)" style="opacity: 1;"><rect class="node-rect" width="20" height="79.99999999999986" style="stroke-width: 0; stroke: rgb(128, 0, 128); stroke-opacity: 1; fill: rgb(87, 74, 226); fill-opacity: 1;"/><rect class="node-capture" x="-10" y="-10" width="40" height="99.99999999999986" style="fill-opacity: 0;"/><g class="node-entered" transform="translate(0,40.99999999999993)"><path class="node-label-guide" id="c7c20d_0_node_2" d="M24,0L540,0" transform="matrix(1 0 0 1 0 0)"/><text class="node-label" transform="scale(1 1)" style="cursor: default; fill: rgb(42, 63, 95); text-shadow: rgb(255, 255, 255) -1px 1px 1px, rgb(255, 255, 255) 1px 1px 1px, rgb(255, 255, 255) 1px -1px 1px, rgb(255, 255, 255) -1px -1px 1px; font-family: 'Open Sans', verdana, arial, sans-serif; font-size: 10px; fill-opacity: 1;"><textPath class="node-label-text-path" alignment-baseline="middle" xlink:href="#c7c20d_0_node_2" startOffset="0%" text-anchor="start" style="fill: rgb(0, 0, 0);">A3</textPath></text></g></g><g class="sankey-node" transform="translate(173.333,40.000)" style="opacity: 1;"><rect class="node-rect" width="20" height="63.19999999999985" style="stroke-width: 0; stroke: rgb(128, 0, 128); stroke-opacity: 1; fill: rgb(87, 74, 226); fill-opacity: 1;"/><rect class="node-capture" x="-10" y="-10" width="40" height="83.19999999999985" style="fill-opacity: 0;"/><g class="node-entered" transform="translate(0,32.59999999999992)"><path class="node-label-guide" id="c7c20d_0_node_3" d="M24,0L540,0" transform="matrix(1 0 0 1 0 0)"/><text class="node-label" transform="scale(1 1)" style="cursor: default; fill: rgb(42, 63, 95); text-shadow: rgb(255, 255, 255) -1px 1px 1px, rgb(255, 255, 255) 1px 1px 1px, rgb(255, 255, 255) 1px -1px 1px, rgb(255, 255, 255) -1px -1px 1px; font-family: 'Open Sans', verdana, arial, sans-serif; font-size: 10px; fill-opacity: 1;"><textPath class="node-label-text-path" alignment-baseline="middle" xlink:href="#c7c20d_0_node_3" startOffset="0%" text-anchor="start" style="fill: rgb(0, 0, 0);">B1</textPath></text></g></g><g class="sankey-node" transform="translate(173.333,231.200)" style="opacity: 1;"><rect class="node-rect" width="20" height="88.7999999999999" style="stroke-width: 0; stroke: rgb(128, 0, 128); stroke-opacity: 1; fill: rgb(87, 74, 226); fill-opacity: 1;"/><rect class="node-capture" x="-10" y="-10" width="40" height="108.7999999999999" style="fill-opacity: 0;"/><g class="node-entered" transform="translate(0,45.39999999999995)"><path class="node-label-guide" id="c7c20d_0_node_4" d="M24,0L540,0" transform="matrix(1 0 0 1 0 0)"/><text class="node-label" transform="scale(1 1)" style="cursor: default; fill: rgb(42, 63, 95); text-shadow: rgb(255, 255, 255) -1px 1px 1px, rgb(255, 255, 255) 1px 1px 1px, rgb(255, 255, 255) 1px -1px 1px, rgb(255, 255, 255) -1px -1px 1px; font-family: 'Open Sans', verdana, arial, sans-serif; font-size: 10px; fill-opacity: 1;"><textPath class="node-label-text-path" alignment-baseline="middle" xlink:href="#c7c20d_0_node_4" startOffset="0%" text-anchor="start" style="fill: rgb(0, 0, 0);">B2</textPath></text></g></g><g class="sankey-node" transform="translate(173.333,123.200)" style="opacity: 1;"><rect class="node-rect" width="20" height="88.00000000000011" style="stroke-width: 0; stroke: rgb(128, 0, 128); stroke-opacity: 1; fill: rgb(87, 74, 226); fill-opacity: 1;"/><rect class="node-capture" x="-10" y="-10" width="40" height="108.00000000000011" style="fill-opacity: 0;"/><g class="node-entered" transform="translate(0,45.00000000000006)"><path class="node-label-guide" id="c7c20d_0_node_5" d="M24,0L540,0" transform="matrix(1 0 0 1 0 0)"/><text class="node-label" transform="scale(1 1)" style="cursor: default; fill: rgb(42, 63, 95); text-shadow: rgb(255, 255, 255) -1px 1px 1px, rgb(255, 255, 255) 1px 1px 1px, rgb(255, 255, 255) 1px -1px 1px, rgb(255, 255, 255) -1px -1px 1px; font-family: 'Open Sans', verdana, arial, sans-serif; font-size: 10px; fill-opacity: 1;"><textPath class="node-label-text-path" alignment-baseline="middle" xlink:href="#c7c20d_0_node_5" startOffset="0%" text-anchor="start" style="fill: rgb(0, 0, 0);">B3</textPath></text></g></g><g class="sankey-node" transform="translate(346.667,189.600)" style="opacity: 1;"><rect class="node-rect" width="20" height="40.799999999999955" style="stroke-width: 0; stroke: rgb(128, 0, 128); stroke-opacity: 1; fill: rgb(87, 74, 226); fill-opacity: 1;"/><rect class="node-capture" x="-10" y="-10" width="40" height="60.799999999999955" style="fill-opacity: 0;"/><g class="node-entered" transform="translate(0,21.399999999999977)"><path class="node-label-guide" id="c7c20d_0_node_6" d="M24,0L540,0" transform="matrix(1 0 0 1 0 0)"/><text class="node-label" transform="scale(1 1)" style="cursor: default; fill: rgb(42, 63, 95); text-shadow: rgb(255, 255, 255) -1px 1px 1px, rgb(255, 255, 255) 1px 1px 1px, rgb(255, 255, 255) 1px -1px 1px, rgb(255, 255, 255) -1px -1px 1px; font-family: 'Open Sans', verdana, arial, sans-serif; font-size: 10px; fill-opacity: 1;"><textPath class="node-label-text-path" alignment-baseline="middle" xlink:href="#c7c20d_0_node_6" startOffset="0%" text-anchor="start" style="fill: rgb(0, 0, 0);">C1</textPath></text></g></g><g class="sankey-node" transform="translate(346.667,46.400)" style="opacity: 1;"><rect class="node-rect" width="20" height="123.20000000000006" style="stroke-width: 0; stroke: rgb(128, 0, 128); stroke-opacity: 1; fill: rgb(87, 74, 226); fill-opacity: 1;"/><rect class="node-capture" x="-10" y="-10" width="40" height="143.20000000000005" style="fill-opacity: 0;"/><g class="node-entered" transform="translate(0,62.60000000000003)"><path class="node-label-guide" id="c7c20d_0_node_7" d="M24,0L540,0" transform="matrix(1 0 0 1 0 0)"/><text class="node-label" transform="scale(1 1)" style="cursor: default; fill: rgb(42, 63, 95); text-shadow: rgb(255, 255, 255) -1px 1px 1px, rgb(255, 255, 255) 1px 1px 1px, rgb(255, 255, 255) 1px -1px 1px, rgb(255, 255, 255) -1px -1px 1px; font-family: 'Open Sans', verdana, arial, sans-serif; font-size: 10px; fill-opacity: 1;"><textPath class="node-label-text-path" alignment-baseline="middle" xlink:href="#c7c20d_0_node_7" startOffset="0%" text-anchor="start" style="fill: rgb(0, 0, 0);">C2</textPath></text></g></g><g class="sankey-node" transform="translate(346.667,293.600)" style="opacity: 1;"><rect class="node-rect" width="20" height="26.39999999999992" style="stroke-width: 0; stroke: rgb(128, 0, 128); stroke-opacity: 1; fill: rgb(87, 74, 226); fill-opacity: 1;"/><rect class="node-capture" x="-10" y="-10" width="40" height="46.39999999999992" style="fill-opacity: 0;"/><g class="node-entered" transform="translate(0,14.19999999999996)"><path class="node-label-guide" id="c7c20d_0_node_8" d="M24,0L540,0" transform="matrix(1 0 0 1 0 0)"/><text class="node-label" transform="scale(1 1)" style="cursor: default; fill: rgb(42, 63, 95); text-shadow: rgb(255, 255, 255) -1px 1px 1px, rgb(255, 255, 255) 1px 1px 1px, rgb(255, 255, 255) 1px -1px 1px, rgb(255, 255, 255) -1px -1px 1px; font-family: 'Open Sans', verdana, arial, sans-serif; font-size: 10px; fill-opacity: 1;"><textPath class="node-label-text-path" alignment-baseline="middle" xlink:href="#c7c20d_0_node_8" startOffset="0%" text-anchor="start" style="fill: rgb(0, 0, 0);">C3</textPath></text></g></g><g class="sankey-node" transform="translate(346.667,0.000)" style="opacity: 1;"><rect class="node-rect" width="20" height="26.39999999999999" style="stroke-width: 0; stroke: rgb(128, 0, 128); stroke-opacity: 1; fill: rgb(87, 74, 226); fill-opacity: 1;"/><rect class="node-capture" x="-10" y="-10" width="40" height="46.39999999999999" style="fill-opacity: 0;"/><g class="node-entered" transform="translate(0,14.199999999999996)"><path class="node-label-guide" id="c7c20d_0_node_9" d="M24,0L540,0" transform="matrix(1 0 0 1 0 0)"/><text class="node-label" transform="scale(1 1)" style="cursor: default; fill: rgb(42, 63, 95); text-shadow: rgb(255, 255, 255) -1px 1px 1px, rgb(255, 255, 255) 1px 1px 1px, rgb(255, 255, 255) 1px -1px 1px, rgb(255, 255, 255) -1px -1px 1px; font-family: 'Open Sans', verdana, arial, sans-serif; font-size: 10px; fill-opacity: 1;"><textPath class="node-label-text-path" alignment-baseline="middle" xlink:href="#c7c20d_0_node_9" startOffset="0%" text-anchor="start" style="fill: rgb(0, 0, 0);">C4</textPath></text></g></g><g class="sankey-node" transform="translate(346.667,250.400)" style="opacity: 1;"><rect class="node-rect" width="20" height="23.19999999999999" style="stroke-width: 0; stroke: rgb(128, 0, 128); stroke-opacity: 1; fill: rgb(87, 74, 226); fill-opacity: 1;"/><rect class="node-capture" x="-10" y="-10" width="40" height="43.19999999999999" style="fill-opacity: 0;"/><g class="node-entered" transform="translate(0,12.599999999999994)"><path class="node-label-guide" id="c7c20d_0_node_10" d="M24,0L540,0" transform="matrix(1 0 0 1 0 0)"/><text class="node-label" transform="scale(1 1)" style="cursor: default; fill: rgb(42, 63, 95); text-shadow: rgb(255, 255, 255) -1px 1px 1px, rgb(255, 255, 255) 1px 1px 1px, rgb(255, 255, 255) 1px -1px 1px, rgb(255, 255, 255) -1px -1px 1px; font-family: 'Open Sans', verdana, arial, sans-serif; font-size: 10px; fill-opacity: 1;"><textPath class="node-label-text-path" alignment-baseline="middle" xlink:href="#c7c20d_0_node_10" startOffset="0%" text-anchor="start" style="fill: rgb(0, 0, 0);">C5</textPath></text></g></g><g class="sankey-node" transform="translate(520.000,299.200)" style="opacity: 1;"><rect class="node-rect" width="20" height="20.80000000000001" style="stroke-width: 0; stroke: rgb(128, 0, 128); stroke-opacity: 1; fill: rgb(87, 74, 226); fill-opacity: 1;"/><rect class="node-capture" x="-10" y="-10" width="40" height="40.80000000000001" style="fill-opacity: 0;"/><g class="node-entered" transform="translate(0,11.400000000000006)"><path class="node-label-guide" id="c7c20d_0_node_11" d="M-540,0L-4,0" transform="matrix(1 0 0 1 0 0)"/><text class="node-label" transform="scale(1 1)" style="cursor: default; fill: rgb(42, 63, 95); text-shadow: rgb(255, 255, 255) -1px 1px 1px, rgb(255, 255, 255) 1px 1px 1px, rgb(255, 255, 255) 1px -1px 1px, rgb(255, 255, 255) -1px -1px 1px; font-family: 'Open Sans', verdana, arial, sans-serif; font-size: 10px; fill-opacity: 1;"><textPath class="node-label-text-path" alignment-baseline="middle" xlink:href="#c7c20d_0_node_11" startOffset="100%" text-anchor="end" style="fill: rgb(0, 0, 0);">D1</textPath></text></g></g><g class="sankey-node" transform="translate(520.000,0.000)" style="opacity: 1;"><rect class="node-rect" width="20" height="55.19999999999996" style="stroke-width: 0; stroke: rgb(128, 0, 128); stroke-opacity: 1; fill: rgb(87, 74, 226); fill-opacity: 1;"/><rect class="node-capture" x="-10" y="-10" width="40" height="75.19999999999996" style="fill-opacity: 0;"/><g class="node-entered" transform="translate(0,28.59999999999998)"><path class="node-label-guide" id="c7c20d_0_node_12" d="M-540,0L-4,0" transform="matrix(1 0 0 1 0 0)"/><text class="node-label" transform="scale(1 1)" style="cursor: default; fill: rgb(42, 63, 95); text-shadow: rgb(255, 255, 255) -1px 1px 1px, rgb(255, 255, 255) 1px 1px 1px, rgb(255, 255, 255) 1px -1px 1px, rgb(255, 255, 255) -1px -1px 1px; font-family: 'Open Sans', verdana, arial, sans-serif; font-size: 10px; fill-opacity: 1;"><textPath class="node-label-text-path" alignment-baseline="middle" xlink:href="#c7c20d_0_node_12" startOffset="100%" text-anchor="end" style="fill: rgb(0, 0, 0);">D2</textPath></text></g></g><g class="sankey-node" transform="translate(520.000,204.000)" style="opacity: 1;"><rect class="node-rect" width="20" height="12.800000000000011" style="stroke-width: 0; stroke: rgb(128, 0, 128); stroke-opacity: 1; fill: rgb(87, 74, 226); fill-opacity: 1;"/><rect class="node-capture" x="-10" y="-10" width="40" height="32.80000000000001" style="fill-opacity: 0;"/><g class="node-entered" transform="translate(0,7.400000000000006)"><path class="node-label-guide" id="c7c20d_0_node_13" d="M-540,0L-4,0" transform="matrix(1 0 0 1 0 0)"/><text class="node-label" transform="scale(1 1)" style="cursor: default; fill: rgb(42, 63, 95); text-shadow: rgb(255, 255, 255) -1px 1px 1px, rgb(255, 255, 255) 1px 1px 1px, rgb(255, 255, 255) 1px -1px 1px, rgb(255, 255, 255) -1px -1px 1px; font-family: 'Open Sans', verdana, arial, sans-serif; font-size: 10px; fill-opacity: 1;"><textPath class="node-label-text-path" alignment-baseline="middle" xlink:href="#c7c20d_0_node_13" startOffset="100%" text-anchor="end" style="fill: rgb(0, 0, 0);">D3</textPath></text></g></g><g class="sankey-node" transform="translate(520.000,75.200)" style="opacity: 1;"><rect class="node-rect" width="20" height="108.80000000000001" style="stroke-width: 0; stroke: rgb(128, 0, 128); stroke-opacity: 1; fill: rgb(87, 74, 226); fill-opacity: 1;"/><rect class="node-capture" x="-10" y="-10" width="40" height="128.8" style="fill-opacity: 0;"/><g class="node-entered" transform="translate(0,55.400000000000006)"><path class="node-label-guide" id="c7c20d_0_node_14" d="M-540,0L-4,0" transform="matrix(1 0 0 1 0 0)"/><text class="node-label" transform="scale(1 1)" style="cursor: default; fill: rgb(42, 63, 95); text-shadow: rgb(255, 255, 255) -1px 1px 1px, rgb(255, 255, 255) 1px 1px 1px, rgb(255, 255, 255) 1px -1px 1px, rgb(255, 255, 255) -1px -1px 1px; font-family: 'Open Sans', verdana, arial, sans-serif; font-size: 10px; fill-opacity: 1;"><textPath class="node-label-text-path" alignment-baseline="middle" xlink:href="#c7c20d_0_node_14" startOffset="100%" text-anchor="end" style="fill: rgb(0, 0, 0);">D4</textPath></text></g></g><g class="sankey-node" transform="translate(520.000,236.800)" style="opacity: 1;"><rect class="node-rect" width="20" height="42.39999999999998" style="stroke-width: 0; stroke: rgb(128, 0, 128); stroke-opacity: 1; fill: rgb(87, 74, 226); fill-opacity: 1;"/><rect class="node-capture" x="-10" y="-10" width="40" height="62.39999999999998" style="fill-opacity: 0;"/><g class="node-entered" transform="translate(0,22.19999999999999)"><path class="node-label-guide" id="c7c20d_0_node_15" d="M-540,0L-4,0" transform="matrix(1 0 0 1 0 0)"/><text class="node-label" transform="scale(1 1)" style="cursor: default; fill: rgb(42, 63, 95); text-shadow: rgb(255, 255, 255) -1px 1px 1px, rgb(255, 255, 255) 1px 1px 1px, rgb(255, 255, 255) 1px -1px 1px, rgb(255, 255, 255) -1px -1px 1px; font-family: 'Open Sans', verdana, arial, sans-serif; font-size: 10px; fill-opacity: 1;"><textPath class="node-label-text-path" alignment-baseline="middle" xlink:href="#c7c20d_0_node_15" startOffset="100%" text-anchor="end" style="fill: rgb(0, 0, 0);">D5</textPath></text></g></g></g></g><defs id="topdefs-7b2e8a"><g class="clips"/></defs><g class="layer-above"><g class="imagelayer"/><g class="shapelayer"/></g><g class="infolayer"><g class="g-gtitle"><text class="gtitle" x="35" y="50" text-anchor="start" dy="0em" style="font-family: 'Open Sans', verdana, arial, sans-serif; font-size: 14px; fill: rgb(42, 63, 95); opacity: 1; font-weight: normal; white-space: pre;">Sankey Diagram 44</text></g><g class="first-render"/></g></svg>