<svg class="main-svg" xmlns="http://www.w3.org/2000/svg" xmlns:xlink="http://www.w3.org/1999/xlink" width="700" height="500" style="" viewBox="0 0 700 500"><rect x="0" y="0" width="700" height="500" style="fill: rgb(255, 255, 255); fill-opacity: 1;"/><defs id="defs-32b63d"><g class="clips"/><g class="gradients"/></defs><g class="bglayer"/><g class="layer-below"><g class="imagelayer"/><g class="shapelayer"/></g><g class="cartesianlayer"/><g class="polarlayer"/><g class="ternarylayer"/><g class="geolayer"/><g class="funnelarealayer"/><g class="pielayer"/><g class="treemaplayer"/><g class="sunburstlayer"/><g class="glimages"/><g class="sankey" transform="translate(80,100)matrix(1 0 0 1 0 0)" style="box-sizing: content-box; position: absolute; left: 0px; shape-rendering: geometricprecision; pointer-events: auto;"><g class="sankey-links" style="fill: none;"><path class="sankey-link" d="M20,164.32000000000016C62,164.32000000000016 62,248.47999999999988 104,248.47999999999988L104,268.15999999999985C62,268.15999999999985 62,184.00000000000017 20,184.00000000000017Z" style="stroke: rgb(68, 68, 68); stroke-opacity: 1; fill: rgb(0, 0, 0); fill-opacity: 0.2; stroke-width: 0; opacity: 1;"/><path class="sankey-link" d="M20,136.00000000000014C62,136.00000000000014 62,82.87999999999994 104,82.87999999999994L104,94.39999999999995C62,94.39999999999995 62,147.52000000000012 20,147.52000000000012Z" style="stroke: rgb(68, 68, 68); stroke-opacity: 1; fill: rgb(0, 0, 0); fill-opacity: 0.2; stroke-width: 0; opacity: 1;"/><path class="sankey-link" d="M20,152.32000000000016C62,152.32000000000016 62,183.35999999999973 104,183.35999999999973L104,195.35999999999973C62,195.35999999999973 62,164.32000000000016 20,164.32000000000016Z" style="stroke: rgb(68, 68, 68); stroke-opacity: 1; fill: rgb(0, 0, 0); fill-opacity: 0.2; stroke-width: 0; opacity: 1;"/><path class="sankey-link" d="M20,147.52000000000015C62,147.52000000000015 62,140.3199999999998 104,140.3199999999998L104,145.1199999999998C62,145.1199999999998 62,152.32000000000016 20,152.32000000000016Z" style="stroke: rgb(68, 68, 68); stroke-opacity: 1; fill: rgb(0, 0, 0); fill-opacity: 0.2; stroke-width: 0; opacity: 1;"/><path class="sankey-link" d="M20,1.0658141036401503e-13C62,1.0658141036401503e-13 62,19.99999999999994 104,19.99999999999994L104,60.319999999999936C62,60.319999999999936 62,40.32000000000011 20,40.32000000000011Z" style="stroke: rgb(68, 68, 68); stroke-opacity: 1; fill: rgb(0, 0, 0); fill-opacity: 0.2; stroke-width: 0; opacity: 1;"/><path class="sankey-link" d="M20,40.32000000000011C62,40.32000000000011 62,121.5999999999998 104,121.5999999999998L104,129.2799999999998C62,129.2799999999998 62,48.000000000000114 20,48.000000000000114Z" style="stroke: rgb(68, 68, 68); stroke-opacity: 1; fill: rgb(0, 0, 0); fill-opacity: 0.2; stroke-width: 0; opacity: 1;"/><path class="sankey-link" d="M20,68.00000000000009C62,68.00000000000009 62,60.319999999999936 104,60.319999999999936L104,82.87999999999994C62,82.87999999999994 62,90.56000000000009 20,90.56000000000009Z" style="stroke: rgb(68, 68, 68); stroke-opacity: 1; fill: rgb(0, 0, 0); fill-opacity: 0.2; stroke-width: 0; opacity: 1;"/><path class="sankey-link" d="M20,101.60000000000008C62,101.60000000000008 62,175.67999999999972 104,175.67999999999972L104,183.35999999999973C62,183.35999999999973 62,109.28000000000009 20,109.28000000000009Z" style="stroke: rgb(68, 68, 68); stroke-opacity: 1; fill: rgb(0, 0, 0); fill-opacity: 0.2; stroke-width: 0; opacity: 1;"/><path class="sankey-link" d="M20,90.56000000000009C62,90.56000000000009 62,129.2799999999998 104,129.2799999999998L104,140.31999999999982C62,140.31999999999982 62,101.60000000000008 20,101.60000000000008Z" style="stroke: rgb(68, 68, 68); stroke-opacity: 1; fill: rgb(0, 0, 0); fill-opacity: 0.2; stroke-width: 0; opacity: 1;"/><path class="sankey-link" d="M20,109.28000000000009C62,109.28000000000009 62,241.75999999999988 104,241.75999999999988L104,248.4799999999999C62,248.4799999999999 62,116.00000000000009 20,116.00000000000009Z" style="stroke: rgb(68, 68, 68); stroke-opacity: 1; fill: rgb(0, 0, 0); fill-opacity: 0.2; stroke-width: 0; opacity: 1;"/><path class="sankey-link" d="M20,284.4800000000002C62,284.4800000000002 62,284.47999999999985 104,284.47999999999985L104,319.99999999999983C62,319.99999999999983 62,320.00000000000017 20,320.00000000000017Z" style="stroke: rgb(68, 68, 68); stroke-opacity: 1; fill: rgb(0, 0, 0); fill-opacity: 0.2; stroke-width: 0; opacity: 1;"/><path class="sankey-link" d="M20,272.00000000000017C62,272.00000000000017 62,209.27999999999972 104,209.27999999999972L104,221.75999999999974C62,221.75999999999974 62,284.4800000000002 20,284.4800000000002Z" style="stroke: rgb(68, 68, 68); stroke-opacity: 1; fill: rgb(0, 0, 0); fill-opacity: 0.2; stroke-width: 0; opacity: 1;"/><path class="sankey-link" d="M20,221.76000000000013C62,221.76000000000013 62,195.35999999999973 104,195.35999999999973L104,209.27999999999975C62,209.27999999999975 62,235.68000000000015 20,235.68000000000015Z" style="stroke: rgb(68, 68, 68); stroke-opacity: 1; fill: rgb(0, 0, 0); fill-opacity: 0.2; stroke-width: 0; opacity: 1;"/><path class="sankey-link" d="M20,211.20000000000013C62,211.20000000000013 62,145.1199999999998 104,145.1199999999998L104,155.6799999999998C62,155.6799999999998 62,221.76000000000013 20,221.76000000000013Z" style="stroke: rgb(68, 68, 68); stroke-opacity: 1; fill: rgb(0, 0, 0); fill-opacity: 0.2; stroke-width: 0; opacity: 1;"/><path class="sankey-link" d="M20,235.68000000000012C62,235.68000000000012 62,268.15999999999985 104,268.15999999999985L104,284.4799999999999C62,284.4799999999999 62,252.0000000000001 20,252.0000000000001Z" style="stroke: rgb(68, 68, 68); stroke-opacity: 1; fill: rgb(0, 0, 0); fill-opacity: 0.2; stroke-width: 0; opacity: 1;"/><path class="sankey-link" d="M20,204.00000000000014C62,204.00000000000014 62,94.39999999999993 104,94.39999999999993L104,101.59999999999992C62,101.59999999999992 62,211.20000000000013 20,211.20000000000013Z" style="stroke: rgb(68, 68, 68); stroke-opacity: 1; fill: rgb(0, 0, 0); fill-opacity: 0.2; stroke-width: 0; opacity: 1;"/><path class="sankey-link" d="M124,19.999999999999947C166,19.999999999999947 166,19.999999999999748 208,19.999999999999748L208,56.95999999999975C166,56.95999999999975 166,56.95999999999995 124,56.95999999999995Z" style="stroke: rgb(68, 68, 68); stroke-opacity: 1; fill: rgb(0, 0, 0); fill-opacity: 0.2; stroke-width: 0; opacity: 1;"/><path class="sankey-link" d="M124,85.75999999999993C166,85.75999999999993 166,185.27999999999992 208,185.27999999999992L208,201.1199999999999C166,201.1199999999999 166,101.59999999999994 124,101.59999999999994Z" style="stroke: rgb(68, 68, 68); stroke-opacity: 1; fill: rgb(0, 0, 0); fill-opacity: 0.2; stroke-width: 0; opacity: 1;"/><path class="sankey-link" d="M124,56.959999999999944C166,56.959999999999944 166,76.95999999999975 208,76.95999999999975L208,105.75999999999976C166,105.75999999999976 166,85.75999999999993 124,85.75999999999993Z" style="stroke: rgb(68, 68, 68); stroke-opacity: 1; fill: rgb(0, 0, 0); fill-opacity: 0.2; stroke-width: 0; opacity: 1;"/><path class="sankey-link" d="M124,207.35999999999973C166,207.35999999999973 166,261.44 208,261.44L208,275.84C166,275.84 166,221.7599999999997 124,221.7599999999997Z" style="stroke: rgb(68, 68, 68); stroke-opacity: 1; fill: rgb(0, 0, 0); fill-opacity: 0.2; stroke-width: 0; opacity: 1;"/><path class="sankey-link" d="M124,175.67999999999972C166,175.67999999999972 166,209.75999999999993 208,209.75999999999993L208,241.43999999999994C166,241.43999999999994 166,207.35999999999973 124,207.35999999999973Z" style="stroke: rgb(68, 68, 68); stroke-opacity: 1; fill: rgb(0, 0, 0); fill-opacity: 0.2; stroke-width: 0; opacity: 1;"/><path class="sankey-link" d="M124,121.5999999999998C166,121.5999999999998 166,105.75999999999976 208,105.75999999999976L208,131.19999999999976C166,131.19999999999976 166,147.0399999999998 124,147.0399999999998Z" style="stroke: rgb(68, 68, 68); stroke-opacity: 1; fill: rgb(0, 0, 0); fill-opacity: 0.2; stroke-width: 0; opacity: 1;"/><path class="sankey-link" d="M124,147.0399999999998C166,147.0399999999998 166,201.11999999999992 208,201.11999999999992L208,209.7599999999999C166,209.7599999999999 166,155.67999999999978 124,155.67999999999978Z" style="stroke: rgb(68, 68, 68); stroke-opacity: 1; fill: rgb(0, 0, 0); fill-opacity: 0.2; stroke-width: 0; opacity: 1;"/><path class="sankey-link" d="M124,275.83999999999986C166,275.83999999999986 166,275.84 208,275.84L208,319.99999999999994C166,319.99999999999994 166,319.99999999999983 124,319.99999999999983Z" style="stroke: rgb(68, 68, 68); stroke-opacity: 1; fill: rgb(0, 0, 0); fill-opacity: 0.2; stroke-width: 0; opacity: 1;"/><path class="sankey-link" d="M124,241.7599999999999C166,241.7599999999999 166,131.19999999999976 208,131.19999999999976L208,165.27999999999975C166,165.27999999999975 166,275.8399999999999 124,275.8399999999999Z" style="stroke: rgb(68, 68, 68); stroke-opacity: 1; fill: rgb(0, 0, 0); fill-opacity: 0.2; stroke-width: 0; opacity: 1;"/><path class="sankey-link" d="M228,288.8C270,288.8 270,288.7999999999997 312,288.7999999999997L312,319.9999999999998C270,319.9999999999998 270,320.00000000000006 228,320.00000000000006Z" style="stroke: rgb(68, 68, 68); stroke-opacity: 1; fill: rgb(0, 0, 0); fill-opacity: 0.2; stroke-width: 0; opacity: 1;"/><path class="sankey-link" d="M228,261.44C270,261.44 270,163.83999999999966 312,163.83999999999966L312,177.75999999999968C270,177.75999999999968 270,275.35999999999996 228,275.35999999999996Z" style="stroke: rgb(68, 68, 68); stroke-opacity: 1; fill: rgb(0, 0, 0); fill-opacity: 0.2; stroke-width: 0; opacity: 1;"/><path class="sankey-link" d="M228,275.36C270,275.36 270,228.47999999999965 312,228.47999999999965L312,241.91999999999965C270,241.91999999999965 270,288.80000000000007 228,288.80000000000007Z" style="stroke: rgb(68, 68, 68); stroke-opacity: 1; fill: rgb(0, 0, 0); fill-opacity: 0.2; stroke-width: 0; opacity: 1;"/><path class="sankey-link" d="M228,185.27999999999992C270,185.27999999999992 270,61.75999999999962 312,61.75999999999962L312,84.31999999999962C270,84.31999999999962 270,207.83999999999992 228,207.83999999999992Z" style="stroke: rgb(68, 68, 68); stroke-opacity: 1; fill: rgb(0, 0, 0); fill-opacity: 0.2; stroke-width: 0; opacity: 1;"/><path class="sankey-link" d="M228,207.83999999999992C270,207.83999999999992 270,142.23999999999967 312,142.23999999999967L312,163.8399999999997C270,163.8399999999997 270,229.43999999999994 228,229.43999999999994Z" style="stroke: rgb(68, 68, 68); stroke-opacity: 1; fill: rgb(0, 0, 0); fill-opacity: 0.2; stroke-width: 0; opacity: 1;"/><path class="sankey-link" d="M228,235.67999999999992C270,235.67999999999992 270,283.03999999999974 312,283.03999999999974L312,288.7999999999997C270,288.7999999999997 270,241.4399999999999 228,241.4399999999999Z" style="stroke: rgb(68, 68, 68); stroke-opacity: 1; fill: rgb(0, 0, 0); fill-opacity: 0.2; stroke-width: 0; opacity: 1;"/><path class="sankey-link" d="M228,229.4399999999999C270,229.4399999999999 270,222.23999999999964 312,222.23999999999964L312,228.47999999999965C270,228.47999999999965 270,235.67999999999992 228,235.67999999999992Z" style="stroke: rgb(68, 68, 68); stroke-opacity: 1; fill: rgb(0, 0, 0); fill-opacity: 0.2; stroke-width: 0; opacity: 1;"/><path class="sankey-link" d="M228,42.55999999999975C270,42.55999999999975 270,197.75999999999965 312,197.75999999999965L312,208.31999999999965C270,208.31999999999965 270,53.11999999999975 228,53.11999999999975Z" style="stroke: rgb(68, 68, 68); stroke-opacity: 1; fill: rgb(0, 0, 0); fill-opacity: 0.2; stroke-width: 0; opacity: 1;"/><path class="sankey-link" d="M228,19.999999999999744C270,19.999999999999744 270,19.99999999999963 312,19.99999999999963L312,38.71999999999963C270,38.71999999999963 270,38.71999999999974 228,38.71999999999974Z" style="stroke: rgb(68, 68, 68); stroke-opacity: 1; fill: rgb(0, 0, 0); fill-opacity: 0.2; stroke-width: 0; opacity: 1;"/><path class="sankey-link" d="M228,38.71999999999974C270,38.71999999999974 270,104.31999999999965 312,104.31999999999965L312,108.15999999999966C270,108.15999999999966 270,42.55999999999975 228,42.55999999999975Z" style="stroke: rgb(68, 68, 68); stroke-opacity: 1; fill: rgb(0, 0, 0); fill-opacity: 0.2; stroke-width: 0; opacity: 1;"/><path class="sankey-link" d="M228,53.11999999999975C270,53.11999999999975 270,261.9199999999998 312,261.9199999999998L312,265.7599999999998C270,265.7599999999998 270,56.95999999999975 228,56.95999999999975Z" style="stroke: rgb(68, 68, 68); stroke-opacity: 1; fill: rgb(0, 0, 0); fill-opacity: 0.2; stroke-width: 0; opacity: 1;"/><path class="sankey-link" d="M228,99.99999999999977C270,99.99999999999977 270,108.15999999999966 312,108.15999999999966L312,142.23999999999964C270,142.23999999999964 270,134.07999999999976 228,134.07999999999976Z" style="stroke: rgb(68, 68, 68); stroke-opacity: 1; fill: rgb(0, 0, 0); fill-opacity: 0.2; stroke-width: 0; opacity: 1;"/><path class="sankey-link" d="M228,76.95999999999977C270,76.95999999999977 270,38.71999999999963 312,38.71999999999963L312,61.75999999999962C270,61.75999999999962 270,99.99999999999976 228,99.99999999999976Z" style="stroke: rgb(68, 68, 68); stroke-opacity: 1; fill: rgb(0, 0, 0); fill-opacity: 0.2; stroke-width: 0; opacity: 1;"/><path class="sankey-link" d="M228,147.99999999999977C270,147.99999999999977 270,265.75999999999976 312,265.75999999999976L312,283.03999999999974C270,283.03999999999974 270,165.27999999999975 228,165.27999999999975Z" style="stroke: rgb(68, 68, 68); stroke-opacity: 1; fill: rgb(0, 0, 0); fill-opacity: 0.2; stroke-width: 0; opacity: 1;"/><path class="sankey-link" d="M228,134.07999999999976C270,134.07999999999976 270,208.31999999999965 312,208.31999999999965L312,222.23999999999967C270,222.23999999999967 270,147.99999999999977 228,147.99999999999977Z" style="stroke: rgb(68, 68, 68); stroke-opacity: 1; fill: rgb(0, 0, 0); fill-opacity: 0.2; stroke-width: 0; opacity: 1;"/><path class="sankey-link" d="M332,104.31999999999965C374,104.31999999999965 374,67.0400000000003 416,67.0400000000003L416,100.6400000000003C374,100.6400000000003 374,137.91999999999965 332,137.91999999999965Z" style="stroke: rgb(68, 68, 68); stroke-opacity: 1; fill: rgb(0, 0, 0); fill-opacity: 0.2; stroke-width: 0; opacity: 1;"/><path class="sankey-link" d="M332,158.55999999999966C374,158.55999999999966 374,287.36 416,287.36L416,306.56000000000006C374,306.56000000000006 374,177.75999999999965 332,177.75999999999965Z" style="stroke: rgb(68, 68, 68); stroke-opacity: 1; fill: rgb(0, 0, 0); fill-opacity: 0.2; stroke-width: 0; opacity: 1;"/><path class="sankey-link" d="M332,137.91999999999965C374,137.91999999999965 374,237.1200000000003 416,237.1200000000003L416,257.7600000000003C374,257.7600000000003 374,158.55999999999963 332,158.55999999999963Z" style="stroke: rgb(68, 68, 68); stroke-opacity: 1; fill: rgb(0, 0, 0); fill-opacity: 0.2; stroke-width: 0; opacity: 1;"/><path class="sankey-link" d="M332,206.39999999999964C374,206.39999999999964 374,145.1200000000002 416,145.1200000000002L416,167.2000000000002C374,167.2000000000002 374,228.47999999999962 332,228.47999999999962Z" style="stroke: rgb(68, 68, 68); stroke-opacity: 1; fill: rgb(0, 0, 0); fill-opacity: 0.2; stroke-width: 0; opacity: 1;"/><path class="sankey-link" d="M332,228.47999999999962C374,228.47999999999962 374,306.56 416,306.56L416,320.00000000000006C374,320.00000000000006 374,241.91999999999962 332,241.91999999999962Z" style="stroke: rgb(68, 68, 68); stroke-opacity: 1; fill: rgb(0, 0, 0); fill-opacity: 0.2; stroke-width: 0; opacity: 1;"/><path class="sankey-link" d="M332,197.75999999999965C374,197.75999999999965 374,100.6400000000003 416,100.6400000000003L416,109.28000000000029C374,109.28000000000029 374,206.39999999999964 332,206.39999999999964Z" style="stroke: rgb(68, 68, 68); stroke-opacity: 1; fill: rgb(0, 0, 0); fill-opacity: 0.2; stroke-width: 0; opacity: 1;"/><path class="sankey-link" d="M332,268.1599999999998C374,268.1599999999998 374,167.20000000000022 416,167.20000000000022L416,209.44000000000023C374,209.44000000000023 374,310.3999999999998 332,310.3999999999998Z" style="stroke: rgb(68, 68, 68); stroke-opacity: 1; fill: rgb(0, 0, 0); fill-opacity: 0.2; stroke-width: 0; opacity: 1;"/><path class="sankey-link" d="M332,310.3999999999998C374,310.3999999999998 374,257.7600000000003 416,257.7600000000003L416,267.3600000000003C374,267.3600000000003 374,319.99999999999983 332,319.99999999999983Z" style="stroke: rgb(68, 68, 68); stroke-opacity: 1; fill: rgb(0, 0, 0); fill-opacity: 0.2; stroke-width: 0; opacity: 1;"/><path class="sankey-link" d="M332,261.9199999999998C374,261.9199999999998 374,109.2800000000003 416,109.2800000000003L416,115.52000000000031C374,115.52000000000031 374,268.1599999999998 332,268.1599999999998Z" style="stroke: rgb(68, 68, 68); stroke-opacity: 1; fill: rgb(0, 0, 0); fill-opacity: 0.2; stroke-width: 0; opacity: 1;"/><path class="sankey-link" d="M332,19.999999999999627C374,19.999999999999627 374,20.000000000000295 416,20.000000000000295L416,67.04000000000029C374,67.04000000000029 374,67.03999999999962 332,67.03999999999962Z" style="stroke: rgb(68, 68, 68); stroke-opacity: 1; fill: rgb(0, 0, 0); fill-opacity: 0.2; stroke-width: 0; opacity: 1;"/><path class="sankey-link" d="M332,76.63999999999962C374,76.63999999999962 374,229.44000000000028 416,229.44000000000028L416,237.1200000000003C374,237.1200000000003 374,84.31999999999962 332,84.31999999999962Z" style="stroke: rgb(68, 68, 68); stroke-opacity: 1; fill: rgb(0, 0, 0); fill-opacity: 0.2; stroke-width: 0; opacity: 1;"/><path class="sankey-link" d="M332,67.03999999999962C374,67.03999999999962 374,135.5200000000002 416,135.5200000000002L416,145.12000000000023C374,145.12000000000023 374,76.63999999999962 332,76.63999999999962Z" style="stroke: rgb(68, 68, 68); stroke-opacity: 1; fill: rgb(0, 0, 0); fill-opacity: 0.2; stroke-width: 0; opacity: 1;"/><path class="sankey-link" d="M436,135.5200000000002C478,135.5200000000002 478,135.52000000000004 520,135.52000000000004L520,209.44000000000005C478,209.44000000000005 478,209.44000000000023 436,209.44000000000023Z" style="stroke: rgb(68, 68, 68); stroke-opacity: 1; fill: rgb(0, 0, 0); fill-opacity: 0.2; stroke-width: 0; opacity: 1;"/><path class="sankey-link" d="M436,20.000000000000306C478,20.000000000000306 478,19.999999999999993 520,19.999999999999993L520,115.51999999999998C478,115.51999999999998 478,115.5200000000003 436,115.5200000000003Z" style="stroke: rgb(68, 68, 68); stroke-opacity: 1; fill: rgb(0, 0, 0); fill-opacity: 0.2; stroke-width: 0; opacity: 1;"/><path class="sankey-link" d="M436,229.44000000000028C478,229.44000000000028 478,229.4400000000001 520,229.4400000000001L520,267.3600000000001C478,267.3600000000001 478,267.3600000000003 436,267.3600000000003Z" style="stroke: rgb(68, 68, 68); stroke-opacity: 1; fill: rgb(0, 0, 0); fill-opacity: 0.2; stroke-width: 0; opacity: 1;"/><path class="sankey-link" d="M436,287.36C478,287.36 478,287.36000000000007 520,287.36000000000007L520,320.00000000000006C478,320.00000000000006 478,320 436,320Z" style="stroke: rgb(68, 68, 68); stroke-opacity: 1; fill: rgb(0, 0, 0); fill-opacity: 0.2; stroke-width: 0; opacity: 1;"/></g><g class="sankey-node-set" style="cursor: move;"><g class="sankey-node" transform="translate(0.000,136.000)" style="opacity: 1;"><rect class="node-rect" width="20" height="48" style="stroke-width: 0; stroke: rgb(128, 0, 128); stroke-opacity: 1; fill: rgb(87, 74, 226); fill-opacity: 1;"/><rect class="node-capture" x="-10" y="-10" width="40" height="68" style="fill-opacity: 0;"/><g class="node-entered" transform="translate(0,25)"><path class="node-label-guide" id="169d8a_0_node_0" d="M24,0L540,0" transform="matrix(1 0 0 1 0 0)"/><text class="node-label" transform="scale(1 1)" style="cursor: default; fill: rgb(42, 63, 95); text-shadow: rgb(255, 255, 255) -1px 1px 1px, rgb(255, 255, 255) 1px 1px 1px, rgb(255, 255, 255) 1px -1px 1px, rgb(255, 255, 255) -1px -1px 1px; font-family: 'Open Sans', verdana, arial, sans-serif; font-size: 10px; fill-opacity: 1;"><textPath class="node-label-text-path" alignment-baseline="middle" xlink:href="#169d8a_0_node_0" startOffset="0%" text-anchor="start" style="fill: rgb(0, 0, 0);">A1</textPath></text></g></g><g class="sankey-node" transform="translate(0.000,0.000)" style="opacity: 1;"><rect class="node-rect" width="20" height="47.99999999999998" style="stroke-width: 0; stroke: rgb(128, 0, 128); stroke-opacity: 1; fill: rgb(87, 74, 226); fill-opacity: 1;"/><rect class="node-capture" x="-10" y="-10" width="40" height="67.99999999999997" style="fill-opacity: 0;"/><g class="node-entered" transform="translate(0,24.99999999999999)"><path class="node-label-guide" id="169d8a_0_node_1" d="M24,0L540,0" transform="matrix(1 0 0 1 0 0)"/><text class="node-label" transform="scale(1 1)" style="cursor: default; fill: rgb(42, 63, 95); text-shadow: rgb(255, 255, 255) -1px 1px 1px, rgb(255, 255, 255) 1px 1px 1px, rgb(255, 255, 255) 1px -1px 1px, rgb(255, 255, 255) -1px -1px 1px; font-family: 'Open Sans', verdana, arial, sans-serif; font-size: 10px; fill-opacity: 1;"><textPath class="node-label-text-path" alignment-baseline="middle" xlink:href="#169d8a_0_node_1" startOffset="0%" text-anchor="start" style="fill: rgb(0, 0, 0);">A2</textPath></text></g></g><g class="sankey-node" transform="translate(0.000,68.000)" style="opacity: 1;"><rect class="node-rect" width="20" height="48.00000000000006" style="stroke-width: 0; stroke: rgb(128, 0, 128); stroke-opacity: 1; fill: rgb(87, 74, 226); fill-opacity: 1;"/><rect class="node-capture" x="-10" y="-10" width="40" height="68.00000000000006" style="fill-opacity: 0;"/><g class="node-entered" transform="translate(0,25.00000000000003)"><path class="node-label-guide" id="169d8a_0_node_2" d="M24,0L540,0" transform="matrix(1 0 0 1 0 0)"/><text class="node-label" transform="scale(1 1)" style="cursor: default; fill: rgb(42, 63, 95); text-shadow: rgb(255, 255, 255) -1px 1px 1px, rgb(255, 255, 255) 1px 1px 1px, rgb(255, 255, 255) 1px -1px 1px, rgb(255, 255, 255) -1px -1px 1px; font-family: 'Open Sans', verdana, arial, sans-serif; font-size: 10px; fill-opacity: 1;"><textPath class="node-label-text-path" alignment-baseline="middle" xlink:href="#169d8a_0_node_2" startOffset="0%" text-anchor="start" style="fill: rgb(0, 0, 0);">A3</textPath></text></g></g><g class="sankey-node" transform="translate(0.000,272.000)" style="opacity: 1;"><rect class="node-rect" width="20" height="47.99999999999983" style="stroke-width: 0; stroke: rgb(128, 0, 128); stroke-opacity: 1; fill: rgb(87, 74, 226); fill-opacity: 1;"/><rect class="node-capture" x="-10" y="-10" width="40" height="67.99999999999983" style="fill-opacity: 0;"/><g class="node-entered" transform="translate(0,24.999999999999915)"><path class="node-label-guide" id="169d8a_0_node_3" d="M24,0L540,0" transform="matrix(1 0 0 1 0 0)"/><text class="node-label" transform="scale(1 1)" style="cursor: default; fill: rgb(42, 63, 95); text-shadow: rgb(255, 255, 255) -1px 1px 1px, rgb(255, 255, 255) 1px 1px 1px, rgb(255, 255, 255) 1px -1px 1px, rgb(255, 255, 255) -1px -1px 1px; font-family: 'Open Sans', verdana, arial, sans-serif; font-size: 10px; fill-opacity: 1;"><textPath class="node-label-text-path" alignment-baseline="middle" xlink:href="#169d8a_0_node_3" startOffset="0%" text-anchor="start" style="fill: rgb(0, 0, 0);">A4</textPath></text></g></g><g class="sankey-node" transform="translate(0.000,204.000)" style="opacity: 1;"><rect class="node-rect" width="20" height="48.00000000000003" style="stroke-width: 0; stroke: rgb(128, 0, 128); stroke-opacity: 1; fill: rgb(87, 74, 226); fill-opacity: 1;"/><rect class="node-capture" x="-10" y="-10" width="40" height="68.00000000000003" style="fill-opacity: 0;"/><g class="node-entered" transform="translate(0,25.000000000000014)"><path class="node-label-guide" id="169d8a_0_node_4" d="M24,0L540,0" transform="matrix(1 0 0 1 0 0)"/><text class="node-label" transform="scale(1 1)" style="cursor: default; fill: rgb(42, 63, 95); text-shadow: rgb(255, 255, 255) -1px 1px 1px, rgb(255, 255, 255) 1px 1px 1px, rgb(255, 255, 255) 1px -1px 1px, rgb(255, 255, 255) -1px -1px 1px; font-family: 'Open Sans', verdana, arial, sans-serif; font-size: 10px; fill-opacity: 1;"><textPath class="node-label-text-path" alignment-baseline="middle" xlink:href="#169d8a_0_node_4" startOffset="0%" text-anchor="start" style="fill: rgb(0, 0, 0);">A5</textPath></text></g></g><g class="sankey-node" transform="translate(104.000,20.000)" style="opacity: 1;"><rect class="node-rect" width="20" height="81.59999999999987" style="stroke-width: 0; stroke: rgb(128, 0, 128); stroke-opacity: 1; fill: rgb(87, 74, 226); fill-opacity: 1;"/><rect class="node-capture" x="-10" y="-10" width="40" height="101.59999999999987" style="fill-opacity: 0;"/><g class="node-entered" transform="translate(0,41.79999999999993)"><path class="node-label-guide" id="169d8a_0_node_5" d="M24,0L540,0" transform="matrix(1 0 0 1 0 0)"/><text class="node-label" transform="scale(1 1)" style="cursor: default; fill: rgb(42, 63, 95); text-shadow: rgb(255, 255, 255) -1px 1px 1px, rgb(255, 255, 255) 1px 1px 1px, rgb(255, 255, 255) 1px -1px 1px, rgb(255, 255, 255) -1px -1px 1px; font-family: 'Open Sans', verdana, arial, sans-serif; font-size: 10px; fill-opacity: 1;"><textPath class="node-label-text-path" alignment-baseline="middle" xlink:href="#169d8a_0_node_5" startOffset="0%" text-anchor="start" style="fill: rgb(0, 0, 0);">B1</textPath></text></g></g><g class="sankey-node" transform="translate(104.000,175.680)" style="opacity: 1;"><rect class="node-rect" width="20" height="46.080000000000155" style="stroke-width: 0; stroke: rgb(128, 0, 128); stroke-opacity: 1; fill: rgb(87, 74, 226); fill-opacity: 1;"/><rect class="node-capture" x="-10" y="-10" width="40" height="66.08000000000015" style="fill-opacity: 0;"/><g class="node-entered" transform="translate(0,24.040000000000077)"><path class="node-label-guide" id="169d8a_0_node_6" d="M24,0L540,0" transform="matrix(1 0 0 1 0 0)"/><text class="node-label" transform="scale(1 1)" style="cursor: default; fill: rgb(42, 63, 95); text-shadow: rgb(255, 255, 255) -1px 1px 1px, rgb(255, 255, 255) 1px 1px 1px, rgb(255, 255, 255) 1px -1px 1px, rgb(255, 255, 255) -1px -1px 1px; font-family: 'Open Sans', verdana, arial, sans-serif; font-size: 10px; fill-opacity: 1;"><textPath class="node-label-text-path" alignment-baseline="middle" xlink:href="#169d8a_0_node_6" startOffset="0%" text-anchor="start" style="fill: rgb(0, 0, 0);">B2</textPath></text></g></g><g class="sankey-node" transform="translate(104.000,121.600)" style="opacity: 1;"><rect class="node-rect" width="20" height="34.07999999999993" style="stroke-width: 0; stroke: rgb(128, 0, 128); stroke-opacity: 1; fill: rgb(87, 74, 226); fill-opacity: 1;"/><rect class="node-capture" x="-10" y="-10" width="40" height="54.07999999999993" style="fill-opacity: 0;"/><g class="node-entered" transform="translate(0,18.039999999999964)"><path class="node-label-guide" id="169d8a_0_node_7" d="M24,0L540,0" transform="matrix(1 0 0 1 0 0)"/><text class="node-label" transform="scale(1 1)" style="cursor: default; fill: rgb(42, 63, 95); text-shadow: rgb(255, 255, 255) -1px 1px 1px, rgb(255, 255, 255) 1px 1px 1px, rgb(255, 255, 255) 1px -1px 1px, rgb(255, 255, 255) -1px -1px 1px; font-family: 'Open Sans', verdana, arial, sans-serif; font-size: 10px; fill-opacity: 1;"><textPath class="node-label-text-path" alignment-baseline="middle" xlink:href="#169d8a_0_node_7" startOffset="0%" text-anchor="start" style="fill: rgb(0, 0, 0);">B3</textPath></text></g></g><g class="sankey-node" transform="translate(104.000,241.760)" style="opacity: 1;"><rect class="node-rect" width="20" height="78.24000000000012" style="stroke-width: 0; stroke: rgb(128, 0, 128); stroke-opacity: 1; fill: rgb(87, 74, 226); fill-opacity: 1;"/><rect class="node-capture" x="-10" y="-10" width="40" height="98.24000000000012" style="fill-opacity: 0;"/><g class="node-entered" transform="translate(0,40.12000000000006)"><path class="node-label-guide" id="169d8a_0_node_8" d="M24,0L540,0" transform="matrix(1 0 0 1 0 0)"/><text class="node-label" transform="scale(1 1)" style="cursor: default; fill: rgb(42, 63, 95); text-shadow: rgb(255, 255, 255) -1px 1px 1px, rgb(255, 255, 255) 1px 1px 1px, rgb(255, 255, 255) 1px -1px 1px, rgb(255, 255, 255) -1px -1px 1px; font-family: 'Open Sans', verdana, arial, sans-serif; font-size: 10px; fill-opacity: 1;"><textPath class="node-label-text-path" alignment-baseline="middle" xlink:href="#169d8a_0_node_8" startOffset="0%" text-anchor="start" style="fill: rgb(0, 0, 0);">B4</textPath></text></g></g><g class="sankey-node" transform="translate(208.000,261.440)" style="opacity: 1;"><rect class="node-rect" width="20" height="58.56" style="stroke-width: 0; stroke: rgb(128, 0, 128); stroke-opacity: 1; fill: rgb(87, 74, 226); fill-opacity: 1;"/><rect class="node-capture" x="-10" y="-10" width="40" height="78.56" style="fill-opacity: 0;"/><g class="node-entered" transform="translate(0,30.28)"><path class="node-label-guide" id="169d8a_0_node_9" d="M24,0L540,0" transform="matrix(1 0 0 1 0 0)"/><text class="node-label" transform="scale(1 1)" style="cursor: default; fill: rgb(42, 63, 95); text-shadow: rgb(255, 255, 255) -1px 1px 1px, rgb(255, 255, 255) 1px 1px 1px, rgb(255, 255, 255) 1px -1px 1px, rgb(255, 255, 255) -1px -1px 1px; font-family: 'Open Sans', verdana, arial, sans-serif; font-size: 10px; fill-opacity: 1;"><textPath class="node-label-text-path" alignment-baseline="middle" xlink:href="#169d8a_0_node_9" startOffset="0%" text-anchor="start" style="fill: rgb(0, 0, 0);">C1</textPath></text></g></g><g class="sankey-node" transform="translate(208.000,185.280)" style="opacity: 1;"><rect class="node-rect" width="20" height="56.16000000000008" style="stroke-width: 0; stroke: rgb(128, 0, 128); stroke-opacity: 1; fill: rgb(87, 74, 226); fill-opacity: 1;"/><rect class="node-capture" x="-10" y="-10" width="40" height="76.16000000000008" style="fill-opacity: 0;"/><g class="node-entered" transform="translate(0,29.08000000000004)"><path class="node-label-guide" id="169d8a_0_node_10" d="M24,0L540,0" transform="matrix(1 0 0 1 0 0)"/><text class="node-label" transform="scale(1 1)" style="cursor: default; fill: rgb(42, 63, 95); text-shadow: rgb(255, 255, 255) -1px 1px 1px, rgb(255, 255, 255) 1px 1px 1px, rgb(255, 255, 255) 1px -1px 1px, rgb(255, 255, 255) -1px -1px 1px; font-family: 'Open Sans', verdana, arial, sans-serif; font-size: 10px; fill-opacity: 1;"><textPath class="node-label-text-path" alignment-baseline="middle" xlink:href="#169d8a_0_node_10" startOffset="0%" text-anchor="start" style="fill: rgb(0, 0, 0);">C2</textPath></text></g></g><g class="sankey-node" transform="translate(208.000,20.000)" style="opacity: 1;"><rect class="node-rect" width="20" height="36.96000000000002" style="stroke-width: 0; stroke: rgb(128, 0, 128); stroke-opacity: 1; fill: rgb(87, 74, 226); fill-opacity: 1;"/><rect class="node-capture" x="-10" y="-10" width="40" height="56.96000000000002" style="fill-opacity: 0;"/><g class="node-entered" transform="translate(0,19.48000000000001)"><path class="node-label-guide" id="169d8a_0_node_11" d="M24,0L540,0" transform="matrix(1 0 0 1 0 0)"/><text class="node-label" transform="scale(1 1)" style="cursor: default; fill: rgb(42, 63, 95); text-shadow: rgb(255, 255, 255) -1px 1px 1px, rgb(255, 255, 255) 1px 1px 1px, rgb(255, 255, 255) 1px -1px 1px, rgb(255, 255, 255) -1px -1px 1px; font-family: 'Open Sans', verdana, arial, sans-serif; font-size: 10px; fill-opacity: 1;"><textPath class="node-label-text-path" alignment-baseline="middle" xlink:href="#169d8a_0_node_11" startOffset="0%" text-anchor="start" style="fill: rgb(0, 0, 0);">C3</textPath></text></g></g><g class="sankey-node" transform="translate(208.000,76.960)" style="opacity: 1;"><rect class="node-rect" width="20" height="88.32000000000015" style="stroke-width: 0; stroke: rgb(128, 0, 128); stroke-opacity: 1; fill: rgb(87, 74, 226); fill-opacity: 1;"/><rect class="node-capture" x="-10" y="-10" width="40" height="108.32000000000015" style="fill-opacity: 0;"/><g class="node-entered" transform="translate(0,45.160000000000075)"><path class="node-label-guide" id="169d8a_0_node_12" d="M24,0L540,0" transform="matrix(1 0 0 1 0 0)"/><text class="node-label" transform="scale(1 1)" style="cursor: default; fill: rgb(42, 63, 95); text-shadow: rgb(255, 255, 255) -1px 1px 1px, rgb(255, 255, 255) 1px 1px 1px, rgb(255, 255, 255) 1px -1px 1px, rgb(255, 255, 255) -1px -1px 1px; font-family: 'Open Sans', verdana, arial, sans-serif; font-size: 10px; fill-opacity: 1;"><textPath class="node-label-text-path" alignment-baseline="middle" xlink:href="#169d8a_0_node_12" startOffset="0%" text-anchor="start" style="fill: rgb(0, 0, 0);">C4</textPath></text></g></g><g class="sankey-node" transform="translate(312.000,104.320)" style="opacity: 1;"><rect class="node-rect" width="20" height="73.44" style="stroke-width: 0; stroke: rgb(128, 0, 128); stroke-opacity: 1; fill: rgb(87, 74, 226); fill-opacity: 1;"/><rect class="node-capture" x="-10" y="-10" width="40" height="93.44" style="fill-opacity: 0;"/><g class="node-entered" transform="translate(0,37.72)"><path class="node-label-guide" id="169d8a_0_node_13" d="M24,0L540,0" transform="matrix(1 0 0 1 0 0)"/><text class="node-label" transform="scale(1 1)" style="cursor: default; fill: rgb(42, 63, 95); text-shadow: rgb(255, 255, 255) -1px 1px 1px, rgb(255, 255, 255) 1px 1px 1px, rgb(255, 255, 255) 1px -1px 1px, rgb(255, 255, 255) -1px -1px 1px; font-family: 'Open Sans', verdana, arial, sans-serif; font-size: 10px; fill-opacity: 1;"><textPath class="node-label-text-path" alignment-baseline="middle" xlink:href="#169d8a_0_node_13" startOffset="0%" text-anchor="start" style="fill: rgb(0, 0, 0);">D1</textPath></text></g></g><g class="sankey-node" transform="translate(312.000,197.760)" style="opacity: 1;"><rect class="node-rect" width="20" height="44.16000000000014" style="stroke-width: 0; stroke: rgb(128, 0, 128); stroke-opacity: 1; fill: rgb(87, 74, 226); fill-opacity: 1;"/><rect class="node-capture" x="-10" y="-10" width="40" height="64.16000000000014" style="fill-opacity: 0;"/><g class="node-entered" transform="translate(0,23.08000000000007)"><path class="node-label-guide" id="169d8a_0_node_14" d="M24,0L540,0" transform="matrix(1 0 0 1 0 0)"/><text class="node-label" transform="scale(1 1)" style="cursor: default; fill: rgb(42, 63, 95); text-shadow: rgb(255, 255, 255) -1px 1px 1px, rgb(255, 255, 255) 1px 1px 1px, rgb(255, 255, 255) 1px -1px 1px, rgb(255, 255, 255) -1px -1px 1px; font-family: 'Open Sans', verdana, arial, sans-serif; font-size: 10px; fill-opacity: 1;"><textPath class="node-label-text-path" alignment-baseline="middle" xlink:href="#169d8a_0_node_14" startOffset="0%" text-anchor="start" style="fill: rgb(0, 0, 0);">D2</textPath></text></g></g><g class="sankey-node" transform="translate(312.000,261.920)" style="opacity: 1;"><rect class="node-rect" width="20" height="58.08000000000021" style="stroke-width: 0; stroke: rgb(128, 0, 128); stroke-opacity: 1; fill: rgb(87, 74, 226); fill-opacity: 1;"/><rect class="node-capture" x="-10" y="-10" width="40" height="78.08000000000021" style="fill-opacity: 0;"/><g class="node-entered" transform="translate(0,30.040000000000106)"><path class="node-label-guide" id="169d8a_0_node_15" d="M24,0L540,0" transform="matrix(1 0 0 1 0 0)"/><text class="node-label" transform="scale(1 1)" style="cursor: default; fill: rgb(42, 63, 95); text-shadow: rgb(255, 255, 255) -1px 1px 1px, rgb(255, 255, 255) 1px 1px 1px, rgb(255, 255, 255) 1px -1px 1px, rgb(255, 255, 255) -1px -1px 1px; font-family: 'Open Sans', verdana, arial, sans-serif; font-size: 10px; fill-opacity: 1;"><textPath class="node-label-text-path" alignment-baseline="middle" xlink:href="#169d8a_0_node_15" startOffset="0%" text-anchor="start" style="fill: rgb(0, 0, 0);">D3</textPath></text></g></g><g class="sankey-node" transform="translate(312.000,20.000)" style="opacity: 1;"><rect class="node-rect" width="20" height="64.32000000000002" style="stroke-width: 0; stroke: rgb(128, 0, 128); stroke-opacity: 1; fill: rgb(87, 74, 226); fill-opacity: 1;"/><rect class="node-capture" x="-10" y="-10" width="40" height="84.32000000000002" style="fill-opacity: 0;"/><g class="node-entered" transform="translate(0,33.16000000000001)"><path class="node-label-guide" id="169d8a_0_node_16" d="M24,0L540,0" transform="matrix(1 0 0 1 0 0)"/><text class="node-label" transform="scale(1 1)" style="cursor: default; fill: rgb(42, 63, 95); text-shadow: rgb(255, 255, 255) -1px 1px 1px, rgb(255, 255, 255) 1px 1px 1px, rgb(255, 255, 255) 1px -1px 1px, rgb(255, 255, 255) -1px -1px 1px; font-family: 'Open Sans', verdana, arial, sans-serif; font-size: 10px; fill-opacity: 1;"><textPath class="node-label-text-path" alignment-baseline="middle" xlink:href="#169d8a_0_node_16" startOffset="0%" text-anchor="start" style="fill: rgb(0, 0, 0);">D4</textPath></text></g></g><g class="sankey-node" transform="translate(416.000,135.520)" style="opacity: 1;"><rect class="node-rect" width="20" height="73.9200000000001" style="stroke-width: 0; stroke: rgb(128, 0, 128); stroke-opacity: 1; fill: rgb(87, 74, 226); fill-opacity: 1;"/><rect class="node-capture" x="-10" y="-10" width="40" height="93.9200000000001" style="fill-opacity: 0;"/><g class="node-entered" transform="translate(0,37.96000000000005)"><path class="node-label-guide" id="169d8a_0_node_17" d="M24,0L540,0" transform="matrix(1 0 0 1 0 0)"/><text class="node-label" transform="scale(1 1)" style="cursor: default; fill: rgb(42, 63, 95); text-shadow: rgb(255, 255, 255) -1px 1px 1px, rgb(255, 255, 255) 1px 1px 1px, rgb(255, 255, 255) 1px -1px 1px, rgb(255, 255, 255) -1px -1px 1px; font-family: 'Open Sans', verdana, arial, sans-serif; font-size: 10px; fill-opacity: 1;"><textPath class="node-label-text-path" alignment-baseline="middle" xlink:href="#169d8a_0_node_17" startOffset="0%" text-anchor="start" style="fill: rgb(0, 0, 0);">E1</textPath></text></g></g><g class="sankey-node" transform="translate(416.000,20.000)" style="opacity: 1;"><rect class="node-rect" width="20" height="95.51999999999991" style="stroke-width: 0; stroke: rgb(128, 0, 128); stroke-opacity: 1; fill: rgb(87, 74, 226); fill-opacity: 1;"/><rect class="node-capture" x="-10" y="-10" width="40" height="115.51999999999991" style="fill-opacity: 0;"/><g class="node-entered" transform="translate(0,48.759999999999955)"><path class="node-label-guide" id="169d8a_0_node_18" d="M24,0L540,0" transform="matrix(1 0 0 1 0 0)"/><text class="node-label" transform="scale(1 1)" style="cursor: default; fill: rgb(42, 63, 95); text-shadow: rgb(255, 255, 255) -1px 1px 1px, rgb(255, 255, 255) 1px 1px 1px, rgb(255, 255, 255) 1px -1px 1px, rgb(255, 255, 255) -1px -1px 1px; font-family: 'Open Sans', verdana, arial, sans-serif; font-size: 10px; fill-opacity: 1;"><textPath class="node-label-text-path" alignment-baseline="middle" xlink:href="#169d8a_0_node_18" startOffset="0%" text-anchor="start" style="fill: rgb(0, 0, 0);">E2</textPath></text></g></g><g class="sankey-node" transform="translate(416.000,229.440)" style="opacity: 1;"><rect class="node-rect" width="20" height="37.91999999999973" style="stroke-width: 0; stroke: rgb(128, 0, 128); stroke-opacity: 1; fill: rgb(87, 74, 226); fill-opacity: 1;"/><rect class="node-capture" x="-10" y="-10" width="40" height="57.91999999999973" style="fill-opacity: 0;"/><g class="node-entered" transform="translate(0,19.959999999999866)"><path class="node-label-guide" id="169d8a_0_node_19" d="M24,0L540,0" transform="matrix(1 0 0 1 0 0)"/><text class="node-label" transform="scale(1 1)" style="cursor: default; fill: rgb(42, 63, 95); text-shadow: rgb(255, 255, 255) -1px 1px 1px, rgb(255, 255, 255) 1px 1px 1px, rgb(255, 255, 255) 1px -1px 1px, rgb(255, 255, 255) -1px -1px 1px; font-family: 'Open Sans', verdana, arial, sans-serif; font-size: 10px; fill-opacity: 1;"><textPath class="node-label-text-path" alignment-baseline="middle" xlink:href="#169d8a_0_node_19" startOffset="0%" text-anchor="start" style="fill: rgb(0, 0, 0);">E3</textPath></text></g></g><g class="sankey-node" transform="translate(416.000,287.360)" style="opacity: 1;"><rect class="node-rect" width="20" height="32.639999999999986" style="stroke-width: 0; stroke: rgb(128, 0, 128); stroke-opacity: 1; fill: rgb(87, 74, 226); fill-opacity: 1;"/><rect class="node-capture" x="-10" y="-10" width="40" height="52.639999999999986" style="fill-opacity: 0;"/><g class="node-entered" transform="translate(0,17.319999999999993)"><path class="node-label-guide" id="169d8a_0_node_20" d="M24,0L540,0" transform="matrix(1 0 0 1 0 0)"/><text class="node-label" transform="scale(1 1)" style="cursor: default; fill: rgb(42, 63, 95); text-shadow: rgb(255, 255, 255) -1px 1px 1px, rgb(255, 255, 255) 1px 1px 1px, rgb(255, 255, 255) 1px -1px 1px, rgb(255, 255, 255) -1px -1px 1px; font-family: 'Open Sans', verdana, arial, sans-serif; font-size: 10px; fill-opacity: 1;"><textPath class="node-label-text-path" alignment-baseline="middle" xlink:href="#169d8a_0_node_20" startOffset="0%" text-anchor="start" style="fill: rgb(0, 0, 0);">E4</textPath></text></g></g><g class="sankey-node" transform="translate(520.000,20.000)" style="opacity: 1;"><rect class="node-rect" width="20" height="95.52000000000004" style="stroke-width: 0; stroke: rgb(128, 0, 128); stroke-opacity: 1; fill: rgb(87, 74, 226); fill-opacity: 1;"/><rect class="node-capture" x="-10" y="-10" width="40" height="115.52000000000004" style="fill-opacity: 0;"/><g class="node-entered" transform="translate(0,48.76000000000002)"><path class="node-label-guide" id="169d8a_0_node_21" d="M-540,0L-4,0" transform="matrix(1 0 0 1 0 0)"/><text class="node-label" transform="scale(1 1)" style="cursor: default; fill: rgb(42, 63, 95); text-shadow: rgb(255, 255, 255) -1px 1px 1px, rgb(255, 255, 255) 1px 1px 1px, rgb(255, 255, 255) 1px -1px 1px, rgb(255, 255, 255) -1px -1px 1px; font-family: 'Open Sans', verdana, arial, sans-serif; font-size: 10px; fill-opacity: 1;"><textPath class="node-label-text-path" alignment-baseline="middle" xlink:href="#169d8a_0_node_21" startOffset="100%" text-anchor="end" style="fill: rgb(0, 0, 0);">F1</textPath></text></g></g><g class="sankey-node" transform="translate(520.000,229.440)" style="opacity: 1;"><rect class="node-rect" width="20" height="37.91999999999996" style="stroke-width: 0; stroke: rgb(128, 0, 128); stroke-opacity: 1; fill: rgb(87, 74, 226); fill-opacity: 1;"/><rect class="node-capture" x="-10" y="-10" width="40" height="57.91999999999996" style="fill-opacity: 0;"/><g class="node-entered" transform="translate(0,19.95999999999998)"><path class="node-label-guide" id="169d8a_0_node_22" d="M-540,0L-4,0" transform="matrix(1 0 0 1 0 0)"/><text class="node-label" transform="scale(1 1)" style="cursor: default; fill: rgb(42, 63, 95); text-shadow: rgb(255, 255, 255) -1px 1px 1px, rgb(255, 255, 255) 1px 1px 1px, rgb(255, 255, 255) 1px -1px 1px, rgb(255, 255, 255) -1px -1px 1px; font-family: 'Open Sans', verdana, arial, sans-serif; font-size: 10px; fill-opacity: 1;"><textPath class="node-label-text-path" alignment-baseline="middle" xlink:href="#169d8a_0_node_22" startOffset="100%" text-anchor="end" style="fill: rgb(0, 0, 0);">F2</textPath></text></g></g><g class="sankey-node" transform="translate(520.000,135.520)" style="opacity: 1;"><rect class="node-rect" width="20" height="73.92000000000007" style="stroke-width: 0; stroke: rgb(128, 0, 128); stroke-opacity: 1; fill: rgb(87, 74, 226); fill-opacity: 1;"/><rect class="node-capture" x="-10" y="-10" width="40" height="93.92000000000007" style="fill-opacity: 0;"/><g class="node-entered" transform="translate(0,37.960000000000036)"><path class="node-label-guide" id="169d8a_0_node_23" d="M-540,0L-4,0" transform="matrix(1 0 0 1 0 0)"/><text class="node-label" transform="scale(1 1)" style="cursor: default; fill: rgb(42, 63, 95); text-shadow: rgb(255, 255, 255) -1px 1px 1px, rgb(255, 255, 255) 1px 1px 1px, rgb(255, 255, 255) 1px -1px 1px, rgb(255, 255, 255) -1px -1px 1px; font-family: 'Open Sans', verdana, arial, sans-serif; font-size: 10px; fill-opacity: 1;"><textPath class="node-label-text-path" alignment-baseline="middle" xlink:href="#169d8a_0_node_23" startOffset="100%" text-anchor="end" style="fill: rgb(0, 0, 0);">F3</textPath></text></g></g><g class="sankey-node" transform="translate(520.000,287.360)" style="opacity: 1;"><rect class="node-rect" width="20" height="32.63999999999993" style="stroke-width: 0; stroke: rgb(128, 0, 128); stroke-opacity: 1; fill: rgb(87, 74, 226); fill-opacity: 1;"/><rect class="node-capture" x="-10" y="-10" width="40" height="52.63999999999993" style="fill-opacity: 0;"/><g class="node-entered" transform="translate(0,17.319999999999965)"><path class="node-label-guide" id="169d8a_0_node_24" d="M-540,0L-4,0" transform="matrix(1 0 0 1 0 0)"/><text class="node-label" transform="scale(1 1)" style="cursor: default; fill: rgb(42, 63, 95); text-shadow: rgb(255, 255, 255) -1px 1px 1px, rgb(255, 255, 255) 1px 1px 1px, rgb(255, 255, 255) 1px -1px 1px, rgb(255, 255, 255) -1px -1px 1px; font-family: 'Open Sans', verdana, arial, sans-serif; font-size: 10px; fill-opacity: 1;"><textPath class="node-label-text-path" alignment-baseline="middle" xlink:href="#169d8a_0_node_24" startOffset="100%" text-anchor="end" style="fill: rgb(0, 0, 0);">F4</textPath></text></g></g></g></g><defs id="topdefs-32b63d"><g class="clips"/></defs><g class="layer-above"><g class="imagelayer"/><g class="shapelayer"/></g><g class="infolayer"><g class="g-gtitle"><text class="gtitle" x="35" y="50" text-anchor="start" dy="0em" style="font-family: 'Open Sans', verdana, arial, sans-serif; font-size: 14px; fill: rgb(42, 63, 95); opacity: 1; font-weight: normal; white-space: pre;">Sankey Diagram 27</text></g><g class="first-render"/></g></svg>