<svg class="main-svg" xmlns="http://www.w3.org/2000/svg" xmlns:xlink="http://www.w3.org/1999/xlink" width="700" height="500" style="" viewBox="0 0 700 500"><rect x="0" y="0" width="700" height="500" style="fill: rgb(255, 255, 255); fill-opacity: 1;"/><defs id="defs-eaa32b"><g class="clips"/><g class="gradients"/></defs><g class="bglayer"/><g class="layer-below"><g class="imagelayer"/><g class="shapelayer"/></g><g class="cartesianlayer"/><g class="polarlayer"/><g class="ternarylayer"/><g class="geolayer"/><g class="funnelarealayer"/><g class="pielayer"/><g class="treemaplayer"/><g class="sunburstlayer"/><g class="glimages"/><g class="sankey" transform="translate(80,100)matrix(1 0 0 1 0 0)" style="box-sizing: content-box; position: absolute; left: 0px; shape-rendering: geometricprecision; pointer-events: auto;"><g class="sankey-links" style="fill: none;"><path class="sankey-link" d="M20,255.00000000000017C96.66666666666667,255.00000000000017 96.66666666666667,103.99999999999999 173.33333333333334,103.99999999999999L173.33333333333334,110.49999999999999C96.66666666666667,110.49999999999999 96.66666666666667,261.50000000000017 20,261.50000000000017Z" style="stroke: rgb(68, 68, 68); stroke-opacity: 1; fill: rgb(0, 0, 0); fill-opacity: 0.2; stroke-width: 0; opacity: 1;"/><path class="sankey-link" d="M20,268.00000000000017C96.66666666666667,268.00000000000017 96.66666666666667,267.9999999999998 173.33333333333334,267.9999999999998L173.33333333333334,319.9999999999998C96.66666666666667,319.9999999999998 96.66666666666667,320.00000000000017 20,320.00000000000017Z" style="stroke: rgb(68, 68, 68); stroke-opacity: 1; fill: rgb(0, 0, 0); fill-opacity: 0.2; stroke-width: 0; opacity: 1;"/><path class="sankey-link" d="M20,261.50000000000017C96.66666666666667,261.50000000000017 96.66666666666667,208.99999999999986 173.33333333333334,208.99999999999986L173.33333333333334,215.49999999999986C96.66666666666667,215.49999999999986 96.66666666666667,268.00000000000017 20,268.00000000000017Z" style="stroke: rgb(68, 68, 68); stroke-opacity: 1; fill: rgb(0, 0, 0); fill-opacity: 0.2; stroke-width: 0; opacity: 1;"/><path class="sankey-link" d="M20,1.2079226507921703e-13C96.66666666666667,1.2079226507921703e-13 96.66666666666667,-1.4210854715202004e-14 173.33333333333334,-1.4210854715202004e-14L173.33333333333334,64.99999999999999C96.66666666666667,64.99999999999999 96.66666666666667,65.00000000000011 20,65.00000000000011Z" style="stroke: rgb(68, 68, 68); stroke-opacity: 1; fill: rgb(0, 0, 0); fill-opacity: 0.2; stroke-width: 0; opacity: 1;"/><path class="sankey-link" d="M20,170.00000000000006C96.66666666666667,170.00000000000006 96.66666666666667,77.99999999999999 173.33333333333334,77.99999999999999L173.33333333333334,103.99999999999999C96.66666666666667,103.99999999999999 96.66666666666667,196.00000000000006 20,196.00000000000006Z" style="stroke: rgb(68, 68, 68); stroke-opacity: 1; fill: rgb(0, 0, 0); fill-opacity: 0.2; stroke-width: 0; opacity: 1;"/><path class="sankey-link" d="M20,202.50000000000006C96.66666666666667,202.50000000000006 96.66666666666667,235.49999999999977 173.33333333333334,235.49999999999977L173.33333333333334,267.9999999999998C96.66666666666667,267.9999999999998 96.66666666666667,235.00000000000006 20,235.00000000000006Z" style="stroke: rgb(68, 68, 68); stroke-opacity: 1; fill: rgb(0, 0, 0); fill-opacity: 0.2; stroke-width: 0; opacity: 1;"/><path class="sankey-link" d="M20,196.00000000000006C96.66666666666667,196.00000000000006 96.66666666666667,175.99999999999997 173.33333333333334,175.99999999999997L173.33333333333334,182.49999999999997C96.66666666666667,182.49999999999997 96.66666666666667,202.50000000000006 20,202.50000000000006Z" style="stroke: rgb(68, 68, 68); stroke-opacity: 1; fill: rgb(0, 0, 0); fill-opacity: 0.2; stroke-width: 0; opacity: 1;"/><path class="sankey-link" d="M20,85.00000000000017C96.66666666666667,85.00000000000017 96.66666666666667,64.99999999999999 173.33333333333334,64.99999999999999L173.33333333333334,77.99999999999999C96.66666666666667,77.99999999999999 96.66666666666667,98.00000000000017 20,98.00000000000017Z" style="stroke: rgb(68, 68, 68); stroke-opacity: 1; fill: rgb(0, 0, 0); fill-opacity: 0.2; stroke-width: 0; opacity: 1;"/><path class="sankey-link" d="M20,143.50000000000017C96.66666666666667,143.50000000000017 96.66666666666667,202.49999999999986 173.33333333333334,202.49999999999986L173.33333333333334,208.99999999999986C96.66666666666667,208.99999999999986 96.66666666666667,150.00000000000017 20,150.00000000000017Z" style="stroke: rgb(68, 68, 68); stroke-opacity: 1; fill: rgb(0, 0, 0); fill-opacity: 0.2; stroke-width: 0; opacity: 1;"/><path class="sankey-link" d="M20,98.00000000000017C96.66666666666667,98.00000000000017 96.66666666666667,130.49999999999997 173.33333333333334,130.49999999999997L173.33333333333334,175.99999999999997C96.66666666666667,175.99999999999997 96.66666666666667,143.50000000000017 20,143.50000000000017Z" style="stroke: rgb(68, 68, 68); stroke-opacity: 1; fill: rgb(0, 0, 0); fill-opacity: 0.2; stroke-width: 0; opacity: 1;"/><path class="sankey-link" d="M193.33333333333334,103.99999999999999C270,103.99999999999999 270,229.00000000000026 346.6666666666667,229.00000000000026L346.6666666666667,235.50000000000026C270,235.50000000000026 270,110.49999999999999 193.33333333333334,110.49999999999999Z" style="stroke: rgb(68, 68, 68); stroke-opacity: 1; fill: rgb(0, 0, 0); fill-opacity: 0.2; stroke-width: 0; opacity: 1;"/><path class="sankey-link" d="M193.33333333333334,-1.4210854715202004e-14C270,-1.4210854715202004e-14 270,20.000000000000284 346.6666666666667,20.000000000000284L346.6666666666667,117.50000000000028C270,117.50000000000028 270,97.49999999999999 193.33333333333334,97.49999999999999Z" style="stroke: rgb(68, 68, 68); stroke-opacity: 1; fill: rgb(0, 0, 0); fill-opacity: 0.2; stroke-width: 0; opacity: 1;"/><path class="sankey-link" d="M193.33333333333334,97.49999999999999C270,97.49999999999999 270,196.00000000000026 346.6666666666667,196.00000000000026L346.6666666666667,202.50000000000026C270,202.50000000000026 270,103.99999999999999 193.33333333333334,103.99999999999999Z" style="stroke: rgb(68, 68, 68); stroke-opacity: 1; fill: rgb(0, 0, 0); fill-opacity: 0.2; stroke-width: 0; opacity: 1;"/><path class="sankey-link" d="M193.33333333333334,241.99999999999977C270,241.99999999999977 270,242.00000000000023 346.6666666666667,242.00000000000023L346.6666666666667,320.0000000000002C270,320.0000000000002 270,319.9999999999998 193.33333333333334,319.9999999999998Z" style="stroke: rgb(68, 68, 68); stroke-opacity: 1; fill: rgb(0, 0, 0); fill-opacity: 0.2; stroke-width: 0; opacity: 1;"/><path class="sankey-link" d="M193.33333333333334,235.49999999999977C270,235.49999999999977 270,169.50000000000028 346.6666666666667,169.50000000000028L346.6666666666667,176.00000000000028C270,176.00000000000028 270,241.99999999999977 193.33333333333334,241.99999999999977Z" style="stroke: rgb(68, 68, 68); stroke-opacity: 1; fill: rgb(0, 0, 0); fill-opacity: 0.2; stroke-width: 0; opacity: 1;"/><path class="sankey-link" d="M193.33333333333334,202.49999999999986C270,202.49999999999986 270,156.50000000000028 346.6666666666667,156.50000000000028L346.6666666666667,169.50000000000028C270,169.50000000000028 270,215.49999999999986 193.33333333333334,215.49999999999986Z" style="stroke: rgb(68, 68, 68); stroke-opacity: 1; fill: rgb(0, 0, 0); fill-opacity: 0.2; stroke-width: 0; opacity: 1;"/><path class="sankey-link" d="M193.33333333333334,175.99999999999997C270,175.99999999999997 270,235.50000000000026 346.6666666666667,235.50000000000026L346.6666666666667,242.00000000000026C270,242.00000000000026 270,182.49999999999997 193.33333333333334,182.49999999999997Z" style="stroke: rgb(68, 68, 68); stroke-opacity: 1; fill: rgb(0, 0, 0); fill-opacity: 0.2; stroke-width: 0; opacity: 1;"/><path class="sankey-link" d="M193.33333333333334,130.49999999999997C270,130.49999999999997 270,117.50000000000028 346.6666666666667,117.50000000000028L346.6666666666667,156.50000000000028C270,156.50000000000028 270,169.49999999999997 193.33333333333334,169.49999999999997Z" style="stroke: rgb(68, 68, 68); stroke-opacity: 1; fill: rgb(0, 0, 0); fill-opacity: 0.2; stroke-width: 0; opacity: 1;"/><path class="sankey-link" d="M193.33333333333334,169.49999999999997C270,169.49999999999997 270,202.50000000000026 346.6666666666667,202.50000000000026L346.6666666666667,209.00000000000026C270,209.00000000000026 270,175.99999999999997 193.33333333333334,175.99999999999997Z" style="stroke: rgb(68, 68, 68); stroke-opacity: 1; fill: rgb(0, 0, 0); fill-opacity: 0.2; stroke-width: 0; opacity: 1;"/><path class="sankey-link" d="M366.6666666666667,229.00000000000026C443.33333333333337,229.00000000000026 443.33333333333337,130.00000000000009 520,130.00000000000009L520,175.50000000000009C443.33333333333337,175.50000000000009 443.33333333333337,274.5000000000002 366.6666666666667,274.5000000000002Z" style="stroke: rgb(68, 68, 68); stroke-opacity: 1; fill: rgb(0, 0, 0); fill-opacity: 0.2; stroke-width: 0; opacity: 1;"/><path class="sankey-link" d="M366.6666666666667,274.5000000000002C443.33333333333337,274.5000000000002 443.33333333333337,208.50000000000014 520,208.50000000000014L520,228.00000000000014C443.33333333333337,228.00000000000014 443.33333333333337,294.0000000000002 366.6666666666667,294.0000000000002Z" style="stroke: rgb(68, 68, 68); stroke-opacity: 1; fill: rgb(0, 0, 0); fill-opacity: 0.2; stroke-width: 0; opacity: 1;"/><path class="sankey-link" d="M366.6666666666667,313.5000000000002C443.33333333333337,313.5000000000002 443.33333333333337,313.5000000000001 520,313.5000000000001L520,320.0000000000001C443.33333333333337,320.0000000000001 443.33333333333337,320.0000000000002 366.6666666666667,320.0000000000002Z" style="stroke: rgb(68, 68, 68); stroke-opacity: 1; fill: rgb(0, 0, 0); fill-opacity: 0.2; stroke-width: 0; opacity: 1;"/><path class="sankey-link" d="M366.6666666666667,294.0000000000002C443.33333333333337,294.0000000000002 443.33333333333337,261.0000000000001 520,261.0000000000001L520,280.5000000000001C443.33333333333337,280.5000000000001 443.33333333333337,313.5000000000002 366.6666666666667,313.5000000000002Z" style="stroke: rgb(68, 68, 68); stroke-opacity: 1; fill: rgb(0, 0, 0); fill-opacity: 0.2; stroke-width: 0; opacity: 1;"/><path class="sankey-link" d="M366.6666666666667,20.000000000000284C443.33333333333337,20.000000000000284 443.33333333333337,8.526512829121202e-14 520,8.526512829121202e-14L520,130.00000000000009C443.33333333333337,130.00000000000009 443.33333333333337,150.00000000000028 366.6666666666667,150.00000000000028Z" style="stroke: rgb(68, 68, 68); stroke-opacity: 1; fill: rgb(0, 0, 0); fill-opacity: 0.2; stroke-width: 0; opacity: 1;"/><path class="sankey-link" d="M366.6666666666667,150.00000000000028C443.33333333333337,150.00000000000028 443.33333333333337,195.50000000000014 520,195.50000000000014L520,208.50000000000014C443.33333333333337,208.50000000000014 443.33333333333337,163.00000000000028 366.6666666666667,163.00000000000028Z" style="stroke: rgb(68, 68, 68); stroke-opacity: 1; fill: rgb(0, 0, 0); fill-opacity: 0.2; stroke-width: 0; opacity: 1;"/><path class="sankey-link" d="M366.6666666666667,163.00000000000028C443.33333333333337,163.00000000000028 443.33333333333337,248.0000000000001 520,248.0000000000001L520,261.0000000000001C443.33333333333337,261.0000000000001 443.33333333333337,176.00000000000028 366.6666666666667,176.00000000000028Z" style="stroke: rgb(68, 68, 68); stroke-opacity: 1; fill: rgb(0, 0, 0); fill-opacity: 0.2; stroke-width: 0; opacity: 1;"/><path class="sankey-link" d="M366.6666666666667,196.00000000000026C443.33333333333337,196.00000000000026 443.33333333333337,300.5000000000001 520,300.5000000000001L520,313.5000000000001C443.33333333333337,313.5000000000001 443.33333333333337,209.00000000000026 366.6666666666667,209.00000000000026Z" style="stroke: rgb(68, 68, 68); stroke-opacity: 1; fill: rgb(0, 0, 0); fill-opacity: 0.2; stroke-width: 0; opacity: 1;"/></g><g class="sankey-node-set" style="cursor: move;"><g class="sankey-node" transform="translate(0.000,255.000)" style="opacity: 1;"><rect class="node-rect" width="20" height="64.99999999999983" style="stroke-width: 0; stroke: rgb(128, 0, 128); stroke-opacity: 1; fill: rgb(99, 110, 250); fill-opacity: 0.8;"/><rect class="node-capture" x="-10" y="-10" width="40" height="84.99999999999983" style="fill-opacity: 0;"/><g class="node-entered" transform="translate(0,33.499999999999915)"><path class="node-label-guide" id="7b9b54_0_node_0" d="M24,0L540,0" transform="matrix(1 0 0 1 0 0)"/><text class="node-label" transform="scale(1 1)" style="cursor: default; fill: rgb(42, 63, 95); text-shadow: rgb(255, 255, 255) -1px 1px 1px, rgb(255, 255, 255) 1px 1px 1px, rgb(255, 255, 255) 1px -1px 1px, rgb(255, 255, 255) -1px -1px 1px; font-family: 'Open Sans', verdana, arial, sans-serif; font-size: 10px; fill-opacity: 1;"><textPath class="node-label-text-path" alignment-baseline="middle" xlink:href="#7b9b54_0_node_0" startOffset="0%" text-anchor="start" style="fill: rgb(0, 0, 0);">A1</textPath></text></g></g><g class="sankey-node" transform="translate(0.000,0.000)" style="opacity: 1;"><rect class="node-rect" width="20" height="65.00000000000006" style="stroke-width: 0; stroke: rgb(128, 0, 128); stroke-opacity: 1; fill: rgb(239, 85, 59); fill-opacity: 0.8;"/><rect class="node-capture" x="-10" y="-10" width="40" height="85.00000000000006" style="fill-opacity: 0;"/><g class="node-entered" transform="translate(0,33.50000000000003)"><path class="node-label-guide" id="7b9b54_0_node_1" d="M24,0L540,0" transform="matrix(1 0 0 1 0 0)"/><text class="node-label" transform="scale(1 1)" style="cursor: default; fill: rgb(42, 63, 95); text-shadow: rgb(255, 255, 255) -1px 1px 1px, rgb(255, 255, 255) 1px 1px 1px, rgb(255, 255, 255) 1px -1px 1px, rgb(255, 255, 255) -1px -1px 1px; font-family: 'Open Sans', verdana, arial, sans-serif; font-size: 10px; fill-opacity: 1;"><textPath class="node-label-text-path" alignment-baseline="middle" xlink:href="#7b9b54_0_node_1" startOffset="0%" text-anchor="start" style="fill: rgb(0, 0, 0);">A2</textPath></text></g></g><g class="sankey-node" transform="translate(0.000,170.000)" style="opacity: 1;"><rect class="node-rect" width="20" height="65.00000000000011" style="stroke-width: 0; stroke: rgb(128, 0, 128); stroke-opacity: 1; fill: rgb(0, 204, 150); fill-opacity: 0.8;"/><rect class="node-capture" x="-10" y="-10" width="40" height="85.00000000000011" style="fill-opacity: 0;"/><g class="node-entered" transform="translate(0,33.50000000000006)"><path class="node-label-guide" id="7b9b54_0_node_2" d="M24,0L540,0" transform="matrix(1 0 0 1 0 0)"/><text class="node-label" transform="scale(1 1)" style="cursor: default; fill: rgb(42, 63, 95); text-shadow: rgb(255, 255, 255) -1px 1px 1px, rgb(255, 255, 255) 1px 1px 1px, rgb(255, 255, 255) 1px -1px 1px, rgb(255, 255, 255) -1px -1px 1px; font-family: 'Open Sans', verdana, arial, sans-serif; font-size: 10px; fill-opacity: 1;"><textPath class="node-label-text-path" alignment-baseline="middle" xlink:href="#7b9b54_0_node_2" startOffset="0%" text-anchor="start" style="fill: rgb(0, 0, 0);">A3</textPath></text></g></g><g class="sankey-node" transform="translate(0.000,85.000)" style="opacity: 1;"><rect class="node-rect" width="20" height="64.99999999999989" style="stroke-width: 0; stroke: rgb(128, 0, 128); stroke-opacity: 1; fill: rgb(171, 99, 250); fill-opacity: 0.8;"/><rect class="node-capture" x="-10" y="-10" width="40" height="84.99999999999989" style="fill-opacity: 0;"/><g class="node-entered" transform="translate(0,33.49999999999994)"><path class="node-label-guide" id="7b9b54_0_node_3" d="M24,0L540,0" transform="matrix(1 0 0 1 0 0)"/><text class="node-label" transform="scale(1 1)" style="cursor: default; fill: rgb(42, 63, 95); text-shadow: rgb(255, 255, 255) -1px 1px 1px, rgb(255, 255, 255) 1px 1px 1px, rgb(255, 255, 255) 1px -1px 1px, rgb(255, 255, 255) -1px -1px 1px; font-family: 'Open Sans', verdana, arial, sans-serif; font-size: 10px; fill-opacity: 1;"><textPath class="node-label-text-path" alignment-baseline="middle" xlink:href="#7b9b54_0_node_3" startOffset="0%" text-anchor="start" style="fill: rgb(0, 0, 0);">A4</textPath></text></g></g><g class="sankey-node" transform="translate(173.333,-0.000)" style="opacity: 1;"><rect class="node-rect" width="20" height="110.49999999999999" style="stroke-width: 0; stroke: rgb(128, 0, 128); stroke-opacity: 1; fill: rgb(255, 161, 90); fill-opacity: 0.8;"/><rect class="node-capture" x="-10" y="-10" width="40" height="130.5" style="fill-opacity: 0;"/><g class="node-entered" transform="translate(0,56.24999999999999)"><path class="node-label-guide" id="7b9b54_0_node_4" d="M24,0L540,0" transform="matrix(1 0 0 1 0 0)"/><text class="node-label" transform="scale(1 1)" style="cursor: default; fill: rgb(42, 63, 95); text-shadow: rgb(255, 255, 255) -1px 1px 1px, rgb(255, 255, 255) 1px 1px 1px, rgb(255, 255, 255) 1px -1px 1px, rgb(255, 255, 255) -1px -1px 1px; font-family: 'Open Sans', verdana, arial, sans-serif; font-size: 10px; fill-opacity: 1;"><textPath class="node-label-text-path" alignment-baseline="middle" xlink:href="#7b9b54_0_node_4" startOffset="0%" text-anchor="start" style="fill: rgb(0, 0, 0);">B1</textPath></text></g></g><g class="sankey-node" transform="translate(173.333,235.500)" style="opacity: 1;"><rect class="node-rect" width="20" height="84.50000000000023" style="stroke-width: 0; stroke: rgb(128, 0, 128); stroke-opacity: 1; fill: rgb(25, 211, 243); fill-opacity: 0.8;"/><rect class="node-capture" x="-10" y="-10" width="40" height="104.50000000000023" style="fill-opacity: 0;"/><g class="node-entered" transform="translate(0,43.250000000000114)"><path class="node-label-guide" id="7b9b54_0_node_5" d="M24,0L540,0" transform="matrix(1 0 0 1 0 0)"/><text class="node-label" transform="scale(1 1)" style="cursor: default; fill: rgb(42, 63, 95); text-shadow: rgb(255, 255, 255) -1px 1px 1px, rgb(255, 255, 255) 1px 1px 1px, rgb(255, 255, 255) 1px -1px 1px, rgb(255, 255, 255) -1px -1px 1px; font-family: 'Open Sans', verdana, arial, sans-serif; font-size: 10px; fill-opacity: 1;"><textPath class="node-label-text-path" alignment-baseline="middle" xlink:href="#7b9b54_0_node_5" startOffset="0%" text-anchor="start" style="fill: rgb(0, 0, 0);">B2</textPath></text></g></g><g class="sankey-node" transform="translate(173.333,202.500)" style="opacity: 1;"><rect class="node-rect" width="20" height="12.999999999999886" style="stroke-width: 0; stroke: rgb(128, 0, 128); stroke-opacity: 1; fill: rgb(255, 102, 146); fill-opacity: 0.8;"/><rect class="node-capture" x="-10" y="-10" width="40" height="32.999999999999886" style="fill-opacity: 0;"/><g class="node-entered" transform="translate(0,7.499999999999943)"><path class="node-label-guide" id="7b9b54_0_node_6" d="M24,0L540,0" transform="matrix(1 0 0 1 0 0)"/><text class="node-label" transform="scale(1 1)" style="cursor: default; fill: rgb(42, 63, 95); text-shadow: rgb(255, 255, 255) -1px 1px 1px, rgb(255, 255, 255) 1px 1px 1px, rgb(255, 255, 255) 1px -1px 1px, rgb(255, 255, 255) -1px -1px 1px; font-family: 'Open Sans', verdana, arial, sans-serif; font-size: 10px; fill-opacity: 1;"><textPath class="node-label-text-path" alignment-baseline="middle" xlink:href="#7b9b54_0_node_6" startOffset="0%" text-anchor="start" style="fill: rgb(0, 0, 0);">B3</textPath></text></g></g><g class="sankey-node" transform="translate(173.333,130.500)" style="opacity: 1;"><rect class="node-rect" width="20" height="51.999999999999886" style="stroke-width: 0; stroke: rgb(128, 0, 128); stroke-opacity: 1; fill: rgb(182, 232, 128); fill-opacity: 0.8;"/><rect class="node-capture" x="-10" y="-10" width="40" height="71.99999999999989" style="fill-opacity: 0;"/><g class="node-entered" transform="translate(0,26.999999999999943)"><path class="node-label-guide" id="7b9b54_0_node_7" d="M24,0L540,0" transform="matrix(1 0 0 1 0 0)"/><text class="node-label" transform="scale(1 1)" style="cursor: default; fill: rgb(42, 63, 95); text-shadow: rgb(255, 255, 255) -1px 1px 1px, rgb(255, 255, 255) 1px 1px 1px, rgb(255, 255, 255) 1px -1px 1px, rgb(255, 255, 255) -1px -1px 1px; font-family: 'Open Sans', verdana, arial, sans-serif; font-size: 10px; fill-opacity: 1;"><textPath class="node-label-text-path" alignment-baseline="middle" xlink:href="#7b9b54_0_node_7" startOffset="0%" text-anchor="start" style="fill: rgb(0, 0, 0);">B4</textPath></text></g></g><g class="sankey-node" transform="translate(346.667,229.000)" style="opacity: 1;"><rect class="node-rect" width="20" height="90.99999999999974" style="stroke-width: 0; stroke: rgb(128, 0, 128); stroke-opacity: 1; fill: rgb(255, 151, 255); fill-opacity: 0.8;"/><rect class="node-capture" x="-10" y="-10" width="40" height="110.99999999999974" style="fill-opacity: 0;"/><g class="node-entered" transform="translate(0,46.49999999999987)"><path class="node-label-guide" id="7b9b54_0_node_8" d="M24,0L540,0" transform="matrix(1 0 0 1 0 0)"/><text class="node-label" transform="scale(1 1)" style="cursor: default; fill: rgb(42, 63, 95); text-shadow: rgb(255, 255, 255) -1px 1px 1px, rgb(255, 255, 255) 1px 1px 1px, rgb(255, 255, 255) 1px -1px 1px, rgb(255, 255, 255) -1px -1px 1px; font-family: 'Open Sans', verdana, arial, sans-serif; font-size: 10px; fill-opacity: 1;"><textPath class="node-label-text-path" alignment-baseline="middle" xlink:href="#7b9b54_0_node_8" startOffset="0%" text-anchor="start" style="fill: rgb(0, 0, 0);">C1</textPath></text></g></g><g class="sankey-node" transform="translate(346.667,20.000)" style="opacity: 1;"><rect class="node-rect" width="20" height="155.99999999999997" style="stroke-width: 0; stroke: rgb(128, 0, 128); stroke-opacity: 1; fill: rgb(254, 203, 82); fill-opacity: 0.8;"/><rect class="node-capture" x="-10" y="-10" width="40" height="175.99999999999997" style="fill-opacity: 0;"/><g class="node-entered" transform="translate(0,78.99999999999999)"><path class="node-label-guide" id="7b9b54_0_node_9" d="M24,0L540,0" transform="matrix(1 0 0 1 0 0)"/><text class="node-label" transform="scale(1 1)" style="cursor: default; fill: rgb(42, 63, 95); text-shadow: rgb(255, 255, 255) -1px 1px 1px, rgb(255, 255, 255) 1px 1px 1px, rgb(255, 255, 255) 1px -1px 1px, rgb(255, 255, 255) -1px -1px 1px; font-family: 'Open Sans', verdana, arial, sans-serif; font-size: 10px; fill-opacity: 1;"><textPath class="node-label-text-path" alignment-baseline="middle" xlink:href="#7b9b54_0_node_9" startOffset="0%" text-anchor="start" style="fill: rgb(0, 0, 0);">C2</textPath></text></g></g><g class="sankey-node" transform="translate(346.667,196.000)" style="opacity: 1;"><rect class="node-rect" width="20" height="13" style="stroke-width: 0; stroke: rgb(128, 0, 128); stroke-opacity: 1; fill: rgb(99, 110, 250); fill-opacity: 0.8;"/><rect class="node-capture" x="-10" y="-10" width="40" height="33" style="fill-opacity: 0;"/><g class="node-entered" transform="translate(0,7.5)"><path class="node-label-guide" id="7b9b54_0_node_10" d="M24,0L540,0" transform="matrix(1 0 0 1 0 0)"/><text class="node-label" transform="scale(1 1)" style="cursor: default; fill: rgb(42, 63, 95); text-shadow: rgb(255, 255, 255) -1px 1px 1px, rgb(255, 255, 255) 1px 1px 1px, rgb(255, 255, 255) 1px -1px 1px, rgb(255, 255, 255) -1px -1px 1px; font-family: 'Open Sans', verdana, arial, sans-serif; font-size: 10px; fill-opacity: 1;"><textPath class="node-label-text-path" alignment-baseline="middle" xlink:href="#7b9b54_0_node_10" startOffset="0%" text-anchor="start" style="fill: rgb(0, 0, 0);">C3</textPath></text></g></g><g class="sankey-node" transform="translate(520.000,0.000)" style="opacity: 1;"><rect class="node-rect" width="20" height="175.50000000000006" style="stroke-width: 0; stroke: rgb(128, 0, 128); stroke-opacity: 1; fill: rgb(239, 85, 59); fill-opacity: 0.8;"/><rect class="node-capture" x="-10" y="-10" width="40" height="195.50000000000006" style="fill-opacity: 0;"/><g class="node-entered" transform="translate(0,88.75000000000003)"><path class="node-label-guide" id="7b9b54_0_node_11" d="M-540,0L-4,0" transform="matrix(1 0 0 1 0 0)"/><text class="node-label" transform="scale(1 1)" style="cursor: default; fill: rgb(42, 63, 95); text-shadow: rgb(255, 255, 255) -1px 1px 1px, rgb(255, 255, 255) 1px 1px 1px, rgb(255, 255, 255) 1px -1px 1px, rgb(255, 255, 255) -1px -1px 1px; font-family: 'Open Sans', verdana, arial, sans-serif; font-size: 10px; fill-opacity: 1;"><textPath class="node-label-text-path" alignment-baseline="middle" xlink:href="#7b9b54_0_node_11" startOffset="100%" text-anchor="end" style="fill: rgb(0, 0, 0);">D1</textPath></text></g></g><g class="sankey-node" transform="translate(520.000,195.500)" style="opacity: 1;"><rect class="node-rect" width="20" height="32.49999999999997" style="stroke-width: 0; stroke: rgb(128, 0, 128); stroke-opacity: 1; fill: rgb(171, 99, 250); fill-opacity: 0.8;"/><rect class="node-capture" x="-10" y="-10" width="40" height="52.49999999999997" style="fill-opacity: 0;"/><g class="node-entered" transform="translate(0,17.249999999999986)"><path class="node-label-guide" id="7b9b54_0_node_13" d="M-540,0L-4,0" transform="matrix(1 0 0 1 0 0)"/><text class="node-label" transform="scale(1 1)" style="cursor: default; fill: rgb(42, 63, 95); text-shadow: rgb(255, 255, 255) -1px 1px 1px, rgb(255, 255, 255) 1px 1px 1px, rgb(255, 255, 255) 1px -1px 1px, rgb(255, 255, 255) -1px -1px 1px; font-family: 'Open Sans', verdana, arial, sans-serif; font-size: 10px; fill-opacity: 1;"><textPath class="node-label-text-path" alignment-baseline="middle" xlink:href="#7b9b54_0_node_13" startOffset="100%" text-anchor="end" style="fill: rgb(0, 0, 0);">D3</textPath></text></g></g><g class="sankey-node" transform="translate(520.000,300.500)" style="opacity: 1;"><rect class="node-rect" width="20" height="19.499999999999886" style="stroke-width: 0; stroke: rgb(128, 0, 128); stroke-opacity: 1; fill: rgb(255, 161, 90); fill-opacity: 0.8;"/><rect class="node-capture" x="-10" y="-10" width="40" height="39.499999999999886" style="fill-opacity: 0;"/><g class="node-entered" transform="translate(0,10.749999999999943)"><path class="node-label-guide" id="7b9b54_0_node_14" d="M-540,0L-4,0" transform="matrix(1 0 0 1 0 0)"/><text class="node-label" transform="scale(1 1)" style="cursor: default; fill: rgb(42, 63, 95); text-shadow: rgb(255, 255, 255) -1px 1px 1px, rgb(255, 255, 255) 1px 1px 1px, rgb(255, 255, 255) 1px -1px 1px, rgb(255, 255, 255) -1px -1px 1px; font-family: 'Open Sans', verdana, arial, sans-serif; font-size: 10px; fill-opacity: 1;"><textPath class="node-label-text-path" alignment-baseline="middle" xlink:href="#7b9b54_0_node_14" startOffset="100%" text-anchor="end" style="fill: rgb(0, 0, 0);">D4</textPath></text></g></g><g class="sankey-node" transform="translate(520.000,248.000)" style="opacity: 1;"><rect class="node-rect" width="20" height="32.5" style="stroke-width: 0; stroke: rgb(128, 0, 128); stroke-opacity: 1; fill: rgb(25, 211, 243); fill-opacity: 0.8;"/><rect class="node-capture" x="-10" y="-10" width="40" height="52.5" style="fill-opacity: 0;"/><g class="node-entered" transform="translate(0,17.25)"><path class="node-label-guide" id="7b9b54_0_node_15" d="M-540,0L-4,0" transform="matrix(1 0 0 1 0 0)"/><text class="node-label" transform="scale(1 1)" style="cursor: default; fill: rgb(42, 63, 95); text-shadow: rgb(255, 255, 255) -1px 1px 1px, rgb(255, 255, 255) 1px 1px 1px, rgb(255, 255, 255) 1px -1px 1px, rgb(255, 255, 255) -1px -1px 1px; font-family: 'Open Sans', verdana, arial, sans-serif; font-size: 10px; fill-opacity: 1;"><textPath class="node-label-text-path" alignment-baseline="middle" xlink:href="#7b9b54_0_node_15" startOffset="100%" text-anchor="end" style="fill: rgb(0, 0, 0);">D5</textPath></text></g></g></g></g><defs id="topdefs-eaa32b"><g class="clips"/></defs><g class="layer-above"><g class="imagelayer"/><g class="shapelayer"/></g><g class="infolayer"><g class="g-gtitle"><text class="gtitle" x="35" y="50" text-anchor="start" dy="0em" style="font-family: 'Open Sans', verdana, arial, sans-serif; font-size: 14px; fill: rgb(42, 63, 95); opacity: 1; font-weight: normal; white-space: pre;">Sankey Diagram 36</text></g><g class="first-render"/></g></svg>