<svg class="main-svg" xmlns="http://www.w3.org/2000/svg" xmlns:xlink="http://www.w3.org/1999/xlink" width="700" height="500" style="" viewBox="0 0 700 500"><rect x="0" y="0" width="700" height="500" style="fill: rgb(255, 255, 255); fill-opacity: 1;"/><defs id="defs-4b9255"><g class="clips"/><g class="gradients"/></defs><g class="bglayer"/><g class="layer-below"><g class="imagelayer"/><g class="shapelayer"/></g><g class="cartesianlayer"/><g class="polarlayer"/><g class="ternarylayer"/><g class="geolayer"/><g class="funnelarealayer"/><g class="pielayer"/><g class="treemaplayer"/><g class="sunburstlayer"/><g class="glimages"/><g class="sankey" transform="translate(80,100)matrix(1 0 0 1 0 0)" style="box-sizing: content-box; position: absolute; left: 0px; shape-rendering: geometricprecision; pointer-events: auto;"><g class="sankey-links" style="fill: none;"><path class="sankey-link" d="M20,9.237055564881302e-14C96.66666666666667,9.237055564881302e-14 96.66666666666667,-4.760636329592671e-13 173.33333333333334,-4.760636329592671e-13L173.33333333333334,47.999999999999524C96.66666666666667,47.999999999999524 96.66666666666667,48.00000000000009 20,48.00000000000009Z" style="stroke: rgb(68, 68, 68); stroke-opacity: 1; fill: rgb(0, 0, 0); fill-opacity: 0.2; stroke-width: 0; opacity: 1;"/><path class="sankey-link" d="M20,209.28000000000011C96.66666666666667,209.28000000000011 96.66666666666667,176.7999999999996 173.33333333333334,176.7999999999996L173.33333333333334,202.2399999999996C96.66666666666667,202.2399999999996 96.66666666666667,234.7200000000001 20,234.7200000000001Z" style="stroke: rgb(68, 68, 68); stroke-opacity: 1; fill: rgb(0, 0, 0); fill-opacity: 0.2; stroke-width: 0; opacity: 1;"/><path class="sankey-link" d="M20,243.36000000000013C96.66666666666667,243.36000000000013 96.66666666666667,268.1599999999999 173.33333333333334,268.1599999999999L173.33333333333334,276.7999999999999C96.66666666666667,276.7999999999999 96.66666666666667,252.0000000000001 20,252.0000000000001Z" style="stroke: rgb(68, 68, 68); stroke-opacity: 1; fill: rgb(0, 0, 0); fill-opacity: 0.2; stroke-width: 0; opacity: 1;"/><path class="sankey-link" d="M20,234.7200000000001C96.66666666666667,234.7200000000001 96.66666666666667,234.71999999999974 173.33333333333334,234.71999999999974L173.33333333333334,243.35999999999973C96.66666666666667,243.35999999999973 96.66666666666667,243.3600000000001 20,243.3600000000001Z" style="stroke: rgb(68, 68, 68); stroke-opacity: 1; fill: rgb(0, 0, 0); fill-opacity: 0.2; stroke-width: 0; opacity: 1;"/><path class="sankey-link" d="M20,204.0000000000001C96.66666666666667,204.0000000000001 96.66666666666667,136.63999999999962 173.33333333333334,136.63999999999962L173.33333333333334,141.9199999999996C96.66666666666667,141.9199999999996 96.66666666666667,209.2800000000001 20,209.2800000000001Z" style="stroke: rgb(68, 68, 68); stroke-opacity: 1; fill: rgb(0, 0, 0); fill-opacity: 0.2; stroke-width: 0; opacity: 1;"/><path class="sankey-link" d="M20,276.80000000000007C96.66666666666667,276.80000000000007 96.66666666666667,276.7999999999999 173.33333333333334,276.7999999999999L173.33333333333334,319.99999999999994C96.66666666666667,319.99999999999994 96.66666666666667,320.0000000000001 20,320.0000000000001Z" style="stroke: rgb(68, 68, 68); stroke-opacity: 1; fill: rgb(0, 0, 0); fill-opacity: 0.2; stroke-width: 0; opacity: 1;"/><path class="sankey-link" d="M20,272.00000000000006C96.66666666666667,272.00000000000006 96.66666666666667,202.2399999999996 173.33333333333334,202.2399999999996L173.33333333333334,207.03999999999962C96.66666666666667,207.03999999999962 96.66666666666667,276.8 20,276.8Z" style="stroke: rgb(68, 68, 68); stroke-opacity: 1; fill: rgb(0, 0, 0); fill-opacity: 0.2; stroke-width: 0; opacity: 1;"/><path class="sankey-link" d="M20,68.00000000000013C96.66666666666667,68.00000000000013 96.66666666666667,47.99999999999953 173.33333333333334,47.99999999999953L173.33333333333334,90.71999999999953C96.66666666666667,90.71999999999953 96.66666666666667,110.72000000000013 20,110.72000000000013Z" style="stroke: rgb(68, 68, 68); stroke-opacity: 1; fill: rgb(0, 0, 0); fill-opacity: 0.2; stroke-width: 0; opacity: 1;"/><path class="sankey-link" d="M20,110.72000000000013C96.66666666666667,110.72000000000013 96.66666666666667,116.47999999999962 173.33333333333334,116.47999999999962L173.33333333333334,121.75999999999962C96.66666666666667,121.75999999999962 96.66666666666667,116.00000000000013 20,116.00000000000013Z" style="stroke: rgb(68, 68, 68); stroke-opacity: 1; fill: rgb(0, 0, 0); fill-opacity: 0.2; stroke-width: 0; opacity: 1;"/><path class="sankey-link" d="M20,156.64000000000016C96.66666666666667,156.64000000000016 96.66666666666667,161.91999999999962 173.33333333333334,161.91999999999962L173.33333333333334,176.7999999999996C96.66666666666667,176.7999999999996 96.66666666666667,171.52000000000015 20,171.52000000000015Z" style="stroke: rgb(68, 68, 68); stroke-opacity: 1; fill: rgb(0, 0, 0); fill-opacity: 0.2; stroke-width: 0; opacity: 1;"/><path class="sankey-link" d="M20,141.76000000000016C96.66666666666667,141.76000000000016 96.66666666666667,121.75999999999962 173.33333333333334,121.75999999999962L173.33333333333334,136.63999999999962C96.66666666666667,136.63999999999962 96.66666666666667,156.64000000000016 20,156.64000000000016Z" style="stroke: rgb(68, 68, 68); stroke-opacity: 1; fill: rgb(0, 0, 0); fill-opacity: 0.2; stroke-width: 0; opacity: 1;"/><path class="sankey-link" d="M20,136.00000000000017C96.66666666666667,136.00000000000017 96.66666666666667,90.71999999999952 173.33333333333334,90.71999999999952L173.33333333333334,96.4799999999995C96.66666666666667,96.4799999999995 96.66666666666667,141.76000000000016 20,141.76000000000016Z" style="stroke: rgb(68, 68, 68); stroke-opacity: 1; fill: rgb(0, 0, 0); fill-opacity: 0.2; stroke-width: 0; opacity: 1;"/><path class="sankey-link" d="M20,171.52000000000015C96.66666666666667,171.52000000000015 96.66666666666667,227.03999999999974 173.33333333333334,227.03999999999974L173.33333333333334,234.71999999999974C96.66666666666667,234.71999999999974 96.66666666666667,179.20000000000016 20,179.20000000000016Z" style="stroke: rgb(68, 68, 68); stroke-opacity: 1; fill: rgb(0, 0, 0); fill-opacity: 0.2; stroke-width: 0; opacity: 1;"/><path class="sankey-link" d="M20,179.20000000000016C96.66666666666667,179.20000000000016 96.66666666666667,263.3599999999999 173.33333333333334,263.3599999999999L173.33333333333334,268.15999999999985C96.66666666666667,268.15999999999985 96.66666666666667,184.00000000000017 20,184.00000000000017Z" style="stroke: rgb(68, 68, 68); stroke-opacity: 1; fill: rgb(0, 0, 0); fill-opacity: 0.2; stroke-width: 0; opacity: 1;"/><path class="sankey-link" d="M193.33333333333334,123.67999999999961C270,123.67999999999961 270,239.3599999999998 346.6666666666667,239.3599999999998L346.6666666666667,257.5999999999998C270,257.5999999999998 270,141.91999999999962 193.33333333333334,141.91999999999962Z" style="stroke: rgb(68, 68, 68); stroke-opacity: 1; fill: rgb(0, 0, 0); fill-opacity: 0.2; stroke-width: 0; opacity: 1;"/><path class="sankey-link" d="M193.33333333333334,116.47999999999962C270,116.47999999999962 270,63.679999999999914 346.6666666666667,63.679999999999914L346.6666666666667,70.87999999999991C270,70.87999999999991 270,123.67999999999961 193.33333333333334,123.67999999999961Z" style="stroke: rgb(68, 68, 68); stroke-opacity: 1; fill: rgb(0, 0, 0); fill-opacity: 0.2; stroke-width: 0; opacity: 1;"/><path class="sankey-link" d="M193.33333333333334,172.9599999999996C270,172.9599999999996 270,180.47999999999988 346.6666666666667,180.47999999999988L346.6666666666667,208.79999999999987C270,208.79999999999987 270,201.2799999999996 193.33333333333334,201.2799999999996Z" style="stroke: rgb(68, 68, 68); stroke-opacity: 1; fill: rgb(0, 0, 0); fill-opacity: 0.2; stroke-width: 0; opacity: 1;"/><path class="sankey-link" d="M193.33333333333334,167.19999999999962C270,167.19999999999962 270,130.23999999999984 346.6666666666667,130.23999999999984L346.6666666666667,135.99999999999983C270,135.99999999999983 270,172.9599999999996 193.33333333333334,172.9599999999996Z" style="stroke: rgb(68, 68, 68); stroke-opacity: 1; fill: rgb(0, 0, 0); fill-opacity: 0.2; stroke-width: 0; opacity: 1;"/><path class="sankey-link" d="M193.33333333333334,161.91999999999962C270,161.91999999999962 270,70.87999999999991 346.6666666666667,70.87999999999991L346.6666666666667,76.15999999999991C270,76.15999999999991 270,167.1999999999996 193.33333333333334,167.1999999999996Z" style="stroke: rgb(68, 68, 68); stroke-opacity: 1; fill: rgb(0, 0, 0); fill-opacity: 0.2; stroke-width: 0; opacity: 1;"/><path class="sankey-link" d="M193.33333333333334,201.2799999999996C270,201.2799999999996 270,257.5999999999998 346.6666666666667,257.5999999999998L346.6666666666667,263.3599999999998C270,263.3599999999998 270,207.0399999999996 193.33333333333334,207.0399999999996Z" style="stroke: rgb(68, 68, 68); stroke-opacity: 1; fill: rgb(0, 0, 0); fill-opacity: 0.2; stroke-width: 0; opacity: 1;"/><path class="sankey-link" d="M193.33333333333334,263.3599999999999C270,263.3599999999999 270,263.3599999999998 346.6666666666667,263.3599999999998L346.6666666666667,319.9999999999998C270,319.9999999999998 270,319.9999999999999 193.33333333333334,319.9999999999999Z" style="stroke: rgb(68, 68, 68); stroke-opacity: 1; fill: rgb(0, 0, 0); fill-opacity: 0.2; stroke-width: 0; opacity: 1;"/><path class="sankey-link" d="M193.33333333333334,232.79999999999973C270,232.79999999999973 270,208.79999999999987 346.6666666666667,208.79999999999987L346.6666666666667,219.35999999999987C270,219.35999999999987 270,243.35999999999973 193.33333333333334,243.35999999999973Z" style="stroke: rgb(68, 68, 68); stroke-opacity: 1; fill: rgb(0, 0, 0); fill-opacity: 0.2; stroke-width: 0; opacity: 1;"/><path class="sankey-link" d="M193.33333333333334,227.03999999999974C270,227.03999999999974 270,135.99999999999983 346.6666666666667,135.99999999999983L346.6666666666667,141.75999999999982C270,141.75999999999982 270,232.79999999999973 193.33333333333334,232.79999999999973Z" style="stroke: rgb(68, 68, 68); stroke-opacity: 1; fill: rgb(0, 0, 0); fill-opacity: 0.2; stroke-width: 0; opacity: 1;"/><path class="sankey-link" d="M193.33333333333334,-4.725109192804666e-13C270,-4.725109192804666e-13 270,19.99999999999992 346.6666666666667,19.99999999999992L346.6666666666667,63.67999999999992C270,63.67999999999992 270,43.679999999999524 193.33333333333334,43.679999999999524Z" style="stroke: rgb(68, 68, 68); stroke-opacity: 1; fill: rgb(0, 0, 0); fill-opacity: 0.2; stroke-width: 0; opacity: 1;"/><path class="sankey-link" d="M193.33333333333334,43.679999999999524C270,43.679999999999524 270,96.15999999999985 346.6666666666667,96.15999999999985L346.6666666666667,130.23999999999984C270,130.23999999999984 270,77.75999999999952 193.33333333333334,77.75999999999952Z" style="stroke: rgb(68, 68, 68); stroke-opacity: 1; fill: rgb(0, 0, 0); fill-opacity: 0.2; stroke-width: 0; opacity: 1;"/><path class="sankey-link" d="M193.33333333333334,77.75999999999952C270,77.75999999999952 270,161.75999999999988 346.6666666666667,161.75999999999988L346.6666666666667,180.4799999999999C270,180.4799999999999 270,96.47999999999952 193.33333333333334,96.47999999999952Z" style="stroke: rgb(68, 68, 68); stroke-opacity: 1; fill: rgb(0, 0, 0); fill-opacity: 0.2; stroke-width: 0; opacity: 1;"/><path class="sankey-link" d="M366.6666666666667,101.43999999999986C443.33333333333337,101.43999999999986 443.33333333333337,121.59999999999991 520,121.59999999999991L520,157.1199999999999C443.33333333333337,157.1199999999999 443.33333333333337,136.95999999999984 366.6666666666667,136.95999999999984Z" style="stroke: rgb(68, 68, 68); stroke-opacity: 1; fill: rgb(0, 0, 0); fill-opacity: 0.2; stroke-width: 0; opacity: 1;"/><path class="sankey-link" d="M366.6666666666667,136.95999999999984C443.33333333333337,136.95999999999984 443.33333333333337,280.6399999999999 520,280.6399999999999L520,285.4399999999998C443.33333333333337,285.4399999999998 443.33333333333337,141.75999999999985 366.6666666666667,141.75999999999985Z" style="stroke: rgb(68, 68, 68); stroke-opacity: 1; fill: rgb(0, 0, 0); fill-opacity: 0.2; stroke-width: 0; opacity: 1;"/><path class="sankey-link" d="M366.6666666666667,96.15999999999984C443.33333333333337,96.15999999999984 443.33333333333337,66.07999999999993 520,66.07999999999993L520,71.35999999999993C443.33333333333337,71.35999999999993 443.33333333333337,101.43999999999984 366.6666666666667,101.43999999999984Z" style="stroke: rgb(68, 68, 68); stroke-opacity: 1; fill: rgb(0, 0, 0); fill-opacity: 0.2; stroke-width: 0; opacity: 1;"/><path class="sankey-link" d="M366.6666666666667,173.75999999999988C443.33333333333337,173.75999999999988 443.33333333333337,200.63999999999976 520,200.63999999999976L520,236.63999999999976C443.33333333333337,236.63999999999976 443.33333333333337,209.75999999999988 366.6666666666667,209.75999999999988Z" style="stroke: rgb(68, 68, 68); stroke-opacity: 1; fill: rgb(0, 0, 0); fill-opacity: 0.2; stroke-width: 0; opacity: 1;"/><path class="sankey-link" d="M366.6666666666667,209.75999999999988C443.33333333333337,209.75999999999988 443.33333333333337,285.4399999999999 520,285.4399999999999L520,295.0399999999999C443.33333333333337,295.0399999999999 443.33333333333337,219.3599999999999 366.6666666666667,219.3599999999999Z" style="stroke: rgb(68, 68, 68); stroke-opacity: 1; fill: rgb(0, 0, 0); fill-opacity: 0.2; stroke-width: 0; opacity: 1;"/><path class="sankey-link" d="M366.6666666666667,167.51999999999987C443.33333333333337,167.51999999999987 443.33333333333337,157.1199999999999 520,157.1199999999999L520,163.3599999999999C443.33333333333337,163.3599999999999 443.33333333333337,173.75999999999988 366.6666666666667,173.75999999999988Z" style="stroke: rgb(68, 68, 68); stroke-opacity: 1; fill: rgb(0, 0, 0); fill-opacity: 0.2; stroke-width: 0; opacity: 1;"/><path class="sankey-link" d="M366.6666666666667,161.75999999999988C443.33333333333337,161.75999999999988 443.33333333333337,71.35999999999993 520,71.35999999999993L520,77.11999999999992C443.33333333333337,77.11999999999992 443.33333333333337,167.51999999999987 366.6666666666667,167.51999999999987Z" style="stroke: rgb(68, 68, 68); stroke-opacity: 1; fill: rgb(0, 0, 0); fill-opacity: 0.2; stroke-width: 0; opacity: 1;"/><path class="sankey-link" d="M366.6666666666667,19.999999999999915C443.33333333333337,19.999999999999915 443.33333333333337,19.999999999999922 520,19.999999999999922L520,66.07999999999993C443.33333333333337,66.07999999999993 443.33333333333337,66.07999999999991 366.6666666666667,66.07999999999991Z" style="stroke: rgb(68, 68, 68); stroke-opacity: 1; fill: rgb(0, 0, 0); fill-opacity: 0.2; stroke-width: 0; opacity: 1;"/><path class="sankey-link" d="M366.6666666666667,66.07999999999991C443.33333333333337,66.07999999999991 443.33333333333337,111.5199999999999 520,111.5199999999999L520,121.59999999999991C443.33333333333337,121.59999999999991 443.33333333333337,76.15999999999993 366.6666666666667,76.15999999999993Z" style="stroke: rgb(68, 68, 68); stroke-opacity: 1; fill: rgb(0, 0, 0); fill-opacity: 0.2; stroke-width: 0; opacity: 1;"/><path class="sankey-link" d="M366.6666666666667,295.0399999999998C443.33333333333337,295.0399999999998 443.33333333333337,295.0399999999999 520,295.0399999999999L520,319.99999999999994C443.33333333333337,319.99999999999994 443.33333333333337,319.99999999999983 366.6666666666667,319.99999999999983Z" style="stroke: rgb(68, 68, 68); stroke-opacity: 1; fill: rgb(0, 0, 0); fill-opacity: 0.2; stroke-width: 0; opacity: 1;"/><path class="sankey-link" d="M366.6666666666667,271.0399999999998C443.33333333333337,271.0399999999998 443.33333333333337,236.63999999999976 520,236.63999999999976L520,260.63999999999976C443.33333333333337,260.63999999999976 443.33333333333337,295.0399999999998 366.6666666666667,295.0399999999998Z" style="stroke: rgb(68, 68, 68); stroke-opacity: 1; fill: rgb(0, 0, 0); fill-opacity: 0.2; stroke-width: 0; opacity: 1;"/><path class="sankey-link" d="M366.6666666666667,239.3599999999998C443.33333333333337,239.3599999999998 443.33333333333337,77.11999999999993 520,77.11999999999993L520,91.51999999999994C443.33333333333337,91.51999999999994 443.33333333333337,253.75999999999976 366.6666666666667,253.75999999999976Z" style="stroke: rgb(68, 68, 68); stroke-opacity: 1; fill: rgb(0, 0, 0); fill-opacity: 0.2; stroke-width: 0; opacity: 1;"/><path class="sankey-link" d="M366.6666666666667,253.75999999999982C443.33333333333337,253.75999999999982 443.33333333333337,163.3599999999999 520,163.3599999999999L520,180.63999999999987C443.33333333333337,180.63999999999987 443.33333333333337,271.0399999999998 366.6666666666667,271.0399999999998Z" style="stroke: rgb(68, 68, 68); stroke-opacity: 1; fill: rgb(0, 0, 0); fill-opacity: 0.2; stroke-width: 0; opacity: 1;"/></g><g class="sankey-node-set" style="cursor: move;"><g class="sankey-node" transform="translate(0.000,0.000)" style="opacity: 1;"><rect class="node-rect" width="20" height="48.000000000000036" style="stroke-width: 0; stroke: rgb(128, 0, 128); stroke-opacity: 1; fill: rgb(87, 74, 226); fill-opacity: 1;"/><rect class="node-capture" x="-10" y="-10" width="40" height="68.00000000000003" style="fill-opacity: 0;"/><g class="node-entered" transform="translate(0,25.000000000000018)"><path class="node-label-guide" id="836756_0_node_0" d="M24,0L540,0" transform="matrix(1 0 0 1 0 0)"/><text class="node-label" transform="scale(1 1)" style="cursor: default; fill: rgb(42, 63, 95); text-shadow: rgb(255, 255, 255) -1px 1px 1px, rgb(255, 255, 255) 1px 1px 1px, rgb(255, 255, 255) 1px -1px 1px, rgb(255, 255, 255) -1px -1px 1px; font-family: 'Open Sans', verdana, arial, sans-serif; font-size: 10px; fill-opacity: 1;"><textPath class="node-label-text-path" alignment-baseline="middle" xlink:href="#836756_0_node_0" startOffset="0%" text-anchor="start" style="fill: rgb(0, 0, 0);">A1</textPath></text></g></g><g class="sankey-node" transform="translate(0.000,204.000)" style="opacity: 1;"><rect class="node-rect" width="20" height="47.99999999999994" style="stroke-width: 0; stroke: rgb(128, 0, 128); stroke-opacity: 1; fill: rgb(87, 74, 226); fill-opacity: 1;"/><rect class="node-capture" x="-10" y="-10" width="40" height="67.99999999999994" style="fill-opacity: 0;"/><g class="node-entered" transform="translate(0,24.99999999999997)"><path class="node-label-guide" id="836756_0_node_1" d="M24,0L540,0" transform="matrix(1 0 0 1 0 0)"/><text class="node-label" transform="scale(1 1)" style="cursor: default; fill: rgb(42, 63, 95); text-shadow: rgb(255, 255, 255) -1px 1px 1px, rgb(255, 255, 255) 1px 1px 1px, rgb(255, 255, 255) 1px -1px 1px, rgb(255, 255, 255) -1px -1px 1px; font-family: 'Open Sans', verdana, arial, sans-serif; font-size: 10px; fill-opacity: 1;"><textPath class="node-label-text-path" alignment-baseline="middle" xlink:href="#836756_0_node_1" startOffset="0%" text-anchor="start" style="fill: rgb(0, 0, 0);">A2</textPath></text></g></g><g class="sankey-node" transform="translate(0.000,272.000)" style="opacity: 1;"><rect class="node-rect" width="20" height="47.99999999999994" style="stroke-width: 0; stroke: rgb(128, 0, 128); stroke-opacity: 1; fill: rgb(87, 74, 226); fill-opacity: 1;"/><rect class="node-capture" x="-10" y="-10" width="40" height="67.99999999999994" style="fill-opacity: 0;"/><g class="node-entered" transform="translate(0,24.99999999999997)"><path class="node-label-guide" id="836756_0_node_2" d="M24,0L540,0" transform="matrix(1 0 0 1 0 0)"/><text class="node-label" transform="scale(1 1)" style="cursor: default; fill: rgb(42, 63, 95); text-shadow: rgb(255, 255, 255) -1px 1px 1px, rgb(255, 255, 255) 1px 1px 1px, rgb(255, 255, 255) 1px -1px 1px, rgb(255, 255, 255) -1px -1px 1px; font-family: 'Open Sans', verdana, arial, sans-serif; font-size: 10px; fill-opacity: 1;"><textPath class="node-label-text-path" alignment-baseline="middle" xlink:href="#836756_0_node_2" startOffset="0%" text-anchor="start" style="fill: rgb(0, 0, 0);">A3</textPath></text></g></g><g class="sankey-node" transform="translate(0.000,68.000)" style="opacity: 1;"><rect class="node-rect" width="20" height="48.00000000000004" style="stroke-width: 0; stroke: rgb(128, 0, 128); stroke-opacity: 1; fill: rgb(87, 74, 226); fill-opacity: 1;"/><rect class="node-capture" x="-10" y="-10" width="40" height="68.00000000000004" style="fill-opacity: 0;"/><g class="node-entered" transform="translate(0,25.00000000000002)"><path class="node-label-guide" id="836756_0_node_3" d="M24,0L540,0" transform="matrix(1 0 0 1 0 0)"/><text class="node-label" transform="scale(1 1)" style="cursor: default; fill: rgb(42, 63, 95); text-shadow: rgb(255, 255, 255) -1px 1px 1px, rgb(255, 255, 255) 1px 1px 1px, rgb(255, 255, 255) 1px -1px 1px, rgb(255, 255, 255) -1px -1px 1px; font-family: 'Open Sans', verdana, arial, sans-serif; font-size: 10px; fill-opacity: 1;"><textPath class="node-label-text-path" alignment-baseline="middle" xlink:href="#836756_0_node_3" startOffset="0%" text-anchor="start" style="fill: rgb(0, 0, 0);">A4</textPath></text></g></g><g class="sankey-node" transform="translate(0.000,136.000)" style="opacity: 1;"><rect class="node-rect" width="20" height="47.99999999999994" style="stroke-width: 0; stroke: rgb(128, 0, 128); stroke-opacity: 1; fill: rgb(87, 74, 226); fill-opacity: 1;"/><rect class="node-capture" x="-10" y="-10" width="40" height="67.99999999999994" style="fill-opacity: 0;"/><g class="node-entered" transform="translate(0,24.99999999999997)"><path class="node-label-guide" id="836756_0_node_4" d="M24,0L540,0" transform="matrix(1 0 0 1 0 0)"/><text class="node-label" transform="scale(1 1)" style="cursor: default; fill: rgb(42, 63, 95); text-shadow: rgb(255, 255, 255) -1px 1px 1px, rgb(255, 255, 255) 1px 1px 1px, rgb(255, 255, 255) 1px -1px 1px, rgb(255, 255, 255) -1px -1px 1px; font-family: 'Open Sans', verdana, arial, sans-serif; font-size: 10px; fill-opacity: 1;"><textPath class="node-label-text-path" alignment-baseline="middle" xlink:href="#836756_0_node_4" startOffset="0%" text-anchor="start" style="fill: rgb(0, 0, 0);">A5</textPath></text></g></g><g class="sankey-node" transform="translate(173.333,116.480)" style="opacity: 1;"><rect class="node-rect" width="20" height="25.439999999999998" style="stroke-width: 0; stroke: rgb(128, 0, 128); stroke-opacity: 1; fill: rgb(87, 74, 226); fill-opacity: 1;"/><rect class="node-capture" x="-10" y="-10" width="40" height="45.44" style="fill-opacity: 0;"/><g class="node-entered" transform="translate(0,13.719999999999999)"><path class="node-label-guide" id="836756_0_node_5" d="M24,0L540,0" transform="matrix(1 0 0 1 0 0)"/><text class="node-label" transform="scale(1 1)" style="cursor: default; fill: rgb(42, 63, 95); text-shadow: rgb(255, 255, 255) -1px 1px 1px, rgb(255, 255, 255) 1px 1px 1px, rgb(255, 255, 255) 1px -1px 1px, rgb(255, 255, 255) -1px -1px 1px; font-family: 'Open Sans', verdana, arial, sans-serif; font-size: 10px; fill-opacity: 1;"><textPath class="node-label-text-path" alignment-baseline="middle" xlink:href="#836756_0_node_5" startOffset="0%" text-anchor="start" style="fill: rgb(0, 0, 0);">B1</textPath></text></g></g><g class="sankey-node" transform="translate(173.333,161.920)" style="opacity: 1;"><rect class="node-rect" width="20" height="45.12000000000012" style="stroke-width: 0; stroke: rgb(128, 0, 128); stroke-opacity: 1; fill: rgb(87, 74, 226); fill-opacity: 1;"/><rect class="node-capture" x="-10" y="-10" width="40" height="65.12000000000012" style="fill-opacity: 0;"/><g class="node-entered" transform="translate(0,23.56000000000006)"><path class="node-label-guide" id="836756_0_node_6" d="M24,0L540,0" transform="matrix(1 0 0 1 0 0)"/><text class="node-label" transform="scale(1 1)" style="cursor: default; fill: rgb(42, 63, 95); text-shadow: rgb(255, 255, 255) -1px 1px 1px, rgb(255, 255, 255) 1px 1px 1px, rgb(255, 255, 255) 1px -1px 1px, rgb(255, 255, 255) -1px -1px 1px; font-family: 'Open Sans', verdana, arial, sans-serif; font-size: 10px; fill-opacity: 1;"><textPath class="node-label-text-path" alignment-baseline="middle" xlink:href="#836756_0_node_6" startOffset="0%" text-anchor="start" style="fill: rgb(0, 0, 0);">B2</textPath></text></g></g><g class="sankey-node" transform="translate(173.333,263.360)" style="opacity: 1;"><rect class="node-rect" width="20" height="56.6400000000001" style="stroke-width: 0; stroke: rgb(128, 0, 128); stroke-opacity: 1; fill: rgb(87, 74, 226); fill-opacity: 1;"/><rect class="node-capture" x="-10" y="-10" width="40" height="76.6400000000001" style="fill-opacity: 0;"/><g class="node-entered" transform="translate(0,29.32000000000005)"><path class="node-label-guide" id="836756_0_node_7" d="M24,0L540,0" transform="matrix(1 0 0 1 0 0)"/><text class="node-label" transform="scale(1 1)" style="cursor: default; fill: rgb(42, 63, 95); text-shadow: rgb(255, 255, 255) -1px 1px 1px, rgb(255, 255, 255) 1px 1px 1px, rgb(255, 255, 255) 1px -1px 1px, rgb(255, 255, 255) -1px -1px 1px; font-family: 'Open Sans', verdana, arial, sans-serif; font-size: 10px; fill-opacity: 1;"><textPath class="node-label-text-path" alignment-baseline="middle" xlink:href="#836756_0_node_7" startOffset="0%" text-anchor="start" style="fill: rgb(0, 0, 0);">B3</textPath></text></g></g><g class="sankey-node" transform="translate(173.333,227.040)" style="opacity: 1;"><rect class="node-rect" width="20" height="16.320000000000164" style="stroke-width: 0; stroke: rgb(128, 0, 128); stroke-opacity: 1; fill: rgb(87, 74, 226); fill-opacity: 1;"/><rect class="node-capture" x="-10" y="-10" width="40" height="36.320000000000164" style="fill-opacity: 0;"/><g class="node-entered" transform="translate(0,9.160000000000082)"><path class="node-label-guide" id="836756_0_node_8" d="M24,0L540,0" transform="matrix(1 0 0 1 0 0)"/><text class="node-label" transform="scale(1 1)" style="cursor: default; fill: rgb(42, 63, 95); text-shadow: rgb(255, 255, 255) -1px 1px 1px, rgb(255, 255, 255) 1px 1px 1px, rgb(255, 255, 255) 1px -1px 1px, rgb(255, 255, 255) -1px -1px 1px; font-family: 'Open Sans', verdana, arial, sans-serif; font-size: 10px; fill-opacity: 1;"><textPath class="node-label-text-path" alignment-baseline="middle" xlink:href="#836756_0_node_8" startOffset="0%" text-anchor="start" style="fill: rgb(0, 0, 0);">B4</textPath></text></g></g><g class="sankey-node" transform="translate(173.333,-0.000)" style="opacity: 1;"><rect class="node-rect" width="20" height="96.48000000000009" style="stroke-width: 0; stroke: rgb(128, 0, 128); stroke-opacity: 1; fill: rgb(87, 74, 226); fill-opacity: 1;"/><rect class="node-capture" x="-10" y="-10" width="40" height="116.48000000000009" style="fill-opacity: 0;"/><g class="node-entered" transform="translate(0,49.240000000000045)"><path class="node-label-guide" id="836756_0_node_9" d="M24,0L540,0" transform="matrix(1 0 0 1 0 0)"/><text class="node-label" transform="scale(1 1)" style="cursor: default; fill: rgb(42, 63, 95); text-shadow: rgb(255, 255, 255) -1px 1px 1px, rgb(255, 255, 255) 1px 1px 1px, rgb(255, 255, 255) 1px -1px 1px, rgb(255, 255, 255) -1px -1px 1px; font-family: 'Open Sans', verdana, arial, sans-serif; font-size: 10px; fill-opacity: 1;"><textPath class="node-label-text-path" alignment-baseline="middle" xlink:href="#836756_0_node_9" startOffset="0%" text-anchor="start" style="fill: rgb(0, 0, 0);">B5</textPath></text></g></g><g class="sankey-node" transform="translate(346.667,96.160)" style="opacity: 1;"><rect class="node-rect" width="20" height="45.60000000000004" style="stroke-width: 0; stroke: rgb(128, 0, 128); stroke-opacity: 1; fill: rgb(87, 74, 226); fill-opacity: 1;"/><rect class="node-capture" x="-10" y="-10" width="40" height="65.60000000000004" style="fill-opacity: 0;"/><g class="node-entered" transform="translate(0,23.80000000000002)"><path class="node-label-guide" id="836756_0_node_10" d="M24,0L540,0" transform="matrix(1 0 0 1 0 0)"/><text class="node-label" transform="scale(1 1)" style="cursor: default; fill: rgb(42, 63, 95); text-shadow: rgb(255, 255, 255) -1px 1px 1px, rgb(255, 255, 255) 1px 1px 1px, rgb(255, 255, 255) 1px -1px 1px, rgb(255, 255, 255) -1px -1px 1px; font-family: 'Open Sans', verdana, arial, sans-serif; font-size: 10px; fill-opacity: 1;"><textPath class="node-label-text-path" alignment-baseline="middle" xlink:href="#836756_0_node_10" startOffset="0%" text-anchor="start" style="fill: rgb(0, 0, 0);">C1</textPath></text></g></g><g class="sankey-node" transform="translate(346.667,161.760)" style="opacity: 1;"><rect class="node-rect" width="20" height="57.59999999999991" style="stroke-width: 0; stroke: rgb(128, 0, 128); stroke-opacity: 1; fill: rgb(87, 74, 226); fill-opacity: 1;"/><rect class="node-capture" x="-10" y="-10" width="40" height="77.59999999999991" style="fill-opacity: 0;"/><g class="node-entered" transform="translate(0,29.799999999999955)"><path class="node-label-guide" id="836756_0_node_11" d="M24,0L540,0" transform="matrix(1 0 0 1 0 0)"/><text class="node-label" transform="scale(1 1)" style="cursor: default; fill: rgb(42, 63, 95); text-shadow: rgb(255, 255, 255) -1px 1px 1px, rgb(255, 255, 255) 1px 1px 1px, rgb(255, 255, 255) 1px -1px 1px, rgb(255, 255, 255) -1px -1px 1px; font-family: 'Open Sans', verdana, arial, sans-serif; font-size: 10px; fill-opacity: 1;"><textPath class="node-label-text-path" alignment-baseline="middle" xlink:href="#836756_0_node_11" startOffset="0%" text-anchor="start" style="fill: rgb(0, 0, 0);">C2</textPath></text></g></g><g class="sankey-node" transform="translate(346.667,20.000)" style="opacity: 1;"><rect class="node-rect" width="20" height="56.159999999999926" style="stroke-width: 0; stroke: rgb(128, 0, 128); stroke-opacity: 1; fill: rgb(87, 74, 226); fill-opacity: 1;"/><rect class="node-capture" x="-10" y="-10" width="40" height="76.15999999999993" style="fill-opacity: 0;"/><g class="node-entered" transform="translate(0,29.079999999999963)"><path class="node-label-guide" id="836756_0_node_12" d="M24,0L540,0" transform="matrix(1 0 0 1 0 0)"/><text class="node-label" transform="scale(1 1)" style="cursor: default; fill: rgb(42, 63, 95); text-shadow: rgb(255, 255, 255) -1px 1px 1px, rgb(255, 255, 255) 1px 1px 1px, rgb(255, 255, 255) 1px -1px 1px, rgb(255, 255, 255) -1px -1px 1px; font-family: 'Open Sans', verdana, arial, sans-serif; font-size: 10px; fill-opacity: 1;"><textPath class="node-label-text-path" alignment-baseline="middle" xlink:href="#836756_0_node_12" startOffset="0%" text-anchor="start" style="fill: rgb(0, 0, 0);">C3</textPath></text></g></g><g class="sankey-node" transform="translate(346.667,239.360)" style="opacity: 1;"><rect class="node-rect" width="20" height="80.64000000000021" style="stroke-width: 0; stroke: rgb(128, 0, 128); stroke-opacity: 1; fill: rgb(87, 74, 226); fill-opacity: 1;"/><rect class="node-capture" x="-10" y="-10" width="40" height="100.64000000000021" style="fill-opacity: 0;"/><g class="node-entered" transform="translate(0,41.32000000000011)"><path class="node-label-guide" id="836756_0_node_13" d="M24,0L540,0" transform="matrix(1 0 0 1 0 0)"/><text class="node-label" transform="scale(1 1)" style="cursor: default; fill: rgb(42, 63, 95); text-shadow: rgb(255, 255, 255) -1px 1px 1px, rgb(255, 255, 255) 1px 1px 1px, rgb(255, 255, 255) 1px -1px 1px, rgb(255, 255, 255) -1px -1px 1px; font-family: 'Open Sans', verdana, arial, sans-serif; font-size: 10px; fill-opacity: 1;"><textPath class="node-label-text-path" alignment-baseline="middle" xlink:href="#836756_0_node_13" startOffset="0%" text-anchor="start" style="fill: rgb(0, 0, 0);">C4</textPath></text></g></g><g class="sankey-node" transform="translate(520.000,20.000)" style="opacity: 1;"><rect class="node-rect" width="20" height="71.51999999999998" style="stroke-width: 0; stroke: rgb(128, 0, 128); stroke-opacity: 1; fill: rgb(87, 74, 226); fill-opacity: 1;"/><rect class="node-capture" x="-10" y="-10" width="40" height="91.51999999999998" style="fill-opacity: 0;"/><g class="node-entered" transform="translate(0,36.75999999999999)"><path class="node-label-guide" id="836756_0_node_14" d="M-540,0L-4,0" transform="matrix(1 0 0 1 0 0)"/><text class="node-label" transform="scale(1 1)" style="cursor: default; fill: rgb(42, 63, 95); text-shadow: rgb(255, 255, 255) -1px 1px 1px, rgb(255, 255, 255) 1px 1px 1px, rgb(255, 255, 255) 1px -1px 1px, rgb(255, 255, 255) -1px -1px 1px; font-family: 'Open Sans', verdana, arial, sans-serif; font-size: 10px; fill-opacity: 1;"><textPath class="node-label-text-path" alignment-baseline="middle" xlink:href="#836756_0_node_14" startOffset="100%" text-anchor="end" style="fill: rgb(0, 0, 0);">D1</textPath></text></g></g><g class="sankey-node" transform="translate(520.000,111.520)" style="opacity: 1;"><rect class="node-rect" width="20" height="69.11999999999986" style="stroke-width: 0; stroke: rgb(128, 0, 128); stroke-opacity: 1; fill: rgb(87, 74, 226); fill-opacity: 1;"/><rect class="node-capture" x="-10" y="-10" width="40" height="89.11999999999986" style="fill-opacity: 0;"/><g class="node-entered" transform="translate(0,35.55999999999993)"><path class="node-label-guide" id="836756_0_node_15" d="M-540,0L-4,0" transform="matrix(1 0 0 1 0 0)"/><text class="node-label" transform="scale(1 1)" style="cursor: default; fill: rgb(42, 63, 95); text-shadow: rgb(255, 255, 255) -1px 1px 1px, rgb(255, 255, 255) 1px 1px 1px, rgb(255, 255, 255) 1px -1px 1px, rgb(255, 255, 255) -1px -1px 1px; font-family: 'Open Sans', verdana, arial, sans-serif; font-size: 10px; fill-opacity: 1;"><textPath class="node-label-text-path" alignment-baseline="middle" xlink:href="#836756_0_node_15" startOffset="100%" text-anchor="end" style="fill: rgb(0, 0, 0);">D2</textPath></text></g></g><g class="sankey-node" transform="translate(520.000,200.640)" style="opacity: 1;"><rect class="node-rect" width="20" height="60.000000000000114" style="stroke-width: 0; stroke: rgb(128, 0, 128); stroke-opacity: 1; fill: rgb(87, 74, 226); fill-opacity: 1;"/><rect class="node-capture" x="-10" y="-10" width="40" height="80.00000000000011" style="fill-opacity: 0;"/><g class="node-entered" transform="translate(0,31.000000000000057)"><path class="node-label-guide" id="836756_0_node_16" d="M-540,0L-4,0" transform="matrix(1 0 0 1 0 0)"/><text class="node-label" transform="scale(1 1)" style="cursor: default; fill: rgb(42, 63, 95); text-shadow: rgb(255, 255, 255) -1px 1px 1px, rgb(255, 255, 255) 1px 1px 1px, rgb(255, 255, 255) 1px -1px 1px, rgb(255, 255, 255) -1px -1px 1px; font-family: 'Open Sans', verdana, arial, sans-serif; font-size: 10px; fill-opacity: 1;"><textPath class="node-label-text-path" alignment-baseline="middle" xlink:href="#836756_0_node_16" startOffset="100%" text-anchor="end" style="fill: rgb(0, 0, 0);">D3</textPath></text></g></g><g class="sankey-node" transform="translate(520.000,280.640)" style="opacity: 1;"><rect class="node-rect" width="20" height="39.36000000000013" style="stroke-width: 0; stroke: rgb(128, 0, 128); stroke-opacity: 1; fill: rgb(87, 74, 226); fill-opacity: 1;"/><rect class="node-capture" x="-10" y="-10" width="40" height="59.36000000000013" style="fill-opacity: 0;"/><g class="node-entered" transform="translate(0,20.680000000000064)"><path class="node-label-guide" id="836756_0_node_17" d="M-540,0L-4,0" transform="matrix(1 0 0 1 0 0)"/><text class="node-label" transform="scale(1 1)" style="cursor: default; fill: rgb(42, 63, 95); text-shadow: rgb(255, 255, 255) -1px 1px 1px, rgb(255, 255, 255) 1px 1px 1px, rgb(255, 255, 255) 1px -1px 1px, rgb(255, 255, 255) -1px -1px 1px; font-family: 'Open Sans', verdana, arial, sans-serif; font-size: 10px; fill-opacity: 1;"><textPath class="node-label-text-path" alignment-baseline="middle" xlink:href="#836756_0_node_17" startOffset="100%" text-anchor="end" style="fill: rgb(0, 0, 0);">D4</textPath></text></g></g></g></g><defs id="topdefs-4b9255"><g class="clips"/></defs><g class="layer-above"><g class="imagelayer"/><g class="shapelayer"/></g><g class="infolayer"><g class="g-gtitle"><text class="gtitle" x="35" y="50" text-anchor="start" dy="0em" style="font-family: 'Open Sans', verdana, arial, sans-serif; font-size: 14px; fill: rgb(42, 63, 95); opacity: 1; font-weight: normal; white-space: pre;">Sankey Diagram 11</text></g><g class="first-render"/></g></svg>