<svg class="main-svg" xmlns="http://www.w3.org/2000/svg" xmlns:xlink="http://www.w3.org/1999/xlink" width="700" height="500" style="" viewBox="0 0 700 500"><rect x="0" y="0" width="700" height="500" style="fill: rgb(255, 255, 255); fill-opacity: 1;"/><defs id="defs-b2b98b"><g class="clips"/><g class="gradients"/></defs><g class="bglayer"/><g class="layer-below"><g class="imagelayer"/><g class="shapelayer"/></g><g class="cartesianlayer"/><g class="polarlayer"/><g class="ternarylayer"/><g class="geolayer"/><g class="funnelarealayer"/><g class="pielayer"/><g class="treemaplayer"/><g class="sunburstlayer"/><g class="glimages"/><g class="sankey" transform="translate(80,100)matrix(1 0 0 1 0 0)" style="box-sizing: content-box; position: absolute; left: 0px; shape-rendering: geometricprecision; pointer-events: auto;"><g class="sankey-links" style="fill: none;"><path class="sankey-link" d="M20,60C96.66666666666667,60 96.66666666666667,40.00000000000051 173.33333333333334,40.00000000000051L173.33333333333334,100.00000000000051C96.66666666666667,100.00000000000051 96.66666666666667,120 20,120Z" style="stroke: rgb(68, 68, 68); stroke-opacity: 1; fill: rgb(0, 0, 0); fill-opacity: 0.2; stroke-width: 0; opacity: 1;"/><path class="sankey-link" d="M20,40C96.66666666666667,40 96.66666666666667,5.044853423896711e-13 173.33333333333334,5.044853423896711e-13L173.33333333333334,20.000000000000504C96.66666666666667,20.000000000000504 96.66666666666667,60 20,60Z" style="stroke: rgb(68, 68, 68); stroke-opacity: 1; fill: rgb(0, 0, 0); fill-opacity: 0.2; stroke-width: 0; opacity: 1;"/><path class="sankey-link" d="M20,240.00000000000006C96.66666666666667,240.00000000000006 96.66666666666667,188.0000000000005 173.33333333333334,188.0000000000005L173.33333333333334,246.4000000000005C96.66666666666667,246.4000000000005 96.66666666666667,298.40000000000003 20,298.40000000000003Z" style="stroke: rgb(68, 68, 68); stroke-opacity: 1; fill: rgb(0, 0, 0); fill-opacity: 0.2; stroke-width: 0; opacity: 1;"/><path class="sankey-link" d="M20,306.4000000000001C96.66666666666667,306.4000000000001 96.66666666666667,306.4000000000001 173.33333333333334,306.4000000000001L173.33333333333334,320.0000000000001C96.66666666666667,320.0000000000001 96.66666666666667,320.0000000000001 20,320.0000000000001Z" style="stroke: rgb(68, 68, 68); stroke-opacity: 1; fill: rgb(0, 0, 0); fill-opacity: 0.2; stroke-width: 0; opacity: 1;"/><path class="sankey-link" d="M20,298.4000000000001C96.66666666666667,298.4000000000001 96.66666666666667,278.4000000000001 173.33333333333334,278.4000000000001L173.33333333333334,286.4000000000001C96.66666666666667,286.4000000000001 96.66666666666667,306.4000000000001 20,306.4000000000001Z" style="stroke: rgb(68, 68, 68); stroke-opacity: 1; fill: rgb(0, 0, 0); fill-opacity: 0.2; stroke-width: 0; opacity: 1;"/><path class="sankey-link" d="M20,155.2C96.66666666666667,155.2 96.66666666666667,135.2000000000005 173.33333333333334,135.2000000000005L173.33333333333334,188.0000000000005C96.66666666666667,188.0000000000005 96.66666666666667,208 20,208Z" style="stroke: rgb(68, 68, 68); stroke-opacity: 1; fill: rgb(0, 0, 0); fill-opacity: 0.2; stroke-width: 0; opacity: 1;"/><path class="sankey-link" d="M20,208C96.66666666666667,208 96.66666666666667,266.4000000000001 173.33333333333334,266.4000000000001L173.33333333333334,278.4000000000001C96.66666666666667,278.4000000000001 96.66666666666667,220 20,220Z" style="stroke: rgb(68, 68, 68); stroke-opacity: 1; fill: rgb(0, 0, 0); fill-opacity: 0.2; stroke-width: 0; opacity: 1;"/><path class="sankey-link" d="M20,140C96.66666666666667,140 96.66666666666667,100.00000000000051 173.33333333333334,100.00000000000051L173.33333333333334,115.2000000000005C96.66666666666667,115.2000000000005 96.66666666666667,155.2 20,155.2Z" style="stroke: rgb(68, 68, 68); stroke-opacity: 1; fill: rgb(0, 0, 0); fill-opacity: 0.2; stroke-width: 0; opacity: 1;"/><path class="sankey-link" d="M193.33333333333334,135.2000000000005C270,135.2000000000005 270,173.59999999999988 346.6666666666667,173.59999999999988L346.6666666666667,241.59999999999988C270,241.59999999999988 270,203.2000000000005 193.33333333333334,203.2000000000005Z" style="stroke: rgb(68, 68, 68); stroke-opacity: 1; fill: rgb(0, 0, 0); fill-opacity: 0.2; stroke-width: 0; opacity: 1;"/><path class="sankey-link" d="M193.33333333333334,203.2000000000005C270,203.2000000000005 270,261.5999999999998 346.6666666666667,261.5999999999998L346.6666666666667,304.79999999999984C270,304.79999999999984 270,246.4000000000005 193.33333333333334,246.4000000000005Z" style="stroke: rgb(68, 68, 68); stroke-opacity: 1; fill: rgb(0, 0, 0); fill-opacity: 0.2; stroke-width: 0; opacity: 1;"/><path class="sankey-link" d="M193.33333333333334,5.044853423896711e-13C270,5.044853423896711e-13 270,-3.481659405224491e-13 346.6666666666667,-3.481659405224491e-13L346.6666666666667,19.999999999999652C270,19.999999999999652 270,20.000000000000504 193.33333333333334,20.000000000000504Z" style="stroke: rgb(68, 68, 68); stroke-opacity: 1; fill: rgb(0, 0, 0); fill-opacity: 0.2; stroke-width: 0; opacity: 1;"/><path class="sankey-link" d="M193.33333333333334,40.00000000000051C270,40.00000000000051 270,42.39999999999968 346.6666666666667,42.39999999999968L346.6666666666667,91.99999999999967C270,91.99999999999967 270,89.6000000000005 193.33333333333334,89.6000000000005Z" style="stroke: rgb(68, 68, 68); stroke-opacity: 1; fill: rgb(0, 0, 0); fill-opacity: 0.2; stroke-width: 0; opacity: 1;"/><path class="sankey-link" d="M193.33333333333334,89.6000000000005C270,89.6000000000005 270,111.9999999999998 346.6666666666667,111.9999999999998L346.6666666666667,137.5999999999998C270,137.5999999999998 270,115.2000000000005 193.33333333333334,115.2000000000005Z" style="stroke: rgb(68, 68, 68); stroke-opacity: 1; fill: rgb(0, 0, 0); fill-opacity: 0.2; stroke-width: 0; opacity: 1;"/><path class="sankey-link" d="M193.33333333333334,268.80000000000007C270,268.80000000000007 270,137.5999999999998 346.6666666666667,137.5999999999998L346.6666666666667,153.5999999999998C270,153.5999999999998 270,284.80000000000007 193.33333333333334,284.80000000000007Z" style="stroke: rgb(68, 68, 68); stroke-opacity: 1; fill: rgb(0, 0, 0); fill-opacity: 0.2; stroke-width: 0; opacity: 1;"/><path class="sankey-link" d="M193.33333333333334,284.80000000000007C270,284.80000000000007 270,304.7999999999998 346.6666666666667,304.7999999999998L346.6666666666667,306.3999999999998C270,306.3999999999998 270,286.4000000000001 193.33333333333334,286.4000000000001Z" style="stroke: rgb(68, 68, 68); stroke-opacity: 1; fill: rgb(0, 0, 0); fill-opacity: 0.2; stroke-width: 0; opacity: 1;"/><path class="sankey-link" d="M193.33333333333334,266.4000000000001C270,266.4000000000001 270,19.999999999999652 346.6666666666667,19.999999999999652L346.6666666666667,22.39999999999965C270,22.39999999999965 270,268.80000000000007 193.33333333333334,268.80000000000007Z" style="stroke: rgb(68, 68, 68); stroke-opacity: 1; fill: rgb(0, 0, 0); fill-opacity: 0.2; stroke-width: 0; opacity: 1;"/><path class="sankey-link" d="M193.33333333333334,306.4000000000001C270,306.4000000000001 270,306.3999999999998 346.6666666666667,306.3999999999998L346.6666666666667,319.99999999999983C270,319.99999999999983 270,320.0000000000001 193.33333333333334,320.0000000000001Z" style="stroke: rgb(68, 68, 68); stroke-opacity: 1; fill: rgb(0, 0, 0); fill-opacity: 0.2; stroke-width: 0; opacity: 1;"/><path class="sankey-link" d="M366.6666666666667,173.59999999999988C443.33333333333337,173.59999999999988 443.33333333333337,97.60000000000004 520,97.60000000000004L520,134.40000000000003C443.33333333333337,134.40000000000003 443.33333333333337,210.3999999999999 366.6666666666667,210.3999999999999Z" style="stroke: rgb(68, 68, 68); stroke-opacity: 1; fill: rgb(0, 0, 0); fill-opacity: 0.2; stroke-width: 0; opacity: 1;"/><path class="sankey-link" d="M366.6666666666667,210.3999999999999C443.33333333333337,210.3999999999999 443.33333333333337,272 520,272L520,303.20000000000005C443.33333333333337,303.20000000000005 443.33333333333337,241.59999999999988 366.6666666666667,241.59999999999988Z" style="stroke: rgb(68, 68, 68); stroke-opacity: 1; fill: rgb(0, 0, 0); fill-opacity: 0.2; stroke-width: 0; opacity: 1;"/><path class="sankey-link" d="M366.6666666666667,130.3999999999998C443.33333333333337,130.3999999999998 443.33333333333337,172.8000000000001 520,172.8000000000001L520,188.00000000000009C443.33333333333337,188.00000000000009 443.33333333333337,145.5999999999998 366.6666666666667,145.5999999999998Z" style="stroke: rgb(68, 68, 68); stroke-opacity: 1; fill: rgb(0, 0, 0); fill-opacity: 0.2; stroke-width: 0; opacity: 1;"/><path class="sankey-link" d="M366.6666666666667,111.9999999999998C443.33333333333337,111.9999999999998 443.33333333333337,36.800000000000026 520,36.800000000000026L520,50.40000000000002C443.33333333333337,50.40000000000002 443.33333333333337,125.5999999999998 366.6666666666667,125.5999999999998Z" style="stroke: rgb(68, 68, 68); stroke-opacity: 1; fill: rgb(0, 0, 0); fill-opacity: 0.2; stroke-width: 0; opacity: 1;"/><path class="sankey-link" d="M366.6666666666667,125.5999999999998C443.33333333333337,125.5999999999998 443.33333333333337,92.80000000000004 520,92.80000000000004L520,97.60000000000005C443.33333333333337,97.60000000000005 443.33333333333337,130.3999999999998 366.6666666666667,130.3999999999998Z" style="stroke: rgb(68, 68, 68); stroke-opacity: 1; fill: rgb(0, 0, 0); fill-opacity: 0.2; stroke-width: 0; opacity: 1;"/><path class="sankey-link" d="M366.6666666666667,145.5999999999998C443.33333333333337,145.5999999999998 443.33333333333337,264 520,264L520,272C443.33333333333337,272 443.33333333333337,153.5999999999998 366.6666666666667,153.5999999999998Z" style="stroke: rgb(68, 68, 68); stroke-opacity: 1; fill: rgb(0, 0, 0); fill-opacity: 0.2; stroke-width: 0; opacity: 1;"/><path class="sankey-link" d="M366.6666666666667,77.59999999999968C443.33333333333337,77.59999999999968 443.33333333333337,249.60000000000002 520,249.60000000000002L520,264C443.33333333333337,264 443.33333333333337,91.99999999999969 366.6666666666667,91.99999999999969Z" style="stroke: rgb(68, 68, 68); stroke-opacity: 1; fill: rgb(0, 0, 0); fill-opacity: 0.2; stroke-width: 0; opacity: 1;"/><path class="sankey-link" d="M366.6666666666667,59.199999999999676C443.33333333333337,59.199999999999676 443.33333333333337,154.4000000000001 520,154.4000000000001L520,172.80000000000007C443.33333333333337,172.80000000000007 443.33333333333337,77.59999999999968 366.6666666666667,77.59999999999968Z" style="stroke: rgb(68, 68, 68); stroke-opacity: 1; fill: rgb(0, 0, 0); fill-opacity: 0.2; stroke-width: 0; opacity: 1;"/><path class="sankey-link" d="M366.6666666666667,51.99999999999968C443.33333333333337,51.99999999999968 443.33333333333337,85.60000000000004 520,85.60000000000004L520,92.80000000000003C443.33333333333337,92.80000000000003 443.33333333333337,59.19999999999968 366.6666666666667,59.19999999999968Z" style="stroke: rgb(68, 68, 68); stroke-opacity: 1; fill: rgb(0, 0, 0); fill-opacity: 0.2; stroke-width: 0; opacity: 1;"/><path class="sankey-link" d="M366.6666666666667,42.39999999999968C443.33333333333337,42.39999999999968 443.33333333333337,27.200000000000028 520,27.200000000000028L520,36.800000000000026C443.33333333333337,36.800000000000026 443.33333333333337,51.99999999999967 366.6666666666667,51.99999999999967Z" style="stroke: rgb(68, 68, 68); stroke-opacity: 1; fill: rgb(0, 0, 0); fill-opacity: 0.2; stroke-width: 0; opacity: 1;"/><path class="sankey-link" d="M366.6666666666667,303.1999999999998C443.33333333333337,303.1999999999998 443.33333333333337,303.2 520,303.2L520,319.99999999999994C443.33333333333337,319.99999999999994 443.33333333333337,319.9999999999998 366.6666666666667,319.9999999999998Z" style="stroke: rgb(68, 68, 68); stroke-opacity: 1; fill: rgb(0, 0, 0); fill-opacity: 0.2; stroke-width: 0; opacity: 1;"/><path class="sankey-link" d="M366.6666666666667,261.5999999999998C443.33333333333337,261.5999999999998 443.33333333333337,188.00000000000009 520,188.00000000000009L520,229.6000000000001C443.33333333333337,229.6000000000001 443.33333333333337,303.1999999999998 366.6666666666667,303.1999999999998Z" style="stroke: rgb(68, 68, 68); stroke-opacity: 1; fill: rgb(0, 0, 0); fill-opacity: 0.2; stroke-width: 0; opacity: 1;"/><path class="sankey-link" d="M366.6666666666667,-3.481659405224491e-13C443.33333333333337,-3.481659405224491e-13 443.33333333333337,20.00000000000003 520,20.00000000000003L520,27.20000000000003C443.33333333333337,27.20000000000003 443.33333333333337,7.199999999999652 366.6666666666667,7.199999999999652Z" style="stroke: rgb(68, 68, 68); stroke-opacity: 1; fill: rgb(0, 0, 0); fill-opacity: 0.2; stroke-width: 0; opacity: 1;"/><path class="sankey-link" d="M366.6666666666667,7.199999999999652C443.33333333333337,7.199999999999652 443.33333333333337,70.40000000000003 520,70.40000000000003L520,85.60000000000002C443.33333333333337,85.60000000000002 443.33333333333337,22.399999999999654 366.6666666666667,22.399999999999654Z" style="stroke: rgb(68, 68, 68); stroke-opacity: 1; fill: rgb(0, 0, 0); fill-opacity: 0.2; stroke-width: 0; opacity: 1;"/></g><g class="sankey-node-set" style="cursor: move;"><g class="sankey-node" transform="translate(0.000,40.000)" style="opacity: 1;"><rect class="node-rect" width="20" height="80" style="stroke-width: 0; stroke: rgb(128, 0, 128); stroke-opacity: 1; fill: rgb(87, 74, 226); fill-opacity: 1;"/><rect class="node-capture" x="-10" y="-10" width="40" height="100" style="fill-opacity: 0;"/><g class="node-entered" transform="translate(0,41)"><path class="node-label-guide" id="2094b2_0_node_0" d="M24,0L540,0" transform="matrix(1 0 0 1 0 0)"/><text class="node-label" transform="scale(1 1)" style="cursor: default; fill: rgb(42, 63, 95); text-shadow: rgb(255, 255, 255) -1px 1px 1px, rgb(255, 255, 255) 1px 1px 1px, rgb(255, 255, 255) 1px -1px 1px, rgb(255, 255, 255) -1px -1px 1px; font-family: 'Open Sans', verdana, arial, sans-serif; font-size: 10px; fill-opacity: 1;"><textPath class="node-label-text-path" alignment-baseline="middle" xlink:href="#2094b2_0_node_0" startOffset="0%" text-anchor="start" style="fill: rgb(0, 0, 0);">A1</textPath></text></g></g><g class="sankey-node" transform="translate(0.000,240.000)" style="opacity: 1;"><rect class="node-rect" width="20" height="79.99999999999994" style="stroke-width: 0; stroke: rgb(128, 0, 128); stroke-opacity: 1; fill: rgb(87, 74, 226); fill-opacity: 1;"/><rect class="node-capture" x="-10" y="-10" width="40" height="99.99999999999994" style="fill-opacity: 0;"/><g class="node-entered" transform="translate(0,40.99999999999997)"><path class="node-label-guide" id="2094b2_0_node_1" d="M24,0L540,0" transform="matrix(1 0 0 1 0 0)"/><text class="node-label" transform="scale(1 1)" style="cursor: default; fill: rgb(42, 63, 95); text-shadow: rgb(255, 255, 255) -1px 1px 1px, rgb(255, 255, 255) 1px 1px 1px, rgb(255, 255, 255) 1px -1px 1px, rgb(255, 255, 255) -1px -1px 1px; font-family: 'Open Sans', verdana, arial, sans-serif; font-size: 10px; fill-opacity: 1;"><textPath class="node-label-text-path" alignment-baseline="middle" xlink:href="#2094b2_0_node_1" startOffset="0%" text-anchor="start" style="fill: rgb(0, 0, 0);">A2</textPath></text></g></g><g class="sankey-node" transform="translate(0.000,140.000)" style="opacity: 1;"><rect class="node-rect" width="20" height="80.00000000000006" style="stroke-width: 0; stroke: rgb(128, 0, 128); stroke-opacity: 1; fill: rgb(87, 74, 226); fill-opacity: 1;"/><rect class="node-capture" x="-10" y="-10" width="40" height="100.00000000000006" style="fill-opacity: 0;"/><g class="node-entered" transform="translate(0,41.00000000000003)"><path class="node-label-guide" id="2094b2_0_node_2" d="M24,0L540,0" transform="matrix(1 0 0 1 0 0)"/><text class="node-label" transform="scale(1 1)" style="cursor: default; fill: rgb(42, 63, 95); text-shadow: rgb(255, 255, 255) -1px 1px 1px, rgb(255, 255, 255) 1px 1px 1px, rgb(255, 255, 255) 1px -1px 1px, rgb(255, 255, 255) -1px -1px 1px; font-family: 'Open Sans', verdana, arial, sans-serif; font-size: 10px; fill-opacity: 1;"><textPath class="node-label-text-path" alignment-baseline="middle" xlink:href="#2094b2_0_node_2" startOffset="0%" text-anchor="start" style="fill: rgb(0, 0, 0);">A3</textPath></text></g></g><g class="sankey-node" transform="translate(173.333,135.200)" style="opacity: 1;"><rect class="node-rect" width="20" height="111.19999999999959" style="stroke-width: 0; stroke: rgb(128, 0, 128); stroke-opacity: 1; fill: rgb(87, 74, 226); fill-opacity: 1;"/><rect class="node-capture" x="-10" y="-10" width="40" height="131.1999999999996" style="fill-opacity: 0;"/><g class="node-entered" transform="translate(0,56.599999999999795)"><path class="node-label-guide" id="2094b2_0_node_3" d="M24,0L540,0" transform="matrix(1 0 0 1 0 0)"/><text class="node-label" transform="scale(1 1)" style="cursor: default; fill: rgb(42, 63, 95); text-shadow: rgb(255, 255, 255) -1px 1px 1px, rgb(255, 255, 255) 1px 1px 1px, rgb(255, 255, 255) 1px -1px 1px, rgb(255, 255, 255) -1px -1px 1px; font-family: 'Open Sans', verdana, arial, sans-serif; font-size: 10px; fill-opacity: 1;"><textPath class="node-label-text-path" alignment-baseline="middle" xlink:href="#2094b2_0_node_3" startOffset="0%" text-anchor="start" style="fill: rgb(0, 0, 0);">B1</textPath></text></g></g><g class="sankey-node" transform="translate(173.333,0.000)" style="opacity: 1;"><rect class="node-rect" width="20" height="20.000000000000007" style="stroke-width: 0; stroke: rgb(128, 0, 128); stroke-opacity: 1; fill: rgb(87, 74, 226); fill-opacity: 1;"/><rect class="node-capture" x="-10" y="-10" width="40" height="40.00000000000001" style="fill-opacity: 0;"/><g class="node-entered" transform="translate(0,11.000000000000004)"><path class="node-label-guide" id="2094b2_0_node_4" d="M24,0L540,0" transform="matrix(1 0 0 1 0 0)"/><text class="node-label" transform="scale(1 1)" style="cursor: default; fill: rgb(42, 63, 95); text-shadow: rgb(255, 255, 255) -1px 1px 1px, rgb(255, 255, 255) 1px 1px 1px, rgb(255, 255, 255) 1px -1px 1px, rgb(255, 255, 255) -1px -1px 1px; font-family: 'Open Sans', verdana, arial, sans-serif; font-size: 10px; fill-opacity: 1;"><textPath class="node-label-text-path" alignment-baseline="middle" xlink:href="#2094b2_0_node_4" startOffset="0%" text-anchor="start" style="fill: rgb(0, 0, 0);">B2</textPath></text></g></g><g class="sankey-node" transform="translate(173.333,40.000)" style="opacity: 1;"><rect class="node-rect" width="20" height="75.19999999999999" style="stroke-width: 0; stroke: rgb(128, 0, 128); stroke-opacity: 1; fill: rgb(87, 74, 226); fill-opacity: 1;"/><rect class="node-capture" x="-10" y="-10" width="40" height="95.19999999999999" style="fill-opacity: 0;"/><g class="node-entered" transform="translate(0,38.599999999999994)"><path class="node-label-guide" id="2094b2_0_node_5" d="M24,0L540,0" transform="matrix(1 0 0 1 0 0)"/><text class="node-label" transform="scale(1 1)" style="cursor: default; fill: rgb(42, 63, 95); text-shadow: rgb(255, 255, 255) -1px 1px 1px, rgb(255, 255, 255) 1px 1px 1px, rgb(255, 255, 255) 1px -1px 1px, rgb(255, 255, 255) -1px -1px 1px; font-family: 'Open Sans', verdana, arial, sans-serif; font-size: 10px; fill-opacity: 1;"><textPath class="node-label-text-path" alignment-baseline="middle" xlink:href="#2094b2_0_node_5" startOffset="0%" text-anchor="start" style="fill: rgb(0, 0, 0);">B3</textPath></text></g></g><g class="sankey-node" transform="translate(173.333,266.400)" style="opacity: 1;"><rect class="node-rect" width="20" height="20" style="stroke-width: 0; stroke: rgb(128, 0, 128); stroke-opacity: 1; fill: rgb(87, 74, 226); fill-opacity: 1;"/><rect class="node-capture" x="-10" y="-10" width="40" height="40" style="fill-opacity: 0;"/><g class="node-entered" transform="translate(0,11)"><path class="node-label-guide" id="2094b2_0_node_6" d="M24,0L540,0" transform="matrix(1 0 0 1 0 0)"/><text class="node-label" transform="scale(1 1)" style="cursor: default; fill: rgb(42, 63, 95); text-shadow: rgb(255, 255, 255) -1px 1px 1px, rgb(255, 255, 255) 1px 1px 1px, rgb(255, 255, 255) 1px -1px 1px, rgb(255, 255, 255) -1px -1px 1px; font-family: 'Open Sans', verdana, arial, sans-serif; font-size: 10px; fill-opacity: 1;"><textPath class="node-label-text-path" alignment-baseline="middle" xlink:href="#2094b2_0_node_6" startOffset="0%" text-anchor="start" style="fill: rgb(0, 0, 0);">B4</textPath></text></g></g><g class="sankey-node" transform="translate(173.333,306.400)" style="opacity: 1;"><rect class="node-rect" width="20" height="13.599999999999909" style="stroke-width: 0; stroke: rgb(128, 0, 128); stroke-opacity: 1; fill: rgb(87, 74, 226); fill-opacity: 1;"/><rect class="node-capture" x="-10" y="-10" width="40" height="33.59999999999991" style="fill-opacity: 0;"/><g class="node-entered" transform="translate(0,7.7999999999999545)"><path class="node-label-guide" id="2094b2_0_node_7" d="M24,0L540,0" transform="matrix(1 0 0 1 0 0)"/><text class="node-label" transform="scale(1 1)" style="cursor: default; fill: rgb(42, 63, 95); text-shadow: rgb(255, 255, 255) -1px 1px 1px, rgb(255, 255, 255) 1px 1px 1px, rgb(255, 255, 255) 1px -1px 1px, rgb(255, 255, 255) -1px -1px 1px; font-family: 'Open Sans', verdana, arial, sans-serif; font-size: 10px; fill-opacity: 1;"><textPath class="node-label-text-path" alignment-baseline="middle" xlink:href="#2094b2_0_node_7" startOffset="0%" text-anchor="start" style="fill: rgb(0, 0, 0);">B5</textPath></text></g></g><g class="sankey-node" transform="translate(346.667,173.600)" style="opacity: 1;"><rect class="node-rect" width="20" height="67.99999999999991" style="stroke-width: 0; stroke: rgb(128, 0, 128); stroke-opacity: 1; fill: rgb(87, 74, 226); fill-opacity: 1;"/><rect class="node-capture" x="-10" y="-10" width="40" height="87.99999999999991" style="fill-opacity: 0;"/><g class="node-entered" transform="translate(0,34.99999999999996)"><path class="node-label-guide" id="2094b2_0_node_8" d="M24,0L540,0" transform="matrix(1 0 0 1 0 0)"/><text class="node-label" transform="scale(1 1)" style="cursor: default; fill: rgb(42, 63, 95); text-shadow: rgb(255, 255, 255) -1px 1px 1px, rgb(255, 255, 255) 1px 1px 1px, rgb(255, 255, 255) 1px -1px 1px, rgb(255, 255, 255) -1px -1px 1px; font-family: 'Open Sans', verdana, arial, sans-serif; font-size: 10px; fill-opacity: 1;"><textPath class="node-label-text-path" alignment-baseline="middle" xlink:href="#2094b2_0_node_8" startOffset="0%" text-anchor="start" style="fill: rgb(0, 0, 0);">C1</textPath></text></g></g><g class="sankey-node" transform="translate(346.667,112.000)" style="opacity: 1;"><rect class="node-rect" width="20" height="41.60000000000008" style="stroke-width: 0; stroke: rgb(128, 0, 128); stroke-opacity: 1; fill: rgb(87, 74, 226); fill-opacity: 1;"/><rect class="node-capture" x="-10" y="-10" width="40" height="61.60000000000008" style="fill-opacity: 0;"/><g class="node-entered" transform="translate(0,21.80000000000004)"><path class="node-label-guide" id="2094b2_0_node_9" d="M24,0L540,0" transform="matrix(1 0 0 1 0 0)"/><text class="node-label" transform="scale(1 1)" style="cursor: default; fill: rgb(42, 63, 95); text-shadow: rgb(255, 255, 255) -1px 1px 1px, rgb(255, 255, 255) 1px 1px 1px, rgb(255, 255, 255) 1px -1px 1px, rgb(255, 255, 255) -1px -1px 1px; font-family: 'Open Sans', verdana, arial, sans-serif; font-size: 10px; fill-opacity: 1;"><textPath class="node-label-text-path" alignment-baseline="middle" xlink:href="#2094b2_0_node_9" startOffset="0%" text-anchor="start" style="fill: rgb(0, 0, 0);">C2</textPath></text></g></g><g class="sankey-node" transform="translate(346.667,42.400)" style="opacity: 1;"><rect class="node-rect" width="20" height="49.60000000000012" style="stroke-width: 0; stroke: rgb(128, 0, 128); stroke-opacity: 1; fill: rgb(87, 74, 226); fill-opacity: 1;"/><rect class="node-capture" x="-10" y="-10" width="40" height="69.60000000000012" style="fill-opacity: 0;"/><g class="node-entered" transform="translate(0,25.80000000000006)"><path class="node-label-guide" id="2094b2_0_node_10" d="M24,0L540,0" transform="matrix(1 0 0 1 0 0)"/><text class="node-label" transform="scale(1 1)" style="cursor: default; fill: rgb(42, 63, 95); text-shadow: rgb(255, 255, 255) -1px 1px 1px, rgb(255, 255, 255) 1px 1px 1px, rgb(255, 255, 255) 1px -1px 1px, rgb(255, 255, 255) -1px -1px 1px; font-family: 'Open Sans', verdana, arial, sans-serif; font-size: 10px; fill-opacity: 1;"><textPath class="node-label-text-path" alignment-baseline="middle" xlink:href="#2094b2_0_node_10" startOffset="0%" text-anchor="start" style="fill: rgb(0, 0, 0);">C3</textPath></text></g></g><g class="sankey-node" transform="translate(346.667,261.600)" style="opacity: 1;"><rect class="node-rect" width="20" height="58.400000000000205" style="stroke-width: 0; stroke: rgb(128, 0, 128); stroke-opacity: 1; fill: rgb(87, 74, 226); fill-opacity: 1;"/><rect class="node-capture" x="-10" y="-10" width="40" height="78.4000000000002" style="fill-opacity: 0;"/><g class="node-entered" transform="translate(0,30.200000000000102)"><path class="node-label-guide" id="2094b2_0_node_11" d="M24,0L540,0" transform="matrix(1 0 0 1 0 0)"/><text class="node-label" transform="scale(1 1)" style="cursor: default; fill: rgb(42, 63, 95); text-shadow: rgb(255, 255, 255) -1px 1px 1px, rgb(255, 255, 255) 1px 1px 1px, rgb(255, 255, 255) 1px -1px 1px, rgb(255, 255, 255) -1px -1px 1px; font-family: 'Open Sans', verdana, arial, sans-serif; font-size: 10px; fill-opacity: 1;"><textPath class="node-label-text-path" alignment-baseline="middle" xlink:href="#2094b2_0_node_11" startOffset="0%" text-anchor="start" style="fill: rgb(0, 0, 0);">C4</textPath></text></g></g><g class="sankey-node" transform="translate(346.667,-0.000)" style="opacity: 1;"><rect class="node-rect" width="20" height="22.400000000000027" style="stroke-width: 0; stroke: rgb(128, 0, 128); stroke-opacity: 1; fill: rgb(87, 74, 226); fill-opacity: 1;"/><rect class="node-capture" x="-10" y="-10" width="40" height="42.40000000000003" style="fill-opacity: 0;"/><g class="node-entered" transform="translate(0,12.200000000000014)"><path class="node-label-guide" id="2094b2_0_node_12" d="M24,0L540,0" transform="matrix(1 0 0 1 0 0)"/><text class="node-label" transform="scale(1 1)" style="cursor: default; fill: rgb(42, 63, 95); text-shadow: rgb(255, 255, 255) -1px 1px 1px, rgb(255, 255, 255) 1px 1px 1px, rgb(255, 255, 255) 1px -1px 1px, rgb(255, 255, 255) -1px -1px 1px; font-family: 'Open Sans', verdana, arial, sans-serif; font-size: 10px; fill-opacity: 1;"><textPath class="node-label-text-path" alignment-baseline="middle" xlink:href="#2094b2_0_node_12" startOffset="0%" text-anchor="start" style="fill: rgb(0, 0, 0);">C5</textPath></text></g></g><g class="sankey-node" transform="translate(520.000,20.000)" style="opacity: 1;"><rect class="node-rect" width="20" height="30.400000000000006" style="stroke-width: 0; stroke: rgb(128, 0, 128); stroke-opacity: 1; fill: rgb(87, 74, 226); fill-opacity: 1;"/><rect class="node-capture" x="-10" y="-10" width="40" height="50.400000000000006" style="fill-opacity: 0;"/><g class="node-entered" transform="translate(0,16.200000000000003)"><path class="node-label-guide" id="2094b2_0_node_13" d="M-540,0L-4,0" transform="matrix(1 0 0 1 0 0)"/><text class="node-label" transform="scale(1 1)" style="cursor: default; fill: rgb(42, 63, 95); text-shadow: rgb(255, 255, 255) -1px 1px 1px, rgb(255, 255, 255) 1px 1px 1px, rgb(255, 255, 255) 1px -1px 1px, rgb(255, 255, 255) -1px -1px 1px; font-family: 'Open Sans', verdana, arial, sans-serif; font-size: 10px; fill-opacity: 1;"><textPath class="node-label-text-path" alignment-baseline="middle" xlink:href="#2094b2_0_node_13" startOffset="100%" text-anchor="end" style="fill: rgb(0, 0, 0);">D1</textPath></text></g></g><g class="sankey-node" transform="translate(520.000,154.400)" style="opacity: 1;"><rect class="node-rect" width="20" height="75.19999999999993" style="stroke-width: 0; stroke: rgb(128, 0, 128); stroke-opacity: 1; fill: rgb(87, 74, 226); fill-opacity: 1;"/><rect class="node-capture" x="-10" y="-10" width="40" height="95.19999999999993" style="fill-opacity: 0;"/><g class="node-entered" transform="translate(0,38.599999999999966)"><path class="node-label-guide" id="2094b2_0_node_14" d="M-540,0L-4,0" transform="matrix(1 0 0 1 0 0)"/><text class="node-label" transform="scale(1 1)" style="cursor: default; fill: rgb(42, 63, 95); text-shadow: rgb(255, 255, 255) -1px 1px 1px, rgb(255, 255, 255) 1px 1px 1px, rgb(255, 255, 255) 1px -1px 1px, rgb(255, 255, 255) -1px -1px 1px; font-family: 'Open Sans', verdana, arial, sans-serif; font-size: 10px; fill-opacity: 1;"><textPath class="node-label-text-path" alignment-baseline="middle" xlink:href="#2094b2_0_node_14" startOffset="100%" text-anchor="end" style="fill: rgb(0, 0, 0);">D2</textPath></text></g></g><g class="sankey-node" transform="translate(520.000,70.400)" style="opacity: 1;"><rect class="node-rect" width="20" height="64.00000000000006" style="stroke-width: 0; stroke: rgb(128, 0, 128); stroke-opacity: 1; fill: rgb(87, 74, 226); fill-opacity: 1;"/><rect class="node-capture" x="-10" y="-10" width="40" height="84.00000000000006" style="fill-opacity: 0;"/><g class="node-entered" transform="translate(0,33.00000000000003)"><path class="node-label-guide" id="2094b2_0_node_15" d="M-540,0L-4,0" transform="matrix(1 0 0 1 0 0)"/><text class="node-label" transform="scale(1 1)" style="cursor: default; fill: rgb(42, 63, 95); text-shadow: rgb(255, 255, 255) -1px 1px 1px, rgb(255, 255, 255) 1px 1px 1px, rgb(255, 255, 255) 1px -1px 1px, rgb(255, 255, 255) -1px -1px 1px; font-family: 'Open Sans', verdana, arial, sans-serif; font-size: 10px; fill-opacity: 1;"><textPath class="node-label-text-path" alignment-baseline="middle" xlink:href="#2094b2_0_node_15" startOffset="100%" text-anchor="end" style="fill: rgb(0, 0, 0);">D3</textPath></text></g></g><g class="sankey-node" transform="translate(520.000,249.600)" style="opacity: 1;"><rect class="node-rect" width="20" height="70.39999999999998" style="stroke-width: 0; stroke: rgb(128, 0, 128); stroke-opacity: 1; fill: rgb(87, 74, 226); fill-opacity: 1;"/><rect class="node-capture" x="-10" y="-10" width="40" height="90.39999999999998" style="fill-opacity: 0;"/><g class="node-entered" transform="translate(0,36.19999999999999)"><path class="node-label-guide" id="2094b2_0_node_16" d="M-540,0L-4,0" transform="matrix(1 0 0 1 0 0)"/><text class="node-label" transform="scale(1 1)" style="cursor: default; fill: rgb(42, 63, 95); text-shadow: rgb(255, 255, 255) -1px 1px 1px, rgb(255, 255, 255) 1px 1px 1px, rgb(255, 255, 255) 1px -1px 1px, rgb(255, 255, 255) -1px -1px 1px; font-family: 'Open Sans', verdana, arial, sans-serif; font-size: 10px; fill-opacity: 1;"><textPath class="node-label-text-path" alignment-baseline="middle" xlink:href="#2094b2_0_node_16" startOffset="100%" text-anchor="end" style="fill: rgb(0, 0, 0);">D4</textPath></text></g></g></g></g><defs id="topdefs-b2b98b"><g class="clips"/></defs><g class="layer-above"><g class="imagelayer"/><g class="shapelayer"/></g><g class="infolayer"><g class="g-gtitle"><text class="gtitle" x="35" y="50" text-anchor="start" dy="0em" style="font-family: 'Open Sans', verdana, arial, sans-serif; font-size: 14px; fill: rgb(42, 63, 95); opacity: 1; font-weight: normal; white-space: pre;">Sankey Diagram 5</text></g><g class="first-render"/></g></svg>