<svg class="main-svg" xmlns="http://www.w3.org/2000/svg" xmlns:xlink="http://www.w3.org/1999/xlink" width="700" height="500" style="" viewBox="0 0 700 500"><rect x="0" y="0" width="700" height="500" style="fill: rgb(255, 255, 255); fill-opacity: 1;"/><defs id="defs-b25a46"><g class="clips"/><g class="gradients"/></defs><g class="bglayer"/><g class="layer-below"><g class="imagelayer"/><g class="shapelayer"/></g><g class="cartesianlayer"/><g class="polarlayer"/><g class="ternarylayer"/><g class="geolayer"/><g class="funnelarealayer"/><g class="pielayer"/><g class="treemaplayer"/><g class="sunburstlayer"/><g class="glimages"/><g class="sankey" transform="translate(80,100)matrix(1 0 0 1 0 0)" style="box-sizing: content-box; position: absolute; left: 0px; shape-rendering: geometricprecision; pointer-events: auto;"><g class="sankey-links" style="fill: none;"><path class="sankey-link" d="M20,233.33333333333348C96.66666666666667,233.33333333333348 96.66666666666667,178.66666666666657 173.33333333333334,178.66666666666657L173.33333333333334,265.3333333333332C96.66666666666667,265.3333333333332 96.66666666666667,320.0000000000001 20,320.0000000000001Z" style="stroke: rgb(68, 68, 68); stroke-opacity: 1; fill: rgb(0, 0, 0); fill-opacity: 0.2; stroke-width: 0; opacity: 1;"/><path class="sankey-link" d="M20,89.33333333333331C96.66666666666667,89.33333333333331 96.66666666666667,161.33333333333323 173.33333333333334,161.33333333333323L173.33333333333334,169.99999999999991C96.66666666666667,169.99999999999991 96.66666666666667,97.99999999999997 20,97.99999999999997Z" style="stroke: rgb(68, 68, 68); stroke-opacity: 1; fill: rgb(0, 0, 0); fill-opacity: 0.2; stroke-width: 0; opacity: 1;"/><path class="sankey-link" d="M20,97.99999999999999C96.66666666666667,97.99999999999999 96.66666666666667,285.3333333333334 173.33333333333334,285.3333333333334L173.33333333333334,294.00000000000006C96.66666666666667,294.00000000000006 96.66666666666667,106.66666666666664 20,106.66666666666664Z" style="stroke: rgb(68, 68, 68); stroke-opacity: 1; fill: rgb(0, 0, 0); fill-opacity: 0.2; stroke-width: 0; opacity: 1;"/><path class="sankey-link" d="M20,19.999999999999986C96.66666666666667,19.999999999999986 96.66666666666667,19.999999999999993 173.33333333333334,19.999999999999993L173.33333333333334,89.33333333333331C96.66666666666667,89.33333333333331 96.66666666666667,89.33333333333331 20,89.33333333333331Z" style="stroke: rgb(68, 68, 68); stroke-opacity: 1; fill: rgb(0, 0, 0); fill-opacity: 0.2; stroke-width: 0; opacity: 1;"/><path class="sankey-link" d="M20,178.66666666666663C96.66666666666667,178.66666666666663 96.66666666666667,169.9999999999999 173.33333333333334,169.9999999999999L173.33333333333334,178.66666666666657C96.66666666666667,178.66666666666657 96.66666666666667,187.33333333333331 20,187.33333333333331Z" style="stroke: rgb(68, 68, 68); stroke-opacity: 1; fill: rgb(0, 0, 0); fill-opacity: 0.2; stroke-width: 0; opacity: 1;"/><path class="sankey-link" d="M20,187.3333333333333C96.66666666666667,187.3333333333333 96.66666666666667,294.0000000000001 173.33333333333334,294.0000000000001L173.33333333333334,320.0000000000001C96.66666666666667,320.0000000000001 96.66666666666667,213.3333333333333 20,213.3333333333333Z" style="stroke: rgb(68, 68, 68); stroke-opacity: 1; fill: rgb(0, 0, 0); fill-opacity: 0.2; stroke-width: 0; opacity: 1;"/><path class="sankey-link" d="M20,126.66666666666663C96.66666666666667,126.66666666666663 96.66666666666667,89.33333333333331 173.33333333333334,89.33333333333331L173.33333333333334,141.33333333333331C96.66666666666667,141.33333333333331 96.66666666666667,178.66666666666663 20,178.66666666666663Z" style="stroke: rgb(68, 68, 68); stroke-opacity: 1; fill: rgb(0, 0, 0); fill-opacity: 0.2; stroke-width: 0; opacity: 1;"/><path class="sankey-link" d="M193.33333333333334,256.6666666666666C270,256.6666666666666 270,311.33333333333326 346.6666666666667,311.33333333333326L346.6666666666667,319.9999999999999C270,319.9999999999999 270,265.3333333333332 193.33333333333334,265.3333333333332Z" style="stroke: rgb(68, 68, 68); stroke-opacity: 1; fill: rgb(0, 0, 0); fill-opacity: 0.2; stroke-width: 0; opacity: 1;"/><path class="sankey-link" d="M193.33333333333334,161.33333333333323C270,161.33333333333323 270,95.33333333333377 346.6666666666667,95.33333333333377L346.6666666666667,173.33333333333377C270,173.33333333333377 270,239.33333333333323 193.33333333333334,239.33333333333323Z" style="stroke: rgb(68, 68, 68); stroke-opacity: 1; fill: rgb(0, 0, 0); fill-opacity: 0.2; stroke-width: 0; opacity: 1;"/><path class="sankey-link" d="M193.33333333333334,239.33333333333323C270,239.33333333333323 270,248.00000000000037 346.6666666666667,248.00000000000037L346.6666666666667,265.3333333333337C270,265.3333333333337 270,256.6666666666666 193.33333333333334,256.6666666666666Z" style="stroke: rgb(68, 68, 68); stroke-opacity: 1; fill: rgb(0, 0, 0); fill-opacity: 0.2; stroke-width: 0; opacity: 1;"/><path class="sankey-link" d="M193.33333333333334,285.3333333333334C270,285.3333333333334 270,173.33333333333377 346.6666666666667,173.33333333333377L346.6666666666667,182.00000000000045C270,182.00000000000045 270,294.00000000000006 193.33333333333334,294.00000000000006Z" style="stroke: rgb(68, 68, 68); stroke-opacity: 1; fill: rgb(0, 0, 0); fill-opacity: 0.2; stroke-width: 0; opacity: 1;"/><path class="sankey-link" d="M193.33333333333334,294.0000000000001C270,294.0000000000001 270,265.33333333333366 346.6666666666667,265.33333333333366L346.6666666666667,291.33333333333366C270,291.33333333333366 270,320.0000000000001 193.33333333333334,320.0000000000001Z" style="stroke: rgb(68, 68, 68); stroke-opacity: 1; fill: rgb(0, 0, 0); fill-opacity: 0.2; stroke-width: 0; opacity: 1;"/><path class="sankey-link" d="M193.33333333333334,115.33333333333331C270,115.33333333333331 270,202.00000000000048 346.6666666666667,202.00000000000048L346.6666666666667,228.00000000000048C270,228.00000000000048 270,141.33333333333331 193.33333333333334,141.33333333333331Z" style="stroke: rgb(68, 68, 68); stroke-opacity: 1; fill: rgb(0, 0, 0); fill-opacity: 0.2; stroke-width: 0; opacity: 1;"/><path class="sankey-link" d="M193.33333333333334,19.999999999999993C270,19.999999999999993 270,4.263256414560601e-13 346.6666666666667,4.263256414560601e-13L346.6666666666667,95.33333333333375C270,95.33333333333375 270,115.33333333333331 193.33333333333334,115.33333333333331Z" style="stroke: rgb(68, 68, 68); stroke-opacity: 1; fill: rgb(0, 0, 0); fill-opacity: 0.2; stroke-width: 0; opacity: 1;"/><path class="sankey-link" d="M366.6666666666667,202.00000000000048C443.33333333333337,202.00000000000048 443.33333333333337,95.3333333333332 520,95.3333333333332L520,121.3333333333332C443.33333333333337,121.3333333333332 443.33333333333337,228.00000000000048 366.6666666666667,228.00000000000048Z" style="stroke: rgb(68, 68, 68); stroke-opacity: 1; fill: rgb(0, 0, 0); fill-opacity: 0.2; stroke-width: 0; opacity: 1;"/><path class="sankey-link" d="M366.6666666666667,311.33333333333326C443.33333333333337,311.33333333333326 443.33333333333337,227.9999999999999 520,227.9999999999999L520,236.66666666666657C443.33333333333337,236.66666666666657 443.33333333333337,319.9999999999999 366.6666666666667,319.9999999999999Z" style="stroke: rgb(68, 68, 68); stroke-opacity: 1; fill: rgb(0, 0, 0); fill-opacity: 0.2; stroke-width: 0; opacity: 1;"/><path class="sankey-link" d="M366.6666666666667,173.33333333333377C443.33333333333337,173.33333333333377 443.33333333333337,256.6666666666665 520,256.6666666666665L520,265.33333333333314C443.33333333333337,265.33333333333314 443.33333333333337,182.00000000000045 366.6666666666667,182.00000000000045Z" style="stroke: rgb(68, 68, 68); stroke-opacity: 1; fill: rgb(0, 0, 0); fill-opacity: 0.2; stroke-width: 0; opacity: 1;"/><path class="sankey-link" d="M366.6666666666667,4.263256414560601e-13C443.33333333333337,4.263256414560601e-13 443.33333333333337,-1.2079226507921703e-13 520,-1.2079226507921703e-13L520,95.3333333333332C443.33333333333337,95.3333333333332 443.33333333333337,95.33333333333375 366.6666666666667,95.33333333333375Z" style="stroke: rgb(68, 68, 68); stroke-opacity: 1; fill: rgb(0, 0, 0); fill-opacity: 0.2; stroke-width: 0; opacity: 1;"/><path class="sankey-link" d="M366.6666666666667,95.33333333333377C443.33333333333337,95.33333333333377 443.33333333333337,149.9999999999999 520,149.9999999999999L520,227.9999999999999C443.33333333333337,227.9999999999999 443.33333333333337,173.33333333333377 366.6666666666667,173.33333333333377Z" style="stroke: rgb(68, 68, 68); stroke-opacity: 1; fill: rgb(0, 0, 0); fill-opacity: 0.2; stroke-width: 0; opacity: 1;"/><path class="sankey-link" d="M366.6666666666667,274.00000000000034C443.33333333333337,274.00000000000034 443.33333333333337,302.6666666666665 520,302.6666666666665L520,319.9999999999999C443.33333333333337,319.9999999999999 443.33333333333337,291.3333333333337 366.6666666666667,291.3333333333337Z" style="stroke: rgb(68, 68, 68); stroke-opacity: 1; fill: rgb(0, 0, 0); fill-opacity: 0.2; stroke-width: 0; opacity: 1;"/><path class="sankey-link" d="M366.6666666666667,256.666666666667C443.33333333333337,256.666666666667 443.33333333333337,265.3333333333332 520,265.3333333333332L520,282.6666666666666C443.33333333333337,282.6666666666666 443.33333333333337,274.0000000000004 366.6666666666667,274.0000000000004Z" style="stroke: rgb(68, 68, 68); stroke-opacity: 1; fill: rgb(0, 0, 0); fill-opacity: 0.2; stroke-width: 0; opacity: 1;"/><path class="sankey-link" d="M366.6666666666667,248.00000000000034C443.33333333333337,248.00000000000034 443.33333333333337,121.3333333333332 520,121.3333333333332L520,129.99999999999986C443.33333333333337,129.99999999999986 443.33333333333337,256.666666666667 366.6666666666667,256.666666666667Z" style="stroke: rgb(68, 68, 68); stroke-opacity: 1; fill: rgb(0, 0, 0); fill-opacity: 0.2; stroke-width: 0; opacity: 1;"/></g><g class="sankey-node-set" style="cursor: move;"><g class="sankey-node" transform="translate(0.000,233.333)" style="opacity: 1;"><rect class="node-rect" width="20" height="86.66666666666652" style="stroke-width: 0; stroke: rgb(128, 0, 128); stroke-opacity: 1; fill: rgb(99, 110, 250); fill-opacity: 0.8;"/><rect class="node-capture" x="-10" y="-10" width="40" height="106.66666666666652" style="fill-opacity: 0;"/><g class="node-entered" transform="translate(0,44.33333333333326)"><path class="node-label-guide" id="4d0f48_0_node_0" d="M24,0L540,0" transform="matrix(1 0 0 1 0 0)"/><text class="node-label" transform="scale(1 1)" style="cursor: default; fill: rgb(42, 63, 95); text-shadow: rgb(255, 255, 255) -1px 1px 1px, rgb(255, 255, 255) 1px 1px 1px, rgb(255, 255, 255) 1px -1px 1px, rgb(255, 255, 255) -1px -1px 1px; font-family: 'Open Sans', verdana, arial, sans-serif; font-size: 10px; fill-opacity: 1;"><textPath class="node-label-text-path" alignment-baseline="middle" xlink:href="#4d0f48_0_node_0" startOffset="0%" text-anchor="start" style="fill: rgb(0, 0, 0);">A1</textPath></text></g></g><g class="sankey-node" transform="translate(0.000,20.000)" style="opacity: 1;"><rect class="node-rect" width="20" height="86.66666666666664" style="stroke-width: 0; stroke: rgb(128, 0, 128); stroke-opacity: 1; fill: rgb(239, 85, 59); fill-opacity: 0.8;"/><rect class="node-capture" x="-10" y="-10" width="40" height="106.66666666666664" style="fill-opacity: 0;"/><g class="node-entered" transform="translate(0,44.33333333333332)"><path class="node-label-guide" id="4d0f48_0_node_1" d="M24,0L540,0" transform="matrix(1 0 0 1 0 0)"/><text class="node-label" transform="scale(1 1)" style="cursor: default; fill: rgb(42, 63, 95); text-shadow: rgb(255, 255, 255) -1px 1px 1px, rgb(255, 255, 255) 1px 1px 1px, rgb(255, 255, 255) 1px -1px 1px, rgb(255, 255, 255) -1px -1px 1px; font-family: 'Open Sans', verdana, arial, sans-serif; font-size: 10px; fill-opacity: 1;"><textPath class="node-label-text-path" alignment-baseline="middle" xlink:href="#4d0f48_0_node_1" startOffset="0%" text-anchor="start" style="fill: rgb(0, 0, 0);">A2</textPath></text></g></g><g class="sankey-node" transform="translate(0.000,126.667)" style="opacity: 1;"><rect class="node-rect" width="20" height="86.66666666666686" style="stroke-width: 0; stroke: rgb(128, 0, 128); stroke-opacity: 1; fill: rgb(0, 204, 150); fill-opacity: 0.8;"/><rect class="node-capture" x="-10" y="-10" width="40" height="106.66666666666686" style="fill-opacity: 0;"/><g class="node-entered" transform="translate(0,44.33333333333343)"><path class="node-label-guide" id="4d0f48_0_node_2" d="M24,0L540,0" transform="matrix(1 0 0 1 0 0)"/><text class="node-label" transform="scale(1 1)" style="cursor: default; fill: rgb(42, 63, 95); text-shadow: rgb(255, 255, 255) -1px 1px 1px, rgb(255, 255, 255) 1px 1px 1px, rgb(255, 255, 255) 1px -1px 1px, rgb(255, 255, 255) -1px -1px 1px; font-family: 'Open Sans', verdana, arial, sans-serif; font-size: 10px; fill-opacity: 1;"><textPath class="node-label-text-path" alignment-baseline="middle" xlink:href="#4d0f48_0_node_2" startOffset="0%" text-anchor="start" style="fill: rgb(0, 0, 0);">A3</textPath></text></g></g><g class="sankey-node" transform="translate(173.333,161.333)" style="opacity: 1;"><rect class="node-rect" width="20" height="104.0000000000002" style="stroke-width: 0; stroke: rgb(128, 0, 128); stroke-opacity: 1; fill: rgb(171, 99, 250); fill-opacity: 0.8;"/><rect class="node-capture" x="-10" y="-10" width="40" height="124.0000000000002" style="fill-opacity: 0;"/><g class="node-entered" transform="translate(0,53.0000000000001)"><path class="node-label-guide" id="4d0f48_0_node_3" d="M24,0L540,0" transform="matrix(1 0 0 1 0 0)"/><text class="node-label" transform="scale(1 1)" style="cursor: default; fill: rgb(42, 63, 95); text-shadow: rgb(255, 255, 255) -1px 1px 1px, rgb(255, 255, 255) 1px 1px 1px, rgb(255, 255, 255) 1px -1px 1px, rgb(255, 255, 255) -1px -1px 1px; font-family: 'Open Sans', verdana, arial, sans-serif; font-size: 10px; fill-opacity: 1;"><textPath class="node-label-text-path" alignment-baseline="middle" xlink:href="#4d0f48_0_node_3" startOffset="0%" text-anchor="start" style="fill: rgb(0, 0, 0);">B1</textPath></text></g></g><g class="sankey-node" transform="translate(173.333,285.333)" style="opacity: 1;"><rect class="node-rect" width="20" height="34.66666666666657" style="stroke-width: 0; stroke: rgb(128, 0, 128); stroke-opacity: 1; fill: rgb(255, 161, 90); fill-opacity: 0.8;"/><rect class="node-capture" x="-10" y="-10" width="40" height="54.66666666666657" style="fill-opacity: 0;"/><g class="node-entered" transform="translate(0,18.333333333333286)"><path class="node-label-guide" id="4d0f48_0_node_4" d="M24,0L540,0" transform="matrix(1 0 0 1 0 0)"/><text class="node-label" transform="scale(1 1)" style="cursor: default; fill: rgb(42, 63, 95); text-shadow: rgb(255, 255, 255) -1px 1px 1px, rgb(255, 255, 255) 1px 1px 1px, rgb(255, 255, 255) 1px -1px 1px, rgb(255, 255, 255) -1px -1px 1px; font-family: 'Open Sans', verdana, arial, sans-serif; font-size: 10px; fill-opacity: 1;"><textPath class="node-label-text-path" alignment-baseline="middle" xlink:href="#4d0f48_0_node_4" startOffset="0%" text-anchor="start" style="fill: rgb(0, 0, 0);">B2</textPath></text></g></g><g class="sankey-node" transform="translate(173.333,20.000)" style="opacity: 1;"><rect class="node-rect" width="20" height="121.33333333333323" style="stroke-width: 0; stroke: rgb(128, 0, 128); stroke-opacity: 1; fill: rgb(25, 211, 243); fill-opacity: 0.8;"/><rect class="node-capture" x="-10" y="-10" width="40" height="141.33333333333323" style="fill-opacity: 0;"/><g class="node-entered" transform="translate(0,61.666666666666615)"><path class="node-label-guide" id="4d0f48_0_node_5" d="M24,0L540,0" transform="matrix(1 0 0 1 0 0)"/><text class="node-label" transform="scale(1 1)" style="cursor: default; fill: rgb(42, 63, 95); text-shadow: rgb(255, 255, 255) -1px 1px 1px, rgb(255, 255, 255) 1px 1px 1px, rgb(255, 255, 255) 1px -1px 1px, rgb(255, 255, 255) -1px -1px 1px; font-family: 'Open Sans', verdana, arial, sans-serif; font-size: 10px; fill-opacity: 1;"><textPath class="node-label-text-path" alignment-baseline="middle" xlink:href="#4d0f48_0_node_5" startOffset="0%" text-anchor="start" style="fill: rgb(0, 0, 0);">B3</textPath></text></g></g><g class="sankey-node" transform="translate(346.667,202.000)" style="opacity: 1;"><rect class="node-rect" width="20" height="25.999999999999858" style="stroke-width: 0; stroke: rgb(128, 0, 128); stroke-opacity: 1; fill: rgb(182, 232, 128); fill-opacity: 0.8;"/><rect class="node-capture" x="-10" y="-10" width="40" height="45.99999999999986" style="fill-opacity: 0;"/><g class="node-entered" transform="translate(0,13.999999999999929)"><path class="node-label-guide" id="4d0f48_0_node_7" d="M24,0L540,0" transform="matrix(1 0 0 1 0 0)"/><text class="node-label" transform="scale(1 1)" style="cursor: default; fill: rgb(42, 63, 95); text-shadow: rgb(255, 255, 255) -1px 1px 1px, rgb(255, 255, 255) 1px 1px 1px, rgb(255, 255, 255) 1px -1px 1px, rgb(255, 255, 255) -1px -1px 1px; font-family: 'Open Sans', verdana, arial, sans-serif; font-size: 10px; fill-opacity: 1;"><textPath class="node-label-text-path" alignment-baseline="middle" xlink:href="#4d0f48_0_node_7" startOffset="0%" text-anchor="start" style="fill: rgb(0, 0, 0);">C2</textPath></text></g></g><g class="sankey-node" transform="translate(346.667,311.333)" style="opacity: 1;"><rect class="node-rect" width="20" height="8.666666666666742" style="stroke-width: 0; stroke: rgb(128, 0, 128); stroke-opacity: 1; fill: rgb(255, 151, 255); fill-opacity: 0.8;"/><rect class="node-capture" x="-10" y="-10" width="40" height="28.666666666666742" style="fill-opacity: 0;"/><g class="node-entered" transform="translate(0,5.333333333333371)"><path class="node-label-guide" id="4d0f48_0_node_8" d="M24,0L540,0" transform="matrix(1 0 0 1 0 0)"/><text class="node-label" transform="scale(1 1)" style="cursor: default; fill: rgb(42, 63, 95); text-shadow: rgb(255, 255, 255) -1px 1px 1px, rgb(255, 255, 255) 1px 1px 1px, rgb(255, 255, 255) 1px -1px 1px, rgb(255, 255, 255) -1px -1px 1px; font-family: 'Open Sans', verdana, arial, sans-serif; font-size: 10px; fill-opacity: 1;"><textPath class="node-label-text-path" alignment-baseline="middle" xlink:href="#4d0f48_0_node_8" startOffset="0%" text-anchor="start" style="fill: rgb(0, 0, 0);">C3</textPath></text></g></g><g class="sankey-node" transform="translate(346.667,0.000)" style="opacity: 1;"><rect class="node-rect" width="20" height="182.00000000000006" style="stroke-width: 0; stroke: rgb(128, 0, 128); stroke-opacity: 1; fill: rgb(254, 203, 82); fill-opacity: 0.8;"/><rect class="node-capture" x="-10" y="-10" width="40" height="202.00000000000006" style="fill-opacity: 0;"/><g class="node-entered" transform="translate(0,92.00000000000003)"><path class="node-label-guide" id="4d0f48_0_node_9" d="M24,0L540,0" transform="matrix(1 0 0 1 0 0)"/><text class="node-label" transform="scale(1 1)" style="cursor: default; fill: rgb(42, 63, 95); text-shadow: rgb(255, 255, 255) -1px 1px 1px, rgb(255, 255, 255) 1px 1px 1px, rgb(255, 255, 255) 1px -1px 1px, rgb(255, 255, 255) -1px -1px 1px; font-family: 'Open Sans', verdana, arial, sans-serif; font-size: 10px; fill-opacity: 1;"><textPath class="node-label-text-path" alignment-baseline="middle" xlink:href="#4d0f48_0_node_9" startOffset="0%" text-anchor="start" style="fill: rgb(0, 0, 0);">C4</textPath></text></g></g><g class="sankey-node" transform="translate(346.667,248.000)" style="opacity: 1;"><rect class="node-rect" width="20" height="43.33333333333292" style="stroke-width: 0; stroke: rgb(128, 0, 128); stroke-opacity: 1; fill: rgb(99, 110, 250); fill-opacity: 0.8;"/><rect class="node-capture" x="-10" y="-10" width="40" height="63.33333333333292" style="fill-opacity: 0;"/><g class="node-entered" transform="translate(0,22.66666666666646)"><path class="node-label-guide" id="4d0f48_0_node_10" d="M24,0L540,0" transform="matrix(1 0 0 1 0 0)"/><text class="node-label" transform="scale(1 1)" style="cursor: default; fill: rgb(42, 63, 95); text-shadow: rgb(255, 255, 255) -1px 1px 1px, rgb(255, 255, 255) 1px 1px 1px, rgb(255, 255, 255) 1px -1px 1px, rgb(255, 255, 255) -1px -1px 1px; font-family: 'Open Sans', verdana, arial, sans-serif; font-size: 10px; fill-opacity: 1;"><textPath class="node-label-text-path" alignment-baseline="middle" xlink:href="#4d0f48_0_node_10" startOffset="0%" text-anchor="start" style="fill: rgb(0, 0, 0);">C5</textPath></text></g></g><g class="sankey-node" transform="translate(520.000,302.667)" style="opacity: 1;"><rect class="node-rect" width="20" height="17.333333333333485" style="stroke-width: 0; stroke: rgb(128, 0, 128); stroke-opacity: 1; fill: rgb(239, 85, 59); fill-opacity: 0.8;"/><rect class="node-capture" x="-10" y="-10" width="40" height="37.333333333333485" style="fill-opacity: 0;"/><g class="node-entered" transform="translate(0,9.666666666666742)"><path class="node-label-guide" id="4d0f48_0_node_11" d="M-540,0L-4,0" transform="matrix(1 0 0 1 0 0)"/><text class="node-label" transform="scale(1 1)" style="cursor: default; fill: rgb(42, 63, 95); text-shadow: rgb(255, 255, 255) -1px 1px 1px, rgb(255, 255, 255) 1px 1px 1px, rgb(255, 255, 255) 1px -1px 1px, rgb(255, 255, 255) -1px -1px 1px; font-family: 'Open Sans', verdana, arial, sans-serif; font-size: 10px; fill-opacity: 1;"><textPath class="node-label-text-path" alignment-baseline="middle" xlink:href="#4d0f48_0_node_11" startOffset="100%" text-anchor="end" style="fill: rgb(0, 0, 0);">D1</textPath></text></g></g><g class="sankey-node" transform="translate(520.000,256.667)" style="opacity: 1;"><rect class="node-rect" width="20" height="26" style="stroke-width: 0; stroke: rgb(128, 0, 128); stroke-opacity: 1; fill: rgb(0, 204, 150); fill-opacity: 0.8;"/><rect class="node-capture" x="-10" y="-10" width="40" height="46" style="fill-opacity: 0;"/><g class="node-entered" transform="translate(0,14)"><path class="node-label-guide" id="4d0f48_0_node_12" d="M-540,0L-4,0" transform="matrix(1 0 0 1 0 0)"/><text class="node-label" transform="scale(1 1)" style="cursor: default; fill: rgb(42, 63, 95); text-shadow: rgb(255, 255, 255) -1px 1px 1px, rgb(255, 255, 255) 1px 1px 1px, rgb(255, 255, 255) 1px -1px 1px, rgb(255, 255, 255) -1px -1px 1px; font-family: 'Open Sans', verdana, arial, sans-serif; font-size: 10px; fill-opacity: 1;"><textPath class="node-label-text-path" alignment-baseline="middle" xlink:href="#4d0f48_0_node_12" startOffset="100%" text-anchor="end" style="fill: rgb(0, 0, 0);">D2</textPath></text></g></g><g class="sankey-node" transform="translate(520.000,-0.000)" style="opacity: 1;"><rect class="node-rect" width="20" height="130" style="stroke-width: 0; stroke: rgb(128, 0, 128); stroke-opacity: 1; fill: rgb(255, 161, 90); fill-opacity: 0.8;"/><rect class="node-capture" x="-10" y="-10" width="40" height="150" style="fill-opacity: 0;"/><g class="node-entered" transform="translate(0,66)"><path class="node-label-guide" id="4d0f48_0_node_14" d="M-540,0L-4,0" transform="matrix(1 0 0 1 0 0)"/><text class="node-label" transform="scale(1 1)" style="cursor: default; fill: rgb(42, 63, 95); text-shadow: rgb(255, 255, 255) -1px 1px 1px, rgb(255, 255, 255) 1px 1px 1px, rgb(255, 255, 255) 1px -1px 1px, rgb(255, 255, 255) -1px -1px 1px; font-family: 'Open Sans', verdana, arial, sans-serif; font-size: 10px; fill-opacity: 1;"><textPath class="node-label-text-path" alignment-baseline="middle" xlink:href="#4d0f48_0_node_14" startOffset="100%" text-anchor="end" style="fill: rgb(0, 0, 0);">D4</textPath></text></g></g><g class="sankey-node" transform="translate(520.000,150.000)" style="opacity: 1;"><rect class="node-rect" width="20" height="86.66666666666663" style="stroke-width: 0; stroke: rgb(128, 0, 128); stroke-opacity: 1; fill: rgb(25, 211, 243); fill-opacity: 0.8;"/><rect class="node-capture" x="-10" y="-10" width="40" height="106.66666666666663" style="fill-opacity: 0;"/><g class="node-entered" transform="translate(0,44.333333333333314)"><path class="node-label-guide" id="4d0f48_0_node_15" d="M-540,0L-4,0" transform="matrix(1 0 0 1 0 0)"/><text class="node-label" transform="scale(1 1)" style="cursor: default; fill: rgb(42, 63, 95); text-shadow: rgb(255, 255, 255) -1px 1px 1px, rgb(255, 255, 255) 1px 1px 1px, rgb(255, 255, 255) 1px -1px 1px, rgb(255, 255, 255) -1px -1px 1px; font-family: 'Open Sans', verdana, arial, sans-serif; font-size: 10px; fill-opacity: 1;"><textPath class="node-label-text-path" alignment-baseline="middle" xlink:href="#4d0f48_0_node_15" startOffset="100%" text-anchor="end" style="fill: rgb(0, 0, 0);">D5</textPath></text></g></g></g></g><defs id="topdefs-b25a46"><g class="clips"/></defs><g class="layer-above"><g class="imagelayer"/><g class="shapelayer"/></g><g class="infolayer"><g class="g-gtitle"><text class="gtitle" x="35" y="50" text-anchor="start" dy="0em" style="font-family: 'Open Sans', verdana, arial, sans-serif; font-size: 14px; fill: rgb(42, 63, 95); opacity: 1; font-weight: normal; white-space: pre;">Sankey Diagram 107</text></g><g class="first-render"/></g></svg>