<svg class="main-svg" xmlns="http://www.w3.org/2000/svg" xmlns:xlink="http://www.w3.org/1999/xlink" width="700" height="500" style="" viewBox="0 0 700 500"><rect x="0" y="0" width="700" height="500" style="fill: rgb(255, 255, 255); fill-opacity: 1;"/><defs id="defs-04a5a6"><g class="clips"/><g class="gradients"/></defs><g class="bglayer"/><g class="layer-below"><g class="imagelayer"/><g class="shapelayer"/></g><g class="cartesianlayer"/><g class="polarlayer"/><g class="ternarylayer"/><g class="geolayer"/><g class="funnelarealayer"/><g class="pielayer"/><g class="treemaplayer"/><g class="sunburstlayer"/><g class="glimages"/><g class="sankey" transform="translate(80,100)matrix(1 0 0 1 0 0)" style="box-sizing: content-box; position: absolute; left: 0px; shape-rendering: geometricprecision; pointer-events: auto;"><g class="sankey-links" style="fill: none;"><path class="sankey-link" d="M20,315.2C75,315.2 75,315.20000000000005 130,315.20000000000005L130,320C75,320 75,319.99999999999994 20,319.99999999999994Z" style="stroke: rgb(68, 68, 68); stroke-opacity: 1; fill: rgb(0, 0, 0); fill-opacity: 0.2; stroke-width: 0; opacity: 1;"/><path class="sankey-link" d="M20,276.8C75,276.8 75,237.59999999999997 130,237.59999999999997L130,275.99999999999994C75,275.99999999999994 75,315.2 20,315.2Z" style="stroke: rgb(68, 68, 68); stroke-opacity: 1; fill: rgb(0, 0, 0); fill-opacity: 0.2; stroke-width: 0; opacity: 1;"/><path class="sankey-link" d="M20,272C75,272 75,159.99999999999994 130,159.99999999999994L130,164.79999999999995C75,164.79999999999995 75,276.79999999999995 20,276.79999999999995Z" style="stroke: rgb(68, 68, 68); stroke-opacity: 1; fill: rgb(0, 0, 0); fill-opacity: 0.2; stroke-width: 0; opacity: 1;"/><path class="sankey-link" d="M20,247.20000000000005C75,247.20000000000005 75,310.40000000000003 130,310.40000000000003L130,315.2C75,315.2 75,252.00000000000006 20,252.00000000000006Z" style="stroke: rgb(68, 68, 68); stroke-opacity: 1; fill: rgb(0, 0, 0); fill-opacity: 0.2; stroke-width: 0; opacity: 1;"/><path class="sankey-link" d="M20,223.20000000000005C75,223.20000000000005 75,213.59999999999997 130,213.59999999999997L130,237.59999999999997C75,237.59999999999997 75,247.20000000000005 20,247.20000000000005Z" style="stroke: rgb(68, 68, 68); stroke-opacity: 1; fill: rgb(0, 0, 0); fill-opacity: 0.2; stroke-width: 0; opacity: 1;"/><path class="sankey-link" d="M20,204.00000000000006C75,204.00000000000006 75,140.79999999999995 130,140.79999999999995L130,159.99999999999994C75,159.99999999999994 75,223.20000000000005 20,223.20000000000005Z" style="stroke: rgb(68, 68, 68); stroke-opacity: 1; fill: rgb(0, 0, 0); fill-opacity: 0.2; stroke-width: 0; opacity: 1;"/><path class="sankey-link" d="M20,43.20000000000004C75,43.20000000000004 75,296 130,296L130,300.79999999999995C75,300.79999999999995 75,48.000000000000036 20,48.000000000000036Z" style="stroke: rgb(68, 68, 68); stroke-opacity: 1; fill: rgb(0, 0, 0); fill-opacity: 0.2; stroke-width: 0; opacity: 1;"/><path class="sankey-link" d="M20,38.40000000000004C75,38.40000000000004 75,184.79999999999995 130,184.79999999999995L130,189.59999999999997C75,189.59999999999997 75,43.20000000000004 20,43.20000000000004Z" style="stroke: rgb(68, 68, 68); stroke-opacity: 1; fill: rgb(0, 0, 0); fill-opacity: 0.2; stroke-width: 0; opacity: 1;"/><path class="sankey-link" d="M20,4.263256414560601e-14C75,4.263256414560601e-14 75,39.99999999999996 130,39.99999999999996L130,78.39999999999996C75,78.39999999999996 75,38.40000000000004 20,38.40000000000004Z" style="stroke: rgb(68, 68, 68); stroke-opacity: 1; fill: rgb(0, 0, 0); fill-opacity: 0.2; stroke-width: 0; opacity: 1;"/><path class="sankey-link" d="M20,111.2C75,111.2 75,300.8 130,300.8L130,305.59999999999997C75,305.59999999999997 75,116.00000000000001 20,116.00000000000001Z" style="stroke: rgb(68, 68, 68); stroke-opacity: 1; fill: rgb(0, 0, 0); fill-opacity: 0.2; stroke-width: 0; opacity: 1;"/><path class="sankey-link" d="M20,106.4C75,106.4 75,189.59999999999997 130,189.59999999999997L130,194.39999999999998C75,194.39999999999998 75,111.20000000000002 20,111.20000000000002Z" style="stroke: rgb(68, 68, 68); stroke-opacity: 1; fill: rgb(0, 0, 0); fill-opacity: 0.2; stroke-width: 0; opacity: 1;"/><path class="sankey-link" d="M20,68.00000000000001C75,68.00000000000001 75,78.39999999999995 130,78.39999999999995L130,116.79999999999995C75,116.79999999999995 75,106.40000000000002 20,106.40000000000002Z" style="stroke: rgb(68, 68, 68); stroke-opacity: 1; fill: rgb(0, 0, 0); fill-opacity: 0.2; stroke-width: 0; opacity: 1;"/><path class="sankey-link" d="M20,179.20000000000005C75,179.20000000000005 75,305.6 130,305.6L130,310.4C75,310.4 75,184.00000000000006 20,184.00000000000006Z" style="stroke: rgb(68, 68, 68); stroke-opacity: 1; fill: rgb(0, 0, 0); fill-opacity: 0.2; stroke-width: 0; opacity: 1;"/><path class="sankey-link" d="M20,160.00000000000006C75,160.00000000000006 75,194.39999999999998 130,194.39999999999998L130,213.59999999999997C75,213.59999999999997 75,179.20000000000005 20,179.20000000000005Z" style="stroke: rgb(68, 68, 68); stroke-opacity: 1; fill: rgb(0, 0, 0); fill-opacity: 0.2; stroke-width: 0; opacity: 1;"/><path class="sankey-link" d="M20,136.00000000000006C75,136.00000000000006 75,116.79999999999995 130,116.79999999999995L130,140.79999999999995C75,140.79999999999995 75,160.00000000000006 20,160.00000000000006Z" style="stroke: rgb(68, 68, 68); stroke-opacity: 1; fill: rgb(0, 0, 0); fill-opacity: 0.2; stroke-width: 0; opacity: 1;"/><path class="sankey-link" d="M150,296C205,296 205,247.1999999999997 260,247.1999999999997L260,271.1999999999997C205,271.1999999999997 205,320 150,320Z" style="stroke: rgb(68, 68, 68); stroke-opacity: 1; fill: rgb(0, 0, 0); fill-opacity: 0.2; stroke-width: 0; opacity: 1;"/><path class="sankey-link" d="M150,247.19999999999996C205,247.19999999999996 205,291.20000000000016 260,291.20000000000016L260,320.0000000000001C205,320.0000000000001 205,275.99999999999994 150,275.99999999999994Z" style="stroke: rgb(68, 68, 68); stroke-opacity: 1; fill: rgb(0, 0, 0); fill-opacity: 0.2; stroke-width: 0; opacity: 1;"/><path class="sankey-link" d="M150,237.59999999999997C205,237.59999999999997 205,237.59999999999974 260,237.59999999999974L260,247.19999999999976C205,247.19999999999976 205,247.2 150,247.2Z" style="stroke: rgb(68, 68, 68); stroke-opacity: 1; fill: rgb(0, 0, 0); fill-opacity: 0.2; stroke-width: 0; opacity: 1;"/><path class="sankey-link" d="M150,184.79999999999995C205,184.79999999999995 205,164.79999999999984 260,164.79999999999984L260,217.59999999999985C205,217.59999999999985 205,237.59999999999997 150,237.59999999999997Z" style="stroke: rgb(68, 68, 68); stroke-opacity: 1; fill: rgb(0, 0, 0); fill-opacity: 0.2; stroke-width: 0; opacity: 1;"/><path class="sankey-link" d="M150,39.99999999999995C205,39.99999999999995 205,39.99999999999985 260,39.99999999999985L260,164.79999999999984C205,164.79999999999984 205,164.79999999999995 150,164.79999999999995Z" style="stroke: rgb(68, 68, 68); stroke-opacity: 1; fill: rgb(0, 0, 0); fill-opacity: 0.2; stroke-width: 0; opacity: 1;"/><path class="sankey-link" d="M280,291.20000000000016C335,291.20000000000016 335,271.20000000000005 390,271.20000000000005L390,285.6C335,285.6 335,305.60000000000014 280,305.60000000000014Z" style="stroke: rgb(68, 68, 68); stroke-opacity: 1; fill: rgb(0, 0, 0); fill-opacity: 0.2; stroke-width: 0; opacity: 1;"/><path class="sankey-link" d="M280,305.60000000000014C335,305.60000000000014 335,305.60000000000014 390,305.60000000000014L390,320.0000000000001C335,320.0000000000001 335,320.0000000000001 280,320.0000000000001Z" style="stroke: rgb(68, 68, 68); stroke-opacity: 1; fill: rgb(0, 0, 0); fill-opacity: 0.2; stroke-width: 0; opacity: 1;"/><path class="sankey-link" d="M280,247.1999999999997C335,247.1999999999997 335,247.20000000000005 390,247.20000000000005L390,271.20000000000005C335,271.20000000000005 335,271.1999999999997 280,271.1999999999997Z" style="stroke: rgb(68, 68, 68); stroke-opacity: 1; fill: rgb(0, 0, 0); fill-opacity: 0.2; stroke-width: 0; opacity: 1;"/><path class="sankey-link" d="M280,237.59999999999974C335,237.59999999999974 335,183.20000000000005 390,183.20000000000005L390,192.80000000000007C335,192.80000000000007 335,247.19999999999976 280,247.19999999999976Z" style="stroke: rgb(68, 68, 68); stroke-opacity: 1; fill: rgb(0, 0, 0); fill-opacity: 0.2; stroke-width: 0; opacity: 1;"/><path class="sankey-link" d="M280,207.99999999999986C335,207.99999999999986 335,237.60000000000002 390,237.60000000000002L390,247.20000000000005C335,247.20000000000005 335,217.59999999999988 280,217.59999999999988Z" style="stroke: rgb(68, 68, 68); stroke-opacity: 1; fill: rgb(0, 0, 0); fill-opacity: 0.2; stroke-width: 0; opacity: 1;"/><path class="sankey-link" d="M280,203.19999999999985C335,203.19999999999985 335,212.80000000000004 390,212.80000000000004L390,217.60000000000005C335,217.60000000000005 335,207.99999999999986 280,207.99999999999986Z" style="stroke: rgb(68, 68, 68); stroke-opacity: 1; fill: rgb(0, 0, 0); fill-opacity: 0.2; stroke-width: 0; opacity: 1;"/><path class="sankey-link" d="M280,39.99999999999986C335,39.99999999999986 335,20.000000000000057 390,20.000000000000057L390,183.20000000000005C335,183.20000000000005 335,203.19999999999985 280,203.19999999999985Z" style="stroke: rgb(68, 68, 68); stroke-opacity: 1; fill: rgb(0, 0, 0); fill-opacity: 0.2; stroke-width: 0; opacity: 1;"/><path class="sankey-link" d="M410,247.20000000000002C465,247.20000000000002 465,197.6 520,197.6L520,226.4C465,226.4 465,276 410,276Z" style="stroke: rgb(68, 68, 68); stroke-opacity: 1; fill: rgb(0, 0, 0); fill-opacity: 0.2; stroke-width: 0; opacity: 1;"/><path class="sankey-link" d="M410,237.60000000000002C465,237.60000000000002 465,139.2000000000001 520,139.2000000000001L520,148.80000000000013C465,148.80000000000013 465,247.20000000000005 410,247.20000000000005Z" style="stroke: rgb(68, 68, 68); stroke-opacity: 1; fill: rgb(0, 0, 0); fill-opacity: 0.2; stroke-width: 0; opacity: 1;"/><path class="sankey-link" d="M410,276C465,276 465,285.6000000000001 520,285.6000000000001L520,295.2000000000001C465,295.2000000000001 465,285.6 410,285.6Z" style="stroke: rgb(68, 68, 68); stroke-opacity: 1; fill: rgb(0, 0, 0); fill-opacity: 0.2; stroke-width: 0; opacity: 1;"/><path class="sankey-link" d="M410,212.80000000000004C465,212.80000000000004 465,134.4000000000001 520,134.4000000000001L520,139.2000000000001C465,139.2000000000001 465,217.60000000000005 410,217.60000000000005Z" style="stroke: rgb(68, 68, 68); stroke-opacity: 1; fill: rgb(0, 0, 0); fill-opacity: 0.2; stroke-width: 0; opacity: 1;"/><path class="sankey-link" d="M410,154.40000000000006C465,154.40000000000006 465,173.6 520,173.6L520,197.6C465,197.6 465,178.40000000000006 410,178.40000000000006Z" style="stroke: rgb(68, 68, 68); stroke-opacity: 1; fill: rgb(0, 0, 0); fill-opacity: 0.2; stroke-width: 0; opacity: 1;"/><path class="sankey-link" d="M410,20.000000000000057C465,20.000000000000057 465,7.105427357601002e-14 520,7.105427357601002e-14L520,134.4000000000001C465,134.4000000000001 465,154.40000000000006 410,154.40000000000006Z" style="stroke: rgb(68, 68, 68); stroke-opacity: 1; fill: rgb(0, 0, 0); fill-opacity: 0.2; stroke-width: 0; opacity: 1;"/><path class="sankey-link" d="M410,188.00000000000006C465,188.00000000000006 465,280.80000000000007 520,280.80000000000007L520,285.6C465,285.6 465,192.80000000000007 410,192.80000000000007Z" style="stroke: rgb(68, 68, 68); stroke-opacity: 1; fill: rgb(0, 0, 0); fill-opacity: 0.2; stroke-width: 0; opacity: 1;"/><path class="sankey-link" d="M410,178.40000000000006C465,178.40000000000006 465,246.4000000000001 520,246.4000000000001L520,256.0000000000001C465,256.0000000000001 465,188.00000000000009 410,188.00000000000009Z" style="stroke: rgb(68, 68, 68); stroke-opacity: 1; fill: rgb(0, 0, 0); fill-opacity: 0.2; stroke-width: 0; opacity: 1;"/><path class="sankey-link" d="M410,305.60000000000014C465,305.60000000000014 465,148.8000000000001 520,148.8000000000001L520,153.6000000000001C465,153.6000000000001 465,310.4000000000001 410,310.4000000000001Z" style="stroke: rgb(68, 68, 68); stroke-opacity: 1; fill: rgb(0, 0, 0); fill-opacity: 0.2; stroke-width: 0; opacity: 1;"/><path class="sankey-link" d="M410,310.40000000000015C465,310.40000000000015 465,256.0000000000001 520,256.0000000000001L520,260.80000000000007C465,260.80000000000007 465,315.2000000000001 410,315.2000000000001Z" style="stroke: rgb(68, 68, 68); stroke-opacity: 1; fill: rgb(0, 0, 0); fill-opacity: 0.2; stroke-width: 0; opacity: 1;"/><path class="sankey-link" d="M410,315.20000000000016C465,315.20000000000016 465,315.20000000000005 520,315.20000000000005L520,320C465,320 465,320.0000000000001 410,320.0000000000001Z" style="stroke: rgb(68, 68, 68); stroke-opacity: 1; fill: rgb(0, 0, 0); fill-opacity: 0.2; stroke-width: 0; opacity: 1;"/></g><g class="sankey-node-set" style="cursor: move;"><g class="sankey-node" transform="translate(0.000,272.000)" style="opacity: 1;"><rect class="node-rect" width="20" height="48" style="stroke-width: 0; stroke: rgb(128, 0, 128); stroke-opacity: 1; fill: rgb(99, 110, 250); fill-opacity: 0.8;"/><rect class="node-capture" x="-10" y="-10" width="40" height="68" style="fill-opacity: 0;"/><g class="node-entered" transform="translate(0,25)"><path class="node-label-guide" id="ae1d81_0_node_0" d="M24,0L540,0" transform="matrix(1 0 0 1 0 0)"/><text class="node-label" transform="scale(1 1)" style="cursor: default; fill: rgb(42, 63, 95); text-shadow: rgb(255, 255, 255) -1px 1px 1px, rgb(255, 255, 255) 1px 1px 1px, rgb(255, 255, 255) 1px -1px 1px, rgb(255, 255, 255) -1px -1px 1px; font-family: 'Open Sans', verdana, arial, sans-serif; font-size: 10px; fill-opacity: 1;"><textPath class="node-label-text-path" alignment-baseline="middle" xlink:href="#ae1d81_0_node_0" startOffset="0%" text-anchor="start" style="fill: rgb(0, 0, 0);">A1</textPath></text></g></g><g class="sankey-node" transform="translate(0.000,204.000)" style="opacity: 1;"><rect class="node-rect" width="20" height="47.99999999999994" style="stroke-width: 0; stroke: rgb(128, 0, 128); stroke-opacity: 1; fill: rgb(239, 85, 59); fill-opacity: 0.8;"/><rect class="node-capture" x="-10" y="-10" width="40" height="67.99999999999994" style="fill-opacity: 0;"/><g class="node-entered" transform="translate(0,24.99999999999997)"><path class="node-label-guide" id="ae1d81_0_node_1" d="M24,0L540,0" transform="matrix(1 0 0 1 0 0)"/><text class="node-label" transform="scale(1 1)" style="cursor: default; fill: rgb(42, 63, 95); text-shadow: rgb(255, 255, 255) -1px 1px 1px, rgb(255, 255, 255) 1px 1px 1px, rgb(255, 255, 255) 1px -1px 1px, rgb(255, 255, 255) -1px -1px 1px; font-family: 'Open Sans', verdana, arial, sans-serif; font-size: 10px; fill-opacity: 1;"><textPath class="node-label-text-path" alignment-baseline="middle" xlink:href="#ae1d81_0_node_1" startOffset="0%" text-anchor="start" style="fill: rgb(0, 0, 0);">A2</textPath></text></g></g><g class="sankey-node" transform="translate(0.000,0.000)" style="opacity: 1;"><rect class="node-rect" width="20" height="47.99999999999997" style="stroke-width: 0; stroke: rgb(128, 0, 128); stroke-opacity: 1; fill: rgb(0, 204, 150); fill-opacity: 0.8;"/><rect class="node-capture" x="-10" y="-10" width="40" height="67.99999999999997" style="fill-opacity: 0;"/><g class="node-entered" transform="translate(0,24.999999999999986)"><path class="node-label-guide" id="ae1d81_0_node_2" d="M24,0L540,0" transform="matrix(1 0 0 1 0 0)"/><text class="node-label" transform="scale(1 1)" style="cursor: default; fill: rgb(42, 63, 95); text-shadow: rgb(255, 255, 255) -1px 1px 1px, rgb(255, 255, 255) 1px 1px 1px, rgb(255, 255, 255) 1px -1px 1px, rgb(255, 255, 255) -1px -1px 1px; font-family: 'Open Sans', verdana, arial, sans-serif; font-size: 10px; fill-opacity: 1;"><textPath class="node-label-text-path" alignment-baseline="middle" xlink:href="#ae1d81_0_node_2" startOffset="0%" text-anchor="start" style="fill: rgb(0, 0, 0);">A3</textPath></text></g></g><g class="sankey-node" transform="translate(0.000,68.000)" style="opacity: 1;"><rect class="node-rect" width="20" height="48.00000000000003" style="stroke-width: 0; stroke: rgb(128, 0, 128); stroke-opacity: 1; fill: rgb(171, 99, 250); fill-opacity: 0.8;"/><rect class="node-capture" x="-10" y="-10" width="40" height="68.00000000000003" style="fill-opacity: 0;"/><g class="node-entered" transform="translate(0,25.000000000000014)"><path class="node-label-guide" id="ae1d81_0_node_3" d="M24,0L540,0" transform="matrix(1 0 0 1 0 0)"/><text class="node-label" transform="scale(1 1)" style="cursor: default; fill: rgb(42, 63, 95); text-shadow: rgb(255, 255, 255) -1px 1px 1px, rgb(255, 255, 255) 1px 1px 1px, rgb(255, 255, 255) 1px -1px 1px, rgb(255, 255, 255) -1px -1px 1px; font-family: 'Open Sans', verdana, arial, sans-serif; font-size: 10px; fill-opacity: 1;"><textPath class="node-label-text-path" alignment-baseline="middle" xlink:href="#ae1d81_0_node_3" startOffset="0%" text-anchor="start" style="fill: rgb(0, 0, 0);">A4</textPath></text></g></g><g class="sankey-node" transform="translate(0.000,136.000)" style="opacity: 1;"><rect class="node-rect" width="20" height="48" style="stroke-width: 0; stroke: rgb(128, 0, 128); stroke-opacity: 1; fill: rgb(255, 161, 90); fill-opacity: 0.8;"/><rect class="node-capture" x="-10" y="-10" width="40" height="68" style="fill-opacity: 0;"/><g class="node-entered" transform="translate(0,25)"><path class="node-label-guide" id="ae1d81_0_node_4" d="M24,0L540,0" transform="matrix(1 0 0 1 0 0)"/><text class="node-label" transform="scale(1 1)" style="cursor: default; fill: rgb(42, 63, 95); text-shadow: rgb(255, 255, 255) -1px 1px 1px, rgb(255, 255, 255) 1px 1px 1px, rgb(255, 255, 255) 1px -1px 1px, rgb(255, 255, 255) -1px -1px 1px; font-family: 'Open Sans', verdana, arial, sans-serif; font-size: 10px; fill-opacity: 1;"><textPath class="node-label-text-path" alignment-baseline="middle" xlink:href="#ae1d81_0_node_4" startOffset="0%" text-anchor="start" style="fill: rgb(0, 0, 0);">A5</textPath></text></g></g><g class="sankey-node" transform="translate(130.000,296.000)" style="opacity: 1;"><rect class="node-rect" width="20" height="24" style="stroke-width: 0; stroke: rgb(128, 0, 128); stroke-opacity: 1; fill: rgb(25, 211, 243); fill-opacity: 0.8;"/><rect class="node-capture" x="-10" y="-10" width="40" height="44" style="fill-opacity: 0;"/><g class="node-entered" transform="translate(0,13)"><path class="node-label-guide" id="ae1d81_0_node_5" d="M24,0L540,0" transform="matrix(1 0 0 1 0 0)"/><text class="node-label" transform="scale(1 1)" style="cursor: default; fill: rgb(42, 63, 95); text-shadow: rgb(255, 255, 255) -1px 1px 1px, rgb(255, 255, 255) 1px 1px 1px, rgb(255, 255, 255) 1px -1px 1px, rgb(255, 255, 255) -1px -1px 1px; font-family: 'Open Sans', verdana, arial, sans-serif; font-size: 10px; fill-opacity: 1;"><textPath class="node-label-text-path" alignment-baseline="middle" xlink:href="#ae1d81_0_node_5" startOffset="0%" text-anchor="start" style="fill: rgb(0, 0, 0);">B1</textPath></text></g></g><g class="sankey-node" transform="translate(130.000,184.800)" style="opacity: 1;"><rect class="node-rect" width="20" height="91.20000000000005" style="stroke-width: 0; stroke: rgb(128, 0, 128); stroke-opacity: 1; fill: rgb(255, 102, 146); fill-opacity: 0.8;"/><rect class="node-capture" x="-10" y="-10" width="40" height="111.20000000000005" style="fill-opacity: 0;"/><g class="node-entered" transform="translate(0,46.60000000000002)"><path class="node-label-guide" id="ae1d81_0_node_6" d="M24,0L540,0" transform="matrix(1 0 0 1 0 0)"/><text class="node-label" transform="scale(1 1)" style="cursor: default; fill: rgb(42, 63, 95); text-shadow: rgb(255, 255, 255) -1px 1px 1px, rgb(255, 255, 255) 1px 1px 1px, rgb(255, 255, 255) 1px -1px 1px, rgb(255, 255, 255) -1px -1px 1px; font-family: 'Open Sans', verdana, arial, sans-serif; font-size: 10px; fill-opacity: 1;"><textPath class="node-label-text-path" alignment-baseline="middle" xlink:href="#ae1d81_0_node_6" startOffset="0%" text-anchor="start" style="fill: rgb(0, 0, 0);">B2</textPath></text></g></g><g class="sankey-node" transform="translate(130.000,40.000)" style="opacity: 1;"><rect class="node-rect" width="20" height="124.8" style="stroke-width: 0; stroke: rgb(128, 0, 128); stroke-opacity: 1; fill: rgb(182, 232, 128); fill-opacity: 0.8;"/><rect class="node-capture" x="-10" y="-10" width="40" height="144.8" style="fill-opacity: 0;"/><g class="node-entered" transform="translate(0,63.4)"><path class="node-label-guide" id="ae1d81_0_node_7" d="M24,0L540,0" transform="matrix(1 0 0 1 0 0)"/><text class="node-label" transform="scale(1 1)" style="cursor: default; fill: rgb(42, 63, 95); text-shadow: rgb(255, 255, 255) -1px 1px 1px, rgb(255, 255, 255) 1px 1px 1px, rgb(255, 255, 255) 1px -1px 1px, rgb(255, 255, 255) -1px -1px 1px; font-family: 'Open Sans', verdana, arial, sans-serif; font-size: 10px; fill-opacity: 1;"><textPath class="node-label-text-path" alignment-baseline="middle" xlink:href="#ae1d81_0_node_7" startOffset="0%" text-anchor="start" style="fill: rgb(0, 0, 0);">B3</textPath></text></g></g><g class="sankey-node" transform="translate(260.000,291.200)" style="opacity: 1;"><rect class="node-rect" width="20" height="28.79999999999984" style="stroke-width: 0; stroke: rgb(128, 0, 128); stroke-opacity: 1; fill: rgb(255, 151, 255); fill-opacity: 0.8;"/><rect class="node-capture" x="-10" y="-10" width="40" height="48.79999999999984" style="fill-opacity: 0;"/><g class="node-entered" transform="translate(0,15.39999999999992)"><path class="node-label-guide" id="ae1d81_0_node_8" d="M24,0L540,0" transform="matrix(1 0 0 1 0 0)"/><text class="node-label" transform="scale(1 1)" style="cursor: default; fill: rgb(42, 63, 95); text-shadow: rgb(255, 255, 255) -1px 1px 1px, rgb(255, 255, 255) 1px 1px 1px, rgb(255, 255, 255) 1px -1px 1px, rgb(255, 255, 255) -1px -1px 1px; font-family: 'Open Sans', verdana, arial, sans-serif; font-size: 10px; fill-opacity: 1;"><textPath class="node-label-text-path" alignment-baseline="middle" xlink:href="#ae1d81_0_node_8" startOffset="0%" text-anchor="start" style="fill: rgb(0, 0, 0);">C1</textPath></text></g></g><g class="sankey-node" transform="translate(260.000,237.600)" style="opacity: 1;"><rect class="node-rect" width="20" height="33.60000000000042" style="stroke-width: 0; stroke: rgb(128, 0, 128); stroke-opacity: 1; fill: rgb(254, 203, 82); fill-opacity: 0.8;"/><rect class="node-capture" x="-10" y="-10" width="40" height="53.60000000000042" style="fill-opacity: 0;"/><g class="node-entered" transform="translate(0,17.80000000000021)"><path class="node-label-guide" id="ae1d81_0_node_9" d="M24,0L540,0" transform="matrix(1 0 0 1 0 0)"/><text class="node-label" transform="scale(1 1)" style="cursor: default; fill: rgb(42, 63, 95); text-shadow: rgb(255, 255, 255) -1px 1px 1px, rgb(255, 255, 255) 1px 1px 1px, rgb(255, 255, 255) 1px -1px 1px, rgb(255, 255, 255) -1px -1px 1px; font-family: 'Open Sans', verdana, arial, sans-serif; font-size: 10px; fill-opacity: 1;"><textPath class="node-label-text-path" alignment-baseline="middle" xlink:href="#ae1d81_0_node_9" startOffset="0%" text-anchor="start" style="fill: rgb(0, 0, 0);">C2</textPath></text></g></g><g class="sankey-node" transform="translate(260.000,40.000)" style="opacity: 1;"><rect class="node-rect" width="20" height="177.59999999999988" style="stroke-width: 0; stroke: rgb(128, 0, 128); stroke-opacity: 1; fill: rgb(99, 110, 250); fill-opacity: 0.8;"/><rect class="node-capture" x="-10" y="-10" width="40" height="197.59999999999988" style="fill-opacity: 0;"/><g class="node-entered" transform="translate(0,89.79999999999994)"><path class="node-label-guide" id="ae1d81_0_node_10" d="M24,0L540,0" transform="matrix(1 0 0 1 0 0)"/><text class="node-label" transform="scale(1 1)" style="cursor: default; fill: rgb(42, 63, 95); text-shadow: rgb(255, 255, 255) -1px 1px 1px, rgb(255, 255, 255) 1px 1px 1px, rgb(255, 255, 255) 1px -1px 1px, rgb(255, 255, 255) -1px -1px 1px; font-family: 'Open Sans', verdana, arial, sans-serif; font-size: 10px; fill-opacity: 1;"><textPath class="node-label-text-path" alignment-baseline="middle" xlink:href="#ae1d81_0_node_10" startOffset="0%" text-anchor="start" style="fill: rgb(0, 0, 0);">C3</textPath></text></g></g><g class="sankey-node" transform="translate(390.000,237.600)" style="opacity: 1;"><rect class="node-rect" width="20" height="48.000000000000114" style="stroke-width: 0; stroke: rgb(128, 0, 128); stroke-opacity: 1; fill: rgb(239, 85, 59); fill-opacity: 0.8;"/><rect class="node-capture" x="-10" y="-10" width="40" height="68.00000000000011" style="fill-opacity: 0;"/><g class="node-entered" transform="translate(0,25.000000000000057)"><path class="node-label-guide" id="ae1d81_0_node_11" d="M24,0L540,0" transform="matrix(1 0 0 1 0 0)"/><text class="node-label" transform="scale(1 1)" style="cursor: default; fill: rgb(42, 63, 95); text-shadow: rgb(255, 255, 255) -1px 1px 1px, rgb(255, 255, 255) 1px 1px 1px, rgb(255, 255, 255) 1px -1px 1px, rgb(255, 255, 255) -1px -1px 1px; font-family: 'Open Sans', verdana, arial, sans-serif; font-size: 10px; fill-opacity: 1;"><textPath class="node-label-text-path" alignment-baseline="middle" xlink:href="#ae1d81_0_node_11" startOffset="0%" text-anchor="start" style="fill: rgb(0, 0, 0);">D1</textPath></text></g></g><g class="sankey-node" transform="translate(390.000,212.800)" style="opacity: 1;"><rect class="node-rect" width="20" height="4.7999999999999545" style="stroke-width: 0; stroke: rgb(128, 0, 128); stroke-opacity: 1; fill: rgb(0, 204, 150); fill-opacity: 0.8;"/><rect class="node-capture" x="-10" y="-10" width="40" height="24.799999999999955" style="fill-opacity: 0;"/><g class="node-entered" transform="translate(0,3.3999999999999773)"><path class="node-label-guide" id="ae1d81_0_node_12" d="M24,0L540,0" transform="matrix(1 0 0 1 0 0)"/><text class="node-label" transform="scale(1 1)" style="cursor: default; fill: rgb(42, 63, 95); text-shadow: rgb(255, 255, 255) -1px 1px 1px, rgb(255, 255, 255) 1px 1px 1px, rgb(255, 255, 255) 1px -1px 1px, rgb(255, 255, 255) -1px -1px 1px; font-family: 'Open Sans', verdana, arial, sans-serif; font-size: 10px; fill-opacity: 1;"><textPath class="node-label-text-path" alignment-baseline="middle" xlink:href="#ae1d81_0_node_12" startOffset="0%" text-anchor="start" style="fill: rgb(0, 0, 0);">D2</textPath></text></g></g><g class="sankey-node" transform="translate(390.000,20.000)" style="opacity: 1;"><rect class="node-rect" width="20" height="172.79999999999998" style="stroke-width: 0; stroke: rgb(128, 0, 128); stroke-opacity: 1; fill: rgb(171, 99, 250); fill-opacity: 0.8;"/><rect class="node-capture" x="-10" y="-10" width="40" height="192.79999999999998" style="fill-opacity: 0;"/><g class="node-entered" transform="translate(0,87.39999999999999)"><path class="node-label-guide" id="ae1d81_0_node_13" d="M24,0L540,0" transform="matrix(1 0 0 1 0 0)"/><text class="node-label" transform="scale(1 1)" style="cursor: default; fill: rgb(42, 63, 95); text-shadow: rgb(255, 255, 255) -1px 1px 1px, rgb(255, 255, 255) 1px 1px 1px, rgb(255, 255, 255) 1px -1px 1px, rgb(255, 255, 255) -1px -1px 1px; font-family: 'Open Sans', verdana, arial, sans-serif; font-size: 10px; fill-opacity: 1;"><textPath class="node-label-text-path" alignment-baseline="middle" xlink:href="#ae1d81_0_node_13" startOffset="0%" text-anchor="start" style="fill: rgb(0, 0, 0);">D3</textPath></text></g></g><g class="sankey-node" transform="translate(390.000,305.600)" style="opacity: 1;"><rect class="node-rect" width="20" height="14.399999999999864" style="stroke-width: 0; stroke: rgb(128, 0, 128); stroke-opacity: 1; fill: rgb(25, 211, 243); fill-opacity: 0.8;"/><rect class="node-capture" x="-10" y="-10" width="40" height="34.399999999999864" style="fill-opacity: 0;"/><g class="node-entered" transform="translate(0,8.199999999999932)"><path class="node-label-guide" id="ae1d81_0_node_15" d="M24,0L540,0" transform="matrix(1 0 0 1 0 0)"/><text class="node-label" transform="scale(1 1)" style="cursor: default; fill: rgb(42, 63, 95); text-shadow: rgb(255, 255, 255) -1px 1px 1px, rgb(255, 255, 255) 1px 1px 1px, rgb(255, 255, 255) 1px -1px 1px, rgb(255, 255, 255) -1px -1px 1px; font-family: 'Open Sans', verdana, arial, sans-serif; font-size: 10px; fill-opacity: 1;"><textPath class="node-label-text-path" alignment-baseline="middle" xlink:href="#ae1d81_0_node_15" startOffset="0%" text-anchor="start" style="fill: rgb(0, 0, 0);">D5</textPath></text></g></g><g class="sankey-node" transform="translate(520.000,173.600)" style="opacity: 1;"><rect class="node-rect" width="20" height="52.8000000000001" style="stroke-width: 0; stroke: rgb(128, 0, 128); stroke-opacity: 1; fill: rgb(255, 102, 146); fill-opacity: 0.8;"/><rect class="node-capture" x="-10" y="-10" width="40" height="72.8000000000001" style="fill-opacity: 0;"/><g class="node-entered" transform="translate(0,27.40000000000005)"><path class="node-label-guide" id="ae1d81_0_node_16" d="M-540,0L-4,0" transform="matrix(1 0 0 1 0 0)"/><text class="node-label" transform="scale(1 1)" style="cursor: default; fill: rgb(42, 63, 95); text-shadow: rgb(255, 255, 255) -1px 1px 1px, rgb(255, 255, 255) 1px 1px 1px, rgb(255, 255, 255) 1px -1px 1px, rgb(255, 255, 255) -1px -1px 1px; font-family: 'Open Sans', verdana, arial, sans-serif; font-size: 10px; fill-opacity: 1;"><textPath class="node-label-text-path" alignment-baseline="middle" xlink:href="#ae1d81_0_node_16" startOffset="100%" text-anchor="end" style="fill: rgb(0, 0, 0);">E1</textPath></text></g></g><g class="sankey-node" transform="translate(520.000,0.000)" style="opacity: 1;"><rect class="node-rect" width="20" height="153.5999999999999" style="stroke-width: 0; stroke: rgb(128, 0, 128); stroke-opacity: 1; fill: rgb(182, 232, 128); fill-opacity: 0.8;"/><rect class="node-capture" x="-10" y="-10" width="40" height="173.5999999999999" style="fill-opacity: 0;"/><g class="node-entered" transform="translate(0,77.79999999999995)"><path class="node-label-guide" id="ae1d81_0_node_17" d="M-540,0L-4,0" transform="matrix(1 0 0 1 0 0)"/><text class="node-label" transform="scale(1 1)" style="cursor: default; fill: rgb(42, 63, 95); text-shadow: rgb(255, 255, 255) -1px 1px 1px, rgb(255, 255, 255) 1px 1px 1px, rgb(255, 255, 255) 1px -1px 1px, rgb(255, 255, 255) -1px -1px 1px; font-family: 'Open Sans', verdana, arial, sans-serif; font-size: 10px; fill-opacity: 1;"><textPath class="node-label-text-path" alignment-baseline="middle" xlink:href="#ae1d81_0_node_17" startOffset="100%" text-anchor="end" style="fill: rgb(0, 0, 0);">E2</textPath></text></g></g><g class="sankey-node" transform="translate(520.000,280.800)" style="opacity: 1;"><rect class="node-rect" width="20" height="14.399999999999977" style="stroke-width: 0; stroke: rgb(128, 0, 128); stroke-opacity: 1; fill: rgb(255, 151, 255); fill-opacity: 0.8;"/><rect class="node-capture" x="-10" y="-10" width="40" height="34.39999999999998" style="fill-opacity: 0;"/><g class="node-entered" transform="translate(0,8.199999999999989)"><path class="node-label-guide" id="ae1d81_0_node_18" d="M-540,0L-4,0" transform="matrix(1 0 0 1 0 0)"/><text class="node-label" transform="scale(1 1)" style="cursor: default; fill: rgb(42, 63, 95); text-shadow: rgb(255, 255, 255) -1px 1px 1px, rgb(255, 255, 255) 1px 1px 1px, rgb(255, 255, 255) 1px -1px 1px, rgb(255, 255, 255) -1px -1px 1px; font-family: 'Open Sans', verdana, arial, sans-serif; font-size: 10px; fill-opacity: 1;"><textPath class="node-label-text-path" alignment-baseline="middle" xlink:href="#ae1d81_0_node_18" startOffset="100%" text-anchor="end" style="fill: rgb(0, 0, 0);">E3</textPath></text></g></g><g class="sankey-node" transform="translate(520.000,246.400)" style="opacity: 1;"><rect class="node-rect" width="20" height="14.399999999999977" style="stroke-width: 0; stroke: rgb(128, 0, 128); stroke-opacity: 1; fill: rgb(254, 203, 82); fill-opacity: 0.8;"/><rect class="node-capture" x="-10" y="-10" width="40" height="34.39999999999998" style="fill-opacity: 0;"/><g class="node-entered" transform="translate(0,8.199999999999989)"><path class="node-label-guide" id="ae1d81_0_node_19" d="M-540,0L-4,0" transform="matrix(1 0 0 1 0 0)"/><text class="node-label" transform="scale(1 1)" style="cursor: default; fill: rgb(42, 63, 95); text-shadow: rgb(255, 255, 255) -1px 1px 1px, rgb(255, 255, 255) 1px 1px 1px, rgb(255, 255, 255) 1px -1px 1px, rgb(255, 255, 255) -1px -1px 1px; font-family: 'Open Sans', verdana, arial, sans-serif; font-size: 10px; fill-opacity: 1;"><textPath class="node-label-text-path" alignment-baseline="middle" xlink:href="#ae1d81_0_node_19" startOffset="100%" text-anchor="end" style="fill: rgb(0, 0, 0);">E4</textPath></text></g></g><g class="sankey-node" transform="translate(520.000,315.200)" style="opacity: 1;"><rect class="node-rect" width="20" height="4.7999999999999545" style="stroke-width: 0; stroke: rgb(128, 0, 128); stroke-opacity: 1; fill: rgb(99, 110, 250); fill-opacity: 0.8;"/><rect class="node-capture" x="-10" y="-10" width="40" height="24.799999999999955" style="fill-opacity: 0;"/><g class="node-entered" transform="translate(0,3.3999999999999773)"><path class="node-label-guide" id="ae1d81_0_node_20" d="M-540,0L-4,0" transform="matrix(1 0 0 1 0 0)"/><text class="node-label" transform="scale(1 1)" style="cursor: default; fill: rgb(42, 63, 95); text-shadow: rgb(255, 255, 255) -1px 1px 1px, rgb(255, 255, 255) 1px 1px 1px, rgb(255, 255, 255) 1px -1px 1px, rgb(255, 255, 255) -1px -1px 1px; font-family: 'Open Sans', verdana, arial, sans-serif; font-size: 10px; fill-opacity: 1;"><textPath class="node-label-text-path" alignment-baseline="middle" xlink:href="#ae1d81_0_node_20" startOffset="100%" text-anchor="end" style="fill: rgb(0, 0, 0);">E5</textPath></text></g></g></g></g><defs id="topdefs-04a5a6"><g class="clips"/></defs><g class="layer-above"><g class="imagelayer"/><g class="shapelayer"/></g><g class="infolayer"><g class="g-gtitle"><text class="gtitle" x="35" y="50" text-anchor="start" dy="0em" style="font-family: 'Open Sans', verdana, arial, sans-serif; font-size: 14px; fill: rgb(42, 63, 95); opacity: 1; font-weight: normal; white-space: pre;">Sankey Diagram 21</text></g><g class="first-render"/></g></svg>