<svg class="main-svg" xmlns="http://www.w3.org/2000/svg" xmlns:xlink="http://www.w3.org/1999/xlink" width="700" height="500" style="" viewBox="0 0 700 500"><rect x="0" y="0" width="700" height="500" style="fill: rgb(255, 255, 255); fill-opacity: 1;"/><defs id="defs-69cb5b"><g class="clips"/><g class="gradients"/></defs><g class="bglayer"/><g class="layer-below"><g class="imagelayer"/><g class="shapelayer"/></g><g class="cartesianlayer"/><g class="polarlayer"/><g class="ternarylayer"/><g class="geolayer"/><g class="funnelarealayer"/><g class="pielayer"/><g class="treemaplayer"/><g class="sunburstlayer"/><g class="glimages"/><g class="sankey" transform="translate(80,100)matrix(1 0 0 1 0 0)" style="box-sizing: content-box; position: absolute; left: 0px; shape-rendering: geometricprecision; pointer-events: auto;"><g class="sankey-links" style="fill: none;"><path class="sankey-link" d="M20,20.000000000000185C96.66666666666667,20.000000000000185 96.66666666666667,19.999999999999986 173.33333333333334,19.999999999999986L173.33333333333334,106.66666666666664C96.66666666666667,106.66666666666664 96.66666666666667,106.66666666666684 20,106.66666666666684Z" style="stroke: rgb(68, 68, 68); stroke-opacity: 1; fill: rgb(0, 0, 0); fill-opacity: 0.2; stroke-width: 0; opacity: 1;"/><path class="sankey-link" d="M20,144.00000000000026C96.66666666666667,144.00000000000026 96.66666666666667,143.99999999999991 173.33333333333334,143.99999999999991L173.33333333333334,213.33333333333323C96.66666666666667,213.33333333333323 96.66666666666667,213.33333333333357 20,213.33333333333357Z" style="stroke: rgb(68, 68, 68); stroke-opacity: 1; fill: rgb(0, 0, 0); fill-opacity: 0.2; stroke-width: 0; opacity: 1;"/><path class="sankey-link" d="M20,126.6666666666669C96.66666666666667,126.6666666666669 96.66666666666667,106.66666666666664 173.33333333333334,106.66666666666664L173.33333333333334,123.99999999999999C96.66666666666667,123.99999999999999 96.66666666666667,144.00000000000023 20,144.00000000000023Z" style="stroke: rgb(68, 68, 68); stroke-opacity: 1; fill: rgb(0, 0, 0); fill-opacity: 0.2; stroke-width: 0; opacity: 1;"/><path class="sankey-link" d="M20,233.33333333333357C96.66666666666667,233.33333333333357 96.66666666666667,213.33333333333326 173.33333333333334,213.33333333333326L173.33333333333334,282.6666666666666C96.66666666666667,282.6666666666666 96.66666666666667,302.6666666666669 20,302.6666666666669Z" style="stroke: rgb(68, 68, 68); stroke-opacity: 1; fill: rgb(0, 0, 0); fill-opacity: 0.2; stroke-width: 0; opacity: 1;"/><path class="sankey-link" d="M20,302.66666666666686C96.66666666666667,302.66666666666686 96.66666666666667,302.66666666666663 173.33333333333334,302.66666666666663L173.33333333333334,320C96.66666666666667,320 96.66666666666667,320.0000000000002 20,320.0000000000002Z" style="stroke: rgb(68, 68, 68); stroke-opacity: 1; fill: rgb(0, 0, 0); fill-opacity: 0.2; stroke-width: 0; opacity: 1;"/><path class="sankey-link" d="M193.33333333333334,143.99999999999994C270,143.99999999999994 270,152.66666666666652 346.6666666666667,152.66666666666652L346.6666666666667,291.33333333333314C270,291.33333333333314 270,282.6666666666666 193.33333333333334,282.6666666666666Z" style="stroke: rgb(68, 68, 68); stroke-opacity: 1; fill: rgb(0, 0, 0); fill-opacity: 0.2; stroke-width: 0; opacity: 1;"/><path class="sankey-link" d="M193.33333333333334,302.66666666666663C270,302.66666666666663 270,86.66666666666669 346.6666666666667,86.66666666666669L346.6666666666667,95.33333333333334C270,95.33333333333334 270,311.33333333333326 193.33333333333334,311.33333333333326Z" style="stroke: rgb(68, 68, 68); stroke-opacity: 1; fill: rgb(0, 0, 0); fill-opacity: 0.2; stroke-width: 0; opacity: 1;"/><path class="sankey-link" d="M193.33333333333334,311.3333333333333C270,311.3333333333333 270,311.33333333333326 346.6666666666667,311.33333333333326L346.6666666666667,319.9999999999999C270,319.9999999999999 270,319.99999999999994 193.33333333333334,319.99999999999994Z" style="stroke: rgb(68, 68, 68); stroke-opacity: 1; fill: rgb(0, 0, 0); fill-opacity: 0.2; stroke-width: 0; opacity: 1;"/><path class="sankey-link" d="M193.33333333333334,19.999999999999986C270,19.999999999999986 270,2.842170943040401e-14 346.6666666666667,2.842170943040401e-14L346.6666666666667,86.66666666666669C270,86.66666666666669 270,106.66666666666664 193.33333333333334,106.66666666666664Z" style="stroke: rgb(68, 68, 68); stroke-opacity: 1; fill: rgb(0, 0, 0); fill-opacity: 0.2; stroke-width: 0; opacity: 1;"/><path class="sankey-link" d="M193.33333333333334,115.33333333333331C270,115.33333333333331 270,143.99999999999986 346.6666666666667,143.99999999999986L346.6666666666667,152.66666666666654C270,152.66666666666654 270,123.99999999999997 193.33333333333334,123.99999999999997Z" style="stroke: rgb(68, 68, 68); stroke-opacity: 1; fill: rgb(0, 0, 0); fill-opacity: 0.2; stroke-width: 0; opacity: 1;"/><path class="sankey-link" d="M193.33333333333334,106.66666666666664C270,106.66666666666664 270,115.3333333333332 346.6666666666667,115.3333333333332L346.6666666666667,123.99999999999986C270,123.99999999999986 270,115.3333333333333 193.33333333333334,115.3333333333333Z" style="stroke: rgb(68, 68, 68); stroke-opacity: 1; fill: rgb(0, 0, 0); fill-opacity: 0.2; stroke-width: 0; opacity: 1;"/><path class="sankey-link" d="M366.6666666666667,43.333333333333364C443.33333333333337,43.333333333333364 443.33333333333337,100.66666666666657 520,100.66666666666657L520,143.9999999999999C443.33333333333337,143.9999999999999 443.33333333333337,86.66666666666669 366.6666666666667,86.66666666666669Z" style="stroke: rgb(68, 68, 68); stroke-opacity: 1; fill: rgb(0, 0, 0); fill-opacity: 0.2; stroke-width: 0; opacity: 1;"/><path class="sankey-link" d="M366.6666666666667,3.197442310920451e-14C443.33333333333337,3.197442310920451e-14 443.33333333333337,19.999999999999872 520,19.999999999999872L520,63.3333333333332C443.33333333333337,63.3333333333332 443.33333333333337,43.33333333333336 366.6666666666667,43.33333333333336Z" style="stroke: rgb(68, 68, 68); stroke-opacity: 1; fill: rgb(0, 0, 0); fill-opacity: 0.2; stroke-width: 0; opacity: 1;"/><path class="sankey-link" d="M366.6666666666667,86.66666666666669C443.33333333333337,86.66666666666669 443.33333333333337,250.66666666666663 520,250.66666666666663L520,259.3333333333333C443.33333333333337,259.3333333333333 443.33333333333337,95.33333333333334 366.6666666666667,95.33333333333334Z" style="stroke: rgb(68, 68, 68); stroke-opacity: 1; fill: rgb(0, 0, 0); fill-opacity: 0.2; stroke-width: 0; opacity: 1;"/><path class="sankey-link" d="M366.6666666666667,152.66666666666652C443.33333333333337,152.66666666666652 443.33333333333337,143.9999999999999 520,143.9999999999999L520,221.9999999999999C443.33333333333337,221.9999999999999 443.33333333333337,230.66666666666652 366.6666666666667,230.66666666666652Z" style="stroke: rgb(68, 68, 68); stroke-opacity: 1; fill: rgb(0, 0, 0); fill-opacity: 0.2; stroke-width: 0; opacity: 1;"/><path class="sankey-link" d="M366.6666666666667,143.99999999999986C443.33333333333337,143.99999999999986 443.33333333333337,71.99999999999987 520,71.99999999999987L520,80.66666666666653C443.33333333333337,80.66666666666653 443.33333333333337,152.66666666666654 366.6666666666667,152.66666666666654Z" style="stroke: rgb(68, 68, 68); stroke-opacity: 1; fill: rgb(0, 0, 0); fill-opacity: 0.2; stroke-width: 0; opacity: 1;"/><path class="sankey-link" d="M366.6666666666667,230.6666666666665C443.33333333333337,230.6666666666665 443.33333333333337,259.3333333333333 520,259.3333333333333L520,319.99999999999994C443.33333333333337,319.99999999999994 443.33333333333337,291.33333333333314 366.6666666666667,291.33333333333314Z" style="stroke: rgb(68, 68, 68); stroke-opacity: 1; fill: rgb(0, 0, 0); fill-opacity: 0.2; stroke-width: 0; opacity: 1;"/><path class="sankey-link" d="M366.6666666666667,115.3333333333332C443.33333333333337,115.3333333333332 443.33333333333337,63.333333333333194 520,63.333333333333194L520,71.99999999999986C443.33333333333337,71.99999999999986 443.33333333333337,123.99999999999986 366.6666666666667,123.99999999999986Z" style="stroke: rgb(68, 68, 68); stroke-opacity: 1; fill: rgb(0, 0, 0); fill-opacity: 0.2; stroke-width: 0; opacity: 1;"/><path class="sankey-link" d="M366.6666666666667,311.33333333333326C443.33333333333337,311.33333333333326 443.33333333333337,221.9999999999999 520,221.9999999999999L520,230.66666666666657C443.33333333333337,230.66666666666657 443.33333333333337,319.9999999999999 366.6666666666667,319.9999999999999Z" style="stroke: rgb(68, 68, 68); stroke-opacity: 1; fill: rgb(0, 0, 0); fill-opacity: 0.2; stroke-width: 0; opacity: 1;"/></g><g class="sankey-node-set" style="cursor: move;"><g class="sankey-node" transform="translate(0.000,20.000)" style="opacity: 1;"><rect class="node-rect" width="20" height="86.66666666666671" style="stroke-width: 0; stroke: rgb(128, 0, 128); stroke-opacity: 1; fill: rgb(99, 110, 250); fill-opacity: 0.8;"/><rect class="node-capture" x="-10" y="-10" width="40" height="106.66666666666671" style="fill-opacity: 0;"/><g class="node-entered" transform="translate(0,44.33333333333336)"><path class="node-label-guide" id="cbbab7_0_node_0" d="M24,0L540,0" transform="matrix(1 0 0 1 0 0)"/><text class="node-label" transform="scale(1 1)" style="cursor: default; fill: rgb(42, 63, 95); text-shadow: rgb(255, 255, 255) -1px 1px 1px, rgb(255, 255, 255) 1px 1px 1px, rgb(255, 255, 255) 1px -1px 1px, rgb(255, 255, 255) -1px -1px 1px; font-family: 'Open Sans', verdana, arial, sans-serif; font-size: 10px; fill-opacity: 1;"><textPath class="node-label-text-path" alignment-baseline="middle" xlink:href="#cbbab7_0_node_0" startOffset="0%" text-anchor="start" style="fill: rgb(0, 0, 0);">A1</textPath></text></g></g><g class="sankey-node" transform="translate(0.000,126.667)" style="opacity: 1;"><rect class="node-rect" width="20" height="86.66666666666663" style="stroke-width: 0; stroke: rgb(128, 0, 128); stroke-opacity: 1; fill: rgb(239, 85, 59); fill-opacity: 0.8;"/><rect class="node-capture" x="-10" y="-10" width="40" height="106.66666666666663" style="fill-opacity: 0;"/><g class="node-entered" transform="translate(0,44.333333333333314)"><path class="node-label-guide" id="cbbab7_0_node_1" d="M24,0L540,0" transform="matrix(1 0 0 1 0 0)"/><text class="node-label" transform="scale(1 1)" style="cursor: default; fill: rgb(42, 63, 95); text-shadow: rgb(255, 255, 255) -1px 1px 1px, rgb(255, 255, 255) 1px 1px 1px, rgb(255, 255, 255) 1px -1px 1px, rgb(255, 255, 255) -1px -1px 1px; font-family: 'Open Sans', verdana, arial, sans-serif; font-size: 10px; fill-opacity: 1;"><textPath class="node-label-text-path" alignment-baseline="middle" xlink:href="#cbbab7_0_node_1" startOffset="0%" text-anchor="start" style="fill: rgb(0, 0, 0);">A2</textPath></text></g></g><g class="sankey-node" transform="translate(0.000,233.333)" style="opacity: 1;"><rect class="node-rect" width="20" height="86.66666666666646" style="stroke-width: 0; stroke: rgb(128, 0, 128); stroke-opacity: 1; fill: rgb(0, 204, 150); fill-opacity: 0.8;"/><rect class="node-capture" x="-10" y="-10" width="40" height="106.66666666666646" style="fill-opacity: 0;"/><g class="node-entered" transform="translate(0,44.33333333333323)"><path class="node-label-guide" id="cbbab7_0_node_2" d="M24,0L540,0" transform="matrix(1 0 0 1 0 0)"/><text class="node-label" transform="scale(1 1)" style="cursor: default; fill: rgb(42, 63, 95); text-shadow: rgb(255, 255, 255) -1px 1px 1px, rgb(255, 255, 255) 1px 1px 1px, rgb(255, 255, 255) 1px -1px 1px, rgb(255, 255, 255) -1px -1px 1px; font-family: 'Open Sans', verdana, arial, sans-serif; font-size: 10px; fill-opacity: 1;"><textPath class="node-label-text-path" alignment-baseline="middle" xlink:href="#cbbab7_0_node_2" startOffset="0%" text-anchor="start" style="fill: rgb(0, 0, 0);">A3</textPath></text></g></g><g class="sankey-node" transform="translate(173.333,144.000)" style="opacity: 1;"><rect class="node-rect" width="20" height="138.6666666666667" style="stroke-width: 0; stroke: rgb(128, 0, 128); stroke-opacity: 1; fill: rgb(171, 99, 250); fill-opacity: 0.8;"/><rect class="node-capture" x="-10" y="-10" width="40" height="158.6666666666667" style="fill-opacity: 0;"/><g class="node-entered" transform="translate(0,70.33333333333336)"><path class="node-label-guide" id="cbbab7_0_node_3" d="M24,0L540,0" transform="matrix(1 0 0 1 0 0)"/><text class="node-label" transform="scale(1 1)" style="cursor: default; fill: rgb(42, 63, 95); text-shadow: rgb(255, 255, 255) -1px 1px 1px, rgb(255, 255, 255) 1px 1px 1px, rgb(255, 255, 255) 1px -1px 1px, rgb(255, 255, 255) -1px -1px 1px; font-family: 'Open Sans', verdana, arial, sans-serif; font-size: 10px; fill-opacity: 1;"><textPath class="node-label-text-path" alignment-baseline="middle" xlink:href="#cbbab7_0_node_3" startOffset="0%" text-anchor="start" style="fill: rgb(0, 0, 0);">B1</textPath></text></g></g><g class="sankey-node" transform="translate(173.333,302.667)" style="opacity: 1;"><rect class="node-rect" width="20" height="17.33333333333337" style="stroke-width: 0; stroke: rgb(128, 0, 128); stroke-opacity: 1; fill: rgb(255, 161, 90); fill-opacity: 0.8;"/><rect class="node-capture" x="-10" y="-10" width="40" height="37.33333333333337" style="fill-opacity: 0;"/><g class="node-entered" transform="translate(0,9.666666666666686)"><path class="node-label-guide" id="cbbab7_0_node_4" d="M24,0L540,0" transform="matrix(1 0 0 1 0 0)"/><text class="node-label" transform="scale(1 1)" style="cursor: default; fill: rgb(42, 63, 95); text-shadow: rgb(255, 255, 255) -1px 1px 1px, rgb(255, 255, 255) 1px 1px 1px, rgb(255, 255, 255) 1px -1px 1px, rgb(255, 255, 255) -1px -1px 1px; font-family: 'Open Sans', verdana, arial, sans-serif; font-size: 10px; fill-opacity: 1;"><textPath class="node-label-text-path" alignment-baseline="middle" xlink:href="#cbbab7_0_node_4" startOffset="0%" text-anchor="start" style="fill: rgb(0, 0, 0);">B2</textPath></text></g></g><g class="sankey-node" transform="translate(173.333,20.000)" style="opacity: 1;"><rect class="node-rect" width="20" height="103.99999999999993" style="stroke-width: 0; stroke: rgb(128, 0, 128); stroke-opacity: 1; fill: rgb(25, 211, 243); fill-opacity: 0.8;"/><rect class="node-capture" x="-10" y="-10" width="40" height="123.99999999999993" style="fill-opacity: 0;"/><g class="node-entered" transform="translate(0,52.999999999999964)"><path class="node-label-guide" id="cbbab7_0_node_5" d="M24,0L540,0" transform="matrix(1 0 0 1 0 0)"/><text class="node-label" transform="scale(1 1)" style="cursor: default; fill: rgb(42, 63, 95); text-shadow: rgb(255, 255, 255) -1px 1px 1px, rgb(255, 255, 255) 1px 1px 1px, rgb(255, 255, 255) 1px -1px 1px, rgb(255, 255, 255) -1px -1px 1px; font-family: 'Open Sans', verdana, arial, sans-serif; font-size: 10px; fill-opacity: 1;"><textPath class="node-label-text-path" alignment-baseline="middle" xlink:href="#cbbab7_0_node_5" startOffset="0%" text-anchor="start" style="fill: rgb(0, 0, 0);">B3</textPath></text></g></g><g class="sankey-node" transform="translate(346.667,0.000)" style="opacity: 1;"><rect class="node-rect" width="20" height="95.33333333333317" style="stroke-width: 0; stroke: rgb(128, 0, 128); stroke-opacity: 1; fill: rgb(255, 102, 146); fill-opacity: 0.8;"/><rect class="node-capture" x="-10" y="-10" width="40" height="115.33333333333317" style="fill-opacity: 0;"/><g class="node-entered" transform="translate(0,48.666666666666586)"><path class="node-label-guide" id="cbbab7_0_node_6" d="M24,0L540,0" transform="matrix(1 0 0 1 0 0)"/><text class="node-label" transform="scale(1 1)" style="cursor: default; fill: rgb(42, 63, 95); text-shadow: rgb(255, 255, 255) -1px 1px 1px, rgb(255, 255, 255) 1px 1px 1px, rgb(255, 255, 255) 1px -1px 1px, rgb(255, 255, 255) -1px -1px 1px; font-family: 'Open Sans', verdana, arial, sans-serif; font-size: 10px; fill-opacity: 1;"><textPath class="node-label-text-path" alignment-baseline="middle" xlink:href="#cbbab7_0_node_6" startOffset="0%" text-anchor="start" style="fill: rgb(0, 0, 0);">C1</textPath></text></g></g><g class="sankey-node" transform="translate(346.667,144.000)" style="opacity: 1;"><rect class="node-rect" width="20" height="147.3333333333334" style="stroke-width: 0; stroke: rgb(128, 0, 128); stroke-opacity: 1; fill: rgb(182, 232, 128); fill-opacity: 0.8;"/><rect class="node-capture" x="-10" y="-10" width="40" height="167.3333333333334" style="fill-opacity: 0;"/><g class="node-entered" transform="translate(0,74.6666666666667)"><path class="node-label-guide" id="cbbab7_0_node_7" d="M24,0L540,0" transform="matrix(1 0 0 1 0 0)"/><text class="node-label" transform="scale(1 1)" style="cursor: default; fill: rgb(42, 63, 95); text-shadow: rgb(255, 255, 255) -1px 1px 1px, rgb(255, 255, 255) 1px 1px 1px, rgb(255, 255, 255) 1px -1px 1px, rgb(255, 255, 255) -1px -1px 1px; font-family: 'Open Sans', verdana, arial, sans-serif; font-size: 10px; fill-opacity: 1;"><textPath class="node-label-text-path" alignment-baseline="middle" xlink:href="#cbbab7_0_node_7" startOffset="0%" text-anchor="start" style="fill: rgb(0, 0, 0);">C2</textPath></text></g></g><g class="sankey-node" transform="translate(346.667,115.333)" style="opacity: 1;"><rect class="node-rect" width="20" height="8.666666666666657" style="stroke-width: 0; stroke: rgb(128, 0, 128); stroke-opacity: 1; fill: rgb(255, 151, 255); fill-opacity: 0.8;"/><rect class="node-capture" x="-10" y="-10" width="40" height="28.666666666666657" style="fill-opacity: 0;"/><g class="node-entered" transform="translate(0,5.333333333333329)"><path class="node-label-guide" id="cbbab7_0_node_8" d="M24,0L540,0" transform="matrix(1 0 0 1 0 0)"/><text class="node-label" transform="scale(1 1)" style="cursor: default; fill: rgb(42, 63, 95); text-shadow: rgb(255, 255, 255) -1px 1px 1px, rgb(255, 255, 255) 1px 1px 1px, rgb(255, 255, 255) 1px -1px 1px, rgb(255, 255, 255) -1px -1px 1px; font-family: 'Open Sans', verdana, arial, sans-serif; font-size: 10px; fill-opacity: 1;"><textPath class="node-label-text-path" alignment-baseline="middle" xlink:href="#cbbab7_0_node_8" startOffset="0%" text-anchor="start" style="fill: rgb(0, 0, 0);">C3</textPath></text></g></g><g class="sankey-node" transform="translate(346.667,311.333)" style="opacity: 1;"><rect class="node-rect" width="20" height="8.666666666666742" style="stroke-width: 0; stroke: rgb(128, 0, 128); stroke-opacity: 1; fill: rgb(254, 203, 82); fill-opacity: 0.8;"/><rect class="node-capture" x="-10" y="-10" width="40" height="28.666666666666742" style="fill-opacity: 0;"/><g class="node-entered" transform="translate(0,5.333333333333371)"><path class="node-label-guide" id="cbbab7_0_node_9" d="M24,0L540,0" transform="matrix(1 0 0 1 0 0)"/><text class="node-label" transform="scale(1 1)" style="cursor: default; fill: rgb(42, 63, 95); text-shadow: rgb(255, 255, 255) -1px 1px 1px, rgb(255, 255, 255) 1px 1px 1px, rgb(255, 255, 255) 1px -1px 1px, rgb(255, 255, 255) -1px -1px 1px; font-family: 'Open Sans', verdana, arial, sans-serif; font-size: 10px; fill-opacity: 1;"><textPath class="node-label-text-path" alignment-baseline="middle" xlink:href="#cbbab7_0_node_9" startOffset="0%" text-anchor="start" style="fill: rgb(0, 0, 0);">C4</textPath></text></g></g><g class="sankey-node" transform="translate(520.000,100.667)" style="opacity: 1;"><rect class="node-rect" width="20" height="130.00000000000006" style="stroke-width: 0; stroke: rgb(128, 0, 128); stroke-opacity: 1; fill: rgb(99, 110, 250); fill-opacity: 0.8;"/><rect class="node-capture" x="-10" y="-10" width="40" height="150.00000000000006" style="fill-opacity: 0;"/><g class="node-entered" transform="translate(0,66.00000000000003)"><path class="node-label-guide" id="cbbab7_0_node_10" d="M-540,0L-4,0" transform="matrix(1 0 0 1 0 0)"/><text class="node-label" transform="scale(1 1)" style="cursor: default; fill: rgb(42, 63, 95); text-shadow: rgb(255, 255, 255) -1px 1px 1px, rgb(255, 255, 255) 1px 1px 1px, rgb(255, 255, 255) 1px -1px 1px, rgb(255, 255, 255) -1px -1px 1px; font-family: 'Open Sans', verdana, arial, sans-serif; font-size: 10px; fill-opacity: 1;"><textPath class="node-label-text-path" alignment-baseline="middle" xlink:href="#cbbab7_0_node_10" startOffset="100%" text-anchor="end" style="fill: rgb(0, 0, 0);">D1</textPath></text></g></g><g class="sankey-node" transform="translate(520.000,20.000)" style="opacity: 1;"><rect class="node-rect" width="20" height="60.6666666666667" style="stroke-width: 0; stroke: rgb(128, 0, 128); stroke-opacity: 1; fill: rgb(239, 85, 59); fill-opacity: 0.8;"/><rect class="node-capture" x="-10" y="-10" width="40" height="80.6666666666667" style="fill-opacity: 0;"/><g class="node-entered" transform="translate(0,31.33333333333335)"><path class="node-label-guide" id="cbbab7_0_node_11" d="M-540,0L-4,0" transform="matrix(1 0 0 1 0 0)"/><text class="node-label" transform="scale(1 1)" style="cursor: default; fill: rgb(42, 63, 95); text-shadow: rgb(255, 255, 255) -1px 1px 1px, rgb(255, 255, 255) 1px 1px 1px, rgb(255, 255, 255) 1px -1px 1px, rgb(255, 255, 255) -1px -1px 1px; font-family: 'Open Sans', verdana, arial, sans-serif; font-size: 10px; fill-opacity: 1;"><textPath class="node-label-text-path" alignment-baseline="middle" xlink:href="#cbbab7_0_node_11" startOffset="100%" text-anchor="end" style="fill: rgb(0, 0, 0);">D2</textPath></text></g></g><g class="sankey-node" transform="translate(520.000,250.667)" style="opacity: 1;"><rect class="node-rect" width="20" height="69.33333333333337" style="stroke-width: 0; stroke: rgb(128, 0, 128); stroke-opacity: 1; fill: rgb(0, 204, 150); fill-opacity: 0.8;"/><rect class="node-capture" x="-10" y="-10" width="40" height="89.33333333333337" style="fill-opacity: 0;"/><g class="node-entered" transform="translate(0,35.666666666666686)"><path class="node-label-guide" id="cbbab7_0_node_12" d="M-540,0L-4,0" transform="matrix(1 0 0 1 0 0)"/><text class="node-label" transform="scale(1 1)" style="cursor: default; fill: rgb(42, 63, 95); text-shadow: rgb(255, 255, 255) -1px 1px 1px, rgb(255, 255, 255) 1px 1px 1px, rgb(255, 255, 255) 1px -1px 1px, rgb(255, 255, 255) -1px -1px 1px; font-family: 'Open Sans', verdana, arial, sans-serif; font-size: 10px; fill-opacity: 1;"><textPath class="node-label-text-path" alignment-baseline="middle" xlink:href="#cbbab7_0_node_12" startOffset="100%" text-anchor="end" style="fill: rgb(0, 0, 0);">D3</textPath></text></g></g></g></g><defs id="topdefs-69cb5b"><g class="clips"/></defs><g class="layer-above"><g class="imagelayer"/><g class="shapelayer"/></g><g class="infolayer"><g class="g-gtitle"><text class="gtitle" x="35" y="50" text-anchor="start" dy="0em" style="font-family: 'Open Sans', verdana, arial, sans-serif; font-size: 14px; fill: rgb(42, 63, 95); opacity: 1; font-weight: normal; white-space: pre;">Sankey Diagram 140</text></g><g class="first-render"/></g></svg>