<svg class="main-svg" xmlns="http://www.w3.org/2000/svg" xmlns:xlink="http://www.w3.org/1999/xlink" width="700" height="500" style="" viewBox="0 0 700 500"><rect x="0" y="0" width="700" height="500" style="fill: rgb(255, 255, 255); fill-opacity: 1;"/><defs id="defs-0a8c02"><g class="clips"/><g class="gradients"/></defs><g class="bglayer"/><g class="layer-below"><g class="imagelayer"/><g class="shapelayer"/></g><g class="cartesianlayer"/><g class="polarlayer"/><g class="ternarylayer"/><g class="geolayer"/><g class="funnelarealayer"/><g class="pielayer"/><g class="treemaplayer"/><g class="sunburstlayer"/><g class="glimages"/><g class="sankey" transform="translate(80,100)matrix(1 0 0 1 0 0)" style="box-sizing: content-box; position: absolute; left: 0px; shape-rendering: geometricprecision; pointer-events: auto;"><g class="sankey-links" style="fill: none;"><path class="sankey-link" d="M20,39.65000000000009C75,39.65000000000009 75,179.10000000000034 130,179.10000000000034L130,204.45000000000036C75,204.45000000000036 75,65.00000000000009 20,65.00000000000009Z" style="stroke: rgb(68, 68, 68); stroke-opacity: 1; fill: rgb(0, 0, 0); fill-opacity: 0.2; stroke-width: 0; opacity: 1;"/><path class="sankey-link" d="M20,8.526512829121202e-14C75,8.526512829121202e-14 75,2.8421709430404007e-13 130,2.8421709430404007e-13L130,39.65000000000028C75,39.65000000000028 75,39.650000000000084 20,39.650000000000084Z" style="stroke: rgb(68, 68, 68); stroke-opacity: 1; fill: rgb(0, 0, 0); fill-opacity: 0.2; stroke-width: 0; opacity: 1;"/><path class="sankey-link" d="M20,123.35000000000015C75,123.35000000000015 75,286.2000000000003 130,286.2000000000003L130,312.85000000000025C75,312.85000000000025 75,150.00000000000014 20,150.00000000000014Z" style="stroke: rgb(68, 68, 68); stroke-opacity: 1; fill: rgb(0, 0, 0); fill-opacity: 0.2; stroke-width: 0; opacity: 1;"/><path class="sankey-link" d="M20,99.30000000000017C75,99.30000000000017 75,95.40000000000023 130,95.40000000000023L130,119.45000000000024C75,119.45000000000024 75,123.35000000000018 20,123.35000000000018Z" style="stroke: rgb(68, 68, 68); stroke-opacity: 1; fill: rgb(0, 0, 0); fill-opacity: 0.2; stroke-width: 0; opacity: 1;"/><path class="sankey-link" d="M20,85.00000000000017C75,85.00000000000017 75,39.65000000000028 130,39.65000000000028L130,53.95000000000028C75,53.95000000000028 75,99.30000000000018 20,99.30000000000018Z" style="stroke: rgb(68, 68, 68); stroke-opacity: 1; fill: rgb(0, 0, 0); fill-opacity: 0.2; stroke-width: 0; opacity: 1;"/><path class="sankey-link" d="M20,170.00000000000023C75,170.00000000000023 75,119.45000000000023 130,119.45000000000023L130,151.30000000000024C75,151.30000000000024 75,201.85000000000025 20,201.85000000000025Z" style="stroke: rgb(68, 68, 68); stroke-opacity: 1; fill: rgb(0, 0, 0); fill-opacity: 0.2; stroke-width: 0; opacity: 1;"/><path class="sankey-link" d="M20,201.85000000000022C75,201.85000000000022 75,204.45000000000033 130,204.45000000000033L130,237.6000000000003C75,237.6000000000003 75,235.0000000000002 20,235.0000000000002Z" style="stroke: rgb(68, 68, 68); stroke-opacity: 1; fill: rgb(0, 0, 0); fill-opacity: 0.2; stroke-width: 0; opacity: 1;"/><path class="sankey-link" d="M20,284.25000000000017C75,284.25000000000017 75,237.60000000000034 130,237.60000000000034L130,266.20000000000033C75,266.20000000000033 75,312.8500000000002 20,312.8500000000002Z" style="stroke: rgb(68, 68, 68); stroke-opacity: 1; fill: rgb(0, 0, 0); fill-opacity: 0.2; stroke-width: 0; opacity: 1;"/><path class="sankey-link" d="M20,255.0000000000002C75,255.0000000000002 75,53.95000000000028 130,53.95000000000028L130,75.40000000000028C75,75.40000000000028 75,276.4500000000002 20,276.4500000000002Z" style="stroke: rgb(68, 68, 68); stroke-opacity: 1; fill: rgb(0, 0, 0); fill-opacity: 0.2; stroke-width: 0; opacity: 1;"/><path class="sankey-link" d="M20,276.45000000000016C75,276.45000000000016 75,151.30000000000024 130,151.30000000000024L130,159.10000000000025C75,159.10000000000025 75,284.2500000000001 20,284.2500000000001Z" style="stroke: rgb(68, 68, 68); stroke-opacity: 1; fill: rgb(0, 0, 0); fill-opacity: 0.2; stroke-width: 0; opacity: 1;"/><path class="sankey-link" d="M20,312.8500000000002C75,312.8500000000002 75,312.85000000000025 130,312.85000000000025L130,320.0000000000002C75,320.0000000000002 75,320.00000000000017 20,320.00000000000017Z" style="stroke: rgb(68, 68, 68); stroke-opacity: 1; fill: rgb(0, 0, 0); fill-opacity: 0.2; stroke-width: 0; opacity: 1;"/><path class="sankey-link" d="M150,95.40000000000023C205,95.40000000000023 205,115.39999999999975 260,115.39999999999975L260,179.09999999999974C205,179.09999999999974 205,159.10000000000022 150,159.10000000000022Z" style="stroke: rgb(68, 68, 68); stroke-opacity: 1; fill: rgb(0, 0, 0); fill-opacity: 0.2; stroke-width: 0; opacity: 1;"/><path class="sankey-link" d="M150,286.2000000000003C205,286.2000000000003 205,286.1999999999999 260,286.1999999999999L260,319.99999999999983C205,319.99999999999983 205,320.0000000000002 150,320.0000000000002Z" style="stroke: rgb(68, 68, 68); stroke-opacity: 1; fill: rgb(0, 0, 0); fill-opacity: 0.2; stroke-width: 0; opacity: 1;"/><path class="sankey-link" d="M150,2.8421709430404007e-13C205,2.8421709430404007e-13 205,19.999999999999844 260,19.999999999999844L260,95.39999999999985C205,95.39999999999985 205,75.40000000000029 150,75.40000000000029Z" style="stroke: rgb(68, 68, 68); stroke-opacity: 1; fill: rgb(0, 0, 0); fill-opacity: 0.2; stroke-width: 0; opacity: 1;"/><path class="sankey-link" d="M150,179.10000000000034C205,179.10000000000034 205,199.09999999999988 260,199.09999999999988L260,286.1999999999999C205,286.1999999999999 205,266.20000000000033 150,266.20000000000033Z" style="stroke: rgb(68, 68, 68); stroke-opacity: 1; fill: rgb(0, 0, 0); fill-opacity: 0.2; stroke-width: 0; opacity: 1;"/><path class="sankey-link" d="M280,115.39999999999975C335,115.39999999999975 335,75.40000000000003 390,75.40000000000003L390,139.10000000000002C335,139.10000000000002 335,179.09999999999974 280,179.09999999999974Z" style="stroke: rgb(68, 68, 68); stroke-opacity: 1; fill: rgb(0, 0, 0); fill-opacity: 0.2; stroke-width: 0; opacity: 1;"/><path class="sankey-link" d="M280,244.59999999999988C335,244.59999999999988 335,224.59999999999982 390,224.59999999999982L390,281.1499999999998C335,281.1499999999998 335,301.14999999999986 280,301.14999999999986Z" style="stroke: rgb(68, 68, 68); stroke-opacity: 1; fill: rgb(0, 0, 0); fill-opacity: 0.2; stroke-width: 0; opacity: 1;"/><path class="sankey-link" d="M280,215.34999999999988C335,215.34999999999988 335,175.34999999999982 390,175.34999999999982L390,204.59999999999982C335,204.59999999999982 335,244.59999999999988 280,244.59999999999988Z" style="stroke: rgb(68, 68, 68); stroke-opacity: 1; fill: rgb(0, 0, 0); fill-opacity: 0.2; stroke-width: 0; opacity: 1;"/><path class="sankey-link" d="M280,301.14999999999986C335,301.14999999999986 335,301.1500000000002 390,301.1500000000002L390,320.0000000000002C335,320.0000000000002 335,319.9999999999999 280,319.9999999999999Z" style="stroke: rgb(68, 68, 68); stroke-opacity: 1; fill: rgb(0, 0, 0); fill-opacity: 0.2; stroke-width: 0; opacity: 1;"/><path class="sankey-link" d="M280,199.09999999999988C335,199.09999999999988 335,139.10000000000002 390,139.10000000000002L390,155.35000000000002C335,155.35000000000002 335,215.34999999999988 280,215.34999999999988Z" style="stroke: rgb(68, 68, 68); stroke-opacity: 1; fill: rgb(0, 0, 0); fill-opacity: 0.2; stroke-width: 0; opacity: 1;"/><path class="sankey-link" d="M280,19.999999999999844C335,19.999999999999844 335,2.1316282072803006e-14 390,2.1316282072803006e-14L390,75.40000000000003C335,75.40000000000003 335,95.39999999999985 280,95.39999999999985Z" style="stroke: rgb(68, 68, 68); stroke-opacity: 1; fill: rgb(0, 0, 0); fill-opacity: 0.2; stroke-width: 0; opacity: 1;"/><path class="sankey-link" d="M410,177.94999999999982C465,177.94999999999982 465,153.89999999999992 520,153.89999999999992L520,162.3499999999999C465,162.3499999999999 465,186.3999999999998 410,186.3999999999998Z" style="stroke: rgb(68, 68, 68); stroke-opacity: 1; fill: rgb(0, 0, 0); fill-opacity: 0.2; stroke-width: 0; opacity: 1;"/><path class="sankey-link" d="M410,198.0999999999998C465,198.0999999999998 465,271.25 520,271.25L520,277.75C465,277.75 465,204.5999999999998 410,204.5999999999998Z" style="stroke: rgb(68, 68, 68); stroke-opacity: 1; fill: rgb(0, 0, 0); fill-opacity: 0.2; stroke-width: 0; opacity: 1;"/><path class="sankey-link" d="M410,186.3999999999998C465,186.3999999999998 465,206.40000000000003 520,206.40000000000003L520,218.10000000000002C465,218.10000000000002 465,198.0999999999998 410,198.0999999999998Z" style="stroke: rgb(68, 68, 68); stroke-opacity: 1; fill: rgb(0, 0, 0); fill-opacity: 0.2; stroke-width: 0; opacity: 1;"/><path class="sankey-link" d="M410,175.34999999999982C465,175.34999999999982 465,95.54999999999987 520,95.54999999999987L520,98.14999999999986C465,98.14999999999986 465,177.94999999999985 410,177.94999999999985Z" style="stroke: rgb(68, 68, 68); stroke-opacity: 1; fill: rgb(0, 0, 0); fill-opacity: 0.2; stroke-width: 0; opacity: 1;"/><path class="sankey-link" d="M410,2.1316282072803006e-14C465,2.1316282072803006e-14 465,-1.3500311979441904e-13 520,-1.3500311979441904e-13L520,95.54999999999987C465,95.54999999999987 465,95.55000000000001 410,95.55000000000001Z" style="stroke: rgb(68, 68, 68); stroke-opacity: 1; fill: rgb(0, 0, 0); fill-opacity: 0.2; stroke-width: 0; opacity: 1;"/><path class="sankey-link" d="M410,131.3C465,131.3 465,182.35000000000002 520,182.35000000000002L520,206.40000000000003C465,206.40000000000003 465,155.35000000000002 410,155.35000000000002Z" style="stroke: rgb(68, 68, 68); stroke-opacity: 1; fill: rgb(0, 0, 0); fill-opacity: 0.2; stroke-width: 0; opacity: 1;"/><path class="sankey-link" d="M410,95.55000000000001C465,95.55000000000001 465,118.14999999999992 520,118.14999999999992L520,153.89999999999992C465,153.89999999999992 465,131.3 410,131.3Z" style="stroke: rgb(68, 68, 68); stroke-opacity: 1; fill: rgb(0, 0, 0); fill-opacity: 0.2; stroke-width: 0; opacity: 1;"/><path class="sankey-link" d="M410,301.1500000000002C465,301.1500000000002 465,301.15 520,301.15L520,320C465,320 465,320.0000000000002 410,320.0000000000002Z" style="stroke: rgb(68, 68, 68); stroke-opacity: 1; fill: rgb(0, 0, 0); fill-opacity: 0.2; stroke-width: 0; opacity: 1;"/><path class="sankey-link" d="M410,224.59999999999982C465,224.59999999999982 465,218.10000000000002 520,218.10000000000002L520,251.25C465,251.25 465,257.74999999999983 410,257.74999999999983Z" style="stroke: rgb(68, 68, 68); stroke-opacity: 1; fill: rgb(0, 0, 0); fill-opacity: 0.2; stroke-width: 0; opacity: 1;"/><path class="sankey-link" d="M410,257.74999999999983C465,257.74999999999983 465,277.75 520,277.75L520,301.15C465,301.15 465,281.1499999999998 410,281.1499999999998Z" style="stroke: rgb(68, 68, 68); stroke-opacity: 1; fill: rgb(0, 0, 0); fill-opacity: 0.2; stroke-width: 0; opacity: 1;"/></g><g class="sankey-node-set" style="cursor: move;"><g class="sankey-node" transform="translate(0.000,0.000)" style="opacity: 1;"><rect class="node-rect" width="20" height="65.00000000000009" style="stroke-width: 0; stroke: rgb(128, 0, 128); stroke-opacity: 1; fill: rgb(87, 74, 226); fill-opacity: 1;"/><rect class="node-capture" x="-10" y="-10" width="40" height="85.00000000000009" style="fill-opacity: 0;"/><g class="node-entered" transform="translate(0,33.50000000000004)"><path class="node-label-guide" id="920e1c_0_node_0" d="M24,0L540,0" transform="matrix(1 0 0 1 0 0)"/><text class="node-label" transform="scale(1 1)" style="cursor: default; fill: rgb(42, 63, 95); text-shadow: rgb(255, 255, 255) -1px 1px 1px, rgb(255, 255, 255) 1px 1px 1px, rgb(255, 255, 255) 1px -1px 1px, rgb(255, 255, 255) -1px -1px 1px; font-family: 'Open Sans', verdana, arial, sans-serif; font-size: 10px; fill-opacity: 1;"><textPath class="node-label-text-path" alignment-baseline="middle" xlink:href="#920e1c_0_node_0" startOffset="0%" text-anchor="start" style="fill: rgb(0, 0, 0);">A1</textPath></text></g></g><g class="sankey-node" transform="translate(0.000,85.000)" style="opacity: 1;"><rect class="node-rect" width="20" height="65.00000000000006" style="stroke-width: 0; stroke: rgb(128, 0, 128); stroke-opacity: 1; fill: rgb(87, 74, 226); fill-opacity: 1;"/><rect class="node-capture" x="-10" y="-10" width="40" height="85.00000000000006" style="fill-opacity: 0;"/><g class="node-entered" transform="translate(0,33.50000000000003)"><path class="node-label-guide" id="920e1c_0_node_1" d="M24,0L540,0" transform="matrix(1 0 0 1 0 0)"/><text class="node-label" transform="scale(1 1)" style="cursor: default; fill: rgb(42, 63, 95); text-shadow: rgb(255, 255, 255) -1px 1px 1px, rgb(255, 255, 255) 1px 1px 1px, rgb(255, 255, 255) 1px -1px 1px, rgb(255, 255, 255) -1px -1px 1px; font-family: 'Open Sans', verdana, arial, sans-serif; font-size: 10px; fill-opacity: 1;"><textPath class="node-label-text-path" alignment-baseline="middle" xlink:href="#920e1c_0_node_1" startOffset="0%" text-anchor="start" style="fill: rgb(0, 0, 0);">A2</textPath></text></g></g><g class="sankey-node" transform="translate(0.000,170.000)" style="opacity: 1;"><rect class="node-rect" width="20" height="64.99999999999994" style="stroke-width: 0; stroke: rgb(128, 0, 128); stroke-opacity: 1; fill: rgb(87, 74, 226); fill-opacity: 1;"/><rect class="node-capture" x="-10" y="-10" width="40" height="84.99999999999994" style="fill-opacity: 0;"/><g class="node-entered" transform="translate(0,33.49999999999997)"><path class="node-label-guide" id="920e1c_0_node_2" d="M24,0L540,0" transform="matrix(1 0 0 1 0 0)"/><text class="node-label" transform="scale(1 1)" style="cursor: default; fill: rgb(42, 63, 95); text-shadow: rgb(255, 255, 255) -1px 1px 1px, rgb(255, 255, 255) 1px 1px 1px, rgb(255, 255, 255) 1px -1px 1px, rgb(255, 255, 255) -1px -1px 1px; font-family: 'Open Sans', verdana, arial, sans-serif; font-size: 10px; fill-opacity: 1;"><textPath class="node-label-text-path" alignment-baseline="middle" xlink:href="#920e1c_0_node_2" startOffset="0%" text-anchor="start" style="fill: rgb(0, 0, 0);">A3</textPath></text></g></g><g class="sankey-node" transform="translate(0.000,255.000)" style="opacity: 1;"><rect class="node-rect" width="20" height="64.99999999999983" style="stroke-width: 0; stroke: rgb(128, 0, 128); stroke-opacity: 1; fill: rgb(87, 74, 226); fill-opacity: 1;"/><rect class="node-capture" x="-10" y="-10" width="40" height="84.99999999999983" style="fill-opacity: 0;"/><g class="node-entered" transform="translate(0,33.499999999999915)"><path class="node-label-guide" id="920e1c_0_node_3" d="M24,0L540,0" transform="matrix(1 0 0 1 0 0)"/><text class="node-label" transform="scale(1 1)" style="cursor: default; fill: rgb(42, 63, 95); text-shadow: rgb(255, 255, 255) -1px 1px 1px, rgb(255, 255, 255) 1px 1px 1px, rgb(255, 255, 255) 1px -1px 1px, rgb(255, 255, 255) -1px -1px 1px; font-family: 'Open Sans', verdana, arial, sans-serif; font-size: 10px; fill-opacity: 1;"><textPath class="node-label-text-path" alignment-baseline="middle" xlink:href="#920e1c_0_node_3" startOffset="0%" text-anchor="start" style="fill: rgb(0, 0, 0);">A4</textPath></text></g></g><g class="sankey-node" transform="translate(130.000,95.400)" style="opacity: 1;"><rect class="node-rect" width="20" height="63.7000000000001" style="stroke-width: 0; stroke: rgb(128, 0, 128); stroke-opacity: 1; fill: rgb(87, 74, 226); fill-opacity: 1;"/><rect class="node-capture" x="-10" y="-10" width="40" height="83.7000000000001" style="fill-opacity: 0;"/><g class="node-entered" transform="translate(0,32.85000000000005)"><path class="node-label-guide" id="920e1c_0_node_4" d="M24,0L540,0" transform="matrix(1 0 0 1 0 0)"/><text class="node-label" transform="scale(1 1)" style="cursor: default; fill: rgb(42, 63, 95); text-shadow: rgb(255, 255, 255) -1px 1px 1px, rgb(255, 255, 255) 1px 1px 1px, rgb(255, 255, 255) 1px -1px 1px, rgb(255, 255, 255) -1px -1px 1px; font-family: 'Open Sans', verdana, arial, sans-serif; font-size: 10px; fill-opacity: 1;"><textPath class="node-label-text-path" alignment-baseline="middle" xlink:href="#920e1c_0_node_4" startOffset="0%" text-anchor="start" style="fill: rgb(0, 0, 0);">B1</textPath></text></g></g><g class="sankey-node" transform="translate(130.000,286.200)" style="opacity: 1;"><rect class="node-rect" width="20" height="33.79999999999973" style="stroke-width: 0; stroke: rgb(128, 0, 128); stroke-opacity: 1; fill: rgb(87, 74, 226); fill-opacity: 1;"/><rect class="node-capture" x="-10" y="-10" width="40" height="53.79999999999973" style="fill-opacity: 0;"/><g class="node-entered" transform="translate(0,17.899999999999864)"><path class="node-label-guide" id="920e1c_0_node_5" d="M24,0L540,0" transform="matrix(1 0 0 1 0 0)"/><text class="node-label" transform="scale(1 1)" style="cursor: default; fill: rgb(42, 63, 95); text-shadow: rgb(255, 255, 255) -1px 1px 1px, rgb(255, 255, 255) 1px 1px 1px, rgb(255, 255, 255) 1px -1px 1px, rgb(255, 255, 255) -1px -1px 1px; font-family: 'Open Sans', verdana, arial, sans-serif; font-size: 10px; fill-opacity: 1;"><textPath class="node-label-text-path" alignment-baseline="middle" xlink:href="#920e1c_0_node_5" startOffset="0%" text-anchor="start" style="fill: rgb(0, 0, 0);">B2</textPath></text></g></g><g class="sankey-node" transform="translate(130.000,0.000)" style="opacity: 1;"><rect class="node-rect" width="20" height="75.39999999999995" style="stroke-width: 0; stroke: rgb(128, 0, 128); stroke-opacity: 1; fill: rgb(87, 74, 226); fill-opacity: 1;"/><rect class="node-capture" x="-10" y="-10" width="40" height="95.39999999999995" style="fill-opacity: 0;"/><g class="node-entered" transform="translate(0,38.699999999999974)"><path class="node-label-guide" id="920e1c_0_node_6" d="M24,0L540,0" transform="matrix(1 0 0 1 0 0)"/><text class="node-label" transform="scale(1 1)" style="cursor: default; fill: rgb(42, 63, 95); text-shadow: rgb(255, 255, 255) -1px 1px 1px, rgb(255, 255, 255) 1px 1px 1px, rgb(255, 255, 255) 1px -1px 1px, rgb(255, 255, 255) -1px -1px 1px; font-family: 'Open Sans', verdana, arial, sans-serif; font-size: 10px; fill-opacity: 1;"><textPath class="node-label-text-path" alignment-baseline="middle" xlink:href="#920e1c_0_node_6" startOffset="0%" text-anchor="start" style="fill: rgb(0, 0, 0);">B3</textPath></text></g></g><g class="sankey-node" transform="translate(130.000,179.100)" style="opacity: 1;"><rect class="node-rect" width="20" height="87.09999999999994" style="stroke-width: 0; stroke: rgb(128, 0, 128); stroke-opacity: 1; fill: rgb(87, 74, 226); fill-opacity: 1;"/><rect class="node-capture" x="-10" y="-10" width="40" height="107.09999999999994" style="fill-opacity: 0;"/><g class="node-entered" transform="translate(0,44.54999999999997)"><path class="node-label-guide" id="920e1c_0_node_7" d="M24,0L540,0" transform="matrix(1 0 0 1 0 0)"/><text class="node-label" transform="scale(1 1)" style="cursor: default; fill: rgb(42, 63, 95); text-shadow: rgb(255, 255, 255) -1px 1px 1px, rgb(255, 255, 255) 1px 1px 1px, rgb(255, 255, 255) 1px -1px 1px, rgb(255, 255, 255) -1px -1px 1px; font-family: 'Open Sans', verdana, arial, sans-serif; font-size: 10px; fill-opacity: 1;"><textPath class="node-label-text-path" alignment-baseline="middle" xlink:href="#920e1c_0_node_7" startOffset="0%" text-anchor="start" style="fill: rgb(0, 0, 0);">B4</textPath></text></g></g><g class="sankey-node" transform="translate(260.000,115.400)" style="opacity: 1;"><rect class="node-rect" width="20" height="63.70000000000013" style="stroke-width: 0; stroke: rgb(128, 0, 128); stroke-opacity: 1; fill: rgb(87, 74, 226); fill-opacity: 1;"/><rect class="node-capture" x="-10" y="-10" width="40" height="83.70000000000013" style="fill-opacity: 0;"/><g class="node-entered" transform="translate(0,32.850000000000065)"><path class="node-label-guide" id="920e1c_0_node_8" d="M24,0L540,0" transform="matrix(1 0 0 1 0 0)"/><text class="node-label" transform="scale(1 1)" style="cursor: default; fill: rgb(42, 63, 95); text-shadow: rgb(255, 255, 255) -1px 1px 1px, rgb(255, 255, 255) 1px 1px 1px, rgb(255, 255, 255) 1px -1px 1px, rgb(255, 255, 255) -1px -1px 1px; font-family: 'Open Sans', verdana, arial, sans-serif; font-size: 10px; fill-opacity: 1;"><textPath class="node-label-text-path" alignment-baseline="middle" xlink:href="#920e1c_0_node_8" startOffset="0%" text-anchor="start" style="fill: rgb(0, 0, 0);">C1</textPath></text></g></g><g class="sankey-node" transform="translate(260.000,199.100)" style="opacity: 1;"><rect class="node-rect" width="20" height="120.90000000000012" style="stroke-width: 0; stroke: rgb(128, 0, 128); stroke-opacity: 1; fill: rgb(87, 74, 226); fill-opacity: 1;"/><rect class="node-capture" x="-10" y="-10" width="40" height="140.90000000000012" style="fill-opacity: 0;"/><g class="node-entered" transform="translate(0,61.45000000000006)"><path class="node-label-guide" id="920e1c_0_node_9" d="M24,0L540,0" transform="matrix(1 0 0 1 0 0)"/><text class="node-label" transform="scale(1 1)" style="cursor: default; fill: rgb(42, 63, 95); text-shadow: rgb(255, 255, 255) -1px 1px 1px, rgb(255, 255, 255) 1px 1px 1px, rgb(255, 255, 255) 1px -1px 1px, rgb(255, 255, 255) -1px -1px 1px; font-family: 'Open Sans', verdana, arial, sans-serif; font-size: 10px; fill-opacity: 1;"><textPath class="node-label-text-path" alignment-baseline="middle" xlink:href="#920e1c_0_node_9" startOffset="0%" text-anchor="start" style="fill: rgb(0, 0, 0);">C2</textPath></text></g></g><g class="sankey-node" transform="translate(260.000,20.000)" style="opacity: 1;"><rect class="node-rect" width="20" height="75.3999999999999" style="stroke-width: 0; stroke: rgb(128, 0, 128); stroke-opacity: 1; fill: rgb(87, 74, 226); fill-opacity: 1;"/><rect class="node-capture" x="-10" y="-10" width="40" height="95.3999999999999" style="fill-opacity: 0;"/><g class="node-entered" transform="translate(0,38.69999999999995)"><path class="node-label-guide" id="920e1c_0_node_10" d="M24,0L540,0" transform="matrix(1 0 0 1 0 0)"/><text class="node-label" transform="scale(1 1)" style="cursor: default; fill: rgb(42, 63, 95); text-shadow: rgb(255, 255, 255) -1px 1px 1px, rgb(255, 255, 255) 1px 1px 1px, rgb(255, 255, 255) 1px -1px 1px, rgb(255, 255, 255) -1px -1px 1px; font-family: 'Open Sans', verdana, arial, sans-serif; font-size: 10px; fill-opacity: 1;"><textPath class="node-label-text-path" alignment-baseline="middle" xlink:href="#920e1c_0_node_10" startOffset="0%" text-anchor="start" style="fill: rgb(0, 0, 0);">C3</textPath></text></g></g><g class="sankey-node" transform="translate(390.000,175.350)" style="opacity: 1;"><rect class="node-rect" width="20" height="29.25" style="stroke-width: 0; stroke: rgb(128, 0, 128); stroke-opacity: 1; fill: rgb(87, 74, 226); fill-opacity: 1;"/><rect class="node-capture" x="-10" y="-10" width="40" height="49.25" style="fill-opacity: 0;"/><g class="node-entered" transform="translate(0,15.625)"><path class="node-label-guide" id="920e1c_0_node_11" d="M24,0L540,0" transform="matrix(1 0 0 1 0 0)"/><text class="node-label" transform="scale(1 1)" style="cursor: default; fill: rgb(42, 63, 95); text-shadow: rgb(255, 255, 255) -1px 1px 1px, rgb(255, 255, 255) 1px 1px 1px, rgb(255, 255, 255) 1px -1px 1px, rgb(255, 255, 255) -1px -1px 1px; font-family: 'Open Sans', verdana, arial, sans-serif; font-size: 10px; fill-opacity: 1;"><textPath class="node-label-text-path" alignment-baseline="middle" xlink:href="#920e1c_0_node_11" startOffset="0%" text-anchor="start" style="fill: rgb(0, 0, 0);">D1</textPath></text></g></g><g class="sankey-node" transform="translate(390.000,0.000)" style="opacity: 1;"><rect class="node-rect" width="20" height="155.3499999999998" style="stroke-width: 0; stroke: rgb(128, 0, 128); stroke-opacity: 1; fill: rgb(87, 74, 226); fill-opacity: 1;"/><rect class="node-capture" x="-10" y="-10" width="40" height="175.3499999999998" style="fill-opacity: 0;"/><g class="node-entered" transform="translate(0,78.6749999999999)"><path class="node-label-guide" id="920e1c_0_node_12" d="M24,0L540,0" transform="matrix(1 0 0 1 0 0)"/><text class="node-label" transform="scale(1 1)" style="cursor: default; fill: rgb(42, 63, 95); text-shadow: rgb(255, 255, 255) -1px 1px 1px, rgb(255, 255, 255) 1px 1px 1px, rgb(255, 255, 255) 1px -1px 1px, rgb(255, 255, 255) -1px -1px 1px; font-family: 'Open Sans', verdana, arial, sans-serif; font-size: 10px; fill-opacity: 1;"><textPath class="node-label-text-path" alignment-baseline="middle" xlink:href="#920e1c_0_node_12" startOffset="0%" text-anchor="start" style="fill: rgb(0, 0, 0);">D2</textPath></text></g></g><g class="sankey-node" transform="translate(390.000,301.150)" style="opacity: 1;"><rect class="node-rect" width="20" height="18.849999999999795" style="stroke-width: 0; stroke: rgb(128, 0, 128); stroke-opacity: 1; fill: rgb(87, 74, 226); fill-opacity: 1;"/><rect class="node-capture" x="-10" y="-10" width="40" height="38.849999999999795" style="fill-opacity: 0;"/><g class="node-entered" transform="translate(0,10.424999999999898)"><path class="node-label-guide" id="920e1c_0_node_13" d="M24,0L540,0" transform="matrix(1 0 0 1 0 0)"/><text class="node-label" transform="scale(1 1)" style="cursor: default; fill: rgb(42, 63, 95); text-shadow: rgb(255, 255, 255) -1px 1px 1px, rgb(255, 255, 255) 1px 1px 1px, rgb(255, 255, 255) 1px -1px 1px, rgb(255, 255, 255) -1px -1px 1px; font-family: 'Open Sans', verdana, arial, sans-serif; font-size: 10px; fill-opacity: 1;"><textPath class="node-label-text-path" alignment-baseline="middle" xlink:href="#920e1c_0_node_13" startOffset="0%" text-anchor="start" style="fill: rgb(0, 0, 0);">D3</textPath></text></g></g><g class="sankey-node" transform="translate(390.000,224.600)" style="opacity: 1;"><rect class="node-rect" width="20" height="56.55000000000038" style="stroke-width: 0; stroke: rgb(128, 0, 128); stroke-opacity: 1; fill: rgb(87, 74, 226); fill-opacity: 1;"/><rect class="node-capture" x="-10" y="-10" width="40" height="76.55000000000038" style="fill-opacity: 0;"/><g class="node-entered" transform="translate(0,29.27500000000019)"><path class="node-label-guide" id="920e1c_0_node_14" d="M24,0L540,0" transform="matrix(1 0 0 1 0 0)"/><text class="node-label" transform="scale(1 1)" style="cursor: default; fill: rgb(42, 63, 95); text-shadow: rgb(255, 255, 255) -1px 1px 1px, rgb(255, 255, 255) 1px 1px 1px, rgb(255, 255, 255) 1px -1px 1px, rgb(255, 255, 255) -1px -1px 1px; font-family: 'Open Sans', verdana, arial, sans-serif; font-size: 10px; fill-opacity: 1;"><textPath class="node-label-text-path" alignment-baseline="middle" xlink:href="#920e1c_0_node_14" startOffset="0%" text-anchor="start" style="fill: rgb(0, 0, 0);">D4</textPath></text></g></g><g class="sankey-node" transform="translate(520.000,118.150)" style="opacity: 1;"><rect class="node-rect" width="20" height="44.2000000000001" style="stroke-width: 0; stroke: rgb(128, 0, 128); stroke-opacity: 1; fill: rgb(87, 74, 226); fill-opacity: 1;"/><rect class="node-capture" x="-10" y="-10" width="40" height="64.2000000000001" style="fill-opacity: 0;"/><g class="node-entered" transform="translate(0,23.10000000000005)"><path class="node-label-guide" id="920e1c_0_node_15" d="M-540,0L-4,0" transform="matrix(1 0 0 1 0 0)"/><text class="node-label" transform="scale(1 1)" style="cursor: default; fill: rgb(42, 63, 95); text-shadow: rgb(255, 255, 255) -1px 1px 1px, rgb(255, 255, 255) 1px 1px 1px, rgb(255, 255, 255) 1px -1px 1px, rgb(255, 255, 255) -1px -1px 1px; font-family: 'Open Sans', verdana, arial, sans-serif; font-size: 10px; fill-opacity: 1;"><textPath class="node-label-text-path" alignment-baseline="middle" xlink:href="#920e1c_0_node_15" startOffset="100%" text-anchor="end" style="fill: rgb(0, 0, 0);">E1</textPath></text></g></g><g class="sankey-node" transform="translate(520.000,182.350)" style="opacity: 1;"><rect class="node-rect" width="20" height="68.89999999999998" style="stroke-width: 0; stroke: rgb(128, 0, 128); stroke-opacity: 1; fill: rgb(87, 74, 226); fill-opacity: 1;"/><rect class="node-capture" x="-10" y="-10" width="40" height="88.89999999999998" style="fill-opacity: 0;"/><g class="node-entered" transform="translate(0,35.44999999999999)"><path class="node-label-guide" id="920e1c_0_node_16" d="M-540,0L-4,0" transform="matrix(1 0 0 1 0 0)"/><text class="node-label" transform="scale(1 1)" style="cursor: default; fill: rgb(42, 63, 95); text-shadow: rgb(255, 255, 255) -1px 1px 1px, rgb(255, 255, 255) 1px 1px 1px, rgb(255, 255, 255) 1px -1px 1px, rgb(255, 255, 255) -1px -1px 1px; font-family: 'Open Sans', verdana, arial, sans-serif; font-size: 10px; fill-opacity: 1;"><textPath class="node-label-text-path" alignment-baseline="middle" xlink:href="#920e1c_0_node_16" startOffset="100%" text-anchor="end" style="fill: rgb(0, 0, 0);">E2</textPath></text></g></g><g class="sankey-node" transform="translate(520.000,-0.000)" style="opacity: 1;"><rect class="node-rect" width="20" height="98.15000000000006" style="stroke-width: 0; stroke: rgb(128, 0, 128); stroke-opacity: 1; fill: rgb(87, 74, 226); fill-opacity: 1;"/><rect class="node-capture" x="-10" y="-10" width="40" height="118.15000000000006" style="fill-opacity: 0;"/><g class="node-entered" transform="translate(0,50.07500000000003)"><path class="node-label-guide" id="920e1c_0_node_17" d="M-540,0L-4,0" transform="matrix(1 0 0 1 0 0)"/><text class="node-label" transform="scale(1 1)" style="cursor: default; fill: rgb(42, 63, 95); text-shadow: rgb(255, 255, 255) -1px 1px 1px, rgb(255, 255, 255) 1px 1px 1px, rgb(255, 255, 255) 1px -1px 1px, rgb(255, 255, 255) -1px -1px 1px; font-family: 'Open Sans', verdana, arial, sans-serif; font-size: 10px; fill-opacity: 1;"><textPath class="node-label-text-path" alignment-baseline="middle" xlink:href="#920e1c_0_node_17" startOffset="100%" text-anchor="end" style="fill: rgb(0, 0, 0);">E3</textPath></text></g></g><g class="sankey-node" transform="translate(520.000,271.250)" style="opacity: 1;"><rect class="node-rect" width="20" height="48.75" style="stroke-width: 0; stroke: rgb(128, 0, 128); stroke-opacity: 1; fill: rgb(87, 74, 226); fill-opacity: 1;"/><rect class="node-capture" x="-10" y="-10" width="40" height="68.75" style="fill-opacity: 0;"/><g class="node-entered" transform="translate(0,25.375)"><path class="node-label-guide" id="920e1c_0_node_18" d="M-540,0L-4,0" transform="matrix(1 0 0 1 0 0)"/><text class="node-label" transform="scale(1 1)" style="cursor: default; fill: rgb(42, 63, 95); text-shadow: rgb(255, 255, 255) -1px 1px 1px, rgb(255, 255, 255) 1px 1px 1px, rgb(255, 255, 255) 1px -1px 1px, rgb(255, 255, 255) -1px -1px 1px; font-family: 'Open Sans', verdana, arial, sans-serif; font-size: 10px; fill-opacity: 1;"><textPath class="node-label-text-path" alignment-baseline="middle" xlink:href="#920e1c_0_node_18" startOffset="100%" text-anchor="end" style="fill: rgb(0, 0, 0);">E4</textPath></text></g></g></g></g><defs id="topdefs-0a8c02"><g class="clips"/></defs><g class="layer-above"><g class="imagelayer"/><g class="shapelayer"/></g><g class="infolayer"><g class="g-gtitle"><text class="gtitle" x="35" y="50" text-anchor="start" dy="0em" style="font-family: 'Open Sans', verdana, arial, sans-serif; font-size: 14px; fill: rgb(42, 63, 95); opacity: 1; font-weight: normal; white-space: pre;">Sankey Diagram 20</text></g><g class="first-render"/></g></svg>