<svg class="main-svg" xmlns="http://www.w3.org/2000/svg" xmlns:xlink="http://www.w3.org/1999/xlink" width="700" height="500" style="" viewBox="0 0 700 500"><rect x="0" y="0" width="700" height="500" style="fill: rgb(255, 255, 255); fill-opacity: 1;"/><defs id="defs-a426bd"><g class="clips"/><g class="gradients"/></defs><g class="bglayer"/><g class="layer-below"><g class="imagelayer"/><g class="shapelayer"/></g><g class="cartesianlayer"/><g class="polarlayer"/><g class="ternarylayer"/><g class="geolayer"/><g class="funnelarealayer"/><g class="pielayer"/><g class="treemaplayer"/><g class="sunburstlayer"/><g class="glimages"/><g class="sankey" transform="translate(80,100)matrix(1 0 0 1 0 0)" style="box-sizing: content-box; position: absolute; left: 0px; shape-rendering: geometricprecision; pointer-events: auto;"><g class="sankey-links" style="fill: none;"><path class="sankey-link" d="M20,244.85000000000002C270,244.85000000000002 270,268.0000000000001 520,268.0000000000001L520,320.0000000000001C270,320.0000000000001 270,296.85 20,296.85Z" style="stroke: rgb(68, 68, 68); stroke-opacity: 1; fill: rgb(0, 0, 0); fill-opacity: 0.2; stroke-width: 0; opacity: 1;"/><path class="sankey-link" d="M20,166.85C270,166.85 270,116.99999999999967 520,116.99999999999967L520,129.99999999999966C270,129.99999999999966 270,179.85 20,179.85Z" style="stroke: rgb(68, 68, 68); stroke-opacity: 1; fill: rgb(0, 0, 0); fill-opacity: 0.2; stroke-width: 0; opacity: 1;"/><path class="sankey-link" d="M20,179.85C270,179.85 270,182.99999999999966 520,182.99999999999966L520,247.99999999999966C270,247.99999999999966 270,244.85 20,244.85Z" style="stroke: rgb(68, 68, 68); stroke-opacity: 1; fill: rgb(0, 0, 0); fill-opacity: 0.2; stroke-width: 0; opacity: 1;"/><path class="sankey-link" d="M20,126.1499999999997C270,126.1499999999997 270,149.99999999999966 520,149.99999999999966L520,162.99999999999966C270,162.99999999999966 270,139.1499999999997 20,139.1499999999997Z" style="stroke: rgb(68, 68, 68); stroke-opacity: 1; fill: rgb(0, 0, 0); fill-opacity: 0.2; stroke-width: 0; opacity: 1;"/><path class="sankey-link" d="M20,9.149999999999679C270,9.149999999999679 270,-3.268496584496461e-13 520,-3.268496584496461e-13L520,116.99999999999967C270,116.99999999999967 270,126.14999999999968 20,126.14999999999968Z" style="stroke: rgb(68, 68, 68); stroke-opacity: 1; fill: rgb(0, 0, 0); fill-opacity: 0.2; stroke-width: 0; opacity: 1;"/></g><g class="sankey-node-set" style="cursor: move;"><g class="sankey-node" transform="translate(0.000,166.850)" style="opacity: 1;"><rect class="node-rect" width="20" height="129.99999999999997" style="stroke-width: 0; stroke: rgb(128, 0, 128); stroke-opacity: 1; fill: rgb(99, 110, 250); fill-opacity: 0.8;"/><rect class="node-capture" x="-10" y="-10" width="40" height="149.99999999999997" style="fill-opacity: 0;"/><g class="node-entered" transform="translate(0,65.99999999999999)"><path class="node-label-guide" id="63524d_0_node_0" d="M24,0L540,0" transform="matrix(1 0 0 1 0 0)"/><text class="node-label" transform="scale(1 1)" style="cursor: default; fill: rgb(42, 63, 95); text-shadow: rgb(255, 255, 255) -1px 1px 1px, rgb(255, 255, 255) 1px 1px 1px, rgb(255, 255, 255) 1px -1px 1px, rgb(255, 255, 255) -1px -1px 1px; font-family: 'Open Sans', verdana, arial, sans-serif; font-size: 10px; fill-opacity: 1;"><textPath class="node-label-text-path" alignment-baseline="middle" xlink:href="#63524d_0_node_0" startOffset="0%" text-anchor="start" style="fill: rgb(0, 0, 0);">A1</textPath></text></g></g><g class="sankey-node" transform="translate(0.000,9.150)" style="opacity: 1;"><rect class="node-rect" width="20" height="130.0000000000001" style="stroke-width: 0; stroke: rgb(128, 0, 128); stroke-opacity: 1; fill: rgb(239, 85, 59); fill-opacity: 0.8;"/><rect class="node-capture" x="-10" y="-10" width="40" height="150.0000000000001" style="fill-opacity: 0;"/><g class="node-entered" transform="translate(0,66.00000000000006)"><path class="node-label-guide" id="63524d_0_node_1" d="M24,0L540,0" transform="matrix(1 0 0 1 0 0)"/><text class="node-label" transform="scale(1 1)" style="cursor: default; fill: rgb(42, 63, 95); text-shadow: rgb(255, 255, 255) -1px 1px 1px, rgb(255, 255, 255) 1px 1px 1px, rgb(255, 255, 255) 1px -1px 1px, rgb(255, 255, 255) -1px -1px 1px; font-family: 'Open Sans', verdana, arial, sans-serif; font-size: 10px; fill-opacity: 1;"><textPath class="node-label-text-path" alignment-baseline="middle" xlink:href="#63524d_0_node_1" startOffset="0%" text-anchor="start" style="fill: rgb(0, 0, 0);">A2</textPath></text></g></g><g class="sankey-node" transform="translate(520.000,268.000)" style="opacity: 1;"><rect class="node-rect" width="20" height="51.999999999999886" style="stroke-width: 0; stroke: rgb(128, 0, 128); stroke-opacity: 1; fill: rgb(0, 204, 150); fill-opacity: 0.8;"/><rect class="node-capture" x="-10" y="-10" width="40" height="71.99999999999989" style="fill-opacity: 0;"/><g class="node-entered" transform="translate(0,26.999999999999943)"><path class="node-label-guide" id="63524d_0_node_2" d="M-540,0L-4,0" transform="matrix(1 0 0 1 0 0)"/><text class="node-label" transform="scale(1 1)" style="cursor: default; fill: rgb(42, 63, 95); text-shadow: rgb(255, 255, 255) -1px 1px 1px, rgb(255, 255, 255) 1px 1px 1px, rgb(255, 255, 255) 1px -1px 1px, rgb(255, 255, 255) -1px -1px 1px; font-family: 'Open Sans', verdana, arial, sans-serif; font-size: 10px; fill-opacity: 1;"><textPath class="node-label-text-path" alignment-baseline="middle" xlink:href="#63524d_0_node_2" startOffset="100%" text-anchor="end" style="fill: rgb(0, 0, 0);">B1</textPath></text></g></g><g class="sankey-node" transform="translate(520.000,150.000)" style="opacity: 1;"><rect class="node-rect" width="20" height="13" style="stroke-width: 0; stroke: rgb(128, 0, 128); stroke-opacity: 1; fill: rgb(171, 99, 250); fill-opacity: 0.8;"/><rect class="node-capture" x="-10" y="-10" width="40" height="33" style="fill-opacity: 0;"/><g class="node-entered" transform="translate(0,7.5)"><path class="node-label-guide" id="63524d_0_node_3" d="M-540,0L-4,0" transform="matrix(1 0 0 1 0 0)"/><text class="node-label" transform="scale(1 1)" style="cursor: default; fill: rgb(42, 63, 95); text-shadow: rgb(255, 255, 255) -1px 1px 1px, rgb(255, 255, 255) 1px 1px 1px, rgb(255, 255, 255) 1px -1px 1px, rgb(255, 255, 255) -1px -1px 1px; font-family: 'Open Sans', verdana, arial, sans-serif; font-size: 10px; fill-opacity: 1;"><textPath class="node-label-text-path" alignment-baseline="middle" xlink:href="#63524d_0_node_3" startOffset="100%" text-anchor="end" style="fill: rgb(0, 0, 0);">B2</textPath></text></g></g><g class="sankey-node" transform="translate(520.000,-0.000)" style="opacity: 1;"><rect class="node-rect" width="20" height="130" style="stroke-width: 0; stroke: rgb(128, 0, 128); stroke-opacity: 1; fill: rgb(255, 161, 90); fill-opacity: 0.8;"/><rect class="node-capture" x="-10" y="-10" width="40" height="150" style="fill-opacity: 0;"/><g class="node-entered" transform="translate(0,66)"><path class="node-label-guide" id="63524d_0_node_4" d="M-540,0L-4,0" transform="matrix(1 0 0 1 0 0)"/><text class="node-label" transform="scale(1 1)" style="cursor: default; fill: rgb(42, 63, 95); text-shadow: rgb(255, 255, 255) -1px 1px 1px, rgb(255, 255, 255) 1px 1px 1px, rgb(255, 255, 255) 1px -1px 1px, rgb(255, 255, 255) -1px -1px 1px; font-family: 'Open Sans', verdana, arial, sans-serif; font-size: 10px; fill-opacity: 1;"><textPath class="node-label-text-path" alignment-baseline="middle" xlink:href="#63524d_0_node_4" startOffset="100%" text-anchor="end" style="fill: rgb(0, 0, 0);">B3</textPath></text></g></g><g class="sankey-node" transform="translate(520.000,183.000)" style="opacity: 1;"><rect class="node-rect" width="20" height="65.00000000000045" style="stroke-width: 0; stroke: rgb(128, 0, 128); stroke-opacity: 1; fill: rgb(25, 211, 243); fill-opacity: 0.8;"/><rect class="node-capture" x="-10" y="-10" width="40" height="85.00000000000045" style="fill-opacity: 0;"/><g class="node-entered" transform="translate(0,33.50000000000023)"><path class="node-label-guide" id="63524d_0_node_5" d="M-540,0L-4,0" transform="matrix(1 0 0 1 0 0)"/><text class="node-label" transform="scale(1 1)" style="cursor: default; fill: rgb(42, 63, 95); text-shadow: rgb(255, 255, 255) -1px 1px 1px, rgb(255, 255, 255) 1px 1px 1px, rgb(255, 255, 255) 1px -1px 1px, rgb(255, 255, 255) -1px -1px 1px; font-family: 'Open Sans', verdana, arial, sans-serif; font-size: 10px; fill-opacity: 1;"><textPath class="node-label-text-path" alignment-baseline="middle" xlink:href="#63524d_0_node_5" startOffset="100%" text-anchor="end" style="fill: rgb(0, 0, 0);">B4</textPath></text></g></g></g></g><defs id="topdefs-a426bd"><g class="clips"/></defs><g class="layer-above"><g class="imagelayer"/><g class="shapelayer"/></g><g class="infolayer"><g class="g-gtitle"><text class="gtitle" x="35" y="50" text-anchor="start" dy="0em" style="font-family: 'Open Sans', verdana, arial, sans-serif; font-size: 14px; fill: rgb(42, 63, 95); opacity: 1; font-weight: normal; white-space: pre;">Sankey Diagram 22</text></g><g class="first-render"/></g></svg>