<svg class="main-svg" xmlns="http://www.w3.org/2000/svg" xmlns:xlink="http://www.w3.org/1999/xlink" width="700" height="500" style="" viewBox="0 0 700 500"><rect x="0" y="0" width="700" height="500" style="fill: rgb(255, 255, 255); fill-opacity: 1;"/><defs id="defs-b916fe"><g class="clips"/><g class="gradients"/></defs><g class="bglayer"/><g class="layer-below"><g class="imagelayer"/><g class="shapelayer"/></g><g class="cartesianlayer"/><g class="polarlayer"/><g class="ternarylayer"/><g class="geolayer"/><g class="funnelarealayer"/><g class="pielayer"/><g class="treemaplayer"/><g class="sunburstlayer"/><g class="glimages"/><g class="sankey" transform="translate(80,100)matrix(1 0 0 1 0 0)" style="box-sizing: content-box; position: absolute; left: 0px; shape-rendering: geometricprecision; pointer-events: auto;"><g class="sankey-links" style="fill: none;"><path class="sankey-link" d="M20,308.0000000000002C62,308.0000000000002 62,308.0000000000001 104,308.0000000000001L104,320.0000000000001C62,320.0000000000001 62,320.0000000000002 20,320.0000000000002Z" style="stroke: rgb(68, 68, 68); stroke-opacity: 1; fill: rgb(0, 0, 0); fill-opacity: 0.2; stroke-width: 0; opacity: 1;"/><path class="sankey-link" d="M20,260.0000000000002C62,260.0000000000002 62,228.00000000000028 104,228.00000000000028L104,276.0000000000003C62,276.0000000000003 62,308.0000000000002 20,308.0000000000002Z" style="stroke: rgb(68, 68, 68); stroke-opacity: 1; fill: rgb(0, 0, 0); fill-opacity: 0.2; stroke-width: 0; opacity: 1;"/><path class="sankey-link" d="M20,100.00000000000006C62,100.00000000000006 62,30.00000000000017 104,30.00000000000017L104,36.00000000000017C62,36.00000000000017 62,106.00000000000006 20,106.00000000000006Z" style="stroke: rgb(68, 68, 68); stroke-opacity: 1; fill: rgb(0, 0, 0); fill-opacity: 0.2; stroke-width: 0; opacity: 1;"/><path class="sankey-link" d="M20,118.00000000000006C62,118.00000000000006 62,106.00000000000028 104,106.00000000000028L104,124.00000000000028C62,124.00000000000028 62,136.00000000000006 20,136.00000000000006Z" style="stroke: rgb(68, 68, 68); stroke-opacity: 1; fill: rgb(0, 0, 0); fill-opacity: 0.2; stroke-width: 0; opacity: 1;"/><path class="sankey-link" d="M20,136.00000000000006C62,136.00000000000006 62,186.00000000000028 104,186.00000000000028L104,210.00000000000028C62,210.00000000000028 62,160.00000000000006 20,160.00000000000006Z" style="stroke: rgb(68, 68, 68); stroke-opacity: 1; fill: rgb(0, 0, 0); fill-opacity: 0.2; stroke-width: 0; opacity: 1;"/><path class="sankey-link" d="M20,106.00000000000006C62,106.00000000000006 62,62.000000000000256 104,62.000000000000256L104,74.00000000000026C62,74.00000000000026 62,118.00000000000006 20,118.00000000000006Z" style="stroke: rgb(68, 68, 68); stroke-opacity: 1; fill: rgb(0, 0, 0); fill-opacity: 0.2; stroke-width: 0; opacity: 1;"/><path class="sankey-link" d="M20,20.000000000000142C62,20.000000000000142 62,1.7053025658242404e-13 104,1.7053025658242404e-13L104,30.00000000000017C62,30.00000000000017 62,50.00000000000014 20,50.00000000000014Z" style="stroke: rgb(68, 68, 68); stroke-opacity: 1; fill: rgb(0, 0, 0); fill-opacity: 0.2; stroke-width: 0; opacity: 1;"/><path class="sankey-link" d="M20,50.00000000000014C62,50.00000000000014 62,94.00000000000028 104,94.00000000000028L104,106.00000000000028C62,106.00000000000028 62,62.00000000000014 20,62.00000000000014Z" style="stroke: rgb(68, 68, 68); stroke-opacity: 1; fill: rgb(0, 0, 0); fill-opacity: 0.2; stroke-width: 0; opacity: 1;"/><path class="sankey-link" d="M20,62.00000000000014C62,62.00000000000014 62,168.00000000000028 104,168.00000000000028L104,186.00000000000028C62,186.00000000000028 62,80.00000000000014 20,80.00000000000014Z" style="stroke: rgb(68, 68, 68); stroke-opacity: 1; fill: rgb(0, 0, 0); fill-opacity: 0.2; stroke-width: 0; opacity: 1;"/><path class="sankey-link" d="M20,180.0000000000001C62,180.0000000000001 62,36.00000000000017 104,36.00000000000017L104,42.00000000000017C62,42.00000000000017 62,186.0000000000001 20,186.0000000000001Z" style="stroke: rgb(68, 68, 68); stroke-opacity: 1; fill: rgb(0, 0, 0); fill-opacity: 0.2; stroke-width: 0; opacity: 1;"/><path class="sankey-link" d="M20,228.0000000000001C62,228.0000000000001 62,296.0000000000001 104,296.0000000000001L104,308.0000000000001C62,308.0000000000001 62,240.0000000000001 20,240.0000000000001Z" style="stroke: rgb(68, 68, 68); stroke-opacity: 1; fill: rgb(0, 0, 0); fill-opacity: 0.2; stroke-width: 0; opacity: 1;"/><path class="sankey-link" d="M20,186.0000000000001C62,186.0000000000001 62,124.00000000000028 104,124.00000000000028L104,148.00000000000028C62,148.00000000000028 62,210.0000000000001 20,210.0000000000001Z" style="stroke: rgb(68, 68, 68); stroke-opacity: 1; fill: rgb(0, 0, 0); fill-opacity: 0.2; stroke-width: 0; opacity: 1;"/><path class="sankey-link" d="M20,210.0000000000001C62,210.0000000000001 62,210.00000000000028 104,210.00000000000028L104,228.00000000000028C62,228.00000000000028 62,228.0000000000001 20,228.0000000000001Z" style="stroke: rgb(68, 68, 68); stroke-opacity: 1; fill: rgb(0, 0, 0); fill-opacity: 0.2; stroke-width: 0; opacity: 1;"/><path class="sankey-link" d="M124,36.00000000000017C166,36.00000000000017 166,155.99999999999952 208,155.99999999999952L208,161.99999999999952C166,161.99999999999952 166,42.00000000000017 124,42.00000000000017Z" style="stroke: rgb(68, 68, 68); stroke-opacity: 1; fill: rgb(0, 0, 0); fill-opacity: 0.2; stroke-width: 0; opacity: 1;"/><path class="sankey-link" d="M124,24.00000000000017C166,24.00000000000017 166,81.9999999999996 208,81.9999999999996L208,93.9999999999996C166,93.9999999999996 166,36.00000000000017 124,36.00000000000017Z" style="stroke: rgb(68, 68, 68); stroke-opacity: 1; fill: rgb(0, 0, 0); fill-opacity: 0.2; stroke-width: 0; opacity: 1;"/><path class="sankey-link" d="M124,1.7053025658242404e-13C166,1.7053025658242404e-13 166,19.99999999999948 208,19.99999999999948L208,43.99999999999948C166,43.99999999999948 166,24.00000000000017 124,24.00000000000017Z" style="stroke: rgb(68, 68, 68); stroke-opacity: 1; fill: rgb(0, 0, 0); fill-opacity: 0.2; stroke-width: 0; opacity: 1;"/><path class="sankey-link" d="M124,302.0000000000001C166,302.0000000000001 166,301.99999999999966 208,301.99999999999966L208,319.99999999999966C166,319.99999999999966 166,320.0000000000001 124,320.0000000000001Z" style="stroke: rgb(68, 68, 68); stroke-opacity: 1; fill: rgb(0, 0, 0); fill-opacity: 0.2; stroke-width: 0; opacity: 1;"/><path class="sankey-link" d="M124,296.0000000000001C166,296.0000000000001 166,129.9999999999996 208,129.9999999999996L208,135.9999999999996C166,135.9999999999996 166,302.0000000000001 124,302.0000000000001Z" style="stroke: rgb(68, 68, 68); stroke-opacity: 1; fill: rgb(0, 0, 0); fill-opacity: 0.2; stroke-width: 0; opacity: 1;"/><path class="sankey-link" d="M124,136.00000000000028C166,136.00000000000028 166,253.99999999999966 208,253.99999999999966L208,265.99999999999966C166,265.99999999999966 166,148.00000000000028 124,148.00000000000028Z" style="stroke: rgb(68, 68, 68); stroke-opacity: 1; fill: rgb(0, 0, 0); fill-opacity: 0.2; stroke-width: 0; opacity: 1;"/><path class="sankey-link" d="M124,100.00000000000028C166,100.00000000000028 166,93.9999999999996 208,93.9999999999996L208,129.9999999999996C166,129.9999999999996 166,136.00000000000028 124,136.00000000000028Z" style="stroke: rgb(68, 68, 68); stroke-opacity: 1; fill: rgb(0, 0, 0); fill-opacity: 0.2; stroke-width: 0; opacity: 1;"/><path class="sankey-link" d="M124,94.00000000000028C166,94.00000000000028 166,55.99999999999948 208,55.99999999999948L208,61.99999999999948C166,61.99999999999948 166,100.00000000000028 124,100.00000000000028Z" style="stroke: rgb(68, 68, 68); stroke-opacity: 1; fill: rgb(0, 0, 0); fill-opacity: 0.2; stroke-width: 0; opacity: 1;"/><path class="sankey-link" d="M124,168.00000000000028C166,168.00000000000028 166,161.99999999999952 208,161.99999999999952L208,233.99999999999952C166,233.99999999999952 166,240.00000000000028 124,240.00000000000028Z" style="stroke: rgb(68, 68, 68); stroke-opacity: 1; fill: rgb(0, 0, 0); fill-opacity: 0.2; stroke-width: 0; opacity: 1;"/><path class="sankey-link" d="M124,240.00000000000028C166,240.00000000000028 166,265.99999999999966 208,265.99999999999966L208,301.99999999999966C166,301.99999999999966 166,276.0000000000003 124,276.0000000000003Z" style="stroke: rgb(68, 68, 68); stroke-opacity: 1; fill: rgb(0, 0, 0); fill-opacity: 0.2; stroke-width: 0; opacity: 1;"/><path class="sankey-link" d="M124,62.000000000000256C166,62.000000000000256 166,43.99999999999948 208,43.99999999999948L208,55.99999999999948C166,55.99999999999948 166,74.00000000000026 124,74.00000000000026Z" style="stroke: rgb(68, 68, 68); stroke-opacity: 1; fill: rgb(0, 0, 0); fill-opacity: 0.2; stroke-width: 0; opacity: 1;"/><path class="sankey-link" d="M228,227.99999999999952C270,227.99999999999952 270,234.0000000000001 312,234.0000000000001L312,240.0000000000001C270,240.0000000000001 270,233.99999999999952 228,233.99999999999952Z" style="stroke: rgb(68, 68, 68); stroke-opacity: 1; fill: rgb(0, 0, 0); fill-opacity: 0.2; stroke-width: 0; opacity: 1;"/><path class="sankey-link" d="M228,179.99999999999952C270,179.99999999999952 270,159.9999999999999 312,159.9999999999999L312,207.9999999999999C270,207.9999999999999 270,227.99999999999952 228,227.99999999999952Z" style="stroke: rgb(68, 68, 68); stroke-opacity: 1; fill: rgb(0, 0, 0); fill-opacity: 0.2; stroke-width: 0; opacity: 1;"/><path class="sankey-link" d="M228,155.99999999999952C270,155.99999999999952 270,103.9999999999998 312,103.9999999999998L312,127.9999999999998C270,127.9999999999998 270,179.99999999999952 228,179.99999999999952Z" style="stroke: rgb(68, 68, 68); stroke-opacity: 1; fill: rgb(0, 0, 0); fill-opacity: 0.2; stroke-width: 0; opacity: 1;"/><path class="sankey-link" d="M228,259.99999999999966C270,259.99999999999966 270,240.0000000000001 312,240.0000000000001L312,282.0000000000001C270,282.0000000000001 270,301.99999999999966 228,301.99999999999966Z" style="stroke: rgb(68, 68, 68); stroke-opacity: 1; fill: rgb(0, 0, 0); fill-opacity: 0.2; stroke-width: 0; opacity: 1;"/><path class="sankey-link" d="M228,253.99999999999966C270,253.99999999999966 270,207.9999999999999 312,207.9999999999999L312,213.9999999999999C270,213.9999999999999 270,259.99999999999966 228,259.99999999999966Z" style="stroke: rgb(68, 68, 68); stroke-opacity: 1; fill: rgb(0, 0, 0); fill-opacity: 0.2; stroke-width: 0; opacity: 1;"/><path class="sankey-link" d="M228,301.99999999999966C270,301.99999999999966 270,302.0000000000001 312,302.0000000000001L312,320.0000000000001C270,320.0000000000001 270,319.99999999999966 228,319.99999999999966Z" style="stroke: rgb(68, 68, 68); stroke-opacity: 1; fill: rgb(0, 0, 0); fill-opacity: 0.2; stroke-width: 0; opacity: 1;"/><path class="sankey-link" d="M228,129.9999999999996C270,129.9999999999996 270,153.9999999999999 312,153.9999999999999L312,159.9999999999999C270,159.9999999999999 270,135.9999999999996 228,135.9999999999996Z" style="stroke: rgb(68, 68, 68); stroke-opacity: 1; fill: rgb(0, 0, 0); fill-opacity: 0.2; stroke-width: 0; opacity: 1;"/><path class="sankey-link" d="M228,87.9999999999996C270,87.9999999999996 270,61.9999999999998 312,61.9999999999998L312,103.9999999999998C270,103.9999999999998 270,129.9999999999996 228,129.9999999999996Z" style="stroke: rgb(68, 68, 68); stroke-opacity: 1; fill: rgb(0, 0, 0); fill-opacity: 0.2; stroke-width: 0; opacity: 1;"/><path class="sankey-link" d="M228,81.9999999999996C270,81.9999999999996 270,35.99999999999986 312,35.99999999999986L312,41.99999999999986C270,41.99999999999986 270,87.9999999999996 228,87.9999999999996Z" style="stroke: rgb(68, 68, 68); stroke-opacity: 1; fill: rgb(0, 0, 0); fill-opacity: 0.2; stroke-width: 0; opacity: 1;"/><path class="sankey-link" d="M228,55.99999999999948C270,55.99999999999948 270,147.9999999999999 312,147.9999999999999L312,153.9999999999999C270,153.9999999999999 270,61.99999999999948 228,61.99999999999948Z" style="stroke: rgb(68, 68, 68); stroke-opacity: 1; fill: rgb(0, 0, 0); fill-opacity: 0.2; stroke-width: 0; opacity: 1;"/><path class="sankey-link" d="M228,19.99999999999948C270,19.99999999999948 270,-1.4210854715202004e-13 312,-1.4210854715202004e-13L312,35.99999999999986C270,35.99999999999986 270,55.99999999999948 228,55.99999999999948Z" style="stroke: rgb(68, 68, 68); stroke-opacity: 1; fill: rgb(0, 0, 0); fill-opacity: 0.2; stroke-width: 0; opacity: 1;"/><path class="sankey-link" d="M332,234.0000000000001C374,234.0000000000001 374,254.00000000000006 416,254.00000000000006L416,302.00000000000006C374,302.00000000000006 374,282.0000000000001 332,282.0000000000001Z" style="stroke: rgb(68, 68, 68); stroke-opacity: 1; fill: rgb(0, 0, 0); fill-opacity: 0.2; stroke-width: 0; opacity: 1;"/><path class="sankey-link" d="M332,147.9999999999999C374,147.9999999999999 374,124.00000000000026 416,124.00000000000026L416,172.00000000000026C374,172.00000000000026 374,195.9999999999999 332,195.9999999999999Z" style="stroke: rgb(68, 68, 68); stroke-opacity: 1; fill: rgb(0, 0, 0); fill-opacity: 0.2; stroke-width: 0; opacity: 1;"/><path class="sankey-link" d="M332,195.9999999999999C374,195.9999999999999 374,216.00000000000023 416,216.00000000000023L416,228.00000000000023C374,228.00000000000023 374,207.9999999999999 332,207.9999999999999Z" style="stroke: rgb(68, 68, 68); stroke-opacity: 1; fill: rgb(0, 0, 0); fill-opacity: 0.2; stroke-width: 0; opacity: 1;"/><path class="sankey-link" d="M332,207.9999999999999C374,207.9999999999999 374,248.00000000000006 416,248.00000000000006L416,254.00000000000006C374,254.00000000000006 374,213.9999999999999 332,213.9999999999999Z" style="stroke: rgb(68, 68, 68); stroke-opacity: 1; fill: rgb(0, 0, 0); fill-opacity: 0.2; stroke-width: 0; opacity: 1;"/><path class="sankey-link" d="M332,302.0000000000001C374,302.0000000000001 374,302.00000000000006 416,302.00000000000006L416,320.00000000000006C374,320.00000000000006 374,320.0000000000001 332,320.0000000000001Z" style="stroke: rgb(68, 68, 68); stroke-opacity: 1; fill: rgb(0, 0, 0); fill-opacity: 0.2; stroke-width: 0; opacity: 1;"/><path class="sankey-link" d="M332,67.9999999999998C374,67.9999999999998 374,88.00000000000026 416,88.00000000000026L416,124.00000000000026C374,124.00000000000026 374,103.9999999999998 332,103.9999999999998Z" style="stroke: rgb(68, 68, 68); stroke-opacity: 1; fill: rgb(0, 0, 0); fill-opacity: 0.2; stroke-width: 0; opacity: 1;"/><path class="sankey-link" d="M332,61.9999999999998C374,61.9999999999998 374,62.00000000000014 416,62.00000000000014L416,68.00000000000014C374,68.00000000000014 374,67.9999999999998 332,67.9999999999998Z" style="stroke: rgb(68, 68, 68); stroke-opacity: 1; fill: rgb(0, 0, 0); fill-opacity: 0.2; stroke-width: 0; opacity: 1;"/><path class="sankey-link" d="M332,103.9999999999998C374,103.9999999999998 374,192.00000000000023 416,192.00000000000023L416,216.00000000000023C374,216.00000000000023 374,127.9999999999998 332,127.9999999999998Z" style="stroke: rgb(68, 68, 68); stroke-opacity: 1; fill: rgb(0, 0, 0); fill-opacity: 0.2; stroke-width: 0; opacity: 1;"/><path class="sankey-link" d="M332,-1.4210854715202004e-13C374,-1.4210854715202004e-13 374,1.1723955140041653e-13 416,1.1723955140041653e-13L416,6.000000000000117C374,6.000000000000117 374,5.999999999999858 332,5.999999999999858Z" style="stroke: rgb(68, 68, 68); stroke-opacity: 1; fill: rgb(0, 0, 0); fill-opacity: 0.2; stroke-width: 0; opacity: 1;"/><path class="sankey-link" d="M332,5.999999999999858C374,5.999999999999858 374,26.000000000000135 416,26.000000000000135L416,62.000000000000135C374,62.000000000000135 374,41.99999999999986 332,41.99999999999986Z" style="stroke: rgb(68, 68, 68); stroke-opacity: 1; fill: rgb(0, 0, 0); fill-opacity: 0.2; stroke-width: 0; opacity: 1;"/><path class="sankey-link" d="M436,88.00000000000026C478,88.00000000000026 478,38.00000000000014 520,38.00000000000014L520,98.00000000000014C478,98.00000000000014 478,148.00000000000026 436,148.00000000000026Z" style="stroke: rgb(68, 68, 68); stroke-opacity: 1; fill: rgb(0, 0, 0); fill-opacity: 0.2; stroke-width: 0; opacity: 1;"/><path class="sankey-link" d="M436,148.00000000000026C478,148.00000000000026 478,266 520,266L520,290C478,290 478,172.00000000000026 436,172.00000000000026Z" style="stroke: rgb(68, 68, 68); stroke-opacity: 1; fill: rgb(0, 0, 0); fill-opacity: 0.2; stroke-width: 0; opacity: 1;"/><path class="sankey-link" d="M436,1.1723955140041653e-13C478,1.1723955140041653e-13 478,1.3145040611561853e-13 520,1.3145040611561853e-13L520,6.0000000000001315C478,6.0000000000001315 478,6.000000000000117 436,6.000000000000117Z" style="stroke: rgb(68, 68, 68); stroke-opacity: 1; fill: rgb(0, 0, 0); fill-opacity: 0.2; stroke-width: 0; opacity: 1;"/><path class="sankey-link" d="M436,62.00000000000014C478,62.00000000000014 478,204.00000000000017 520,204.00000000000017L520,210.00000000000017C478,210.00000000000017 478,68.00000000000014 436,68.00000000000014Z" style="stroke: rgb(68, 68, 68); stroke-opacity: 1; fill: rgb(0, 0, 0); fill-opacity: 0.2; stroke-width: 0; opacity: 1;"/><path class="sankey-link" d="M436,38.000000000000135C478,38.000000000000135 478,148.0000000000001 520,148.0000000000001L520,172.0000000000001C478,172.0000000000001 478,62.000000000000135 436,62.000000000000135Z" style="stroke: rgb(68, 68, 68); stroke-opacity: 1; fill: rgb(0, 0, 0); fill-opacity: 0.2; stroke-width: 0; opacity: 1;"/><path class="sankey-link" d="M436,26.000000000000135C478,26.000000000000135 478,26.000000000000142 520,26.000000000000142L520,38.00000000000014C478,38.00000000000014 478,38.000000000000135 436,38.000000000000135Z" style="stroke: rgb(68, 68, 68); stroke-opacity: 1; fill: rgb(0, 0, 0); fill-opacity: 0.2; stroke-width: 0; opacity: 1;"/><path class="sankey-link" d="M436,216.00000000000023C478,216.00000000000023 478,210.00000000000017 520,210.00000000000017L520,222.00000000000017C478,222.00000000000017 478,228.00000000000023 436,228.00000000000023Z" style="stroke: rgb(68, 68, 68); stroke-opacity: 1; fill: rgb(0, 0, 0); fill-opacity: 0.2; stroke-width: 0; opacity: 1;"/><path class="sankey-link" d="M436,192.00000000000023C478,192.00000000000023 478,98.00000000000014 520,98.00000000000014L520,122.00000000000014C478,122.00000000000014 478,216.00000000000023 436,216.00000000000023Z" style="stroke: rgb(68, 68, 68); stroke-opacity: 1; fill: rgb(0, 0, 0); fill-opacity: 0.2; stroke-width: 0; opacity: 1;"/><path class="sankey-link" d="M436,266.00000000000006C478,266.00000000000006 478,222.00000000000017 520,222.00000000000017L520,246.00000000000017C478,246.00000000000017 478,290.00000000000006 436,290.00000000000006Z" style="stroke: rgb(68, 68, 68); stroke-opacity: 1; fill: rgb(0, 0, 0); fill-opacity: 0.2; stroke-width: 0; opacity: 1;"/><path class="sankey-link" d="M436,254.00000000000006C478,254.00000000000006 478,172.0000000000001 520,172.0000000000001L520,184.0000000000001C478,184.0000000000001 478,266.00000000000006 436,266.00000000000006Z" style="stroke: rgb(68, 68, 68); stroke-opacity: 1; fill: rgb(0, 0, 0); fill-opacity: 0.2; stroke-width: 0; opacity: 1;"/><path class="sankey-link" d="M436,248.00000000000006C478,248.00000000000006 478,122.00000000000014 520,122.00000000000014L520,128.00000000000014C478,128.00000000000014 478,254.00000000000006 436,254.00000000000006Z" style="stroke: rgb(68, 68, 68); stroke-opacity: 1; fill: rgb(0, 0, 0); fill-opacity: 0.2; stroke-width: 0; opacity: 1;"/><path class="sankey-link" d="M436,290.00000000000006C478,290.00000000000006 478,290 520,290L520,320C478,320 478,320.00000000000006 436,320.00000000000006Z" style="stroke: rgb(68, 68, 68); stroke-opacity: 1; fill: rgb(0, 0, 0); fill-opacity: 0.2; stroke-width: 0; opacity: 1;"/></g><g class="sankey-node-set" style="cursor: move;"><g class="sankey-node" transform="translate(0.000,260.000)" style="opacity: 1;"><rect class="node-rect" width="20" height="59.99999999999977" style="stroke-width: 0; stroke: rgb(128, 0, 128); stroke-opacity: 1; fill: rgb(99, 110, 250); fill-opacity: 0.8;"/><rect class="node-capture" x="-10" y="-10" width="40" height="79.99999999999977" style="fill-opacity: 0;"/><g class="node-entered" transform="translate(0,30.999999999999886)"><path class="node-label-guide" id="07b996_0_node_0" d="M24,0L540,0" transform="matrix(1 0 0 1 0 0)"/><text class="node-label" transform="scale(1 1)" style="cursor: default; fill: rgb(42, 63, 95); text-shadow: rgb(255, 255, 255) -1px 1px 1px, rgb(255, 255, 255) 1px 1px 1px, rgb(255, 255, 255) 1px -1px 1px, rgb(255, 255, 255) -1px -1px 1px; font-family: 'Open Sans', verdana, arial, sans-serif; font-size: 10px; fill-opacity: 1;"><textPath class="node-label-text-path" alignment-baseline="middle" xlink:href="#07b996_0_node_0" startOffset="0%" text-anchor="start" style="fill: rgb(0, 0, 0);">A1</textPath></text></g></g><g class="sankey-node" transform="translate(0.000,100.000)" style="opacity: 1;"><rect class="node-rect" width="20" height="60.00000000000006" style="stroke-width: 0; stroke: rgb(128, 0, 128); stroke-opacity: 1; fill: rgb(239, 85, 59); fill-opacity: 0.8;"/><rect class="node-capture" x="-10" y="-10" width="40" height="80.00000000000006" style="fill-opacity: 0;"/><g class="node-entered" transform="translate(0,31.00000000000003)"><path class="node-label-guide" id="07b996_0_node_1" d="M24,0L540,0" transform="matrix(1 0 0 1 0 0)"/><text class="node-label" transform="scale(1 1)" style="cursor: default; fill: rgb(42, 63, 95); text-shadow: rgb(255, 255, 255) -1px 1px 1px, rgb(255, 255, 255) 1px 1px 1px, rgb(255, 255, 255) 1px -1px 1px, rgb(255, 255, 255) -1px -1px 1px; font-family: 'Open Sans', verdana, arial, sans-serif; font-size: 10px; fill-opacity: 1;"><textPath class="node-label-text-path" alignment-baseline="middle" xlink:href="#07b996_0_node_1" startOffset="0%" text-anchor="start" style="fill: rgb(0, 0, 0);">A2</textPath></text></g></g><g class="sankey-node" transform="translate(0.000,20.000)" style="opacity: 1;"><rect class="node-rect" width="20" height="59.999999999999915" style="stroke-width: 0; stroke: rgb(128, 0, 128); stroke-opacity: 1; fill: rgb(0, 204, 150); fill-opacity: 0.8;"/><rect class="node-capture" x="-10" y="-10" width="40" height="79.99999999999991" style="fill-opacity: 0;"/><g class="node-entered" transform="translate(0,30.999999999999957)"><path class="node-label-guide" id="07b996_0_node_2" d="M24,0L540,0" transform="matrix(1 0 0 1 0 0)"/><text class="node-label" transform="scale(1 1)" style="cursor: default; fill: rgb(42, 63, 95); text-shadow: rgb(255, 255, 255) -1px 1px 1px, rgb(255, 255, 255) 1px 1px 1px, rgb(255, 255, 255) 1px -1px 1px, rgb(255, 255, 255) -1px -1px 1px; font-family: 'Open Sans', verdana, arial, sans-serif; font-size: 10px; fill-opacity: 1;"><textPath class="node-label-text-path" alignment-baseline="middle" xlink:href="#07b996_0_node_2" startOffset="0%" text-anchor="start" style="fill: rgb(0, 0, 0);">A3</textPath></text></g></g><g class="sankey-node" transform="translate(0.000,180.000)" style="opacity: 1;"><rect class="node-rect" width="20" height="60.000000000000114" style="stroke-width: 0; stroke: rgb(128, 0, 128); stroke-opacity: 1; fill: rgb(171, 99, 250); fill-opacity: 0.8;"/><rect class="node-capture" x="-10" y="-10" width="40" height="80.00000000000011" style="fill-opacity: 0;"/><g class="node-entered" transform="translate(0,31.000000000000057)"><path class="node-label-guide" id="07b996_0_node_3" d="M24,0L540,0" transform="matrix(1 0 0 1 0 0)"/><text class="node-label" transform="scale(1 1)" style="cursor: default; fill: rgb(42, 63, 95); text-shadow: rgb(255, 255, 255) -1px 1px 1px, rgb(255, 255, 255) 1px 1px 1px, rgb(255, 255, 255) 1px -1px 1px, rgb(255, 255, 255) -1px -1px 1px; font-family: 'Open Sans', verdana, arial, sans-serif; font-size: 10px; fill-opacity: 1;"><textPath class="node-label-text-path" alignment-baseline="middle" xlink:href="#07b996_0_node_3" startOffset="0%" text-anchor="start" style="fill: rgb(0, 0, 0);">A4</textPath></text></g></g><g class="sankey-node" transform="translate(104.000,0.000)" style="opacity: 1;"><rect class="node-rect" width="20" height="42.000000000000085" style="stroke-width: 0; stroke: rgb(128, 0, 128); stroke-opacity: 1; fill: rgb(255, 161, 90); fill-opacity: 0.8;"/><rect class="node-capture" x="-10" y="-10" width="40" height="62.000000000000085" style="fill-opacity: 0;"/><g class="node-entered" transform="translate(0,22.000000000000043)"><path class="node-label-guide" id="07b996_0_node_4" d="M24,0L540,0" transform="matrix(1 0 0 1 0 0)"/><text class="node-label" transform="scale(1 1)" style="cursor: default; fill: rgb(42, 63, 95); text-shadow: rgb(255, 255, 255) -1px 1px 1px, rgb(255, 255, 255) 1px 1px 1px, rgb(255, 255, 255) 1px -1px 1px, rgb(255, 255, 255) -1px -1px 1px; font-family: 'Open Sans', verdana, arial, sans-serif; font-size: 10px; fill-opacity: 1;"><textPath class="node-label-text-path" alignment-baseline="middle" xlink:href="#07b996_0_node_4" startOffset="0%" text-anchor="start" style="fill: rgb(0, 0, 0);">B1</textPath></text></g></g><g class="sankey-node" transform="translate(104.000,296.000)" style="opacity: 1;"><rect class="node-rect" width="20" height="23.999999999999886" style="stroke-width: 0; stroke: rgb(128, 0, 128); stroke-opacity: 1; fill: rgb(25, 211, 243); fill-opacity: 0.8;"/><rect class="node-capture" x="-10" y="-10" width="40" height="43.999999999999886" style="fill-opacity: 0;"/><g class="node-entered" transform="translate(0,12.999999999999943)"><path class="node-label-guide" id="07b996_0_node_5" d="M24,0L540,0" transform="matrix(1 0 0 1 0 0)"/><text class="node-label" transform="scale(1 1)" style="cursor: default; fill: rgb(42, 63, 95); text-shadow: rgb(255, 255, 255) -1px 1px 1px, rgb(255, 255, 255) 1px 1px 1px, rgb(255, 255, 255) 1px -1px 1px, rgb(255, 255, 255) -1px -1px 1px; font-family: 'Open Sans', verdana, arial, sans-serif; font-size: 10px; fill-opacity: 1;"><textPath class="node-label-text-path" alignment-baseline="middle" xlink:href="#07b996_0_node_5" startOffset="0%" text-anchor="start" style="fill: rgb(0, 0, 0);">B2</textPath></text></g></g><g class="sankey-node" transform="translate(104.000,94.000)" style="opacity: 1;"><rect class="node-rect" width="20" height="54" style="stroke-width: 0; stroke: rgb(128, 0, 128); stroke-opacity: 1; fill: rgb(255, 102, 146); fill-opacity: 0.8;"/><rect class="node-capture" x="-10" y="-10" width="40" height="74" style="fill-opacity: 0;"/><g class="node-entered" transform="translate(0,28)"><path class="node-label-guide" id="07b996_0_node_6" d="M24,0L540,0" transform="matrix(1 0 0 1 0 0)"/><text class="node-label" transform="scale(1 1)" style="cursor: default; fill: rgb(42, 63, 95); text-shadow: rgb(255, 255, 255) -1px 1px 1px, rgb(255, 255, 255) 1px 1px 1px, rgb(255, 255, 255) 1px -1px 1px, rgb(255, 255, 255) -1px -1px 1px; font-family: 'Open Sans', verdana, arial, sans-serif; font-size: 10px; fill-opacity: 1;"><textPath class="node-label-text-path" alignment-baseline="middle" xlink:href="#07b996_0_node_6" startOffset="0%" text-anchor="start" style="fill: rgb(0, 0, 0);">B3</textPath></text></g></g><g class="sankey-node" transform="translate(104.000,168.000)" style="opacity: 1;"><rect class="node-rect" width="20" height="107.99999999999983" style="stroke-width: 0; stroke: rgb(128, 0, 128); stroke-opacity: 1; fill: rgb(182, 232, 128); fill-opacity: 0.8;"/><rect class="node-capture" x="-10" y="-10" width="40" height="127.99999999999983" style="fill-opacity: 0;"/><g class="node-entered" transform="translate(0,54.999999999999915)"><path class="node-label-guide" id="07b996_0_node_7" d="M24,0L540,0" transform="matrix(1 0 0 1 0 0)"/><text class="node-label" transform="scale(1 1)" style="cursor: default; fill: rgb(42, 63, 95); text-shadow: rgb(255, 255, 255) -1px 1px 1px, rgb(255, 255, 255) 1px 1px 1px, rgb(255, 255, 255) 1px -1px 1px, rgb(255, 255, 255) -1px -1px 1px; font-family: 'Open Sans', verdana, arial, sans-serif; font-size: 10px; fill-opacity: 1;"><textPath class="node-label-text-path" alignment-baseline="middle" xlink:href="#07b996_0_node_7" startOffset="0%" text-anchor="start" style="fill: rgb(0, 0, 0);">B4</textPath></text></g></g><g class="sankey-node" transform="translate(104.000,62.000)" style="opacity: 1;"><rect class="node-rect" width="20" height="12.000000000000028" style="stroke-width: 0; stroke: rgb(128, 0, 128); stroke-opacity: 1; fill: rgb(255, 151, 255); fill-opacity: 0.8;"/><rect class="node-capture" x="-10" y="-10" width="40" height="32.00000000000003" style="fill-opacity: 0;"/><g class="node-entered" transform="translate(0,7.000000000000014)"><path class="node-label-guide" id="07b996_0_node_8" d="M24,0L540,0" transform="matrix(1 0 0 1 0 0)"/><text class="node-label" transform="scale(1 1)" style="cursor: default; fill: rgb(42, 63, 95); text-shadow: rgb(255, 255, 255) -1px 1px 1px, rgb(255, 255, 255) 1px 1px 1px, rgb(255, 255, 255) 1px -1px 1px, rgb(255, 255, 255) -1px -1px 1px; font-family: 'Open Sans', verdana, arial, sans-serif; font-size: 10px; fill-opacity: 1;"><textPath class="node-label-text-path" alignment-baseline="middle" xlink:href="#07b996_0_node_8" startOffset="0%" text-anchor="start" style="fill: rgb(0, 0, 0);">B5</textPath></text></g></g><g class="sankey-node" transform="translate(208.000,156.000)" style="opacity: 1;"><rect class="node-rect" width="20" height="78.00000000000014" style="stroke-width: 0; stroke: rgb(128, 0, 128); stroke-opacity: 1; fill: rgb(254, 203, 82); fill-opacity: 0.8;"/><rect class="node-capture" x="-10" y="-10" width="40" height="98.00000000000014" style="fill-opacity: 0;"/><g class="node-entered" transform="translate(0,40.00000000000007)"><path class="node-label-guide" id="07b996_0_node_9" d="M24,0L540,0" transform="matrix(1 0 0 1 0 0)"/><text class="node-label" transform="scale(1 1)" style="cursor: default; fill: rgb(42, 63, 95); text-shadow: rgb(255, 255, 255) -1px 1px 1px, rgb(255, 255, 255) 1px 1px 1px, rgb(255, 255, 255) 1px -1px 1px, rgb(255, 255, 255) -1px -1px 1px; font-family: 'Open Sans', verdana, arial, sans-serif; font-size: 10px; fill-opacity: 1;"><textPath class="node-label-text-path" alignment-baseline="middle" xlink:href="#07b996_0_node_9" startOffset="0%" text-anchor="start" style="fill: rgb(0, 0, 0);">C1</textPath></text></g></g><g class="sankey-node" transform="translate(208.000,254.000)" style="opacity: 1;"><rect class="node-rect" width="20" height="66.00000000000034" style="stroke-width: 0; stroke: rgb(128, 0, 128); stroke-opacity: 1; fill: rgb(99, 110, 250); fill-opacity: 0.8;"/><rect class="node-capture" x="-10" y="-10" width="40" height="86.00000000000034" style="fill-opacity: 0;"/><g class="node-entered" transform="translate(0,34.00000000000017)"><path class="node-label-guide" id="07b996_0_node_10" d="M24,0L540,0" transform="matrix(1 0 0 1 0 0)"/><text class="node-label" transform="scale(1 1)" style="cursor: default; fill: rgb(42, 63, 95); text-shadow: rgb(255, 255, 255) -1px 1px 1px, rgb(255, 255, 255) 1px 1px 1px, rgb(255, 255, 255) 1px -1px 1px, rgb(255, 255, 255) -1px -1px 1px; font-family: 'Open Sans', verdana, arial, sans-serif; font-size: 10px; fill-opacity: 1;"><textPath class="node-label-text-path" alignment-baseline="middle" xlink:href="#07b996_0_node_10" startOffset="0%" text-anchor="start" style="fill: rgb(0, 0, 0);">C2</textPath></text></g></g><g class="sankey-node" transform="translate(208.000,82.000)" style="opacity: 1;"><rect class="node-rect" width="20" height="53.999999999999915" style="stroke-width: 0; stroke: rgb(128, 0, 128); stroke-opacity: 1; fill: rgb(239, 85, 59); fill-opacity: 0.8;"/><rect class="node-capture" x="-10" y="-10" width="40" height="73.99999999999991" style="fill-opacity: 0;"/><g class="node-entered" transform="translate(0,27.999999999999957)"><path class="node-label-guide" id="07b996_0_node_11" d="M24,0L540,0" transform="matrix(1 0 0 1 0 0)"/><text class="node-label" transform="scale(1 1)" style="cursor: default; fill: rgb(42, 63, 95); text-shadow: rgb(255, 255, 255) -1px 1px 1px, rgb(255, 255, 255) 1px 1px 1px, rgb(255, 255, 255) 1px -1px 1px, rgb(255, 255, 255) -1px -1px 1px; font-family: 'Open Sans', verdana, arial, sans-serif; font-size: 10px; fill-opacity: 1;"><textPath class="node-label-text-path" alignment-baseline="middle" xlink:href="#07b996_0_node_11" startOffset="0%" text-anchor="start" style="fill: rgb(0, 0, 0);">C3</textPath></text></g></g><g class="sankey-node" transform="translate(208.000,20.000)" style="opacity: 1;"><rect class="node-rect" width="20" height="42.00000000000012" style="stroke-width: 0; stroke: rgb(128, 0, 128); stroke-opacity: 1; fill: rgb(0, 204, 150); fill-opacity: 0.8;"/><rect class="node-capture" x="-10" y="-10" width="40" height="62.00000000000012" style="fill-opacity: 0;"/><g class="node-entered" transform="translate(0,22.00000000000006)"><path class="node-label-guide" id="07b996_0_node_12" d="M24,0L540,0" transform="matrix(1 0 0 1 0 0)"/><text class="node-label" transform="scale(1 1)" style="cursor: default; fill: rgb(42, 63, 95); text-shadow: rgb(255, 255, 255) -1px 1px 1px, rgb(255, 255, 255) 1px 1px 1px, rgb(255, 255, 255) 1px -1px 1px, rgb(255, 255, 255) -1px -1px 1px; font-family: 'Open Sans', verdana, arial, sans-serif; font-size: 10px; fill-opacity: 1;"><textPath class="node-label-text-path" alignment-baseline="middle" xlink:href="#07b996_0_node_12" startOffset="0%" text-anchor="start" style="fill: rgb(0, 0, 0);">C4</textPath></text></g></g><g class="sankey-node" transform="translate(312.000,234.000)" style="opacity: 1;"><rect class="node-rect" width="20" height="48" style="stroke-width: 0; stroke: rgb(128, 0, 128); stroke-opacity: 1; fill: rgb(171, 99, 250); fill-opacity: 0.8;"/><rect class="node-capture" x="-10" y="-10" width="40" height="68" style="fill-opacity: 0;"/><g class="node-entered" transform="translate(0,25)"><path class="node-label-guide" id="07b996_0_node_13" d="M24,0L540,0" transform="matrix(1 0 0 1 0 0)"/><text class="node-label" transform="scale(1 1)" style="cursor: default; fill: rgb(42, 63, 95); text-shadow: rgb(255, 255, 255) -1px 1px 1px, rgb(255, 255, 255) 1px 1px 1px, rgb(255, 255, 255) 1px -1px 1px, rgb(255, 255, 255) -1px -1px 1px; font-family: 'Open Sans', verdana, arial, sans-serif; font-size: 10px; fill-opacity: 1;"><textPath class="node-label-text-path" alignment-baseline="middle" xlink:href="#07b996_0_node_13" startOffset="0%" text-anchor="start" style="fill: rgb(0, 0, 0);">D1</textPath></text></g></g><g class="sankey-node" transform="translate(312.000,148.000)" style="opacity: 1;"><rect class="node-rect" width="20" height="66.00000000000026" style="stroke-width: 0; stroke: rgb(128, 0, 128); stroke-opacity: 1; fill: rgb(255, 161, 90); fill-opacity: 0.8;"/><rect class="node-capture" x="-10" y="-10" width="40" height="86.00000000000026" style="fill-opacity: 0;"/><g class="node-entered" transform="translate(0,34.00000000000013)"><path class="node-label-guide" id="07b996_0_node_14" d="M24,0L540,0" transform="matrix(1 0 0 1 0 0)"/><text class="node-label" transform="scale(1 1)" style="cursor: default; fill: rgb(42, 63, 95); text-shadow: rgb(255, 255, 255) -1px 1px 1px, rgb(255, 255, 255) 1px 1px 1px, rgb(255, 255, 255) 1px -1px 1px, rgb(255, 255, 255) -1px -1px 1px; font-family: 'Open Sans', verdana, arial, sans-serif; font-size: 10px; fill-opacity: 1;"><textPath class="node-label-text-path" alignment-baseline="middle" xlink:href="#07b996_0_node_14" startOffset="0%" text-anchor="start" style="fill: rgb(0, 0, 0);">D2</textPath></text></g></g><g class="sankey-node" transform="translate(312.000,302.000)" style="opacity: 1;"><rect class="node-rect" width="20" height="17.999999999999886" style="stroke-width: 0; stroke: rgb(128, 0, 128); stroke-opacity: 1; fill: rgb(25, 211, 243); fill-opacity: 0.8;"/><rect class="node-capture" x="-10" y="-10" width="40" height="37.999999999999886" style="fill-opacity: 0;"/><g class="node-entered" transform="translate(0,9.999999999999943)"><path class="node-label-guide" id="07b996_0_node_15" d="M24,0L540,0" transform="matrix(1 0 0 1 0 0)"/><text class="node-label" transform="scale(1 1)" style="cursor: default; fill: rgb(42, 63, 95); text-shadow: rgb(255, 255, 255) -1px 1px 1px, rgb(255, 255, 255) 1px 1px 1px, rgb(255, 255, 255) 1px -1px 1px, rgb(255, 255, 255) -1px -1px 1px; font-family: 'Open Sans', verdana, arial, sans-serif; font-size: 10px; fill-opacity: 1;"><textPath class="node-label-text-path" alignment-baseline="middle" xlink:href="#07b996_0_node_15" startOffset="0%" text-anchor="start" style="fill: rgb(0, 0, 0);">D3</textPath></text></g></g><g class="sankey-node" transform="translate(312.000,62.000)" style="opacity: 1;"><rect class="node-rect" width="20" height="66.00000000000009" style="stroke-width: 0; stroke: rgb(128, 0, 128); stroke-opacity: 1; fill: rgb(255, 102, 146); fill-opacity: 0.8;"/><rect class="node-capture" x="-10" y="-10" width="40" height="86.00000000000009" style="fill-opacity: 0;"/><g class="node-entered" transform="translate(0,34.00000000000004)"><path class="node-label-guide" id="07b996_0_node_16" d="M24,0L540,0" transform="matrix(1 0 0 1 0 0)"/><text class="node-label" transform="scale(1 1)" style="cursor: default; fill: rgb(42, 63, 95); text-shadow: rgb(255, 255, 255) -1px 1px 1px, rgb(255, 255, 255) 1px 1px 1px, rgb(255, 255, 255) 1px -1px 1px, rgb(255, 255, 255) -1px -1px 1px; font-family: 'Open Sans', verdana, arial, sans-serif; font-size: 10px; fill-opacity: 1;"><textPath class="node-label-text-path" alignment-baseline="middle" xlink:href="#07b996_0_node_16" startOffset="0%" text-anchor="start" style="fill: rgb(0, 0, 0);">D4</textPath></text></g></g><g class="sankey-node" transform="translate(312.000,-0.000)" style="opacity: 1;"><rect class="node-rect" width="20" height="41.99999999999994" style="stroke-width: 0; stroke: rgb(128, 0, 128); stroke-opacity: 1; fill: rgb(182, 232, 128); fill-opacity: 0.8;"/><rect class="node-capture" x="-10" y="-10" width="40" height="61.99999999999994" style="fill-opacity: 0;"/><g class="node-entered" transform="translate(0,21.99999999999997)"><path class="node-label-guide" id="07b996_0_node_17" d="M24,0L540,0" transform="matrix(1 0 0 1 0 0)"/><text class="node-label" transform="scale(1 1)" style="cursor: default; fill: rgb(42, 63, 95); text-shadow: rgb(255, 255, 255) -1px 1px 1px, rgb(255, 255, 255) 1px 1px 1px, rgb(255, 255, 255) 1px -1px 1px, rgb(255, 255, 255) -1px -1px 1px; font-family: 'Open Sans', verdana, arial, sans-serif; font-size: 10px; fill-opacity: 1;"><textPath class="node-label-text-path" alignment-baseline="middle" xlink:href="#07b996_0_node_17" startOffset="0%" text-anchor="start" style="fill: rgb(0, 0, 0);">D5</textPath></text></g></g><g class="sankey-node" transform="translate(416.000,88.000)" style="opacity: 1;"><rect class="node-rect" width="20" height="83.99999999999997" style="stroke-width: 0; stroke: rgb(128, 0, 128); stroke-opacity: 1; fill: rgb(255, 151, 255); fill-opacity: 0.8;"/><rect class="node-capture" x="-10" y="-10" width="40" height="103.99999999999997" style="fill-opacity: 0;"/><g class="node-entered" transform="translate(0,42.999999999999986)"><path class="node-label-guide" id="07b996_0_node_18" d="M24,0L540,0" transform="matrix(1 0 0 1 0 0)"/><text class="node-label" transform="scale(1 1)" style="cursor: default; fill: rgb(42, 63, 95); text-shadow: rgb(255, 255, 255) -1px 1px 1px, rgb(255, 255, 255) 1px 1px 1px, rgb(255, 255, 255) 1px -1px 1px, rgb(255, 255, 255) -1px -1px 1px; font-family: 'Open Sans', verdana, arial, sans-serif; font-size: 10px; fill-opacity: 1;"><textPath class="node-label-text-path" alignment-baseline="middle" xlink:href="#07b996_0_node_18" startOffset="0%" text-anchor="start" style="fill: rgb(0, 0, 0);">E1</textPath></text></g></g><g class="sankey-node" transform="translate(416.000,0.000)" style="opacity: 1;"><rect class="node-rect" width="20" height="6.000000000000018" style="stroke-width: 0; stroke: rgb(128, 0, 128); stroke-opacity: 1; fill: rgb(254, 203, 82); fill-opacity: 0.8;"/><rect class="node-capture" x="-10" y="-10" width="40" height="26.000000000000018" style="fill-opacity: 0;"/><g class="node-entered" transform="translate(0,4.000000000000009)"><path class="node-label-guide" id="07b996_0_node_19" d="M24,0L540,0" transform="matrix(1 0 0 1 0 0)"/><text class="node-label" transform="scale(1 1)" style="cursor: default; fill: rgb(42, 63, 95); text-shadow: rgb(255, 255, 255) -1px 1px 1px, rgb(255, 255, 255) 1px 1px 1px, rgb(255, 255, 255) 1px -1px 1px, rgb(255, 255, 255) -1px -1px 1px; font-family: 'Open Sans', verdana, arial, sans-serif; font-size: 10px; fill-opacity: 1;"><textPath class="node-label-text-path" alignment-baseline="middle" xlink:href="#07b996_0_node_19" startOffset="0%" text-anchor="start" style="fill: rgb(0, 0, 0);">E2</textPath></text></g></g><g class="sankey-node" transform="translate(416.000,26.000)" style="opacity: 1;"><rect class="node-rect" width="20" height="42.00000000000012" style="stroke-width: 0; stroke: rgb(128, 0, 128); stroke-opacity: 1; fill: rgb(99, 110, 250); fill-opacity: 0.8;"/><rect class="node-capture" x="-10" y="-10" width="40" height="62.00000000000012" style="fill-opacity: 0;"/><g class="node-entered" transform="translate(0,22.00000000000006)"><path class="node-label-guide" id="07b996_0_node_20" d="M24,0L540,0" transform="matrix(1 0 0 1 0 0)"/><text class="node-label" transform="scale(1 1)" style="cursor: default; fill: rgb(42, 63, 95); text-shadow: rgb(255, 255, 255) -1px 1px 1px, rgb(255, 255, 255) 1px 1px 1px, rgb(255, 255, 255) 1px -1px 1px, rgb(255, 255, 255) -1px -1px 1px; font-family: 'Open Sans', verdana, arial, sans-serif; font-size: 10px; fill-opacity: 1;"><textPath class="node-label-text-path" alignment-baseline="middle" xlink:href="#07b996_0_node_20" startOffset="0%" text-anchor="start" style="fill: rgb(0, 0, 0);">E3</textPath></text></g></g><g class="sankey-node" transform="translate(416.000,192.000)" style="opacity: 1;"><rect class="node-rect" width="20" height="35.99999999999983" style="stroke-width: 0; stroke: rgb(128, 0, 128); stroke-opacity: 1; fill: rgb(239, 85, 59); fill-opacity: 0.8;"/><rect class="node-capture" x="-10" y="-10" width="40" height="55.99999999999983" style="fill-opacity: 0;"/><g class="node-entered" transform="translate(0,18.999999999999915)"><path class="node-label-guide" id="07b996_0_node_21" d="M24,0L540,0" transform="matrix(1 0 0 1 0 0)"/><text class="node-label" transform="scale(1 1)" style="cursor: default; fill: rgb(42, 63, 95); text-shadow: rgb(255, 255, 255) -1px 1px 1px, rgb(255, 255, 255) 1px 1px 1px, rgb(255, 255, 255) 1px -1px 1px, rgb(255, 255, 255) -1px -1px 1px; font-family: 'Open Sans', verdana, arial, sans-serif; font-size: 10px; fill-opacity: 1;"><textPath class="node-label-text-path" alignment-baseline="middle" xlink:href="#07b996_0_node_21" startOffset="0%" text-anchor="start" style="fill: rgb(0, 0, 0);">E4</textPath></text></g></g><g class="sankey-node" transform="translate(416.000,248.000)" style="opacity: 1;"><rect class="node-rect" width="20" height="71.99999999999994" style="stroke-width: 0; stroke: rgb(128, 0, 128); stroke-opacity: 1; fill: rgb(0, 204, 150); fill-opacity: 0.8;"/><rect class="node-capture" x="-10" y="-10" width="40" height="91.99999999999994" style="fill-opacity: 0;"/><g class="node-entered" transform="translate(0,36.99999999999997)"><path class="node-label-guide" id="07b996_0_node_22" d="M24,0L540,0" transform="matrix(1 0 0 1 0 0)"/><text class="node-label" transform="scale(1 1)" style="cursor: default; fill: rgb(42, 63, 95); text-shadow: rgb(255, 255, 255) -1px 1px 1px, rgb(255, 255, 255) 1px 1px 1px, rgb(255, 255, 255) 1px -1px 1px, rgb(255, 255, 255) -1px -1px 1px; font-family: 'Open Sans', verdana, arial, sans-serif; font-size: 10px; fill-opacity: 1;"><textPath class="node-label-text-path" alignment-baseline="middle" xlink:href="#07b996_0_node_22" startOffset="0%" text-anchor="start" style="fill: rgb(0, 0, 0);">E5</textPath></text></g></g><g class="sankey-node" transform="translate(520.000,204.000)" style="opacity: 1;"><rect class="node-rect" width="20" height="41.99999999999983" style="stroke-width: 0; stroke: rgb(128, 0, 128); stroke-opacity: 1; fill: rgb(171, 99, 250); fill-opacity: 0.8;"/><rect class="node-capture" x="-10" y="-10" width="40" height="61.99999999999983" style="fill-opacity: 0;"/><g class="node-entered" transform="translate(0,21.999999999999915)"><path class="node-label-guide" id="07b996_0_node_23" d="M-540,0L-4,0" transform="matrix(1 0 0 1 0 0)"/><text class="node-label" transform="scale(1 1)" style="cursor: default; fill: rgb(42, 63, 95); text-shadow: rgb(255, 255, 255) -1px 1px 1px, rgb(255, 255, 255) 1px 1px 1px, rgb(255, 255, 255) 1px -1px 1px, rgb(255, 255, 255) -1px -1px 1px; font-family: 'Open Sans', verdana, arial, sans-serif; font-size: 10px; fill-opacity: 1;"><textPath class="node-label-text-path" alignment-baseline="middle" xlink:href="#07b996_0_node_23" startOffset="100%" text-anchor="end" style="fill: rgb(0, 0, 0);">F1</textPath></text></g></g><g class="sankey-node" transform="translate(520.000,148.000)" style="opacity: 1;"><rect class="node-rect" width="20" height="36.00000000000006" style="stroke-width: 0; stroke: rgb(128, 0, 128); stroke-opacity: 1; fill: rgb(255, 161, 90); fill-opacity: 0.8;"/><rect class="node-capture" x="-10" y="-10" width="40" height="56.00000000000006" style="fill-opacity: 0;"/><g class="node-entered" transform="translate(0,19.00000000000003)"><path class="node-label-guide" id="07b996_0_node_24" d="M-540,0L-4,0" transform="matrix(1 0 0 1 0 0)"/><text class="node-label" transform="scale(1 1)" style="cursor: default; fill: rgb(42, 63, 95); text-shadow: rgb(255, 255, 255) -1px 1px 1px, rgb(255, 255, 255) 1px 1px 1px, rgb(255, 255, 255) 1px -1px 1px, rgb(255, 255, 255) -1px -1px 1px; font-family: 'Open Sans', verdana, arial, sans-serif; font-size: 10px; fill-opacity: 1;"><textPath class="node-label-text-path" alignment-baseline="middle" xlink:href="#07b996_0_node_24" startOffset="100%" text-anchor="end" style="fill: rgb(0, 0, 0);">F2</textPath></text></g></g><g class="sankey-node" transform="translate(520.000,26.000)" style="opacity: 1;"><rect class="node-rect" width="20" height="101.99999999999997" style="stroke-width: 0; stroke: rgb(128, 0, 128); stroke-opacity: 1; fill: rgb(25, 211, 243); fill-opacity: 0.8;"/><rect class="node-capture" x="-10" y="-10" width="40" height="121.99999999999997" style="fill-opacity: 0;"/><g class="node-entered" transform="translate(0,51.999999999999986)"><path class="node-label-guide" id="07b996_0_node_25" d="M-540,0L-4,0" transform="matrix(1 0 0 1 0 0)"/><text class="node-label" transform="scale(1 1)" style="cursor: default; fill: rgb(42, 63, 95); text-shadow: rgb(255, 255, 255) -1px 1px 1px, rgb(255, 255, 255) 1px 1px 1px, rgb(255, 255, 255) 1px -1px 1px, rgb(255, 255, 255) -1px -1px 1px; font-family: 'Open Sans', verdana, arial, sans-serif; font-size: 10px; fill-opacity: 1;"><textPath class="node-label-text-path" alignment-baseline="middle" xlink:href="#07b996_0_node_25" startOffset="100%" text-anchor="end" style="fill: rgb(0, 0, 0);">F3</textPath></text></g></g><g class="sankey-node" transform="translate(520.000,0.000)" style="opacity: 1;"><rect class="node-rect" width="20" height="6.000000000000011" style="stroke-width: 0; stroke: rgb(128, 0, 128); stroke-opacity: 1; fill: rgb(255, 102, 146); fill-opacity: 0.8;"/><rect class="node-capture" x="-10" y="-10" width="40" height="26.00000000000001" style="fill-opacity: 0;"/><g class="node-entered" transform="translate(0,4.000000000000005)"><path class="node-label-guide" id="07b996_0_node_26" d="M-540,0L-4,0" transform="matrix(1 0 0 1 0 0)"/><text class="node-label" transform="scale(1 1)" style="cursor: default; fill: rgb(42, 63, 95); text-shadow: rgb(255, 255, 255) -1px 1px 1px, rgb(255, 255, 255) 1px 1px 1px, rgb(255, 255, 255) 1px -1px 1px, rgb(255, 255, 255) -1px -1px 1px; font-family: 'Open Sans', verdana, arial, sans-serif; font-size: 10px; fill-opacity: 1;"><textPath class="node-label-text-path" alignment-baseline="middle" xlink:href="#07b996_0_node_26" startOffset="100%" text-anchor="end" style="fill: rgb(0, 0, 0);">F4</textPath></text></g></g><g class="sankey-node" transform="translate(520.000,266.000)" style="opacity: 1;"><rect class="node-rect" width="20" height="54" style="stroke-width: 0; stroke: rgb(128, 0, 128); stroke-opacity: 1; fill: rgb(182, 232, 128); fill-opacity: 0.8;"/><rect class="node-capture" x="-10" y="-10" width="40" height="74" style="fill-opacity: 0;"/><g class="node-entered" transform="translate(0,28)"><path class="node-label-guide" id="07b996_0_node_27" d="M-540,0L-4,0" transform="matrix(1 0 0 1 0 0)"/><text class="node-label" transform="scale(1 1)" style="cursor: default; fill: rgb(42, 63, 95); text-shadow: rgb(255, 255, 255) -1px 1px 1px, rgb(255, 255, 255) 1px 1px 1px, rgb(255, 255, 255) 1px -1px 1px, rgb(255, 255, 255) -1px -1px 1px; font-family: 'Open Sans', verdana, arial, sans-serif; font-size: 10px; fill-opacity: 1;"><textPath class="node-label-text-path" alignment-baseline="middle" xlink:href="#07b996_0_node_27" startOffset="100%" text-anchor="end" style="fill: rgb(0, 0, 0);">F5</textPath></text></g></g></g></g><defs id="topdefs-b916fe"><g class="clips"/></defs><g class="layer-above"><g class="imagelayer"/><g class="shapelayer"/></g><g class="infolayer"><g class="g-gtitle"><text class="gtitle" x="35" y="50" text-anchor="start" dy="0em" style="font-family: 'Open Sans', verdana, arial, sans-serif; font-size: 14px; fill: rgb(42, 63, 95); opacity: 1; font-weight: normal; white-space: pre;">Sankey Diagram 15</text></g><g class="first-render"/></g></svg>