<svg class="main-svg" xmlns="http://www.w3.org/2000/svg" xmlns:xlink="http://www.w3.org/1999/xlink" width="700" height="500" viewBox="0 0 700 500" style=""><rect x="0" y="0" width="700" height="500" style="fill: rgb(255, 255, 255); fill-opacity: 1;"/><defs id="defs-5edbbe"><g class="clips"/><g class="gradients"/></defs><g class="bglayer"/><g class="layer-below"><g class="imagelayer"/><g class="shapelayer"/></g><g class="cartesianlayer"/><g class="polarlayer"/><g class="ternarylayer"/><g class="geolayer"/><g class="funnelarealayer"/><g class="pielayer"/><g class="treemaplayer"/><g class="sunburstlayer"/><g class="glimages"/><g class="sankey" transform="translate(80,100)matrix(1 0 0 1 0 0)" style="box-sizing: content-box; position: absolute; left: 0px; shape-rendering: geometricprecision; pointer-events: auto;"><g class="sankey-links" style="fill: none;"><path class="sankey-link" d="M20,169.9999999999999C140,169.9999999999999 140,126.0000000000002 260,126.0000000000002L260,234.0000000000002C140,234.0000000000002 140,277.9999999999999 20,277.9999999999999Z" style="stroke: rgb(68, 68, 68); stroke-opacity: 1; fill: rgb(0, 0, 0); fill-opacity: 0.2; stroke-width: 0; opacity: 1;"/><path class="sankey-link" d="M20,277.9999999999999C140,277.9999999999999 140,278.00000000000017 260,278.00000000000017L260,320.00000000000017C140,320.00000000000017 140,319.9999999999999 20,319.9999999999999Z" style="stroke: rgb(68, 68, 68); stroke-opacity: 1; fill: rgb(0, 0, 0); fill-opacity: 0.2; stroke-width: 0; opacity: 1;"/><path class="sankey-link" d="M20,2.842170943040401e-14C140,2.842170943040401e-14 140,2.0605739337042905e-13 260,2.0605739337042905e-13L260,126.0000000000002C140,126.0000000000002 140,126.00000000000003 20,126.00000000000003Z" style="stroke: rgb(68, 68, 68); stroke-opacity: 1; fill: rgb(0, 0, 0); fill-opacity: 0.2; stroke-width: 0; opacity: 1;"/><path class="sankey-link" d="M20,126.00000000000003C140,126.00000000000003 140,254.00000000000017 260,254.00000000000017L260,278.00000000000017C140,278.00000000000017 140,150.00000000000003 20,150.00000000000003Z" style="stroke: rgb(68, 68, 68); stroke-opacity: 1; fill: rgb(0, 0, 0); fill-opacity: 0.2; stroke-width: 0; opacity: 1;"/><path class="sankey-link" d="M280,1.9895196601282805e-13C400,1.9895196601282805e-13 400,8.526512829121202e-14 520,8.526512829121202e-14L520,234.00000000000009C400,234.00000000000009 400,234.0000000000002 280,234.0000000000002Z" style="stroke: rgb(68, 68, 68); stroke-opacity: 1; fill: rgb(0, 0, 0); fill-opacity: 0.2; stroke-width: 0; opacity: 1;"/><path class="sankey-link" d="M280,254.00000000000017C400,254.00000000000017 400,254.00000000000006 520,254.00000000000006L520,320.00000000000006C400,320.00000000000006 400,320.00000000000017 280,320.00000000000017Z" style="stroke: rgb(68, 68, 68); stroke-opacity: 1; fill: rgb(0, 0, 0); fill-opacity: 0.2; stroke-width: 0; opacity: 1;"/></g><g class="sankey-node-set" style="cursor: move;"><g class="sankey-node" transform="translate(0.000,170.000)" style="opacity: 1;"><rect class="node-rect" width="20" height="150.0000000000001" style="stroke-width: 0; stroke: rgb(128, 0, 128); stroke-opacity: 1; fill: rgb(87, 74, 226); fill-opacity: 1;"/><rect class="node-capture" x="-10" y="-10" width="40" height="170.0000000000001" style="fill-opacity: 0;"/><g class="node-entered" transform="translate(0,76.00000000000006)"><path class="node-label-guide" id="9f641b_0_node_0" d="M24,0L540,0" transform="matrix(1 0 0 1 0 0)"/><text class="node-label" transform="scale(1 1)" style="cursor: default; fill: rgb(42, 63, 95); text-shadow: rgb(255, 255, 255) -1px 1px 1px, rgb(255, 255, 255) 1px 1px 1px, rgb(255, 255, 255) 1px -1px 1px, rgb(255, 255, 255) -1px -1px 1px; font-family: 'Open Sans', verdana, arial, sans-serif; font-size: 10px; fill-opacity: 1;"><textPath class="node-label-text-path" alignment-baseline="middle" xlink:href="#9f641b_0_node_0" startOffset="0%" text-anchor="start" style="fill: rgb(0, 0, 0);">A1</textPath></text></g></g><g class="sankey-node" transform="translate(0.000,0.000)" style="opacity: 1;"><rect class="node-rect" width="20" height="149.99999999999986" style="stroke-width: 0; stroke: rgb(128, 0, 128); stroke-opacity: 1; fill: rgb(87, 74, 226); fill-opacity: 1;"/><rect class="node-capture" x="-10" y="-10" width="40" height="169.99999999999986" style="fill-opacity: 0;"/><g class="node-entered" transform="translate(0,75.99999999999993)"><path class="node-label-guide" id="9f641b_0_node_1" d="M24,0L540,0" transform="matrix(1 0 0 1 0 0)"/><text class="node-label" transform="scale(1 1)" style="cursor: default; fill: rgb(42, 63, 95); text-shadow: rgb(255, 255, 255) -1px 1px 1px, rgb(255, 255, 255) 1px 1px 1px, rgb(255, 255, 255) 1px -1px 1px, rgb(255, 255, 255) -1px -1px 1px; font-family: 'Open Sans', verdana, arial, sans-serif; font-size: 10px; fill-opacity: 1;"><textPath class="node-label-text-path" alignment-baseline="middle" xlink:href="#9f641b_0_node_1" startOffset="0%" text-anchor="start" style="fill: rgb(0, 0, 0);">A2</textPath></text></g></g><g class="sankey-node" transform="translate(260.000,0.000)" style="opacity: 1;"><rect class="node-rect" width="20" height="233.99999999999997" style="stroke-width: 0; stroke: rgb(128, 0, 128); stroke-opacity: 1; fill: rgb(87, 74, 226); fill-opacity: 1;"/><rect class="node-capture" x="-10" y="-10" width="40" height="253.99999999999997" style="fill-opacity: 0;"/><g class="node-entered" transform="translate(0,117.99999999999999)"><path class="node-label-guide" id="9f641b_0_node_2" d="M24,0L540,0" transform="matrix(1 0 0 1 0 0)"/><text class="node-label" transform="scale(1 1)" style="cursor: default; fill: rgb(42, 63, 95); text-shadow: rgb(255, 255, 255) -1px 1px 1px, rgb(255, 255, 255) 1px 1px 1px, rgb(255, 255, 255) 1px -1px 1px, rgb(255, 255, 255) -1px -1px 1px; font-family: 'Open Sans', verdana, arial, sans-serif; font-size: 10px; fill-opacity: 1;"><textPath class="node-label-text-path" alignment-baseline="middle" xlink:href="#9f641b_0_node_2" startOffset="0%" text-anchor="start" style="fill: rgb(0, 0, 0);">B1</textPath></text></g></g><g class="sankey-node" transform="translate(260.000,254.000)" style="opacity: 1;"><rect class="node-rect" width="20" height="65.99999999999983" style="stroke-width: 0; stroke: rgb(128, 0, 128); stroke-opacity: 1; fill: rgb(87, 74, 226); fill-opacity: 1;"/><rect class="node-capture" x="-10" y="-10" width="40" height="85.99999999999983" style="fill-opacity: 0;"/><g class="node-entered" transform="translate(0,33.999999999999915)"><path class="node-label-guide" id="9f641b_0_node_3" d="M24,0L540,0" transform="matrix(1 0 0 1 0 0)"/><text class="node-label" transform="scale(1 1)" style="cursor: default; fill: rgb(42, 63, 95); text-shadow: rgb(255, 255, 255) -1px 1px 1px, rgb(255, 255, 255) 1px 1px 1px, rgb(255, 255, 255) 1px -1px 1px, rgb(255, 255, 255) -1px -1px 1px; font-family: 'Open Sans', verdana, arial, sans-serif; font-size: 10px; fill-opacity: 1;"><textPath class="node-label-text-path" alignment-baseline="middle" xlink:href="#9f641b_0_node_3" startOffset="0%" text-anchor="start" style="fill: rgb(0, 0, 0);">B2</textPath></text></g></g><g class="sankey-node" transform="translate(520.000,254.000)" style="opacity: 1;"><rect class="node-rect" width="20" height="65.99999999999994" style="stroke-width: 0; stroke: rgb(128, 0, 128); stroke-opacity: 1; fill: rgb(87, 74, 226); fill-opacity: 1;"/><rect class="node-capture" x="-10" y="-10" width="40" height="85.99999999999994" style="fill-opacity: 0;"/><g class="node-entered" transform="translate(0,33.99999999999997)"><path class="node-label-guide" id="9f641b_0_node_4" d="M-540,0L-4,0" transform="matrix(1 0 0 1 0 0)"/><text class="node-label" transform="scale(1 1)" style="cursor: default; fill: rgb(42, 63, 95); text-shadow: rgb(255, 255, 255) -1px 1px 1px, rgb(255, 255, 255) 1px 1px 1px, rgb(255, 255, 255) 1px -1px 1px, rgb(255, 255, 255) -1px -1px 1px; font-family: 'Open Sans', verdana, arial, sans-serif; font-size: 10px; fill-opacity: 1;"><textPath class="node-label-text-path" alignment-baseline="middle" xlink:href="#9f641b_0_node_4" startOffset="100%" text-anchor="end" style="fill: rgb(0, 0, 0);">C1</textPath></text></g></g><g class="sankey-node" transform="translate(520.000,0.000)" style="opacity: 1;"><rect class="node-rect" width="20" height="233.99999999999994" style="stroke-width: 0; stroke: rgb(128, 0, 128); stroke-opacity: 1; fill: rgb(87, 74, 226); fill-opacity: 1;"/><rect class="node-capture" x="-10" y="-10" width="40" height="253.99999999999994" style="fill-opacity: 0;"/><g class="node-entered" transform="translate(0,117.99999999999997)"><path class="node-label-guide" id="9f641b_0_node_5" d="M-540,0L-4,0" transform="matrix(1 0 0 1 0 0)"/><text class="node-label" transform="scale(1 1)" style="cursor: default; fill: rgb(42, 63, 95); text-shadow: rgb(255, 255, 255) -1px 1px 1px, rgb(255, 255, 255) 1px 1px 1px, rgb(255, 255, 255) 1px -1px 1px, rgb(255, 255, 255) -1px -1px 1px; font-family: 'Open Sans', verdana, arial, sans-serif; font-size: 10px; fill-opacity: 1;"><textPath class="node-label-text-path" alignment-baseline="middle" xlink:href="#9f641b_0_node_5" startOffset="100%" text-anchor="end" style="fill: rgb(0, 0, 0);">C2</textPath></text></g></g></g></g><defs id="topdefs-5edbbe"><g class="clips"/></defs><g class="layer-above"><g class="imagelayer"/><g class="shapelayer"/></g><g class="infolayer"><g class="g-gtitle"><text class="gtitle" x="35" y="50" text-anchor="start" dy="0em" style="font-family: 'Open Sans', verdana, arial, sans-serif; font-size: 14px; fill: rgb(42, 63, 95); opacity: 1; font-weight: normal; white-space: pre;">Sankey Diagram 34</text></g><g class="first-render"/></g></svg>