<svg class="main-svg" xmlns="http://www.w3.org/2000/svg" xmlns:xlink="http://www.w3.org/1999/xlink" width="700" height="500" style="" viewBox="0 0 700 500"><rect x="0" y="0" width="700" height="500" style="fill: rgb(255, 255, 255); fill-opacity: 1;"/><defs id="defs-dee764"><g class="clips"/><g class="gradients"/></defs><g class="bglayer"/><g class="layer-below"><g class="imagelayer"/><g class="shapelayer"/></g><g class="cartesianlayer"/><g class="polarlayer"/><g class="ternarylayer"/><g class="geolayer"/><g class="funnelarealayer"/><g class="pielayer"/><g class="treemaplayer"/><g class="sunburstlayer"/><g class="glimages"/><g class="sankey" transform="translate(80,100)matrix(1 0 0 1 0 0)" style="box-sizing: content-box; position: absolute; left: 0px; shape-rendering: geometricprecision; pointer-events: auto;"><g class="sankey-links" style="fill: none;"><path class="sankey-link" d="M20,104.00000000000014C96.66666666666667,104.00000000000014 96.66666666666667,167.99999999999952 173.33333333333334,167.99999999999952L173.33333333333334,183.99999999999952C96.66666666666667,183.99999999999952 96.66666666666667,120.00000000000014 20,120.00000000000014Z" style="stroke: rgb(68, 68, 68); stroke-opacity: 1; fill: rgb(0, 0, 0); fill-opacity: 0.2; stroke-width: 0; opacity: 1;"/><path class="sankey-link" d="M20,40.00000000000014C96.66666666666667,40.00000000000014 96.66666666666667,-6.394884621840902e-13 173.33333333333334,-6.394884621840902e-13L173.33333333333334,15.99999999999936C96.66666666666667,15.99999999999936 96.66666666666667,56.00000000000014 20,56.00000000000014Z" style="stroke: rgb(68, 68, 68); stroke-opacity: 1; fill: rgb(0, 0, 0); fill-opacity: 0.2; stroke-width: 0; opacity: 1;"/><path class="sankey-link" d="M20,56.00000000000014C96.66666666666667,56.00000000000014 96.66666666666667,35.9999999999994 173.33333333333334,35.9999999999994L173.33333333333334,83.9999999999994C96.66666666666667,83.9999999999994 96.66666666666667,104.00000000000014 20,104.00000000000014Z" style="stroke: rgb(68, 68, 68); stroke-opacity: 1; fill: rgb(0, 0, 0); fill-opacity: 0.2; stroke-width: 0; opacity: 1;"/><path class="sankey-link" d="M20,312.0000000000002C96.66666666666667,312.0000000000002 96.66666666666667,312 173.33333333333334,312L173.33333333333334,320C96.66666666666667,320 96.66666666666667,320.0000000000002 20,320.0000000000002Z" style="stroke: rgb(68, 68, 68); stroke-opacity: 1; fill: rgb(0, 0, 0); fill-opacity: 0.2; stroke-width: 0; opacity: 1;"/><path class="sankey-link" d="M20,280.0000000000002C96.66666666666667,280.0000000000002 96.66666666666667,239.99999999999952 173.33333333333334,239.99999999999952L173.33333333333334,255.99999999999952C96.66666666666667,255.99999999999952 96.66666666666667,296.0000000000002 20,296.0000000000002Z" style="stroke: rgb(68, 68, 68); stroke-opacity: 1; fill: rgb(0, 0, 0); fill-opacity: 0.2; stroke-width: 0; opacity: 1;"/><path class="sankey-link" d="M20,296.0000000000002C96.66666666666667,296.0000000000002 96.66666666666667,276 173.33333333333334,276L173.33333333333334,292C96.66666666666667,292 96.66666666666667,312.0000000000002 20,312.0000000000002Z" style="stroke: rgb(68, 68, 68); stroke-opacity: 1; fill: rgb(0, 0, 0); fill-opacity: 0.2; stroke-width: 0; opacity: 1;"/><path class="sankey-link" d="M20,240.00000000000023C96.66666666666667,240.00000000000023 96.66666666666667,107.9999999999994 173.33333333333334,107.9999999999994L173.33333333333334,147.9999999999994C96.66666666666667,147.9999999999994 96.66666666666667,280.0000000000002 20,280.0000000000002Z" style="stroke: rgb(68, 68, 68); stroke-opacity: 1; fill: rgb(0, 0, 0); fill-opacity: 0.2; stroke-width: 0; opacity: 1;"/><path class="sankey-link" d="M20,164.00000000000009C96.66666666666667,164.00000000000009 96.66666666666667,183.99999999999952 173.33333333333334,183.99999999999952L173.33333333333334,239.99999999999952C96.66666666666667,239.99999999999952 96.66666666666667,220.00000000000009 20,220.00000000000009Z" style="stroke: rgb(68, 68, 68); stroke-opacity: 1; fill: rgb(0, 0, 0); fill-opacity: 0.2; stroke-width: 0; opacity: 1;"/><path class="sankey-link" d="M20,140.00000000000009C96.66666666666667,140.00000000000009 96.66666666666667,83.9999999999994 173.33333333333334,83.9999999999994L173.33333333333334,107.9999999999994C96.66666666666667,107.9999999999994 96.66666666666667,164.00000000000009 20,164.00000000000009Z" style="stroke: rgb(68, 68, 68); stroke-opacity: 1; fill: rgb(0, 0, 0); fill-opacity: 0.2; stroke-width: 0; opacity: 1;"/><path class="sankey-link" d="M193.33333333333334,312C270,312 270,311.99999999999994 346.6666666666667,311.99999999999994L346.6666666666667,319.99999999999994C270,319.99999999999994 270,320 193.33333333333334,320Z" style="stroke: rgb(68, 68, 68); stroke-opacity: 1; fill: rgb(0, 0, 0); fill-opacity: 0.2; stroke-width: 0; opacity: 1;"/><path class="sankey-link" d="M193.33333333333334,215.99999999999952C270,215.99999999999952 270,263.99999999999994 346.6666666666667,263.99999999999994L346.6666666666667,303.99999999999994C270,303.99999999999994 270,255.99999999999952 193.33333333333334,255.99999999999952Z" style="stroke: rgb(68, 68, 68); stroke-opacity: 1; fill: rgb(0, 0, 0); fill-opacity: 0.2; stroke-width: 0; opacity: 1;"/><path class="sankey-link" d="M193.33333333333334,167.99999999999952C270,167.99999999999952 270,55.999999999999915 346.6666666666667,55.999999999999915L346.6666666666667,71.99999999999991C270,71.99999999999991 270,183.99999999999952 193.33333333333334,183.99999999999952Z" style="stroke: rgb(68, 68, 68); stroke-opacity: 1; fill: rgb(0, 0, 0); fill-opacity: 0.2; stroke-width: 0; opacity: 1;"/><path class="sankey-link" d="M193.33333333333334,183.99999999999952C270,183.99999999999952 270,195.99999999999991 346.6666666666667,195.99999999999991L346.6666666666667,227.99999999999991C270,227.99999999999991 270,215.99999999999952 193.33333333333334,215.99999999999952Z" style="stroke: rgb(68, 68, 68); stroke-opacity: 1; fill: rgb(0, 0, 0); fill-opacity: 0.2; stroke-width: 0; opacity: 1;"/><path class="sankey-link" d="M193.33333333333334,-6.394884621840902e-13C270,-6.394884621840902e-13 270,39.999999999999915 346.6666666666667,39.999999999999915L346.6666666666667,55.999999999999915C270,55.999999999999915 270,15.99999999999936 193.33333333333334,15.99999999999936Z" style="stroke: rgb(68, 68, 68); stroke-opacity: 1; fill: rgb(0, 0, 0); fill-opacity: 0.2; stroke-width: 0; opacity: 1;"/><path class="sankey-link" d="M193.33333333333334,284C270,284 270,303.99999999999994 346.6666666666667,303.99999999999994L346.6666666666667,311.99999999999994C270,311.99999999999994 270,292 193.33333333333334,292Z" style="stroke: rgb(68, 68, 68); stroke-opacity: 1; fill: rgb(0, 0, 0); fill-opacity: 0.2; stroke-width: 0; opacity: 1;"/><path class="sankey-link" d="M193.33333333333334,276C270,276 270,227.99999999999991 346.6666666666667,227.99999999999991L346.6666666666667,235.99999999999991C270,235.99999999999991 270,284 193.33333333333334,284Z" style="stroke: rgb(68, 68, 68); stroke-opacity: 1; fill: rgb(0, 0, 0); fill-opacity: 0.2; stroke-width: 0; opacity: 1;"/><path class="sankey-link" d="M193.33333333333334,139.9999999999994C270,139.9999999999994 270,255.99999999999994 346.6666666666667,255.99999999999994L346.6666666666667,263.99999999999994C270,263.99999999999994 270,147.9999999999994 193.33333333333334,147.9999999999994Z" style="stroke: rgb(68, 68, 68); stroke-opacity: 1; fill: rgb(0, 0, 0); fill-opacity: 0.2; stroke-width: 0; opacity: 1;"/><path class="sankey-link" d="M193.33333333333334,35.9999999999994C270,35.9999999999994 270,91.99999999999991 346.6666666666667,91.99999999999991L346.6666666666667,195.99999999999991C270,195.99999999999991 270,139.9999999999994 193.33333333333334,139.9999999999994Z" style="stroke: rgb(68, 68, 68); stroke-opacity: 1; fill: rgb(0, 0, 0); fill-opacity: 0.2; stroke-width: 0; opacity: 1;"/><path class="sankey-link" d="M366.6666666666667,255.99999999999994C443.33333333333337,255.99999999999994 443.33333333333337,227.9999999999998 520,227.9999999999998L520,259.9999999999998C443.33333333333337,259.9999999999998 443.33333333333337,287.99999999999994 366.6666666666667,287.99999999999994Z" style="stroke: rgb(68, 68, 68); stroke-opacity: 1; fill: rgb(0, 0, 0); fill-opacity: 0.2; stroke-width: 0; opacity: 1;"/><path class="sankey-link" d="M366.6666666666667,287.99999999999994C443.33333333333337,287.99999999999994 443.33333333333337,287.99999999999983 520,287.99999999999983L520,319.99999999999983C443.33333333333337,319.99999999999983 443.33333333333337,319.99999999999994 366.6666666666667,319.99999999999994Z" style="stroke: rgb(68, 68, 68); stroke-opacity: 1; fill: rgb(0, 0, 0); fill-opacity: 0.2; stroke-width: 0; opacity: 1;"/><path class="sankey-link" d="M366.6666666666667,39.999999999999915C443.33333333333337,39.999999999999915 443.33333333333337,19.99999999999995 520,19.99999999999995L520,51.99999999999995C443.33333333333337,51.99999999999995 443.33333333333337,71.99999999999991 366.6666666666667,71.99999999999991Z" style="stroke: rgb(68, 68, 68); stroke-opacity: 1; fill: rgb(0, 0, 0); fill-opacity: 0.2; stroke-width: 0; opacity: 1;"/><path class="sankey-link" d="M366.6666666666667,91.99999999999991C443.33333333333337,91.99999999999991 443.33333333333337,51.99999999999995 520,51.99999999999995L520,67.99999999999994C443.33333333333337,67.99999999999994 443.33333333333337,107.99999999999991 366.6666666666667,107.99999999999991Z" style="stroke: rgb(68, 68, 68); stroke-opacity: 1; fill: rgb(0, 0, 0); fill-opacity: 0.2; stroke-width: 0; opacity: 1;"/><path class="sankey-link" d="M366.6666666666667,211.99999999999991C443.33333333333337,211.99999999999991 443.33333333333337,211.9999999999998 520,211.9999999999998L520,227.9999999999998C443.33333333333337,227.9999999999998 443.33333333333337,227.99999999999991 366.6666666666667,227.99999999999991Z" style="stroke: rgb(68, 68, 68); stroke-opacity: 1; fill: rgb(0, 0, 0); fill-opacity: 0.2; stroke-width: 0; opacity: 1;"/><path class="sankey-link" d="M366.6666666666667,227.99999999999991C443.33333333333337,227.99999999999991 443.33333333333337,279.99999999999983 520,279.99999999999983L520,287.99999999999983C443.33333333333337,287.99999999999983 443.33333333333337,235.99999999999991 366.6666666666667,235.99999999999991Z" style="stroke: rgb(68, 68, 68); stroke-opacity: 1; fill: rgb(0, 0, 0); fill-opacity: 0.2; stroke-width: 0; opacity: 1;"/><path class="sankey-link" d="M366.6666666666667,107.99999999999991C443.33333333333337,107.99999999999991 443.33333333333337,87.99999999999991 520,87.99999999999991L520,191.99999999999991C443.33333333333337,191.99999999999991 443.33333333333337,211.99999999999991 366.6666666666667,211.99999999999991Z" style="stroke: rgb(68, 68, 68); stroke-opacity: 1; fill: rgb(0, 0, 0); fill-opacity: 0.2; stroke-width: 0; opacity: 1;"/></g><g class="sankey-node-set" style="cursor: move;"><g class="sankey-node" transform="translate(0.000,40.000)" style="opacity: 1;"><rect class="node-rect" width="20" height="79.99999999999994" style="stroke-width: 0; stroke: rgb(128, 0, 128); stroke-opacity: 1; fill: rgb(99, 110, 250); fill-opacity: 0.8;"/><rect class="node-capture" x="-10" y="-10" width="40" height="99.99999999999994" style="fill-opacity: 0;"/><g class="node-entered" transform="translate(0,40.99999999999997)"><path class="node-label-guide" id="ba744a_0_node_0" d="M24,0L540,0" transform="matrix(1 0 0 1 0 0)"/><text class="node-label" transform="scale(1 1)" style="cursor: default; fill: rgb(42, 63, 95); text-shadow: rgb(255, 255, 255) -1px 1px 1px, rgb(255, 255, 255) 1px 1px 1px, rgb(255, 255, 255) 1px -1px 1px, rgb(255, 255, 255) -1px -1px 1px; font-family: 'Open Sans', verdana, arial, sans-serif; font-size: 10px; fill-opacity: 1;"><textPath class="node-label-text-path" alignment-baseline="middle" xlink:href="#ba744a_0_node_0" startOffset="0%" text-anchor="start" style="fill: rgb(0, 0, 0);">A1</textPath></text></g></g><g class="sankey-node" transform="translate(0.000,240.000)" style="opacity: 1;"><rect class="node-rect" width="20" height="79.9999999999998" style="stroke-width: 0; stroke: rgb(128, 0, 128); stroke-opacity: 1; fill: rgb(239, 85, 59); fill-opacity: 0.8;"/><rect class="node-capture" x="-10" y="-10" width="40" height="99.9999999999998" style="fill-opacity: 0;"/><g class="node-entered" transform="translate(0,40.9999999999999)"><path class="node-label-guide" id="ba744a_0_node_1" d="M24,0L540,0" transform="matrix(1 0 0 1 0 0)"/><text class="node-label" transform="scale(1 1)" style="cursor: default; fill: rgb(42, 63, 95); text-shadow: rgb(255, 255, 255) -1px 1px 1px, rgb(255, 255, 255) 1px 1px 1px, rgb(255, 255, 255) 1px -1px 1px, rgb(255, 255, 255) -1px -1px 1px; font-family: 'Open Sans', verdana, arial, sans-serif; font-size: 10px; fill-opacity: 1;"><textPath class="node-label-text-path" alignment-baseline="middle" xlink:href="#ba744a_0_node_1" startOffset="0%" text-anchor="start" style="fill: rgb(0, 0, 0);">A2</textPath></text></g></g><g class="sankey-node" transform="translate(0.000,140.000)" style="opacity: 1;"><rect class="node-rect" width="20" height="80.00000000000011" style="stroke-width: 0; stroke: rgb(128, 0, 128); stroke-opacity: 1; fill: rgb(0, 204, 150); fill-opacity: 0.8;"/><rect class="node-capture" x="-10" y="-10" width="40" height="100.00000000000011" style="fill-opacity: 0;"/><g class="node-entered" transform="translate(0,41.00000000000006)"><path class="node-label-guide" id="ba744a_0_node_2" d="M24,0L540,0" transform="matrix(1 0 0 1 0 0)"/><text class="node-label" transform="scale(1 1)" style="cursor: default; fill: rgb(42, 63, 95); text-shadow: rgb(255, 255, 255) -1px 1px 1px, rgb(255, 255, 255) 1px 1px 1px, rgb(255, 255, 255) 1px -1px 1px, rgb(255, 255, 255) -1px -1px 1px; font-family: 'Open Sans', verdana, arial, sans-serif; font-size: 10px; fill-opacity: 1;"><textPath class="node-label-text-path" alignment-baseline="middle" xlink:href="#ba744a_0_node_2" startOffset="0%" text-anchor="start" style="fill: rgb(0, 0, 0);">A3</textPath></text></g></g><g class="sankey-node" transform="translate(173.333,312.000)" style="opacity: 1;"><rect class="node-rect" width="20" height="8" style="stroke-width: 0; stroke: rgb(128, 0, 128); stroke-opacity: 1; fill: rgb(171, 99, 250); fill-opacity: 0.8;"/><rect class="node-capture" x="-10" y="-10" width="40" height="28" style="fill-opacity: 0;"/><g class="node-entered" transform="translate(0,5)"><path class="node-label-guide" id="ba744a_0_node_3" d="M24,0L540,0" transform="matrix(1 0 0 1 0 0)"/><text class="node-label" transform="scale(1 1)" style="cursor: default; fill: rgb(42, 63, 95); text-shadow: rgb(255, 255, 255) -1px 1px 1px, rgb(255, 255, 255) 1px 1px 1px, rgb(255, 255, 255) 1px -1px 1px, rgb(255, 255, 255) -1px -1px 1px; font-family: 'Open Sans', verdana, arial, sans-serif; font-size: 10px; fill-opacity: 1;"><textPath class="node-label-text-path" alignment-baseline="middle" xlink:href="#ba744a_0_node_3" startOffset="0%" text-anchor="start" style="fill: rgb(0, 0, 0);">B1</textPath></text></g></g><g class="sankey-node" transform="translate(173.333,168.000)" style="opacity: 1;"><rect class="node-rect" width="20" height="88.00000000000048" style="stroke-width: 0; stroke: rgb(128, 0, 128); stroke-opacity: 1; fill: rgb(255, 161, 90); fill-opacity: 0.8;"/><rect class="node-capture" x="-10" y="-10" width="40" height="108.00000000000048" style="fill-opacity: 0;"/><g class="node-entered" transform="translate(0,45.00000000000024)"><path class="node-label-guide" id="ba744a_0_node_4" d="M24,0L540,0" transform="matrix(1 0 0 1 0 0)"/><text class="node-label" transform="scale(1 1)" style="cursor: default; fill: rgb(42, 63, 95); text-shadow: rgb(255, 255, 255) -1px 1px 1px, rgb(255, 255, 255) 1px 1px 1px, rgb(255, 255, 255) 1px -1px 1px, rgb(255, 255, 255) -1px -1px 1px; font-family: 'Open Sans', verdana, arial, sans-serif; font-size: 10px; fill-opacity: 1;"><textPath class="node-label-text-path" alignment-baseline="middle" xlink:href="#ba744a_0_node_4" startOffset="0%" text-anchor="start" style="fill: rgb(0, 0, 0);">B2</textPath></text></g></g><g class="sankey-node" transform="translate(173.333,-0.000)" style="opacity: 1;"><rect class="node-rect" width="20" height="16.00000000000005" style="stroke-width: 0; stroke: rgb(128, 0, 128); stroke-opacity: 1; fill: rgb(25, 211, 243); fill-opacity: 0.8;"/><rect class="node-capture" x="-10" y="-10" width="40" height="36.00000000000005" style="fill-opacity: 0;"/><g class="node-entered" transform="translate(0,9.000000000000025)"><path class="node-label-guide" id="ba744a_0_node_5" d="M24,0L540,0" transform="matrix(1 0 0 1 0 0)"/><text class="node-label" transform="scale(1 1)" style="cursor: default; fill: rgb(42, 63, 95); text-shadow: rgb(255, 255, 255) -1px 1px 1px, rgb(255, 255, 255) 1px 1px 1px, rgb(255, 255, 255) 1px -1px 1px, rgb(255, 255, 255) -1px -1px 1px; font-family: 'Open Sans', verdana, arial, sans-serif; font-size: 10px; fill-opacity: 1;"><textPath class="node-label-text-path" alignment-baseline="middle" xlink:href="#ba744a_0_node_5" startOffset="0%" text-anchor="start" style="fill: rgb(0, 0, 0);">B3</textPath></text></g></g><g class="sankey-node" transform="translate(173.333,276.000)" style="opacity: 1;"><rect class="node-rect" width="20" height="16" style="stroke-width: 0; stroke: rgb(128, 0, 128); stroke-opacity: 1; fill: rgb(255, 102, 146); fill-opacity: 0.8;"/><rect class="node-capture" x="-10" y="-10" width="40" height="36" style="fill-opacity: 0;"/><g class="node-entered" transform="translate(0,9)"><path class="node-label-guide" id="ba744a_0_node_6" d="M24,0L540,0" transform="matrix(1 0 0 1 0 0)"/><text class="node-label" transform="scale(1 1)" style="cursor: default; fill: rgb(42, 63, 95); text-shadow: rgb(255, 255, 255) -1px 1px 1px, rgb(255, 255, 255) 1px 1px 1px, rgb(255, 255, 255) 1px -1px 1px, rgb(255, 255, 255) -1px -1px 1px; font-family: 'Open Sans', verdana, arial, sans-serif; font-size: 10px; fill-opacity: 1;"><textPath class="node-label-text-path" alignment-baseline="middle" xlink:href="#ba744a_0_node_6" startOffset="0%" text-anchor="start" style="fill: rgb(0, 0, 0);">B4</textPath></text></g></g><g class="sankey-node" transform="translate(173.333,36.000)" style="opacity: 1;"><rect class="node-rect" width="20" height="112.00000000000011" style="stroke-width: 0; stroke: rgb(128, 0, 128); stroke-opacity: 1; fill: rgb(182, 232, 128); fill-opacity: 0.8;"/><rect class="node-capture" x="-10" y="-10" width="40" height="132.0000000000001" style="fill-opacity: 0;"/><g class="node-entered" transform="translate(0,57.00000000000006)"><path class="node-label-guide" id="ba744a_0_node_7" d="M24,0L540,0" transform="matrix(1 0 0 1 0 0)"/><text class="node-label" transform="scale(1 1)" style="cursor: default; fill: rgb(42, 63, 95); text-shadow: rgb(255, 255, 255) -1px 1px 1px, rgb(255, 255, 255) 1px 1px 1px, rgb(255, 255, 255) 1px -1px 1px, rgb(255, 255, 255) -1px -1px 1px; font-family: 'Open Sans', verdana, arial, sans-serif; font-size: 10px; fill-opacity: 1;"><textPath class="node-label-text-path" alignment-baseline="middle" xlink:href="#ba744a_0_node_7" startOffset="0%" text-anchor="start" style="fill: rgb(0, 0, 0);">B5</textPath></text></g></g><g class="sankey-node" transform="translate(346.667,256.000)" style="opacity: 1;"><rect class="node-rect" width="20" height="64.00000000000006" style="stroke-width: 0; stroke: rgb(128, 0, 128); stroke-opacity: 1; fill: rgb(255, 151, 255); fill-opacity: 0.8;"/><rect class="node-capture" x="-10" y="-10" width="40" height="84.00000000000006" style="fill-opacity: 0;"/><g class="node-entered" transform="translate(0,33.00000000000003)"><path class="node-label-guide" id="ba744a_0_node_8" d="M24,0L540,0" transform="matrix(1 0 0 1 0 0)"/><text class="node-label" transform="scale(1 1)" style="cursor: default; fill: rgb(42, 63, 95); text-shadow: rgb(255, 255, 255) -1px 1px 1px, rgb(255, 255, 255) 1px 1px 1px, rgb(255, 255, 255) 1px -1px 1px, rgb(255, 255, 255) -1px -1px 1px; font-family: 'Open Sans', verdana, arial, sans-serif; font-size: 10px; fill-opacity: 1;"><textPath class="node-label-text-path" alignment-baseline="middle" xlink:href="#ba744a_0_node_8" startOffset="0%" text-anchor="start" style="fill: rgb(0, 0, 0);">C1</textPath></text></g></g><g class="sankey-node" transform="translate(346.667,40.000)" style="opacity: 1;"><rect class="node-rect" width="20" height="32" style="stroke-width: 0; stroke: rgb(128, 0, 128); stroke-opacity: 1; fill: rgb(254, 203, 82); fill-opacity: 0.8;"/><rect class="node-capture" x="-10" y="-10" width="40" height="52" style="fill-opacity: 0;"/><g class="node-entered" transform="translate(0,17)"><path class="node-label-guide" id="ba744a_0_node_9" d="M24,0L540,0" transform="matrix(1 0 0 1 0 0)"/><text class="node-label" transform="scale(1 1)" style="cursor: default; fill: rgb(42, 63, 95); text-shadow: rgb(255, 255, 255) -1px 1px 1px, rgb(255, 255, 255) 1px 1px 1px, rgb(255, 255, 255) 1px -1px 1px, rgb(255, 255, 255) -1px -1px 1px; font-family: 'Open Sans', verdana, arial, sans-serif; font-size: 10px; fill-opacity: 1;"><textPath class="node-label-text-path" alignment-baseline="middle" xlink:href="#ba744a_0_node_9" startOffset="0%" text-anchor="start" style="fill: rgb(0, 0, 0);">C2</textPath></text></g></g><g class="sankey-node" transform="translate(346.667,92.000)" style="opacity: 1;"><rect class="node-rect" width="20" height="144.00000000000003" style="stroke-width: 0; stroke: rgb(128, 0, 128); stroke-opacity: 1; fill: rgb(99, 110, 250); fill-opacity: 0.8;"/><rect class="node-capture" x="-10" y="-10" width="40" height="164.00000000000003" style="fill-opacity: 0;"/><g class="node-entered" transform="translate(0,73.00000000000001)"><path class="node-label-guide" id="ba744a_0_node_10" d="M24,0L540,0" transform="matrix(1 0 0 1 0 0)"/><text class="node-label" transform="scale(1 1)" style="cursor: default; fill: rgb(42, 63, 95); text-shadow: rgb(255, 255, 255) -1px 1px 1px, rgb(255, 255, 255) 1px 1px 1px, rgb(255, 255, 255) 1px -1px 1px, rgb(255, 255, 255) -1px -1px 1px; font-family: 'Open Sans', verdana, arial, sans-serif; font-size: 10px; fill-opacity: 1;"><textPath class="node-label-text-path" alignment-baseline="middle" xlink:href="#ba744a_0_node_10" startOffset="0%" text-anchor="start" style="fill: rgb(0, 0, 0);">C3</textPath></text></g></g><g class="sankey-node" transform="translate(520.000,20.000)" style="opacity: 1;"><rect class="node-rect" width="20" height="47.999999999999964" style="stroke-width: 0; stroke: rgb(128, 0, 128); stroke-opacity: 1; fill: rgb(0, 204, 150); fill-opacity: 0.8;"/><rect class="node-capture" x="-10" y="-10" width="40" height="67.99999999999997" style="fill-opacity: 0;"/><g class="node-entered" transform="translate(0,24.999999999999982)"><path class="node-label-guide" id="ba744a_0_node_12" d="M-540,0L-4,0" transform="matrix(1 0 0 1 0 0)"/><text class="node-label" transform="scale(1 1)" style="cursor: default; fill: rgb(42, 63, 95); text-shadow: rgb(255, 255, 255) -1px 1px 1px, rgb(255, 255, 255) 1px 1px 1px, rgb(255, 255, 255) 1px -1px 1px, rgb(255, 255, 255) -1px -1px 1px; font-family: 'Open Sans', verdana, arial, sans-serif; font-size: 10px; fill-opacity: 1;"><textPath class="node-label-text-path" alignment-baseline="middle" xlink:href="#ba744a_0_node_12" startOffset="100%" text-anchor="end" style="fill: rgb(0, 0, 0);">D2</textPath></text></g></g><g class="sankey-node" transform="translate(520.000,212.000)" style="opacity: 1;"><rect class="node-rect" width="20" height="48.00000000000003" style="stroke-width: 0; stroke: rgb(128, 0, 128); stroke-opacity: 1; fill: rgb(171, 99, 250); fill-opacity: 0.8;"/><rect class="node-capture" x="-10" y="-10" width="40" height="68.00000000000003" style="fill-opacity: 0;"/><g class="node-entered" transform="translate(0,25.000000000000014)"><path class="node-label-guide" id="ba744a_0_node_13" d="M-540,0L-4,0" transform="matrix(1 0 0 1 0 0)"/><text class="node-label" transform="scale(1 1)" style="cursor: default; fill: rgb(42, 63, 95); text-shadow: rgb(255, 255, 255) -1px 1px 1px, rgb(255, 255, 255) 1px 1px 1px, rgb(255, 255, 255) 1px -1px 1px, rgb(255, 255, 255) -1px -1px 1px; font-family: 'Open Sans', verdana, arial, sans-serif; font-size: 10px; fill-opacity: 1;"><textPath class="node-label-text-path" alignment-baseline="middle" xlink:href="#ba744a_0_node_13" startOffset="100%" text-anchor="end" style="fill: rgb(0, 0, 0);">D3</textPath></text></g></g><g class="sankey-node" transform="translate(520.000,280.000)" style="opacity: 1;"><rect class="node-rect" width="20" height="40.00000000000017" style="stroke-width: 0; stroke: rgb(128, 0, 128); stroke-opacity: 1; fill: rgb(255, 161, 90); fill-opacity: 0.8;"/><rect class="node-capture" x="-10" y="-10" width="40" height="60.00000000000017" style="fill-opacity: 0;"/><g class="node-entered" transform="translate(0,21.000000000000085)"><path class="node-label-guide" id="ba744a_0_node_14" d="M-540,0L-4,0" transform="matrix(1 0 0 1 0 0)"/><text class="node-label" transform="scale(1 1)" style="cursor: default; fill: rgb(42, 63, 95); text-shadow: rgb(255, 255, 255) -1px 1px 1px, rgb(255, 255, 255) 1px 1px 1px, rgb(255, 255, 255) 1px -1px 1px, rgb(255, 255, 255) -1px -1px 1px; font-family: 'Open Sans', verdana, arial, sans-serif; font-size: 10px; fill-opacity: 1;"><textPath class="node-label-text-path" alignment-baseline="middle" xlink:href="#ba744a_0_node_14" startOffset="100%" text-anchor="end" style="fill: rgb(0, 0, 0);">D4</textPath></text></g></g><g class="sankey-node" transform="translate(520.000,88.000)" style="opacity: 1;"><rect class="node-rect" width="20" height="103.99999999999989" style="stroke-width: 0; stroke: rgb(128, 0, 128); stroke-opacity: 1; fill: rgb(25, 211, 243); fill-opacity: 0.8;"/><rect class="node-capture" x="-10" y="-10" width="40" height="123.99999999999989" style="fill-opacity: 0;"/><g class="node-entered" transform="translate(0,52.99999999999994)"><path class="node-label-guide" id="ba744a_0_node_15" d="M-540,0L-4,0" transform="matrix(1 0 0 1 0 0)"/><text class="node-label" transform="scale(1 1)" style="cursor: default; fill: rgb(42, 63, 95); text-shadow: rgb(255, 255, 255) -1px 1px 1px, rgb(255, 255, 255) 1px 1px 1px, rgb(255, 255, 255) 1px -1px 1px, rgb(255, 255, 255) -1px -1px 1px; font-family: 'Open Sans', verdana, arial, sans-serif; font-size: 10px; fill-opacity: 1;"><textPath class="node-label-text-path" alignment-baseline="middle" xlink:href="#ba744a_0_node_15" startOffset="100%" text-anchor="end" style="fill: rgb(0, 0, 0);">D5</textPath></text></g></g></g></g><defs id="topdefs-dee764"><g class="clips"/></defs><g class="layer-above"><g class="imagelayer"/><g class="shapelayer"/></g><g class="infolayer"><g class="g-gtitle"><text class="gtitle" x="35" y="50" text-anchor="start" dy="0em" style="font-family: 'Open Sans', verdana, arial, sans-serif; font-size: 14px; fill: rgb(42, 63, 95); opacity: 1; font-weight: normal; white-space: pre;">Sankey Diagram 11</text></g><g class="first-render"/></g></svg>