<svg class="main-svg" xmlns="http://www.w3.org/2000/svg" xmlns:xlink="http://www.w3.org/1999/xlink" width="700" height="500" style="" viewBox="0 0 700 500"><rect x="0" y="0" width="700" height="500" style="fill: rgb(255, 255, 255); fill-opacity: 1;"/><defs id="defs-1c756f"><g class="clips"/><g class="gradients"/></defs><g class="bglayer"/><g class="layer-below"><g class="imagelayer"/><g class="shapelayer"/></g><g class="cartesianlayer"/><g class="polarlayer"/><g class="ternarylayer"/><g class="geolayer"/><g class="funnelarealayer"/><g class="pielayer"/><g class="treemaplayer"/><g class="sunburstlayer"/><g class="glimages"/><g class="sankey" transform="translate(80,100)matrix(1 0 0 1 0 0)" style="box-sizing: content-box; position: absolute; left: 0px; shape-rendering: geometricprecision; pointer-events: auto;"><g class="sankey-links" style="fill: none;"><path class="sankey-link" d="M20,297.4400000000002C96.66666666666667,297.4400000000002 96.66666666666667,297.4400000000006 173.33333333333334,297.4400000000006L173.33333333333334,320.00000000000057C96.66666666666667,320.00000000000057 96.66666666666667,320.00000000000017 20,320.00000000000017Z" style="stroke: rgb(68, 68, 68); stroke-opacity: 1; fill: rgb(0, 0, 0); fill-opacity: 0.2; stroke-width: 0; opacity: 1;"/><path class="sankey-link" d="M20,278.24000000000024C96.66666666666667,278.24000000000024 96.66666666666667,194.56000000000046 173.33333333333334,194.56000000000046L173.33333333333334,208.48000000000047C96.66666666666667,208.48000000000047 96.66666666666667,292.1600000000002 20,292.1600000000002Z" style="stroke: rgb(68, 68, 68); stroke-opacity: 1; fill: rgb(0, 0, 0); fill-opacity: 0.2; stroke-width: 0; opacity: 1;"/><path class="sankey-link" d="M20,272.0000000000002C96.66666666666667,272.0000000000002 96.66666666666667,127.04000000000042 173.33333333333334,127.04000000000042L173.33333333333334,133.28000000000043C96.66666666666667,133.28000000000043 96.66666666666667,278.24000000000024 20,278.24000000000024Z" style="stroke: rgb(68, 68, 68); stroke-opacity: 1; fill: rgb(0, 0, 0); fill-opacity: 0.2; stroke-width: 0; opacity: 1;"/><path class="sankey-link" d="M20,292.16000000000025C96.66666666666667,292.16000000000025 96.66666666666667,250.0800000000006 173.33333333333334,250.0800000000006L173.33333333333334,255.36000000000058C96.66666666666667,255.36000000000058 96.66666666666667,297.4400000000002 20,297.4400000000002Z" style="stroke: rgb(68, 68, 68); stroke-opacity: 1; fill: rgb(0, 0, 0); fill-opacity: 0.2; stroke-width: 0; opacity: 1;"/><path class="sankey-link" d="M20,2.2737367544323206e-13C96.66666666666667,2.2737367544323206e-13 96.66666666666667,4.902744876744691e-13 173.33333333333334,4.902744876744691e-13L173.33333333333334,30.72000000000049C96.66666666666667,30.72000000000049 96.66666666666667,30.720000000000226 20,30.720000000000226Z" style="stroke: rgb(68, 68, 68); stroke-opacity: 1; fill: rgb(0, 0, 0); fill-opacity: 0.2; stroke-width: 0; opacity: 1;"/><path class="sankey-link" d="M20,30.720000000000226C96.66666666666667,30.720000000000226 96.66666666666667,94.88000000000045 173.33333333333334,94.88000000000045L173.33333333333334,103.04000000000045C96.66666666666667,103.04000000000045 96.66666666666667,38.88000000000022 20,38.88000000000022Z" style="stroke: rgb(68, 68, 68); stroke-opacity: 1; fill: rgb(0, 0, 0); fill-opacity: 0.2; stroke-width: 0; opacity: 1;"/><path class="sankey-link" d="M20,38.88000000000022C96.66666666666667,38.88000000000022 96.66666666666667,153.28000000000046 173.33333333333334,153.28000000000046L173.33333333333334,162.40000000000046C96.66666666666667,162.40000000000046 96.66666666666667,48.00000000000023 20,48.00000000000023Z" style="stroke: rgb(68, 68, 68); stroke-opacity: 1; fill: rgb(0, 0, 0); fill-opacity: 0.2; stroke-width: 0; opacity: 1;"/><path class="sankey-link" d="M20,74.24000000000025C96.66666666666667,74.24000000000025 96.66666666666667,103.04000000000045 173.33333333333334,103.04000000000045L173.33333333333334,120.80000000000044C96.66666666666667,120.80000000000044 96.66666666666667,92.00000000000024 20,92.00000000000024Z" style="stroke: rgb(68, 68, 68); stroke-opacity: 1; fill: rgb(0, 0, 0); fill-opacity: 0.2; stroke-width: 0; opacity: 1;"/><path class="sankey-link" d="M20,99.68000000000026C96.66666666666667,99.68000000000026 96.66666666666667,228.4800000000006 173.33333333333334,228.4800000000006L173.33333333333334,236.6400000000006C96.66666666666667,236.6400000000006 96.66666666666667,107.84000000000026 20,107.84000000000026Z" style="stroke: rgb(68, 68, 68); stroke-opacity: 1; fill: rgb(0, 0, 0); fill-opacity: 0.2; stroke-width: 0; opacity: 1;"/><path class="sankey-link" d="M20,92.00000000000026C96.66666666666667,92.00000000000026 96.66666666666667,162.40000000000046 173.33333333333334,162.40000000000046L173.33333333333334,170.08000000000047C96.66666666666667,170.08000000000047 96.66666666666667,99.68000000000026 20,99.68000000000026Z" style="stroke: rgb(68, 68, 68); stroke-opacity: 1; fill: rgb(0, 0, 0); fill-opacity: 0.2; stroke-width: 0; opacity: 1;"/><path class="sankey-link" d="M20,107.84000000000026C96.66666666666667,107.84000000000026 96.66666666666667,275.3600000000006 173.33333333333334,275.3600000000006L173.33333333333334,283.52000000000055C96.66666666666667,283.52000000000055 96.66666666666667,116.00000000000026 20,116.00000000000026Z" style="stroke: rgb(68, 68, 68); stroke-opacity: 1; fill: rgb(0, 0, 0); fill-opacity: 0.2; stroke-width: 0; opacity: 1;"/><path class="sankey-link" d="M20,68.00000000000026C96.66666666666667,68.00000000000026 96.66666666666667,30.720000000000486 173.33333333333334,30.720000000000486L173.33333333333334,36.960000000000484C96.66666666666667,36.960000000000484 96.66666666666667,74.24000000000026 20,74.24000000000026Z" style="stroke: rgb(68, 68, 68); stroke-opacity: 1; fill: rgb(0, 0, 0); fill-opacity: 0.2; stroke-width: 0; opacity: 1;"/><path class="sankey-link" d="M20,221.28000000000023C96.66666666666667,221.28000000000023 96.66666666666667,178.24000000000046 173.33333333333334,178.24000000000046L173.33333333333334,194.56000000000046C96.66666666666667,194.56000000000046 96.66666666666667,237.60000000000022 20,237.60000000000022Z" style="stroke: rgb(68, 68, 68); stroke-opacity: 1; fill: rgb(0, 0, 0); fill-opacity: 0.2; stroke-width: 0; opacity: 1;"/><path class="sankey-link" d="M20,237.60000000000022C96.66666666666667,237.60000000000022 96.66666666666667,241.4400000000006 173.33333333333334,241.4400000000006L173.33333333333334,250.08000000000058C96.66666666666667,250.08000000000058 96.66666666666667,246.2400000000002 20,246.2400000000002Z" style="stroke: rgb(68, 68, 68); stroke-opacity: 1; fill: rgb(0, 0, 0); fill-opacity: 0.2; stroke-width: 0; opacity: 1;"/><path class="sankey-link" d="M20,204.00000000000023C96.66666666666667,204.00000000000023 96.66666666666667,63.84000000000049 173.33333333333334,63.84000000000049L173.33333333333334,74.88000000000048C96.66666666666667,74.88000000000048 96.66666666666667,215.04000000000025 20,215.04000000000025Z" style="stroke: rgb(68, 68, 68); stroke-opacity: 1; fill: rgb(0, 0, 0); fill-opacity: 0.2; stroke-width: 0; opacity: 1;"/><path class="sankey-link" d="M20,215.04000000000022C96.66666666666667,215.04000000000022 96.66666666666667,120.80000000000044 173.33333333333334,120.80000000000044L173.33333333333334,127.04000000000045C96.66666666666667,127.04000000000045 96.66666666666667,221.28000000000023 20,221.28000000000023Z" style="stroke: rgb(68, 68, 68); stroke-opacity: 1; fill: rgb(0, 0, 0); fill-opacity: 0.2; stroke-width: 0; opacity: 1;"/><path class="sankey-link" d="M20,246.24000000000024C96.66666666666667,246.24000000000024 96.66666666666667,291.68000000000063 173.33333333333334,291.68000000000063L173.33333333333334,297.4400000000006C96.66666666666667,297.4400000000006 96.66666666666667,252.00000000000023 20,252.00000000000023Z" style="stroke: rgb(68, 68, 68); stroke-opacity: 1; fill: rgb(0, 0, 0); fill-opacity: 0.2; stroke-width: 0; opacity: 1;"/><path class="sankey-link" d="M20,136.00000000000028C96.66666666666667,136.00000000000028 96.66666666666667,36.96000000000049 173.33333333333334,36.96000000000049L173.33333333333334,63.84000000000049C96.66666666666667,63.84000000000049 96.66666666666667,162.88000000000028 20,162.88000000000028Z" style="stroke: rgb(68, 68, 68); stroke-opacity: 1; fill: rgb(0, 0, 0); fill-opacity: 0.2; stroke-width: 0; opacity: 1;"/><path class="sankey-link" d="M20,175.8400000000003C96.66666666666667,175.8400000000003 96.66666666666667,283.5200000000006 173.33333333333334,283.5200000000006L173.33333333333334,291.6800000000006C96.66666666666667,291.6800000000006 96.66666666666667,184.0000000000003 20,184.0000000000003Z" style="stroke: rgb(68, 68, 68); stroke-opacity: 1; fill: rgb(0, 0, 0); fill-opacity: 0.2; stroke-width: 0; opacity: 1;"/><path class="sankey-link" d="M20,162.88000000000028C96.66666666666667,162.88000000000028 96.66666666666667,170.08000000000047 173.33333333333334,170.08000000000047L173.33333333333334,178.2400000000005C96.66666666666667,178.2400000000005 96.66666666666667,171.0400000000003 20,171.0400000000003Z" style="stroke: rgb(68, 68, 68); stroke-opacity: 1; fill: rgb(0, 0, 0); fill-opacity: 0.2; stroke-width: 0; opacity: 1;"/><path class="sankey-link" d="M20,171.04000000000028C96.66666666666667,171.04000000000028 96.66666666666667,236.64000000000058 173.33333333333334,236.64000000000058L173.33333333333334,241.4400000000006C96.66666666666667,241.4400000000006 96.66666666666667,175.8400000000003 20,175.8400000000003Z" style="stroke: rgb(68, 68, 68); stroke-opacity: 1; fill: rgb(0, 0, 0); fill-opacity: 0.2; stroke-width: 0; opacity: 1;"/><path class="sankey-link" d="M193.33333333333334,4.902744876744691e-13C270,4.902744876744691e-13 270,19.99999999999961 346.6666666666667,19.99999999999961L346.6666666666667,50.239999999999604C270,50.239999999999604 270,30.24000000000049 193.33333333333334,30.24000000000049Z" style="stroke: rgb(68, 68, 68); stroke-opacity: 1; fill: rgb(0, 0, 0); fill-opacity: 0.2; stroke-width: 0; opacity: 1;"/><path class="sankey-link" d="M193.33333333333334,57.60000000000049C270,57.60000000000049 270,202.39999999999964 346.6666666666667,202.39999999999964L346.6666666666667,219.6799999999996C270,219.6799999999996 270,74.88000000000049 193.33333333333334,74.88000000000049Z" style="stroke: rgb(68, 68, 68); stroke-opacity: 1; fill: rgb(0, 0, 0); fill-opacity: 0.2; stroke-width: 0; opacity: 1;"/><path class="sankey-link" d="M193.33333333333334,30.24000000000049C270,30.24000000000049 270,105.27999999999963 346.6666666666667,105.27999999999963L346.6666666666667,123.03999999999962C270,123.03999999999962 270,48.00000000000048 193.33333333333334,48.00000000000048Z" style="stroke: rgb(68, 68, 68); stroke-opacity: 1; fill: rgb(0, 0, 0); fill-opacity: 0.2; stroke-width: 0; opacity: 1;"/><path class="sankey-link" d="M193.33333333333334,48.00000000000048C270,48.00000000000048 270,159.83999999999963 346.6666666666667,159.83999999999963L346.6666666666667,169.43999999999966C270,169.43999999999966 270,57.60000000000048 193.33333333333334,57.60000000000048Z" style="stroke: rgb(68, 68, 68); stroke-opacity: 1; fill: rgb(0, 0, 0); fill-opacity: 0.2; stroke-width: 0; opacity: 1;"/><path class="sankey-link" d="M193.33333333333334,235.20000000000059C270,235.20000000000059 270,255.19999999999962 346.6666666666667,255.19999999999962L346.6666666666667,275.3599999999996C270,275.3599999999996 270,255.3600000000006 193.33333333333334,255.3600000000006Z" style="stroke: rgb(68, 68, 68); stroke-opacity: 1; fill: rgb(0, 0, 0); fill-opacity: 0.2; stroke-width: 0; opacity: 1;"/><path class="sankey-link" d="M193.33333333333334,231.36000000000058C270,231.36000000000058 270,178.55999999999963 346.6666666666667,178.55999999999963L346.6666666666667,182.3999999999996C270,182.3999999999996 270,235.20000000000056 193.33333333333334,235.20000000000056Z" style="stroke: rgb(68, 68, 68); stroke-opacity: 1; fill: rgb(0, 0, 0); fill-opacity: 0.2; stroke-width: 0; opacity: 1;"/><path class="sankey-link" d="M193.33333333333334,228.4800000000006C270,228.4800000000006 270,82.39999999999961 346.6666666666667,82.39999999999961L346.6666666666667,85.2799999999996C270,85.2799999999996 270,231.36000000000058 193.33333333333334,231.36000000000058Z" style="stroke: rgb(68, 68, 68); stroke-opacity: 1; fill: rgb(0, 0, 0); fill-opacity: 0.2; stroke-width: 0; opacity: 1;"/><path class="sankey-link" d="M193.33333333333334,94.88000000000045C270,94.88000000000045 270,50.23999999999961 346.6666666666667,50.23999999999961L346.6666666666667,76.15999999999961C270,76.15999999999961 270,120.80000000000044 193.33333333333334,120.80000000000044Z" style="stroke: rgb(68, 68, 68); stroke-opacity: 1; fill: rgb(0, 0, 0); fill-opacity: 0.2; stroke-width: 0; opacity: 1;"/><path class="sankey-link" d="M193.33333333333334,127.52000000000046C270,127.52000000000046 270,219.67999999999964 346.6666666666667,219.67999999999964L346.6666666666667,225.43999999999963C270,225.43999999999963 270,133.28000000000046 193.33333333333334,133.28000000000046Z" style="stroke: rgb(68, 68, 68); stroke-opacity: 1; fill: rgb(0, 0, 0); fill-opacity: 0.2; stroke-width: 0; opacity: 1;"/><path class="sankey-link" d="M193.33333333333334,120.80000000000045C270,120.80000000000045 270,123.03999999999962 346.6666666666667,123.03999999999962L346.6666666666667,129.75999999999962C270,129.75999999999962 270,127.52000000000045 193.33333333333334,127.52000000000045Z" style="stroke: rgb(68, 68, 68); stroke-opacity: 1; fill: rgb(0, 0, 0); fill-opacity: 0.2; stroke-width: 0; opacity: 1;"/><path class="sankey-link" d="M193.33333333333334,275.3600000000006C270,275.3600000000006 270,275.3599999999996 346.6666666666667,275.3599999999996L346.6666666666667,319.9999999999996C270,319.9999999999996 270,320.00000000000057 193.33333333333334,320.00000000000057Z" style="stroke: rgb(68, 68, 68); stroke-opacity: 1; fill: rgb(0, 0, 0); fill-opacity: 0.2; stroke-width: 0; opacity: 1;"/><path class="sankey-link" d="M193.33333333333334,178.72000000000048C270,178.72000000000048 270,225.43999999999963 346.6666666666667,225.43999999999963L346.6666666666667,255.19999999999962C270,255.19999999999962 270,208.48000000000047 193.33333333333334,208.48000000000047Z" style="stroke: rgb(68, 68, 68); stroke-opacity: 1; fill: rgb(0, 0, 0); fill-opacity: 0.2; stroke-width: 0; opacity: 1;"/><path class="sankey-link" d="M193.33333333333334,159.52000000000046C270,159.52000000000046 270,129.75999999999962 346.6666666666667,129.75999999999962L346.6666666666667,139.8399999999996C270,139.8399999999996 270,169.60000000000045 193.33333333333334,169.60000000000045Z" style="stroke: rgb(68, 68, 68); stroke-opacity: 1; fill: rgb(0, 0, 0); fill-opacity: 0.2; stroke-width: 0; opacity: 1;"/><path class="sankey-link" d="M193.33333333333334,169.60000000000048C270,169.60000000000048 270,169.43999999999963 346.6666666666667,169.43999999999963L346.6666666666667,178.55999999999963C270,178.55999999999963 270,178.72000000000048 193.33333333333334,178.72000000000048Z" style="stroke: rgb(68, 68, 68); stroke-opacity: 1; fill: rgb(0, 0, 0); fill-opacity: 0.2; stroke-width: 0; opacity: 1;"/><path class="sankey-link" d="M193.33333333333334,153.28000000000046C270,153.28000000000046 270,76.15999999999961 346.6666666666667,76.15999999999961L346.6666666666667,82.39999999999962C270,82.39999999999962 270,159.52000000000046 193.33333333333334,159.52000000000046Z" style="stroke: rgb(68, 68, 68); stroke-opacity: 1; fill: rgb(0, 0, 0); fill-opacity: 0.2; stroke-width: 0; opacity: 1;"/><path class="sankey-link" d="M366.6666666666667,105.27999999999963C443.33333333333337,105.27999999999963 443.33333333333337,147.8399999999997 520,147.8399999999997L520,182.3999999999997C443.33333333333337,182.3999999999997 443.33333333333337,139.83999999999963 366.6666666666667,139.83999999999963Z" style="stroke: rgb(68, 68, 68); stroke-opacity: 1; fill: rgb(0, 0, 0); fill-opacity: 0.2; stroke-width: 0; opacity: 1;"/><path class="sankey-link" d="M366.6666666666667,19.99999999999961C443.33333333333337,19.99999999999961 443.33333333333337,39.999999999999744 520,39.999999999999744L520,105.27999999999975C443.33333333333337,105.27999999999975 443.33333333333337,85.2799999999996 366.6666666666667,85.2799999999996Z" style="stroke: rgb(68, 68, 68); stroke-opacity: 1; fill: rgb(0, 0, 0); fill-opacity: 0.2; stroke-width: 0; opacity: 1;"/><path class="sankey-link" d="M366.6666666666667,202.39999999999964C443.33333333333337,202.39999999999964 443.33333333333337,202.39999999999986 520,202.39999999999986L520,319.9999999999999C443.33333333333337,319.9999999999999 443.33333333333337,319.99999999999966 366.6666666666667,319.99999999999966Z" style="stroke: rgb(68, 68, 68); stroke-opacity: 1; fill: rgb(0, 0, 0); fill-opacity: 0.2; stroke-width: 0; opacity: 1;"/><path class="sankey-link" d="M366.6666666666667,159.83999999999963C443.33333333333337,159.83999999999963 443.33333333333337,105.27999999999975 520,105.27999999999975L520,127.83999999999975C443.33333333333337,127.83999999999975 443.33333333333337,182.39999999999964 366.6666666666667,182.39999999999964Z" style="stroke: rgb(68, 68, 68); stroke-opacity: 1; fill: rgb(0, 0, 0); fill-opacity: 0.2; stroke-width: 0; opacity: 1;"/></g><g class="sankey-node-set" style="cursor: move;"><g class="sankey-node" transform="translate(0.000,272.000)" style="opacity: 1;"><rect class="node-rect" width="20" height="47.99999999999977" style="stroke-width: 0; stroke: rgb(128, 0, 128); stroke-opacity: 1; fill: rgb(87, 74, 226); fill-opacity: 1;"/><rect class="node-capture" x="-10" y="-10" width="40" height="67.99999999999977" style="fill-opacity: 0;"/><g class="node-entered" transform="translate(0,24.999999999999886)"><path class="node-label-guide" id="274f52_0_node_0" d="M24,0L540,0" transform="matrix(1 0 0 1 0 0)"/><text class="node-label" transform="scale(1 1)" style="cursor: default; fill: rgb(42, 63, 95); text-shadow: rgb(255, 255, 255) -1px 1px 1px, rgb(255, 255, 255) 1px 1px 1px, rgb(255, 255, 255) 1px -1px 1px, rgb(255, 255, 255) -1px -1px 1px; font-family: 'Open Sans', verdana, arial, sans-serif; font-size: 10px; fill-opacity: 1;"><textPath class="node-label-text-path" alignment-baseline="middle" xlink:href="#274f52_0_node_0" startOffset="0%" text-anchor="start" style="fill: rgb(0, 0, 0);">A1</textPath></text></g></g><g class="sankey-node" transform="translate(0.000,0.000)" style="opacity: 1;"><rect class="node-rect" width="20" height="48.00000000000003" style="stroke-width: 0; stroke: rgb(128, 0, 128); stroke-opacity: 1; fill: rgb(87, 74, 226); fill-opacity: 1;"/><rect class="node-capture" x="-10" y="-10" width="40" height="68.00000000000003" style="fill-opacity: 0;"/><g class="node-entered" transform="translate(0,25.000000000000014)"><path class="node-label-guide" id="274f52_0_node_1" d="M24,0L540,0" transform="matrix(1 0 0 1 0 0)"/><text class="node-label" transform="scale(1 1)" style="cursor: default; fill: rgb(42, 63, 95); text-shadow: rgb(255, 255, 255) -1px 1px 1px, rgb(255, 255, 255) 1px 1px 1px, rgb(255, 255, 255) 1px -1px 1px, rgb(255, 255, 255) -1px -1px 1px; font-family: 'Open Sans', verdana, arial, sans-serif; font-size: 10px; fill-opacity: 1;"><textPath class="node-label-text-path" alignment-baseline="middle" xlink:href="#274f52_0_node_1" startOffset="0%" text-anchor="start" style="fill: rgb(0, 0, 0);">A2</textPath></text></g></g><g class="sankey-node" transform="translate(0.000,68.000)" style="opacity: 1;"><rect class="node-rect" width="20" height="48.00000000000003" style="stroke-width: 0; stroke: rgb(128, 0, 128); stroke-opacity: 1; fill: rgb(87, 74, 226); fill-opacity: 1;"/><rect class="node-capture" x="-10" y="-10" width="40" height="68.00000000000003" style="fill-opacity: 0;"/><g class="node-entered" transform="translate(0,25.000000000000014)"><path class="node-label-guide" id="274f52_0_node_2" d="M24,0L540,0" transform="matrix(1 0 0 1 0 0)"/><text class="node-label" transform="scale(1 1)" style="cursor: default; fill: rgb(42, 63, 95); text-shadow: rgb(255, 255, 255) -1px 1px 1px, rgb(255, 255, 255) 1px 1px 1px, rgb(255, 255, 255) 1px -1px 1px, rgb(255, 255, 255) -1px -1px 1px; font-family: 'Open Sans', verdana, arial, sans-serif; font-size: 10px; fill-opacity: 1;"><textPath class="node-label-text-path" alignment-baseline="middle" xlink:href="#274f52_0_node_2" startOffset="0%" text-anchor="start" style="fill: rgb(0, 0, 0);">A3</textPath></text></g></g><g class="sankey-node" transform="translate(0.000,204.000)" style="opacity: 1;"><rect class="node-rect" width="20" height="48" style="stroke-width: 0; stroke: rgb(128, 0, 128); stroke-opacity: 1; fill: rgb(87, 74, 226); fill-opacity: 1;"/><rect class="node-capture" x="-10" y="-10" width="40" height="68" style="fill-opacity: 0;"/><g class="node-entered" transform="translate(0,25)"><path class="node-label-guide" id="274f52_0_node_3" d="M24,0L540,0" transform="matrix(1 0 0 1 0 0)"/><text class="node-label" transform="scale(1 1)" style="cursor: default; fill: rgb(42, 63, 95); text-shadow: rgb(255, 255, 255) -1px 1px 1px, rgb(255, 255, 255) 1px 1px 1px, rgb(255, 255, 255) 1px -1px 1px, rgb(255, 255, 255) -1px -1px 1px; font-family: 'Open Sans', verdana, arial, sans-serif; font-size: 10px; fill-opacity: 1;"><textPath class="node-label-text-path" alignment-baseline="middle" xlink:href="#274f52_0_node_3" startOffset="0%" text-anchor="start" style="fill: rgb(0, 0, 0);">A4</textPath></text></g></g><g class="sankey-node" transform="translate(0.000,136.000)" style="opacity: 1;"><rect class="node-rect" width="20" height="47.99999999999994" style="stroke-width: 0; stroke: rgb(128, 0, 128); stroke-opacity: 1; fill: rgb(87, 74, 226); fill-opacity: 1;"/><rect class="node-capture" x="-10" y="-10" width="40" height="67.99999999999994" style="fill-opacity: 0;"/><g class="node-entered" transform="translate(0,24.99999999999997)"><path class="node-label-guide" id="274f52_0_node_4" d="M24,0L540,0" transform="matrix(1 0 0 1 0 0)"/><text class="node-label" transform="scale(1 1)" style="cursor: default; fill: rgb(42, 63, 95); text-shadow: rgb(255, 255, 255) -1px 1px 1px, rgb(255, 255, 255) 1px 1px 1px, rgb(255, 255, 255) 1px -1px 1px, rgb(255, 255, 255) -1px -1px 1px; font-family: 'Open Sans', verdana, arial, sans-serif; font-size: 10px; fill-opacity: 1;"><textPath class="node-label-text-path" alignment-baseline="middle" xlink:href="#274f52_0_node_4" startOffset="0%" text-anchor="start" style="fill: rgb(0, 0, 0);">A5</textPath></text></g></g><g class="sankey-node" transform="translate(173.333,0.000)" style="opacity: 1;"><rect class="node-rect" width="20" height="74.87999999999997" style="stroke-width: 0; stroke: rgb(128, 0, 128); stroke-opacity: 1; fill: rgb(87, 74, 226); fill-opacity: 1;"/><rect class="node-capture" x="-10" y="-10" width="40" height="94.87999999999997" style="fill-opacity: 0;"/><g class="node-entered" transform="translate(0,38.43999999999998)"><path class="node-label-guide" id="274f52_0_node_5" d="M24,0L540,0" transform="matrix(1 0 0 1 0 0)"/><text class="node-label" transform="scale(1 1)" style="cursor: default; fill: rgb(42, 63, 95); text-shadow: rgb(255, 255, 255) -1px 1px 1px, rgb(255, 255, 255) 1px 1px 1px, rgb(255, 255, 255) 1px -1px 1px, rgb(255, 255, 255) -1px -1px 1px; font-family: 'Open Sans', verdana, arial, sans-serif; font-size: 10px; fill-opacity: 1;"><textPath class="node-label-text-path" alignment-baseline="middle" xlink:href="#274f52_0_node_5" startOffset="0%" text-anchor="start" style="fill: rgb(0, 0, 0);">B1</textPath></text></g></g><g class="sankey-node" transform="translate(173.333,228.480)" style="opacity: 1;"><rect class="node-rect" width="20" height="26.879999999999995" style="stroke-width: 0; stroke: rgb(128, 0, 128); stroke-opacity: 1; fill: rgb(87, 74, 226); fill-opacity: 1;"/><rect class="node-capture" x="-10" y="-10" width="40" height="46.879999999999995" style="fill-opacity: 0;"/><g class="node-entered" transform="translate(0,14.439999999999998)"><path class="node-label-guide" id="274f52_0_node_6" d="M24,0L540,0" transform="matrix(1 0 0 1 0 0)"/><text class="node-label" transform="scale(1 1)" style="cursor: default; fill: rgb(42, 63, 95); text-shadow: rgb(255, 255, 255) -1px 1px 1px, rgb(255, 255, 255) 1px 1px 1px, rgb(255, 255, 255) 1px -1px 1px, rgb(255, 255, 255) -1px -1px 1px; font-family: 'Open Sans', verdana, arial, sans-serif; font-size: 10px; fill-opacity: 1;"><textPath class="node-label-text-path" alignment-baseline="middle" xlink:href="#274f52_0_node_6" startOffset="0%" text-anchor="start" style="fill: rgb(0, 0, 0);">B2</textPath></text></g></g><g class="sankey-node" transform="translate(173.333,94.880)" style="opacity: 1;"><rect class="node-rect" width="20" height="38.400000000000006" style="stroke-width: 0; stroke: rgb(128, 0, 128); stroke-opacity: 1; fill: rgb(87, 74, 226); fill-opacity: 1;"/><rect class="node-capture" x="-10" y="-10" width="40" height="58.400000000000006" style="fill-opacity: 0;"/><g class="node-entered" transform="translate(0,20.200000000000003)"><path class="node-label-guide" id="274f52_0_node_7" d="M24,0L540,0" transform="matrix(1 0 0 1 0 0)"/><text class="node-label" transform="scale(1 1)" style="cursor: default; fill: rgb(42, 63, 95); text-shadow: rgb(255, 255, 255) -1px 1px 1px, rgb(255, 255, 255) 1px 1px 1px, rgb(255, 255, 255) 1px -1px 1px, rgb(255, 255, 255) -1px -1px 1px; font-family: 'Open Sans', verdana, arial, sans-serif; font-size: 10px; fill-opacity: 1;"><textPath class="node-label-text-path" alignment-baseline="middle" xlink:href="#274f52_0_node_7" startOffset="0%" text-anchor="start" style="fill: rgb(0, 0, 0);">B3</textPath></text></g></g><g class="sankey-node" transform="translate(173.333,275.360)" style="opacity: 1;"><rect class="node-rect" width="20" height="44.63999999999942" style="stroke-width: 0; stroke: rgb(128, 0, 128); stroke-opacity: 1; fill: rgb(87, 74, 226); fill-opacity: 1;"/><rect class="node-capture" x="-10" y="-10" width="40" height="64.63999999999942" style="fill-opacity: 0;"/><g class="node-entered" transform="translate(0,23.31999999999971)"><path class="node-label-guide" id="274f52_0_node_8" d="M24,0L540,0" transform="matrix(1 0 0 1 0 0)"/><text class="node-label" transform="scale(1 1)" style="cursor: default; fill: rgb(42, 63, 95); text-shadow: rgb(255, 255, 255) -1px 1px 1px, rgb(255, 255, 255) 1px 1px 1px, rgb(255, 255, 255) 1px -1px 1px, rgb(255, 255, 255) -1px -1px 1px; font-family: 'Open Sans', verdana, arial, sans-serif; font-size: 10px; fill-opacity: 1;"><textPath class="node-label-text-path" alignment-baseline="middle" xlink:href="#274f52_0_node_8" startOffset="0%" text-anchor="start" style="fill: rgb(0, 0, 0);">B4</textPath></text></g></g><g class="sankey-node" transform="translate(173.333,153.280)" style="opacity: 1;"><rect class="node-rect" width="20" height="55.2000000000001" style="stroke-width: 0; stroke: rgb(128, 0, 128); stroke-opacity: 1; fill: rgb(87, 74, 226); fill-opacity: 1;"/><rect class="node-capture" x="-10" y="-10" width="40" height="75.2000000000001" style="fill-opacity: 0;"/><g class="node-entered" transform="translate(0,28.60000000000005)"><path class="node-label-guide" id="274f52_0_node_9" d="M24,0L540,0" transform="matrix(1 0 0 1 0 0)"/><text class="node-label" transform="scale(1 1)" style="cursor: default; fill: rgb(42, 63, 95); text-shadow: rgb(255, 255, 255) -1px 1px 1px, rgb(255, 255, 255) 1px 1px 1px, rgb(255, 255, 255) 1px -1px 1px, rgb(255, 255, 255) -1px -1px 1px; font-family: 'Open Sans', verdana, arial, sans-serif; font-size: 10px; fill-opacity: 1;"><textPath class="node-label-text-path" alignment-baseline="middle" xlink:href="#274f52_0_node_9" startOffset="0%" text-anchor="start" style="fill: rgb(0, 0, 0);">B5</textPath></text></g></g><g class="sankey-node" transform="translate(346.667,105.280)" style="opacity: 1;"><rect class="node-rect" width="20" height="34.56" style="stroke-width: 0; stroke: rgb(128, 0, 128); stroke-opacity: 1; fill: rgb(87, 74, 226); fill-opacity: 1;"/><rect class="node-capture" x="-10" y="-10" width="40" height="54.56" style="fill-opacity: 0;"/><g class="node-entered" transform="translate(0,18.28)"><path class="node-label-guide" id="274f52_0_node_10" d="M24,0L540,0" transform="matrix(1 0 0 1 0 0)"/><text class="node-label" transform="scale(1 1)" style="cursor: default; fill: rgb(42, 63, 95); text-shadow: rgb(255, 255, 255) -1px 1px 1px, rgb(255, 255, 255) 1px 1px 1px, rgb(255, 255, 255) 1px -1px 1px, rgb(255, 255, 255) -1px -1px 1px; font-family: 'Open Sans', verdana, arial, sans-serif; font-size: 10px; fill-opacity: 1;"><textPath class="node-label-text-path" alignment-baseline="middle" xlink:href="#274f52_0_node_10" startOffset="0%" text-anchor="start" style="fill: rgb(0, 0, 0);">C1</textPath></text></g></g><g class="sankey-node" transform="translate(346.667,20.000)" style="opacity: 1;"><rect class="node-rect" width="20" height="65.28000000000003" style="stroke-width: 0; stroke: rgb(128, 0, 128); stroke-opacity: 1; fill: rgb(87, 74, 226); fill-opacity: 1;"/><rect class="node-capture" x="-10" y="-10" width="40" height="85.28000000000003" style="fill-opacity: 0;"/><g class="node-entered" transform="translate(0,33.640000000000015)"><path class="node-label-guide" id="274f52_0_node_11" d="M24,0L540,0" transform="matrix(1 0 0 1 0 0)"/><text class="node-label" transform="scale(1 1)" style="cursor: default; fill: rgb(42, 63, 95); text-shadow: rgb(255, 255, 255) -1px 1px 1px, rgb(255, 255, 255) 1px 1px 1px, rgb(255, 255, 255) 1px -1px 1px, rgb(255, 255, 255) -1px -1px 1px; font-family: 'Open Sans', verdana, arial, sans-serif; font-size: 10px; fill-opacity: 1;"><textPath class="node-label-text-path" alignment-baseline="middle" xlink:href="#274f52_0_node_11" startOffset="0%" text-anchor="start" style="fill: rgb(0, 0, 0);">C2</textPath></text></g></g><g class="sankey-node" transform="translate(346.667,202.400)" style="opacity: 1;"><rect class="node-rect" width="20" height="117.60000000000036" style="stroke-width: 0; stroke: rgb(128, 0, 128); stroke-opacity: 1; fill: rgb(87, 74, 226); fill-opacity: 1;"/><rect class="node-capture" x="-10" y="-10" width="40" height="137.60000000000036" style="fill-opacity: 0;"/><g class="node-entered" transform="translate(0,59.80000000000018)"><path class="node-label-guide" id="274f52_0_node_12" d="M24,0L540,0" transform="matrix(1 0 0 1 0 0)"/><text class="node-label" transform="scale(1 1)" style="cursor: default; fill: rgb(42, 63, 95); text-shadow: rgb(255, 255, 255) -1px 1px 1px, rgb(255, 255, 255) 1px 1px 1px, rgb(255, 255, 255) 1px -1px 1px, rgb(255, 255, 255) -1px -1px 1px; font-family: 'Open Sans', verdana, arial, sans-serif; font-size: 10px; fill-opacity: 1;"><textPath class="node-label-text-path" alignment-baseline="middle" xlink:href="#274f52_0_node_12" startOffset="0%" text-anchor="start" style="fill: rgb(0, 0, 0);">C3</textPath></text></g></g><g class="sankey-node" transform="translate(346.667,159.840)" style="opacity: 1;"><rect class="node-rect" width="20" height="22.560000000000002" style="stroke-width: 0; stroke: rgb(128, 0, 128); stroke-opacity: 1; fill: rgb(87, 74, 226); fill-opacity: 1;"/><rect class="node-capture" x="-10" y="-10" width="40" height="42.56" style="fill-opacity: 0;"/><g class="node-entered" transform="translate(0,12.280000000000001)"><path class="node-label-guide" id="274f52_0_node_13" d="M24,0L540,0" transform="matrix(1 0 0 1 0 0)"/><text class="node-label" transform="scale(1 1)" style="cursor: default; fill: rgb(42, 63, 95); text-shadow: rgb(255, 255, 255) -1px 1px 1px, rgb(255, 255, 255) 1px 1px 1px, rgb(255, 255, 255) 1px -1px 1px, rgb(255, 255, 255) -1px -1px 1px; font-family: 'Open Sans', verdana, arial, sans-serif; font-size: 10px; fill-opacity: 1;"><textPath class="node-label-text-path" alignment-baseline="middle" xlink:href="#274f52_0_node_13" startOffset="0%" text-anchor="start" style="fill: rgb(0, 0, 0);">C4</textPath></text></g></g><g class="sankey-node" transform="translate(520.000,40.000)" style="opacity: 1;"><rect class="node-rect" width="20" height="87.83999999999995" style="stroke-width: 0; stroke: rgb(128, 0, 128); stroke-opacity: 1; fill: rgb(87, 74, 226); fill-opacity: 1;"/><rect class="node-capture" x="-10" y="-10" width="40" height="107.83999999999995" style="fill-opacity: 0;"/><g class="node-entered" transform="translate(0,44.91999999999997)"><path class="node-label-guide" id="274f52_0_node_14" d="M-540,0L-4,0" transform="matrix(1 0 0 1 0 0)"/><text class="node-label" transform="scale(1 1)" style="cursor: default; fill: rgb(42, 63, 95); text-shadow: rgb(255, 255, 255) -1px 1px 1px, rgb(255, 255, 255) 1px 1px 1px, rgb(255, 255, 255) 1px -1px 1px, rgb(255, 255, 255) -1px -1px 1px; font-family: 'Open Sans', verdana, arial, sans-serif; font-size: 10px; fill-opacity: 1;"><textPath class="node-label-text-path" alignment-baseline="middle" xlink:href="#274f52_0_node_14" startOffset="100%" text-anchor="end" style="fill: rgb(0, 0, 0);">D1</textPath></text></g></g><g class="sankey-node" transform="translate(520.000,147.840)" style="opacity: 1;"><rect class="node-rect" width="20" height="34.56000000000017" style="stroke-width: 0; stroke: rgb(128, 0, 128); stroke-opacity: 1; fill: rgb(87, 74, 226); fill-opacity: 1;"/><rect class="node-capture" x="-10" y="-10" width="40" height="54.56000000000017" style="fill-opacity: 0;"/><g class="node-entered" transform="translate(0,18.280000000000086)"><path class="node-label-guide" id="274f52_0_node_15" d="M-540,0L-4,0" transform="matrix(1 0 0 1 0 0)"/><text class="node-label" transform="scale(1 1)" style="cursor: default; fill: rgb(42, 63, 95); text-shadow: rgb(255, 255, 255) -1px 1px 1px, rgb(255, 255, 255) 1px 1px 1px, rgb(255, 255, 255) 1px -1px 1px, rgb(255, 255, 255) -1px -1px 1px; font-family: 'Open Sans', verdana, arial, sans-serif; font-size: 10px; fill-opacity: 1;"><textPath class="node-label-text-path" alignment-baseline="middle" xlink:href="#274f52_0_node_15" startOffset="100%" text-anchor="end" style="fill: rgb(0, 0, 0);">D2</textPath></text></g></g><g class="sankey-node" transform="translate(520.000,202.400)" style="opacity: 1;"><rect class="node-rect" width="20" height="117.60000000000014" style="stroke-width: 0; stroke: rgb(128, 0, 128); stroke-opacity: 1; fill: rgb(87, 74, 226); fill-opacity: 1;"/><rect class="node-capture" x="-10" y="-10" width="40" height="137.60000000000014" style="fill-opacity: 0;"/><g class="node-entered" transform="translate(0,59.80000000000007)"><path class="node-label-guide" id="274f52_0_node_16" d="M-540,0L-4,0" transform="matrix(1 0 0 1 0 0)"/><text class="node-label" transform="scale(1 1)" style="cursor: default; fill: rgb(42, 63, 95); text-shadow: rgb(255, 255, 255) -1px 1px 1px, rgb(255, 255, 255) 1px 1px 1px, rgb(255, 255, 255) 1px -1px 1px, rgb(255, 255, 255) -1px -1px 1px; font-family: 'Open Sans', verdana, arial, sans-serif; font-size: 10px; fill-opacity: 1;"><textPath class="node-label-text-path" alignment-baseline="middle" xlink:href="#274f52_0_node_16" startOffset="100%" text-anchor="end" style="fill: rgb(0, 0, 0);">D3</textPath></text></g></g></g></g><defs id="topdefs-1c756f"><g class="clips"/></defs><g class="layer-above"><g class="imagelayer"/><g class="shapelayer"/></g><g class="infolayer"><g class="g-gtitle"><text class="gtitle" x="35" y="50" text-anchor="start" dy="0em" style="font-family: 'Open Sans', verdana, arial, sans-serif; font-size: 14px; fill: rgb(42, 63, 95); opacity: 1; font-weight: normal; white-space: pre;">Sankey Diagram 47</text></g><g class="first-render"/></g></svg>