<svg class="main-svg" xmlns="http://www.w3.org/2000/svg" xmlns:xlink="http://www.w3.org/1999/xlink" width="700" height="500" style="" viewBox="0 0 700 500"><rect x="0" y="0" width="700" height="500" style="fill: rgb(255, 255, 255); fill-opacity: 1;"/><defs id="defs-23fcc3"><g class="clips"/><g class="gradients"/></defs><g class="bglayer"/><g class="layer-below"><g class="imagelayer"/><g class="shapelayer"/></g><g class="cartesianlayer"/><g class="polarlayer"/><g class="ternarylayer"/><g class="geolayer"/><g class="funnelarealayer"/><g class="pielayer"/><g class="treemaplayer"/><g class="sunburstlayer"/><g class="glimages"/><g class="sankey" transform="translate(80,100)matrix(1 0 0 1 0 0)" style="box-sizing: content-box; position: absolute; left: 0px; shape-rendering: geometricprecision; pointer-events: auto;"><g class="sankey-links" style="fill: none;"><path class="sankey-link" d="M20,106.4C96.66666666666667,106.4 96.66666666666667,237.60000000000008 173.33333333333334,237.60000000000008L173.33333333333334,242.4000000000001C96.66666666666667,242.4000000000001 96.66666666666667,111.20000000000002 20,111.20000000000002Z" style="stroke: rgb(68, 68, 68); stroke-opacity: 1; fill: rgb(0, 0, 0); fill-opacity: 0.2; stroke-width: 0; opacity: 1;"/><path class="sankey-link" d="M20,68C96.66666666666667,68 96.66666666666667,33.600000000000335 173.33333333333334,33.600000000000335L173.33333333333334,72.00000000000034C96.66666666666667,72.00000000000034 96.66666666666667,106.4 20,106.4Z" style="stroke: rgb(68, 68, 68); stroke-opacity: 1; fill: rgb(0, 0, 0); fill-opacity: 0.2; stroke-width: 0; opacity: 1;"/><path class="sankey-link" d="M20,111.2C96.66666666666667,111.2 96.66666666666667,276.80000000000007 173.33333333333334,276.80000000000007L173.33333333333334,281.6C96.66666666666667,281.6 96.66666666666667,116.00000000000001 20,116.00000000000001Z" style="stroke: rgb(68, 68, 68); stroke-opacity: 1; fill: rgb(0, 0, 0); fill-opacity: 0.2; stroke-width: 0; opacity: 1;"/><path class="sankey-link" d="M20,136.00000000000014C96.66666666666667,136.00000000000014 96.66666666666667,72.00000000000034 173.33333333333334,72.00000000000034L173.33333333333334,96.00000000000034C96.66666666666667,96.00000000000034 96.66666666666667,160.00000000000014 20,160.00000000000014Z" style="stroke: rgb(68, 68, 68); stroke-opacity: 1; fill: rgb(0, 0, 0); fill-opacity: 0.2; stroke-width: 0; opacity: 1;"/><path class="sankey-link" d="M20,174.40000000000015C96.66666666666667,174.40000000000015 96.66666666666667,281.6000000000001 173.33333333333334,281.6000000000001L173.33333333333334,291.2000000000001C96.66666666666667,291.2000000000001 96.66666666666667,184.00000000000017 20,184.00000000000017Z" style="stroke: rgb(68, 68, 68); stroke-opacity: 1; fill: rgb(0, 0, 0); fill-opacity: 0.2; stroke-width: 0; opacity: 1;"/><path class="sankey-link" d="M20,160.00000000000014C96.66666666666667,160.00000000000014 96.66666666666667,198.40000000000026 173.33333333333334,198.40000000000026L173.33333333333334,212.80000000000024C96.66666666666667,212.80000000000024 96.66666666666667,174.40000000000012 20,174.40000000000012Z" style="stroke: rgb(68, 68, 68); stroke-opacity: 1; fill: rgb(0, 0, 0); fill-opacity: 0.2; stroke-width: 0; opacity: 1;"/><path class="sankey-link" d="M20,247.20000000000007C96.66666666666667,247.20000000000007 96.66666666666667,242.4000000000001 173.33333333333334,242.4000000000001L173.33333333333334,247.2000000000001C96.66666666666667,247.2000000000001 96.66666666666667,252.00000000000009 20,252.00000000000009Z" style="stroke: rgb(68, 68, 68); stroke-opacity: 1; fill: rgb(0, 0, 0); fill-opacity: 0.2; stroke-width: 0; opacity: 1;"/><path class="sankey-link" d="M20,204.00000000000009C96.66666666666667,204.00000000000009 96.66666666666667,130.4000000000003 173.33333333333334,130.4000000000003L173.33333333333334,173.60000000000028C96.66666666666667,173.60000000000028 96.66666666666667,247.20000000000007 20,247.20000000000007Z" style="stroke: rgb(68, 68, 68); stroke-opacity: 1; fill: rgb(0, 0, 0); fill-opacity: 0.2; stroke-width: 0; opacity: 1;"/><path class="sankey-link" d="M20,281.6000000000001C96.66666666666667,281.6000000000001 96.66666666666667,247.2000000000001 173.33333333333334,247.2000000000001L173.33333333333334,256.8000000000001C96.66666666666667,256.8000000000001 96.66666666666667,291.2000000000001 20,291.2000000000001Z" style="stroke: rgb(68, 68, 68); stroke-opacity: 1; fill: rgb(0, 0, 0); fill-opacity: 0.2; stroke-width: 0; opacity: 1;"/><path class="sankey-link" d="M20,276.80000000000007C96.66666666666667,276.80000000000007 96.66666666666667,173.60000000000028 173.33333333333334,173.60000000000028L173.33333333333334,178.4000000000003C96.66666666666667,178.4000000000003 96.66666666666667,281.6 20,281.6Z" style="stroke: rgb(68, 68, 68); stroke-opacity: 1; fill: rgb(0, 0, 0); fill-opacity: 0.2; stroke-width: 0; opacity: 1;"/><path class="sankey-link" d="M20,272.00000000000006C96.66666666666667,272.00000000000006 96.66666666666667,96.00000000000034 173.33333333333334,96.00000000000034L173.33333333333334,100.80000000000035C96.66666666666667,100.80000000000035 96.66666666666667,276.8 20,276.8Z" style="stroke: rgb(68, 68, 68); stroke-opacity: 1; fill: rgb(0, 0, 0); fill-opacity: 0.2; stroke-width: 0; opacity: 1;"/><path class="sankey-link" d="M20,291.2000000000001C96.66666666666667,291.2000000000001 96.66666666666667,291.2000000000001 173.33333333333334,291.2000000000001L173.33333333333334,320.00000000000006C96.66666666666667,320.00000000000006 96.66666666666667,320.00000000000006 20,320.00000000000006Z" style="stroke: rgb(68, 68, 68); stroke-opacity: 1; fill: rgb(0, 0, 0); fill-opacity: 0.2; stroke-width: 0; opacity: 1;"/><path class="sankey-link" d="M20,43.199999999999946C96.66666666666667,43.199999999999946 96.66666666666667,232.80000000000007 173.33333333333334,232.80000000000007L173.33333333333334,237.60000000000008C96.66666666666667,237.60000000000008 96.66666666666667,47.99999999999994 20,47.99999999999994Z" style="stroke: rgb(68, 68, 68); stroke-opacity: 1; fill: rgb(0, 0, 0); fill-opacity: 0.2; stroke-width: 0; opacity: 1;"/><path class="sankey-link" d="M20,33.599999999999945C96.66666666666667,33.599999999999945 96.66666666666667,120.8000000000003 173.33333333333334,120.8000000000003L173.33333333333334,130.4000000000003C96.66666666666667,130.4000000000003 96.66666666666667,43.19999999999994 20,43.19999999999994Z" style="stroke: rgb(68, 68, 68); stroke-opacity: 1; fill: rgb(0, 0, 0); fill-opacity: 0.2; stroke-width: 0; opacity: 1;"/><path class="sankey-link" d="M20,-5.684341886080802e-14C96.66666666666667,-5.684341886080802e-14 96.66666666666667,3.410605131648481e-13 173.33333333333334,3.410605131648481e-13L173.33333333333334,33.60000000000034C96.66666666666667,33.60000000000034 96.66666666666667,33.599999999999945 20,33.599999999999945Z" style="stroke: rgb(68, 68, 68); stroke-opacity: 1; fill: rgb(0, 0, 0); fill-opacity: 0.2; stroke-width: 0; opacity: 1;"/><path class="sankey-link" d="M193.33333333333334,252.00000000000009C270,252.00000000000009 270,286.39999999999964 346.6666666666667,286.39999999999964L346.6666666666667,291.1999999999996C270,291.1999999999996 270,256.80000000000007 193.33333333333334,256.80000000000007Z" style="stroke: rgb(68, 68, 68); stroke-opacity: 1; fill: rgb(0, 0, 0); fill-opacity: 0.2; stroke-width: 0; opacity: 1;"/><path class="sankey-link" d="M193.33333333333334,247.20000000000007C270,247.20000000000007 270,256.8 346.6666666666667,256.8L346.6666666666667,261.59999999999997C270,261.59999999999997 270,252.00000000000009 193.33333333333334,252.00000000000009Z" style="stroke: rgb(68, 68, 68); stroke-opacity: 1; fill: rgb(0, 0, 0); fill-opacity: 0.2; stroke-width: 0; opacity: 1;"/><path class="sankey-link" d="M193.33333333333334,232.80000000000007C270,232.80000000000007 270,174.40000000000018 346.6666666666667,174.40000000000018L346.6666666666667,188.80000000000015C270,188.80000000000015 270,247.20000000000005 193.33333333333334,247.20000000000005Z" style="stroke: rgb(68, 68, 68); stroke-opacity: 1; fill: rgb(0, 0, 0); fill-opacity: 0.2; stroke-width: 0; opacity: 1;"/><path class="sankey-link" d="M193.33333333333334,164.00000000000028C270,164.00000000000028 270,242.4 346.6666666666667,242.4L346.6666666666667,256.8C270,256.8 270,178.40000000000026 193.33333333333334,178.40000000000026Z" style="stroke: rgb(68, 68, 68); stroke-opacity: 1; fill: rgb(0, 0, 0); fill-opacity: 0.2; stroke-width: 0; opacity: 1;"/><path class="sankey-link" d="M193.33333333333334,120.8000000000003C270,120.8000000000003 270,116.80000000000018 346.6666666666667,116.80000000000018L346.6666666666667,160.00000000000017C270,160.00000000000017 270,164.00000000000028 193.33333333333334,164.00000000000028Z" style="stroke: rgb(68, 68, 68); stroke-opacity: 1; fill: rgb(0, 0, 0); fill-opacity: 0.2; stroke-width: 0; opacity: 1;"/><path class="sankey-link" d="M193.33333333333334,3.410605131648481e-13C270,3.410605131648481e-13 270,20.000000000000274 346.6666666666667,20.000000000000274L346.6666666666667,82.40000000000028C270,82.40000000000028 270,62.40000000000034 193.33333333333334,62.40000000000034Z" style="stroke: rgb(68, 68, 68); stroke-opacity: 1; fill: rgb(0, 0, 0); fill-opacity: 0.2; stroke-width: 0; opacity: 1;"/><path class="sankey-link" d="M193.33333333333334,67.20000000000034C270,67.20000000000034 270,208.8 346.6666666666667,208.8L346.6666666666667,242.40000000000003C270,242.40000000000003 270,100.80000000000034 193.33333333333334,100.80000000000034Z" style="stroke: rgb(68, 68, 68); stroke-opacity: 1; fill: rgb(0, 0, 0); fill-opacity: 0.2; stroke-width: 0; opacity: 1;"/><path class="sankey-link" d="M193.33333333333334,62.40000000000034C270,62.40000000000034 270,112.00000000000017 346.6666666666667,112.00000000000017L346.6666666666667,116.80000000000018C270,116.80000000000018 270,67.20000000000034 193.33333333333334,67.20000000000034Z" style="stroke: rgb(68, 68, 68); stroke-opacity: 1; fill: rgb(0, 0, 0); fill-opacity: 0.2; stroke-width: 0; opacity: 1;"/><path class="sankey-link" d="M193.33333333333334,276.80000000000007C270,276.80000000000007 270,82.40000000000028 346.6666666666667,82.40000000000028L346.6666666666667,92.00000000000027C270,92.00000000000027 270,286.4000000000001 193.33333333333334,286.4000000000001Z" style="stroke: rgb(68, 68, 68); stroke-opacity: 1; fill: rgb(0, 0, 0); fill-opacity: 0.2; stroke-width: 0; opacity: 1;"/><path class="sankey-link" d="M193.33333333333334,291.2000000000001C270,291.2000000000001 270,291.19999999999965 346.6666666666667,291.19999999999965L346.6666666666667,319.9999999999996C270,319.9999999999996 270,320.00000000000006 193.33333333333334,320.00000000000006Z" style="stroke: rgb(68, 68, 68); stroke-opacity: 1; fill: rgb(0, 0, 0); fill-opacity: 0.2; stroke-width: 0; opacity: 1;"/><path class="sankey-link" d="M193.33333333333334,286.4000000000001C270,286.4000000000001 270,261.6 346.6666666666667,261.6L346.6666666666667,266.4C270,266.4 270,291.20000000000005 193.33333333333334,291.20000000000005Z" style="stroke: rgb(68, 68, 68); stroke-opacity: 1; fill: rgb(0, 0, 0); fill-opacity: 0.2; stroke-width: 0; opacity: 1;"/><path class="sankey-link" d="M193.33333333333334,198.40000000000026C270,198.40000000000026 270,160.00000000000017 346.6666666666667,160.00000000000017L346.6666666666667,174.40000000000015C270,174.40000000000015 270,212.80000000000024 193.33333333333334,212.80000000000024Z" style="stroke: rgb(68, 68, 68); stroke-opacity: 1; fill: rgb(0, 0, 0); fill-opacity: 0.2; stroke-width: 0; opacity: 1;"/><path class="sankey-link" d="M366.6666666666667,20.000000000000277C443.33333333333337,20.000000000000277 443.33333333333337,20.000000000000227 520,20.000000000000227L520,72.80000000000022C443.33333333333337,72.80000000000022 443.33333333333337,72.80000000000027 366.6666666666667,72.80000000000027Z" style="stroke: rgb(68, 68, 68); stroke-opacity: 1; fill: rgb(0, 0, 0); fill-opacity: 0.2; stroke-width: 0; opacity: 1;"/><path class="sankey-link" d="M366.6666666666667,72.80000000000027C443.33333333333337,72.80000000000027 443.33333333333337,208.80000000000027 520,208.80000000000027L520,228.00000000000026C443.33333333333337,228.00000000000026 443.33333333333337,92.00000000000026 366.6666666666667,92.00000000000026Z" style="stroke: rgb(68, 68, 68); stroke-opacity: 1; fill: rgb(0, 0, 0); fill-opacity: 0.2; stroke-width: 0; opacity: 1;"/><path class="sankey-link" d="M366.6666666666667,286.39999999999964C443.33333333333337,286.39999999999964 443.33333333333337,261.60000000000025 520,261.60000000000025L520,285.60000000000025C443.33333333333337,285.60000000000025 443.33333333333337,310.39999999999964 366.6666666666667,310.39999999999964Z" style="stroke: rgb(68, 68, 68); stroke-opacity: 1; fill: rgb(0, 0, 0); fill-opacity: 0.2; stroke-width: 0; opacity: 1;"/><path class="sankey-link" d="M366.6666666666667,310.39999999999964C443.33333333333337,310.39999999999964 443.33333333333337,310.40000000000003 520,310.40000000000003L520,320.00000000000006C443.33333333333337,320.00000000000006 443.33333333333337,319.99999999999966 366.6666666666667,319.99999999999966Z" style="stroke: rgb(68, 68, 68); stroke-opacity: 1; fill: rgb(0, 0, 0); fill-opacity: 0.2; stroke-width: 0; opacity: 1;"/><path class="sankey-link" d="M366.6666666666667,208.8C443.33333333333337,208.8 443.33333333333337,164.80000000000024 520,164.80000000000024L520,188.80000000000024C443.33333333333337,188.80000000000024 443.33333333333337,232.8 366.6666666666667,232.8Z" style="stroke: rgb(68, 68, 68); stroke-opacity: 1; fill: rgb(0, 0, 0); fill-opacity: 0.2; stroke-width: 0; opacity: 1;"/><path class="sankey-link" d="M366.6666666666667,232.8C443.33333333333337,232.8 443.33333333333337,228.00000000000026 520,228.00000000000026L520,261.60000000000025C443.33333333333337,261.60000000000025 443.33333333333337,266.40000000000003 366.6666666666667,266.40000000000003Z" style="stroke: rgb(68, 68, 68); stroke-opacity: 1; fill: rgb(0, 0, 0); fill-opacity: 0.2; stroke-width: 0; opacity: 1;"/><path class="sankey-link" d="M366.6666666666667,112.00000000000017C443.33333333333337,112.00000000000017 443.33333333333337,72.80000000000022 520,72.80000000000022L520,77.60000000000024C443.33333333333337,77.60000000000024 443.33333333333337,116.80000000000018 366.6666666666667,116.80000000000018Z" style="stroke: rgb(68, 68, 68); stroke-opacity: 1; fill: rgb(0, 0, 0); fill-opacity: 0.2; stroke-width: 0; opacity: 1;"/><path class="sankey-link" d="M366.6666666666667,116.80000000000018C443.33333333333337,116.80000000000018 443.33333333333337,97.60000000000025 520,97.60000000000025L520,164.80000000000024C443.33333333333337,164.80000000000024 443.33333333333337,184.00000000000017 366.6666666666667,184.00000000000017Z" style="stroke: rgb(68, 68, 68); stroke-opacity: 1; fill: rgb(0, 0, 0); fill-opacity: 0.2; stroke-width: 0; opacity: 1;"/><path class="sankey-link" d="M366.6666666666667,184.00000000000017C443.33333333333337,184.00000000000017 443.33333333333337,305.6 520,305.6L520,310.4C443.33333333333337,310.4 443.33333333333337,188.80000000000018 366.6666666666667,188.80000000000018Z" style="stroke: rgb(68, 68, 68); stroke-opacity: 1; fill: rgb(0, 0, 0); fill-opacity: 0.2; stroke-width: 0; opacity: 1;"/></g><g class="sankey-node-set" style="cursor: move;"><g class="sankey-node" transform="translate(0.000,68.000)" style="opacity: 1;"><rect class="node-rect" width="20" height="48.00000000000014" style="stroke-width: 0; stroke: rgb(128, 0, 128); stroke-opacity: 1; fill: rgb(99, 110, 250); fill-opacity: 0.8;"/><rect class="node-capture" x="-10" y="-10" width="40" height="68.00000000000014" style="fill-opacity: 0;"/><g class="node-entered" transform="translate(0,25.00000000000007)"><path class="node-label-guide" id="9bf061_0_node_0" d="M24,0L540,0" transform="matrix(1 0 0 1 0 0)"/><text class="node-label" transform="scale(1 1)" style="cursor: default; fill: rgb(42, 63, 95); text-shadow: rgb(255, 255, 255) -1px 1px 1px, rgb(255, 255, 255) 1px 1px 1px, rgb(255, 255, 255) 1px -1px 1px, rgb(255, 255, 255) -1px -1px 1px; font-family: 'Open Sans', verdana, arial, sans-serif; font-size: 10px; fill-opacity: 1;"><textPath class="node-label-text-path" alignment-baseline="middle" xlink:href="#9bf061_0_node_0" startOffset="0%" text-anchor="start" style="fill: rgb(0, 0, 0);">A1</textPath></text></g></g><g class="sankey-node" transform="translate(0.000,136.000)" style="opacity: 1;"><rect class="node-rect" width="20" height="47.99999999999994" style="stroke-width: 0; stroke: rgb(128, 0, 128); stroke-opacity: 1; fill: rgb(239, 85, 59); fill-opacity: 0.8;"/><rect class="node-capture" x="-10" y="-10" width="40" height="67.99999999999994" style="fill-opacity: 0;"/><g class="node-entered" transform="translate(0,24.99999999999997)"><path class="node-label-guide" id="9bf061_0_node_1" d="M24,0L540,0" transform="matrix(1 0 0 1 0 0)"/><text class="node-label" transform="scale(1 1)" style="cursor: default; fill: rgb(42, 63, 95); text-shadow: rgb(255, 255, 255) -1px 1px 1px, rgb(255, 255, 255) 1px 1px 1px, rgb(255, 255, 255) 1px -1px 1px, rgb(255, 255, 255) -1px -1px 1px; font-family: 'Open Sans', verdana, arial, sans-serif; font-size: 10px; fill-opacity: 1;"><textPath class="node-label-text-path" alignment-baseline="middle" xlink:href="#9bf061_0_node_1" startOffset="0%" text-anchor="start" style="fill: rgb(0, 0, 0);">A2</textPath></text></g></g><g class="sankey-node" transform="translate(0.000,204.000)" style="opacity: 1;"><rect class="node-rect" width="20" height="48" style="stroke-width: 0; stroke: rgb(128, 0, 128); stroke-opacity: 1; fill: rgb(0, 204, 150); fill-opacity: 0.8;"/><rect class="node-capture" x="-10" y="-10" width="40" height="68" style="fill-opacity: 0;"/><g class="node-entered" transform="translate(0,25)"><path class="node-label-guide" id="9bf061_0_node_2" d="M24,0L540,0" transform="matrix(1 0 0 1 0 0)"/><text class="node-label" transform="scale(1 1)" style="cursor: default; fill: rgb(42, 63, 95); text-shadow: rgb(255, 255, 255) -1px 1px 1px, rgb(255, 255, 255) 1px 1px 1px, rgb(255, 255, 255) 1px -1px 1px, rgb(255, 255, 255) -1px -1px 1px; font-family: 'Open Sans', verdana, arial, sans-serif; font-size: 10px; fill-opacity: 1;"><textPath class="node-label-text-path" alignment-baseline="middle" xlink:href="#9bf061_0_node_2" startOffset="0%" text-anchor="start" style="fill: rgb(0, 0, 0);">A3</textPath></text></g></g><g class="sankey-node" transform="translate(0.000,272.000)" style="opacity: 1;"><rect class="node-rect" width="20" height="47.99999999999994" style="stroke-width: 0; stroke: rgb(128, 0, 128); stroke-opacity: 1; fill: rgb(171, 99, 250); fill-opacity: 0.8;"/><rect class="node-capture" x="-10" y="-10" width="40" height="67.99999999999994" style="fill-opacity: 0;"/><g class="node-entered" transform="translate(0,24.99999999999997)"><path class="node-label-guide" id="9bf061_0_node_3" d="M24,0L540,0" transform="matrix(1 0 0 1 0 0)"/><text class="node-label" transform="scale(1 1)" style="cursor: default; fill: rgb(42, 63, 95); text-shadow: rgb(255, 255, 255) -1px 1px 1px, rgb(255, 255, 255) 1px 1px 1px, rgb(255, 255, 255) 1px -1px 1px, rgb(255, 255, 255) -1px -1px 1px; font-family: 'Open Sans', verdana, arial, sans-serif; font-size: 10px; fill-opacity: 1;"><textPath class="node-label-text-path" alignment-baseline="middle" xlink:href="#9bf061_0_node_3" startOffset="0%" text-anchor="start" style="fill: rgb(0, 0, 0);">A4</textPath></text></g></g><g class="sankey-node" transform="translate(0.000,-0.000)" style="opacity: 1;"><rect class="node-rect" width="20" height="48.00000000000005" style="stroke-width: 0; stroke: rgb(128, 0, 128); stroke-opacity: 1; fill: rgb(255, 161, 90); fill-opacity: 0.8;"/><rect class="node-capture" x="-10" y="-10" width="40" height="68.00000000000006" style="fill-opacity: 0;"/><g class="node-entered" transform="translate(0,25.000000000000025)"><path class="node-label-guide" id="9bf061_0_node_4" d="M24,0L540,0" transform="matrix(1 0 0 1 0 0)"/><text class="node-label" transform="scale(1 1)" style="cursor: default; fill: rgb(42, 63, 95); text-shadow: rgb(255, 255, 255) -1px 1px 1px, rgb(255, 255, 255) 1px 1px 1px, rgb(255, 255, 255) 1px -1px 1px, rgb(255, 255, 255) -1px -1px 1px; font-family: 'Open Sans', verdana, arial, sans-serif; font-size: 10px; fill-opacity: 1;"><textPath class="node-label-text-path" alignment-baseline="middle" xlink:href="#9bf061_0_node_4" startOffset="0%" text-anchor="start" style="fill: rgb(0, 0, 0);">A5</textPath></text></g></g><g class="sankey-node" transform="translate(173.333,232.800)" style="opacity: 1;"><rect class="node-rect" width="20" height="24" style="stroke-width: 0; stroke: rgb(128, 0, 128); stroke-opacity: 1; fill: rgb(25, 211, 243); fill-opacity: 0.8;"/><rect class="node-capture" x="-10" y="-10" width="40" height="44" style="fill-opacity: 0;"/><g class="node-entered" transform="translate(0,13)"><path class="node-label-guide" id="9bf061_0_node_5" d="M24,0L540,0" transform="matrix(1 0 0 1 0 0)"/><text class="node-label" transform="scale(1 1)" style="cursor: default; fill: rgb(42, 63, 95); text-shadow: rgb(255, 255, 255) -1px 1px 1px, rgb(255, 255, 255) 1px 1px 1px, rgb(255, 255, 255) 1px -1px 1px, rgb(255, 255, 255) -1px -1px 1px; font-family: 'Open Sans', verdana, arial, sans-serif; font-size: 10px; fill-opacity: 1;"><textPath class="node-label-text-path" alignment-baseline="middle" xlink:href="#9bf061_0_node_5" startOffset="0%" text-anchor="start" style="fill: rgb(0, 0, 0);">B1</textPath></text></g></g><g class="sankey-node" transform="translate(173.333,120.800)" style="opacity: 1;"><rect class="node-rect" width="20" height="57.599999999999966" style="stroke-width: 0; stroke: rgb(128, 0, 128); stroke-opacity: 1; fill: rgb(255, 102, 146); fill-opacity: 0.8;"/><rect class="node-capture" x="-10" y="-10" width="40" height="77.59999999999997" style="fill-opacity: 0;"/><g class="node-entered" transform="translate(0,29.799999999999983)"><path class="node-label-guide" id="9bf061_0_node_6" d="M24,0L540,0" transform="matrix(1 0 0 1 0 0)"/><text class="node-label" transform="scale(1 1)" style="cursor: default; fill: rgb(42, 63, 95); text-shadow: rgb(255, 255, 255) -1px 1px 1px, rgb(255, 255, 255) 1px 1px 1px, rgb(255, 255, 255) 1px -1px 1px, rgb(255, 255, 255) -1px -1px 1px; font-family: 'Open Sans', verdana, arial, sans-serif; font-size: 10px; fill-opacity: 1;"><textPath class="node-label-text-path" alignment-baseline="middle" xlink:href="#9bf061_0_node_6" startOffset="0%" text-anchor="start" style="fill: rgb(0, 0, 0);">B2</textPath></text></g></g><g class="sankey-node" transform="translate(173.333,0.000)" style="opacity: 1;"><rect class="node-rect" width="20" height="100.79999999999994" style="stroke-width: 0; stroke: rgb(128, 0, 128); stroke-opacity: 1; fill: rgb(182, 232, 128); fill-opacity: 0.8;"/><rect class="node-capture" x="-10" y="-10" width="40" height="120.79999999999994" style="fill-opacity: 0;"/><g class="node-entered" transform="translate(0,51.39999999999997)"><path class="node-label-guide" id="9bf061_0_node_7" d="M24,0L540,0" transform="matrix(1 0 0 1 0 0)"/><text class="node-label" transform="scale(1 1)" style="cursor: default; fill: rgb(42, 63, 95); text-shadow: rgb(255, 255, 255) -1px 1px 1px, rgb(255, 255, 255) 1px 1px 1px, rgb(255, 255, 255) 1px -1px 1px, rgb(255, 255, 255) -1px -1px 1px; font-family: 'Open Sans', verdana, arial, sans-serif; font-size: 10px; fill-opacity: 1;"><textPath class="node-label-text-path" alignment-baseline="middle" xlink:href="#9bf061_0_node_7" startOffset="0%" text-anchor="start" style="fill: rgb(0, 0, 0);">B3</textPath></text></g></g><g class="sankey-node" transform="translate(173.333,276.800)" style="opacity: 1;"><rect class="node-rect" width="20" height="43.19999999999993" style="stroke-width: 0; stroke: rgb(128, 0, 128); stroke-opacity: 1; fill: rgb(255, 151, 255); fill-opacity: 0.8;"/><rect class="node-capture" x="-10" y="-10" width="40" height="63.19999999999993" style="fill-opacity: 0;"/><g class="node-entered" transform="translate(0,22.599999999999966)"><path class="node-label-guide" id="9bf061_0_node_8" d="M24,0L540,0" transform="matrix(1 0 0 1 0 0)"/><text class="node-label" transform="scale(1 1)" style="cursor: default; fill: rgb(42, 63, 95); text-shadow: rgb(255, 255, 255) -1px 1px 1px, rgb(255, 255, 255) 1px 1px 1px, rgb(255, 255, 255) 1px -1px 1px, rgb(255, 255, 255) -1px -1px 1px; font-family: 'Open Sans', verdana, arial, sans-serif; font-size: 10px; fill-opacity: 1;"><textPath class="node-label-text-path" alignment-baseline="middle" xlink:href="#9bf061_0_node_8" startOffset="0%" text-anchor="start" style="fill: rgb(0, 0, 0);">B4</textPath></text></g></g><g class="sankey-node" transform="translate(173.333,198.400)" style="opacity: 1;"><rect class="node-rect" width="20" height="14.399999999999807" style="stroke-width: 0; stroke: rgb(128, 0, 128); stroke-opacity: 1; fill: rgb(254, 203, 82); fill-opacity: 0.8;"/><rect class="node-capture" x="-10" y="-10" width="40" height="34.39999999999981" style="fill-opacity: 0;"/><g class="node-entered" transform="translate(0,8.199999999999903)"><path class="node-label-guide" id="9bf061_0_node_9" d="M24,0L540,0" transform="matrix(1 0 0 1 0 0)"/><text class="node-label" transform="scale(1 1)" style="cursor: default; fill: rgb(42, 63, 95); text-shadow: rgb(255, 255, 255) -1px 1px 1px, rgb(255, 255, 255) 1px 1px 1px, rgb(255, 255, 255) 1px -1px 1px, rgb(255, 255, 255) -1px -1px 1px; font-family: 'Open Sans', verdana, arial, sans-serif; font-size: 10px; fill-opacity: 1;"><textPath class="node-label-text-path" alignment-baseline="middle" xlink:href="#9bf061_0_node_9" startOffset="0%" text-anchor="start" style="fill: rgb(0, 0, 0);">B5</textPath></text></g></g><g class="sankey-node" transform="translate(346.667,20.000)" style="opacity: 1;"><rect class="node-rect" width="20" height="71.99999999999989" style="stroke-width: 0; stroke: rgb(128, 0, 128); stroke-opacity: 1; fill: rgb(99, 110, 250); fill-opacity: 0.8;"/><rect class="node-capture" x="-10" y="-10" width="40" height="91.99999999999989" style="fill-opacity: 0;"/><g class="node-entered" transform="translate(0,36.99999999999994)"><path class="node-label-guide" id="9bf061_0_node_10" d="M24,0L540,0" transform="matrix(1 0 0 1 0 0)"/><text class="node-label" transform="scale(1 1)" style="cursor: default; fill: rgb(42, 63, 95); text-shadow: rgb(255, 255, 255) -1px 1px 1px, rgb(255, 255, 255) 1px 1px 1px, rgb(255, 255, 255) 1px -1px 1px, rgb(255, 255, 255) -1px -1px 1px; font-family: 'Open Sans', verdana, arial, sans-serif; font-size: 10px; fill-opacity: 1;"><textPath class="node-label-text-path" alignment-baseline="middle" xlink:href="#9bf061_0_node_10" startOffset="0%" text-anchor="start" style="fill: rgb(0, 0, 0);">C1</textPath></text></g></g><g class="sankey-node" transform="translate(346.667,286.400)" style="opacity: 1;"><rect class="node-rect" width="20" height="33.600000000000364" style="stroke-width: 0; stroke: rgb(128, 0, 128); stroke-opacity: 1; fill: rgb(239, 85, 59); fill-opacity: 0.8;"/><rect class="node-capture" x="-10" y="-10" width="40" height="53.600000000000364" style="fill-opacity: 0;"/><g class="node-entered" transform="translate(0,17.800000000000182)"><path class="node-label-guide" id="9bf061_0_node_11" d="M24,0L540,0" transform="matrix(1 0 0 1 0 0)"/><text class="node-label" transform="scale(1 1)" style="cursor: default; fill: rgb(42, 63, 95); text-shadow: rgb(255, 255, 255) -1px 1px 1px, rgb(255, 255, 255) 1px 1px 1px, rgb(255, 255, 255) 1px -1px 1px, rgb(255, 255, 255) -1px -1px 1px; font-family: 'Open Sans', verdana, arial, sans-serif; font-size: 10px; fill-opacity: 1;"><textPath class="node-label-text-path" alignment-baseline="middle" xlink:href="#9bf061_0_node_11" startOffset="0%" text-anchor="start" style="fill: rgb(0, 0, 0);">C2</textPath></text></g></g><g class="sankey-node" transform="translate(346.667,208.800)" style="opacity: 1;"><rect class="node-rect" width="20" height="57.599999999999625" style="stroke-width: 0; stroke: rgb(128, 0, 128); stroke-opacity: 1; fill: rgb(0, 204, 150); fill-opacity: 0.8;"/><rect class="node-capture" x="-10" y="-10" width="40" height="77.59999999999962" style="fill-opacity: 0;"/><g class="node-entered" transform="translate(0,29.799999999999812)"><path class="node-label-guide" id="9bf061_0_node_12" d="M24,0L540,0" transform="matrix(1 0 0 1 0 0)"/><text class="node-label" transform="scale(1 1)" style="cursor: default; fill: rgb(42, 63, 95); text-shadow: rgb(255, 255, 255) -1px 1px 1px, rgb(255, 255, 255) 1px 1px 1px, rgb(255, 255, 255) 1px -1px 1px, rgb(255, 255, 255) -1px -1px 1px; font-family: 'Open Sans', verdana, arial, sans-serif; font-size: 10px; fill-opacity: 1;"><textPath class="node-label-text-path" alignment-baseline="middle" xlink:href="#9bf061_0_node_12" startOffset="0%" text-anchor="start" style="fill: rgb(0, 0, 0);">C3</textPath></text></g></g><g class="sankey-node" transform="translate(346.667,112.000)" style="opacity: 1;"><rect class="node-rect" width="20" height="76.79999999999984" style="stroke-width: 0; stroke: rgb(128, 0, 128); stroke-opacity: 1; fill: rgb(171, 99, 250); fill-opacity: 0.8;"/><rect class="node-capture" x="-10" y="-10" width="40" height="96.79999999999984" style="fill-opacity: 0;"/><g class="node-entered" transform="translate(0,39.39999999999992)"><path class="node-label-guide" id="9bf061_0_node_13" d="M24,0L540,0" transform="matrix(1 0 0 1 0 0)"/><text class="node-label" transform="scale(1 1)" style="cursor: default; fill: rgb(42, 63, 95); text-shadow: rgb(255, 255, 255) -1px 1px 1px, rgb(255, 255, 255) 1px 1px 1px, rgb(255, 255, 255) 1px -1px 1px, rgb(255, 255, 255) -1px -1px 1px; font-family: 'Open Sans', verdana, arial, sans-serif; font-size: 10px; fill-opacity: 1;"><textPath class="node-label-text-path" alignment-baseline="middle" xlink:href="#9bf061_0_node_13" startOffset="0%" text-anchor="start" style="fill: rgb(0, 0, 0);">C4</textPath></text></g></g><g class="sankey-node" transform="translate(520.000,20.000)" style="opacity: 1;"><rect class="node-rect" width="20" height="57.60000000000002" style="stroke-width: 0; stroke: rgb(128, 0, 128); stroke-opacity: 1; fill: rgb(255, 161, 90); fill-opacity: 0.8;"/><rect class="node-capture" x="-10" y="-10" width="40" height="77.60000000000002" style="fill-opacity: 0;"/><g class="node-entered" transform="translate(0,29.80000000000001)"><path class="node-label-guide" id="9bf061_0_node_14" d="M-540,0L-4,0" transform="matrix(1 0 0 1 0 0)"/><text class="node-label" transform="scale(1 1)" style="cursor: default; fill: rgb(42, 63, 95); text-shadow: rgb(255, 255, 255) -1px 1px 1px, rgb(255, 255, 255) 1px 1px 1px, rgb(255, 255, 255) 1px -1px 1px, rgb(255, 255, 255) -1px -1px 1px; font-family: 'Open Sans', verdana, arial, sans-serif; font-size: 10px; fill-opacity: 1;"><textPath class="node-label-text-path" alignment-baseline="middle" xlink:href="#9bf061_0_node_14" startOffset="100%" text-anchor="end" style="fill: rgb(0, 0, 0);">D1</textPath></text></g></g><g class="sankey-node" transform="translate(520.000,97.600)" style="opacity: 1;"><rect class="node-rect" width="20" height="91.20000000000002" style="stroke-width: 0; stroke: rgb(128, 0, 128); stroke-opacity: 1; fill: rgb(255, 102, 146); fill-opacity: 0.8;"/><rect class="node-capture" x="-10" y="-10" width="40" height="111.20000000000002" style="fill-opacity: 0;"/><g class="node-entered" transform="translate(0,46.60000000000001)"><path class="node-label-guide" id="9bf061_0_node_16" d="M-540,0L-4,0" transform="matrix(1 0 0 1 0 0)"/><text class="node-label" transform="scale(1 1)" style="cursor: default; fill: rgb(42, 63, 95); text-shadow: rgb(255, 255, 255) -1px 1px 1px, rgb(255, 255, 255) 1px 1px 1px, rgb(255, 255, 255) 1px -1px 1px, rgb(255, 255, 255) -1px -1px 1px; font-family: 'Open Sans', verdana, arial, sans-serif; font-size: 10px; fill-opacity: 1;"><textPath class="node-label-text-path" alignment-baseline="middle" xlink:href="#9bf061_0_node_16" startOffset="100%" text-anchor="end" style="fill: rgb(0, 0, 0);">D3</textPath></text></g></g><g class="sankey-node" transform="translate(520.000,208.800)" style="opacity: 1;"><rect class="node-rect" width="20" height="76.79999999999976" style="stroke-width: 0; stroke: rgb(128, 0, 128); stroke-opacity: 1; fill: rgb(182, 232, 128); fill-opacity: 0.8;"/><rect class="node-capture" x="-10" y="-10" width="40" height="96.79999999999976" style="fill-opacity: 0;"/><g class="node-entered" transform="translate(0,39.39999999999988)"><path class="node-label-guide" id="9bf061_0_node_17" d="M-540,0L-4,0" transform="matrix(1 0 0 1 0 0)"/><text class="node-label" transform="scale(1 1)" style="cursor: default; fill: rgb(42, 63, 95); text-shadow: rgb(255, 255, 255) -1px 1px 1px, rgb(255, 255, 255) 1px 1px 1px, rgb(255, 255, 255) 1px -1px 1px, rgb(255, 255, 255) -1px -1px 1px; font-family: 'Open Sans', verdana, arial, sans-serif; font-size: 10px; fill-opacity: 1;"><textPath class="node-label-text-path" alignment-baseline="middle" xlink:href="#9bf061_0_node_17" startOffset="100%" text-anchor="end" style="fill: rgb(0, 0, 0);">D4</textPath></text></g></g><g class="sankey-node" transform="translate(520.000,305.600)" style="opacity: 1;"><rect class="node-rect" width="20" height="14.399999999999977" style="stroke-width: 0; stroke: rgb(128, 0, 128); stroke-opacity: 1; fill: rgb(255, 151, 255); fill-opacity: 0.8;"/><rect class="node-capture" x="-10" y="-10" width="40" height="34.39999999999998" style="fill-opacity: 0;"/><g class="node-entered" transform="translate(0,8.199999999999989)"><path class="node-label-guide" id="9bf061_0_node_18" d="M-540,0L-4,0" transform="matrix(1 0 0 1 0 0)"/><text class="node-label" transform="scale(1 1)" style="cursor: default; fill: rgb(42, 63, 95); text-shadow: rgb(255, 255, 255) -1px 1px 1px, rgb(255, 255, 255) 1px 1px 1px, rgb(255, 255, 255) 1px -1px 1px, rgb(255, 255, 255) -1px -1px 1px; font-family: 'Open Sans', verdana, arial, sans-serif; font-size: 10px; fill-opacity: 1;"><textPath class="node-label-text-path" alignment-baseline="middle" xlink:href="#9bf061_0_node_18" startOffset="100%" text-anchor="end" style="fill: rgb(0, 0, 0);">D5</textPath></text></g></g></g></g><defs id="topdefs-23fcc3"><g class="clips"/></defs><g class="layer-above"><g class="imagelayer"/><g class="shapelayer"/></g><g class="infolayer"><g class="g-gtitle"><text class="gtitle" x="35" y="50" text-anchor="start" dy="0em" style="font-family: 'Open Sans', verdana, arial, sans-serif; font-size: 14px; fill: rgb(42, 63, 95); opacity: 1; font-weight: normal; white-space: pre;">Sankey Diagram 27</text></g><g class="first-render"/></g></svg>