<svg class="main-svg" xmlns="http://www.w3.org/2000/svg" xmlns:xlink="http://www.w3.org/1999/xlink" width="700" height="500" style="" viewBox="0 0 700 500"><rect x="0" y="0" width="700" height="500" style="fill: rgb(255, 255, 255); fill-opacity: 1;"/><defs id="defs-e9651d"><g class="clips"/><g class="gradients"/></defs><g class="bglayer"/><g class="layer-below"><g class="imagelayer"/><g class="shapelayer"/></g><g class="cartesianlayer"/><g class="polarlayer"/><g class="ternarylayer"/><g class="geolayer"/><g class="funnelarealayer"/><g class="pielayer"/><g class="treemaplayer"/><g class="sunburstlayer"/><g class="glimages"/><g class="sankey" transform="translate(80,100)matrix(1 0 0 1 0 0)" style="box-sizing: content-box; position: absolute; left: 0px; shape-rendering: geometricprecision; pointer-events: auto;"><g class="sankey-links" style="fill: none;"><path class="sankey-link" d="M20,135.99999999999994C47.142857142857146,135.99999999999994 47.142857142857146,51.68000000000011 74.28571428571429,51.68000000000011L74.28571428571429,75.20000000000012C47.142857142857146,75.20000000000012 47.142857142857146,159.51999999999992 20,159.51999999999992Z" style="stroke: rgb(68, 68, 68); stroke-opacity: 1; fill: rgb(0, 0, 0); fill-opacity: 0.2; stroke-width: 0; opacity: 1;"/><path class="sankey-link" d="M20,169.11999999999998C47.142857142857146,169.11999999999998 47.142857142857146,245.59999999999997 74.28571428571429,245.59999999999997L74.28571428571429,260.47999999999996C47.142857142857146,260.47999999999996 47.142857142857146,183.99999999999997 20,183.99999999999997Z" style="stroke: rgb(68, 68, 68); stroke-opacity: 1; fill: rgb(0, 0, 0); fill-opacity: 0.2; stroke-width: 0; opacity: 1;"/><path class="sankey-link" d="M20,159.51999999999995C47.142857142857146,159.51999999999995 47.142857142857146,145.60000000000002 74.28571428571429,145.60000000000002L74.28571428571429,150.40000000000003C47.142857142857146,150.40000000000003 47.142857142857146,164.31999999999996 20,164.31999999999996Z" style="stroke: rgb(68, 68, 68); stroke-opacity: 1; fill: rgb(0, 0, 0); fill-opacity: 0.2; stroke-width: 0; opacity: 1;"/><path class="sankey-link" d="M20,164.31999999999996C47.142857142857146,164.31999999999996 47.142857142857146,212.16000000000008 74.28571428571429,212.16000000000008L74.28571428571429,216.9600000000001C47.142857142857146,216.9600000000001 47.142857142857146,169.11999999999998 20,169.11999999999998Z" style="stroke: rgb(68, 68, 68); stroke-opacity: 1; fill: rgb(0, 0, 0); fill-opacity: 0.2; stroke-width: 0; opacity: 1;"/><path class="sankey-link" d="M20,67.99999999999999C47.142857142857146,67.99999999999999 47.142857142857146,26.720000000000116 74.28571428571429,26.720000000000116L74.28571428571429,51.68000000000012C47.142857142857146,51.68000000000012 47.142857142857146,92.96 20,92.96Z" style="stroke: rgb(68, 68, 68); stroke-opacity: 1; fill: rgb(0, 0, 0); fill-opacity: 0.2; stroke-width: 0; opacity: 1;"/><path class="sankey-link" d="M20,107.35999999999999C47.142857142857146,107.35999999999999 47.142857142857146,236.95999999999998 74.28571428571429,236.95999999999998L74.28571428571429,245.59999999999997C47.142857142857146,245.59999999999997 47.142857142857146,115.99999999999997 20,115.99999999999997Z" style="stroke: rgb(68, 68, 68); stroke-opacity: 1; fill: rgb(0, 0, 0); fill-opacity: 0.2; stroke-width: 0; opacity: 1;"/><path class="sankey-link" d="M20,92.95999999999998C47.142857142857146,92.95999999999998 47.142857142857146,138.40000000000003 74.28571428571429,138.40000000000003L74.28571428571429,145.60000000000002C47.142857142857146,145.60000000000002 47.142857142857146,100.15999999999997 20,100.15999999999997Z" style="stroke: rgb(68, 68, 68); stroke-opacity: 1; fill: rgb(0, 0, 0); fill-opacity: 0.2; stroke-width: 0; opacity: 1;"/><path class="sankey-link" d="M20,100.15999999999998C47.142857142857146,100.15999999999998 47.142857142857146,204.9600000000001 74.28571428571429,204.9600000000001L74.28571428571429,212.16000000000008C47.142857142857146,212.16000000000008 47.142857142857146,107.35999999999997 20,107.35999999999997Z" style="stroke: rgb(68, 68, 68); stroke-opacity: 1; fill: rgb(0, 0, 0); fill-opacity: 0.2; stroke-width: 0; opacity: 1;"/><path class="sankey-link" d="M20,282.08C47.142857142857146,282.08 47.142857142857146,282.08 74.28571428571429,282.08L74.28571428571429,319.99999999999994C47.142857142857146,319.99999999999994 47.142857142857146,319.99999999999994 20,319.99999999999994Z" style="stroke: rgb(68, 68, 68); stroke-opacity: 1; fill: rgb(0, 0, 0); fill-opacity: 0.2; stroke-width: 0; opacity: 1;"/><path class="sankey-link" d="M20,272C47.142857142857146,272 47.142857142857146,75.20000000000012 74.28571428571429,75.20000000000012L74.28571428571429,85.28000000000013C47.142857142857146,85.28000000000013 47.142857142857146,282.08000000000004 20,282.08000000000004Z" style="stroke: rgb(68, 68, 68); stroke-opacity: 1; fill: rgb(0, 0, 0); fill-opacity: 0.2; stroke-width: 0; opacity: 1;"/><path class="sankey-link" d="M20,204C47.142857142857146,204 47.142857142857146,150.40000000000003 74.28571428571429,150.40000000000003L74.28571428571429,176.8C47.142857142857146,176.8 47.142857142857146,230.39999999999998 20,230.39999999999998Z" style="stroke: rgb(68, 68, 68); stroke-opacity: 1; fill: rgb(0, 0, 0); fill-opacity: 0.2; stroke-width: 0; opacity: 1;"/><path class="sankey-link" d="M20,230.4C47.142857142857146,230.4 47.142857142857146,260.47999999999996 74.28571428571429,260.47999999999996L74.28571428571429,282.08C47.142857142857146,282.08 47.142857142857146,252.00000000000003 20,252.00000000000003Z" style="stroke: rgb(68, 68, 68); stroke-opacity: 1; fill: rgb(0, 0, 0); fill-opacity: 0.2; stroke-width: 0; opacity: 1;"/><path class="sankey-link" d="M20,6.719999999999942C47.142857142857146,6.719999999999942 47.142857142857146,105.28000000000003 74.28571428571429,105.28000000000003L74.28571428571429,138.40000000000003C47.142857142857146,138.40000000000003 47.142857142857146,39.83999999999994 20,39.83999999999994Z" style="stroke: rgb(68, 68, 68); stroke-opacity: 1; fill: rgb(0, 0, 0); fill-opacity: 0.2; stroke-width: 0; opacity: 1;"/><path class="sankey-link" d="M20,-5.684341886080802e-14C47.142857142857146,-5.684341886080802e-14 47.142857142857146,20.000000000000114 74.28571428571429,20.000000000000114L74.28571428571429,26.720000000000113C47.142857142857146,26.720000000000113 47.142857142857146,6.719999999999943 20,6.719999999999943Z" style="stroke: rgb(68, 68, 68); stroke-opacity: 1; fill: rgb(0, 0, 0); fill-opacity: 0.2; stroke-width: 0; opacity: 1;"/><path class="sankey-link" d="M20,39.83999999999994C47.142857142857146,39.83999999999994 47.142857142857146,196.8000000000001 74.28571428571429,196.8000000000001L74.28571428571429,204.96000000000012C47.142857142857146,204.96000000000012 47.142857142857146,47.999999999999936 20,47.999999999999936Z" style="stroke: rgb(68, 68, 68); stroke-opacity: 1; fill: rgb(0, 0, 0); fill-opacity: 0.2; stroke-width: 0; opacity: 1;"/><path class="sankey-link" d="M94.28571428571429,105.28000000000003C121.42857142857144,105.28000000000003 121.42857142857144,76.1600000000002 148.57142857142858,76.1600000000002L148.57142857142858,118.4000000000002C121.42857142857144,118.4000000000002 121.42857142857144,147.52000000000004 94.28571428571429,147.52000000000004Z" style="stroke: rgb(68, 68, 68); stroke-opacity: 1; fill: rgb(0, 0, 0); fill-opacity: 0.2; stroke-width: 0; opacity: 1;"/><path class="sankey-link" d="M94.28571428571429,147.52000000000004C121.42857142857144,147.52000000000004 121.42857142857144,147.5200000000001 148.57142857142858,147.5200000000001L148.57142857142858,161.92000000000007C121.42857142857144,161.92000000000007 121.42857142857144,161.92000000000002 94.28571428571429,161.92000000000002Z" style="stroke: rgb(68, 68, 68); stroke-opacity: 1; fill: rgb(0, 0, 0); fill-opacity: 0.2; stroke-width: 0; opacity: 1;"/><path class="sankey-link" d="M94.28571428571429,161.92000000000004C121.42857142857144,161.92000000000004 121.42857142857144,251.5200000000001 148.57142857142858,251.5200000000001L148.57142857142858,258.7200000000001C121.42857142857144,258.7200000000001 121.42857142857144,169.12000000000003 94.28571428571429,169.12000000000003Z" style="stroke: rgb(68, 68, 68); stroke-opacity: 1; fill: rgb(0, 0, 0); fill-opacity: 0.2; stroke-width: 0; opacity: 1;"/><path class="sankey-link" d="M94.28571428571429,169.12000000000003C121.42857142857144,169.12000000000003 121.42857142857144,299.36 148.57142857142858,299.36L148.57142857142858,307.03999999999996C121.42857142857144,307.03999999999996 121.42857142857144,176.80000000000004 94.28571428571429,176.80000000000004Z" style="stroke: rgb(68, 68, 68); stroke-opacity: 1; fill: rgb(0, 0, 0); fill-opacity: 0.2; stroke-width: 0; opacity: 1;"/><path class="sankey-link" d="M94.28571428571429,20.000000000000114C121.42857142857144,20.000000000000114 121.42857142857144,20.000000000000206 148.57142857142858,20.000000000000206L148.57142857142858,76.1600000000002C121.42857142857144,76.1600000000002 121.42857142857144,76.16000000000011 94.28571428571429,76.16000000000011Z" style="stroke: rgb(68, 68, 68); stroke-opacity: 1; fill: rgb(0, 0, 0); fill-opacity: 0.2; stroke-width: 0; opacity: 1;"/><path class="sankey-link" d="M94.28571428571429,76.16000000000011C121.42857142857144,76.16000000000011 121.42857142857144,138.4000000000001 148.57142857142858,138.4000000000001L148.57142857142858,147.5200000000001C121.42857142857144,147.5200000000001 121.42857142857144,85.28000000000011 94.28571428571429,85.28000000000011Z" style="stroke: rgb(68, 68, 68); stroke-opacity: 1; fill: rgb(0, 0, 0); fill-opacity: 0.2; stroke-width: 0; opacity: 1;"/><path class="sankey-link" d="M94.28571428571429,236.95999999999998C121.42857142857144,236.95999999999998 121.42857142857144,169.1200000000001 148.57142857142858,169.1200000000001L148.57142857142858,231.52000000000007C121.42857142857144,231.52000000000007 121.42857142857144,299.35999999999996 94.28571428571429,299.35999999999996Z" style="stroke: rgb(68, 68, 68); stroke-opacity: 1; fill: rgb(0, 0, 0); fill-opacity: 0.2; stroke-width: 0; opacity: 1;"/><path class="sankey-link" d="M94.28571428571429,299.35999999999996C121.42857142857144,299.35999999999996 121.42857142857144,258.7200000000001 148.57142857142858,258.7200000000001L148.57142857142858,279.36000000000007C121.42857142857144,279.36000000000007 121.42857142857144,319.99999999999994 94.28571428571429,319.99999999999994Z" style="stroke: rgb(68, 68, 68); stroke-opacity: 1; fill: rgb(0, 0, 0); fill-opacity: 0.2; stroke-width: 0; opacity: 1;"/><path class="sankey-link" d="M94.28571428571429,204.00000000000009C121.42857142857144,204.00000000000009 121.42857142857144,307.04 148.57142857142858,307.04L148.57142857142858,320.00000000000006C121.42857142857144,320.00000000000006 121.42857142857144,216.96000000000006 94.28571428571429,216.96000000000006Z" style="stroke: rgb(68, 68, 68); stroke-opacity: 1; fill: rgb(0, 0, 0); fill-opacity: 0.2; stroke-width: 0; opacity: 1;"/><path class="sankey-link" d="M94.28571428571429,196.8000000000001C121.42857142857144,196.8000000000001 121.42857142857144,161.9200000000001 148.57142857142858,161.9200000000001L148.57142857142858,169.1200000000001C121.42857142857144,169.1200000000001 121.42857142857144,204.00000000000009 94.28571428571429,204.00000000000009Z" style="stroke: rgb(68, 68, 68); stroke-opacity: 1; fill: rgb(0, 0, 0); fill-opacity: 0.2; stroke-width: 0; opacity: 1;"/><path class="sankey-link" d="M168.57142857142858,20.000000000000206C195.71428571428572,20.000000000000206 195.71428571428572,19.999999999999872 222.8571428571429,19.999999999999872L222.8571428571429,47.35999999999987C195.71428571428572,47.35999999999987 195.71428571428572,47.360000000000205 168.57142857142858,47.360000000000205Z" style="stroke: rgb(68, 68, 68); stroke-opacity: 1; fill: rgb(0, 0, 0); fill-opacity: 0.2; stroke-width: 0; opacity: 1;"/><path class="sankey-link" d="M168.57142857142858,66.5600000000002C195.71428571428572,66.5600000000002 195.71428571428572,208.32 222.8571428571429,208.32L222.8571428571429,240C195.71428571428572,240 195.71428571428572,98.24000000000021 168.57142857142858,98.24000000000021Z" style="stroke: rgb(68, 68, 68); stroke-opacity: 1; fill: rgb(0, 0, 0); fill-opacity: 0.2; stroke-width: 0; opacity: 1;"/><path class="sankey-link" d="M168.57142857142858,98.24000000000021C195.71428571428572,98.24000000000021 195.71428571428572,275.36 222.8571428571429,275.36L222.8571428571429,295.52C195.71428571428572,295.52 195.71428571428572,118.4000000000002 168.57142857142858,118.4000000000002Z" style="stroke: rgb(68, 68, 68); stroke-opacity: 1; fill: rgb(0, 0, 0); fill-opacity: 0.2; stroke-width: 0; opacity: 1;"/><path class="sankey-link" d="M168.57142857142858,47.360000000000205C195.71428571428572,47.360000000000205 195.71428571428572,129.27999999999975 222.8571428571429,129.27999999999975L222.8571428571429,148.47999999999973C195.71428571428572,148.47999999999973 195.71428571428572,66.5600000000002 168.57142857142858,66.5600000000002Z" style="stroke: rgb(68, 68, 68); stroke-opacity: 1; fill: rgb(0, 0, 0); fill-opacity: 0.2; stroke-width: 0; opacity: 1;"/><path class="sankey-link" d="M168.57142857142858,312.32C195.71428571428572,312.32 195.71428571428572,312.32000000000005 222.8571428571429,312.32000000000005L222.8571428571429,320C195.71428571428572,320 195.71428571428572,319.99999999999994 168.57142857142858,319.99999999999994Z" style="stroke: rgb(68, 68, 68); stroke-opacity: 1; fill: rgb(0, 0, 0); fill-opacity: 0.2; stroke-width: 0; opacity: 1;"/><path class="sankey-link" d="M168.57142857142858,299.36C195.71428571428572,299.36 195.71428571428572,103.51999999999987 222.8571428571429,103.51999999999987L222.8571428571429,109.27999999999986C195.71428571428572,109.27999999999986 195.71428571428572,305.12 168.57142857142858,305.12Z" style="stroke: rgb(68, 68, 68); stroke-opacity: 1; fill: rgb(0, 0, 0); fill-opacity: 0.2; stroke-width: 0; opacity: 1;"/><path class="sankey-link" d="M168.57142857142858,305.12C195.71428571428572,305.12 195.71428571428572,183.51999999999973 222.8571428571429,183.51999999999973L222.8571428571429,188.31999999999974C195.71428571428572,188.31999999999974 195.71428571428572,309.91999999999996 168.57142857142858,309.91999999999996Z" style="stroke: rgb(68, 68, 68); stroke-opacity: 1; fill: rgb(0, 0, 0); fill-opacity: 0.2; stroke-width: 0; opacity: 1;"/><path class="sankey-link" d="M168.57142857142858,309.92C195.71428571428572,309.92 195.71428571428572,252.96 222.8571428571429,252.96L222.8571428571429,255.35999999999999C195.71428571428572,255.35999999999999 195.71428571428572,312.32 168.57142857142858,312.32Z" style="stroke: rgb(68, 68, 68); stroke-opacity: 1; fill: rgb(0, 0, 0); fill-opacity: 0.2; stroke-width: 0; opacity: 1;"/><path class="sankey-link" d="M168.57142857142858,138.4000000000001C195.71428571428572,138.4000000000001 195.71428571428572,47.35999999999988 222.8571428571429,47.35999999999988L222.8571428571429,98.71999999999989C195.71428571428572,98.71999999999989 195.71428571428572,189.7600000000001 168.57142857142858,189.7600000000001Z" style="stroke: rgb(68, 68, 68); stroke-opacity: 1; fill: rgb(0, 0, 0); fill-opacity: 0.2; stroke-width: 0; opacity: 1;"/><path class="sankey-link" d="M168.57142857142858,189.7600000000001C195.71428571428572,189.7600000000001 195.71428571428572,148.47999999999973 222.8571428571429,148.47999999999973L222.8571428571429,169.59999999999974C195.71428571428572,169.59999999999974 195.71428571428572,210.8800000000001 168.57142857142858,210.8800000000001Z" style="stroke: rgb(68, 68, 68); stroke-opacity: 1; fill: rgb(0, 0, 0); fill-opacity: 0.2; stroke-width: 0; opacity: 1;"/><path class="sankey-link" d="M168.57142857142858,210.8800000000001C195.71428571428572,210.8800000000001 195.71428571428572,240 222.8571428571429,240L222.8571428571429,249.60000000000002C195.71428571428572,249.60000000000002 195.71428571428572,220.48000000000013 168.57142857142858,220.48000000000013Z" style="stroke: rgb(68, 68, 68); stroke-opacity: 1; fill: rgb(0, 0, 0); fill-opacity: 0.2; stroke-width: 0; opacity: 1;"/><path class="sankey-link" d="M168.57142857142858,220.4800000000001C195.71428571428572,220.4800000000001 195.71428571428572,295.52000000000004 222.8571428571429,295.52000000000004L222.8571428571429,306.56C195.71428571428572,306.56 195.71428571428572,231.52000000000012 168.57142857142858,231.52000000000012Z" style="stroke: rgb(68, 68, 68); stroke-opacity: 1; fill: rgb(0, 0, 0); fill-opacity: 0.2; stroke-width: 0; opacity: 1;"/><path class="sankey-link" d="M168.57142857142858,256.3200000000001C195.71428571428572,256.3200000000001 195.71428571428572,169.59999999999974 222.8571428571429,169.59999999999974L222.8571428571429,183.51999999999975C195.71428571428572,183.51999999999975 195.71428571428572,270.24000000000007 168.57142857142858,270.24000000000007Z" style="stroke: rgb(68, 68, 68); stroke-opacity: 1; fill: rgb(0, 0, 0); fill-opacity: 0.2; stroke-width: 0; opacity: 1;"/><path class="sankey-link" d="M168.57142857142858,251.5200000000001C195.71428571428572,251.5200000000001 195.71428571428572,98.71999999999987 222.8571428571429,98.71999999999987L222.8571428571429,103.51999999999988C195.71428571428572,103.51999999999988 195.71428571428572,256.3200000000001 168.57142857142858,256.3200000000001Z" style="stroke: rgb(68, 68, 68); stroke-opacity: 1; fill: rgb(0, 0, 0); fill-opacity: 0.2; stroke-width: 0; opacity: 1;"/><path class="sankey-link" d="M168.57142857142858,270.2400000000001C195.71428571428572,270.2400000000001 195.71428571428572,249.6 222.8571428571429,249.6L222.8571428571429,252.96C195.71428571428572,252.96 195.71428571428572,273.60000000000014 168.57142857142858,273.60000000000014Z" style="stroke: rgb(68, 68, 68); stroke-opacity: 1; fill: rgb(0, 0, 0); fill-opacity: 0.2; stroke-width: 0; opacity: 1;"/><path class="sankey-link" d="M168.57142857142858,273.60000000000014C195.71428571428572,273.60000000000014 195.71428571428572,306.56000000000006 222.8571428571429,306.56000000000006L222.8571428571429,312.32000000000005C195.71428571428572,312.32000000000005 195.71428571428572,279.3600000000001 168.57142857142858,279.3600000000001Z" style="stroke: rgb(68, 68, 68); stroke-opacity: 1; fill: rgb(0, 0, 0); fill-opacity: 0.2; stroke-width: 0; opacity: 1;"/><path class="sankey-link" d="M242.8571428571429,232.79999999999998C270,232.79999999999998 270,195.51999999999987 297.14285714285717,195.51999999999987L297.14285714285717,218.07999999999987C270,218.07999999999987 270,255.35999999999999 242.8571428571429,255.35999999999999Z" style="stroke: rgb(68, 68, 68); stroke-opacity: 1; fill: rgb(0, 0, 0); fill-opacity: 0.2; stroke-width: 0; opacity: 1;"/><path class="sankey-link" d="M242.8571428571429,208.32C270,208.32 270,136.15999999999963 297.14285714285717,136.15999999999963L297.14285714285717,160.63999999999965C270,160.63999999999965 270,232.8 242.8571428571429,232.8Z" style="stroke: rgb(68, 68, 68); stroke-opacity: 1; fill: rgb(0, 0, 0); fill-opacity: 0.2; stroke-width: 0; opacity: 1;"/><path class="sankey-link" d="M242.8571428571429,19.999999999999876C270,19.999999999999876 270,-4.121147867408581e-13 297.14285714285717,-4.121147867408581e-13L297.14285714285717,57.119999999999585C270,57.119999999999585 270,77.11999999999988 242.8571428571429,77.11999999999988Z" style="stroke: rgb(68, 68, 68); stroke-opacity: 1; fill: rgb(0, 0, 0); fill-opacity: 0.2; stroke-width: 0; opacity: 1;"/><path class="sankey-link" d="M242.8571428571429,77.11999999999986C270,77.11999999999986 270,238.07999999999987 297.14285714285717,238.07999999999987L297.14285714285717,270.23999999999984C270,270.23999999999984 270,109.27999999999986 242.8571428571429,109.27999999999986Z" style="stroke: rgb(68, 68, 68); stroke-opacity: 1; fill: rgb(0, 0, 0); fill-opacity: 0.2; stroke-width: 0; opacity: 1;"/><path class="sankey-link" d="M242.8571428571429,303.68C270,303.68 270,303.6799999999999 297.14285714285717,303.6799999999999L297.14285714285717,319.99999999999994C270,319.99999999999994 270,320.00000000000006 242.8571428571429,320.00000000000006Z" style="stroke: rgb(68, 68, 68); stroke-opacity: 1; fill: rgb(0, 0, 0); fill-opacity: 0.2; stroke-width: 0; opacity: 1;"/><path class="sankey-link" d="M242.8571428571429,290.24C270,290.24 270,270.2399999999999 297.14285714285717,270.2399999999999L297.14285714285717,283.67999999999995C270,283.67999999999995 270,303.68000000000006 242.8571428571429,303.68000000000006Z" style="stroke: rgb(68, 68, 68); stroke-opacity: 1; fill: rgb(0, 0, 0); fill-opacity: 0.2; stroke-width: 0; opacity: 1;"/><path class="sankey-link" d="M242.8571428571429,275.36C270,275.36 270,160.63999999999962 297.14285714285717,160.63999999999962L297.14285714285717,175.5199999999996C270,175.5199999999996 270,290.24 242.8571428571429,290.24Z" style="stroke: rgb(68, 68, 68); stroke-opacity: 1; fill: rgb(0, 0, 0); fill-opacity: 0.2; stroke-width: 0; opacity: 1;"/><path class="sankey-link" d="M242.8571428571429,129.27999999999975C270,129.27999999999975 270,57.119999999999585 297.14285714285717,57.119999999999585L297.14285714285717,80.63999999999959C270,80.63999999999959 270,152.79999999999973 242.8571428571429,152.79999999999973Z" style="stroke: rgb(68, 68, 68); stroke-opacity: 1; fill: rgb(0, 0, 0); fill-opacity: 0.2; stroke-width: 0; opacity: 1;"/><path class="sankey-link" d="M242.8571428571429,152.79999999999976C270,152.79999999999976 270,100.63999999999962 297.14285714285717,100.63999999999962L297.14285714285717,136.1599999999996C270,136.1599999999996 270,188.31999999999974 242.8571428571429,188.31999999999974Z" style="stroke: rgb(68, 68, 68); stroke-opacity: 1; fill: rgb(0, 0, 0); fill-opacity: 0.2; stroke-width: 0; opacity: 1;"/><path class="sankey-link" d="M317.14285714285717,127.03999999999961C344.28571428571433,127.03999999999961 344.28571428571433,202.56000000000006 371.42857142857144,202.56000000000006L371.42857142857144,231.84000000000003C344.28571428571433,231.84000000000003 344.28571428571433,156.3199999999996 317.14285714285717,156.3199999999996Z" style="stroke: rgb(68, 68, 68); stroke-opacity: 1; fill: rgb(0, 0, 0); fill-opacity: 0.2; stroke-width: 0; opacity: 1;"/><path class="sankey-link" d="M317.14285714285717,156.3199999999996C344.28571428571433,156.3199999999996 344.28571428571433,271.04 371.42857142857144,271.04L371.42857142857144,290.24000000000007C344.28571428571433,290.24000000000007 344.28571428571433,175.51999999999958 317.14285714285717,175.51999999999958Z" style="stroke: rgb(68, 68, 68); stroke-opacity: 1; fill: rgb(0, 0, 0); fill-opacity: 0.2; stroke-width: 0; opacity: 1;"/><path class="sankey-link" d="M317.14285714285717,100.63999999999962C344.28571428571433,100.63999999999962 344.28571428571433,16.80000000000003 371.42857142857144,16.80000000000003L371.42857142857144,33.12000000000003C344.28571428571433,33.12000000000003 344.28571428571433,116.95999999999961 317.14285714285717,116.95999999999961Z" style="stroke: rgb(68, 68, 68); stroke-opacity: 1; fill: rgb(0, 0, 0); fill-opacity: 0.2; stroke-width: 0; opacity: 1;"/><path class="sankey-link" d="M317.14285714285717,116.95999999999961C344.28571428571433,116.95999999999961 344.28571428571433,145.11999999999992 371.42857142857144,145.11999999999992L371.42857142857144,155.1999999999999C344.28571428571433,155.1999999999999 344.28571428571433,127.03999999999962 317.14285714285717,127.03999999999962Z" style="stroke: rgb(68, 68, 68); stroke-opacity: 1; fill: rgb(0, 0, 0); fill-opacity: 0.2; stroke-width: 0; opacity: 1;"/><path class="sankey-link" d="M317.14285714285717,16.799999999999585C344.28571428571433,16.799999999999585 344.28571428571433,68.95999999999998 371.42857142857144,68.95999999999998L371.42857142857144,100.15999999999997C344.28571428571433,100.15999999999997 344.28571428571433,47.99999999999959 317.14285714285717,47.99999999999959Z" style="stroke: rgb(68, 68, 68); stroke-opacity: 1; fill: rgb(0, 0, 0); fill-opacity: 0.2; stroke-width: 0; opacity: 1;"/><path class="sankey-link" d="M317.14285714285717,-4.121147867408581e-13C344.28571428571433,-4.121147867408581e-13 344.28571428571433,2.842170943040401e-14 371.42857142857144,2.842170943040401e-14L371.42857142857144,16.80000000000003C344.28571428571433,16.80000000000003 344.28571428571433,16.79999999999959 317.14285714285717,16.79999999999959Z" style="stroke: rgb(68, 68, 68); stroke-opacity: 1; fill: rgb(0, 0, 0); fill-opacity: 0.2; stroke-width: 0; opacity: 1;"/><path class="sankey-link" d="M317.14285714285717,47.99999999999959C344.28571428571433,47.99999999999959 344.28571428571433,130.7199999999999 371.42857142857144,130.7199999999999L371.42857142857144,145.1199999999999C344.28571428571433,145.1199999999999 344.28571428571433,62.399999999999594 317.14285714285717,62.399999999999594Z" style="stroke: rgb(68, 68, 68); stroke-opacity: 1; fill: rgb(0, 0, 0); fill-opacity: 0.2; stroke-width: 0; opacity: 1;"/><path class="sankey-link" d="M317.14285714285717,71.0399999999996C344.28571428571433,71.0399999999996 344.28571428571433,261.44 371.42857142857144,261.44L371.42857142857144,271.04C344.28571428571433,271.04 344.28571428571433,80.63999999999959 317.14285714285717,80.63999999999959Z" style="stroke: rgb(68, 68, 68); stroke-opacity: 1; fill: rgb(0, 0, 0); fill-opacity: 0.2; stroke-width: 0; opacity: 1;"/><path class="sankey-link" d="M317.14285714285717,62.39999999999959C344.28571428571433,62.39999999999959 344.28571428571433,193.92000000000007 371.42857142857144,193.92000000000007L371.42857142857144,202.56000000000006C344.28571428571433,202.56000000000006 344.28571428571433,71.0399999999996 317.14285714285717,71.0399999999996Z" style="stroke: rgb(68, 68, 68); stroke-opacity: 1; fill: rgb(0, 0, 0); fill-opacity: 0.2; stroke-width: 0; opacity: 1;"/><path class="sankey-link" d="M317.14285714285717,314.23999999999984C344.28571428571433,314.23999999999984 344.28571428571433,314.24 371.42857142857144,314.24L371.42857142857144,320C344.28571428571433,320 344.28571428571433,319.99999999999983 317.14285714285717,319.99999999999983Z" style="stroke: rgb(68, 68, 68); stroke-opacity: 1; fill: rgb(0, 0, 0); fill-opacity: 0.2; stroke-width: 0; opacity: 1;"/><path class="sankey-link" d="M317.14285714285717,311.83999999999986C344.28571428571433,311.83999999999986 344.28571428571433,239.04000000000008 371.42857142857144,239.04000000000008L371.42857142857144,241.44000000000005C344.28571428571433,241.44000000000005 344.28571428571433,314.23999999999984 317.14285714285717,314.23999999999984Z" style="stroke: rgb(68, 68, 68); stroke-opacity: 1; fill: rgb(0, 0, 0); fill-opacity: 0.2; stroke-width: 0; opacity: 1;"/><path class="sankey-link" d="M317.14285714285717,308.95999999999987C344.28571428571433,308.95999999999987 344.28571428571433,171.03999999999994 371.42857142857144,171.03999999999994L371.42857142857144,173.91999999999993C344.28571428571433,173.91999999999993 344.28571428571433,311.83999999999986 317.14285714285717,311.83999999999986Z" style="stroke: rgb(68, 68, 68); stroke-opacity: 1; fill: rgb(0, 0, 0); fill-opacity: 0.2; stroke-width: 0; opacity: 1;"/><path class="sankey-link" d="M317.14285714285717,303.6799999999999C344.28571428571433,303.6799999999999 344.28571428571433,46.56000000000003 371.42857142857144,46.56000000000003L371.42857142857144,48.960000000000036C344.28571428571433,48.960000000000036 344.28571428571433,306.07999999999987 317.14285714285717,306.07999999999987Z" style="stroke: rgb(68, 68, 68); stroke-opacity: 1; fill: rgb(0, 0, 0); fill-opacity: 0.2; stroke-width: 0; opacity: 1;"/><path class="sankey-link" d="M317.14285714285717,306.07999999999987C344.28571428571433,306.07999999999987 344.28571428571433,107.83999999999997 371.42857142857144,107.83999999999997L371.42857142857144,110.71999999999997C344.28571428571433,110.71999999999997 344.28571428571433,308.95999999999987 317.14285714285717,308.95999999999987Z" style="stroke: rgb(68, 68, 68); stroke-opacity: 1; fill: rgb(0, 0, 0); fill-opacity: 0.2; stroke-width: 0; opacity: 1;"/><path class="sankey-link" d="M317.14285714285717,263.51999999999987C344.28571428571433,263.51999999999987 344.28571428571433,294.08 371.42857142857144,294.08L371.42857142857144,314.23999999999995C344.28571428571433,314.23999999999995 344.28571428571433,283.67999999999984 317.14285714285717,283.67999999999984Z" style="stroke: rgb(68, 68, 68); stroke-opacity: 1; fill: rgb(0, 0, 0); fill-opacity: 0.2; stroke-width: 0; opacity: 1;"/><path class="sankey-link" d="M317.14285714285717,238.07999999999987C344.28571428571433,238.07999999999987 344.28571428571433,35.52000000000004 371.42857142857144,35.52000000000004L371.42857142857144,46.56000000000003C344.28571428571433,46.56000000000003 344.28571428571433,249.1199999999999 317.14285714285717,249.1199999999999Z" style="stroke: rgb(68, 68, 68); stroke-opacity: 1; fill: rgb(0, 0, 0); fill-opacity: 0.2; stroke-width: 0; opacity: 1;"/><path class="sankey-link" d="M317.14285714285717,253.91999999999987C344.28571428571433,253.91999999999987 344.28571428571433,166.23999999999992 371.42857142857144,166.23999999999992L371.42857142857144,171.03999999999994C344.28571428571433,171.03999999999994 344.28571428571433,258.71999999999986 317.14285714285717,258.71999999999986Z" style="stroke: rgb(68, 68, 68); stroke-opacity: 1; fill: rgb(0, 0, 0); fill-opacity: 0.2; stroke-width: 0; opacity: 1;"/><path class="sankey-link" d="M317.14285714285717,258.71999999999986C344.28571428571433,258.71999999999986 344.28571428571433,234.24000000000007 371.42857142857144,234.24000000000007L371.42857142857144,239.04000000000008C344.28571428571433,239.04000000000008 344.28571428571433,263.5199999999998 317.14285714285717,263.5199999999998Z" style="stroke: rgb(68, 68, 68); stroke-opacity: 1; fill: rgb(0, 0, 0); fill-opacity: 0.2; stroke-width: 0; opacity: 1;"/><path class="sankey-link" d="M317.14285714285717,249.11999999999986C344.28571428571433,249.11999999999986 344.28571428571433,103.03999999999998 371.42857142857144,103.03999999999998L371.42857142857144,107.83999999999999C344.28571428571433,107.83999999999999 344.28571428571433,253.91999999999987 317.14285714285717,253.91999999999987Z" style="stroke: rgb(68, 68, 68); stroke-opacity: 1; fill: rgb(0, 0, 0); fill-opacity: 0.2; stroke-width: 0; opacity: 1;"/><path class="sankey-link" d="M317.14285714285717,200.79999999999987C344.28571428571433,200.79999999999987 344.28571428571433,155.19999999999993 371.42857142857144,155.19999999999993L371.42857142857144,166.23999999999995C344.28571428571433,166.23999999999995 344.28571428571433,211.8399999999999 317.14285714285717,211.8399999999999Z" style="stroke: rgb(68, 68, 68); stroke-opacity: 1; fill: rgb(0, 0, 0); fill-opacity: 0.2; stroke-width: 0; opacity: 1;"/><path class="sankey-link" d="M317.14285714285717,214.23999999999987C344.28571428571433,214.23999999999987 344.28571428571433,290.24 371.42857142857144,290.24L371.42857142857144,294.08000000000004C344.28571428571433,294.08000000000004 344.28571428571433,218.07999999999984 317.14285714285717,218.07999999999984Z" style="stroke: rgb(68, 68, 68); stroke-opacity: 1; fill: rgb(0, 0, 0); fill-opacity: 0.2; stroke-width: 0; opacity: 1;"/><path class="sankey-link" d="M317.14285714285717,195.51999999999987C344.28571428571433,195.51999999999987 344.28571428571433,33.12000000000003 371.42857142857144,33.12000000000003L371.42857142857144,35.52000000000004C344.28571428571433,35.52000000000004 344.28571428571433,197.91999999999985 317.14285714285717,197.91999999999985Z" style="stroke: rgb(68, 68, 68); stroke-opacity: 1; fill: rgb(0, 0, 0); fill-opacity: 0.2; stroke-width: 0; opacity: 1;"/><path class="sankey-link" d="M317.14285714285717,211.83999999999986C344.28571428571433,211.83999999999986 344.28571428571433,231.84000000000006 371.42857142857144,231.84000000000006L371.42857142857144,234.24000000000004C344.28571428571433,234.24000000000004 344.28571428571433,214.23999999999984 317.14285714285717,214.23999999999984Z" style="stroke: rgb(68, 68, 68); stroke-opacity: 1; fill: rgb(0, 0, 0); fill-opacity: 0.2; stroke-width: 0; opacity: 1;"/><path class="sankey-link" d="M317.14285714285717,197.91999999999987C344.28571428571433,197.91999999999987 344.28571428571433,100.15999999999998 371.42857142857144,100.15999999999998L371.42857142857144,103.03999999999998C344.28571428571433,103.03999999999998 344.28571428571433,200.79999999999987 317.14285714285717,200.79999999999987Z" style="stroke: rgb(68, 68, 68); stroke-opacity: 1; fill: rgb(0, 0, 0); fill-opacity: 0.2; stroke-width: 0; opacity: 1;"/><path class="sankey-link" d="M391.42857142857144,2.842170943040401e-14C418.5714285714286,2.842170943040401e-14 418.5714285714286,20.000000000000018 445.7142857142858,20.000000000000018L445.7142857142858,68.96000000000002C418.5714285714286,68.96000000000002 418.5714285714286,48.96000000000003 391.42857142857144,48.96000000000003Z" style="stroke: rgb(68, 68, 68); stroke-opacity: 1; fill: rgb(0, 0, 0); fill-opacity: 0.2; stroke-width: 0; opacity: 1;"/><path class="sankey-link" d="M391.42857142857144,222.24000000000007C418.5714285714286,222.24000000000007 418.5714285714286,250.07999999999984 445.7142857142858,250.07999999999984L445.7142857142858,269.27999999999986C418.5714285714286,269.27999999999986 418.5714285714286,241.44000000000005 391.42857142857144,241.44000000000005Z" style="stroke: rgb(68, 68, 68); stroke-opacity: 1; fill: rgb(0, 0, 0); fill-opacity: 0.2; stroke-width: 0; opacity: 1;"/><path class="sankey-link" d="M391.42857142857144,193.92000000000007C418.5714285714286,193.92000000000007 418.5714285714286,179.67999999999998 445.7142857142858,179.67999999999998L445.7142857142858,207.99999999999997C418.5714285714286,207.99999999999997 418.5714285714286,222.24000000000007 391.42857142857144,222.24000000000007Z" style="stroke: rgb(68, 68, 68); stroke-opacity: 1; fill: rgb(0, 0, 0); fill-opacity: 0.2; stroke-width: 0; opacity: 1;"/><path class="sankey-link" d="M391.42857142857144,299.84000000000003C418.5714285714286,299.84000000000003 418.5714285714286,299.83999999999986 445.7142857142858,299.83999999999986L445.7142857142858,319.99999999999983C418.5714285714286,319.99999999999983 418.5714285714286,320 391.42857142857144,320Z" style="stroke: rgb(68, 68, 68); stroke-opacity: 1; fill: rgb(0, 0, 0); fill-opacity: 0.2; stroke-width: 0; opacity: 1;"/><path class="sankey-link" d="M391.42857142857144,261.44C418.5714285714286,261.44 418.5714285714286,109.76 445.7142857142858,109.76L445.7142857142858,132.8C418.5714285714286,132.8 418.5714285714286,284.47999999999996 391.42857142857144,284.47999999999996Z" style="stroke: rgb(68, 68, 68); stroke-opacity: 1; fill: rgb(0, 0, 0); fill-opacity: 0.2; stroke-width: 0; opacity: 1;"/><path class="sankey-link" d="M391.42857142857144,284.48C418.5714285714286,284.48 418.5714285714286,207.99999999999997 445.7142857142858,207.99999999999997L445.7142857142858,217.6C418.5714285714286,217.6 418.5714285714286,294.08000000000004 391.42857142857144,294.08000000000004Z" style="stroke: rgb(68, 68, 68); stroke-opacity: 1; fill: rgb(0, 0, 0); fill-opacity: 0.2; stroke-width: 0; opacity: 1;"/><path class="sankey-link" d="M391.42857142857144,294.08000000000004C418.5714285714286,294.08000000000004 418.5714285714286,269.27999999999986 445.7142857142858,269.27999999999986L445.7142857142858,275.03999999999985C418.5714285714286,275.03999999999985 418.5714285714286,299.84000000000003 391.42857142857144,299.84000000000003Z" style="stroke: rgb(68, 68, 68); stroke-opacity: 1; fill: rgb(0, 0, 0); fill-opacity: 0.2; stroke-width: 0; opacity: 1;"/><path class="sankey-link" d="M391.42857142857144,68.95999999999998C418.5714285714286,68.95999999999998 418.5714285714286,68.96000000000001 445.7142857142858,68.96000000000001L445.7142857142858,101.6C418.5714285714286,101.6 418.5714285714286,101.59999999999997 391.42857142857144,101.59999999999997Z" style="stroke: rgb(68, 68, 68); stroke-opacity: 1; fill: rgb(0, 0, 0); fill-opacity: 0.2; stroke-width: 0; opacity: 1;"/><path class="sankey-link" d="M391.42857142857144,101.59999999999998C418.5714285714286,101.59999999999998 418.5714285714286,152.79999999999998 445.7142857142858,152.79999999999998L445.7142857142858,157.11999999999998C418.5714285714286,157.11999999999998 418.5714285714286,105.91999999999997 391.42857142857144,105.91999999999997Z" style="stroke: rgb(68, 68, 68); stroke-opacity: 1; fill: rgb(0, 0, 0); fill-opacity: 0.2; stroke-width: 0; opacity: 1;"/><path class="sankey-link" d="M391.42857142857144,105.91999999999999C418.5714285714286,105.91999999999999 418.5714285714286,295.03999999999985 445.7142857142858,295.03999999999985L445.7142857142858,299.8399999999998C418.5714285714286,299.8399999999998 418.5714285714286,110.72 391.42857142857144,110.72Z" style="stroke: rgb(68, 68, 68); stroke-opacity: 1; fill: rgb(0, 0, 0); fill-opacity: 0.2; stroke-width: 0; opacity: 1;"/><path class="sankey-link" d="M391.42857142857144,138.8799999999999C418.5714285714286,138.8799999999999 418.5714285714286,157.11999999999998 445.7142857142858,157.11999999999998L445.7142857142858,179.67999999999998C418.5714285714286,179.67999999999998 418.5714285714286,161.4399999999999 391.42857142857144,161.4399999999999Z" style="stroke: rgb(68, 68, 68); stroke-opacity: 1; fill: rgb(0, 0, 0); fill-opacity: 0.2; stroke-width: 0; opacity: 1;"/><path class="sankey-link" d="M391.42857142857144,130.7199999999999C418.5714285714286,130.7199999999999 418.5714285714286,101.60000000000001 445.7142857142858,101.60000000000001L445.7142857142858,109.76C418.5714285714286,109.76 418.5714285714286,138.87999999999994 391.42857142857144,138.87999999999994Z" style="stroke: rgb(68, 68, 68); stroke-opacity: 1; fill: rgb(0, 0, 0); fill-opacity: 0.2; stroke-width: 0; opacity: 1;"/><path class="sankey-link" d="M391.42857142857144,161.4399999999999C418.5714285714286,161.4399999999999 418.5714285714286,237.59999999999985 445.7142857142858,237.59999999999985L445.7142857142858,250.07999999999987C418.5714285714286,250.07999999999987 418.5714285714286,173.91999999999993 391.42857142857144,173.91999999999993Z" style="stroke: rgb(68, 68, 68); stroke-opacity: 1; fill: rgb(0, 0, 0); fill-opacity: 0.2; stroke-width: 0; opacity: 1;"/><path class="sankey-link" d="M465.7142857142858,20.000000000000014C492.8571428571429,20.000000000000014 492.8571428571429,20.00000000000003 520,20.00000000000003L520,90.08000000000003C492.8571428571429,90.08000000000003 492.8571428571429,90.08000000000001 465.7142857142858,90.08000000000001Z" style="stroke: rgb(68, 68, 68); stroke-opacity: 1; fill: rgb(0, 0, 0); fill-opacity: 0.2; stroke-width: 0; opacity: 1;"/><path class="sankey-link" d="M465.7142857142858,109.28000000000002C492.8571428571429,109.28000000000002 492.8571428571429,236.15999999999997 520,236.15999999999997L520,259.67999999999995C492.8571428571429,259.67999999999995 492.8571428571429,132.8 465.7142857142858,132.8Z" style="stroke: rgb(68, 68, 68); stroke-opacity: 1; fill: rgb(0, 0, 0); fill-opacity: 0.2; stroke-width: 0; opacity: 1;"/><path class="sankey-link" d="M465.7142857142858,90.08000000000001C492.8571428571429,90.08000000000001 492.8571428571429,138.39999999999998 520,138.39999999999998L520,157.59999999999997C492.8571428571429,157.59999999999997 492.8571428571429,109.28 465.7142857142858,109.28Z" style="stroke: rgb(68, 68, 68); stroke-opacity: 1; fill: rgb(0, 0, 0); fill-opacity: 0.2; stroke-width: 0; opacity: 1;"/><path class="sankey-link" d="M465.7142857142858,264.95999999999987C492.8571428571429,264.95999999999987 492.8571428571429,307.03999999999996 520,307.03999999999996L520,317.12C492.8571428571429,317.12 492.8571428571429,275.0399999999999 465.7142857142858,275.0399999999999Z" style="stroke: rgb(68, 68, 68); stroke-opacity: 1; fill: rgb(0, 0, 0); fill-opacity: 0.2; stroke-width: 0; opacity: 1;"/><path class="sankey-link" d="M465.7142857142858,237.59999999999985C492.8571428571429,237.59999999999985 492.8571428571429,104.00000000000003 520,104.00000000000003L520,118.40000000000003C492.8571428571429,118.40000000000003 492.8571428571429,251.99999999999983 465.7142857142858,251.99999999999983Z" style="stroke: rgb(68, 68, 68); stroke-opacity: 1; fill: rgb(0, 0, 0); fill-opacity: 0.2; stroke-width: 0; opacity: 1;"/><path class="sankey-link" d="M465.7142857142858,251.99999999999986C492.8571428571429,251.99999999999986 492.8571428571429,198.39999999999998 520,198.39999999999998L520,211.35999999999996C492.8571428571429,211.35999999999996 492.8571428571429,264.95999999999987 465.7142857142858,264.95999999999987Z" style="stroke: rgb(68, 68, 68); stroke-opacity: 1; fill: rgb(0, 0, 0); fill-opacity: 0.2; stroke-width: 0; opacity: 1;"/><path class="sankey-link" d="M465.7142857142858,166.71999999999997C492.8571428571429,166.71999999999997 492.8571428571429,157.59999999999997 520,157.59999999999997L520,198.39999999999998C492.8571428571429,198.39999999999998 492.8571428571429,207.51999999999998 465.7142857142858,207.51999999999998Z" style="stroke: rgb(68, 68, 68); stroke-opacity: 1; fill: rgb(0, 0, 0); fill-opacity: 0.2; stroke-width: 0; opacity: 1;"/><path class="sankey-link" d="M465.7142857142858,207.51999999999998C492.8571428571429,207.51999999999998 492.8571428571429,259.67999999999995 520,259.67999999999995L520,269.76C492.8571428571429,269.76 492.8571428571429,217.59999999999997 465.7142857142858,217.59999999999997Z" style="stroke: rgb(68, 68, 68); stroke-opacity: 1; fill: rgb(0, 0, 0); fill-opacity: 0.2; stroke-width: 0; opacity: 1;"/><path class="sankey-link" d="M465.7142857142858,152.79999999999998C492.8571428571429,152.79999999999998 492.8571428571429,90.08000000000003 520,90.08000000000003L520,104.00000000000001C492.8571428571429,104.00000000000001 492.8571428571429,166.72 465.7142857142858,166.72Z" style="stroke: rgb(68, 68, 68); stroke-opacity: 1; fill: rgb(0, 0, 0); fill-opacity: 0.2; stroke-width: 0; opacity: 1;"/><path class="sankey-link" d="M465.7142857142858,299.83999999999986C492.8571428571429,299.83999999999986 492.8571428571429,269.75999999999993 520,269.75999999999993L520,287.0399999999999C492.8571428571429,287.0399999999999 492.8571428571429,317.11999999999983 465.7142857142858,317.11999999999983Z" style="stroke: rgb(68, 68, 68); stroke-opacity: 1; fill: rgb(0, 0, 0); fill-opacity: 0.2; stroke-width: 0; opacity: 1;"/><path class="sankey-link" d="M465.7142857142858,317.1199999999999C492.8571428571429,317.1199999999999 492.8571428571429,317.11999999999995 520,317.11999999999995L520,319.99999999999994C492.8571428571429,319.99999999999994 492.8571428571429,319.9999999999999 465.7142857142858,319.9999999999999Z" style="stroke: rgb(68, 68, 68); stroke-opacity: 1; fill: rgb(0, 0, 0); fill-opacity: 0.2; stroke-width: 0; opacity: 1;"/><path class="sankey-link" d="M465.7142857142858,295.03999999999985C492.8571428571429,295.03999999999985 492.8571428571429,211.35999999999999 520,211.35999999999999L520,216.16C492.8571428571429,216.16 492.8571428571429,299.8399999999998 465.7142857142858,299.8399999999998Z" style="stroke: rgb(68, 68, 68); stroke-opacity: 1; fill: rgb(0, 0, 0); fill-opacity: 0.2; stroke-width: 0; opacity: 1;"/></g><g class="sankey-node-set" style="cursor: move;"><g class="sankey-node" transform="translate(0.000,136.000)" style="opacity: 1;"><rect class="node-rect" width="20" height="48.00000000000006" style="stroke-width: 0; stroke: rgb(128, 0, 128); stroke-opacity: 1; fill: rgb(87, 74, 226); fill-opacity: 1;"/><rect class="node-capture" x="-10" y="-10" width="40" height="68.00000000000006" style="fill-opacity: 0;"/><g class="node-entered" transform="translate(0,25.00000000000003)"><path class="node-label-guide" id="c898c7_0_node_0" d="M24,0L540,0" transform="matrix(1 0 0 1 0 0)"/><text class="node-label" transform="scale(1 1)" style="cursor: default; fill: rgb(42, 63, 95); text-shadow: rgb(255, 255, 255) -1px 1px 1px, rgb(255, 255, 255) 1px 1px 1px, rgb(255, 255, 255) 1px -1px 1px, rgb(255, 255, 255) -1px -1px 1px; font-family: 'Open Sans', verdana, arial, sans-serif; font-size: 10px; fill-opacity: 1;"><textPath class="node-label-text-path" alignment-baseline="middle" xlink:href="#c898c7_0_node_0" startOffset="0%" text-anchor="start" style="fill: rgb(0, 0, 0);">A1</textPath></text></g></g><g class="sankey-node" transform="translate(0.000,68.000)" style="opacity: 1;"><rect class="node-rect" width="20" height="47.99999999999994" style="stroke-width: 0; stroke: rgb(128, 0, 128); stroke-opacity: 1; fill: rgb(87, 74, 226); fill-opacity: 1;"/><rect class="node-capture" x="-10" y="-10" width="40" height="67.99999999999994" style="fill-opacity: 0;"/><g class="node-entered" transform="translate(0,24.99999999999997)"><path class="node-label-guide" id="c898c7_0_node_1" d="M24,0L540,0" transform="matrix(1 0 0 1 0 0)"/><text class="node-label" transform="scale(1 1)" style="cursor: default; fill: rgb(42, 63, 95); text-shadow: rgb(255, 255, 255) -1px 1px 1px, rgb(255, 255, 255) 1px 1px 1px, rgb(255, 255, 255) 1px -1px 1px, rgb(255, 255, 255) -1px -1px 1px; font-family: 'Open Sans', verdana, arial, sans-serif; font-size: 10px; fill-opacity: 1;"><textPath class="node-label-text-path" alignment-baseline="middle" xlink:href="#c898c7_0_node_1" startOffset="0%" text-anchor="start" style="fill: rgb(0, 0, 0);">A2</textPath></text></g></g><g class="sankey-node" transform="translate(0.000,272.000)" style="opacity: 1;"><rect class="node-rect" width="20" height="48" style="stroke-width: 0; stroke: rgb(128, 0, 128); stroke-opacity: 1; fill: rgb(87, 74, 226); fill-opacity: 1;"/><rect class="node-capture" x="-10" y="-10" width="40" height="68" style="fill-opacity: 0;"/><g class="node-entered" transform="translate(0,25)"><path class="node-label-guide" id="c898c7_0_node_2" d="M24,0L540,0" transform="matrix(1 0 0 1 0 0)"/><text class="node-label" transform="scale(1 1)" style="cursor: default; fill: rgb(42, 63, 95); text-shadow: rgb(255, 255, 255) -1px 1px 1px, rgb(255, 255, 255) 1px 1px 1px, rgb(255, 255, 255) 1px -1px 1px, rgb(255, 255, 255) -1px -1px 1px; font-family: 'Open Sans', verdana, arial, sans-serif; font-size: 10px; fill-opacity: 1;"><textPath class="node-label-text-path" alignment-baseline="middle" xlink:href="#c898c7_0_node_2" startOffset="0%" text-anchor="start" style="fill: rgb(0, 0, 0);">A3</textPath></text></g></g><g class="sankey-node" transform="translate(0.000,204.000)" style="opacity: 1;"><rect class="node-rect" width="20" height="48" style="stroke-width: 0; stroke: rgb(128, 0, 128); stroke-opacity: 1; fill: rgb(87, 74, 226); fill-opacity: 1;"/><rect class="node-capture" x="-10" y="-10" width="40" height="68" style="fill-opacity: 0;"/><g class="node-entered" transform="translate(0,25)"><path class="node-label-guide" id="c898c7_0_node_3" d="M24,0L540,0" transform="matrix(1 0 0 1 0 0)"/><text class="node-label" transform="scale(1 1)" style="cursor: default; fill: rgb(42, 63, 95); text-shadow: rgb(255, 255, 255) -1px 1px 1px, rgb(255, 255, 255) 1px 1px 1px, rgb(255, 255, 255) 1px -1px 1px, rgb(255, 255, 255) -1px -1px 1px; font-family: 'Open Sans', verdana, arial, sans-serif; font-size: 10px; fill-opacity: 1;"><textPath class="node-label-text-path" alignment-baseline="middle" xlink:href="#c898c7_0_node_3" startOffset="0%" text-anchor="start" style="fill: rgb(0, 0, 0);">A4</textPath></text></g></g><g class="sankey-node" transform="translate(0.000,-0.000)" style="opacity: 1;"><rect class="node-rect" width="20" height="48.00000000000004" style="stroke-width: 0; stroke: rgb(128, 0, 128); stroke-opacity: 1; fill: rgb(87, 74, 226); fill-opacity: 1;"/><rect class="node-capture" x="-10" y="-10" width="40" height="68.00000000000004" style="fill-opacity: 0;"/><g class="node-entered" transform="translate(0,25.00000000000002)"><path class="node-label-guide" id="c898c7_0_node_4" d="M24,0L540,0" transform="matrix(1 0 0 1 0 0)"/><text class="node-label" transform="scale(1 1)" style="cursor: default; fill: rgb(42, 63, 95); text-shadow: rgb(255, 255, 255) -1px 1px 1px, rgb(255, 255, 255) 1px 1px 1px, rgb(255, 255, 255) 1px -1px 1px, rgb(255, 255, 255) -1px -1px 1px; font-family: 'Open Sans', verdana, arial, sans-serif; font-size: 10px; fill-opacity: 1;"><textPath class="node-label-text-path" alignment-baseline="middle" xlink:href="#c898c7_0_node_4" startOffset="0%" text-anchor="start" style="fill: rgb(0, 0, 0);">A5</textPath></text></g></g><g class="sankey-node" transform="translate(74.286,105.280)" style="opacity: 1;"><rect class="node-rect" width="20" height="71.52000000000007" style="stroke-width: 0; stroke: rgb(128, 0, 128); stroke-opacity: 1; fill: rgb(87, 74, 226); fill-opacity: 1;"/><rect class="node-capture" x="-10" y="-10" width="40" height="91.52000000000007" style="fill-opacity: 0;"/><g class="node-entered" transform="translate(0,36.76000000000003)"><path class="node-label-guide" id="c898c7_0_node_5" d="M24,0L540,0" transform="matrix(1 0 0 1 0 0)"/><text class="node-label" transform="scale(1 1)" style="cursor: default; fill: rgb(42, 63, 95); text-shadow: rgb(255, 255, 255) -1px 1px 1px, rgb(255, 255, 255) 1px 1px 1px, rgb(255, 255, 255) 1px -1px 1px, rgb(255, 255, 255) -1px -1px 1px; font-family: 'Open Sans', verdana, arial, sans-serif; font-size: 10px; fill-opacity: 1;"><textPath class="node-label-text-path" alignment-baseline="middle" xlink:href="#c898c7_0_node_5" startOffset="0%" text-anchor="start" style="fill: rgb(0, 0, 0);">B1</textPath></text></g></g><g class="sankey-node" transform="translate(74.286,20.000)" style="opacity: 1;"><rect class="node-rect" width="20" height="65.27999999999992" style="stroke-width: 0; stroke: rgb(128, 0, 128); stroke-opacity: 1; fill: rgb(87, 74, 226); fill-opacity: 1;"/><rect class="node-capture" x="-10" y="-10" width="40" height="85.27999999999992" style="fill-opacity: 0;"/><g class="node-entered" transform="translate(0,33.63999999999996)"><path class="node-label-guide" id="c898c7_0_node_6" d="M24,0L540,0" transform="matrix(1 0 0 1 0 0)"/><text class="node-label" transform="scale(1 1)" style="cursor: default; fill: rgb(42, 63, 95); text-shadow: rgb(255, 255, 255) -1px 1px 1px, rgb(255, 255, 255) 1px 1px 1px, rgb(255, 255, 255) 1px -1px 1px, rgb(255, 255, 255) -1px -1px 1px; font-family: 'Open Sans', verdana, arial, sans-serif; font-size: 10px; fill-opacity: 1;"><textPath class="node-label-text-path" alignment-baseline="middle" xlink:href="#c898c7_0_node_6" startOffset="0%" text-anchor="start" style="fill: rgb(0, 0, 0);">B2</textPath></text></g></g><g class="sankey-node" transform="translate(74.286,236.960)" style="opacity: 1;"><rect class="node-rect" width="20" height="83.04000000000002" style="stroke-width: 0; stroke: rgb(128, 0, 128); stroke-opacity: 1; fill: rgb(87, 74, 226); fill-opacity: 1;"/><rect class="node-capture" x="-10" y="-10" width="40" height="103.04000000000002" style="fill-opacity: 0;"/><g class="node-entered" transform="translate(0,42.52000000000001)"><path class="node-label-guide" id="c898c7_0_node_7" d="M24,0L540,0" transform="matrix(1 0 0 1 0 0)"/><text class="node-label" transform="scale(1 1)" style="cursor: default; fill: rgb(42, 63, 95); text-shadow: rgb(255, 255, 255) -1px 1px 1px, rgb(255, 255, 255) 1px 1px 1px, rgb(255, 255, 255) 1px -1px 1px, rgb(255, 255, 255) -1px -1px 1px; font-family: 'Open Sans', verdana, arial, sans-serif; font-size: 10px; fill-opacity: 1;"><textPath class="node-label-text-path" alignment-baseline="middle" xlink:href="#c898c7_0_node_7" startOffset="0%" text-anchor="start" style="fill: rgb(0, 0, 0);">B3</textPath></text></g></g><g class="sankey-node" transform="translate(74.286,196.800)" style="opacity: 1;"><rect class="node-rect" width="20" height="20.159999999999883" style="stroke-width: 0; stroke: rgb(128, 0, 128); stroke-opacity: 1; fill: rgb(87, 74, 226); fill-opacity: 1;"/><rect class="node-capture" x="-10" y="-10" width="40" height="40.15999999999988" style="fill-opacity: 0;"/><g class="node-entered" transform="translate(0,11.079999999999941)"><path class="node-label-guide" id="c898c7_0_node_8" d="M24,0L540,0" transform="matrix(1 0 0 1 0 0)"/><text class="node-label" transform="scale(1 1)" style="cursor: default; fill: rgb(42, 63, 95); text-shadow: rgb(255, 255, 255) -1px 1px 1px, rgb(255, 255, 255) 1px 1px 1px, rgb(255, 255, 255) 1px -1px 1px, rgb(255, 255, 255) -1px -1px 1px; font-family: 'Open Sans', verdana, arial, sans-serif; font-size: 10px; fill-opacity: 1;"><textPath class="node-label-text-path" alignment-baseline="middle" xlink:href="#c898c7_0_node_8" startOffset="0%" text-anchor="start" style="fill: rgb(0, 0, 0);">B4</textPath></text></g></g><g class="sankey-node" transform="translate(148.571,20.000)" style="opacity: 1;"><rect class="node-rect" width="20" height="98.39999999999989" style="stroke-width: 0; stroke: rgb(128, 0, 128); stroke-opacity: 1; fill: rgb(87, 74, 226); fill-opacity: 1;"/><rect class="node-capture" x="-10" y="-10" width="40" height="118.39999999999989" style="fill-opacity: 0;"/><g class="node-entered" transform="translate(0,50.199999999999946)"><path class="node-label-guide" id="c898c7_0_node_9" d="M24,0L540,0" transform="matrix(1 0 0 1 0 0)"/><text class="node-label" transform="scale(1 1)" style="cursor: default; fill: rgb(42, 63, 95); text-shadow: rgb(255, 255, 255) -1px 1px 1px, rgb(255, 255, 255) 1px 1px 1px, rgb(255, 255, 255) 1px -1px 1px, rgb(255, 255, 255) -1px -1px 1px; font-family: 'Open Sans', verdana, arial, sans-serif; font-size: 10px; fill-opacity: 1;"><textPath class="node-label-text-path" alignment-baseline="middle" xlink:href="#c898c7_0_node_9" startOffset="0%" text-anchor="start" style="fill: rgb(0, 0, 0);">C1</textPath></text></g></g><g class="sankey-node" transform="translate(148.571,299.360)" style="opacity: 1;"><rect class="node-rect" width="20" height="20.639999999999986" style="stroke-width: 0; stroke: rgb(128, 0, 128); stroke-opacity: 1; fill: rgb(87, 74, 226); fill-opacity: 1;"/><rect class="node-capture" x="-10" y="-10" width="40" height="40.639999999999986" style="fill-opacity: 0;"/><g class="node-entered" transform="translate(0,11.319999999999993)"><path class="node-label-guide" id="c898c7_0_node_10" d="M24,0L540,0" transform="matrix(1 0 0 1 0 0)"/><text class="node-label" transform="scale(1 1)" style="cursor: default; fill: rgb(42, 63, 95); text-shadow: rgb(255, 255, 255) -1px 1px 1px, rgb(255, 255, 255) 1px 1px 1px, rgb(255, 255, 255) 1px -1px 1px, rgb(255, 255, 255) -1px -1px 1px; font-family: 'Open Sans', verdana, arial, sans-serif; font-size: 10px; fill-opacity: 1;"><textPath class="node-label-text-path" alignment-baseline="middle" xlink:href="#c898c7_0_node_10" startOffset="0%" text-anchor="start" style="fill: rgb(0, 0, 0);">C2</textPath></text></g></g><g class="sankey-node" transform="translate(148.571,138.400)" style="opacity: 1;"><rect class="node-rect" width="20" height="93.12" style="stroke-width: 0; stroke: rgb(128, 0, 128); stroke-opacity: 1; fill: rgb(87, 74, 226); fill-opacity: 1;"/><rect class="node-capture" x="-10" y="-10" width="40" height="113.12" style="fill-opacity: 0;"/><g class="node-entered" transform="translate(0,47.56)"><path class="node-label-guide" id="c898c7_0_node_11" d="M24,0L540,0" transform="matrix(1 0 0 1 0 0)"/><text class="node-label" transform="scale(1 1)" style="cursor: default; fill: rgb(42, 63, 95); text-shadow: rgb(255, 255, 255) -1px 1px 1px, rgb(255, 255, 255) 1px 1px 1px, rgb(255, 255, 255) 1px -1px 1px, rgb(255, 255, 255) -1px -1px 1px; font-family: 'Open Sans', verdana, arial, sans-serif; font-size: 10px; fill-opacity: 1;"><textPath class="node-label-text-path" alignment-baseline="middle" xlink:href="#c898c7_0_node_11" startOffset="0%" text-anchor="start" style="fill: rgb(0, 0, 0);">C3</textPath></text></g></g><g class="sankey-node" transform="translate(148.571,251.520)" style="opacity: 1;"><rect class="node-rect" width="20" height="27.839999999999918" style="stroke-width: 0; stroke: rgb(128, 0, 128); stroke-opacity: 1; fill: rgb(87, 74, 226); fill-opacity: 1;"/><rect class="node-capture" x="-10" y="-10" width="40" height="47.83999999999992" style="fill-opacity: 0;"/><g class="node-entered" transform="translate(0,14.919999999999959)"><path class="node-label-guide" id="c898c7_0_node_12" d="M24,0L540,0" transform="matrix(1 0 0 1 0 0)"/><text class="node-label" transform="scale(1 1)" style="cursor: default; fill: rgb(42, 63, 95); text-shadow: rgb(255, 255, 255) -1px 1px 1px, rgb(255, 255, 255) 1px 1px 1px, rgb(255, 255, 255) 1px -1px 1px, rgb(255, 255, 255) -1px -1px 1px; font-family: 'Open Sans', verdana, arial, sans-serif; font-size: 10px; fill-opacity: 1;"><textPath class="node-label-text-path" alignment-baseline="middle" xlink:href="#c898c7_0_node_12" startOffset="0%" text-anchor="start" style="fill: rgb(0, 0, 0);">C4</textPath></text></g></g><g class="sankey-node" transform="translate(222.857,208.320)" style="opacity: 1;"><rect class="node-rect" width="20" height="47.04000000000002" style="stroke-width: 0; stroke: rgb(128, 0, 128); stroke-opacity: 1; fill: rgb(87, 74, 226); fill-opacity: 1;"/><rect class="node-capture" x="-10" y="-10" width="40" height="67.04000000000002" style="fill-opacity: 0;"/><g class="node-entered" transform="translate(0,24.52000000000001)"><path class="node-label-guide" id="c898c7_0_node_13" d="M24,0L540,0" transform="matrix(1 0 0 1 0 0)"/><text class="node-label" transform="scale(1 1)" style="cursor: default; fill: rgb(42, 63, 95); text-shadow: rgb(255, 255, 255) -1px 1px 1px, rgb(255, 255, 255) 1px 1px 1px, rgb(255, 255, 255) 1px -1px 1px, rgb(255, 255, 255) -1px -1px 1px; font-family: 'Open Sans', verdana, arial, sans-serif; font-size: 10px; fill-opacity: 1;"><textPath class="node-label-text-path" alignment-baseline="middle" xlink:href="#c898c7_0_node_13" startOffset="0%" text-anchor="start" style="fill: rgb(0, 0, 0);">D1</textPath></text></g></g><g class="sankey-node" transform="translate(222.857,20.000)" style="opacity: 1;"><rect class="node-rect" width="20" height="89.27999999999987" style="stroke-width: 0; stroke: rgb(128, 0, 128); stroke-opacity: 1; fill: rgb(87, 74, 226); fill-opacity: 1;"/><rect class="node-capture" x="-10" y="-10" width="40" height="109.27999999999987" style="fill-opacity: 0;"/><g class="node-entered" transform="translate(0,45.63999999999994)"><path class="node-label-guide" id="c898c7_0_node_14" d="M24,0L540,0" transform="matrix(1 0 0 1 0 0)"/><text class="node-label" transform="scale(1 1)" style="cursor: default; fill: rgb(42, 63, 95); text-shadow: rgb(255, 255, 255) -1px 1px 1px, rgb(255, 255, 255) 1px 1px 1px, rgb(255, 255, 255) 1px -1px 1px, rgb(255, 255, 255) -1px -1px 1px; font-family: 'Open Sans', verdana, arial, sans-serif; font-size: 10px; fill-opacity: 1;"><textPath class="node-label-text-path" alignment-baseline="middle" xlink:href="#c898c7_0_node_14" startOffset="0%" text-anchor="start" style="fill: rgb(0, 0, 0);">D2</textPath></text></g></g><g class="sankey-node" transform="translate(222.857,275.360)" style="opacity: 1;"><rect class="node-rect" width="20" height="44.639999999999986" style="stroke-width: 0; stroke: rgb(128, 0, 128); stroke-opacity: 1; fill: rgb(87, 74, 226); fill-opacity: 1;"/><rect class="node-capture" x="-10" y="-10" width="40" height="64.63999999999999" style="fill-opacity: 0;"/><g class="node-entered" transform="translate(0,23.319999999999993)"><path class="node-label-guide" id="c898c7_0_node_15" d="M24,0L540,0" transform="matrix(1 0 0 1 0 0)"/><text class="node-label" transform="scale(1 1)" style="cursor: default; fill: rgb(42, 63, 95); text-shadow: rgb(255, 255, 255) -1px 1px 1px, rgb(255, 255, 255) 1px 1px 1px, rgb(255, 255, 255) 1px -1px 1px, rgb(255, 255, 255) -1px -1px 1px; font-family: 'Open Sans', verdana, arial, sans-serif; font-size: 10px; fill-opacity: 1;"><textPath class="node-label-text-path" alignment-baseline="middle" xlink:href="#c898c7_0_node_15" startOffset="0%" text-anchor="start" style="fill: rgb(0, 0, 0);">D3</textPath></text></g></g><g class="sankey-node" transform="translate(222.857,129.280)" style="opacity: 1;"><rect class="node-rect" width="20" height="59.04000000000025" style="stroke-width: 0; stroke: rgb(128, 0, 128); stroke-opacity: 1; fill: rgb(87, 74, 226); fill-opacity: 1;"/><rect class="node-capture" x="-10" y="-10" width="40" height="79.04000000000025" style="fill-opacity: 0;"/><g class="node-entered" transform="translate(0,30.520000000000124)"><path class="node-label-guide" id="c898c7_0_node_16" d="M24,0L540,0" transform="matrix(1 0 0 1 0 0)"/><text class="node-label" transform="scale(1 1)" style="cursor: default; fill: rgb(42, 63, 95); text-shadow: rgb(255, 255, 255) -1px 1px 1px, rgb(255, 255, 255) 1px 1px 1px, rgb(255, 255, 255) 1px -1px 1px, rgb(255, 255, 255) -1px -1px 1px; font-family: 'Open Sans', verdana, arial, sans-serif; font-size: 10px; fill-opacity: 1;"><textPath class="node-label-text-path" alignment-baseline="middle" xlink:href="#c898c7_0_node_16" startOffset="0%" text-anchor="start" style="fill: rgb(0, 0, 0);">D4</textPath></text></g></g><g class="sankey-node" transform="translate(297.143,100.640)" style="opacity: 1;"><rect class="node-rect" width="20" height="74.88000000000028" style="stroke-width: 0; stroke: rgb(128, 0, 128); stroke-opacity: 1; fill: rgb(87, 74, 226); fill-opacity: 1;"/><rect class="node-capture" x="-10" y="-10" width="40" height="94.88000000000028" style="fill-opacity: 0;"/><g class="node-entered" transform="translate(0,38.44000000000014)"><path class="node-label-guide" id="c898c7_0_node_17" d="M24,0L540,0" transform="matrix(1 0 0 1 0 0)"/><text class="node-label" transform="scale(1 1)" style="cursor: default; fill: rgb(42, 63, 95); text-shadow: rgb(255, 255, 255) -1px 1px 1px, rgb(255, 255, 255) 1px 1px 1px, rgb(255, 255, 255) 1px -1px 1px, rgb(255, 255, 255) -1px -1px 1px; font-family: 'Open Sans', verdana, arial, sans-serif; font-size: 10px; fill-opacity: 1;"><textPath class="node-label-text-path" alignment-baseline="middle" xlink:href="#c898c7_0_node_17" startOffset="0%" text-anchor="start" style="fill: rgb(0, 0, 0);">E1</textPath></text></g></g><g class="sankey-node" transform="translate(297.143,-0.000)" style="opacity: 1;"><rect class="node-rect" width="20" height="80.64000000000003" style="stroke-width: 0; stroke: rgb(128, 0, 128); stroke-opacity: 1; fill: rgb(87, 74, 226); fill-opacity: 1;"/><rect class="node-capture" x="-10" y="-10" width="40" height="100.64000000000003" style="fill-opacity: 0;"/><g class="node-entered" transform="translate(0,41.320000000000014)"><path class="node-label-guide" id="c898c7_0_node_18" d="M24,0L540,0" transform="matrix(1 0 0 1 0 0)"/><text class="node-label" transform="scale(1 1)" style="cursor: default; fill: rgb(42, 63, 95); text-shadow: rgb(255, 255, 255) -1px 1px 1px, rgb(255, 255, 255) 1px 1px 1px, rgb(255, 255, 255) 1px -1px 1px, rgb(255, 255, 255) -1px -1px 1px; font-family: 'Open Sans', verdana, arial, sans-serif; font-size: 10px; fill-opacity: 1;"><textPath class="node-label-text-path" alignment-baseline="middle" xlink:href="#c898c7_0_node_18" startOffset="0%" text-anchor="start" style="fill: rgb(0, 0, 0);">E2</textPath></text></g></g><g class="sankey-node" transform="translate(297.143,303.680)" style="opacity: 1;"><rect class="node-rect" width="20" height="16.320000000000107" style="stroke-width: 0; stroke: rgb(128, 0, 128); stroke-opacity: 1; fill: rgb(87, 74, 226); fill-opacity: 1;"/><rect class="node-capture" x="-10" y="-10" width="40" height="36.32000000000011" style="fill-opacity: 0;"/><g class="node-entered" transform="translate(0,9.160000000000053)"><path class="node-label-guide" id="c898c7_0_node_19" d="M24,0L540,0" transform="matrix(1 0 0 1 0 0)"/><text class="node-label" transform="scale(1 1)" style="cursor: default; fill: rgb(42, 63, 95); text-shadow: rgb(255, 255, 255) -1px 1px 1px, rgb(255, 255, 255) 1px 1px 1px, rgb(255, 255, 255) 1px -1px 1px, rgb(255, 255, 255) -1px -1px 1px; font-family: 'Open Sans', verdana, arial, sans-serif; font-size: 10px; fill-opacity: 1;"><textPath class="node-label-text-path" alignment-baseline="middle" xlink:href="#c898c7_0_node_19" startOffset="0%" text-anchor="start" style="fill: rgb(0, 0, 0);">E3</textPath></text></g></g><g class="sankey-node" transform="translate(297.143,238.080)" style="opacity: 1;"><rect class="node-rect" width="20" height="45.60000000000002" style="stroke-width: 0; stroke: rgb(128, 0, 128); stroke-opacity: 1; fill: rgb(87, 74, 226); fill-opacity: 1;"/><rect class="node-capture" x="-10" y="-10" width="40" height="65.60000000000002" style="fill-opacity: 0;"/><g class="node-entered" transform="translate(0,23.80000000000001)"><path class="node-label-guide" id="c898c7_0_node_20" d="M24,0L540,0" transform="matrix(1 0 0 1 0 0)"/><text class="node-label" transform="scale(1 1)" style="cursor: default; fill: rgb(42, 63, 95); text-shadow: rgb(255, 255, 255) -1px 1px 1px, rgb(255, 255, 255) 1px 1px 1px, rgb(255, 255, 255) 1px -1px 1px, rgb(255, 255, 255) -1px -1px 1px; font-family: 'Open Sans', verdana, arial, sans-serif; font-size: 10px; fill-opacity: 1;"><textPath class="node-label-text-path" alignment-baseline="middle" xlink:href="#c898c7_0_node_20" startOffset="0%" text-anchor="start" style="fill: rgb(0, 0, 0);">E4</textPath></text></g></g><g class="sankey-node" transform="translate(297.143,195.520)" style="opacity: 1;"><rect class="node-rect" width="20" height="22.560000000000002" style="stroke-width: 0; stroke: rgb(128, 0, 128); stroke-opacity: 1; fill: rgb(87, 74, 226); fill-opacity: 1;"/><rect class="node-capture" x="-10" y="-10" width="40" height="42.56" style="fill-opacity: 0;"/><g class="node-entered" transform="translate(0,12.280000000000001)"><path class="node-label-guide" id="c898c7_0_node_21" d="M24,0L540,0" transform="matrix(1 0 0 1 0 0)"/><text class="node-label" transform="scale(1 1)" style="cursor: default; fill: rgb(42, 63, 95); text-shadow: rgb(255, 255, 255) -1px 1px 1px, rgb(255, 255, 255) 1px 1px 1px, rgb(255, 255, 255) 1px -1px 1px, rgb(255, 255, 255) -1px -1px 1px; font-family: 'Open Sans', verdana, arial, sans-serif; font-size: 10px; fill-opacity: 1;"><textPath class="node-label-text-path" alignment-baseline="middle" xlink:href="#c898c7_0_node_21" startOffset="0%" text-anchor="start" style="fill: rgb(0, 0, 0);">E5</textPath></text></g></g><g class="sankey-node" transform="translate(371.429,0.000)" style="opacity: 1;"><rect class="node-rect" width="20" height="48.959999999999965" style="stroke-width: 0; stroke: rgb(128, 0, 128); stroke-opacity: 1; fill: rgb(87, 74, 226); fill-opacity: 1;"/><rect class="node-capture" x="-10" y="-10" width="40" height="68.95999999999997" style="fill-opacity: 0;"/><g class="node-entered" transform="translate(0,25.479999999999983)"><path class="node-label-guide" id="c898c7_0_node_22" d="M24,0L540,0" transform="matrix(1 0 0 1 0 0)"/><text class="node-label" transform="scale(1 1)" style="cursor: default; fill: rgb(42, 63, 95); text-shadow: rgb(255, 255, 255) -1px 1px 1px, rgb(255, 255, 255) 1px 1px 1px, rgb(255, 255, 255) 1px -1px 1px, rgb(255, 255, 255) -1px -1px 1px; font-family: 'Open Sans', verdana, arial, sans-serif; font-size: 10px; fill-opacity: 1;"><textPath class="node-label-text-path" alignment-baseline="middle" xlink:href="#c898c7_0_node_22" startOffset="0%" text-anchor="start" style="fill: rgb(0, 0, 0);">F1</textPath></text></g></g><g class="sankey-node" transform="translate(371.429,193.920)" style="opacity: 1;"><rect class="node-rect" width="20" height="47.519999999999925" style="stroke-width: 0; stroke: rgb(128, 0, 128); stroke-opacity: 1; fill: rgb(87, 74, 226); fill-opacity: 1;"/><rect class="node-capture" x="-10" y="-10" width="40" height="67.51999999999992" style="fill-opacity: 0;"/><g class="node-entered" transform="translate(0,24.759999999999962)"><path class="node-label-guide" id="c898c7_0_node_23" d="M24,0L540,0" transform="matrix(1 0 0 1 0 0)"/><text class="node-label" transform="scale(1 1)" style="cursor: default; fill: rgb(42, 63, 95); text-shadow: rgb(255, 255, 255) -1px 1px 1px, rgb(255, 255, 255) 1px 1px 1px, rgb(255, 255, 255) 1px -1px 1px, rgb(255, 255, 255) -1px -1px 1px; font-family: 'Open Sans', verdana, arial, sans-serif; font-size: 10px; fill-opacity: 1;"><textPath class="node-label-text-path" alignment-baseline="middle" xlink:href="#c898c7_0_node_23" startOffset="0%" text-anchor="start" style="fill: rgb(0, 0, 0);">F2</textPath></text></g></g><g class="sankey-node" transform="translate(371.429,261.440)" style="opacity: 1;"><rect class="node-rect" width="20" height="58.56" style="stroke-width: 0; stroke: rgb(128, 0, 128); stroke-opacity: 1; fill: rgb(87, 74, 226); fill-opacity: 1;"/><rect class="node-capture" x="-10" y="-10" width="40" height="78.56" style="fill-opacity: 0;"/><g class="node-entered" transform="translate(0,30.28)"><path class="node-label-guide" id="c898c7_0_node_24" d="M24,0L540,0" transform="matrix(1 0 0 1 0 0)"/><text class="node-label" transform="scale(1 1)" style="cursor: default; fill: rgb(42, 63, 95); text-shadow: rgb(255, 255, 255) -1px 1px 1px, rgb(255, 255, 255) 1px 1px 1px, rgb(255, 255, 255) 1px -1px 1px, rgb(255, 255, 255) -1px -1px 1px; font-family: 'Open Sans', verdana, arial, sans-serif; font-size: 10px; fill-opacity: 1;"><textPath class="node-label-text-path" alignment-baseline="middle" xlink:href="#c898c7_0_node_24" startOffset="0%" text-anchor="start" style="fill: rgb(0, 0, 0);">F3</textPath></text></g></g><g class="sankey-node" transform="translate(371.429,68.960)" style="opacity: 1;"><rect class="node-rect" width="20" height="41.759999999999934" style="stroke-width: 0; stroke: rgb(128, 0, 128); stroke-opacity: 1; fill: rgb(87, 74, 226); fill-opacity: 1;"/><rect class="node-capture" x="-10" y="-10" width="40" height="61.759999999999934" style="fill-opacity: 0;"/><g class="node-entered" transform="translate(0,21.879999999999967)"><path class="node-label-guide" id="c898c7_0_node_25" d="M24,0L540,0" transform="matrix(1 0 0 1 0 0)"/><text class="node-label" transform="scale(1 1)" style="cursor: default; fill: rgb(42, 63, 95); text-shadow: rgb(255, 255, 255) -1px 1px 1px, rgb(255, 255, 255) 1px 1px 1px, rgb(255, 255, 255) 1px -1px 1px, rgb(255, 255, 255) -1px -1px 1px; font-family: 'Open Sans', verdana, arial, sans-serif; font-size: 10px; fill-opacity: 1;"><textPath class="node-label-text-path" alignment-baseline="middle" xlink:href="#c898c7_0_node_25" startOffset="0%" text-anchor="start" style="fill: rgb(0, 0, 0);">F4</textPath></text></g></g><g class="sankey-node" transform="translate(371.429,130.720)" style="opacity: 1;"><rect class="node-rect" width="20" height="43.20000000000016" style="stroke-width: 0; stroke: rgb(128, 0, 128); stroke-opacity: 1; fill: rgb(87, 74, 226); fill-opacity: 1;"/><rect class="node-capture" x="-10" y="-10" width="40" height="63.20000000000016" style="fill-opacity: 0;"/><g class="node-entered" transform="translate(0,22.60000000000008)"><path class="node-label-guide" id="c898c7_0_node_26" d="M24,0L540,0" transform="matrix(1 0 0 1 0 0)"/><text class="node-label" transform="scale(1 1)" style="cursor: default; fill: rgb(42, 63, 95); text-shadow: rgb(255, 255, 255) -1px 1px 1px, rgb(255, 255, 255) 1px 1px 1px, rgb(255, 255, 255) 1px -1px 1px, rgb(255, 255, 255) -1px -1px 1px; font-family: 'Open Sans', verdana, arial, sans-serif; font-size: 10px; fill-opacity: 1;"><textPath class="node-label-text-path" alignment-baseline="middle" xlink:href="#c898c7_0_node_26" startOffset="0%" text-anchor="start" style="fill: rgb(0, 0, 0);">F5</textPath></text></g></g><g class="sankey-node" transform="translate(445.714,20.000)" style="opacity: 1;"><rect class="node-rect" width="20" height="112.79999999999997" style="stroke-width: 0; stroke: rgb(128, 0, 128); stroke-opacity: 1; fill: rgb(87, 74, 226); fill-opacity: 1;"/><rect class="node-capture" x="-10" y="-10" width="40" height="132.79999999999995" style="fill-opacity: 0;"/><g class="node-entered" transform="translate(0,57.399999999999984)"><path class="node-label-guide" id="c898c7_0_node_27" d="M24,0L540,0" transform="matrix(1 0 0 1 0 0)"/><text class="node-label" transform="scale(1 1)" style="cursor: default; fill: rgb(42, 63, 95); text-shadow: rgb(255, 255, 255) -1px 1px 1px, rgb(255, 255, 255) 1px 1px 1px, rgb(255, 255, 255) 1px -1px 1px, rgb(255, 255, 255) -1px -1px 1px; font-family: 'Open Sans', verdana, arial, sans-serif; font-size: 10px; fill-opacity: 1;"><textPath class="node-label-text-path" alignment-baseline="middle" xlink:href="#c898c7_0_node_27" startOffset="0%" text-anchor="start" style="fill: rgb(0, 0, 0);">G1</textPath></text></g></g><g class="sankey-node" transform="translate(445.714,237.600)" style="opacity: 1;"><rect class="node-rect" width="20" height="37.44" style="stroke-width: 0; stroke: rgb(128, 0, 128); stroke-opacity: 1; fill: rgb(87, 74, 226); fill-opacity: 1;"/><rect class="node-capture" x="-10" y="-10" width="40" height="57.44" style="fill-opacity: 0;"/><g class="node-entered" transform="translate(0,19.72)"><path class="node-label-guide" id="c898c7_0_node_28" d="M24,0L540,0" transform="matrix(1 0 0 1 0 0)"/><text class="node-label" transform="scale(1 1)" style="cursor: default; fill: rgb(42, 63, 95); text-shadow: rgb(255, 255, 255) -1px 1px 1px, rgb(255, 255, 255) 1px 1px 1px, rgb(255, 255, 255) 1px -1px 1px, rgb(255, 255, 255) -1px -1px 1px; font-family: 'Open Sans', verdana, arial, sans-serif; font-size: 10px; fill-opacity: 1;"><textPath class="node-label-text-path" alignment-baseline="middle" xlink:href="#c898c7_0_node_28" startOffset="0%" text-anchor="start" style="fill: rgb(0, 0, 0);">G2</textPath></text></g></g><g class="sankey-node" transform="translate(445.714,152.800)" style="opacity: 1;"><rect class="node-rect" width="20" height="64.79999999999984" style="stroke-width: 0; stroke: rgb(128, 0, 128); stroke-opacity: 1; fill: rgb(87, 74, 226); fill-opacity: 1;"/><rect class="node-capture" x="-10" y="-10" width="40" height="84.79999999999984" style="fill-opacity: 0;"/><g class="node-entered" transform="translate(0,33.39999999999992)"><path class="node-label-guide" id="c898c7_0_node_29" d="M24,0L540,0" transform="matrix(1 0 0 1 0 0)"/><text class="node-label" transform="scale(1 1)" style="cursor: default; fill: rgb(42, 63, 95); text-shadow: rgb(255, 255, 255) -1px 1px 1px, rgb(255, 255, 255) 1px 1px 1px, rgb(255, 255, 255) 1px -1px 1px, rgb(255, 255, 255) -1px -1px 1px; font-family: 'Open Sans', verdana, arial, sans-serif; font-size: 10px; fill-opacity: 1;"><textPath class="node-label-text-path" alignment-baseline="middle" xlink:href="#c898c7_0_node_29" startOffset="0%" text-anchor="start" style="fill: rgb(0, 0, 0);">G3</textPath></text></g></g><g class="sankey-node" transform="translate(445.714,295.040)" style="opacity: 1;"><rect class="node-rect" width="20" height="24.96000000000015" style="stroke-width: 0; stroke: rgb(128, 0, 128); stroke-opacity: 1; fill: rgb(87, 74, 226); fill-opacity: 1;"/><rect class="node-capture" x="-10" y="-10" width="40" height="44.96000000000015" style="fill-opacity: 0;"/><g class="node-entered" transform="translate(0,13.480000000000075)"><path class="node-label-guide" id="c898c7_0_node_30" d="M24,0L540,0" transform="matrix(1 0 0 1 0 0)"/><text class="node-label" transform="scale(1 1)" style="cursor: default; fill: rgb(42, 63, 95); text-shadow: rgb(255, 255, 255) -1px 1px 1px, rgb(255, 255, 255) 1px 1px 1px, rgb(255, 255, 255) 1px -1px 1px, rgb(255, 255, 255) -1px -1px 1px; font-family: 'Open Sans', verdana, arial, sans-serif; font-size: 10px; fill-opacity: 1;"><textPath class="node-label-text-path" alignment-baseline="middle" xlink:href="#c898c7_0_node_30" startOffset="0%" text-anchor="start" style="fill: rgb(0, 0, 0);">G4</textPath></text></g></g><g class="sankey-node" transform="translate(520.000,20.000)" style="opacity: 1;"><rect class="node-rect" width="20" height="98.39999999999995" style="stroke-width: 0; stroke: rgb(128, 0, 128); stroke-opacity: 1; fill: rgb(87, 74, 226); fill-opacity: 1;"/><rect class="node-capture" x="-10" y="-10" width="40" height="118.39999999999995" style="fill-opacity: 0;"/><g class="node-entered" transform="translate(0,50.199999999999974)"><path class="node-label-guide" id="c898c7_0_node_31" d="M-540,0L-4,0" transform="matrix(1 0 0 1 0 0)"/><text class="node-label" transform="scale(1 1)" style="cursor: default; fill: rgb(42, 63, 95); text-shadow: rgb(255, 255, 255) -1px 1px 1px, rgb(255, 255, 255) 1px 1px 1px, rgb(255, 255, 255) 1px -1px 1px, rgb(255, 255, 255) -1px -1px 1px; font-family: 'Open Sans', verdana, arial, sans-serif; font-size: 10px; fill-opacity: 1;"><textPath class="node-label-text-path" alignment-baseline="middle" xlink:href="#c898c7_0_node_31" startOffset="100%" text-anchor="end" style="fill: rgb(0, 0, 0);">H1</textPath></text></g></g><g class="sankey-node" transform="translate(520.000,307.040)" style="opacity: 1;"><rect class="node-rect" width="20" height="12.960000000000036" style="stroke-width: 0; stroke: rgb(128, 0, 128); stroke-opacity: 1; fill: rgb(87, 74, 226); fill-opacity: 1;"/><rect class="node-capture" x="-10" y="-10" width="40" height="32.960000000000036" style="fill-opacity: 0;"/><g class="node-entered" transform="translate(0,7.480000000000018)"><path class="node-label-guide" id="c898c7_0_node_32" d="M-540,0L-4,0" transform="matrix(1 0 0 1 0 0)"/><text class="node-label" transform="scale(1 1)" style="cursor: default; fill: rgb(42, 63, 95); text-shadow: rgb(255, 255, 255) -1px 1px 1px, rgb(255, 255, 255) 1px 1px 1px, rgb(255, 255, 255) 1px -1px 1px, rgb(255, 255, 255) -1px -1px 1px; font-family: 'Open Sans', verdana, arial, sans-serif; font-size: 10px; fill-opacity: 1;"><textPath class="node-label-text-path" alignment-baseline="middle" xlink:href="#c898c7_0_node_32" startOffset="100%" text-anchor="end" style="fill: rgb(0, 0, 0);">H2</textPath></text></g></g><g class="sankey-node" transform="translate(520.000,236.160)" style="opacity: 1;"><rect class="node-rect" width="20" height="50.879999999999995" style="stroke-width: 0; stroke: rgb(128, 0, 128); stroke-opacity: 1; fill: rgb(87, 74, 226); fill-opacity: 1;"/><rect class="node-capture" x="-10" y="-10" width="40" height="70.88" style="fill-opacity: 0;"/><g class="node-entered" transform="translate(0,26.439999999999998)"><path class="node-label-guide" id="c898c7_0_node_33" d="M-540,0L-4,0" transform="matrix(1 0 0 1 0 0)"/><text class="node-label" transform="scale(1 1)" style="cursor: default; fill: rgb(42, 63, 95); text-shadow: rgb(255, 255, 255) -1px 1px 1px, rgb(255, 255, 255) 1px 1px 1px, rgb(255, 255, 255) 1px -1px 1px, rgb(255, 255, 255) -1px -1px 1px; font-family: 'Open Sans', verdana, arial, sans-serif; font-size: 10px; fill-opacity: 1;"><textPath class="node-label-text-path" alignment-baseline="middle" xlink:href="#c898c7_0_node_33" startOffset="100%" text-anchor="end" style="fill: rgb(0, 0, 0);">H3</textPath></text></g></g><g class="sankey-node" transform="translate(520.000,138.400)" style="opacity: 1;"><rect class="node-rect" width="20" height="77.75999999999999" style="stroke-width: 0; stroke: rgb(128, 0, 128); stroke-opacity: 1; fill: rgb(87, 74, 226); fill-opacity: 1;"/><rect class="node-capture" x="-10" y="-10" width="40" height="97.75999999999999" style="fill-opacity: 0;"/><g class="node-entered" transform="translate(0,39.879999999999995)"><path class="node-label-guide" id="c898c7_0_node_34" d="M-540,0L-4,0" transform="matrix(1 0 0 1 0 0)"/><text class="node-label" transform="scale(1 1)" style="cursor: default; fill: rgb(42, 63, 95); text-shadow: rgb(255, 255, 255) -1px 1px 1px, rgb(255, 255, 255) 1px 1px 1px, rgb(255, 255, 255) 1px -1px 1px, rgb(255, 255, 255) -1px -1px 1px; font-family: 'Open Sans', verdana, arial, sans-serif; font-size: 10px; fill-opacity: 1;"><textPath class="node-label-text-path" alignment-baseline="middle" xlink:href="#c898c7_0_node_34" startOffset="100%" text-anchor="end" style="fill: rgb(0, 0, 0);">H4</textPath></text></g></g></g></g><defs id="topdefs-e9651d"><g class="clips"/></defs><g class="layer-above"><g class="imagelayer"/><g class="shapelayer"/></g><g class="infolayer"><g class="g-gtitle"><text class="gtitle" x="35" y="50" text-anchor="start" dy="0em" style="font-family: 'Open Sans', verdana, arial, sans-serif; font-size: 14px; fill: rgb(42, 63, 95); opacity: 1; font-weight: normal; white-space: pre;">Sankey Diagram 36</text></g><g class="first-render"/></g></svg>