<svg class="main-svg" xmlns="http://www.w3.org/2000/svg" xmlns:xlink="http://www.w3.org/1999/xlink" width="700" height="500" style="" viewBox="0 0 700 500"><rect x="0" y="0" width="700" height="500" style="fill: rgb(255, 255, 255); fill-opacity: 1;"/><defs id="defs-931036"><g class="clips"/><g class="gradients"/></defs><g class="bglayer"/><g class="layer-below"><g class="imagelayer"/><g class="shapelayer"/></g><g class="cartesianlayer"/><g class="polarlayer"/><g class="ternarylayer"/><g class="geolayer"/><g class="funnelarealayer"/><g class="pielayer"/><g class="treemaplayer"/><g class="sunburstlayer"/><g class="glimages"/><g class="sankey" transform="translate(80,100)matrix(1 0 0 1 0 0)" style="box-sizing: content-box; position: absolute; left: 0px; shape-rendering: geometricprecision; pointer-events: auto;"><g class="sankey-links" style="fill: none;"><path class="sankey-link" d="M20,20.00000000000003C62,20.00000000000003 62,19.99999999999971 104,19.99999999999971L104,79.99999999999972C62,79.99999999999972 62,80.00000000000003 20,80.00000000000003Z" style="stroke: rgb(68, 68, 68); stroke-opacity: 1; fill: rgb(0, 0, 0); fill-opacity: 0.2; stroke-width: 0; opacity: 1;"/><path class="sankey-link" d="M20,179.99999999999994C62,179.99999999999994 62,159.9999999999997 104,159.9999999999997L104,204.9999999999997C62,204.9999999999997 62,224.99999999999994 20,224.99999999999994Z" style="stroke: rgb(68, 68, 68); stroke-opacity: 1; fill: rgb(0, 0, 0); fill-opacity: 0.2; stroke-width: 0; opacity: 1;"/><path class="sankey-link" d="M20,224.99999999999994C62,224.99999999999994 62,224.99999999999977 104,224.99999999999977L104,239.99999999999977C62,239.99999999999977 62,239.99999999999994 20,239.99999999999994Z" style="stroke: rgb(68, 68, 68); stroke-opacity: 1; fill: rgb(0, 0, 0); fill-opacity: 0.2; stroke-width: 0; opacity: 1;"/><path class="sankey-link" d="M20,259.99999999999994C62,259.99999999999994 62,259.99999999999983 104,259.99999999999983L104,319.99999999999983C62,319.99999999999983 62,319.99999999999994 20,319.99999999999994Z" style="stroke: rgb(68, 68, 68); stroke-opacity: 1; fill: rgb(0, 0, 0); fill-opacity: 0.2; stroke-width: 0; opacity: 1;"/><path class="sankey-link" d="M20,99.99999999999997C62,99.99999999999997 62,79.99999999999972 104,79.99999999999972L104,139.99999999999972C62,139.99999999999972 62,159.99999999999997 20,159.99999999999997Z" style="stroke: rgb(68, 68, 68); stroke-opacity: 1; fill: rgb(0, 0, 0); fill-opacity: 0.2; stroke-width: 0; opacity: 1;"/><path class="sankey-link" d="M124,259.99999999999983C166,259.99999999999983 166,105.80000000000008 208,105.80000000000008L208,146.00000000000009C166,146.00000000000009 166,300.1999999999999 124,300.1999999999999Z" style="stroke: rgb(68, 68, 68); stroke-opacity: 1; fill: rgb(0, 0, 0); fill-opacity: 0.2; stroke-width: 0; opacity: 1;"/><path class="sankey-link" d="M124,300.1999999999998C166,300.1999999999998 166,254.3999999999999 208,254.3999999999999L208,274.1999999999999C166,274.1999999999999 166,319.9999999999998 124,319.9999999999998Z" style="stroke: rgb(68, 68, 68); stroke-opacity: 1; fill: rgb(0, 0, 0); fill-opacity: 0.2; stroke-width: 0; opacity: 1;"/><path class="sankey-link" d="M124,181.59999999999968C166,181.59999999999968 166,294.19999999999993 208,294.19999999999993L208,317.5999999999999C166,317.5999999999999 166,204.99999999999966 124,204.99999999999966Z" style="stroke: rgb(68, 68, 68); stroke-opacity: 1; fill: rgb(0, 0, 0); fill-opacity: 0.2; stroke-width: 0; opacity: 1;"/><path class="sankey-link" d="M124,166.59999999999968C166,166.59999999999968 166,183.3999999999999 208,183.3999999999999L208,192.99999999999991C166,192.99999999999991 166,176.1999999999997 124,176.1999999999997Z" style="stroke: rgb(68, 68, 68); stroke-opacity: 1; fill: rgb(0, 0, 0); fill-opacity: 0.2; stroke-width: 0; opacity: 1;"/><path class="sankey-link" d="M124,159.9999999999997C166,159.9999999999997 166,97.40000000000009 208,97.40000000000009L208,104.00000000000009C166,104.00000000000009 166,166.5999999999997 124,166.5999999999997Z" style="stroke: rgb(68, 68, 68); stroke-opacity: 1; fill: rgb(0, 0, 0); fill-opacity: 0.2; stroke-width: 0; opacity: 1;"/><path class="sankey-link" d="M124,176.19999999999968C166,176.19999999999968 166,247.7999999999999 208,247.7999999999999L208,253.19999999999987C166,253.19999999999987 166,181.59999999999965 124,181.59999999999965Z" style="stroke: rgb(68, 68, 68); stroke-opacity: 1; fill: rgb(0, 0, 0); fill-opacity: 0.2; stroke-width: 0; opacity: 1;"/><path class="sankey-link" d="M124,19.99999999999971C166,19.99999999999971 166,20.0000000000001 208,20.0000000000001L208,97.40000000000009C166,97.40000000000009 166,97.3999999999997 124,97.3999999999997Z" style="stroke: rgb(68, 68, 68); stroke-opacity: 1; fill: rgb(0, 0, 0); fill-opacity: 0.2; stroke-width: 0; opacity: 1;"/><path class="sankey-link" d="M124,97.3999999999997C166,97.3999999999997 166,165.9999999999999 208,165.9999999999999L208,183.39999999999986C166,183.39999999999986 166,114.7999999999997 124,114.7999999999997Z" style="stroke: rgb(68, 68, 68); stroke-opacity: 1; fill: rgb(0, 0, 0); fill-opacity: 0.2; stroke-width: 0; opacity: 1;"/><path class="sankey-link" d="M124,114.7999999999997C166,114.7999999999997 166,222.5999999999999 208,222.5999999999999L208,247.7999999999999C166,247.7999999999999 166,139.9999999999997 124,139.9999999999997Z" style="stroke: rgb(68, 68, 68); stroke-opacity: 1; fill: rgb(0, 0, 0); fill-opacity: 0.2; stroke-width: 0; opacity: 1;"/><path class="sankey-link" d="M124,226.79999999999978C166,226.79999999999978 166,192.9999999999999 208,192.9999999999999L208,202.5999999999999C166,202.5999999999999 166,236.3999999999998 124,236.3999999999998Z" style="stroke: rgb(68, 68, 68); stroke-opacity: 1; fill: rgb(0, 0, 0); fill-opacity: 0.2; stroke-width: 0; opacity: 1;"/><path class="sankey-link" d="M124,224.99999999999977C166,224.99999999999977 166,104.00000000000009 208,104.00000000000009L208,105.8000000000001C166,105.8000000000001 166,226.79999999999978 124,226.79999999999978Z" style="stroke: rgb(68, 68, 68); stroke-opacity: 1; fill: rgb(0, 0, 0); fill-opacity: 0.2; stroke-width: 0; opacity: 1;"/><path class="sankey-link" d="M124,236.39999999999978C166,236.39999999999978 166,253.1999999999999 208,253.1999999999999L208,254.3999999999999C166,254.3999999999999 166,237.59999999999977 124,237.59999999999977Z" style="stroke: rgb(68, 68, 68); stroke-opacity: 1; fill: rgb(0, 0, 0); fill-opacity: 0.2; stroke-width: 0; opacity: 1;"/><path class="sankey-link" d="M124,237.59999999999977C166,237.59999999999977 166,317.5999999999999 208,317.5999999999999L208,319.9999999999999C166,319.9999999999999 166,239.99999999999974 124,239.99999999999974Z" style="stroke: rgb(68, 68, 68); stroke-opacity: 1; fill: rgb(0, 0, 0); fill-opacity: 0.2; stroke-width: 0; opacity: 1;"/><path class="sankey-link" d="M228,165.9999999999999C270,165.9999999999999 270,149.19999999999976 312,149.19999999999976L312,168.39999999999975C270,168.39999999999975 270,185.19999999999987 228,185.19999999999987Z" style="stroke: rgb(68, 68, 68); stroke-opacity: 1; fill: rgb(0, 0, 0); fill-opacity: 0.2; stroke-width: 0; opacity: 1;"/><path class="sankey-link" d="M228,185.19999999999987C270,185.19999999999987 270,222.5999999999998 312,222.5999999999998L312,239.99999999999977C270,239.99999999999977 270,202.59999999999985 228,202.59999999999985Z" style="stroke: rgb(68, 68, 68); stroke-opacity: 1; fill: rgb(0, 0, 0); fill-opacity: 0.2; stroke-width: 0; opacity: 1;"/><path class="sankey-link" d="M228,242.99999999999991C270,242.99999999999991 270,282.2 312,282.2L312,313.40000000000003C270,313.40000000000003 270,274.19999999999993 228,274.19999999999993Z" style="stroke: rgb(68, 68, 68); stroke-opacity: 1; fill: rgb(0, 0, 0); fill-opacity: 0.2; stroke-width: 0; opacity: 1;"/><path class="sankey-link" d="M228,222.5999999999999C270,222.5999999999999 270,78.19999999999962 312,78.19999999999962L312,98.59999999999962C270,98.59999999999962 270,242.9999999999999 228,242.9999999999999Z" style="stroke: rgb(68, 68, 68); stroke-opacity: 1; fill: rgb(0, 0, 0); fill-opacity: 0.2; stroke-width: 0; opacity: 1;"/><path class="sankey-link" d="M228,20.000000000000096C270,20.000000000000096 270,19.999999999999627 312,19.999999999999627L312,78.19999999999962C270,78.19999999999962 270,78.20000000000009 228,78.20000000000009Z" style="stroke: rgb(68, 68, 68); stroke-opacity: 1; fill: rgb(0, 0, 0); fill-opacity: 0.2; stroke-width: 0; opacity: 1;"/><path class="sankey-link" d="M228,94.40000000000009C270,94.40000000000009 270,190.79999999999978 312,190.79999999999978L312,222.5999999999998C270,222.5999999999998 270,126.2000000000001 228,126.2000000000001Z" style="stroke: rgb(68, 68, 68); stroke-opacity: 1; fill: rgb(0, 0, 0); fill-opacity: 0.2; stroke-width: 0; opacity: 1;"/><path class="sankey-link" d="M228,78.2000000000001C270,78.2000000000001 270,132.99999999999977 312,132.99999999999977L312,149.19999999999976C270,149.19999999999976 270,94.40000000000009 228,94.40000000000009Z" style="stroke: rgb(68, 68, 68); stroke-opacity: 1; fill: rgb(0, 0, 0); fill-opacity: 0.2; stroke-width: 0; opacity: 1;"/><path class="sankey-link" d="M228,126.2000000000001C270,126.2000000000001 270,262.4 312,262.4L312,282.19999999999993C270,282.19999999999993 270,146.0000000000001 228,146.0000000000001Z" style="stroke: rgb(68, 68, 68); stroke-opacity: 1; fill: rgb(0, 0, 0); fill-opacity: 0.2; stroke-width: 0; opacity: 1;"/><path class="sankey-link" d="M228,294.19999999999993C270,294.19999999999993 270,98.59999999999962 312,98.59999999999962L312,112.99999999999963C270,112.99999999999963 270,308.5999999999999 228,308.5999999999999Z" style="stroke: rgb(68, 68, 68); stroke-opacity: 1; fill: rgb(0, 0, 0); fill-opacity: 0.2; stroke-width: 0; opacity: 1;"/><path class="sankey-link" d="M228,313.39999999999986C270,313.39999999999986 270,313.4 312,313.4L312,320C270,320 270,319.9999999999999 228,319.9999999999999Z" style="stroke: rgb(68, 68, 68); stroke-opacity: 1; fill: rgb(0, 0, 0); fill-opacity: 0.2; stroke-width: 0; opacity: 1;"/><path class="sankey-link" d="M228,310.9999999999999C270,310.9999999999999 270,239.9999999999998 312,239.9999999999998L312,242.39999999999978C270,242.39999999999978 270,313.39999999999986 228,313.39999999999986Z" style="stroke: rgb(68, 68, 68); stroke-opacity: 1; fill: rgb(0, 0, 0); fill-opacity: 0.2; stroke-width: 0; opacity: 1;"/><path class="sankey-link" d="M228,308.5999999999999C270,308.5999999999999 270,168.39999999999975 312,168.39999999999975L312,170.79999999999973C270,170.79999999999973 270,310.9999999999999 228,310.9999999999999Z" style="stroke: rgb(68, 68, 68); stroke-opacity: 1; fill: rgb(0, 0, 0); fill-opacity: 0.2; stroke-width: 0; opacity: 1;"/><path class="sankey-link" d="M332,48.79999999999963C374,48.79999999999963 374,86.6000000000002 416,86.6000000000002L416,131.0000000000002C374,131.0000000000002 374,93.19999999999963 332,93.19999999999963Z" style="stroke: rgb(68, 68, 68); stroke-opacity: 1; fill: rgb(0, 0, 0); fill-opacity: 0.2; stroke-width: 0; opacity: 1;"/><path class="sankey-link" d="M332,19.99999999999963C374,19.99999999999963 374,1.2789769243681803e-13 416,1.2789769243681803e-13L416,28.800000000000125C374,28.800000000000125 374,48.79999999999963 332,48.79999999999963Z" style="stroke: rgb(68, 68, 68); stroke-opacity: 1; fill: rgb(0, 0, 0); fill-opacity: 0.2; stroke-width: 0; opacity: 1;"/><path class="sankey-link" d="M332,93.19999999999962C374,93.19999999999962 374,151.00000000000006 416,151.00000000000006L416,161.20000000000005C374,161.20000000000005 374,103.39999999999961 332,103.39999999999961Z" style="stroke: rgb(68, 68, 68); stroke-opacity: 1; fill: rgb(0, 0, 0); fill-opacity: 0.2; stroke-width: 0; opacity: 1;"/><path class="sankey-link" d="M332,103.39999999999962C374,103.39999999999962 374,282.80000000000007 416,282.80000000000007L416,292.4000000000001C374,292.4000000000001 374,112.99999999999962 332,112.99999999999962Z" style="stroke: rgb(68, 68, 68); stroke-opacity: 1; fill: rgb(0, 0, 0); fill-opacity: 0.2; stroke-width: 0; opacity: 1;"/><path class="sankey-link" d="M332,262.4C374,262.4 374,222.00000000000006 416,222.00000000000006L416,262.80000000000007C374,262.80000000000007 374,303.19999999999993 332,303.19999999999993Z" style="stroke: rgb(68, 68, 68); stroke-opacity: 1; fill: rgb(0, 0, 0); fill-opacity: 0.2; stroke-width: 0; opacity: 1;"/><path class="sankey-link" d="M332,303.2C374,303.2 374,303.2000000000001 416,303.2000000000001L416,320.00000000000006C374,320.00000000000006 374,319.99999999999994 332,319.99999999999994Z" style="stroke: rgb(68, 68, 68); stroke-opacity: 1; fill: rgb(0, 0, 0); fill-opacity: 0.2; stroke-width: 0; opacity: 1;"/><path class="sankey-link" d="M332,190.79999999999978C374,190.79999999999978 374,161.20000000000005 416,161.20000000000005L416,191.20000000000005C374,191.20000000000005 374,220.79999999999978 332,220.79999999999978Z" style="stroke: rgb(68, 68, 68); stroke-opacity: 1; fill: rgb(0, 0, 0); fill-opacity: 0.2; stroke-width: 0; opacity: 1;"/><path class="sankey-link" d="M332,231.5999999999998C374,231.5999999999998 374,292.4000000000001 416,292.4000000000001L416,303.20000000000005C374,303.20000000000005 374,242.3999999999998 332,242.3999999999998Z" style="stroke: rgb(68, 68, 68); stroke-opacity: 1; fill: rgb(0, 0, 0); fill-opacity: 0.2; stroke-width: 0; opacity: 1;"/><path class="sankey-link" d="M332,220.79999999999978C374,220.79999999999978 374,211.20000000000005 416,211.20000000000005L416,222.00000000000006C374,222.00000000000006 374,231.5999999999998 332,231.5999999999998Z" style="stroke: rgb(68, 68, 68); stroke-opacity: 1; fill: rgb(0, 0, 0); fill-opacity: 0.2; stroke-width: 0; opacity: 1;"/><path class="sankey-link" d="M332,132.99999999999977C374,132.99999999999977 374,28.800000000000125 416,28.800000000000125L416,66.60000000000012C374,66.60000000000012 374,170.79999999999978 332,170.79999999999978Z" style="stroke: rgb(68, 68, 68); stroke-opacity: 1; fill: rgb(0, 0, 0); fill-opacity: 0.2; stroke-width: 0; opacity: 1;"/><path class="sankey-link" d="M436,282.80000000000007C478,282.80000000000007 478,215.1999999999999 520,215.1999999999999L520,225.99999999999991C478,225.99999999999991 478,293.6 436,293.6Z" style="stroke: rgb(68, 68, 68); stroke-opacity: 1; fill: rgb(0, 0, 0); fill-opacity: 0.2; stroke-width: 0; opacity: 1;"/><path class="sankey-link" d="M436,293.6000000000001C478,293.6000000000001 478,293.59999999999985 520,293.59999999999985L520,319.99999999999983C478,319.99999999999983 478,320.00000000000006 436,320.00000000000006Z" style="stroke: rgb(68, 68, 68); stroke-opacity: 1; fill: rgb(0, 0, 0); fill-opacity: 0.2; stroke-width: 0; opacity: 1;"/><path class="sankey-link" d="M436,211.20000000000005C478,211.20000000000005 478,84.00000000000001 520,84.00000000000001L520,115.2C478,115.2 478,242.40000000000003 436,242.40000000000003Z" style="stroke: rgb(68, 68, 68); stroke-opacity: 1; fill: rgb(0, 0, 0); fill-opacity: 0.2; stroke-width: 0; opacity: 1;"/><path class="sankey-link" d="M436,242.40000000000003C478,242.40000000000003 478,165.8 520,165.8L520,172.40000000000003C478,172.40000000000003 478,249.00000000000006 436,249.00000000000006Z" style="stroke: rgb(68, 68, 68); stroke-opacity: 1; fill: rgb(0, 0, 0); fill-opacity: 0.2; stroke-width: 0; opacity: 1;"/><path class="sankey-link" d="M436,249.00000000000003C478,249.00000000000003 478,253.19999999999987 520,253.19999999999987L520,259.7999999999999C478,259.7999999999999 478,255.60000000000005 436,255.60000000000005Z" style="stroke: rgb(68, 68, 68); stroke-opacity: 1; fill: rgb(0, 0, 0); fill-opacity: 0.2; stroke-width: 0; opacity: 1;"/><path class="sankey-link" d="M436,255.60000000000005C478,255.60000000000005 478,286.39999999999986 520,286.39999999999986L520,293.5999999999999C478,293.5999999999999 478,262.80000000000007 436,262.80000000000007Z" style="stroke: rgb(68, 68, 68); stroke-opacity: 1; fill: rgb(0, 0, 0); fill-opacity: 0.2; stroke-width: 0; opacity: 1;"/><path class="sankey-link" d="M436,114.8000000000002C478,114.8000000000002 478,192.39999999999992 520,192.39999999999992L520,208.5999999999999C478,208.5999999999999 478,131.0000000000002 436,131.0000000000002Z" style="stroke: rgb(68, 68, 68); stroke-opacity: 1; fill: rgb(0, 0, 0); fill-opacity: 0.2; stroke-width: 0; opacity: 1;"/><path class="sankey-link" d="M436,86.6000000000002C478,86.6000000000002 478,27.00000000000002 520,27.00000000000002L520,55.200000000000024C478,55.200000000000024 478,114.80000000000018 436,114.80000000000018Z" style="stroke: rgb(68, 68, 68); stroke-opacity: 1; fill: rgb(0, 0, 0); fill-opacity: 0.2; stroke-width: 0; opacity: 1;"/><path class="sankey-link" d="M436,27.000000000000128C478,27.000000000000128 478,135.2 520,135.2L520,161C478,161 478,52.800000000000125 436,52.800000000000125Z" style="stroke: rgb(68, 68, 68); stroke-opacity: 1; fill: rgb(0, 0, 0); fill-opacity: 0.2; stroke-width: 0; opacity: 1;"/><path class="sankey-link" d="M436,1.2789769243681803e-13C478,1.2789769243681803e-13 478,2.1316282072803006e-14 520,2.1316282072803006e-14L520,27.00000000000002C478,27.00000000000002 478,27.000000000000128 436,27.000000000000128Z" style="stroke: rgb(68, 68, 68); stroke-opacity: 1; fill: rgb(0, 0, 0); fill-opacity: 0.2; stroke-width: 0; opacity: 1;"/><path class="sankey-link" d="M436,60.00000000000013C478,60.00000000000013 478,279.79999999999984 520,279.79999999999984L520,286.39999999999986C478,286.39999999999986 478,66.60000000000012 436,66.60000000000012Z" style="stroke: rgb(68, 68, 68); stroke-opacity: 1; fill: rgb(0, 0, 0); fill-opacity: 0.2; stroke-width: 0; opacity: 1;"/><path class="sankey-link" d="M436,52.800000000000125C478,52.800000000000125 478,245.9999999999999 520,245.9999999999999L520,253.19999999999987C478,253.19999999999987 478,60.00000000000013 436,60.00000000000013Z" style="stroke: rgb(68, 68, 68); stroke-opacity: 1; fill: rgb(0, 0, 0); fill-opacity: 0.2; stroke-width: 0; opacity: 1;"/><path class="sankey-link" d="M436,151.00000000000006C478,151.00000000000006 478,55.200000000000024 520,55.200000000000024L520,84.00000000000003C478,84.00000000000003 478,179.80000000000007 436,179.80000000000007Z" style="stroke: rgb(68, 68, 68); stroke-opacity: 1; fill: rgb(0, 0, 0); fill-opacity: 0.2; stroke-width: 0; opacity: 1;"/><path class="sankey-link" d="M436,184.60000000000008C478,184.60000000000008 478,208.5999999999999 520,208.5999999999999L520,215.19999999999993C478,215.19999999999993 478,191.2000000000001 436,191.2000000000001Z" style="stroke: rgb(68, 68, 68); stroke-opacity: 1; fill: rgb(0, 0, 0); fill-opacity: 0.2; stroke-width: 0; opacity: 1;"/><path class="sankey-link" d="M436,179.80000000000007C478,179.80000000000007 478,161 520,161L520,165.8C478,165.8 478,184.60000000000008 436,184.60000000000008Z" style="stroke: rgb(68, 68, 68); stroke-opacity: 1; fill: rgb(0, 0, 0); fill-opacity: 0.2; stroke-width: 0; opacity: 1;"/></g><g class="sankey-node-set" style="cursor: move;"><g class="sankey-node" transform="translate(0.000,20.000)" style="opacity: 1;"><rect class="node-rect" width="20" height="59.99999999999994" style="stroke-width: 0; stroke: rgb(128, 0, 128); stroke-opacity: 1; fill: rgb(87, 74, 226); fill-opacity: 1;"/><rect class="node-capture" x="-10" y="-10" width="40" height="79.99999999999994" style="fill-opacity: 0;"/><g class="node-entered" transform="translate(0,30.99999999999997)"><path class="node-label-guide" id="a25894_0_node_0" d="M24,0L540,0" transform="matrix(1 0 0 1 0 0)"/><text class="node-label" transform="scale(1 1)" style="cursor: default; fill: rgb(42, 63, 95); text-shadow: rgb(255, 255, 255) -1px 1px 1px, rgb(255, 255, 255) 1px 1px 1px, rgb(255, 255, 255) 1px -1px 1px, rgb(255, 255, 255) -1px -1px 1px; font-family: 'Open Sans', verdana, arial, sans-serif; font-size: 10px; fill-opacity: 1;"><textPath class="node-label-text-path" alignment-baseline="middle" xlink:href="#a25894_0_node_0" startOffset="0%" text-anchor="start" style="fill: rgb(0, 0, 0);">A1</textPath></text></g></g><g class="sankey-node" transform="translate(0.000,180.000)" style="opacity: 1;"><rect class="node-rect" width="20" height="60" style="stroke-width: 0; stroke: rgb(128, 0, 128); stroke-opacity: 1; fill: rgb(87, 74, 226); fill-opacity: 1;"/><rect class="node-capture" x="-10" y="-10" width="40" height="80" style="fill-opacity: 0;"/><g class="node-entered" transform="translate(0,31)"><path class="node-label-guide" id="a25894_0_node_1" d="M24,0L540,0" transform="matrix(1 0 0 1 0 0)"/><text class="node-label" transform="scale(1 1)" style="cursor: default; fill: rgb(42, 63, 95); text-shadow: rgb(255, 255, 255) -1px 1px 1px, rgb(255, 255, 255) 1px 1px 1px, rgb(255, 255, 255) 1px -1px 1px, rgb(255, 255, 255) -1px -1px 1px; font-family: 'Open Sans', verdana, arial, sans-serif; font-size: 10px; fill-opacity: 1;"><textPath class="node-label-text-path" alignment-baseline="middle" xlink:href="#a25894_0_node_1" startOffset="0%" text-anchor="start" style="fill: rgb(0, 0, 0);">A2</textPath></text></g></g><g class="sankey-node" transform="translate(0.000,260.000)" style="opacity: 1;"><rect class="node-rect" width="20" height="60.00000000000006" style="stroke-width: 0; stroke: rgb(128, 0, 128); stroke-opacity: 1; fill: rgb(87, 74, 226); fill-opacity: 1;"/><rect class="node-capture" x="-10" y="-10" width="40" height="80.00000000000006" style="fill-opacity: 0;"/><g class="node-entered" transform="translate(0,31.00000000000003)"><path class="node-label-guide" id="a25894_0_node_2" d="M24,0L540,0" transform="matrix(1 0 0 1 0 0)"/><text class="node-label" transform="scale(1 1)" style="cursor: default; fill: rgb(42, 63, 95); text-shadow: rgb(255, 255, 255) -1px 1px 1px, rgb(255, 255, 255) 1px 1px 1px, rgb(255, 255, 255) 1px -1px 1px, rgb(255, 255, 255) -1px -1px 1px; font-family: 'Open Sans', verdana, arial, sans-serif; font-size: 10px; fill-opacity: 1;"><textPath class="node-label-text-path" alignment-baseline="middle" xlink:href="#a25894_0_node_2" startOffset="0%" text-anchor="start" style="fill: rgb(0, 0, 0);">A3</textPath></text></g></g><g class="sankey-node" transform="translate(0.000,100.000)" style="opacity: 1;"><rect class="node-rect" width="20" height="59.99999999999997" style="stroke-width: 0; stroke: rgb(128, 0, 128); stroke-opacity: 1; fill: rgb(87, 74, 226); fill-opacity: 1;"/><rect class="node-capture" x="-10" y="-10" width="40" height="79.99999999999997" style="fill-opacity: 0;"/><g class="node-entered" transform="translate(0,30.999999999999986)"><path class="node-label-guide" id="a25894_0_node_3" d="M24,0L540,0" transform="matrix(1 0 0 1 0 0)"/><text class="node-label" transform="scale(1 1)" style="cursor: default; fill: rgb(42, 63, 95); text-shadow: rgb(255, 255, 255) -1px 1px 1px, rgb(255, 255, 255) 1px 1px 1px, rgb(255, 255, 255) 1px -1px 1px, rgb(255, 255, 255) -1px -1px 1px; font-family: 'Open Sans', verdana, arial, sans-serif; font-size: 10px; fill-opacity: 1;"><textPath class="node-label-text-path" alignment-baseline="middle" xlink:href="#a25894_0_node_3" startOffset="0%" text-anchor="start" style="fill: rgb(0, 0, 0);">A4</textPath></text></g></g><g class="sankey-node" transform="translate(104.000,260.000)" style="opacity: 1;"><rect class="node-rect" width="20" height="60.00000000000017" style="stroke-width: 0; stroke: rgb(128, 0, 128); stroke-opacity: 1; fill: rgb(87, 74, 226); fill-opacity: 1;"/><rect class="node-capture" x="-10" y="-10" width="40" height="80.00000000000017" style="fill-opacity: 0;"/><g class="node-entered" transform="translate(0,31.000000000000085)"><path class="node-label-guide" id="a25894_0_node_4" d="M24,0L540,0" transform="matrix(1 0 0 1 0 0)"/><text class="node-label" transform="scale(1 1)" style="cursor: default; fill: rgb(42, 63, 95); text-shadow: rgb(255, 255, 255) -1px 1px 1px, rgb(255, 255, 255) 1px 1px 1px, rgb(255, 255, 255) 1px -1px 1px, rgb(255, 255, 255) -1px -1px 1px; font-family: 'Open Sans', verdana, arial, sans-serif; font-size: 10px; fill-opacity: 1;"><textPath class="node-label-text-path" alignment-baseline="middle" xlink:href="#a25894_0_node_4" startOffset="0%" text-anchor="start" style="fill: rgb(0, 0, 0);">B1</textPath></text></g></g><g class="sankey-node" transform="translate(104.000,160.000)" style="opacity: 1;"><rect class="node-rect" width="20" height="45.000000000000085" style="stroke-width: 0; stroke: rgb(128, 0, 128); stroke-opacity: 1; fill: rgb(87, 74, 226); fill-opacity: 1;"/><rect class="node-capture" x="-10" y="-10" width="40" height="65.00000000000009" style="fill-opacity: 0;"/><g class="node-entered" transform="translate(0,23.500000000000043)"><path class="node-label-guide" id="a25894_0_node_5" d="M24,0L540,0" transform="matrix(1 0 0 1 0 0)"/><text class="node-label" transform="scale(1 1)" style="cursor: default; fill: rgb(42, 63, 95); text-shadow: rgb(255, 255, 255) -1px 1px 1px, rgb(255, 255, 255) 1px 1px 1px, rgb(255, 255, 255) 1px -1px 1px, rgb(255, 255, 255) -1px -1px 1px; font-family: 'Open Sans', verdana, arial, sans-serif; font-size: 10px; fill-opacity: 1;"><textPath class="node-label-text-path" alignment-baseline="middle" xlink:href="#a25894_0_node_5" startOffset="0%" text-anchor="start" style="fill: rgb(0, 0, 0);">B2</textPath></text></g></g><g class="sankey-node" transform="translate(104.000,20.000)" style="opacity: 1;"><rect class="node-rect" width="20" height="119.99999999999997" style="stroke-width: 0; stroke: rgb(128, 0, 128); stroke-opacity: 1; fill: rgb(87, 74, 226); fill-opacity: 1;"/><rect class="node-capture" x="-10" y="-10" width="40" height="139.99999999999997" style="fill-opacity: 0;"/><g class="node-entered" transform="translate(0,60.999999999999986)"><path class="node-label-guide" id="a25894_0_node_6" d="M24,0L540,0" transform="matrix(1 0 0 1 0 0)"/><text class="node-label" transform="scale(1 1)" style="cursor: default; fill: rgb(42, 63, 95); text-shadow: rgb(255, 255, 255) -1px 1px 1px, rgb(255, 255, 255) 1px 1px 1px, rgb(255, 255, 255) 1px -1px 1px, rgb(255, 255, 255) -1px -1px 1px; font-family: 'Open Sans', verdana, arial, sans-serif; font-size: 10px; fill-opacity: 1;"><textPath class="node-label-text-path" alignment-baseline="middle" xlink:href="#a25894_0_node_6" startOffset="0%" text-anchor="start" style="fill: rgb(0, 0, 0);">B3</textPath></text></g></g><g class="sankey-node" transform="translate(104.000,225.000)" style="opacity: 1;"><rect class="node-rect" width="20" height="15.000000000000057" style="stroke-width: 0; stroke: rgb(128, 0, 128); stroke-opacity: 1; fill: rgb(87, 74, 226); fill-opacity: 1;"/><rect class="node-capture" x="-10" y="-10" width="40" height="35.00000000000006" style="fill-opacity: 0;"/><g class="node-entered" transform="translate(0,8.500000000000028)"><path class="node-label-guide" id="a25894_0_node_7" d="M24,0L540,0" transform="matrix(1 0 0 1 0 0)"/><text class="node-label" transform="scale(1 1)" style="cursor: default; fill: rgb(42, 63, 95); text-shadow: rgb(255, 255, 255) -1px 1px 1px, rgb(255, 255, 255) 1px 1px 1px, rgb(255, 255, 255) 1px -1px 1px, rgb(255, 255, 255) -1px -1px 1px; font-family: 'Open Sans', verdana, arial, sans-serif; font-size: 10px; fill-opacity: 1;"><textPath class="node-label-text-path" alignment-baseline="middle" xlink:href="#a25894_0_node_7" startOffset="0%" text-anchor="start" style="fill: rgb(0, 0, 0);">B4</textPath></text></g></g><g class="sankey-node" transform="translate(208.000,166.000)" style="opacity: 1;"><rect class="node-rect" width="20" height="36.60000000000002" style="stroke-width: 0; stroke: rgb(128, 0, 128); stroke-opacity: 1; fill: rgb(87, 74, 226); fill-opacity: 1;"/><rect class="node-capture" x="-10" y="-10" width="40" height="56.60000000000002" style="fill-opacity: 0;"/><g class="node-entered" transform="translate(0,19.30000000000001)"><path class="node-label-guide" id="a25894_0_node_8" d="M24,0L540,0" transform="matrix(1 0 0 1 0 0)"/><text class="node-label" transform="scale(1 1)" style="cursor: default; fill: rgb(42, 63, 95); text-shadow: rgb(255, 255, 255) -1px 1px 1px, rgb(255, 255, 255) 1px 1px 1px, rgb(255, 255, 255) 1px -1px 1px, rgb(255, 255, 255) -1px -1px 1px; font-family: 'Open Sans', verdana, arial, sans-serif; font-size: 10px; fill-opacity: 1;"><textPath class="node-label-text-path" alignment-baseline="middle" xlink:href="#a25894_0_node_8" startOffset="0%" text-anchor="start" style="fill: rgb(0, 0, 0);">C1</textPath></text></g></g><g class="sankey-node" transform="translate(208.000,222.600)" style="opacity: 1;"><rect class="node-rect" width="20" height="51.60000000000002" style="stroke-width: 0; stroke: rgb(128, 0, 128); stroke-opacity: 1; fill: rgb(87, 74, 226); fill-opacity: 1;"/><rect class="node-capture" x="-10" y="-10" width="40" height="71.60000000000002" style="fill-opacity: 0;"/><g class="node-entered" transform="translate(0,26.80000000000001)"><path class="node-label-guide" id="a25894_0_node_9" d="M24,0L540,0" transform="matrix(1 0 0 1 0 0)"/><text class="node-label" transform="scale(1 1)" style="cursor: default; fill: rgb(42, 63, 95); text-shadow: rgb(255, 255, 255) -1px 1px 1px, rgb(255, 255, 255) 1px 1px 1px, rgb(255, 255, 255) 1px -1px 1px, rgb(255, 255, 255) -1px -1px 1px; font-family: 'Open Sans', verdana, arial, sans-serif; font-size: 10px; fill-opacity: 1;"><textPath class="node-label-text-path" alignment-baseline="middle" xlink:href="#a25894_0_node_9" startOffset="0%" text-anchor="start" style="fill: rgb(0, 0, 0);">C2</textPath></text></g></g><g class="sankey-node" transform="translate(208.000,20.000)" style="opacity: 1;"><rect class="node-rect" width="20" height="125.99999999999979" style="stroke-width: 0; stroke: rgb(128, 0, 128); stroke-opacity: 1; fill: rgb(87, 74, 226); fill-opacity: 1;"/><rect class="node-capture" x="-10" y="-10" width="40" height="145.99999999999977" style="fill-opacity: 0;"/><g class="node-entered" transform="translate(0,63.99999999999989)"><path class="node-label-guide" id="a25894_0_node_10" d="M24,0L540,0" transform="matrix(1 0 0 1 0 0)"/><text class="node-label" transform="scale(1 1)" style="cursor: default; fill: rgb(42, 63, 95); text-shadow: rgb(255, 255, 255) -1px 1px 1px, rgb(255, 255, 255) 1px 1px 1px, rgb(255, 255, 255) 1px -1px 1px, rgb(255, 255, 255) -1px -1px 1px; font-family: 'Open Sans', verdana, arial, sans-serif; font-size: 10px; fill-opacity: 1;"><textPath class="node-label-text-path" alignment-baseline="middle" xlink:href="#a25894_0_node_10" startOffset="0%" text-anchor="start" style="fill: rgb(0, 0, 0);">C3</textPath></text></g></g><g class="sankey-node" transform="translate(208.000,294.200)" style="opacity: 1;"><rect class="node-rect" width="20" height="25.800000000000068" style="stroke-width: 0; stroke: rgb(128, 0, 128); stroke-opacity: 1; fill: rgb(87, 74, 226); fill-opacity: 1;"/><rect class="node-capture" x="-10" y="-10" width="40" height="45.80000000000007" style="fill-opacity: 0;"/><g class="node-entered" transform="translate(0,13.900000000000034)"><path class="node-label-guide" id="a25894_0_node_11" d="M24,0L540,0" transform="matrix(1 0 0 1 0 0)"/><text class="node-label" transform="scale(1 1)" style="cursor: default; fill: rgb(42, 63, 95); text-shadow: rgb(255, 255, 255) -1px 1px 1px, rgb(255, 255, 255) 1px 1px 1px, rgb(255, 255, 255) 1px -1px 1px, rgb(255, 255, 255) -1px -1px 1px; font-family: 'Open Sans', verdana, arial, sans-serif; font-size: 10px; fill-opacity: 1;"><textPath class="node-label-text-path" alignment-baseline="middle" xlink:href="#a25894_0_node_11" startOffset="0%" text-anchor="start" style="fill: rgb(0, 0, 0);">C4</textPath></text></g></g><g class="sankey-node" transform="translate(312.000,20.000)" style="opacity: 1;"><rect class="node-rect" width="20" height="93.00000000000014" style="stroke-width: 0; stroke: rgb(128, 0, 128); stroke-opacity: 1; fill: rgb(87, 74, 226); fill-opacity: 1;"/><rect class="node-capture" x="-10" y="-10" width="40" height="113.00000000000014" style="fill-opacity: 0;"/><g class="node-entered" transform="translate(0,47.50000000000007)"><path class="node-label-guide" id="a25894_0_node_12" d="M24,0L540,0" transform="matrix(1 0 0 1 0 0)"/><text class="node-label" transform="scale(1 1)" style="cursor: default; fill: rgb(42, 63, 95); text-shadow: rgb(255, 255, 255) -1px 1px 1px, rgb(255, 255, 255) 1px 1px 1px, rgb(255, 255, 255) 1px -1px 1px, rgb(255, 255, 255) -1px -1px 1px; font-family: 'Open Sans', verdana, arial, sans-serif; font-size: 10px; fill-opacity: 1;"><textPath class="node-label-text-path" alignment-baseline="middle" xlink:href="#a25894_0_node_12" startOffset="0%" text-anchor="start" style="fill: rgb(0, 0, 0);">D1</textPath></text></g></g><g class="sankey-node" transform="translate(312.000,262.400)" style="opacity: 1;"><rect class="node-rect" width="20" height="57.60000000000002" style="stroke-width: 0; stroke: rgb(128, 0, 128); stroke-opacity: 1; fill: rgb(87, 74, 226); fill-opacity: 1;"/><rect class="node-capture" x="-10" y="-10" width="40" height="77.60000000000002" style="fill-opacity: 0;"/><g class="node-entered" transform="translate(0,29.80000000000001)"><path class="node-label-guide" id="a25894_0_node_13" d="M24,0L540,0" transform="matrix(1 0 0 1 0 0)"/><text class="node-label" transform="scale(1 1)" style="cursor: default; fill: rgb(42, 63, 95); text-shadow: rgb(255, 255, 255) -1px 1px 1px, rgb(255, 255, 255) 1px 1px 1px, rgb(255, 255, 255) 1px -1px 1px, rgb(255, 255, 255) -1px -1px 1px; font-family: 'Open Sans', verdana, arial, sans-serif; font-size: 10px; fill-opacity: 1;"><textPath class="node-label-text-path" alignment-baseline="middle" xlink:href="#a25894_0_node_13" startOffset="0%" text-anchor="start" style="fill: rgb(0, 0, 0);">D2</textPath></text></g></g><g class="sankey-node" transform="translate(312.000,190.800)" style="opacity: 1;"><rect class="node-rect" width="20" height="51.60000000000019" style="stroke-width: 0; stroke: rgb(128, 0, 128); stroke-opacity: 1; fill: rgb(87, 74, 226); fill-opacity: 1;"/><rect class="node-capture" x="-10" y="-10" width="40" height="71.6000000000002" style="fill-opacity: 0;"/><g class="node-entered" transform="translate(0,26.800000000000097)"><path class="node-label-guide" id="a25894_0_node_14" d="M24,0L540,0" transform="matrix(1 0 0 1 0 0)"/><text class="node-label" transform="scale(1 1)" style="cursor: default; fill: rgb(42, 63, 95); text-shadow: rgb(255, 255, 255) -1px 1px 1px, rgb(255, 255, 255) 1px 1px 1px, rgb(255, 255, 255) 1px -1px 1px, rgb(255, 255, 255) -1px -1px 1px; font-family: 'Open Sans', verdana, arial, sans-serif; font-size: 10px; fill-opacity: 1;"><textPath class="node-label-text-path" alignment-baseline="middle" xlink:href="#a25894_0_node_14" startOffset="0%" text-anchor="start" style="fill: rgb(0, 0, 0);">D3</textPath></text></g></g><g class="sankey-node" transform="translate(312.000,133.000)" style="opacity: 1;"><rect class="node-rect" width="20" height="37.80000000000001" style="stroke-width: 0; stroke: rgb(128, 0, 128); stroke-opacity: 1; fill: rgb(87, 74, 226); fill-opacity: 1;"/><rect class="node-capture" x="-10" y="-10" width="40" height="57.80000000000001" style="fill-opacity: 0;"/><g class="node-entered" transform="translate(0,19.900000000000006)"><path class="node-label-guide" id="a25894_0_node_15" d="M24,0L540,0" transform="matrix(1 0 0 1 0 0)"/><text class="node-label" transform="scale(1 1)" style="cursor: default; fill: rgb(42, 63, 95); text-shadow: rgb(255, 255, 255) -1px 1px 1px, rgb(255, 255, 255) 1px 1px 1px, rgb(255, 255, 255) 1px -1px 1px, rgb(255, 255, 255) -1px -1px 1px; font-family: 'Open Sans', verdana, arial, sans-serif; font-size: 10px; fill-opacity: 1;"><textPath class="node-label-text-path" alignment-baseline="middle" xlink:href="#a25894_0_node_15" startOffset="0%" text-anchor="start" style="fill: rgb(0, 0, 0);">D4</textPath></text></g></g><g class="sankey-node" transform="translate(416.000,282.800)" style="opacity: 1;"><rect class="node-rect" width="20" height="37.19999999999993" style="stroke-width: 0; stroke: rgb(128, 0, 128); stroke-opacity: 1; fill: rgb(87, 74, 226); fill-opacity: 1;"/><rect class="node-capture" x="-10" y="-10" width="40" height="57.19999999999993" style="fill-opacity: 0;"/><g class="node-entered" transform="translate(0,19.599999999999966)"><path class="node-label-guide" id="a25894_0_node_16" d="M24,0L540,0" transform="matrix(1 0 0 1 0 0)"/><text class="node-label" transform="scale(1 1)" style="cursor: default; fill: rgb(42, 63, 95); text-shadow: rgb(255, 255, 255) -1px 1px 1px, rgb(255, 255, 255) 1px 1px 1px, rgb(255, 255, 255) 1px -1px 1px, rgb(255, 255, 255) -1px -1px 1px; font-family: 'Open Sans', verdana, arial, sans-serif; font-size: 10px; fill-opacity: 1;"><textPath class="node-label-text-path" alignment-baseline="middle" xlink:href="#a25894_0_node_16" startOffset="0%" text-anchor="start" style="fill: rgb(0, 0, 0);">E1</textPath></text></g></g><g class="sankey-node" transform="translate(416.000,211.200)" style="opacity: 1;"><rect class="node-rect" width="20" height="51.60000000000002" style="stroke-width: 0; stroke: rgb(128, 0, 128); stroke-opacity: 1; fill: rgb(87, 74, 226); fill-opacity: 1;"/><rect class="node-capture" x="-10" y="-10" width="40" height="71.60000000000002" style="fill-opacity: 0;"/><g class="node-entered" transform="translate(0,26.80000000000001)"><path class="node-label-guide" id="a25894_0_node_17" d="M24,0L540,0" transform="matrix(1 0 0 1 0 0)"/><text class="node-label" transform="scale(1 1)" style="cursor: default; fill: rgb(42, 63, 95); text-shadow: rgb(255, 255, 255) -1px 1px 1px, rgb(255, 255, 255) 1px 1px 1px, rgb(255, 255, 255) 1px -1px 1px, rgb(255, 255, 255) -1px -1px 1px; font-family: 'Open Sans', verdana, arial, sans-serif; font-size: 10px; fill-opacity: 1;"><textPath class="node-label-text-path" alignment-baseline="middle" xlink:href="#a25894_0_node_17" startOffset="0%" text-anchor="start" style="fill: rgb(0, 0, 0);">E2</textPath></text></g></g><g class="sankey-node" transform="translate(416.000,86.600)" style="opacity: 1;"><rect class="node-rect" width="20" height="44.399999999999864" style="stroke-width: 0; stroke: rgb(128, 0, 128); stroke-opacity: 1; fill: rgb(87, 74, 226); fill-opacity: 1;"/><rect class="node-capture" x="-10" y="-10" width="40" height="64.39999999999986" style="fill-opacity: 0;"/><g class="node-entered" transform="translate(0,23.199999999999932)"><path class="node-label-guide" id="a25894_0_node_18" d="M24,0L540,0" transform="matrix(1 0 0 1 0 0)"/><text class="node-label" transform="scale(1 1)" style="cursor: default; fill: rgb(42, 63, 95); text-shadow: rgb(255, 255, 255) -1px 1px 1px, rgb(255, 255, 255) 1px 1px 1px, rgb(255, 255, 255) 1px -1px 1px, rgb(255, 255, 255) -1px -1px 1px; font-family: 'Open Sans', verdana, arial, sans-serif; font-size: 10px; fill-opacity: 1;"><textPath class="node-label-text-path" alignment-baseline="middle" xlink:href="#a25894_0_node_18" startOffset="0%" text-anchor="start" style="fill: rgb(0, 0, 0);">E3</textPath></text></g></g><g class="sankey-node" transform="translate(416.000,0.000)" style="opacity: 1;"><rect class="node-rect" width="20" height="66.60000000000007" style="stroke-width: 0; stroke: rgb(128, 0, 128); stroke-opacity: 1; fill: rgb(87, 74, 226); fill-opacity: 1;"/><rect class="node-capture" x="-10" y="-10" width="40" height="86.60000000000007" style="fill-opacity: 0;"/><g class="node-entered" transform="translate(0,34.30000000000003)"><path class="node-label-guide" id="a25894_0_node_19" d="M24,0L540,0" transform="matrix(1 0 0 1 0 0)"/><text class="node-label" transform="scale(1 1)" style="cursor: default; fill: rgb(42, 63, 95); text-shadow: rgb(255, 255, 255) -1px 1px 1px, rgb(255, 255, 255) 1px 1px 1px, rgb(255, 255, 255) 1px -1px 1px, rgb(255, 255, 255) -1px -1px 1px; font-family: 'Open Sans', verdana, arial, sans-serif; font-size: 10px; fill-opacity: 1;"><textPath class="node-label-text-path" alignment-baseline="middle" xlink:href="#a25894_0_node_19" startOffset="0%" text-anchor="start" style="fill: rgb(0, 0, 0);">E4</textPath></text></g></g><g class="sankey-node" transform="translate(416.000,151.000)" style="opacity: 1;"><rect class="node-rect" width="20" height="40.19999999999999" style="stroke-width: 0; stroke: rgb(128, 0, 128); stroke-opacity: 1; fill: rgb(87, 74, 226); fill-opacity: 1;"/><rect class="node-capture" x="-10" y="-10" width="40" height="60.19999999999999" style="fill-opacity: 0;"/><g class="node-entered" transform="translate(0,21.099999999999994)"><path class="node-label-guide" id="a25894_0_node_20" d="M24,0L540,0" transform="matrix(1 0 0 1 0 0)"/><text class="node-label" transform="scale(1 1)" style="cursor: default; fill: rgb(42, 63, 95); text-shadow: rgb(255, 255, 255) -1px 1px 1px, rgb(255, 255, 255) 1px 1px 1px, rgb(255, 255, 255) 1px -1px 1px, rgb(255, 255, 255) -1px -1px 1px; font-family: 'Open Sans', verdana, arial, sans-serif; font-size: 10px; fill-opacity: 1;"><textPath class="node-label-text-path" alignment-baseline="middle" xlink:href="#a25894_0_node_20" startOffset="0%" text-anchor="start" style="fill: rgb(0, 0, 0);">E5</textPath></text></g></g><g class="sankey-node" transform="translate(520.000,135.200)" style="opacity: 1;"><rect class="node-rect" width="20" height="37.19999999999993" style="stroke-width: 0; stroke: rgb(128, 0, 128); stroke-opacity: 1; fill: rgb(87, 74, 226); fill-opacity: 1;"/><rect class="node-capture" x="-10" y="-10" width="40" height="57.19999999999993" style="fill-opacity: 0;"/><g class="node-entered" transform="translate(0,19.599999999999966)"><path class="node-label-guide" id="a25894_0_node_21" d="M-540,0L-4,0" transform="matrix(1 0 0 1 0 0)"/><text class="node-label" transform="scale(1 1)" style="cursor: default; fill: rgb(42, 63, 95); text-shadow: rgb(255, 255, 255) -1px 1px 1px, rgb(255, 255, 255) 1px 1px 1px, rgb(255, 255, 255) 1px -1px 1px, rgb(255, 255, 255) -1px -1px 1px; font-family: 'Open Sans', verdana, arial, sans-serif; font-size: 10px; fill-opacity: 1;"><textPath class="node-label-text-path" alignment-baseline="middle" xlink:href="#a25894_0_node_21" startOffset="100%" text-anchor="end" style="fill: rgb(0, 0, 0);">F1</textPath></text></g></g><g class="sankey-node" transform="translate(520.000,192.400)" style="opacity: 1;"><rect class="node-rect" width="20" height="33.599999999999966" style="stroke-width: 0; stroke: rgb(128, 0, 128); stroke-opacity: 1; fill: rgb(87, 74, 226); fill-opacity: 1;"/><rect class="node-capture" x="-10" y="-10" width="40" height="53.599999999999966" style="fill-opacity: 0;"/><g class="node-entered" transform="translate(0,17.799999999999983)"><path class="node-label-guide" id="a25894_0_node_22" d="M-540,0L-4,0" transform="matrix(1 0 0 1 0 0)"/><text class="node-label" transform="scale(1 1)" style="cursor: default; fill: rgb(42, 63, 95); text-shadow: rgb(255, 255, 255) -1px 1px 1px, rgb(255, 255, 255) 1px 1px 1px, rgb(255, 255, 255) 1px -1px 1px, rgb(255, 255, 255) -1px -1px 1px; font-family: 'Open Sans', verdana, arial, sans-serif; font-size: 10px; fill-opacity: 1;"><textPath class="node-label-text-path" alignment-baseline="middle" xlink:href="#a25894_0_node_22" startOffset="100%" text-anchor="end" style="fill: rgb(0, 0, 0);">F2</textPath></text></g></g><g class="sankey-node" transform="translate(520.000,279.800)" style="opacity: 1;"><rect class="node-rect" width="20" height="40.20000000000016" style="stroke-width: 0; stroke: rgb(128, 0, 128); stroke-opacity: 1; fill: rgb(87, 74, 226); fill-opacity: 1;"/><rect class="node-capture" x="-10" y="-10" width="40" height="60.20000000000016" style="fill-opacity: 0;"/><g class="node-entered" transform="translate(0,21.10000000000008)"><path class="node-label-guide" id="a25894_0_node_23" d="M-540,0L-4,0" transform="matrix(1 0 0 1 0 0)"/><text class="node-label" transform="scale(1 1)" style="cursor: default; fill: rgb(42, 63, 95); text-shadow: rgb(255, 255, 255) -1px 1px 1px, rgb(255, 255, 255) 1px 1px 1px, rgb(255, 255, 255) 1px -1px 1px, rgb(255, 255, 255) -1px -1px 1px; font-family: 'Open Sans', verdana, arial, sans-serif; font-size: 10px; fill-opacity: 1;"><textPath class="node-label-text-path" alignment-baseline="middle" xlink:href="#a25894_0_node_23" startOffset="100%" text-anchor="end" style="fill: rgb(0, 0, 0);">F3</textPath></text></g></g><g class="sankey-node" transform="translate(520.000,0.000)" style="opacity: 1;"><rect class="node-rect" width="20" height="115.19999999999996" style="stroke-width: 0; stroke: rgb(128, 0, 128); stroke-opacity: 1; fill: rgb(87, 74, 226); fill-opacity: 1;"/><rect class="node-capture" x="-10" y="-10" width="40" height="135.19999999999996" style="fill-opacity: 0;"/><g class="node-entered" transform="translate(0,58.59999999999998)"><path class="node-label-guide" id="a25894_0_node_24" d="M-540,0L-4,0" transform="matrix(1 0 0 1 0 0)"/><text class="node-label" transform="scale(1 1)" style="cursor: default; fill: rgb(42, 63, 95); text-shadow: rgb(255, 255, 255) -1px 1px 1px, rgb(255, 255, 255) 1px 1px 1px, rgb(255, 255, 255) 1px -1px 1px, rgb(255, 255, 255) -1px -1px 1px; font-family: 'Open Sans', verdana, arial, sans-serif; font-size: 10px; fill-opacity: 1;"><textPath class="node-label-text-path" alignment-baseline="middle" xlink:href="#a25894_0_node_24" startOffset="100%" text-anchor="end" style="fill: rgb(0, 0, 0);">F4</textPath></text></g></g><g class="sankey-node" transform="translate(520.000,246.000)" style="opacity: 1;"><rect class="node-rect" width="20" height="13.799999999999955" style="stroke-width: 0; stroke: rgb(128, 0, 128); stroke-opacity: 1; fill: rgb(87, 74, 226); fill-opacity: 1;"/><rect class="node-capture" x="-10" y="-10" width="40" height="33.799999999999955" style="fill-opacity: 0;"/><g class="node-entered" transform="translate(0,7.899999999999977)"><path class="node-label-guide" id="a25894_0_node_25" d="M-540,0L-4,0" transform="matrix(1 0 0 1 0 0)"/><text class="node-label" transform="scale(1 1)" style="cursor: default; fill: rgb(42, 63, 95); text-shadow: rgb(255, 255, 255) -1px 1px 1px, rgb(255, 255, 255) 1px 1px 1px, rgb(255, 255, 255) 1px -1px 1px, rgb(255, 255, 255) -1px -1px 1px; font-family: 'Open Sans', verdana, arial, sans-serif; font-size: 10px; fill-opacity: 1;"><textPath class="node-label-text-path" alignment-baseline="middle" xlink:href="#a25894_0_node_25" startOffset="100%" text-anchor="end" style="fill: rgb(0, 0, 0);">F5</textPath></text></g></g></g></g><defs id="topdefs-931036"><g class="clips"/></defs><g class="layer-above"><g class="imagelayer"/><g class="shapelayer"/></g><g class="infolayer"><g class="g-gtitle"><text class="gtitle" x="35" y="50" text-anchor="start" dy="0em" style="font-family: 'Open Sans', verdana, arial, sans-serif; font-size: 14px; fill: rgb(42, 63, 95); opacity: 1; font-weight: normal; white-space: pre;">Sankey Diagram 3</text></g><g class="first-render"/></g></svg>