<svg class="main-svg" xmlns="http://www.w3.org/2000/svg" xmlns:xlink="http://www.w3.org/1999/xlink" width="700" height="500" style="" viewBox="0 0 700 500"><rect x="0" y="0" width="700" height="500" style="fill: rgb(255, 255, 255); fill-opacity: 1;"/><defs id="defs-07431c"><g class="clips"/><g class="gradients"/></defs><g class="bglayer"/><g class="layer-below"><g class="imagelayer"/><g class="shapelayer"/></g><g class="cartesianlayer"/><g class="polarlayer"/><g class="ternarylayer"/><g class="geolayer"/><g class="funnelarealayer"/><g class="pielayer"/><g class="treemaplayer"/><g class="sunburstlayer"/><g class="glimages"/><g class="sankey" transform="translate(80,100)matrix(1 0 0 1 0 0)" style="box-sizing: content-box; position: absolute; left: 0px; shape-rendering: geometricprecision; pointer-events: auto;"><g class="sankey-links" style="fill: none;"><path class="sankey-link" d="M20,283.2000000000005C96.66666666666667,283.2000000000005 96.66666666666667,283.20000000000005 173.33333333333334,283.20000000000005L173.33333333333334,320C96.66666666666667,320 96.66666666666667,320.00000000000045 20,320.00000000000045Z" style="stroke: rgb(68, 68, 68); stroke-opacity: 1; fill: rgb(0, 0, 0); fill-opacity: 0.2; stroke-width: 0; opacity: 1;"/><path class="sankey-link" d="M20,240.00000000000054C96.66666666666667,240.00000000000054 96.66666666666667,220 173.33333333333334,220L173.33333333333334,263.2C96.66666666666667,263.2 96.66666666666667,283.20000000000056 20,283.20000000000056Z" style="stroke: rgb(68, 68, 68); stroke-opacity: 1; fill: rgb(0, 0, 0); fill-opacity: 0.2; stroke-width: 0; opacity: 1;"/><path class="sankey-link" d="M20,140.00000000000043C96.66666666666667,140.00000000000043 96.66666666666667,99.99999999999996 173.33333333333334,99.99999999999996L173.33333333333334,149.59999999999997C96.66666666666667,149.59999999999997 96.66666666666667,189.60000000000045 20,189.60000000000045Z" style="stroke: rgb(68, 68, 68); stroke-opacity: 1; fill: rgb(0, 0, 0); fill-opacity: 0.2; stroke-width: 0; opacity: 1;"/><path class="sankey-link" d="M20,189.60000000000042C96.66666666666667,189.60000000000042 96.66666666666667,169.59999999999997 173.33333333333334,169.59999999999997L173.33333333333334,199.99999999999994C96.66666666666667,199.99999999999994 96.66666666666667,220.0000000000004 20,220.0000000000004Z" style="stroke: rgb(68, 68, 68); stroke-opacity: 1; fill: rgb(0, 0, 0); fill-opacity: 0.2; stroke-width: 0; opacity: 1;"/><path class="sankey-link" d="M20,40.00000000000057C96.66666666666667,40.00000000000057 96.66666666666667,19.999999999999957 173.33333333333334,19.999999999999957L173.33333333333334,99.99999999999996C96.66666666666667,99.99999999999996 96.66666666666667,120.00000000000057 20,120.00000000000057Z" style="stroke: rgb(68, 68, 68); stroke-opacity: 1; fill: rgb(0, 0, 0); fill-opacity: 0.2; stroke-width: 0; opacity: 1;"/><path class="sankey-link" d="M193.33333333333334,236C270,236 270,274.4000000000001 346.6666666666667,274.4000000000001L346.6666666666667,301.60000000000014C270,301.60000000000014 270,263.2 193.33333333333334,263.2Z" style="stroke: rgb(68, 68, 68); stroke-opacity: 1; fill: rgb(0, 0, 0); fill-opacity: 0.2; stroke-width: 0; opacity: 1;"/><path class="sankey-link" d="M193.33333333333334,220C270,220 270,229.6000000000002 346.6666666666667,229.6000000000002L346.6666666666667,245.6000000000002C270,245.6000000000002 270,236 193.33333333333334,236Z" style="stroke: rgb(68, 68, 68); stroke-opacity: 1; fill: rgb(0, 0, 0); fill-opacity: 0.2; stroke-width: 0; opacity: 1;"/><path class="sankey-link" d="M193.33333333333334,183.19999999999996C270,183.19999999999996 270,183.2000000000004 346.6666666666667,183.2000000000004L346.6666666666667,200.0000000000004C270,200.0000000000004 270,199.99999999999997 193.33333333333334,199.99999999999997Z" style="stroke: rgb(68, 68, 68); stroke-opacity: 1; fill: rgb(0, 0, 0); fill-opacity: 0.2; stroke-width: 0; opacity: 1;"/><path class="sankey-link" d="M193.33333333333334,169.59999999999997C270,169.59999999999997 270,149.60000000000022 346.6666666666667,149.60000000000022L346.6666666666667,163.20000000000024C270,163.20000000000024 270,183.2 193.33333333333334,183.2Z" style="stroke: rgb(68, 68, 68); stroke-opacity: 1; fill: rgb(0, 0, 0); fill-opacity: 0.2; stroke-width: 0; opacity: 1;"/><path class="sankey-link" d="M193.33333333333334,283.20000000000005C270,283.20000000000005 270,200.0000000000004 346.6666666666667,200.0000000000004L346.6666666666667,209.60000000000042C270,209.60000000000042 270,292.80000000000007 193.33333333333334,292.80000000000007Z" style="stroke: rgb(68, 68, 68); stroke-opacity: 1; fill: rgb(0, 0, 0); fill-opacity: 0.2; stroke-width: 0; opacity: 1;"/><path class="sankey-link" d="M193.33333333333334,292.80000000000007C270,292.80000000000007 270,245.6000000000002 346.6666666666667,245.6000000000002L346.6666666666667,254.4000000000002C270,254.4000000000002 270,301.6 193.33333333333334,301.6Z" style="stroke: rgb(68, 68, 68); stroke-opacity: 1; fill: rgb(0, 0, 0); fill-opacity: 0.2; stroke-width: 0; opacity: 1;"/><path class="sankey-link" d="M193.33333333333334,301.6000000000001C270,301.6000000000001 270,301.6000000000001 346.6666666666667,301.6000000000001L346.6666666666667,320.00000000000006C270,320.00000000000006 270,320.00000000000006 193.33333333333334,320.00000000000006Z" style="stroke: rgb(68, 68, 68); stroke-opacity: 1; fill: rgb(0, 0, 0); fill-opacity: 0.2; stroke-width: 0; opacity: 1;"/><path class="sankey-link" d="M193.33333333333334,19.999999999999957C270,19.999999999999957 270,20.000000000000227 346.6666666666667,20.000000000000227L346.6666666666667,149.60000000000022C270,149.60000000000022 270,149.59999999999997 193.33333333333334,149.59999999999997Z" style="stroke: rgb(68, 68, 68); stroke-opacity: 1; fill: rgb(0, 0, 0); fill-opacity: 0.2; stroke-width: 0; opacity: 1;"/><path class="sankey-link" d="M366.6666666666667,302.40000000000015C443.33333333333337,302.40000000000015 443.33333333333337,302.40000000000003 520,302.40000000000003L520,320.00000000000006C443.33333333333337,320.00000000000006 443.33333333333337,320.00000000000017 366.6666666666667,320.00000000000017Z" style="stroke: rgb(68, 68, 68); stroke-opacity: 1; fill: rgb(0, 0, 0); fill-opacity: 0.2; stroke-width: 0; opacity: 1;"/><path class="sankey-link" d="M366.6666666666667,288.8000000000001C443.33333333333337,288.8000000000001 443.33333333333337,251.20000000000022 520,251.20000000000022L520,264.80000000000024C443.33333333333337,264.80000000000024 443.33333333333337,302.40000000000015 366.6666666666667,302.40000000000015Z" style="stroke: rgb(68, 68, 68); stroke-opacity: 1; fill: rgb(0, 0, 0); fill-opacity: 0.2; stroke-width: 0; opacity: 1;"/><path class="sankey-link" d="M366.6666666666667,274.4000000000001C443.33333333333337,274.4000000000001 443.33333333333337,71.20000000000043 520,71.20000000000043L520,76.00000000000044C443.33333333333337,76.00000000000044 443.33333333333337,279.20000000000005 366.6666666666667,279.20000000000005Z" style="stroke: rgb(68, 68, 68); stroke-opacity: 1; fill: rgb(0, 0, 0); fill-opacity: 0.2; stroke-width: 0; opacity: 1;"/><path class="sankey-link" d="M366.6666666666667,279.2000000000001C443.33333333333337,279.2000000000001 443.33333333333337,140.00000000000034 520,140.00000000000034L520,144.80000000000035C443.33333333333337,144.80000000000035 443.33333333333337,284.00000000000006 366.6666666666667,284.00000000000006Z" style="stroke: rgb(68, 68, 68); stroke-opacity: 1; fill: rgb(0, 0, 0); fill-opacity: 0.2; stroke-width: 0; opacity: 1;"/><path class="sankey-link" d="M366.6666666666667,284.0000000000001C443.33333333333337,284.0000000000001 443.33333333333337,192.0000000000004 520,192.0000000000004L520,196.8000000000004C443.33333333333337,196.8000000000004 443.33333333333337,288.80000000000007 366.6666666666667,288.80000000000007Z" style="stroke: rgb(68, 68, 68); stroke-opacity: 1; fill: rgb(0, 0, 0); fill-opacity: 0.2; stroke-width: 0; opacity: 1;"/><path class="sankey-link" d="M366.6666666666667,236.0000000000002C443.33333333333337,236.0000000000002 443.33333333333337,129.60000000000034 520,129.60000000000034L520,140.0000000000003C443.33333333333337,140.0000000000003 443.33333333333337,246.40000000000018 366.6666666666667,246.40000000000018Z" style="stroke: rgb(68, 68, 68); stroke-opacity: 1; fill: rgb(0, 0, 0); fill-opacity: 0.2; stroke-width: 0; opacity: 1;"/><path class="sankey-link" d="M366.6666666666667,229.6000000000002C443.33333333333337,229.6000000000002 443.33333333333337,64.80000000000042 520,64.80000000000042L520,71.20000000000043C443.33333333333337,71.20000000000043 443.33333333333337,236.00000000000017 366.6666666666667,236.00000000000017Z" style="stroke: rgb(68, 68, 68); stroke-opacity: 1; fill: rgb(0, 0, 0); fill-opacity: 0.2; stroke-width: 0; opacity: 1;"/><path class="sankey-link" d="M366.6666666666667,251.20000000000022C443.33333333333337,251.20000000000022 443.33333333333337,299.20000000000005 520,299.20000000000005L520,302.4000000000001C443.33333333333337,302.4000000000001 443.33333333333337,254.4000000000002 366.6666666666667,254.4000000000002Z" style="stroke: rgb(68, 68, 68); stroke-opacity: 1; fill: rgb(0, 0, 0); fill-opacity: 0.2; stroke-width: 0; opacity: 1;"/><path class="sankey-link" d="M366.6666666666667,246.4000000000002C443.33333333333337,246.4000000000002 443.33333333333337,189.6000000000004 520,189.6000000000004L520,192.00000000000037C443.33333333333337,192.00000000000037 443.33333333333337,248.80000000000018 366.6666666666667,248.80000000000018Z" style="stroke: rgb(68, 68, 68); stroke-opacity: 1; fill: rgb(0, 0, 0); fill-opacity: 0.2; stroke-width: 0; opacity: 1;"/><path class="sankey-link" d="M366.6666666666667,248.8000000000002C443.33333333333337,248.8000000000002 443.33333333333337,248.80000000000024 520,248.80000000000024L520,251.20000000000022C443.33333333333337,251.20000000000022 443.33333333333337,251.2000000000002 366.6666666666667,251.2000000000002Z" style="stroke: rgb(68, 68, 68); stroke-opacity: 1; fill: rgb(0, 0, 0); fill-opacity: 0.2; stroke-width: 0; opacity: 1;"/><path class="sankey-link" d="M366.6666666666667,183.2000000000004C443.33333333333337,183.2000000000004 443.33333333333337,179.2000000000004 520,179.2000000000004L520,189.60000000000036C443.33333333333337,189.60000000000036 443.33333333333337,193.60000000000036 366.6666666666667,193.60000000000036Z" style="stroke: rgb(68, 68, 68); stroke-opacity: 1; fill: rgb(0, 0, 0); fill-opacity: 0.2; stroke-width: 0; opacity: 1;"/><path class="sankey-link" d="M366.6666666666667,193.6000000000004C443.33333333333337,193.6000000000004 443.33333333333337,232.80000000000024 520,232.80000000000024L520,248.80000000000024C443.33333333333337,248.80000000000024 443.33333333333337,209.6000000000004 366.6666666666667,209.6000000000004Z" style="stroke: rgb(68, 68, 68); stroke-opacity: 1; fill: rgb(0, 0, 0); fill-opacity: 0.2; stroke-width: 0; opacity: 1;"/><path class="sankey-link" d="M366.6666666666667,20.000000000000227C443.33333333333337,20.000000000000227 443.33333333333337,4.263256414560601e-13 520,4.263256414560601e-13L520,64.80000000000042C443.33333333333337,64.80000000000042 443.33333333333337,84.80000000000022 366.6666666666667,84.80000000000022Z" style="stroke: rgb(68, 68, 68); stroke-opacity: 1; fill: rgb(0, 0, 0); fill-opacity: 0.2; stroke-width: 0; opacity: 1;"/><path class="sankey-link" d="M366.6666666666667,84.80000000000022C443.33333333333337,84.80000000000022 443.33333333333337,96.00000000000034 520,96.00000000000034L520,129.60000000000034C443.33333333333337,129.60000000000034 443.33333333333337,118.40000000000022 366.6666666666667,118.40000000000022Z" style="stroke: rgb(68, 68, 68); stroke-opacity: 1; fill: rgb(0, 0, 0); fill-opacity: 0.2; stroke-width: 0; opacity: 1;"/><path class="sankey-link" d="M366.6666666666667,132.80000000000024C443.33333333333337,132.80000000000024 443.33333333333337,216.80000000000024 520,216.80000000000024L520,232.80000000000024C443.33333333333337,232.80000000000024 443.33333333333337,148.80000000000024 366.6666666666667,148.80000000000024Z" style="stroke: rgb(68, 68, 68); stroke-opacity: 1; fill: rgb(0, 0, 0); fill-opacity: 0.2; stroke-width: 0; opacity: 1;"/><path class="sankey-link" d="M366.6666666666667,118.40000000000023C443.33333333333337,118.40000000000023 443.33333333333337,164.80000000000038 520,164.80000000000038L520,179.20000000000036C443.33333333333337,179.20000000000036 443.33333333333337,132.80000000000024 366.6666666666667,132.80000000000024Z" style="stroke: rgb(68, 68, 68); stroke-opacity: 1; fill: rgb(0, 0, 0); fill-opacity: 0.2; stroke-width: 0; opacity: 1;"/><path class="sankey-link" d="M366.6666666666667,148.80000000000024C443.33333333333337,148.80000000000024 443.33333333333337,284.80000000000007 520,284.80000000000007L520,299.20000000000005C443.33333333333337,299.20000000000005 443.33333333333337,163.20000000000022 366.6666666666667,163.20000000000022Z" style="stroke: rgb(68, 68, 68); stroke-opacity: 1; fill: rgb(0, 0, 0); fill-opacity: 0.2; stroke-width: 0; opacity: 1;"/></g><g class="sankey-node-set" style="cursor: move;"><g class="sankey-node" transform="translate(0.000,240.000)" style="opacity: 1;"><rect class="node-rect" width="20" height="79.99999999999949" style="stroke-width: 0; stroke: rgb(128, 0, 128); stroke-opacity: 1; fill: rgb(87, 74, 226); fill-opacity: 1;"/><rect class="node-capture" x="-10" y="-10" width="40" height="99.99999999999949" style="fill-opacity: 0;"/><g class="node-entered" transform="translate(0,40.999999999999744)"><path class="node-label-guide" id="7b3409_0_node_0" d="M24,0L540,0" transform="matrix(1 0 0 1 0 0)"/><text class="node-label" transform="scale(1 1)" style="cursor: default; fill: rgb(42, 63, 95); text-shadow: rgb(255, 255, 255) -1px 1px 1px, rgb(255, 255, 255) 1px 1px 1px, rgb(255, 255, 255) 1px -1px 1px, rgb(255, 255, 255) -1px -1px 1px; font-family: 'Open Sans', verdana, arial, sans-serif; font-size: 10px; fill-opacity: 1;"><textPath class="node-label-text-path" alignment-baseline="middle" xlink:href="#7b3409_0_node_0" startOffset="0%" text-anchor="start" style="fill: rgb(0, 0, 0);">A1</textPath></text></g></g><g class="sankey-node" transform="translate(0.000,140.000)" style="opacity: 1;"><rect class="node-rect" width="20" height="80.00000000000009" style="stroke-width: 0; stroke: rgb(128, 0, 128); stroke-opacity: 1; fill: rgb(87, 74, 226); fill-opacity: 1;"/><rect class="node-capture" x="-10" y="-10" width="40" height="100.00000000000009" style="fill-opacity: 0;"/><g class="node-entered" transform="translate(0,41.00000000000004)"><path class="node-label-guide" id="7b3409_0_node_1" d="M24,0L540,0" transform="matrix(1 0 0 1 0 0)"/><text class="node-label" transform="scale(1 1)" style="cursor: default; fill: rgb(42, 63, 95); text-shadow: rgb(255, 255, 255) -1px 1px 1px, rgb(255, 255, 255) 1px 1px 1px, rgb(255, 255, 255) 1px -1px 1px, rgb(255, 255, 255) -1px -1px 1px; font-family: 'Open Sans', verdana, arial, sans-serif; font-size: 10px; fill-opacity: 1;"><textPath class="node-label-text-path" alignment-baseline="middle" xlink:href="#7b3409_0_node_1" startOffset="0%" text-anchor="start" style="fill: rgb(0, 0, 0);">A2</textPath></text></g></g><g class="sankey-node" transform="translate(0.000,40.000)" style="opacity: 1;"><rect class="node-rect" width="20" height="79.99999999999986" style="stroke-width: 0; stroke: rgb(128, 0, 128); stroke-opacity: 1; fill: rgb(87, 74, 226); fill-opacity: 1;"/><rect class="node-capture" x="-10" y="-10" width="40" height="99.99999999999986" style="fill-opacity: 0;"/><g class="node-entered" transform="translate(0,40.99999999999993)"><path class="node-label-guide" id="7b3409_0_node_2" d="M24,0L540,0" transform="matrix(1 0 0 1 0 0)"/><text class="node-label" transform="scale(1 1)" style="cursor: default; fill: rgb(42, 63, 95); text-shadow: rgb(255, 255, 255) -1px 1px 1px, rgb(255, 255, 255) 1px 1px 1px, rgb(255, 255, 255) 1px -1px 1px, rgb(255, 255, 255) -1px -1px 1px; font-family: 'Open Sans', verdana, arial, sans-serif; font-size: 10px; fill-opacity: 1;"><textPath class="node-label-text-path" alignment-baseline="middle" xlink:href="#7b3409_0_node_2" startOffset="0%" text-anchor="start" style="fill: rgb(0, 0, 0);">A3</textPath></text></g></g><g class="sankey-node" transform="translate(173.333,220.000)" style="opacity: 1;"><rect class="node-rect" width="20" height="43.200000000000045" style="stroke-width: 0; stroke: rgb(128, 0, 128); stroke-opacity: 1; fill: rgb(87, 74, 226); fill-opacity: 1;"/><rect class="node-capture" x="-10" y="-10" width="40" height="63.200000000000045" style="fill-opacity: 0;"/><g class="node-entered" transform="translate(0,22.600000000000023)"><path class="node-label-guide" id="7b3409_0_node_3" d="M24,0L540,0" transform="matrix(1 0 0 1 0 0)"/><text class="node-label" transform="scale(1 1)" style="cursor: default; fill: rgb(42, 63, 95); text-shadow: rgb(255, 255, 255) -1px 1px 1px, rgb(255, 255, 255) 1px 1px 1px, rgb(255, 255, 255) 1px -1px 1px, rgb(255, 255, 255) -1px -1px 1px; font-family: 'Open Sans', verdana, arial, sans-serif; font-size: 10px; fill-opacity: 1;"><textPath class="node-label-text-path" alignment-baseline="middle" xlink:href="#7b3409_0_node_3" startOffset="0%" text-anchor="start" style="fill: rgb(0, 0, 0);">B1</textPath></text></g></g><g class="sankey-node" transform="translate(173.333,169.600)" style="opacity: 1;"><rect class="node-rect" width="20" height="30.400000000000034" style="stroke-width: 0; stroke: rgb(128, 0, 128); stroke-opacity: 1; fill: rgb(87, 74, 226); fill-opacity: 1;"/><rect class="node-capture" x="-10" y="-10" width="40" height="50.400000000000034" style="fill-opacity: 0;"/><g class="node-entered" transform="translate(0,16.200000000000017)"><path class="node-label-guide" id="7b3409_0_node_4" d="M24,0L540,0" transform="matrix(1 0 0 1 0 0)"/><text class="node-label" transform="scale(1 1)" style="cursor: default; fill: rgb(42, 63, 95); text-shadow: rgb(255, 255, 255) -1px 1px 1px, rgb(255, 255, 255) 1px 1px 1px, rgb(255, 255, 255) 1px -1px 1px, rgb(255, 255, 255) -1px -1px 1px; font-family: 'Open Sans', verdana, arial, sans-serif; font-size: 10px; fill-opacity: 1;"><textPath class="node-label-text-path" alignment-baseline="middle" xlink:href="#7b3409_0_node_4" startOffset="0%" text-anchor="start" style="fill: rgb(0, 0, 0);">B2</textPath></text></g></g><g class="sankey-node" transform="translate(173.333,283.200)" style="opacity: 1;"><rect class="node-rect" width="20" height="36.799999999999955" style="stroke-width: 0; stroke: rgb(128, 0, 128); stroke-opacity: 1; fill: rgb(87, 74, 226); fill-opacity: 1;"/><rect class="node-capture" x="-10" y="-10" width="40" height="56.799999999999955" style="fill-opacity: 0;"/><g class="node-entered" transform="translate(0,19.399999999999977)"><path class="node-label-guide" id="7b3409_0_node_5" d="M24,0L540,0" transform="matrix(1 0 0 1 0 0)"/><text class="node-label" transform="scale(1 1)" style="cursor: default; fill: rgb(42, 63, 95); text-shadow: rgb(255, 255, 255) -1px 1px 1px, rgb(255, 255, 255) 1px 1px 1px, rgb(255, 255, 255) 1px -1px 1px, rgb(255, 255, 255) -1px -1px 1px; font-family: 'Open Sans', verdana, arial, sans-serif; font-size: 10px; fill-opacity: 1;"><textPath class="node-label-text-path" alignment-baseline="middle" xlink:href="#7b3409_0_node_5" startOffset="0%" text-anchor="start" style="fill: rgb(0, 0, 0);">B3</textPath></text></g></g><g class="sankey-node" transform="translate(173.333,20.000)" style="opacity: 1;"><rect class="node-rect" width="20" height="129.60000000000002" style="stroke-width: 0; stroke: rgb(128, 0, 128); stroke-opacity: 1; fill: rgb(87, 74, 226); fill-opacity: 1;"/><rect class="node-capture" x="-10" y="-10" width="40" height="149.60000000000002" style="fill-opacity: 0;"/><g class="node-entered" transform="translate(0,65.80000000000001)"><path class="node-label-guide" id="7b3409_0_node_6" d="M24,0L540,0" transform="matrix(1 0 0 1 0 0)"/><text class="node-label" transform="scale(1 1)" style="cursor: default; fill: rgb(42, 63, 95); text-shadow: rgb(255, 255, 255) -1px 1px 1px, rgb(255, 255, 255) 1px 1px 1px, rgb(255, 255, 255) 1px -1px 1px, rgb(255, 255, 255) -1px -1px 1px; font-family: 'Open Sans', verdana, arial, sans-serif; font-size: 10px; fill-opacity: 1;"><textPath class="node-label-text-path" alignment-baseline="middle" xlink:href="#7b3409_0_node_6" startOffset="0%" text-anchor="start" style="fill: rgb(0, 0, 0);">B4</textPath></text></g></g><g class="sankey-node" transform="translate(346.667,274.400)" style="opacity: 1;"><rect class="node-rect" width="20" height="45.59999999999991" style="stroke-width: 0; stroke: rgb(128, 0, 128); stroke-opacity: 1; fill: rgb(87, 74, 226); fill-opacity: 1;"/><rect class="node-capture" x="-10" y="-10" width="40" height="65.59999999999991" style="fill-opacity: 0;"/><g class="node-entered" transform="translate(0,23.799999999999955)"><path class="node-label-guide" id="7b3409_0_node_7" d="M24,0L540,0" transform="matrix(1 0 0 1 0 0)"/><text class="node-label" transform="scale(1 1)" style="cursor: default; fill: rgb(42, 63, 95); text-shadow: rgb(255, 255, 255) -1px 1px 1px, rgb(255, 255, 255) 1px 1px 1px, rgb(255, 255, 255) 1px -1px 1px, rgb(255, 255, 255) -1px -1px 1px; font-family: 'Open Sans', verdana, arial, sans-serif; font-size: 10px; fill-opacity: 1;"><textPath class="node-label-text-path" alignment-baseline="middle" xlink:href="#7b3409_0_node_7" startOffset="0%" text-anchor="start" style="fill: rgb(0, 0, 0);">C1</textPath></text></g></g><g class="sankey-node" transform="translate(346.667,229.600)" style="opacity: 1;"><rect class="node-rect" width="20" height="24.799999999999898" style="stroke-width: 0; stroke: rgb(128, 0, 128); stroke-opacity: 1; fill: rgb(87, 74, 226); fill-opacity: 1;"/><rect class="node-capture" x="-10" y="-10" width="40" height="44.7999999999999" style="fill-opacity: 0;"/><g class="node-entered" transform="translate(0,13.399999999999949)"><path class="node-label-guide" id="7b3409_0_node_8" d="M24,0L540,0" transform="matrix(1 0 0 1 0 0)"/><text class="node-label" transform="scale(1 1)" style="cursor: default; fill: rgb(42, 63, 95); text-shadow: rgb(255, 255, 255) -1px 1px 1px, rgb(255, 255, 255) 1px 1px 1px, rgb(255, 255, 255) 1px -1px 1px, rgb(255, 255, 255) -1px -1px 1px; font-family: 'Open Sans', verdana, arial, sans-serif; font-size: 10px; fill-opacity: 1;"><textPath class="node-label-text-path" alignment-baseline="middle" xlink:href="#7b3409_0_node_8" startOffset="0%" text-anchor="start" style="fill: rgb(0, 0, 0);">C2</textPath></text></g></g><g class="sankey-node" transform="translate(346.667,183.200)" style="opacity: 1;"><rect class="node-rect" width="20" height="26.399999999999807" style="stroke-width: 0; stroke: rgb(128, 0, 128); stroke-opacity: 1; fill: rgb(87, 74, 226); fill-opacity: 1;"/><rect class="node-capture" x="-10" y="-10" width="40" height="46.39999999999981" style="fill-opacity: 0;"/><g class="node-entered" transform="translate(0,14.199999999999903)"><path class="node-label-guide" id="7b3409_0_node_9" d="M24,0L540,0" transform="matrix(1 0 0 1 0 0)"/><text class="node-label" transform="scale(1 1)" style="cursor: default; fill: rgb(42, 63, 95); text-shadow: rgb(255, 255, 255) -1px 1px 1px, rgb(255, 255, 255) 1px 1px 1px, rgb(255, 255, 255) 1px -1px 1px, rgb(255, 255, 255) -1px -1px 1px; font-family: 'Open Sans', verdana, arial, sans-serif; font-size: 10px; fill-opacity: 1;"><textPath class="node-label-text-path" alignment-baseline="middle" xlink:href="#7b3409_0_node_9" startOffset="0%" text-anchor="start" style="fill: rgb(0, 0, 0);">C3</textPath></text></g></g><g class="sankey-node" transform="translate(346.667,20.000)" style="opacity: 1;"><rect class="node-rect" width="20" height="143.20000000000016" style="stroke-width: 0; stroke: rgb(128, 0, 128); stroke-opacity: 1; fill: rgb(87, 74, 226); fill-opacity: 1;"/><rect class="node-capture" x="-10" y="-10" width="40" height="163.20000000000016" style="fill-opacity: 0;"/><g class="node-entered" transform="translate(0,72.60000000000008)"><path class="node-label-guide" id="7b3409_0_node_10" d="M24,0L540,0" transform="matrix(1 0 0 1 0 0)"/><text class="node-label" transform="scale(1 1)" style="cursor: default; fill: rgb(42, 63, 95); text-shadow: rgb(255, 255, 255) -1px 1px 1px, rgb(255, 255, 255) 1px 1px 1px, rgb(255, 255, 255) 1px -1px 1px, rgb(255, 255, 255) -1px -1px 1px; font-family: 'Open Sans', verdana, arial, sans-serif; font-size: 10px; fill-opacity: 1;"><textPath class="node-label-text-path" alignment-baseline="middle" xlink:href="#7b3409_0_node_10" startOffset="0%" text-anchor="start" style="fill: rgb(0, 0, 0);">C4</textPath></text></g></g><g class="sankey-node" transform="translate(520.000,0.000)" style="opacity: 1;"><rect class="node-rect" width="20" height="75.99999999999991" style="stroke-width: 0; stroke: rgb(128, 0, 128); stroke-opacity: 1; fill: rgb(87, 74, 226); fill-opacity: 1;"/><rect class="node-capture" x="-10" y="-10" width="40" height="95.99999999999991" style="fill-opacity: 0;"/><g class="node-entered" transform="translate(0,38.99999999999996)"><path class="node-label-guide" id="7b3409_0_node_11" d="M-540,0L-4,0" transform="matrix(1 0 0 1 0 0)"/><text class="node-label" transform="scale(1 1)" style="cursor: default; fill: rgb(42, 63, 95); text-shadow: rgb(255, 255, 255) -1px 1px 1px, rgb(255, 255, 255) 1px 1px 1px, rgb(255, 255, 255) 1px -1px 1px, rgb(255, 255, 255) -1px -1px 1px; font-family: 'Open Sans', verdana, arial, sans-serif; font-size: 10px; fill-opacity: 1;"><textPath class="node-label-text-path" alignment-baseline="middle" xlink:href="#7b3409_0_node_11" startOffset="100%" text-anchor="end" style="fill: rgb(0, 0, 0);">D1</textPath></text></g></g><g class="sankey-node" transform="translate(520.000,164.800)" style="opacity: 1;"><rect class="node-rect" width="20" height="31.999999999999858" style="stroke-width: 0; stroke: rgb(128, 0, 128); stroke-opacity: 1; fill: rgb(87, 74, 226); fill-opacity: 1;"/><rect class="node-capture" x="-10" y="-10" width="40" height="51.99999999999986" style="fill-opacity: 0;"/><g class="node-entered" transform="translate(0,16.99999999999993)"><path class="node-label-guide" id="7b3409_0_node_12" d="M-540,0L-4,0" transform="matrix(1 0 0 1 0 0)"/><text class="node-label" transform="scale(1 1)" style="cursor: default; fill: rgb(42, 63, 95); text-shadow: rgb(255, 255, 255) -1px 1px 1px, rgb(255, 255, 255) 1px 1px 1px, rgb(255, 255, 255) 1px -1px 1px, rgb(255, 255, 255) -1px -1px 1px; font-family: 'Open Sans', verdana, arial, sans-serif; font-size: 10px; fill-opacity: 1;"><textPath class="node-label-text-path" alignment-baseline="middle" xlink:href="#7b3409_0_node_12" startOffset="100%" text-anchor="end" style="fill: rgb(0, 0, 0);">D2</textPath></text></g></g><g class="sankey-node" transform="translate(520.000,96.000)" style="opacity: 1;"><rect class="node-rect" width="20" height="48.80000000000004" style="stroke-width: 0; stroke: rgb(128, 0, 128); stroke-opacity: 1; fill: rgb(87, 74, 226); fill-opacity: 1;"/><rect class="node-capture" x="-10" y="-10" width="40" height="68.80000000000004" style="fill-opacity: 0;"/><g class="node-entered" transform="translate(0,25.40000000000002)"><path class="node-label-guide" id="7b3409_0_node_13" d="M-540,0L-4,0" transform="matrix(1 0 0 1 0 0)"/><text class="node-label" transform="scale(1 1)" style="cursor: default; fill: rgb(42, 63, 95); text-shadow: rgb(255, 255, 255) -1px 1px 1px, rgb(255, 255, 255) 1px 1px 1px, rgb(255, 255, 255) 1px -1px 1px, rgb(255, 255, 255) -1px -1px 1px; font-family: 'Open Sans', verdana, arial, sans-serif; font-size: 10px; fill-opacity: 1;"><textPath class="node-label-text-path" alignment-baseline="middle" xlink:href="#7b3409_0_node_13" startOffset="100%" text-anchor="end" style="fill: rgb(0, 0, 0);">D3</textPath></text></g></g><g class="sankey-node" transform="translate(520.000,216.800)" style="opacity: 1;"><rect class="node-rect" width="20" height="47.99999999999983" style="stroke-width: 0; stroke: rgb(128, 0, 128); stroke-opacity: 1; fill: rgb(87, 74, 226); fill-opacity: 1;"/><rect class="node-capture" x="-10" y="-10" width="40" height="67.99999999999983" style="fill-opacity: 0;"/><g class="node-entered" transform="translate(0,24.999999999999915)"><path class="node-label-guide" id="7b3409_0_node_14" d="M-540,0L-4,0" transform="matrix(1 0 0 1 0 0)"/><text class="node-label" transform="scale(1 1)" style="cursor: default; fill: rgb(42, 63, 95); text-shadow: rgb(255, 255, 255) -1px 1px 1px, rgb(255, 255, 255) 1px 1px 1px, rgb(255, 255, 255) 1px -1px 1px, rgb(255, 255, 255) -1px -1px 1px; font-family: 'Open Sans', verdana, arial, sans-serif; font-size: 10px; fill-opacity: 1;"><textPath class="node-label-text-path" alignment-baseline="middle" xlink:href="#7b3409_0_node_14" startOffset="100%" text-anchor="end" style="fill: rgb(0, 0, 0);">D4</textPath></text></g></g><g class="sankey-node" transform="translate(520.000,284.800)" style="opacity: 1;"><rect class="node-rect" width="20" height="35.19999999999993" style="stroke-width: 0; stroke: rgb(128, 0, 128); stroke-opacity: 1; fill: rgb(87, 74, 226); fill-opacity: 1;"/><rect class="node-capture" x="-10" y="-10" width="40" height="55.19999999999993" style="fill-opacity: 0;"/><g class="node-entered" transform="translate(0,18.599999999999966)"><path class="node-label-guide" id="7b3409_0_node_15" d="M-540,0L-4,0" transform="matrix(1 0 0 1 0 0)"/><text class="node-label" transform="scale(1 1)" style="cursor: default; fill: rgb(42, 63, 95); text-shadow: rgb(255, 255, 255) -1px 1px 1px, rgb(255, 255, 255) 1px 1px 1px, rgb(255, 255, 255) 1px -1px 1px, rgb(255, 255, 255) -1px -1px 1px; font-family: 'Open Sans', verdana, arial, sans-serif; font-size: 10px; fill-opacity: 1;"><textPath class="node-label-text-path" alignment-baseline="middle" xlink:href="#7b3409_0_node_15" startOffset="100%" text-anchor="end" style="fill: rgb(0, 0, 0);">D5</textPath></text></g></g></g></g><defs id="topdefs-07431c"><g class="clips"/></defs><g class="layer-above"><g class="imagelayer"/><g class="shapelayer"/></g><g class="infolayer"><g class="g-gtitle"><text class="gtitle" x="35" y="50" text-anchor="start" dy="0em" style="font-family: 'Open Sans', verdana, arial, sans-serif; font-size: 14px; fill: rgb(42, 63, 95); opacity: 1; font-weight: normal; white-space: pre;">Sankey Diagram 41</text></g><g class="first-render"/></g></svg>