<svg class="main-svg" xmlns="http://www.w3.org/2000/svg" xmlns:xlink="http://www.w3.org/1999/xlink" width="700" height="500" style="" viewBox="0 0 700 500"><rect x="0" y="0" width="700" height="500" style="fill: rgb(255, 255, 255); fill-opacity: 1;"/><defs id="defs-043586"><g class="clips"/><g class="gradients"/></defs><g class="bglayer"/><g class="layer-below"><g class="imagelayer"/><g class="shapelayer"/></g><g class="cartesianlayer"/><g class="polarlayer"/><g class="ternarylayer"/><g class="geolayer"/><g class="funnelarealayer"/><g class="pielayer"/><g class="treemaplayer"/><g class="sunburstlayer"/><g class="glimages"/><g class="sankey" transform="translate(80,100)matrix(1 0 0 1 0 0)" style="box-sizing: content-box; position: absolute; left: 0px; shape-rendering: geometricprecision; pointer-events: auto;"><g class="sankey-links" style="fill: none;"><path class="sankey-link" d="M20,2.6290081223123707e-13C270,2.6290081223123707e-13 270,-5.684341886080802e-14 520,-5.684341886080802e-14L520,51.99999999999994C270,51.99999999999994 270,52.00000000000026 20,52.00000000000026Z" style="stroke: rgb(68, 68, 68); stroke-opacity: 1; fill: rgb(0, 0, 0); fill-opacity: 0.2; stroke-width: 0; opacity: 1;"/><path class="sankey-link" d="M20,52.00000000000026C270,52.00000000000026 270,182.49999999999994 520,182.49999999999994L520,195.49999999999994C270,195.49999999999994 270,65.00000000000026 20,65.00000000000026Z" style="stroke: rgb(68, 68, 68); stroke-opacity: 1; fill: rgb(0, 0, 0); fill-opacity: 0.2; stroke-width: 0; opacity: 1;"/><path class="sankey-link" d="M20,313.5C270,313.5 270,313.5 520,313.5L520,320C270,320 270,320 20,320Z" style="stroke: rgb(68, 68, 68); stroke-opacity: 1; fill: rgb(0, 0, 0); fill-opacity: 0.2; stroke-width: 0; opacity: 1;"/><path class="sankey-link" d="M20,255C270,255 270,136.49999999999994 520,136.49999999999994L520,162.49999999999994C270,162.49999999999994 270,281 20,281Z" style="stroke: rgb(68, 68, 68); stroke-opacity: 1; fill: rgb(0, 0, 0); fill-opacity: 0.2; stroke-width: 0; opacity: 1;"/><path class="sankey-link" d="M20,281C270,281 270,221.49999999999994 520,221.49999999999994L520,253.99999999999994C270,253.99999999999994 270,313.5 20,313.5Z" style="stroke: rgb(68, 68, 68); stroke-opacity: 1; fill: rgb(0, 0, 0); fill-opacity: 0.2; stroke-width: 0; opacity: 1;"/><path class="sankey-link" d="M20,228.50000000000006C270,228.50000000000006 270,307 520,307L520,313.5C270,313.5 270,235.00000000000006 20,235.00000000000006Z" style="stroke: rgb(68, 68, 68); stroke-opacity: 1; fill: rgb(0, 0, 0); fill-opacity: 0.2; stroke-width: 0; opacity: 1;"/><path class="sankey-link" d="M20,170.00000000000006C270,170.00000000000006 270,97.49999999999994 520,97.49999999999994L520,136.49999999999994C270,136.49999999999994 270,209.00000000000006 20,209.00000000000006Z" style="stroke: rgb(68, 68, 68); stroke-opacity: 1; fill: rgb(0, 0, 0); fill-opacity: 0.2; stroke-width: 0; opacity: 1;"/><path class="sankey-link" d="M20,209.00000000000006C270,209.00000000000006 270,214.99999999999994 520,214.99999999999994L520,221.49999999999994C270,221.49999999999994 270,215.50000000000006 20,215.50000000000006Z" style="stroke: rgb(68, 68, 68); stroke-opacity: 1; fill: rgb(0, 0, 0); fill-opacity: 0.2; stroke-width: 0; opacity: 1;"/><path class="sankey-link" d="M20,215.50000000000006C270,215.50000000000006 270,274 520,274L520,287C270,287 270,228.50000000000006 20,228.50000000000006Z" style="stroke: rgb(68, 68, 68); stroke-opacity: 1; fill: rgb(0, 0, 0); fill-opacity: 0.2; stroke-width: 0; opacity: 1;"/><path class="sankey-link" d="M20,85.00000000000028C270,85.00000000000028 270,51.99999999999994 520,51.99999999999994L520,97.49999999999994C270,97.49999999999994 270,130.50000000000028 20,130.50000000000028Z" style="stroke: rgb(68, 68, 68); stroke-opacity: 1; fill: rgb(0, 0, 0); fill-opacity: 0.2; stroke-width: 0; opacity: 1;"/><path class="sankey-link" d="M20,130.50000000000028C270,130.50000000000028 270,195.49999999999994 520,195.49999999999994L520,214.99999999999994C270,214.99999999999994 270,150.00000000000028 20,150.00000000000028Z" style="stroke: rgb(68, 68, 68); stroke-opacity: 1; fill: rgb(0, 0, 0); fill-opacity: 0.2; stroke-width: 0; opacity: 1;"/></g><g class="sankey-node-set" style="cursor: move;"><g class="sankey-node" transform="translate(0.000,0.000)" style="opacity: 1;"><rect class="node-rect" width="20" height="65.00000000000003" style="stroke-width: 0; stroke: rgb(128, 0, 128); stroke-opacity: 1; fill: rgb(99, 110, 250); fill-opacity: 0.8;"/><rect class="node-capture" x="-10" y="-10" width="40" height="85.00000000000003" style="fill-opacity: 0;"/><g class="node-entered" transform="translate(0,33.500000000000014)"><path class="node-label-guide" id="51728a_0_node_0" d="M24,0L540,0" transform="matrix(1 0 0 1 0 0)"/><text class="node-label" transform="scale(1 1)" style="cursor: default; fill: rgb(42, 63, 95); text-shadow: rgb(255, 255, 255) -1px 1px 1px, rgb(255, 255, 255) 1px 1px 1px, rgb(255, 255, 255) 1px -1px 1px, rgb(255, 255, 255) -1px -1px 1px; font-family: 'Open Sans', verdana, arial, sans-serif; font-size: 10px; fill-opacity: 1;"><textPath class="node-label-text-path" alignment-baseline="middle" xlink:href="#51728a_0_node_0" startOffset="0%" text-anchor="start" style="fill: rgb(0, 0, 0);">A1</textPath></text></g></g><g class="sankey-node" transform="translate(0.000,255.000)" style="opacity: 1;"><rect class="node-rect" width="20" height="65" style="stroke-width: 0; stroke: rgb(128, 0, 128); stroke-opacity: 1; fill: rgb(239, 85, 59); fill-opacity: 0.8;"/><rect class="node-capture" x="-10" y="-10" width="40" height="85" style="fill-opacity: 0;"/><g class="node-entered" transform="translate(0,33.5)"><path class="node-label-guide" id="51728a_0_node_1" d="M24,0L540,0" transform="matrix(1 0 0 1 0 0)"/><text class="node-label" transform="scale(1 1)" style="cursor: default; fill: rgb(42, 63, 95); text-shadow: rgb(255, 255, 255) -1px 1px 1px, rgb(255, 255, 255) 1px 1px 1px, rgb(255, 255, 255) 1px -1px 1px, rgb(255, 255, 255) -1px -1px 1px; font-family: 'Open Sans', verdana, arial, sans-serif; font-size: 10px; fill-opacity: 1;"><textPath class="node-label-text-path" alignment-baseline="middle" xlink:href="#51728a_0_node_1" startOffset="0%" text-anchor="start" style="fill: rgb(0, 0, 0);">A2</textPath></text></g></g><g class="sankey-node" transform="translate(0.000,170.000)" style="opacity: 1;"><rect class="node-rect" width="20" height="64.99999999999994" style="stroke-width: 0; stroke: rgb(128, 0, 128); stroke-opacity: 1; fill: rgb(0, 204, 150); fill-opacity: 0.8;"/><rect class="node-capture" x="-10" y="-10" width="40" height="84.99999999999994" style="fill-opacity: 0;"/><g class="node-entered" transform="translate(0,33.49999999999997)"><path class="node-label-guide" id="51728a_0_node_2" d="M24,0L540,0" transform="matrix(1 0 0 1 0 0)"/><text class="node-label" transform="scale(1 1)" style="cursor: default; fill: rgb(42, 63, 95); text-shadow: rgb(255, 255, 255) -1px 1px 1px, rgb(255, 255, 255) 1px 1px 1px, rgb(255, 255, 255) 1px -1px 1px, rgb(255, 255, 255) -1px -1px 1px; font-family: 'Open Sans', verdana, arial, sans-serif; font-size: 10px; fill-opacity: 1;"><textPath class="node-label-text-path" alignment-baseline="middle" xlink:href="#51728a_0_node_2" startOffset="0%" text-anchor="start" style="fill: rgb(0, 0, 0);">A3</textPath></text></g></g><g class="sankey-node" transform="translate(0.000,85.000)" style="opacity: 1;"><rect class="node-rect" width="20" height="64.99999999999977" style="stroke-width: 0; stroke: rgb(128, 0, 128); stroke-opacity: 1; fill: rgb(171, 99, 250); fill-opacity: 0.8;"/><rect class="node-capture" x="-10" y="-10" width="40" height="84.99999999999977" style="fill-opacity: 0;"/><g class="node-entered" transform="translate(0,33.499999999999886)"><path class="node-label-guide" id="51728a_0_node_3" d="M24,0L540,0" transform="matrix(1 0 0 1 0 0)"/><text class="node-label" transform="scale(1 1)" style="cursor: default; fill: rgb(42, 63, 95); text-shadow: rgb(255, 255, 255) -1px 1px 1px, rgb(255, 255, 255) 1px 1px 1px, rgb(255, 255, 255) 1px -1px 1px, rgb(255, 255, 255) -1px -1px 1px; font-family: 'Open Sans', verdana, arial, sans-serif; font-size: 10px; fill-opacity: 1;"><textPath class="node-label-text-path" alignment-baseline="middle" xlink:href="#51728a_0_node_3" startOffset="0%" text-anchor="start" style="fill: rgb(0, 0, 0);">A4</textPath></text></g></g><g class="sankey-node" transform="translate(520.000,307.000)" style="opacity: 1;"><rect class="node-rect" width="20" height="13" style="stroke-width: 0; stroke: rgb(128, 0, 128); stroke-opacity: 1; fill: rgb(255, 161, 90); fill-opacity: 0.8;"/><rect class="node-capture" x="-10" y="-10" width="40" height="33" style="fill-opacity: 0;"/><g class="node-entered" transform="translate(0,7.5)"><path class="node-label-guide" id="51728a_0_node_4" d="M-540,0L-4,0" transform="matrix(1 0 0 1 0 0)"/><text class="node-label" transform="scale(1 1)" style="cursor: default; fill: rgb(42, 63, 95); text-shadow: rgb(255, 255, 255) -1px 1px 1px, rgb(255, 255, 255) 1px 1px 1px, rgb(255, 255, 255) 1px -1px 1px, rgb(255, 255, 255) -1px -1px 1px; font-family: 'Open Sans', verdana, arial, sans-serif; font-size: 10px; fill-opacity: 1;"><textPath class="node-label-text-path" alignment-baseline="middle" xlink:href="#51728a_0_node_4" startOffset="100%" text-anchor="end" style="fill: rgb(0, 0, 0);">B1</textPath></text></g></g><g class="sankey-node" transform="translate(520.000,-0.000)" style="opacity: 1;"><rect class="node-rect" width="20" height="162.5" style="stroke-width: 0; stroke: rgb(128, 0, 128); stroke-opacity: 1; fill: rgb(25, 211, 243); fill-opacity: 0.8;"/><rect class="node-capture" x="-10" y="-10" width="40" height="182.5" style="fill-opacity: 0;"/><g class="node-entered" transform="translate(0,82.25)"><path class="node-label-guide" id="51728a_0_node_5" d="M-540,0L-4,0" transform="matrix(1 0 0 1 0 0)"/><text class="node-label" transform="scale(1 1)" style="cursor: default; fill: rgb(42, 63, 95); text-shadow: rgb(255, 255, 255) -1px 1px 1px, rgb(255, 255, 255) 1px 1px 1px, rgb(255, 255, 255) 1px -1px 1px, rgb(255, 255, 255) -1px -1px 1px; font-family: 'Open Sans', verdana, arial, sans-serif; font-size: 10px; fill-opacity: 1;"><textPath class="node-label-text-path" alignment-baseline="middle" xlink:href="#51728a_0_node_5" startOffset="100%" text-anchor="end" style="fill: rgb(0, 0, 0);">B2</textPath></text></g></g><g class="sankey-node" transform="translate(520.000,182.500)" style="opacity: 1;"><rect class="node-rect" width="20" height="71.50000000000006" style="stroke-width: 0; stroke: rgb(128, 0, 128); stroke-opacity: 1; fill: rgb(255, 102, 146); fill-opacity: 0.8;"/><rect class="node-capture" x="-10" y="-10" width="40" height="91.50000000000006" style="fill-opacity: 0;"/><g class="node-entered" transform="translate(0,36.75000000000003)"><path class="node-label-guide" id="51728a_0_node_6" d="M-540,0L-4,0" transform="matrix(1 0 0 1 0 0)"/><text class="node-label" transform="scale(1 1)" style="cursor: default; fill: rgb(42, 63, 95); text-shadow: rgb(255, 255, 255) -1px 1px 1px, rgb(255, 255, 255) 1px 1px 1px, rgb(255, 255, 255) 1px -1px 1px, rgb(255, 255, 255) -1px -1px 1px; font-family: 'Open Sans', verdana, arial, sans-serif; font-size: 10px; fill-opacity: 1;"><textPath class="node-label-text-path" alignment-baseline="middle" xlink:href="#51728a_0_node_6" startOffset="100%" text-anchor="end" style="fill: rgb(0, 0, 0);">B3</textPath></text></g></g><g class="sankey-node" transform="translate(520.000,274.000)" style="opacity: 1;"><rect class="node-rect" width="20" height="13" style="stroke-width: 0; stroke: rgb(128, 0, 128); stroke-opacity: 1; fill: rgb(182, 232, 128); fill-opacity: 0.8;"/><rect class="node-capture" x="-10" y="-10" width="40" height="33" style="fill-opacity: 0;"/><g class="node-entered" transform="translate(0,7.5)"><path class="node-label-guide" id="51728a_0_node_7" d="M-540,0L-4,0" transform="matrix(1 0 0 1 0 0)"/><text class="node-label" transform="scale(1 1)" style="cursor: default; fill: rgb(42, 63, 95); text-shadow: rgb(255, 255, 255) -1px 1px 1px, rgb(255, 255, 255) 1px 1px 1px, rgb(255, 255, 255) 1px -1px 1px, rgb(255, 255, 255) -1px -1px 1px; font-family: 'Open Sans', verdana, arial, sans-serif; font-size: 10px; fill-opacity: 1;"><textPath class="node-label-text-path" alignment-baseline="middle" xlink:href="#51728a_0_node_7" startOffset="100%" text-anchor="end" style="fill: rgb(0, 0, 0);">B4</textPath></text></g></g></g></g><defs id="topdefs-043586"><g class="clips"/></defs><g class="layer-above"><g class="imagelayer"/><g class="shapelayer"/></g><g class="infolayer"><g class="g-gtitle"><text class="gtitle" x="35" y="50" text-anchor="start" dy="0em" style="font-family: 'Open Sans', verdana, arial, sans-serif; font-size: 14px; fill: rgb(42, 63, 95); opacity: 1; font-weight: normal; white-space: pre;">Sankey Diagram 7</text></g><g class="first-render"/></g></svg>